<?xml version="1.0" encoding="UTF-8"?>
<svg width="933px" height="118px" viewBox="0 0 933 118" version="1.1" xmlns="http://www.w3.org/2000/svg" xmlns:xlink="http://www.w3.org/1999/xlink">
    <title>Artboard</title>
    <g id="Artboard" stroke="none" stroke-width="1" fill="none" fill-rule="evenodd">
        <g id="Gambero" transform="translate(0.770000, 3.020000)" fill="#424242" fill-rule="nonzero">
            <path d="M0,25.48 C0,39.48 11.41,50.96 25.48,50.96 C38.57,50.96 45.85,42.35 45.85,35.07 L45.85,25.34 C45.85,24.29 45.5,23.94 44.45,23.94 L28.84,23.94 C27.79,23.94 27.44,24.29 27.44,25.34 L27.44,30.52 C27.44,31.57 27.79,31.92 28.84,31.92 L36.26,31.92 L36.26,35.35 C36.26,37.52 33.18,41.58 25.48,41.58 C16.59,41.58 10.08,34.37 10.08,25.48 C10.08,16.59 16.52,9.45 26.04,9.38 C30.8,9.31 34.3,10.78 36.47,11.83 L37.03,14.91 C37.31,15.89 37.59,16.24 38.36,16.24 L42.07,16.24 C43.12,16.24 43.54,15.75 43.54,14.77 L43.54,5.74 C43.54,5.25 43.4,4.83 42.77,4.48 C38.01,1.68 32.55,0 26.6,0 C11.34,0 0,11.41 0,25.48 Z" id="Path"></path>
            <path d="M80.5810526,43.4 L76.8010526,42.56 L76.8010526,27.86 C76.8010526,22.54 72.4610526,17.99 63.6410526,17.99 C60.4210526,17.99 56.7110526,18.69 53.2110526,20.09 C52.5110526,20.37 52.3710526,20.79 52.3710526,21.56 L52.3010526,28.21 C52.3010526,29.19 52.7210526,29.68 53.7710526,29.68 L57.4810526,29.68 C58.2510526,29.68 58.7410526,29.4 58.8810526,28.63 L59.6510526,25.76 C60.3510526,25.48 61.1210526,25.34 62.1010526,25.34 C66.7910526,25.34 68.1910526,28.28 68.1910526,30.38 L68.1910526,33.39 C55.9410526,29.47 50.4110526,35.42 50.4110526,41.65 C50.4110526,47.11 54.7510526,50.75 60.3510526,50.75 C63.7110526,50.75 66.3710526,49.21 68.4010526,47.32 L68.7510526,48.44 C69.1010526,49.42 69.7310526,49.98 70.7810526,49.98 L80.1610526,49.98 C81.1410526,49.98 81.6310526,49.56 81.6310526,48.51 L81.6310526,44.8 C81.6310526,44.03 81.2810526,43.54 80.5810526,43.4 Z M59.5110526,41.23 C59.5110526,38.78 62.1710526,36.89 68.1910526,39.55 L68.1910526,42.07 C67.0710526,42.98 65.7410526,43.61 64.2010526,43.82 C61.6110526,44.24 59.5110526,43.12 59.5110526,41.23 Z" id="Shape"></path>
            <path d="M145.552105,43.4 L141.772105,42.56 L141.772105,29.47 C141.772105,22.05 135.752105,17.99 129.662105,17.99 C125.882105,17.99 121.752105,19.46 118.322105,22.12 C116.082105,19.39 112.582105,17.99 109.012105,17.99 C105.232105,17.99 101.522105,19.46 98.5821053,21.91 L98.3021053,20.51 C98.1621053,19.46 97.8121053,18.97 96.7621053,18.97 L87.0321053,18.97 C86.0521053,18.97 85.5621053,19.39 85.5621053,20.44 L85.5621053,24.08 C85.5621053,24.85 85.8421053,25.41 86.6121053,25.55 L90.3221053,26.39 L90.3221053,42.56 L86.6121053,43.4 C85.9121053,43.54 85.6321053,44.03 85.6321053,44.8 L85.6321053,48.51 C85.6321053,49.56 86.1221053,49.98 87.1021053,49.98 L103.202105,49.98 C104.182105,49.98 104.672105,49.56 104.672105,48.51 L104.672105,44.8 C104.672105,44.03 104.322105,43.54 103.622105,43.4 L99.8421053,42.56 L99.8421053,28.7 C101.592105,27.37 103.552105,26.46 105.792105,26.46 C108.872105,26.46 111.322105,28.56 111.322105,32.62 L111.322105,48.51 C111.322105,49.56 111.742105,49.98 112.792105,49.98 L124.132105,49.98 C125.112105,49.98 125.602105,49.56 125.602105,48.51 L125.602105,44.8 C125.602105,44.03 125.322105,43.54 124.552105,43.4 L120.842105,42.56 L120.842105,29.47 C120.842105,29.12 120.842105,28.77 120.772105,28.42 C122.172105,27.23 124.062105,26.46 126.162105,26.46 C129.312105,26.46 132.252105,28.56 132.252105,32.62 L132.252105,48.51 C132.252105,49.56 132.672105,49.98 133.722105,49.98 L145.062105,49.98 C146.042105,49.98 146.532105,49.56 146.532105,48.51 L146.532105,44.8 C146.532105,44.03 146.252105,43.54 145.552105,43.4 Z" id="Path"></path>
            <path d="M188.473158,34.23 C188.263158,25.2 181.613158,17.99 172.653158,18.2 C169.503158,18.27 166.983158,19.25 165.583158,20.02 L165.583158,9.73 L165.023158,2.45 C164.883158,1.4 164.603158,0.98 163.553158,0.98 L152.773158,0.98 C151.793158,0.98 151.303158,1.4 151.303158,2.45 L151.303158,6.16 C151.303158,6.93 151.583158,7.42 152.283158,7.56 L156.063158,8.4 L156.063158,42.56 L152.353158,43.4 C151.653158,43.54 151.373158,44.03 151.373158,44.8 L151.373158,48.51 C151.373158,49.56 151.863158,49.98 152.843158,49.98 L162.503158,49.98 C163.553158,49.98 163.833158,49.49 164.043158,48.44 L164.183158,47.6 C166.353158,48.93 168.873158,50.12 171.813158,50.4 C180.983158,51.59 188.683158,44.17 188.473158,34.23 Z M171.323158,42.49 C168.943158,42.49 166.983158,41.58 165.583158,40.67 L165.583158,27.72 C166.703158,27.02 168.733158,26.18 171.043158,26.18 C175.943158,26.18 179.443158,29.89 179.443158,34.51 C179.443158,39.2 175.943158,42.49 171.323158,42.49 Z" id="Shape"></path>
            <path d="M209.274211,17.99 C200.174211,17.99 193.594211,25.34 193.594211,34.44 C193.594211,43.61 200.174211,50.96 210.044211,50.96 C214.034211,50.96 217.814211,49.7 220.404211,48.16 C221.174211,47.67 221.524211,46.97 221.104211,46.2 L218.934211,41.58 C218.514211,40.88 217.884211,40.6 217.044211,40.95 C214.804211,42 212.284211,42.77 209.904211,42.77 C205.424211,42.77 202.764211,39.97 202.554211,36.26 L222.714211,36.26 C223.764211,36.26 224.114211,35.84 224.184211,34.79 C224.324211,34.09 224.324211,33.81 224.254211,32.9 C223.834211,24.5 217.814211,17.99 209.274211,17.99 Z M209.414211,25.41 C212.494211,25.41 215.154211,27.58 215.574211,30.8 L203.184211,30.8 C203.744211,27.58 206.334211,25.41 209.414211,25.41 Z" id="Shape"></path>
            <path d="M255.905263,18.9 C253.945263,18.2 250.655263,17.57 247.085263,18.76 C244.285263,19.74 242.185263,21.42 241.345263,22.19 L240.995263,20.51 C240.785263,19.46 240.435263,18.97 239.385263,18.97 L229.725263,18.97 C228.745263,18.97 228.255263,19.39 228.255263,20.44 L228.255263,24.08 C228.255263,24.85 228.535263,25.41 229.305263,25.55 L233.015263,26.39 L233.015263,42.56 L229.305263,43.4 C228.535263,43.54 228.255263,44.03 228.255263,44.8 L228.255263,48.51 C228.255263,49.56 228.745263,49.98 229.725263,49.98 L248.205263,49.98 C249.185263,49.98 249.675263,49.56 249.675263,48.51 L249.675263,44.8 C249.675263,44.03 249.325263,43.54 248.625263,43.4 L242.535263,42.42 L242.535263,29.47 C243.445263,28.63 244.775263,27.72 246.315263,27.16 C247.505263,26.67 248.695263,26.46 249.955263,26.46 L250.585263,29.12 C250.795263,29.89 251.285263,30.17 252.055263,30.17 L255.695263,30.17 C256.745263,30.17 257.165263,29.68 257.165263,28.7 L257.165263,20.37 C257.165263,19.53 256.745263,19.25 255.905263,18.9 Z" id="Path"></path>
            <path d="M277.966316,50.96 C287.136316,50.96 294.486316,43.61 294.486316,34.44 C294.486316,25.34 287.136316,17.99 277.966316,17.99 C268.796316,17.99 261.376316,25.34 261.376316,34.44 C261.376316,43.61 268.796316,50.96 277.966316,50.96 Z M277.966316,42.49 C273.416316,42.49 270.406316,38.71 270.406316,34.44 C270.406316,30.24 273.416316,26.46 277.966316,26.46 C282.446316,26.46 285.456316,30.24 285.456316,34.44 C285.456316,38.71 282.446316,42.49 277.966316,42.49 Z" id="Shape"></path>
        </g>
        <g id="sweet" transform="translate(80.600000, 89.520000)" fill="#424242" fill-rule="nonzero">
            <path d="M0,25.24 C0.04,25.48 0.2,25.68 0.44,25.88 C2.4,27.6 5.36,28.96 8.64,28.96 C13.44,28.96 17.8,25.92 17.8,21.2 C17.8,12.88 4.48,12.64 4.24,7.2 C4.16,5.32 5.68,3.24 9.32,3.24 C11.28,3.24 12.92,3.84 13.92,4.36 L14.36,7.4 C14.48,7.96 14.68,8.16 15.12,8.16 L16.04,8.16 C16.64,8.16 16.88,7.88 16.88,7.32 L16.88,2.76 C16.92,2.48 16.72,2.24 16.36,2 C14.12,0.56 11.48,0 9.32,0 C3.88,0 0.68,3.28 0.68,7.16 C0.72,15.36 14.4,15.24 14.2,21.36 C14.12,24 11.64,25.72 8.52,25.72 C6,25.72 4.12,24.6 3.04,23.84 L2.52,20.48 C2.4,19.92 2.2,19.72 1.76,19.72 L0.84,19.72 C0.24,19.72 0,20 0,20.56 L0,25.24 Z" id="Path"></path>
            <path d="M59.1663158,0.48 L55.3263158,0.48 L55.0863158,0.48 L51.9663158,0.48 C51.4063158,0.48 51.1263158,0.72 51.1263158,1.32 L51.1263158,2.24 C51.1263158,2.68 51.3263158,2.96 51.8463158,3.04 L53.8063158,3.36 L48.7263158,22.24 L42.1663158,1.28 C41.9263158,0.6 41.7663158,0.48 41.1263158,0.48 L39.9263158,0.48 C39.2863158,0.48 39.0863158,0.6 38.8863158,1.28 L32.3263158,22.24 L27.2463158,3.36 L29.1663158,3.04 C29.6863158,2.96 29.8463158,2.68 29.8463158,2.24 L29.8463158,1.32 C29.8463158,0.72 29.5663158,0.48 29.0063158,0.48 L25.7663158,0.48 L25.7263158,0.48 L21.8463158,0.48 C21.2863158,0.48 21.0063158,0.72 21.0063158,1.32 L21.0063158,2.24 C21.0063158,2.68 21.2063158,2.96 21.6863158,3.04 L23.6863158,3.36 L30.4463158,27.68 C30.6463158,28.36 30.8463158,28.48 31.4863158,28.48 L32.8463158,28.48 C33.4863158,28.48 33.6863158,28.36 33.8863158,27.68 L40.5263158,6.4 L47.1663158,27.68 C47.3663158,28.36 47.5663158,28.48 48.2063158,28.48 L49.5663158,28.48 C50.2063158,28.48 50.4063158,28.36 50.6063158,27.68 L57.4063158,3.36 L59.2863158,3.04 C59.8063158,2.96 60.0063158,2.68 60.0063158,2.24 L60.0063158,1.32 C60.0063158,0.72 59.7263158,0.48 59.1663158,0.48 Z" id="Path"></path>
            <path d="M83.0526316,0.48 L64.3726316,0.48 C63.8126316,0.48 63.5326316,0.72 63.5326316,1.32 L63.5326316,2.24 C63.5326316,2.68 63.6926316,2.92 64.2126316,3.04 L66.8526316,3.6 L66.8526316,25.36 L64.2126316,25.92 C63.6926316,26.04 63.5326316,26.28 63.5326316,26.72 L63.5326316,27.64 C63.5326316,28.24 63.8126316,28.48 64.3726316,28.48 L83.0526316,28.48 C83.6526316,28.48 83.8926316,28.24 83.8926316,27.64 L83.8926316,23.24 C83.8926316,22.68 83.6526316,22.4 83.0526316,22.4 L82.1326316,22.4 C81.6926316,22.4 81.4526316,22.56 81.3326316,23.08 L80.8526316,25.28 L70.4926316,25.28 L70.4926316,15.48 L81.0526316,15.48 C81.6526316,15.48 81.8926316,15.24 81.8926316,14.64 L81.8926316,13.36 C81.8926316,12.76 81.6526316,12.52 81.0526316,12.52 L70.4926316,12.52 L70.4926316,3.68 L80.8526316,3.68 L81.3326316,5.88 C81.4526316,6.4 81.6926316,6.56 82.1326316,6.56 L83.0526316,6.56 C83.6526316,6.56 83.8926316,6.28 83.8926316,5.72 L83.8926316,1.32 C83.8926316,0.72 83.6526316,0.48 83.0526316,0.48 Z" id="Path"></path>
            <path d="M109.098947,0.48 L90.4189474,0.48 C89.8589474,0.48 89.5789474,0.72 89.5789474,1.32 L89.5789474,2.24 C89.5789474,2.68 89.7389474,2.92 90.2589474,3.04 L92.8989474,3.6 L92.8989474,25.36 L90.2589474,25.92 C89.7389474,26.04 89.5789474,26.28 89.5789474,26.72 L89.5789474,27.64 C89.5789474,28.24 89.8589474,28.48 90.4189474,28.48 L109.098947,28.48 C109.698947,28.48 109.938947,28.24 109.938947,27.64 L109.938947,23.24 C109.938947,22.68 109.698947,22.4 109.098947,22.4 L108.178947,22.4 C107.738947,22.4 107.498947,22.56 107.378947,23.08 L106.898947,25.28 L96.5389474,25.28 L96.5389474,15.48 L107.098947,15.48 C107.698947,15.48 107.938947,15.24 107.938947,14.64 L107.938947,13.36 C107.938947,12.76 107.698947,12.52 107.098947,12.52 L96.5389474,12.52 L96.5389474,3.68 L106.898947,3.68 L107.378947,5.88 C107.498947,6.4 107.738947,6.56 108.178947,6.56 L109.098947,6.56 C109.698947,6.56 109.938947,6.28 109.938947,5.72 L109.938947,1.32 C109.938947,0.72 109.698947,0.48 109.098947,0.48 Z" id="Path"></path>
            <path d="M136.705263,0.48 L115.545263,0.48 C114.945263,0.48 114.705263,0.72 114.705263,1.32 L114.705263,6.08 C114.705263,6.64 114.945263,6.92 115.545263,6.92 L116.465263,6.92 C116.905263,6.92 117.145263,6.72 117.225263,6.24 L117.825263,3.56 L124.305263,3.56 L124.305263,25.32 L120.865263,25.92 C120.345263,26.04 120.145263,26.28 120.145263,26.72 L120.145263,27.64 C120.145263,28.24 120.425263,28.48 120.985263,28.48 L131.225263,28.48 C131.785263,28.48 132.065263,28.24 132.065263,27.64 L132.065263,26.72 C132.065263,26.28 131.865263,26.04 131.385263,25.92 L127.905263,25.32 L127.905263,3.56 L134.425263,3.56 L134.985263,6.24 C135.065263,6.72 135.345263,6.92 135.785263,6.92 L136.705263,6.92 C137.305263,6.92 137.545263,6.64 137.545263,6.08 L137.545263,1.32 C137.545263,0.72 137.305263,0.48 136.705263,0.48 Z" id="Path"></path>
        </g>
        <g id="Minimo" transform="translate(387.600000, 4.000000)" fill="#424242" fill-rule="nonzero">
            <path d="M39.83,0 C38.99,0 38.36,0.35 37.94,0.98 L23.66,20.44 L9.38,0.98 C8.96,0.35 8.33,0 7.49,0 L1.19,0 C0.56,0 0,0.56 0,1.19 L0,47.81 C0,48.44 0.56,49 1.19,49 L7.49,49 C8.12,49 8.68,48.44 8.68,47.81 L8.68,14.63 L22.68,33.95 C22.89,34.23 23.17,34.37 23.59,34.37 C23.94,34.37 24.29,34.23 24.5,33.95 L38.64,14.63 L38.64,47.81 C38.64,48.44 39.2,49 39.83,49 L46.13,49 C46.76,49 47.32,48.44 47.32,47.81 L47.32,1.19 C47.32,0.56 46.76,0 46.13,0 L39.83,0 Z" id="Path"></path>
            <path d="M67.8410526,8.96 C67.8410526,6.23 65.6710526,4.06 62.9410526,4.06 C60.2110526,4.06 58.0410526,6.23 58.0410526,8.96 C58.0410526,11.69 60.2110526,13.86 62.9410526,13.86 C65.6710526,13.86 67.8410526,11.69 67.8410526,8.96 Z M67.0010526,22.19 C67.0010526,21.56 66.4410526,21 65.8110526,21 L60.0710526,21 C59.4410526,21 58.8810526,21.56 58.8810526,22.19 L58.8810526,47.81 C58.8810526,48.44 59.4410526,49 60.0710526,49 L65.8110526,49 C66.4410526,49 67.0010526,48.44 67.0010526,47.81 L67.0010526,22.19 Z" id="Shape"></path>
            <path d="M91.0221053,20.16 C83.2521053,20.16 77.1621053,24.85 77.1621053,34.16 L77.1621053,47.81 C77.1621053,48.44 77.7221053,49 78.3521053,49 L84.0921053,49 C84.7221053,49 85.2821053,48.44 85.2821053,47.81 L85.2821053,34.16 C85.2821053,30.59 86.8921053,27.93 91.0221053,27.93 C95.0121053,27.93 96.7621053,30.59 96.7621053,34.16 L96.7621053,47.81 C96.7621053,48.44 97.3221053,49 97.9521053,49 L103.692105,49 C104.322105,49 104.882105,48.44 104.882105,47.81 L104.882105,34.16 C104.882105,24.85 98.7921053,20.16 91.0221053,20.16 Z" id="Path"></path>
            <path d="M124.003158,8.96 C124.003158,6.23 121.833158,4.06 119.103158,4.06 C116.373158,4.06 114.203158,6.23 114.203158,8.96 C114.203158,11.69 116.373158,13.86 119.103158,13.86 C121.833158,13.86 124.003158,11.69 124.003158,8.96 Z M123.163158,22.19 C123.163158,21.56 122.603158,21 121.973158,21 L116.233158,21 C115.603158,21 115.043158,21.56 115.043158,22.19 L115.043158,47.81 C115.043158,48.44 115.603158,49 116.233158,49 L121.973158,49 C122.603158,49 123.163158,48.44 123.163158,47.81 L123.163158,22.19 Z" id="Shape"></path>
            <path d="M163.634211,20.16 C160.204211,20.16 156.774211,21.77 154.884211,24.78 C152.994211,21.77 149.494211,20.16 146.134211,20.16 C138.994211,20.16 133.324211,23.73 133.324211,32.69 L133.324211,47.81 C133.324211,48.44 133.884211,49 134.514211,49 L140.254211,49 C140.884211,49 141.444211,48.44 141.444211,47.81 L141.444211,32.97 C141.444211,31.01 141.934211,27.86 146.134211,27.86 C149.914211,27.86 150.824211,30.52 150.824211,32.48 L150.824211,47.81 C150.824211,48.44 151.384211,49 152.014211,49 L157.754211,49 C158.384211,49 158.944211,48.44 158.944211,47.81 L158.944211,32.48 C158.944211,30.52 159.784211,27.86 163.634211,27.86 C167.834211,27.86 168.324211,31.01 168.324211,32.97 L168.324211,47.81 C168.324211,48.44 168.884211,49 169.514211,49 L175.254211,49 C175.884211,49 176.444211,48.44 176.444211,47.81 L176.444211,32.69 C176.444211,23.73 170.704211,20.16 163.634211,20.16 Z" id="Path"></path>
            <path d="M199.415263,20.16 C191.155263,20.16 184.715263,25.2 184.715263,35 C184.715263,44.8 191.155263,49.84 199.415263,49.84 C207.675263,49.84 214.115263,44.8 214.115263,35 C214.115263,25.2 207.675263,20.16 199.415263,20.16 Z M199.415263,42.07 C196.475263,42.07 192.765263,40.39 192.765263,35 C192.765263,29.61 196.475263,27.93 199.415263,27.93 C202.355263,27.93 206.065263,29.61 206.065263,35 C206.065263,40.39 202.355263,42.07 199.415263,42.07 Z" id="Shape"></path>
        </g>
        <g id="playful" transform="translate(409.200000, 90.000000)" fill="#424242" fill-rule="nonzero">
            <path d="M0,27.56 C0,27.84 0.16,28 0.44,28 L2.6,28 C2.88,28 3.04,27.84 3.04,27.56 L3.04,19.36 L10.2,19.36 C15.56,19.36 19.92,16.2 19.92,9.68 C19.92,3.28 15.56,0 10.2,0 L0.44,0 C0.16,0 0,0.16 0,0.44 L0,27.56 Z M10.2,2.88 C14.08,2.88 16.88,5.08 16.88,9.68 C16.88,14.04 14.48,16.48 10.2,16.48 L3.04,16.48 L3.04,2.88 L10.2,2.88 Z" id="Shape"></path>
            <path d="M26.0463158,27.56 C26.0463158,27.84 26.2063158,28 26.4863158,28 L41.6063158,28 C41.8863158,28 42.0463158,27.84 42.0463158,27.56 L42.0463158,25.56 C42.0463158,25.28 41.8863158,25.12 41.6063158,25.12 L29.0863158,25.12 L29.0863158,0.44 C29.0863158,0.16 28.9263158,0 28.6463158,0 L26.4863158,0 C26.2063158,0 26.0463158,0.16 26.0463158,0.44 L26.0463158,27.56 Z" id="Path"></path>
            <path d="M61.1326316,0.4 C61.0526316,0.12 60.8526316,0 60.5326316,0 L58.0926316,0 C57.7726316,0 57.5726316,0.12 57.4926316,0.4 L45.9326316,27.6 C45.8126316,27.8 46.0126316,28 46.2126316,28 L48.6526316,28 C48.9726316,28 49.1726316,27.88 49.2526316,27.6 L51.8126316,21.56 L66.8126316,21.56 L69.3726316,27.6 C69.4526316,27.88 69.6526316,28 69.9726316,28 L72.4126316,28 C72.6126316,28 72.8126316,27.8 72.6926316,27.6 L61.1326316,0.4 Z M59.3326316,3.76 L65.5726316,18.64 L53.0526316,18.64 L59.3326316,3.76 Z" id="Shape"></path>
            <path d="M82.2589474,27.56 C82.2589474,27.84 82.4189474,28 82.6989474,28 L84.8589474,28 C85.1389474,28 85.2989474,27.84 85.2989474,27.56 L85.2989474,16.8 L95.9389474,0.36 C96.0589474,0.2 95.9389474,0 95.7389474,0 L93.0189474,0 C92.7389474,0 92.5389474,0.12 92.3389474,0.36 L83.7789474,13.72 L75.2189474,0.36 C75.0189474,0.12 74.8189474,0 74.5389474,0 L71.8189474,0 C71.6189474,0 71.4989474,0.2 71.6189474,0.36 L82.2589474,16.8 L82.2589474,27.56 Z" id="Path"></path>
            <path d="M104.545263,12.56 L104.545263,2.88 L119.025263,2.88 C119.305263,2.88 119.465263,2.72 119.465263,2.44 L119.465263,0.44 C119.465263,0.16 119.305263,0 119.025263,0 L101.945263,0 C101.665263,0 101.505263,0.16 101.505263,0.44 L101.505263,27.56 C101.505263,27.84 101.665263,28 101.945263,28 L104.105263,28 C104.385263,28 104.545263,27.84 104.545263,27.56 L104.545263,15.44 L116.345263,15.44 C116.625263,15.44 116.785263,15.28 116.785263,15 L116.785263,13 C116.785263,12.72 116.625263,12.56 116.345263,12.56 L104.545263,12.56 Z" id="Path"></path>
            <path d="M145.031579,17.12 C145.031579,22.44 142.071579,25.68 136.831579,25.68 C131.711579,25.68 128.631579,22.56 128.631579,17.12 L128.631579,0.44 C128.631579,0.16 128.471579,0 128.191579,0 L126.031579,0 C125.751579,0 125.591579,0.16 125.591579,0.44 L125.591579,16.96 C125.591579,24.32 130.431579,28.56 136.831579,28.56 C143.231579,28.56 148.071579,24.32 148.071579,16.96 L148.071579,0.44 C148.071579,0.16 147.911579,0 147.631579,0 L145.471579,0 C145.191579,0 145.031579,0.16 145.031579,0.44 L145.031579,17.12 Z" id="Path"></path>
            <path d="M154.997895,27.56 C154.997895,27.84 155.157895,28 155.437895,28 L170.557895,28 C170.837895,28 170.997895,27.84 170.997895,27.56 L170.997895,25.56 C170.997895,25.28 170.837895,25.12 170.557895,25.12 L158.037895,25.12 L158.037895,0.44 C158.037895,0.16 157.877895,0 157.597895,0 L155.437895,0 C155.157895,0 154.997895,0.16 154.997895,0.44 L154.997895,27.56 Z" id="Path"></path>
        </g>
        <g id="Gaultier" transform="translate(693.450000, 2.600000)" fill="#424242" fill-rule="nonzero">
            <path d="M24.22,51.1 C31.5,51.1 38.5,48.86 41.37,46.69 L41.37,26.95 L23.45,26.95 L22.33,33.74 L31.99,33.74 L31.99,41.65 C30.1,42.56 28,42.91 25.62,42.91 C16.1,42.91 11.06,36.47 11.06,27.86 C11.06,18.97 17.29,13.37 26.32,13.37 C31.36,13.37 36.33,15.05 39.34,17.01 L39.34,8.12 C35.63,6.51 31.29,5.6 26.53,5.6 C11.27,5.6 0,15.19 0,28.84 C0,42.07 9.45,51.1 24.22,51.1 Z" id="Path"></path>
            <path d="M75.6110526,44.59 C74.1410526,44.59 73.2310526,43.61 73.2310526,41.23 C73.2310526,39.06 73.7910526,33.74 73.7910526,31.15 C73.7910526,23.66 69.3810526,20.72 61.8210526,20.72 C57.2710526,20.72 53.9110526,21.84 50.9710526,24.01 L49.6410526,32.97 C53.2810526,29.4 56.0810526,28.07 59.4410526,28.07 C63.3610526,28.07 64.6910526,30.03 64.6910526,32.97 L64.6910526,34.65 C54.7510526,34.09 48.8010526,37.8 48.8010526,43.89 C48.8010526,48.51 52.3010526,51.1 56.8510526,51.1 C60.4910526,51.1 63.5010526,49.49 65.6010526,46.76 C66.4410526,48.79 68.5410526,50.4 72.0410526,50.4 C74.1410526,50.4 75.8910526,49.84 77.5710526,48.58 L78.4810526,43.54 C77.3610526,44.24 76.5210526,44.59 75.6110526,44.59 Z M59.9310526,45.08 C57.9710526,45.08 57.1310526,43.96 57.1310526,42.56 C57.1310526,40.04 59.7210526,38.22 64.6910526,38.64 L64.6910526,42.91 C63.4310526,44.24 61.6810526,45.08 59.9310526,45.08 Z" id="Shape"></path>
            <path d="M102.222105,21.42 L102.222105,40.6 C99.9121053,42.42 98.2321053,42.98 96.4821053,42.98 C94.1721053,42.98 92.8421053,41.86 92.8421053,38.92 L92.8421053,20.3 L82.8321053,22.96 L82.8321053,41.79 C82.8321053,47.88 85.8421053,51.1 92.0021053,51.1 C96.2021053,51.1 99.5621053,49.49 102.222105,46.62 L102.222105,51.17 L112.232105,48.72 L112.232105,21.42 L102.222105,21.42 Z" id="Path"></path>
            <polygon id="Path" points="120.573158 50.4 130.583158 50.4 130.583158 0 120.573158 2.59"></polygon>
            <path d="M153.904211,43.47 C151.664211,43.47 150.474211,42.28 150.474211,38.64 L150.474211,28.28 L158.104211,28.28 L159.224211,21.42 L150.474211,21.42 L150.474211,14 L140.534211,16.59 L140.464211,21.42 L135.564211,21.42 L135.564211,28.28 L140.464211,28.28 L140.464211,40.6 C140.464211,48.65 145.294211,51.1 150.404211,51.1 C153.344211,51.1 156.074211,50.26 158.594211,48.72 L159.784211,41.16 C157.334211,42.91 155.654211,43.47 153.904211,43.47 Z" id="Path"></path>
            <path d="M169.525263,14.98 C172.675263,14.98 175.195263,12.53 175.195263,9.38 C175.195263,6.23 172.675263,3.78 169.525263,3.78 C166.445263,3.78 163.925263,6.23 163.925263,9.38 C163.925263,12.53 166.445263,14.98 169.525263,14.98 Z M164.555263,50.4 L174.565263,50.4 L174.565263,20.3 L164.555263,22.96 L164.555263,50.4 Z" id="Shape"></path>
            <path d="M200.406316,43.54 C195.576316,43.54 191.726316,41.09 190.956316,36.26 L210.486316,36.26 C211.956316,24.57 205.026316,20.72 197.816316,20.72 C189.206316,20.72 181.576316,26.25 181.576316,35.91 C181.576316,46.06 189.556316,51.1 197.956316,51.1 C202.366316,51.1 207.056316,49.91 209.506316,48.02 L210.696316,40.04 C207.196316,42.63 203.976316,43.54 200.406316,43.54 Z M197.116316,26.67 C200.196316,26.67 201.736316,28.98 201.946316,31.85 L191.096316,31.85 C191.866316,28.35 194.386316,26.67 197.116316,26.67 Z" id="Shape"></path>
            <path d="M234.857368,20.65 C231.917368,20.65 229.117368,23.17 227.787368,27.23 L227.787368,20.3 L217.777368,22.89 L217.777368,50.4 L227.787368,50.4 L227.787368,35.14 C229.397368,32.76 231.707368,30.94 234.227368,30.94 C235.347368,30.94 236.187368,31.5 237.587368,32.2 L237.587368,21.42 C236.957368,20.93 236.047368,20.65 234.857368,20.65 Z" id="Path"></path>
        </g>
        <g id="elegant" transform="translate(726.440000, 90.480000)" fill="#424242" fill-rule="nonzero">
            <polygon id="Path" points="3.182 24.768 3.182 14.491 13.545 14.491 13.975 11.911 3.182 11.911 3.182 3.139 15.437 3.139 15.91 0.387 0 0.387 0 27.52 16.34 27.52 16.77 24.768"></polygon>
            <polygon id="Path" points="25.3767895 24.768 25.3767895 0.43 22.1947895 0.43 22.1947895 27.52 37.6747895 27.52 38.1047895 24.768"></polygon>
            <polygon id="Path" points="46.1525789 24.768 46.1525789 14.491 56.5155789 14.491 56.9455789 11.911 46.1525789 11.911 46.1525789 3.139 58.4075789 3.139 58.8805789 0.387 42.9705789 0.387 42.9705789 27.52 59.3105789 27.52 59.7405789 24.768"></polygon>
            <path d="M77.1623684,27.95 C81.3333684,27.95 85.1173684,26.617 87.1813684,24.983 L87.1813684,14.405 L77.1193684,14.405 L76.6463684,17.114 L84.2143684,17.114 L84.2143684,23.607 C82.3223684,24.768 79.8283684,25.198 77.6353684,25.198 C70.0673684,25.198 66.3693684,20.038 66.3693684,13.889 C66.3693684,7.439 71.0133684,2.752 78.0223684,2.752 C81.3763684,2.752 84.5153684,3.827 86.3213684,4.988 L86.3213684,1.634 C83.9993684,0.602 81.4623684,0 78.5383684,0 C69.0783684,0 62.8433684,6.321 62.8433684,14.233 C62.8433684,22.016 68.2613684,27.95 77.1623684,27.95 Z" id="Path"></path>
            <path d="M112.515158,27.52 L116.127158,27.52 L105.420158,0.43 L103.614158,0.43 L91.4881579,27.52 L94.6701579,27.52 L99.3571579,17.028 L108.344158,17.028 L112.515158,27.52 Z M100.475158,14.491 L104.087158,6.364 L107.312158,14.491 L100.475158,14.491 Z" id="Shape"></path>
            <polygon id="Path" points="141.632947 0.43 141.632947 21.285 122.841947 0.43 120.992947 0.43 120.992947 27.52 123.959947 27.52 123.959947 6.665 142.793947 27.52 144.599947 27.52 144.599947 0.43"></polygon>
            <polygon id="Path" points="172.513737 0.43 149.465737 0.43 149.465737 3.182 159.226737 3.182 159.226737 27.52 162.408737 27.52 162.408737 3.182 172.040737 3.182"></polygon>
        </g>
    </g>
</svg>