<?xml version="1.0" encoding="UTF-8"?>
<svg width="580px" height="583px" viewBox="0 0 580 583" version="1.1" xmlns="http://www.w3.org/2000/svg" xmlns:xlink="http://www.w3.org/1999/xlink">
    <title>Group</title>
    <defs>
        <ellipse id="path-1" cx="265.5" cy="278" rx="265.5" ry="278"></ellipse>
    </defs>
    <g id="Page-1" stroke="none" stroke-width="1" fill="none" fill-rule="evenodd">
        <g id="Extra-Large-Copy" transform="translate(-702.000000, -2497.000000)">
            <g id="Group" style="mix-blend-mode: overlay;" transform="translate(702.000000, 2497.000000)">
                <g transform="translate(27.000000, 18.000000)" id="Clipped">
                    <mask id="mask-2" fill="white">
                        <use xlink:href="#path-1"></use>
                    </mask>
                    <g id="Oval"></g>
                    <g id="Group" mask="url(#mask-2)" fill="#FFFFFF" fill-rule="nonzero">
                        <g transform="translate(22.934981, 195.260166)" id="Path">
                            <path d="M6.28518348,108.181247 C6.28518348,108.181247 -7.02480214,139.776168 5.09324447,199.855056 C5.09324447,199.855056 29.5721401,136.929977 97.2698613,125.501088 C97.2698613,125.501088 115.259311,122.654898 116.892709,129.913787 C118.526107,137.172675 114.685415,133.15712 114.972363,138.71712 C115.281384,144.27712 116.627834,149.32966 126.935899,145.093469 C137.243964,140.857279 133.270834,117.469977 114.001153,112.351247 C114.001153,112.351247 130.290986,105.158549 139.981009,117.403787 C149.671032,129.649025 144.925349,133.576326 144.925349,133.576326 C144.925349,133.576326 141.614407,136.952041 142.60769,142.070771 C143.600972,147.167437 151.767962,149.90331 157.308271,143.262199 C162.84858,136.621088 161.899443,119.588072 153.55587,112.395374 C153.55587,112.395374 173.178718,111.093628 175.871617,133.355691 C175.871617,133.355691 152.20942,144.255056 158.610574,163.251723 C165.011728,182.24839 204.235351,182.68966 206.751667,151.072675 C209.245909,119.455691 196.88506,39.1666437 69.4138051,66.5695009 C69.4138051,66.5695009 29.6604319,75.6596596 6.28518348,108.181247 Z"></path>
                            <path d="M83.2314685,57.4352152 C83.2314685,57.4352152 121.108641,-19.7428801 220.591403,8.93965962 C220.591403,8.93965962 251.846693,-12.2633563 286.45707,10.6385485 C321.067447,33.5404533 306.079918,61.6934691 300.561681,65.3560088 C295.043445,69.0185485 286.964748,68.0036279 282.925399,63.524739 C278.908123,59.0458501 280.166281,48.9407707 287.384133,47.0653739 C287.384133,47.0653739 288.134614,24.516485 257.696023,31.9739453 C257.696023,31.9739453 271.955145,46.9329929 266.282398,57.5675961 C261.382205,63.436485 251.316942,62.8848977 248.646116,55.140612 C247.608687,52.1179136 246.858207,47.6610882 250.456097,46.0725168 C250.456097,46.0725168 230.700812,18.6255326 186.290047,25.5093422 C141.857209,32.3931517 124.706531,54.8537866 123.338009,56.0231517 C121.991559,57.2145803 115.347603,51.5442628 83.2314685,57.4352152 Z"></path>
                            <path d="M131.041467,57.920612 C131.041467,57.920612 174.083709,16.2868025 222.931135,40.4904533 C222.931135,40.4904533 247.145155,51.5442628 245.335174,73.4753739 C245.357247,78.0425168 243.87836,83.4921993 239.662427,85.8750564 C231.73824,90.3760088 222.114436,82.9185485 224.520387,74.0931517 C224.520387,74.0931517 226.860119,68.8420406 230.943614,67.606485 C230.943614,67.606485 220.635549,48.234739 194.081796,54.9199771 C194.081796,54.9199771 216.662419,60.700612 217.633628,76.8290247 C217.633628,76.8290247 222.246874,92.2734691 202.712318,93.1339453 C202.712318,93.1339453 195.22959,90.8172787 193.861067,83.7790247 C192.514617,76.7407707 196.796769,75.2183898 197.525176,75.1301358 C198.253583,75.0418818 188.894654,55.184739 167.550117,65.9075961 C167.57219,65.9075961 138.391757,57.0821993 131.041467,57.920612 Z"></path>
                            <path d="M8.38211322,221.389025 C8.38211322,221.389025 24.7823111,172.165374 65.4186022,154.558707 C106.054893,136.952041 147.3313,157.29458 154.946466,175.011564 C162.561632,192.728549 151.392722,203.032199 144.395598,202.877755 C137.420548,202.72331 133.09425,197.781088 133.226688,190.809025 C133.381199,183.836961 140.422468,180.48331 140.422468,180.48331 C140.422468,180.48331 132.100968,163.097279 102.567368,167.686485 C102.567368,167.686485 122.455091,175.717596 125.103844,187.322993 C125.103844,187.322993 134.639357,206.540295 114.243956,208.526009 C114.243956,208.526009 98.991551,207.886168 105.061611,192.243152 C105.061611,192.243152 101.132627,173.334739 80.8917364,186.219818 C60.6508461,199.126961 60.8715756,223.462993 60.8715756,223.462993 C60.8715756,223.462993 32.7506441,250.005374 28.1153257,260.993009 C28.1153257,261.015056 11.1412313,237.958707 8.38211322,221.389025 Z"></path>
                            <path d="M29.1527541,265.361564 C29.1527541,265.361564 53.5654309,225.867914 84.7324287,217.858866 C115.921499,209.849818 143.909993,215.145056 155.454143,234.384422 C166.998293,253.623787 163.37833,270.965691 152.650879,276.746326 C141.923428,282.526961 125.170063,271.627596 131.085612,258.985215 C131.085612,258.985215 116.407104,242.614104 97.8216849,267.744422 C97.8216849,267.744422 120.071213,262.559501 122.212289,278.202517 C124.353364,293.845533 104.929173,297.706644 97.0712048,288.219342 C89.2132365,278.732041 68.288085,288.726802 68.1556473,314.342517 C68.1777202,314.320453 34.4281879,282.107755 29.1527541,265.361564 Z"></path>
                            <path d="M90.7583426,289.322517 C90.5376132,288.616485 69.0164921,296.051882 75.3514273,322.152993 C75.3514273,322.152993 133.646074,384.438231 231.009833,378.216326 C231.009833,378.216326 175.849544,350.967914 165.144166,336.60458 C165.144166,336.60458 242.90715,374.906802 272.175875,373.207914 C272.175875,373.207914 345.435978,349.776485 371.83522,315.24712 C371.83522,315.24712 259.042473,360.256644 213.660498,333.692199 C168.278524,307.127755 170.596183,270.921564 177.151848,257.330453 C177.151848,257.330453 177.747817,305.230295 209.157618,321.182199 C240.567418,337.134104 257.850534,332.059501 257.850534,332.059501 C257.850534,332.059501 225.557816,330.382675 224.123074,309.312041 C222.688333,288.241406 236.969528,289.234263 238.624999,293.624898 C240.28047,298.015533 238.360123,306.818866 249.904273,306.554104 C261.426351,306.267279 266.922514,286.961723 251.22865,280.651564 C235.534786,274.363469 270.078945,260.838549 269.394684,276.591882 C269.394684,276.591882 262.728654,292.323152 276.369734,294.022041 C276.369734,294.022041 290.231543,297.552199 287.869738,275.091564 C285.507933,252.630929 260.8966,246.541406 241.119241,249.564104 C241.119241,249.564104 207.67873,259.625056 201.233431,289.697596 C201.233431,289.697596 186.091391,278.66585 192.580836,255.410929 C199.092355,232.156009 214.852437,217.572041 242.002159,226.198866 C242.002159,226.198866 245.114444,242.592041 256.835178,240.804898 C268.555912,239.017755 268.313109,218.542834 254.892759,215.67458 C254.892759,215.67458 255.863969,202.127596 273.919637,203.296961 C273.919637,203.296961 283.874535,205.43712 283.322712,209.982199 C282.748815,214.527279 281.490657,222.514263 289.45899,226.772517 C297.427323,231.030771 313.761302,227.16966 311.752664,210.644104 C309.744026,194.118549 293.123099,192.41966 290.80544,191.757755 C288.487781,191.09585 300.6279,174.261406 312.856312,173.753945 C325.106796,173.224422 323.914857,181.939501 322.524261,185.844739 C321.133666,189.749977 322.899501,198.089977 330.00699,201.355374 C337.114478,204.598707 362.255562,199.678549 348.459971,165.921406 C334.664381,132.164263 275.597181,128.148707 238.536707,179.269818 C238.536707,179.269818 176.004055,165.987596 143.093294,216.579183 C143.093294,216.579183 161.634568,228.11839 164.217102,240.120929 C166.799637,252.101406 171.258372,267.236961 156.601936,278.709977 C156.601936,278.709977 149.472375,286.432199 134.242044,278.820295 C134.242044,278.820295 124.662386,273.723628 126.295783,259.492675 C126.295783,259.492675 121.969486,256.800929 116.407104,257.484898 L114.641269,264.898231 C114.641269,264.898231 123.823614,266.773628 125.037626,274.826802 C126.273711,282.879977 125.832252,293.624898 111.771786,296.581406 C111.771786,296.581406 116.208448,331.088707 139.76028,357.079501 C139.782353,357.079501 108.836084,350.151564 90.7583426,289.322517 Z"></path>
                        </g>
                    </g>
                </g>
                <g fill="#FFFFFF" fill-rule="nonzero" id="Shape">
                    <path d="M290,-1.70530257e-13 C137.709497,-1.70530257e-13 2.84217094e-14,120.648611 2.84217094e-14,291.5 C2.84217094e-14,462.351389 137.709497,583 290,583 C441.480447,583 580,462.351389 580,291.5 C580,120.648611 441.480447,-1.70530257e-13 290,-1.70530257e-13 Z M290,553.85 C165.251397,553.85 82.6256983,456.683333 82.6256983,291.5 C82.6256983,126.316667 165.251397,29.15 290,29.15 C414.748603,29.15 497.374302,126.316667 497.374302,291.5 C497.374302,456.683333 414.748603,553.85 290,553.85 Z"></path>
                </g>
            </g>
        </g>
    </g>
</svg>