<?xml version="1.0" encoding="UTF-8"?>
<svg width="905px" height="305px" viewBox="0 0 905 305" version="1.1" xmlns="http://www.w3.org/2000/svg" xmlns:xlink="http://www.w3.org/1999/xlink">
    <title>Type palette</title>
    <g id="Type-palette" stroke="none" stroke-width="1" fill="none" fill-rule="evenodd">
        <g id="Magnat" transform="translate(175.452000, 22.528192)" fill="#48453E" fill-rule="nonzero">
            <polygon id="Path" points="51.984 1.0718079 44.568 1.0718079 26.424 41.4638079 8.064 1.0718079 0 1.0718079 0 51.4718079 2.88 51.4718079 2.88 6.3278079 23.616 51.9758079 24.696 51.9758079 45.144 6.5438079 45.144 51.4718079 51.984 51.4718079"></polygon>
            <path d="M76.248,14.7518079 C66.6,14.7518079 60.84,20.3678079 60.84,30.1598079 L63.36,30.1598079 C63.36,22.0238079 67.824,17.4158079 74.736,17.4158079 C81.864,17.4158079 84.528,21.8078079 84.528,28.7198079 L84.528,30.5198079 C67.896,31.5998079 59.256,36.1358079 59.256,43.8398079 C59.256,48.6638079 62.856,52.1918079 69.336,52.1918079 C75.888,52.1918079 82.728,48.3758079 85.176,39.7358079 L88.848,51.9758079 L91.008,51.9758079 L91.008,30.1598079 C91.008,20.2238079 85.824,14.7518079 76.248,14.7518079 Z M72.36,48.5918079 C68.04,48.5918079 65.736,46.3598079 65.736,42.8318079 C65.736,36.4958079 72.648,33.3998079 84.528,32.6078079 C84.528,42.6158079 78.696,48.5918079 72.36,48.5918079 Z" id="Shape"></path>
            <path d="M117.792,42.0398079 L104.688,42.0398079 L104.688,34.5518079 C107.136,35.4158079 110.088,35.9198079 113.544,35.9198079 C123.264,35.9198079 129.096,31.8878079 129.096,25.2638079 C129.096,20.5838079 126.072,17.1998079 120.744,15.6878079 C126.936,14.3918079 130.176,11.2958079 130.176,7.1918079 C130.176,1.9358079 125.136,-0.944192104 117.216,0.279807896 L117.216,2.6558079 C123.696,1.5038079 127.8,3.5918079 127.8,7.6958079 C127.8,11.8718079 123.12,14.7518079 114.048,14.7518079 L113.472,14.7518079 C103.608,14.7518079 97.56,18.7118079 97.56,25.2638079 C97.56,28.6478079 99.144,31.3838079 102.096,33.2558079 L102.096,48.0878079 L117.072,48.0878079 C122.472,48.0878079 125.496,49.8878079 125.496,53.8478079 C125.496,58.7438079 120.384,61.6238079 111.744,61.6238079 C105.624,61.6238079 99.792,59.8238079 96.264,55.8638079 L94.824,57.7358079 C98.496,61.6958079 104.544,63.7118079 111.672,63.7118079 C122.832,63.7118079 130.104,59.4638079 130.104,51.7598079 C130.104,45.4958079 125.424,42.0398079 117.792,42.0398079 Z M113.328,16.6238079 C119.016,16.6238079 122.688,19.9358079 122.688,25.1918079 C122.688,30.6638079 119.016,34.0478079 113.328,34.0478079 C107.568,34.0478079 103.824,30.6638079 103.824,25.1918079 C103.824,19.9358079 107.568,16.6238079 113.328,16.6238079 Z" id="Shape"></path>
            <path d="M157.464,14.7518079 C150.48,14.7518079 145.872,18.8558079 143.928,25.3358079 L143.928,15.4718079 L137.448,15.4718079 L137.448,51.4718079 L143.928,51.4718079 L143.928,31.5278079 C144.504,23.3198079 148.968,18.2078079 155.088,18.2078079 C160.344,18.2078079 163.944,21.7358079 163.944,28.2158079 L163.944,51.4718079 L170.424,51.4718079 L170.424,28.0718079 C170.424,19.7918079 165.096,14.7518079 157.464,14.7518079 Z" id="Path"></path>
            <path d="M193.464,14.7518079 C183.816,14.7518079 178.056,20.3678079 178.056,30.1598079 L180.576,30.1598079 C180.576,22.0238079 185.04,17.4158079 191.952,17.4158079 C199.08,17.4158079 201.744,21.8078079 201.744,28.7198079 L201.744,30.5198079 C185.112,31.5998079 176.472,36.1358079 176.472,43.8398079 C176.472,48.6638079 180.072,52.1918079 186.552,52.1918079 C193.104,52.1918079 199.944,48.3758079 202.392,39.7358079 L206.064,51.9758079 L208.224,51.9758079 L208.224,30.1598079 C208.224,20.2238079 203.04,14.7518079 193.464,14.7518079 Z M189.576,48.5918079 C185.256,48.5918079 182.952,46.3598079 182.952,42.8318079 C182.952,36.4958079 189.864,33.3998079 201.744,32.6078079 C201.744,42.6158079 195.912,48.5918079 189.576,48.5918079 Z" id="Shape"></path>
            <path d="M238.32,38.8718079 C238.248,46.4318079 235.44,49.0958079 231.768,49.0958079 C227.808,49.0958079 225.648,46.5758079 225.648,41.6798079 L225.648,17.8478079 L240.264,17.8478079 L240.264,15.4718079 L225.648,15.4718079 L225.648,6.1118079 L223.56,6.1118079 L219.168,15.4718079 L212.472,15.4718079 L212.472,17.8478079 L219.168,17.8478079 L219.168,40.3118079 C219.168,48.6638079 224.064,52.1198079 230.04,52.1198079 C235.872,52.1198079 240.984,48.7358079 240.984,38.8718079 L238.32,38.8718079 Z" id="Path"></path>
        </g>
        <g id="Elegant,-distinctive" transform="translate(148.212000, 104.896000)" fill="#48453E" fill-rule="nonzero">
            <polygon id="Path" points="10.2 3.744 10.2 2.304 9.09494702e-13 2.304 9.09494702e-13 19.104 10.2 19.104 10.2 17.664 2.28 17.664 2.28 11.304 9.48 11.304 9.48 9.864 2.28 9.864 2.28 3.744"></polygon>
            <polygon id="Path" points="12.96 19.104 15.12 19.104 15.12 0.864 12.96 0.864"></polygon>
            <path d="M27.672,14.952 C27.456,16.752 26.112,17.976 24.12,17.976 C21.24,17.976 19.968,16.224 19.848,13.152 L28.896,13.152 C29.016,9.024 26.712,6.864 23.568,6.864 C19.824,6.864 17.568,9.384 17.568,13.056 C17.568,16.848 19.896,19.344 23.928,19.344 C26.736,19.344 28.824,17.784 29.064,14.952 L27.672,14.952 Z M23.616,7.968 C25.584,7.968 26.736,9.192 26.808,12.096 L19.872,12.096 C20.016,9.192 21.408,7.968 23.616,7.968 Z" id="Shape"></path>
            <path d="M37.512,15.96 L33.72,15.96 L33.72,13.632 C34.416,13.824 35.208,13.92 36.096,13.92 C39.336,13.92 41.28,12.576 41.28,10.368 C41.28,8.928 40.416,7.872 38.928,7.296 C40.632,6.816 41.712,5.808 41.712,4.416 C41.712,2.592 40.056,1.584 37.32,2.016 L37.32,3.336 C39.24,2.952 40.392,3.528 40.392,4.728 C40.392,6.072 38.736,6.864 36.384,6.864 L36.072,6.864 C32.784,6.864 30.768,8.184 30.768,10.368 C30.768,11.496 31.296,12.408 32.28,13.032 L32.28,17.976 L37.032,17.976 C38.616,17.976 39.576,18.504 39.576,19.704 C39.576,21.216 37.992,22.056 35.568,22.056 C33.576,22.056 31.68,21.384 30.624,20.208 L29.856,21.192 C31.008,22.416 33.048,23.184 35.472,23.184 C39.192,23.184 41.616,21.768 41.616,19.2 C41.616,17.112 40.056,15.96 37.512,15.96 Z M36.024,7.848 C37.848,7.848 39.024,8.832 39.024,10.344 C39.024,11.928 37.848,12.936 36.024,12.936 C34.152,12.936 32.952,11.928 32.952,10.344 C32.952,8.832 34.152,7.848 36.024,7.848 Z" id="Shape"></path>
            <path d="M49.056,6.864 C45.864,6.864 43.92,8.736 43.92,11.928 L45.312,11.928 C45.312,9.576 46.56,8.232 48.696,8.232 C51,8.232 51.816,9.624 51.816,11.664 L51.816,11.976 C46.128,12.312 43.392,13.872 43.392,16.44 C43.392,18.192 44.784,19.344 47.04,19.344 C49.08,19.344 51.168,18.264 52.128,15.888 L52.824,19.2 L53.976,19.2 L53.976,12 C53.976,8.688 52.248,6.864 49.056,6.864 Z M47.736,17.952 C46.296,17.952 45.552,17.208 45.552,16.152 C45.552,14.184 47.856,13.32 51.816,13.104 C51.72,15.96 49.944,17.952 47.736,17.952 Z" id="Shape"></path>
            <path d="M63.696,6.864 C61.464,6.864 59.976,8.016 59.256,9.936 L59.256,7.104 L57.096,7.104 L57.096,19.104 L59.256,19.104 L59.256,12.456 C59.448,9.84 60.912,8.448 62.904,8.448 C64.704,8.448 65.928,9.672 65.928,11.856 L65.928,19.104 L68.088,19.104 L68.088,11.304 C68.088,8.544 66.24,6.864 63.696,6.864 Z" id="Path"></path>
            <path d="M77.904,14.952 C77.856,17.256 77.184,17.952 76.032,17.952 C74.832,17.952 74.112,17.184 74.112,15.672 L74.112,8.4 L79.128,8.4 L79.128,7.104 L74.112,7.104 L74.112,3.984 L72.984,3.984 L71.952,7.104 L69.72,7.104 L69.72,8.4 L71.952,8.4 L71.952,15.384 C71.952,18.168 73.584,19.32 75.576,19.32 C77.544,19.32 79.368,18.408 79.368,14.952 L77.904,14.952 Z" id="Path"></path>
            <path d="M83.376,16.464 C82.464,16.464 81.888,17.04 81.888,17.88 C81.888,18.72 82.464,19.296 83.328,19.296 C83.784,19.296 84.168,19.104 84.432,18.792 C84.552,19.128 84.6,19.44 84.6,19.68 C84.6,21.6 83.232,22.8 81.12,22.512 L81.12,23.592 C83.784,23.928 85.704,22.176 85.704,19.536 C85.704,17.976 84.864,16.464 83.376,16.464 Z" id="Path"></path>
            <path d="M102.768,0.864 L102.768,9.504 C101.88,7.824 100.272,6.864 98.28,6.864 C95.256,6.864 92.832,9.216 92.832,13.056 C92.832,16.944 95.28,19.344 98.328,19.344 C100.488,19.344 102.192,18.168 103.008,16.128 L103.8,19.08 L104.928,19.08 L104.928,0.864 L102.768,0.864 Z M98.952,18 C96.864,18 95.112,16.368 95.112,13.056 C95.112,9.792 96.84,8.208 98.928,8.208 C101.256,8.208 102.768,10.032 102.768,13.056 C102.768,16.128 101.28,18 98.952,18 Z" id="Shape"></path>
            <path d="M109.224,1.632 C108.408,1.632 107.88,2.232 107.88,2.976 C107.88,3.72 108.408,4.296 109.224,4.296 C110.064,4.296 110.592,3.72 110.592,2.976 C110.592,2.232 110.064,1.632 109.224,1.632 Z M108.192,19.104 L110.352,19.104 L110.352,7.104 L108.192,7.104 L108.192,19.104 Z" id="Shape"></path>
            <path d="M115.176,9.984 C115.176,8.928 116.16,8.112 117.72,8.112 C119.352,8.112 120.408,9.144 120.408,10.8 L121.872,10.8 C121.872,8.376 120.144,6.864 117.504,6.864 C114.912,6.864 113.088,8.304 113.088,10.488 C113.088,15.096 120.336,13.104 120.336,16.176 C120.336,17.304 119.256,18.096 117.648,18.096 C115.776,18.096 114.36,17.04 114.36,14.952 L112.872,14.952 C112.872,17.76 114.984,19.344 117.864,19.344 C120.552,19.344 122.424,17.88 122.424,15.672 C122.424,11.112 115.176,13.08 115.176,9.984 Z" id="Path"></path>
            <path d="M131.592,14.952 C131.544,17.256 130.872,17.952 129.72,17.952 C128.52,17.952 127.8,17.184 127.8,15.672 L127.8,8.4 L132.816,8.4 L132.816,7.104 L127.8,7.104 L127.8,3.984 L126.672,3.984 L125.64,7.104 L123.408,7.104 L123.408,8.4 L125.64,8.4 L125.64,15.384 C125.64,18.168 127.272,19.32 129.264,19.32 C131.232,19.32 133.056,18.408 133.056,14.952 L131.592,14.952 Z" id="Path"></path>
            <path d="M136.176,1.632 C135.36,1.632 134.832,2.232 134.832,2.976 C134.832,3.72 135.36,4.296 136.176,4.296 C137.016,4.296 137.544,3.72 137.544,2.976 C137.544,2.232 137.016,1.632 136.176,1.632 Z M135.144,19.104 L137.304,19.104 L137.304,7.104 L135.144,7.104 L135.144,19.104 Z" id="Shape"></path>
            <path d="M147.144,6.864 C144.912,6.864 143.424,8.016 142.704,9.936 L142.704,7.104 L140.544,7.104 L140.544,19.104 L142.704,19.104 L142.704,12.456 C142.896,9.84 144.36,8.448 146.352,8.448 C148.152,8.448 149.376,9.672 149.376,11.856 L149.376,19.104 L151.536,19.104 L151.536,11.304 C151.536,8.544 149.688,6.864 147.144,6.864 Z" id="Path"></path>
            <path d="M165.888,14.304 L164.496,14.304 C164.496,16.536 162.984,18.024 160.656,18.024 C157.824,18.024 156.144,16.08 156.144,12.912 C156.144,9.864 157.824,7.992 160.536,7.992 C162.936,7.992 164.112,9.432 164.352,11.832 L165.768,11.832 C165.504,8.472 163.176,6.864 160.272,6.864 C156.792,6.864 153.864,9.168 153.864,13.08 C153.864,16.968 156.744,19.344 160.344,19.344 C163.224,19.344 165.888,17.736 165.888,14.304 Z" id="Path"></path>
            <path d="M175.056,14.952 C175.008,17.256 174.336,17.952 173.184,17.952 C171.984,17.952 171.264,17.184 171.264,15.672 L171.264,8.4 L176.28,8.4 L176.28,7.104 L171.264,7.104 L171.264,3.984 L170.136,3.984 L169.104,7.104 L166.872,7.104 L166.872,8.4 L169.104,8.4 L169.104,15.384 C169.104,18.168 170.736,19.32 172.728,19.32 C174.696,19.32 176.52,18.408 176.52,14.952 L175.056,14.952 Z" id="Path"></path>
            <path d="M179.64,1.632 C178.824,1.632 178.296,2.232 178.296,2.976 C178.296,3.72 178.824,4.296 179.64,4.296 C180.48,4.296 181.008,3.72 181.008,2.976 C181.008,2.232 180.48,1.632 179.64,1.632 Z M178.608,19.104 L180.768,19.104 L180.768,7.104 L178.608,7.104 L178.608,19.104 Z" id="Shape"></path>
            <polygon id="Path" points="192.408 7.104 188.832 15.48 184.992 7.104 182.616 7.104 188.28 19.176 188.832 19.176 194.016 7.104"></polygon>
            <path d="M205.104,14.952 C204.888,16.752 203.544,17.976 201.552,17.976 C198.672,17.976 197.4,16.224 197.28,13.152 L206.328,13.152 C206.448,9.024 204.144,6.864 201,6.864 C197.256,6.864 195,9.384 195,13.056 C195,16.848 197.328,19.344 201.36,19.344 C204.168,19.344 206.256,17.784 206.496,14.952 L205.104,14.952 Z M201.048,7.968 C203.016,7.968 204.168,9.192 204.24,12.096 L197.304,12.096 C197.448,9.192 198.84,7.968 201.048,7.968 Z" id="Shape"></path>
            <path d="M210.192,16.464 C209.28,16.464 208.704,17.04 208.704,17.88 C208.704,18.72 209.28,19.296 210.144,19.296 C210.6,19.296 210.984,19.104 211.248,18.792 C211.368,19.128 211.416,19.44 211.416,19.68 C211.416,21.6 210.048,22.8 207.936,22.512 L207.936,23.592 C210.6,23.928 212.52,22.176 212.52,19.536 C212.52,17.976 211.68,16.464 210.192,16.464 Z" id="Path"></path>
            <path d="M227.064,6.864 C225.072,6.864 223.464,7.824 222.576,9.504 L222.576,7.104 L220.416,7.104 L220.416,22.944 L222.576,22.944 L222.576,16.656 C223.464,18.384 225.048,19.344 227.016,19.344 C230.064,19.344 232.512,16.944 232.512,13.056 C232.512,9.216 230.088,6.864 227.064,6.864 Z M226.392,18 C224.064,18 222.576,16.128 222.576,13.056 C222.576,10.032 224.088,8.208 226.416,8.208 C228.504,8.208 230.232,9.792 230.232,13.056 C230.232,16.368 228.48,18 226.392,18 Z" id="Shape"></path>
            <polygon id="Path" points="235.008 19.104 237.168 19.104 237.168 0.864 235.008 0.864"></polygon>
            <path d="M245.256,6.864 C242.064,6.864 240.12,8.736 240.12,11.928 L241.512,11.928 C241.512,9.576 242.76,8.232 244.896,8.232 C247.2,8.232 248.016,9.624 248.016,11.664 L248.016,11.976 C242.328,12.312 239.592,13.872 239.592,16.44 C239.592,18.192 240.984,19.344 243.24,19.344 C245.28,19.344 247.368,18.264 248.328,15.888 L249.024,19.2 L250.176,19.2 L250.176,12 C250.176,8.688 248.448,6.864 245.256,6.864 Z M243.936,17.952 C242.496,17.952 241.752,17.208 241.752,16.152 C241.752,14.184 244.056,13.32 248.016,13.104 C247.92,15.96 246.144,17.952 243.936,17.952 Z" id="Shape"></path>
            <polygon id="Path" points="262.416 7.104 258.36 16.632 254.016 7.104 251.64 7.104 257.232 19.104 255.408 22.968 257.232 22.968 264.024 7.104"></polygon>
            <path d="M272.184,0 C269.352,0 267.096,1.848 267.096,5.88 L267.096,7.104 L264.48,7.104 L264.48,8.4 L267.096,8.4 L267.096,19.104 L269.256,19.104 L269.256,8.4 L273.984,8.4 L273.984,7.104 L269.256,7.104 L269.256,4.824 C269.256,2.496 270.336,1.128 272.184,1.128 C273.6,1.128 274.56,1.992 274.776,3.504 L276.168,3.168 C275.832,0.84 274.008,0 272.184,0 Z" id="Path"></path>
            <path d="M284.352,7.104 L284.352,13.104 C284.352,16.104 282.84,17.76 280.68,17.76 C278.88,17.76 277.68,16.536 277.68,14.352 L277.68,7.104 L275.52,7.104 L275.52,14.88 C275.52,17.664 277.344,19.344 279.888,19.344 C282.192,19.344 283.872,18.168 284.664,16.152 L285.36,19.08 L286.512,19.08 L286.512,7.104 L284.352,7.104 Z" id="Path"></path>
            <polygon id="Path" points="289.752 19.104 291.912 19.104 291.912 0.864 289.752 0.864"></polygon>
        </g>
        <g id="Idealist" transform="translate(2.086000, 197.164000)" fill="#48453E" fill-rule="nonzero">
            <path d="M0,51.996 L0,52.836 L15.792,52.836 L15.792,51.996 C14.112,51.996 11.172,52.164 11.172,49.14 L11.172,3.696 C11.172,0.672 14.112,0.84 15.792,0.84 L15.792,0 L0,0 L0,0.84 C1.68,0.84 4.536,0.672 4.536,3.696 L4.536,49.14 C4.536,52.164 1.68,51.996 0,51.996 Z" id="Path"></path>
            <path d="M51.912,14.112 L51.912,0.084 L40.824,0.084 L40.824,1.008 C42.504,1.008 44.688,1.092 45.192,3.276 C45.36,5.208 45.36,4.284 45.276,13.944 L45.276,23.1 C43.092,19.992 38.892,17.304 33.684,17.976 C25.032,18.984 19.656,24.444 19.656,35.7 C19.656,46.956 25.116,54.096 36.204,53.508 C40.152,53.34 43.428,50.904 45.444,48.132 C46.032,51.744 47.88,53.676 51.24,53.676 C54.6,53.676 57.372,52.752 57.792,48.972 L57.036,48.972 C56.616,51.072 55.44,52.08 54.348,52.08 C53.172,52.08 52.08,50.904 51.996,48.384 L51.996,44.772 L51.912,14.112 Z M45.276,44.688 C45.276,45.024 45.276,45.36 45.276,45.612 C43.344,49.392 40.152,51.996 37.38,52.248 C23.268,53.76 23.016,20.832 33.684,19.152 C39.9,18.144 43.428,22.26 45.276,26.46 L45.276,44.688 Z" id="Shape"></path>
            <path d="M125.664,32.76 C125.664,31.752 125.496,31.752 125.076,32.676 C121.212,42.672 115.92,51.576 109.116,51.408 C105.42,51.408 102.396,48.384 102.396,44.688 C102.396,35.112 126.084,36.456 124.572,25.116 C123.396,19.32 116.256,18.144 113.232,17.976 C89.292,16.632 99.372,51.912 76.86,51.24 C68.544,50.988 65.604,43.68 65.856,35.196 C65.856,34.02 65.94,32.844 66.108,31.584 L90.3,30.66 C90.888,30.576 91.224,30.24 91.14,29.652 C89.964,21.588 82.992,17.556 75.264,17.808 C65.184,18.144 58.716,25.452 58.716,35.784 C58.716,45.78 66.78,52.752 76.104,52.836 C100.212,52.836 90.552,20.496 110.964,18.732 C115.416,18.396 119.028,21 119.028,27.552 C119.028,39.564 96.096,33.6 96.096,45.192 C96.096,50.652 101.052,53.256 106.176,53.256 C111.384,53.256 116.844,50.988 119.028,46.284 C118.86,51.576 122.472,53.844 126,53.844 C129.108,53.844 131.628,52.332 132.048,48.972 L131.292,48.972 C130.872,51.072 129.528,52.164 128.268,52.164 C126.924,52.164 125.664,50.904 125.664,48.384 L125.664,32.76 Z M66.36,30.492 C67.368,24.864 70.224,19.74 75.516,19.32 C82.236,18.9 84.588,25.536 84.168,29.736 L66.36,30.492 Z" id="Shape"></path>
            <path d="M143.22,14.112 L143.22,0.084 L132.132,0.084 L132.132,1.008 C133.812,1.008 135.996,1.092 136.5,3.276 C136.668,5.208 136.668,4.284 136.584,13.944 L136.584,44.688 C136.416,50.568 138.18,53.676 142.632,53.676 C145.908,53.676 148.68,52.752 149.1,48.972 L148.344,48.972 C147.924,51.072 146.748,52.08 145.656,52.08 C144.48,52.08 143.388,50.904 143.304,48.384 L143.304,44.772 L143.22,14.112 Z" id="Path"></path>
            <path d="M153.468,8.316 C153.468,10.92 155.148,12.6 157.752,12.6 C160.272,12.6 162.036,10.92 162.036,8.316 C162.036,5.712 160.272,4.032 157.752,4.032 C155.148,4.032 153.468,5.712 153.468,8.316 Z M154.728,32.508 L154.728,44.688 C154.728,45.108 154.728,45.528 154.728,45.864 L154.728,46.284 C154.896,51.156 156.744,53.676 160.692,53.676 C164.052,53.676 166.74,52.752 167.16,48.972 L166.404,48.972 C165.984,51.072 164.892,52.08 163.8,52.08 C162.624,52.08 161.532,50.904 161.448,48.384 L161.364,44.772 L161.364,18.648 L150.276,18.648 L150.276,19.572 C151.956,19.572 154.14,19.656 154.644,21.84 C154.812,23.772 154.812,22.848 154.728,32.508 Z" id="Shape"></path>
            <path d="M185.052,53.172 C174.3,53.172 174.552,42.588 174.72,42.42 L169.008,41.664 C168.672,51.576 177.492,53.928 183.876,54.096 C190.344,54.264 197.316,50.736 197.316,43.764 C197.316,28.224 173.376,34.776 173.376,24.864 C173.376,20.58 178.584,18.732 182.028,18.648 C185.892,18.564 190.344,21.336 191.184,28.644 L197.316,27.384 C194.628,18.648 187.32,17.472 182.868,17.472 C176.568,17.472 170.604,20.664 170.604,27.384 C170.604,41.916 194.04,35.448 193.536,46.452 C193.284,51.492 188.328,53.172 185.052,53.172 Z" id="Path"></path>
            <path d="M204.624,42.924 C204.54,49.056 207.816,53.676 214.2,53.508 C218.904,53.34 220.836,50.82 222.096,47.796 L221.424,47.04 C220.5,49.812 218.736,51.996 216.216,52.248 C212.1,52.5 211.092,47.46 211.176,42.756 L211.428,19.74 C214.284,19.824 217.056,20.16 219.828,20.412 L219.828,18.06 C217.056,18.312 214.284,18.648 211.512,18.816 L211.596,9.576 L205.044,12.852 L204.96,18.564 C203.028,18.48 201.18,18.228 199.248,18.06 L199.248,20.412 C201.18,20.244 203.028,20.076 204.96,19.992 L204.624,42.924 Z" id="Path"></path>
        </g>
        <g id="Luxurious,-refined" transform="translate(24.249000, 280.230000)" fill="#48453E" fill-rule="nonzero">
            <path d="M0,16.51 L0,16.77 L10.842,16.77 L10.92,13.208 L10.556,13.208 C10.504,13.754 10.842,16.276 8.294,16.276 L3.51,16.276 C3.328,16.146 3.198,15.938 3.198,15.626 L3.198,1.586 C3.198,0.91 3.848,0.728 4.368,0.728 L4.368,0.442 L0,0.442 L0,0.728 C0.52,0.728 1.144,0.91 1.144,1.586 L1.144,15.626 C1.144,16.302 0.52,16.51 0,16.51 Z" id="Path"></path>
            <path d="M22.516,17.004 C23.478,17.004 24.232,16.666 24.362,15.574 L24.128,15.574 C23.998,16.224 23.634,16.562 23.27,16.562 C22.906,16.562 22.542,16.172 22.542,15.392 L22.542,14.3 C22.542,12.35 22.594,8.918 22.594,6.136 L19.422,6.136 L19.422,6.396 C19.942,6.396 20.436,6.448 20.592,7.124 C20.644,7.592 20.566,9.958 20.514,12.402 C19.968,14.508 19.058,16.224 17.55,16.25 C16.64,16.276 15.418,15.678 15.418,13.286 L15.418,11.934 C15.418,9.984 15.496,8.918 15.496,6.136 L12.324,6.136 L12.324,6.396 C12.844,6.396 13.312,6.448 13.468,7.124 C13.52,7.722 13.39,8.71 13.364,11.7 L13.364,13.468 C13.364,16.094 15.21,17.056 16.926,16.952 C18.954,16.848 19.994,15.262 20.488,13.78 C20.488,15.236 20.618,17.004 22.516,17.004 Z" id="Path"></path>
            <path d="M23.764,6.292 L23.764,6.526 C24.934,6.526 24.96,6.968 25.766,8.034 L28.6,11.752 L26.26,14.586 C24.856,16.302 24.622,16.276 23.712,16.354 L23.712,16.588 L27.768,16.588 L27.768,16.354 C27.3,16.354 25.48,16.354 26.416,15.184 L28.886,12.116 L31.486,15.548 C32.058,16.406 31.226,16.458 30.81,16.458 L30.81,16.718 L35.568,16.718 L35.568,16.458 C34.346,16.432 34.112,16.042 33.306,14.976 L30.342,11.05 L32.578,8.32 C33.982,6.604 33.956,6.604 34.892,6.526 L34.892,6.292 L30.836,6.292 L30.836,6.526 C31.304,6.526 33.358,6.552 32.422,7.722 L30.056,10.66 L27.638,7.462 C27.196,6.76 27.898,6.526 28.314,6.526 L28.314,6.292 L23.764,6.292 Z" id="Path"></path>
            <path d="M45.942,17.004 C46.904,17.004 47.658,16.666 47.788,15.574 L47.554,15.574 C47.424,16.224 47.06,16.562 46.696,16.562 C46.332,16.562 45.968,16.172 45.968,15.392 L45.968,14.3 C45.968,12.35 46.02,8.918 46.02,6.136 L42.848,6.136 L42.848,6.396 C43.368,6.396 43.862,6.448 44.018,7.124 C44.07,7.592 43.992,9.958 43.94,12.402 C43.394,14.508 42.484,16.224 40.976,16.25 C40.066,16.276 38.844,15.678 38.844,13.286 L38.844,11.934 C38.844,9.984 38.922,8.918 38.922,6.136 L35.75,6.136 L35.75,6.396 C36.27,6.396 36.738,6.448 36.894,7.124 C36.946,7.722 36.816,8.71 36.79,11.7 L36.79,13.468 C36.79,16.094 38.636,17.056 40.352,16.952 C42.38,16.848 43.42,15.262 43.914,13.78 C43.914,15.236 44.044,17.004 45.942,17.004 Z" id="Path"></path>
            <path d="M49.582,10.504 L49.582,15.626 C49.582,16.302 48.958,16.51 48.438,16.51 L48.438,16.77 L52.806,16.77 L52.806,16.51 C52.286,16.51 51.636,16.302 51.636,15.626 L51.636,12.636 C51.714,10.712 51.87,7.41 53.82,6.838 C55.354,6.396 56.056,8.216 55.692,9.75 L57.538,8.58 C57.148,6.76 55.406,5.902 54.002,6.188 C52.416,6.5 51.87,8.19 51.636,9.88 L51.636,6.24 L48.204,6.24 L48.204,6.5 C48.724,6.5 49.4,6.526 49.556,7.202 C49.608,7.8 49.608,7.514 49.582,10.504 Z" id="Path"></path>
            <path d="M59.176,2.99 C59.176,3.796 59.696,4.316 60.502,4.316 C61.282,4.316 61.828,3.796 61.828,2.99 C61.828,2.184 61.282,1.664 60.502,1.664 C59.696,1.664 59.176,2.184 59.176,2.99 Z M59.566,10.478 L59.566,14.248 C59.566,14.378 59.566,14.508 59.566,14.612 L59.566,14.742 C59.618,16.25 60.19,17.03 61.412,17.03 C62.452,17.03 63.284,16.744 63.414,15.574 L63.18,15.574 C63.05,16.224 62.712,16.536 62.374,16.536 C62.01,16.536 61.672,16.172 61.646,15.392 L61.62,14.274 L61.62,6.188 L58.188,6.188 L58.188,6.474 C58.708,6.474 59.384,6.5 59.54,7.176 C59.592,7.774 59.592,7.488 59.566,10.478 Z" id="Shape"></path>
            <path d="M64.038,11.466 C64.038,14.95 66.196,16.978 69.394,16.978 C72.566,16.978 74.672,14.846 74.672,11.44 C74.672,7.982 72.566,5.928 69.368,5.928 C66.144,5.928 64.038,7.982 64.038,11.466 Z M68.692,6.344 C71.682,5.928 72.28,8.996 72.54,10.946 C72.8,12.844 72.8,16.198 70.07,16.588 C67.34,16.978 66.404,13.884 66.144,11.934 C65.884,9.984 65.728,6.76 68.692,6.344 Z" id="Shape"></path>
            <path d="M86.06,17.004 C87.022,17.004 87.776,16.666 87.906,15.574 L87.672,15.574 C87.542,16.224 87.178,16.562 86.814,16.562 C86.45,16.562 86.086,16.172 86.086,15.392 L86.086,14.3 C86.086,12.35 86.138,8.918 86.138,6.136 L82.966,6.136 L82.966,6.396 C83.486,6.396 83.98,6.448 84.136,7.124 C84.188,7.592 84.11,9.958 84.058,12.402 C83.512,14.508 82.602,16.224 81.094,16.25 C80.184,16.276 78.962,15.678 78.962,13.286 L78.962,11.934 C78.962,9.984 79.04,8.918 79.04,6.136 L75.868,6.136 L75.868,6.396 C76.388,6.396 76.856,6.448 77.012,7.124 C77.064,7.722 76.934,8.71 76.908,11.7 L76.908,13.468 C76.908,16.094 78.754,17.056 80.47,16.952 C82.498,16.848 83.538,15.262 84.032,13.78 C84.032,15.236 84.162,17.004 86.06,17.004 Z" id="Path"></path>
            <path d="M93.34,16.874 C90.012,16.874 90.09,13.598 90.142,13.546 L88.374,13.312 C88.27,16.38 91,17.108 92.976,17.16 C94.978,17.212 97.136,16.12 97.136,13.962 C97.136,9.152 89.726,11.18 89.726,8.112 C89.726,6.786 91.338,6.214 92.404,6.188 C93.6,6.162 94.978,7.02 95.238,9.282 L97.136,8.892 C96.304,6.188 94.042,5.824 92.664,5.824 C90.714,5.824 88.868,6.812 88.868,8.892 C88.868,13.39 96.122,11.388 95.966,14.794 C95.888,16.354 94.354,16.874 93.34,16.874 Z" id="Path"></path>
            <path d="M98.852,18.07 L98.956,18.564 C99.996,18.148 101.374,17.316 101.27,15.418 C101.218,14.638 100.776,14.118 100.074,14.118 C99.346,14.118 98.904,14.612 98.904,15.392 C98.904,16.224 99.346,16.666 100.178,16.666 C100.23,17.394 99.398,17.94 98.852,18.07 Z" id="Path"></path>
            <path d="M108.576,10.504 L108.576,15.626 C108.576,16.302 107.952,16.51 107.432,16.51 L107.432,16.77 L111.8,16.77 L111.8,16.51 C111.28,16.51 110.63,16.302 110.63,15.626 L110.63,12.636 C110.708,10.712 110.864,7.41 112.814,6.838 C114.348,6.396 115.05,8.216 114.686,9.75 L116.532,8.58 C116.142,6.76 114.4,5.902 112.996,6.188 C111.41,6.5 110.864,8.19 110.63,9.88 L110.63,6.24 L107.198,6.24 L107.198,6.5 C107.718,6.5 108.394,6.526 108.55,7.202 C108.602,7.8 108.602,7.514 108.576,10.504 Z" id="Path"></path>
            <path d="M126.958,9.906 C127.114,9.906 127.218,9.776 127.192,9.594 C126.828,7.098 124.696,5.876 122.304,5.928 C119.158,6.032 117.156,8.294 117.156,11.492 C117.156,14.612 119.652,16.77 122.642,16.77 C125.918,16.77 128.414,14.144 128.96,11.856 L128.7,11.856 C127.972,14.066 125.658,16.328 122.902,16.276 C120.198,16.198 119.288,13.936 119.366,11.31 C119.366,10.946 119.392,10.582 119.444,10.218 L126.958,9.906 Z M119.522,9.854 C119.86,8.112 120.744,6.5 122.356,6.396 C124.436,6.266 125.19,8.294 125.06,9.594 L119.522,9.854 Z" id="Shape"></path>
            <path d="M129.038,16.536 L129.038,16.77 L134.186,16.77 L134.186,16.51 C133.666,16.51 132.236,16.666 132.236,15.392 L132.236,6.474 C133.016,6.5 133.796,6.578 134.602,6.656 L134.602,6.006 C133.796,6.084 133.016,6.188 132.236,6.214 L132.236,3.77 C132.236,2.002 131.066,0.39 132.782,0.286 C134.368,0.208 134.42,2.418 134.316,3.562 L135.954,2.99 C135.694,1.092 134.29,0 132.678,0 C130.338,0 130.182,1.976 130.182,4.394 L130.182,6.188 C129.532,6.136 128.882,6.058 128.232,6.006 L128.232,6.656 C128.882,6.604 129.532,6.552 130.182,6.5 L130.182,15.392 C130.182,16.484 129.558,16.536 129.038,16.536 Z M136.656,2.99 C136.656,3.796 137.176,4.316 137.982,4.316 C138.762,4.316 139.308,3.796 139.308,2.99 C139.308,2.184 138.762,1.664 137.982,1.664 C137.176,1.664 136.656,2.184 136.656,2.99 Z M137.046,10.478 L137.046,14.248 C137.046,14.378 137.046,14.508 137.046,14.612 L137.046,14.742 C137.098,16.25 137.67,17.03 138.892,17.03 C139.932,17.03 140.764,16.744 140.894,15.574 L140.66,15.574 C140.53,16.224 140.192,16.536 139.854,16.536 C139.49,16.536 139.152,16.172 139.126,15.392 L139.1,14.274 L139.1,6.188 L135.668,6.188 L135.668,6.474 C136.188,6.474 136.864,6.5 137.02,7.176 C137.072,7.774 137.072,7.488 137.046,10.478 Z" id="Shape"></path>
            <path d="M142.818,10.504 L142.818,15.626 C142.818,16.302 142.194,16.51 141.674,16.51 L141.674,16.77 L146.042,16.77 L146.042,16.51 C145.522,16.51 144.872,16.302 144.872,15.626 L144.872,10.712 C145.418,8.788 146.432,6.76 147.836,6.448 C148.928,6.214 150.254,6.994 150.254,9.958 L150.254,14.248 C150.202,16.068 150.748,17.03 152.126,17.03 C153.14,17.03 153.998,16.744 154.128,15.574 L153.894,15.574 C153.764,16.224 153.4,16.536 153.062,16.536 C152.698,16.536 152.36,16.172 152.334,15.392 L152.334,9.75 C152.334,6.682 150.254,5.72 148.668,5.824 C146.666,5.954 145.496,7.748 144.872,9.568 L144.872,6.24 L141.44,6.24 L141.44,6.5 C141.96,6.5 142.636,6.526 142.792,7.202 C142.844,7.8 142.844,7.514 142.818,10.504 Z" id="Path"></path>
            <path d="M164.112,9.906 C164.268,9.906 164.372,9.776 164.346,9.594 C163.982,7.098 161.85,5.876 159.458,5.928 C156.312,6.032 154.31,8.294 154.31,11.492 C154.31,14.612 156.806,16.77 159.796,16.77 C163.072,16.77 165.568,14.144 166.114,11.856 L165.854,11.856 C165.126,14.066 162.812,16.328 160.056,16.276 C157.352,16.198 156.442,13.936 156.52,11.31 C156.52,10.946 156.546,10.582 156.598,10.218 L164.112,9.906 Z M156.676,9.854 C157.014,8.112 157.898,6.5 159.51,6.396 C161.59,6.266 162.344,8.294 162.214,9.594 L156.676,9.854 Z" id="Shape"></path>
            <path d="M176.072,4.784 L176.072,0.442 L172.64,0.442 L172.64,0.728 C173.16,0.728 173.836,0.754 173.992,1.43 C174.044,2.028 174.044,1.742 174.018,4.732 L174.018,7.566 C173.342,6.604 172.042,5.772 170.43,5.98 C167.752,6.292 166.088,7.982 166.088,11.466 C166.088,14.95 167.778,17.16 171.21,16.978 C172.432,16.926 173.446,16.172 174.07,15.314 C174.252,16.432 174.824,17.03 175.864,17.03 C176.904,17.03 177.762,16.744 177.892,15.574 L177.658,15.574 C177.528,16.224 177.164,16.536 176.826,16.536 C176.462,16.536 176.124,16.172 176.098,15.392 L176.098,14.274 L176.072,4.784 Z M174.018,14.248 C174.018,14.352 174.018,14.456 174.018,14.534 C173.42,15.704 172.432,16.51 171.574,16.588 C167.206,17.056 167.128,6.864 170.43,6.344 C172.354,6.032 173.446,7.306 174.018,8.606 L174.018,14.248 Z" id="Shape"></path>
        </g>
        <g id="Vollkorn" transform="translate(310.396000, 198.376000)" fill="#48453E" fill-rule="nonzero">
            <path d="M38.448,2.952 C36.216,2.952 34.416,2.88 32.328,2.736 C32.328,3.528 32.4,4.752 32.688,5.832 C37.008,6.336 37.44,9.288 35.64,14.616 C32.328,23.904 28.8,32.544 24.912,41.4 C21.384,31.68 17.928,22.608 14.184,13.752 C11.304,7.2 12.24,6.12 17.064,5.832 C17.28,4.824 17.424,3.6 17.424,2.736 C14.688,2.88 11.736,2.952 8.712,2.952 C5.688,2.952 1.872,2.88 0,2.736 C0,3.528 0.072,4.68 0.36,5.832 C2.952,6.12 3.456,7.056 6.48,14.112 C10.728,24.12 16.2,38.088 21.384,52.056 C22.536,52.056 23.256,51.984 24.192,51.768 C29.376,39.24 34.416,26.712 39.24,14.328 C41.04,9.576 42.408,6.552 45.432,5.832 C45.72,4.752 45.792,3.816 45.792,2.736 C43.704,2.88 40.68,2.952 38.448,2.952 Z" id="Path"></path>
            <path d="M59.904,52.272 C69.624,52.272 76.176,45 76.176,35.136 C76.176,24.912 70.128,18 59.904,18 C50.328,18 43.632,25.344 43.632,35.136 C43.632,45.504 50.04,52.272 59.904,52.272 Z M60.48,48.816 C54.648,48.816 50.904,43.344 50.904,33.624 C50.904,26.424 53.64,21.456 59.184,21.456 C64.512,21.456 68.976,27.072 68.976,36 C68.976,43.56 66.24,48.816 60.48,48.816 Z" id="Shape"></path>
            <path d="M80.928,51.84 C83.304,51.696 86.472,51.624 89.208,51.624 C91.944,51.624 94.824,51.696 97.344,51.84 C97.344,51.192 97.272,49.752 96.984,48.744 C93.888,48.744 92.736,47.304 92.736,42.48 L92.736,2.88 C92.736,1.08 92.016,0.288 91.152,0 C89.424,1.224 83.664,2.448 81.504,2.448 C81,3.24 80.856,4.032 80.856,5.112 C85.752,5.112 86.256,6.84 86.256,10.224 L86.256,42.48 C86.256,47.304 85.104,48.744 81.288,48.744 C81,49.68 80.928,50.904 80.928,51.84 Z" id="Path"></path>
            <path d="M102.456,51.84 C104.832,51.696 108,51.624 110.736,51.624 C113.472,51.624 116.352,51.696 118.872,51.84 C118.872,51.192 118.8,49.752 118.512,48.744 C115.416,48.744 114.264,47.304 114.264,42.48 L114.264,2.88 C114.264,1.08 113.544,0.288 112.68,0 C110.952,1.224 105.192,2.448 103.032,2.448 C102.528,3.24 102.384,4.032 102.384,5.112 C107.28,5.112 107.784,6.84 107.784,10.224 L107.784,42.48 C107.784,47.304 106.632,48.744 102.816,48.744 C102.528,49.68 102.456,50.904 102.456,51.84 Z" id="Path"></path>
            <path d="M151.704,43.992 C147.312,38.664 144.288,35.208 141.336,32.112 L148.176,25.92 C151.776,22.68 154.152,21.6 156.96,21.528 C157.32,20.664 157.464,19.44 157.464,18.504 C154.872,18.648 152.28,18.648 150.696,18.648 C148.752,18.648 146.304,18.648 143.208,18.504 C143.208,19.584 143.352,20.52 143.64,21.456 C144.936,21.456 145.728,21.816 145.728,22.608 C145.728,23.616 144.432,25.416 141.12,28.368 L135.792,33.192 L135.792,2.88 C135.792,1.08 135.072,0.288 134.208,0 C132.48,1.224 126.72,2.448 124.56,2.448 C124.056,3.24 123.912,4.032 123.912,5.112 C128.808,5.112 129.312,6.84 129.312,10.224 L129.312,42.48 C129.312,47.304 128.16,48.744 124.344,48.744 C124.056,49.68 123.984,50.904 123.984,51.84 C126.36,51.696 129.528,51.624 132.264,51.624 C135,51.624 137.88,51.696 140.4,51.84 C140.4,51.192 140.328,49.752 140.04,48.744 C136.944,48.744 135.792,47.304 135.792,42.48 L135.792,35.424 C140.76,40.536 146.664,47.808 149.616,52.272 C152.784,51.768 155.376,51.624 158.832,51.624 C159.12,50.832 159.192,49.896 159.192,48.528 C155.88,48.24 154.584,47.52 151.704,43.992 Z" id="Path"></path>
            <path d="M178.704,52.272 C188.424,52.272 194.976,45 194.976,35.136 C194.976,24.912 188.928,18 178.704,18 C169.128,18 162.432,25.344 162.432,35.136 C162.432,45.504 168.84,52.272 178.704,52.272 Z M179.28,48.816 C173.448,48.816 169.704,43.344 169.704,33.624 C169.704,26.424 172.44,21.456 177.984,21.456 C183.312,21.456 187.776,27.072 187.776,36 C187.776,43.56 185.04,48.816 179.28,48.816 Z" id="Shape"></path>
            <path d="M221.616,18.648 C217.872,18.648 214.992,21.168 212.904,24.48 C212.328,25.344 211.968,26.568 211.392,28.224 C211.824,26.064 212.328,23.904 212.328,21.168 C212.328,19.08 211.608,18.288 210.744,18 C208.512,19.152 204.048,20.232 201.096,20.448 C200.592,21.24 200.448,22.032 200.448,23.112 C205.2,23.256 205.848,24.84 205.848,28.224 L205.848,42.48 C205.848,47.304 204.696,48.528 200.88,48.744 C200.592,49.536 200.52,50.544 200.52,51.84 C202.392,51.696 206.64,51.624 210.024,51.624 C213.408,51.624 216.864,51.696 219.096,51.84 C219.096,50.544 219.024,49.536 218.736,48.744 C214.2,48.528 212.328,47.304 212.328,41.04 L212.328,34.128 C212.328,28.512 215.928,23.904 218.448,23.904 C220.32,23.904 221.76,24.912 221.976,29.52 C223.56,29.52 225.216,29.16 226.08,28.872 C226.08,26.352 226.224,22.752 226.584,20.376 C225.072,19.224 223.56,18.648 221.616,18.648 Z" id="Path"></path>
            <path d="M268.056,48.744 C265.176,48.744 263.808,47.448 263.808,42.48 L263.808,30.096 C263.808,21.312 258.984,18.36 253.512,18.36 C248.4,18.36 244.656,21.312 243.072,23.544 C242.496,24.336 242.28,24.912 241.992,25.416 C242.424,23.76 242.496,22.32 242.496,21.168 C242.496,19.08 241.776,18.288 240.912,18 C238.68,19.152 234.216,20.232 231.264,20.448 C230.76,21.24 230.616,22.032 230.616,23.112 C235.368,23.256 236.016,24.84 236.016,28.224 L236.016,42.48 C236.016,47.304 234.792,48.744 231.048,48.744 C230.76,49.536 230.688,50.544 230.688,51.84 C232.776,51.696 236.304,51.624 239.256,51.624 C242.208,51.624 245.808,51.768 247.824,51.84 C247.824,50.544 247.752,49.608 247.464,48.744 C243.72,48.744 242.496,47.304 242.496,42.48 L242.496,34.776 C242.496,25.992 246.888,22.752 250.632,22.752 C254.52,22.752 257.328,24.768 257.328,31.536 L257.328,42.48 C257.328,47.304 255.816,48.744 252.36,48.744 C252.072,49.536 252,50.544 252,51.84 C254.232,51.768 257.616,51.624 260.568,51.624 C263.52,51.624 266.328,51.696 268.416,51.84 C268.416,50.544 268.344,49.608 268.056,48.744 Z" id="Path"></path>
        </g>
        <g id="Dosis" transform="translate(572.868000, 21.368000)" fill="#48453E" fill-rule="nonzero">
            <path d="M2.16,0 C0.864,0 0,0.792 0,1.728 L0,50.832 C0,51.768 0.864,52.632 2.16,52.632 L14.904,52.632 C23.328,52.632 29.952,48.456 29.952,37.224 L29.952,15.336 C29.952,4.176 23.328,0 14.904,0 L2.16,0 Z M14.904,4.392 C21.312,4.392 25.2,7.848 25.2,15.336 L25.2,37.224 C25.2,44.712 21.312,48.24 14.904,48.24 L4.752,48.24 L4.752,4.392 L14.904,4.392 Z" id="Shape"></path>
            <path d="M51.624,18.144 C44.136,18.144 38.016,24.408 38.016,31.608 L38.016,39.456 C38.016,46.656 44.352,53.136 51.624,53.136 C58.968,53.136 65.376,46.584 65.376,39.456 L65.376,31.608 C65.376,24.192 58.968,18.144 51.624,18.144 Z M60.696,39.456 C60.696,44.28 56.664,48.816 51.624,48.816 C46.656,48.816 42.696,44.28 42.696,39.456 L42.696,31.608 C42.696,27 46.584,22.464 51.624,22.464 C56.664,22.464 60.696,27 60.696,31.608 L60.696,39.456 Z" id="Shape"></path>
            <path d="M82.08,49.176 C75.6,49.176 74.16,45.792 72.576,45.792 C71.64,45.792 70.92,47.016 70.92,47.952 C70.92,50.112 75.456,53.136 82.224,53.136 C89.568,53.136 93.816,49.536 93.816,43.848 C93.816,30.744 75.96,35.928 75.96,27.72 C75.96,25.344 77.832,22.104 83.16,22.104 C87.408,22.104 89.64,24.12 90.792,24.12 C91.944,24.12 92.736,22.464 92.736,21.672 C92.736,19.944 87.84,18.144 83.088,18.144 C74.88,18.144 71.712,23.328 71.712,27.936 C71.712,39.888 89.496,34.488 89.496,44.064 C89.496,46.8 87.552,49.176 82.08,49.176 Z" id="Path"></path>
            <path d="M103.104,18.576 C101.808,18.576 100.8,19.296 100.8,20.304 L100.8,50.76 C100.8,51.696 101.808,52.632 103.104,52.632 C104.4,52.632 105.48,51.696 105.48,50.76 L105.48,20.304 C105.48,19.296 104.4,18.576 103.104,18.576 Z M103.104,2.52 C101.304,2.52 99.864,3.888 99.864,5.472 C99.864,7.056 101.304,8.496 103.104,8.496 C104.832,8.496 106.2,7.056 106.2,5.472 C106.2,3.888 104.832,2.52 103.104,2.52 Z" id="Shape"></path>
            <path d="M123.552,49.176 C117.072,49.176 115.632,45.792 114.048,45.792 C113.112,45.792 112.392,47.016 112.392,47.952 C112.392,50.112 116.928,53.136 123.696,53.136 C131.04,53.136 135.288,49.536 135.288,43.848 C135.288,30.744 117.432,35.928 117.432,27.72 C117.432,25.344 119.304,22.104 124.632,22.104 C128.88,22.104 131.112,24.12 132.264,24.12 C133.416,24.12 134.208,22.464 134.208,21.672 C134.208,19.944 129.312,18.144 124.56,18.144 C116.352,18.144 113.184,23.328 113.184,27.936 C113.184,39.888 130.968,34.488 130.968,44.064 C130.968,46.8 129.024,49.176 123.552,49.176 Z" id="Path"></path>
        </g>
        <g id="Rational,-friendly" transform="translate(562.668000, 105.760000)" fill="#48453E" fill-rule="nonzero">
            <path d="M0,17.52 C0,18 0.504,18.24 1.008,18.24 C1.512,18.24 2.016,18 2.016,17.52 L2.016,10.464 L4.776,10.464 L8.4,17.496 C8.616,17.904 8.904,18.288 9.312,18.288 C9.888,18.288 10.512,17.784 10.512,17.256 C10.512,17.16 10.488,17.04 10.416,16.92 L6.864,10.176 C8.88,9.768 10.44,8.424 10.44,5.496 C10.44,1.848 8.016,0.696 5.112,0.696 L0.72,0.696 C0.288,0.72 0,1.032 0,1.392 L0,17.52 Z M5.112,2.52 C7.104,2.52 8.424,3.384 8.424,5.64 C8.424,7.92 7.104,8.784 5.112,8.784 L2.016,8.784 L2.016,2.52 L5.112,2.52 Z" id="Shape"></path>
            <path d="M16.176,6.72 C14.592,6.72 12.768,7.368 12.768,8.112 C12.768,8.544 13.032,9.12 13.512,9.12 C13.944,9.12 14.448,8.424 16.128,8.424 C18.048,8.424 18.768,9.984 18.768,11.4 L18.768,11.904 L17.616,11.904 C14.28,11.904 12,12.576 12,15.24 C12,17.424 13.44,18.432 15.24,18.432 C16.848,18.432 18.024,17.52 18.864,16.56 L18.864,17.52 C18.864,17.928 19.248,18.24 19.776,18.24 C20.352,18.24 20.76,17.928 20.76,17.52 L20.76,11.376 C20.76,8.976 19.536,6.72 16.176,6.72 Z M18.768,14.376 C18.768,15.48 17.232,16.824 15.864,16.824 C14.808,16.824 14.016,16.272 14.016,15.024 C14.016,13.32 15.888,13.128 17.928,13.128 L18.768,13.128 L18.768,14.376 Z" id="Shape"></path>
            <path d="M25.44,8.424 L28.464,8.424 C28.824,8.424 29.064,8.064 29.064,7.656 C29.064,7.248 28.824,6.864 28.464,6.864 L25.44,6.864 L25.44,2.256 C25.44,1.848 24.936,1.56 24.432,1.56 C23.976,1.56 23.448,1.848 23.448,2.256 L23.448,14.616 C23.448,17.136 24.84,18.24 27.432,18.24 L28.176,18.24 C28.728,18.24 29.04,17.808 29.04,17.352 C29.04,16.896 28.728,16.488 28.176,16.488 L27.432,16.488 C25.944,16.488 25.44,15.984 25.44,14.616 L25.44,8.424 Z" id="Path"></path>
            <path d="M31.92,6.864 C31.368,6.864 30.936,7.152 30.936,7.56 L30.936,17.52 C30.936,17.88 31.368,18.24 31.92,18.24 C32.472,18.24 32.928,17.88 32.928,17.52 L32.928,7.56 C32.928,7.152 32.472,6.864 31.92,6.864 Z M31.92,1.464 C31.224,1.464 30.672,1.992 30.672,2.592 C30.672,3.192 31.224,3.744 31.92,3.744 C32.592,3.744 33.144,3.192 33.144,2.592 C33.144,1.992 32.592,1.464 31.92,1.464 Z" id="Shape"></path>
            <path d="M40.056,6.72 C37.464,6.72 35.328,8.88 35.328,11.328 L35.328,13.776 C35.328,16.224 37.512,18.432 40.056,18.432 C42.6,18.432 44.808,16.2 44.808,13.776 L44.808,11.328 C44.808,8.808 42.6,6.72 40.056,6.72 Z M42.816,13.776 C42.816,15.24 41.568,16.632 40.056,16.632 C38.544,16.632 37.32,15.24 37.32,13.776 L37.32,11.328 C37.32,9.912 38.52,8.52 40.056,8.52 C41.592,8.52 42.816,9.912 42.816,11.328 L42.816,13.776 Z" id="Shape"></path>
            <path d="M49.2,11.328 C49.2,9.576 50.52,8.52 51.816,8.52 C53.304,8.52 54.552,9.912 54.552,11.328 L54.552,17.52 C54.552,18 55.056,18.24 55.536,18.24 C56.04,18.24 56.544,18 56.544,17.52 L56.544,11.328 C56.544,8.808 54.6,6.72 52.32,6.72 C50.712,6.72 49.584,7.608 49.104,8.544 L49.104,7.56 C49.104,7.152 48.672,6.864 48.192,6.864 C47.616,6.864 47.208,7.152 47.208,7.56 L47.208,17.52 C47.208,17.88 47.616,18.24 48.192,18.24 C48.72,18.24 49.2,17.88 49.2,17.52 L49.2,11.328 Z" id="Path"></path>
            <path d="M62.712,6.72 C61.128,6.72 59.304,7.368 59.304,8.112 C59.304,8.544 59.568,9.12 60.048,9.12 C60.48,9.12 60.984,8.424 62.664,8.424 C64.584,8.424 65.304,9.984 65.304,11.4 L65.304,11.904 L64.152,11.904 C60.816,11.904 58.536,12.576 58.536,15.24 C58.536,17.424 59.976,18.432 61.776,18.432 C63.384,18.432 64.56,17.52 65.4,16.56 L65.4,17.52 C65.4,17.928 65.784,18.24 66.312,18.24 C66.888,18.24 67.296,17.928 67.296,17.52 L67.296,11.376 C67.296,8.976 66.072,6.72 62.712,6.72 Z M65.304,14.376 C65.304,15.48 63.768,16.824 62.4,16.824 C61.344,16.824 60.552,16.272 60.552,15.024 C60.552,13.32 62.424,13.128 64.464,13.128 L65.304,13.128 L65.304,14.376 Z" id="Shape"></path>
            <path d="M71.232,0 C70.656,0 70.248,0.288 70.248,0.696 L70.248,17.52 C70.248,17.88 70.656,18.24 71.232,18.24 C71.784,18.24 72.24,17.88 72.24,17.52 L72.24,0.696 C72.24,0.288 71.784,0 71.232,0 Z" id="Path"></path>
            <path d="M75.96,15.864 C75.264,15.864 74.736,16.44 74.736,17.136 C74.736,17.64 75.048,18.096 75.504,18.288 L75,19.536 C74.952,19.632 74.952,19.704 74.952,19.8 C74.952,20.16 75.336,20.376 75.648,20.376 C75.864,20.376 76.08,20.28 76.176,20.04 C77.184,17.616 77.208,17.328 77.208,17.136 C77.208,16.368 76.608,15.864 75.96,15.864 Z" id="Path"></path>
            <path d="M86.328,4.32 C86.352,2.904 87.432,1.752 88.92,1.752 L89.424,1.752 C89.952,1.752 90.24,1.344 90.24,0.888 C90.24,0.432 89.952,0 89.424,0 L88.584,0 C86.28,0 84.336,1.992 84.336,4.488 L84.336,17.544 C84.336,17.952 84.744,18.24 85.296,18.24 C85.848,18.24 86.328,17.952 86.328,17.544 L86.328,8.424 L89.616,8.424 C90,8.424 90.24,8.064 90.24,7.656 C90.24,7.248 90,6.864 89.616,6.864 L86.328,6.864 L86.328,4.32 Z" id="Path"></path>
            <path d="M97.728,8.52 C98.136,8.52 98.496,8.112 98.496,7.632 C98.496,7.152 98.136,6.72 97.728,6.72 L96.912,6.72 C95.424,6.72 94.296,7.704 93.768,8.688 L93.768,7.56 C93.768,7.152 93.36,6.864 92.856,6.864 C92.28,6.864 91.872,7.152 91.872,7.56 L91.872,17.52 C91.872,17.88 92.28,18.24 92.856,18.24 C93.408,18.24 93.864,17.88 93.864,17.52 L93.864,12.048 C93.864,9.864 95.376,8.52 96.912,8.52 L97.728,8.52 Z" id="Path"></path>
            <path d="M101.112,6.864 C100.56,6.864 100.128,7.152 100.128,7.56 L100.128,17.52 C100.128,17.88 100.56,18.24 101.112,18.24 C101.664,18.24 102.12,17.88 102.12,17.52 L102.12,7.56 C102.12,7.152 101.664,6.864 101.112,6.864 Z M101.112,1.464 C100.416,1.464 99.864,1.992 99.864,2.592 C99.864,3.192 100.416,3.744 101.112,3.744 C101.784,3.744 102.336,3.192 102.336,2.592 C102.336,1.992 101.784,1.464 101.112,1.464 Z" id="Shape"></path>
            <path d="M109.296,6.72 C106.656,6.72 104.52,8.808 104.52,11.256 L104.52,13.776 C104.52,16.56 106.728,18.432 109.848,18.432 C112.176,18.432 113.64,17.352 113.64,16.728 C113.64,16.368 113.304,15.816 112.824,15.816 C112.224,15.816 111.72,16.752 109.92,16.752 C107.928,16.752 106.512,15.624 106.512,13.848 L106.512,13.128 L111.768,13.128 C112.848,13.128 113.904,13.056 113.904,11.136 C113.904,8.568 111.744,6.72 109.296,6.72 Z M106.512,11.784 L106.512,10.92 C106.512,9.456 107.76,8.304 109.272,8.304 C110.856,8.304 112.008,9.6 112.008,11.016 C112.008,11.64 111.792,11.784 110.952,11.784 L106.512,11.784 Z" id="Shape"></path>
            <path d="M118.104,11.328 C118.104,9.576 119.424,8.52 120.72,8.52 C122.208,8.52 123.456,9.912 123.456,11.328 L123.456,17.52 C123.456,18 123.96,18.24 124.44,18.24 C124.944,18.24 125.448,18 125.448,17.52 L125.448,11.328 C125.448,8.808 123.504,6.72 121.224,6.72 C119.616,6.72 118.488,7.608 118.008,8.544 L118.008,7.56 C118.008,7.152 117.576,6.864 117.096,6.864 C116.52,6.864 116.112,7.152 116.112,7.56 L116.112,17.52 C116.112,17.88 116.52,18.24 117.096,18.24 C117.624,18.24 118.104,17.88 118.104,17.52 L118.104,11.328 Z" id="Path"></path>
            <path d="M136.2,0 C135.648,0 135.192,0.288 135.192,0.696 L135.192,8.544 C134.664,7.608 133.584,6.72 132.048,6.72 C129.696,6.72 127.752,8.808 127.752,11.328 L127.752,13.776 C127.752,16.2 129.72,18.432 131.976,18.432 C133.488,18.432 134.784,17.544 135.288,16.56 L135.288,17.52 C135.288,17.88 135.696,18.24 136.2,18.24 C136.776,18.24 137.184,17.88 137.184,17.52 L137.184,0.696 C137.184,0.288 136.776,0 136.2,0 Z M129.744,11.328 C129.744,9.912 130.968,8.52 132.48,8.52 C133.824,8.52 135.192,9.576 135.192,11.328 L135.192,14.424 C135.192,15.072 134.016,16.632 132.456,16.632 C130.992,16.632 129.744,15.216 129.744,13.776 L129.744,11.328 Z" id="Shape"></path>
            <path d="M141.24,0 C140.664,0 140.256,0.288 140.256,0.696 L140.256,17.52 C140.256,17.88 140.664,18.24 141.24,18.24 C141.792,18.24 142.248,17.88 142.248,17.52 L142.248,0.696 C142.248,0.288 141.792,0 141.24,0 Z" id="Path"></path>
            <path d="M148.248,17.664 C147.744,20.256 146.16,21.984 144.768,21.984 C144.336,21.984 144.192,22.392 144.192,22.848 C144.192,23.568 144.6,23.736 145.128,23.736 C148.152,23.736 149.328,20.4 150.336,17.712 L153.984,7.944 C154.032,7.872 154.056,7.776 154.056,7.704 C154.056,7.128 153.24,6.72 152.76,6.72 C152.496,6.72 152.256,6.84 152.136,7.128 L149.28,15.48 L146.112,7.128 C146.016,6.84 145.752,6.72 145.464,6.72 C144.936,6.72 144.168,7.152 144.168,7.68 C144.168,7.776 144.216,7.872 144.264,7.944 L148.248,17.664 Z" id="Path"></path>
        </g>
        <g id="Gaultier" transform="translate(687.496000, 198.160000)" fill="#48453E" fill-rule="nonzero">
            <path d="M23.976,52.56 C30.96,52.56 37.296,50.328 40.752,47.592 L40.752,29.88 L23.904,29.88 L23.112,34.416 L35.784,34.416 L35.784,45.288 C32.616,47.232 28.44,47.952 24.768,47.952 C12.096,47.952 5.904,39.312 5.904,29.016 C5.904,18.216 13.68,10.368 25.416,10.368 C31.032,10.368 36.288,12.168 39.312,14.112 L39.312,8.496 C35.424,6.768 31.176,5.76 26.28,5.76 C10.44,5.76 0,16.344 0,29.592 C0,42.624 9.072,52.56 23.976,52.56 Z" id="Path"></path>
            <path d="M73.512,48.312 C71.424,48.312 70.2,46.8 70.2,43.272 C70.2,41.4 70.56,35.784 70.56,33.408 C70.56,25.56 66.672,23.04 60.552,23.04 C56.592,23.04 53.64,24.264 50.904,26.64 L50.04,32.328 C53.928,28.512 56.448,27.36 59.76,27.36 C64.368,27.36 65.52,29.952 65.52,33.84 L65.52,36.72 C55.656,36 49.32,39.6 49.32,45.792 C49.32,49.824 52.272,52.56 57.168,52.56 C60.768,52.56 64.08,50.976 66.24,48.024 C66.888,50.184 68.976,51.84 71.928,51.84 C73.584,51.84 74.952,51.408 76.32,50.4 L76.896,47.016 C75.672,47.808 74.664,48.312 73.512,48.312 Z M58.176,48.672 C55.584,48.672 54.288,47.16 54.288,45.144 C54.288,41.832 58.104,39.168 65.52,39.888 L65.52,44.784 C63.648,47.088 61.2,48.672 58.176,48.672 Z" id="Shape"></path>
            <path d="M101.808,23.76 L101.808,43.92 C97.848,47.232 94.968,48.096 92.232,48.096 C88.848,48.096 86.544,46.296 86.544,41.4 L86.544,22.608 L81.576,23.904 L81.576,43.56 C81.576,49.968 85.896,52.56 90.936,52.56 C95.112,52.56 98.496,50.976 101.808,48.6 L101.808,52.56 L106.776,51.336 L106.776,23.76 L101.808,23.76 Z" id="Path"></path>
            <polygon id="Path" points="116.136 51.84 121.104 51.84 121.104 0 116.136 1.296"></polygon>
            <path d="M142.704,48.312 C139.824,48.312 137.952,47.16 137.952,41.904 L137.952,27.864 L148.176,27.864 L148.752,23.76 L137.952,23.76 L137.952,16.776 L133.056,18.072 L132.984,23.76 L127.296,23.76 L127.296,27.864 L132.984,27.864 L132.984,43.272 C132.984,50.4 137.376,52.56 141.768,52.56 C144.576,52.56 146.88,51.48 149.184,50.112 L149.976,45.072 C146.88,47.376 144.648,48.312 142.704,48.312 Z" id="Path"></path>
            <path d="M157.68,13.68 C159.624,13.68 161.208,12.096 161.208,10.08 C161.208,8.064 159.624,6.552 157.68,6.552 C155.664,6.552 154.08,8.064 154.08,10.08 C154.08,12.096 155.664,13.68 157.68,13.68 Z M155.16,51.84 L160.128,51.84 L160.128,22.608 L155.16,23.904 L155.16,51.84 Z" id="Shape"></path>
            <path d="M184.32,47.952 C177.12,47.952 173.592,42.624 173.592,36.936 L173.592,36.864 L194.904,36.864 C195.192,27.144 190.152,23.04 183.24,23.04 C174.456,23.04 168.624,29.736 168.624,37.728 C168.624,46.008 174.816,52.56 184.032,52.56 C188.352,52.56 191.88,51.408 194.616,49.32 L195.408,43.992 C191.376,46.872 188.064,47.952 184.32,47.952 Z M182.664,27 C186.48,27 189.144,29.304 189.432,33.624 L174.024,33.624 C175.248,29.304 178.848,27 182.664,27 Z" id="Shape"></path>
            <path d="M217.368,22.896 C213.768,22.896 210.528,26.208 208.584,28.44 L208.584,22.608 L203.616,23.904 L203.616,51.84 L208.584,51.84 L208.584,32.976 C210.816,30.744 213.552,28.44 216.864,28.44 C217.944,28.44 219.096,28.8 220.32,29.448 L220.32,23.76 C219.456,23.184 218.52,22.896 217.368,22.896 Z" id="Path"></path>
        </g>
        <g id="Warm,-grounded" transform="translate(354.556000, 279.792000)" fill="#48453E" fill-rule="nonzero">
            <path d="M20.568,0.984 C19.704,0.984 18.84,0.96 18.168,0.912 C18.168,1.224 18.216,1.728 18.336,2.064 C19.896,2.28 20.256,3.096 19.512,5.496 L17.16,13.008 C15.768,9.072 14.16,4.656 12.672,0.792 C12.144,0.792 11.76,0.816 11.472,0.912 L7.368,12.912 C6.576,10.176 5.592,7.056 4.776,4.608 C4.032,2.472 4.224,2.184 5.88,2.064 C5.976,1.656 6,1.248 6,0.912 C5.088,0.96 3.648,0.984 2.904,0.984 C2.16,0.984 0.768,0.96 0,0.912 C0,1.296 0.024,1.728 0.12,2.088 C0.984,2.184 1.128,2.304 2.016,4.896 C3.336,8.928 4.68,13.176 5.976,17.424 C6.36,17.424 6.912,17.376 7.224,17.28 L11.304,5.136 C12.816,9.096 14.448,13.488 15.84,17.424 C16.272,17.424 16.752,17.376 17.064,17.28 L20.712,5.544 C21.552,2.928 21.888,2.28 22.728,2.064 C22.872,1.704 22.92,1.272 22.92,0.912 C22.272,0.96 21.312,0.984 20.568,0.984 Z" id="Path"></path>
            <path d="M33.144,15.432 C31.872,15.384 31.68,14.976 31.68,13.536 L31.68,11.064 C31.68,8.904 31.44,7.728 30.648,6.96 C30.12,6.408 29.208,6 27.84,6 C26.52,6 24.864,6.384 23.544,7.056 C23.712,7.848 23.736,8.928 23.664,9.744 C24,9.888 24.648,9.936 25.128,9.936 C25.2,8.832 25.656,7.176 27.192,7.176 C27.744,7.176 28.248,7.392 28.632,7.848 C29.04,8.352 29.136,8.904 29.136,10.704 C26.928,11.016 22.824,11.688 22.824,14.784 C22.824,16.416 23.952,17.376 26.016,17.376 C27.192,17.376 28.056,17.04 28.632,16.56 C29.016,16.2 29.328,15.768 29.52,15.312 C29.496,15.576 29.472,15.816 29.472,16.008 C29.472,16.896 29.688,17.256 30.096,17.424 C30.936,16.992 32.088,16.704 32.976,16.68 C33.144,16.296 33.168,15.84 33.144,15.432 Z M29.136,12.6 C29.136,14.88 27.864,15.864 26.832,15.864 C26.112,15.864 25.488,15.36 25.488,14.256 C25.488,12.36 27.432,12.024 29.136,11.76 L29.136,12.6 Z" id="Shape"></path>
            <path d="M43.992,6.768 C43.488,6.384 42.984,6.192 42.336,6.192 C41.064,6.192 40.08,7.032 39.384,8.136 C39.192,8.448 39.048,8.928 38.832,9.552 C39,8.76 39.192,8.016 39.192,7.128 C39.192,6.408 38.928,6.12 38.616,6 C37.872,6.384 36.288,6.744 35.088,6.816 C34.92,7.104 34.872,7.44 34.872,7.848 C36.456,7.896 36.648,8.424 36.648,9.624 L36.648,13.944 C36.648,15.648 36.288,16.032 35.016,16.128 C34.896,16.416 34.872,16.776 34.872,17.28 C35.568,17.232 37.08,17.208 38.304,17.208 C39.504,17.208 40.752,17.232 41.544,17.28 C41.544,16.824 41.52,16.416 41.4,16.128 C39.816,16.032 39.192,15.576 39.192,13.488 L39.192,11.496 C39.192,9.72 40.32,8.208 41.136,8.208 C41.76,8.208 42.216,8.568 42.264,10.032 C42.816,10.032 43.488,9.936 43.824,9.792 C43.8,8.904 43.872,7.608 43.992,6.768 Z" id="Path"></path>
            <path d="M65.328,16.128 C64.32,16.056 63.936,15.696 63.936,13.848 L63.936,10.08 C63.936,7.152 62.376,6.12 60.432,6.12 C58.824,6.12 57.648,7.032 57.096,7.752 C56.904,7.992 56.736,8.256 56.592,8.64 C56.568,8.4 56.52,8.184 56.448,7.992 C55.92,6.576 54.696,6 53.304,6 C51.672,6 50.448,6.936 49.896,7.68 C49.8,7.8 49.656,8.016 49.44,8.592 C49.536,7.848 49.56,7.44 49.56,7.056 C49.56,6.408 49.296,6.096 48.984,6 C48.288,6.384 46.56,6.768 45.552,6.816 C45.384,7.128 45.336,7.44 45.336,7.848 C46.92,7.92 47.112,8.4 47.112,9.672 L47.112,14.04 C47.112,15.648 46.752,16.056 45.48,16.128 C45.36,16.416 45.336,16.8 45.336,17.28 C46.104,17.232 47.448,17.208 48.336,17.208 C49.224,17.208 50.568,17.232 51.36,17.28 C51.36,16.8 51.336,16.44 51.24,16.128 C50.016,16.056 49.632,15.648 49.632,14.016 L49.632,11.664 C49.632,8.88 50.976,7.68 52.2,7.68 C53.448,7.68 54.288,8.352 54.288,10.488 L54.288,13.848 C54.288,15.648 53.928,16.056 52.68,16.128 C52.584,16.416 52.56,16.8 52.56,17.28 C53.424,17.232 54.552,17.208 55.56,17.208 C56.544,17.208 57.72,17.232 58.536,17.28 C58.536,16.8 58.488,16.44 58.392,16.128 C57.192,16.056 56.784,15.648 56.784,14.016 L56.784,11.76 C56.784,8.928 58.104,7.8 59.376,7.8 C60.576,7.8 61.416,8.448 61.416,10.632 L61.416,13.896 C61.416,15.624 61.056,16.056 59.832,16.128 C59.736,16.44 59.712,16.8 59.712,17.28 C60.504,17.232 61.728,17.208 62.736,17.208 C63.72,17.208 64.704,17.232 65.448,17.28 C65.448,16.8 65.424,16.44 65.328,16.128 Z" id="Path"></path>
            <path d="M71.28,16.488 C71.28,15.456 70.992,14.88 70.392,14.64 C69.84,15 69.096,15.24 68.304,15.384 C68.112,15.888 68.064,16.584 68.064,17.016 C68.88,17.112 69.288,17.544 69.288,18.216 C69.288,19.032 68.736,20.136 67.752,21.24 C67.944,21.48 68.328,21.648 68.688,21.648 C70.104,20.304 71.28,18.408 71.28,16.488 Z" id="Path"></path>
            <path d="M84.576,15.576 C81.672,15.576 81.024,15.48 81.024,14.616 C81.024,14.328 81.192,13.992 81.552,13.608 C82.128,13.776 82.728,13.872 83.376,13.872 C86.4,13.872 87.96,12.12 87.96,9.912 C87.96,9.168 87.624,8.184 86.88,7.392 C87.6,7.488 88.536,7.632 89.184,7.8 C89.184,7.248 89.136,6.648 88.992,6.216 L84.912,6.216 C84.432,6.072 83.88,6 83.28,6 C80.352,6 78.792,7.704 78.792,9.984 C78.792,11.376 79.416,12.408 80.376,13.056 C79.608,13.776 79.08,14.688 79.08,15.648 C79.08,16.584 79.416,17.16 80.184,17.472 C79.032,18 78.432,18.864 78.432,20.016 C78.432,22.032 79.608,23.184 82.728,23.184 C86.4,23.184 88.968,20.64 88.968,18.312 C88.968,16.248 87.672,15.576 84.576,15.576 Z M83.136,7.128 C84.576,7.128 85.392,8.472 85.392,10.176 C85.392,11.808 84.696,12.672 83.664,12.672 C82.224,12.672 81.36,11.616 81.36,9.672 C81.36,8.328 81.936,7.128 83.136,7.128 Z M83.352,21.816 C81.408,21.816 80.712,21.024 80.712,19.488 C80.712,18.768 80.88,18.288 81.408,17.784 C81.864,17.832 82.392,17.856 83.016,17.856 C86.064,17.856 86.688,18.264 86.688,19.368 C86.688,20.664 85.44,21.816 83.352,21.816 Z" id="Shape"></path>
            <path d="M100.032,6.768 C99.528,6.384 99.024,6.192 98.376,6.192 C97.104,6.192 96.12,7.032 95.424,8.136 C95.232,8.448 95.088,8.928 94.872,9.552 C95.04,8.76 95.232,8.016 95.232,7.128 C95.232,6.408 94.968,6.12 94.656,6 C93.912,6.384 92.328,6.744 91.128,6.816 C90.96,7.104 90.912,7.44 90.912,7.848 C92.496,7.896 92.688,8.424 92.688,9.624 L92.688,13.944 C92.688,15.648 92.328,16.032 91.056,16.128 C90.936,16.416 90.912,16.776 90.912,17.28 C91.608,17.232 93.12,17.208 94.344,17.208 C95.544,17.208 96.792,17.232 97.584,17.28 C97.584,16.824 97.56,16.416 97.44,16.128 C95.856,16.032 95.232,15.576 95.232,13.488 L95.232,11.496 C95.232,9.72 96.36,8.208 97.176,8.208 C97.8,8.208 98.256,8.568 98.304,10.032 C98.856,10.032 99.528,9.936 99.864,9.792 C99.84,8.904 99.912,7.608 100.032,6.768 Z" id="Path"></path>
            <path d="M107.016,17.424 C110.4,17.424 112.632,15.048 112.632,11.688 C112.632,8.304 110.616,6 107.04,6 C103.776,6 101.424,8.352 101.424,11.736 C101.424,15.192 103.56,17.424 107.016,17.424 Z M107.256,16.152 C105.36,16.152 104.184,14.304 104.184,11.184 C104.184,8.88 105.048,7.248 106.8,7.248 C108.48,7.248 109.896,9.048 109.896,12.048 C109.896,14.472 109.032,16.152 107.256,16.152 Z" id="Shape"></path>
            <path d="M126.576,15.432 C125.28,15.432 125.112,14.976 125.112,13.728 L125.112,7.128 C125.112,6.408 124.848,6.12 124.536,6 C123.792,6.336 122.4,6.624 120.984,6.696 C120.792,7.008 120.792,7.32 120.792,7.728 C122.352,7.776 122.568,8.304 122.568,9.504 L122.568,11.664 C122.568,14.4 121.392,15.696 119.904,15.696 C118.536,15.696 118.056,14.616 118.056,12.456 L118.056,7.128 C118.056,6.408 117.792,6.12 117.48,6 C116.736,6.384 115.344,6.744 114.144,6.816 C113.976,7.128 113.952,7.44 113.952,7.848 C115.392,7.896 115.512,8.424 115.512,9.624 L115.512,13.008 C115.512,16.224 116.808,17.304 119.016,17.304 C120.336,17.304 121.272,16.92 122.064,16.128 C122.424,15.792 122.688,15.432 122.856,15.024 C122.808,15.48 122.784,15.792 122.784,16.032 C122.784,17.064 123.024,17.256 123.432,17.424 C124.272,16.992 125.496,16.704 126.408,16.68 C126.552,16.296 126.6,15.84 126.576,15.432 Z" id="Path"></path>
            <path d="M141.24,16.128 C140.304,16.128 139.872,15.672 139.872,14.04 L139.872,10.032 C139.872,7.128 138.192,6.12 136.32,6.12 C134.688,6.12 133.44,7.032 132.888,7.776 C132.648,8.064 132.552,8.304 132.432,8.544 C132.576,7.992 132.624,7.512 132.624,7.128 C132.624,6.408 132.36,6.12 132.048,6 C131.304,6.384 129.72,6.744 128.52,6.816 C128.352,7.104 128.304,7.44 128.304,7.848 C129.888,7.896 130.08,8.424 130.08,9.624 L130.08,14.04 C130.08,15.648 129.696,16.128 128.448,16.128 C128.352,16.416 128.304,16.8 128.304,17.28 C129,17.232 130.344,17.208 131.352,17.208 C132.36,17.208 133.656,17.256 134.328,17.28 C134.328,16.8 134.304,16.464 134.184,16.128 C133.032,16.128 132.624,15.648 132.624,14.04 L132.624,11.76 C132.624,8.952 133.992,7.8 135.216,7.8 C136.488,7.8 137.328,8.472 137.328,10.656 L137.328,13.992 C137.328,15.624 136.848,16.128 135.768,16.128 C135.648,16.44 135.624,16.8 135.624,17.28 C136.368,17.256 137.64,17.208 138.648,17.208 C139.656,17.208 140.664,17.232 141.36,17.28 C141.36,16.8 141.336,16.44 141.24,16.128 Z" id="Path"></path>
            <path d="M155.088,15.432 C153.792,15.432 153.624,14.976 153.624,13.728 L153.624,1.056 C153.624,0.408 153.384,0.12 153.048,0 C152.448,0.408 150.504,0.816 149.52,0.816 C149.352,1.104 149.304,1.44 149.304,1.848 C150.912,1.872 151.104,2.424 151.104,3.552 L151.104,6.312 C150.456,6.096 149.904,6 149.184,6 C145.464,6 143.016,8.712 143.016,12.168 C143.016,15.816 144.792,17.424 147.576,17.424 C149.136,17.424 150.384,16.464 150.84,15.768 C151.008,15.576 151.224,15.24 151.488,14.712 C151.368,15.264 151.296,15.576 151.296,16.032 C151.296,17.064 151.56,17.256 151.944,17.424 C152.784,16.992 154.032,16.704 154.92,16.68 C155.088,16.296 155.112,15.84 155.088,15.432 Z M148.296,15.792 C147.192,15.792 145.752,14.64 145.752,11.808 C145.752,8.016 147.792,7.2 149.088,7.2 C149.976,7.2 150.576,7.536 151.104,8.04 L151.104,11.352 C151.104,14.592 149.664,15.792 148.296,15.792 Z" id="Shape"></path>
            <path d="M165.984,14.64 C165.192,15.48 164.088,15.936 163.032,15.936 C160.656,15.936 159.768,14.112 159.576,12.048 C162.024,11.928 165.096,11.928 166.248,11.928 C166.44,11.688 166.584,11.376 166.656,11.016 C166.488,8.208 165.24,6 162.024,6 C158.856,6 156.864,8.568 156.864,11.736 C156.864,14.88 158.568,17.424 162.168,17.424 C163.992,17.424 165.432,16.872 166.56,15.504 C166.536,15.192 166.248,14.784 165.984,14.64 Z M161.856,7.248 C163.176,7.248 163.944,8.64 163.944,10.752 L159.552,10.752 C159.672,8.088 160.728,7.248 161.856,7.248 Z" id="Shape"></path>
            <path d="M180.576,15.432 C179.28,15.432 179.112,14.976 179.112,13.728 L179.112,1.056 C179.112,0.408 178.872,0.12 178.536,0 C177.936,0.408 175.992,0.816 175.008,0.816 C174.84,1.104 174.792,1.44 174.792,1.848 C176.4,1.872 176.592,2.424 176.592,3.552 L176.592,6.312 C175.944,6.096 175.392,6 174.672,6 C170.952,6 168.504,8.712 168.504,12.168 C168.504,15.816 170.28,17.424 173.064,17.424 C174.624,17.424 175.872,16.464 176.328,15.768 C176.496,15.576 176.712,15.24 176.976,14.712 C176.856,15.264 176.784,15.576 176.784,16.032 C176.784,17.064 177.048,17.256 177.432,17.424 C178.272,16.992 179.52,16.704 180.408,16.68 C180.576,16.296 180.6,15.84 180.576,15.432 Z M173.784,15.792 C172.68,15.792 171.24,14.64 171.24,11.808 C171.24,8.016 173.28,7.2 174.576,7.2 C175.464,7.2 176.064,7.536 176.592,8.04 L176.592,11.352 C176.592,14.592 175.152,15.792 173.784,15.792 Z" id="Shape"></path>
        </g>
        <g id="Graceful,-approachab" transform="translate(688.984000, 279.720000)" fill="#48453E" fill-rule="nonzero">
            <path d="M8.088,17.52 C10.464,17.52 12.648,16.776 13.752,15.912 L13.752,9.744 L7.992,9.744 L7.68,11.496 L11.616,11.496 L11.616,14.832 C10.68,15.384 9.504,15.576 8.4,15.576 C4.488,15.576 2.52,12.912 2.52,9.648 C2.52,6.192 4.992,3.816 8.64,3.816 C10.464,3.816 12.192,4.416 13.224,5.064 L13.224,2.808 C11.928,2.256 10.488,1.92 8.856,1.92 C3.576,1.92 0,5.376 0,9.864 C0,14.28 3.096,17.52 8.088,17.52 Z" id="Path"></path>
            <path d="M22.032,7.464 C20.88,7.464 19.848,8.496 19.272,9.432 L19.272,7.368 L17.064,7.944 L17.064,17.28 L19.272,17.28 L19.272,11.304 C19.944,10.56 20.808,9.84 21.84,9.84 C22.224,9.84 22.584,9.984 23.016,10.2 L23.016,7.752 C22.752,7.56 22.44,7.464 22.032,7.464 Z" id="Path"></path>
            <path d="M32.664,15.84 C32.016,15.84 31.632,15.408 31.632,14.352 C31.632,13.68 31.776,11.808 31.776,10.992 C31.776,8.4 30.408,7.512 28.2,7.512 C26.832,7.512 25.776,7.896 24.84,8.688 L24.504,10.944 C25.8,9.696 26.664,9.264 27.792,9.264 C29.256,9.264 29.664,10.08 29.664,11.28 L29.664,12.12 C26.352,11.904 24.264,13.128 24.264,15.192 C24.264,16.608 25.296,17.52 26.928,17.52 C28.128,17.52 29.208,16.992 29.928,16.008 C30.168,16.728 30.864,17.28 31.92,17.28 C32.52,17.28 33.024,17.112 33.528,16.752 L33.744,15.432 C33.336,15.696 33.024,15.84 32.664,15.84 Z M27.456,15.984 C26.664,15.984 26.28,15.528 26.28,14.904 C26.28,13.872 27.432,13.08 29.664,13.272 L29.664,14.856 C29.112,15.528 28.344,15.984 27.456,15.984 Z" id="Shape"></path>
            <path d="M40.056,15.6 C38.208,15.6 37.008,14.328 37.008,12.408 C37.008,10.248 38.472,9.264 40.2,9.264 C40.968,9.264 42.024,9.504 42.864,10.008 L42.864,8.016 C42.144,7.704 41.184,7.512 40.224,7.512 C37.128,7.512 34.728,9.48 34.728,12.72 C34.728,15.864 37.032,17.52 39.696,17.52 C40.848,17.52 42,17.184 42.936,16.44 L43.248,14.376 C42.048,15.264 41.04,15.6 40.056,15.6 Z" id="Path"></path>
            <path d="M50.472,15.648 C48.312,15.648 47.064,14.184 46.992,12.336 L53.976,12.336 C54.216,8.856 52.32,7.512 49.944,7.512 C47.016,7.512 44.88,9.624 44.88,12.504 C44.88,15.48 47.136,17.52 50.16,17.52 C51.6,17.52 52.92,17.136 53.808,16.44 L54.12,14.376 C52.824,15.312 51.72,15.648 50.472,15.648 Z M49.752,9.048 C50.952,9.048 51.744,9.816 51.816,11.112 L47.112,11.112 C47.496,9.744 48.6,9.048 49.752,9.048 Z" id="Shape"></path>
            <path d="M62.448,1.8 C63.336,1.8 64.152,2.016 64.92,2.496 L64.92,0.504 C64.272,0.192 63.36,0 62.352,0 C59.448,0 57.144,1.704 57.144,6.264 L57.144,7.752 L55.392,7.752 L55.392,9.432 L57.144,9.432 L57.144,17.28 L59.352,17.28 L59.352,9.432 L62.592,9.432 L62.856,7.752 L59.352,7.752 L59.352,6.456 C59.352,2.904 60.624,1.8 62.448,1.8 Z" id="Path"></path>
            <path d="M70.296,7.752 L70.296,14.424 C69.144,15.384 68.328,15.624 67.488,15.624 C66.48,15.624 65.808,15.096 65.808,13.656 L65.808,7.368 L63.6,7.944 L63.6,14.472 C63.6,16.584 64.92,17.52 66.744,17.52 C68.136,17.52 69.264,16.992 70.296,16.128 L70.296,17.52 L72.504,16.992 L72.504,7.752 L70.296,7.752 Z" id="Path"></path>
            <polygon id="Path" points="75.456 17.28 77.664 17.28 77.664 0 75.456 0.576"></polygon>
            <path d="M80.28,21.12 C82.272,20.376 83.64,19.008 83.64,17.112 C83.64,15.672 82.824,14.592 81.432,13.8 L80.208,15.552 C81.24,16.248 81.72,16.8 81.72,17.712 C81.72,18.504 81.36,19.32 79.848,20.28 L80.28,21.12 Z" id="Path"></path>
            <path d="M98.52,15.84 C97.872,15.84 97.488,15.408 97.488,14.352 C97.488,13.68 97.632,11.808 97.632,10.992 C97.632,8.4 96.264,7.512 94.056,7.512 C92.688,7.512 91.632,7.896 90.696,8.688 L90.36,10.944 C91.656,9.696 92.52,9.264 93.648,9.264 C95.112,9.264 95.52,10.08 95.52,11.28 L95.52,12.12 C92.208,11.904 90.12,13.128 90.12,15.192 C90.12,16.608 91.152,17.52 92.784,17.52 C93.984,17.52 95.064,16.992 95.784,16.008 C96.024,16.728 96.72,17.28 97.776,17.28 C98.376,17.28 98.88,17.112 99.384,16.752 L99.6,15.432 C99.192,15.696 98.88,15.84 98.52,15.84 Z M93.312,15.984 C92.52,15.984 92.136,15.528 92.136,14.904 C92.136,13.872 93.288,13.08 95.52,13.272 L95.52,14.856 C94.968,15.528 94.2,15.984 93.312,15.984 Z" id="Shape"></path>
            <path d="M106.392,7.512 C105.048,7.512 103.896,8.04 103.248,8.688 L103.248,7.368 L101.04,7.944 L101.04,23.28 L103.248,23.28 L103.248,17.424 C103.728,17.496 104.208,17.52 104.64,17.52 C108.12,17.52 110.784,15.504 110.784,12.168 C110.784,9.408 108.936,7.512 106.392,7.512 Z M104.664,15.768 C104.208,15.768 103.752,15.72 103.248,15.624 L103.248,10.296 C103.968,9.696 104.904,9.312 105.792,9.312 C107.496,9.312 108.504,10.704 108.504,12.336 C108.504,14.376 107.04,15.768 104.664,15.768 Z" id="Shape"></path>
            <path d="M118.584,7.512 C117.24,7.512 116.088,8.04 115.44,8.688 L115.44,7.368 L113.232,7.944 L113.232,23.28 L115.44,23.28 L115.44,17.424 C115.92,17.496 116.4,17.52 116.832,17.52 C120.312,17.52 122.976,15.504 122.976,12.168 C122.976,9.408 121.128,7.512 118.584,7.512 Z M116.856,15.768 C116.4,15.768 115.944,15.72 115.44,15.624 L115.44,10.296 C116.16,9.696 117.096,9.312 117.984,9.312 C119.688,9.312 120.696,10.704 120.696,12.336 C120.696,14.376 119.232,15.768 116.856,15.768 Z" id="Shape"></path>
            <path d="M130.56,7.464 C129.408,7.464 128.376,8.496 127.8,9.432 L127.8,7.368 L125.592,7.944 L125.592,17.28 L127.8,17.28 L127.8,11.304 C128.472,10.56 129.336,9.84 130.368,9.84 C130.752,9.84 131.112,9.984 131.544,10.2 L131.544,7.752 C131.28,7.56 130.968,7.464 130.56,7.464 Z" id="Path"></path>
            <path d="M137.592,7.512 C134.856,7.512 132.552,9.528 132.552,12.504 C132.552,15.504 134.88,17.52 137.616,17.52 C140.352,17.52 142.68,15.504 142.68,12.504 C142.68,9.528 140.328,7.512 137.592,7.512 Z M137.712,15.816 C136.008,15.816 134.832,14.328 134.832,12.336 C134.832,10.536 135.888,9.216 137.496,9.216 C139.2,9.216 140.4,10.704 140.4,12.696 C140.4,14.472 139.32,15.816 137.712,15.816 Z" id="Shape"></path>
            <path d="M153.072,15.84 C152.424,15.84 152.04,15.408 152.04,14.352 C152.04,13.68 152.184,11.808 152.184,10.992 C152.184,8.4 150.816,7.512 148.608,7.512 C147.24,7.512 146.184,7.896 145.248,8.688 L144.912,10.944 C146.208,9.696 147.072,9.264 148.2,9.264 C149.664,9.264 150.072,10.08 150.072,11.28 L150.072,12.12 C146.76,11.904 144.672,13.128 144.672,15.192 C144.672,16.608 145.704,17.52 147.336,17.52 C148.536,17.52 149.616,16.992 150.336,16.008 C150.576,16.728 151.272,17.28 152.328,17.28 C152.928,17.28 153.432,17.112 153.936,16.752 L154.152,15.432 C153.744,15.696 153.432,15.84 153.072,15.84 Z M147.864,15.984 C147.072,15.984 146.688,15.528 146.688,14.904 C146.688,13.872 147.84,13.08 150.072,13.272 L150.072,14.856 C149.52,15.528 148.752,15.984 147.864,15.984 Z" id="Shape"></path>
            <path d="M160.464,15.6 C158.616,15.6 157.416,14.328 157.416,12.408 C157.416,10.248 158.88,9.264 160.608,9.264 C161.376,9.264 162.432,9.504 163.272,10.008 L163.272,8.016 C162.552,7.704 161.592,7.512 160.632,7.512 C157.536,7.512 155.136,9.48 155.136,12.72 C155.136,15.864 157.44,17.52 160.104,17.52 C161.256,17.52 162.408,17.184 163.344,16.44 L163.656,14.376 C162.456,15.264 161.448,15.6 160.464,15.6 Z" id="Path"></path>
            <path d="M171.456,7.512 C170.04,7.512 168.912,8.04 167.832,8.88 L167.832,0 L165.624,0.576 L165.624,17.28 L167.832,17.28 L167.832,10.608 C169.008,9.648 169.848,9.408 170.664,9.408 C171.792,9.408 172.44,9.936 172.44,11.352 L172.44,17.28 L174.648,17.28 L174.648,10.56 C174.648,8.448 173.352,7.512 171.456,7.512 Z" id="Path"></path>
            <path d="M185.544,15.84 C184.896,15.84 184.512,15.408 184.512,14.352 C184.512,13.68 184.656,11.808 184.656,10.992 C184.656,8.4 183.288,7.512 181.08,7.512 C179.712,7.512 178.656,7.896 177.72,8.688 L177.384,10.944 C178.68,9.696 179.544,9.264 180.672,9.264 C182.136,9.264 182.544,10.08 182.544,11.28 L182.544,12.12 C179.232,11.904 177.144,13.128 177.144,15.192 C177.144,16.608 178.176,17.52 179.808,17.52 C181.008,17.52 182.088,16.992 182.808,16.008 C183.048,16.728 183.744,17.28 184.8,17.28 C185.4,17.28 185.904,17.112 186.408,16.752 L186.624,15.432 C186.216,15.696 185.904,15.84 185.544,15.84 Z M180.336,15.984 C179.544,15.984 179.16,15.528 179.16,14.904 C179.16,13.872 180.312,13.08 182.544,13.272 L182.544,14.856 C181.992,15.528 181.224,15.984 180.336,15.984 Z" id="Shape"></path>
            <path d="M193.416,7.512 C192.072,7.512 190.92,8.04 190.272,8.688 L190.272,0 L188.064,0.576 L188.064,16.92 C189.192,17.304 190.584,17.52 191.664,17.52 C195.144,17.52 197.808,15.504 197.808,12.168 C197.808,9.408 195.96,7.512 193.416,7.512 Z M191.688,15.768 C191.232,15.768 190.776,15.72 190.272,15.624 L190.272,10.296 C190.992,9.696 191.928,9.312 192.816,9.312 C194.52,9.312 195.528,10.704 195.528,12.336 C195.528,14.376 194.064,15.768 191.688,15.768 Z" id="Shape"></path>
            <polygon id="Path" points="200.256 17.28 202.464 17.28 202.464 0 200.256 0.576"></polygon>
            <path d="M210.672,15.648 C208.512,15.648 207.264,14.184 207.192,12.336 L214.176,12.336 C214.416,8.856 212.52,7.512 210.144,7.512 C207.216,7.512 205.08,9.624 205.08,12.504 C205.08,15.48 207.336,17.52 210.36,17.52 C211.8,17.52 213.12,17.136 214.008,16.44 L214.32,14.376 C213.024,15.312 211.92,15.648 210.672,15.648 Z M209.952,9.048 C211.152,9.048 211.944,9.816 212.016,11.112 L207.312,11.112 C207.696,9.744 208.8,9.048 209.952,9.048 Z" id="Shape"></path>
        </g>
    </g>
</svg>