<?xml version="1.0" encoding="UTF-8"?>
<svg width="755px" height="107px" viewBox="0 0 755 107" version="1.1" xmlns="http://www.w3.org/2000/svg" xmlns:xlink="http://www.w3.org/1999/xlink">
    <title>Artboard</title>
    <g id="Artboard" stroke="none" stroke-width="1" fill="none" fill-rule="evenodd">
        <g id="金萱體" transform="translate(1.640000, 0.520000)" fill="#2F2E2C" fill-rule="nonzero">
            <path d="M26.92,15.52 L26.92,13.64 C29.36,15.4 31.88,16.76 34.2,17.6 L36.8,12.44 C31.4,11 25.44,8.52 20.48,3.72 C20.88,3.16 21.24,2.6 21.56,2.04 L16.12,0 C12.04,7.96 6.08,13.32 0,16.48 L0.84,18.4 C3.76,17.48 6.84,16 9.8,14.04 L9.8,15.52 L15.6,15.52 L15.6,20.04 L4,20.04 L4,22.6 L15.6,22.6 L15.6,33.84 L2.44,33.84 L2.44,36.6 L34.2,36.6 L34.2,33.84 L21.08,33.84 L21.08,22.6 L32.44,22.6 L32.44,20.04 L21.08,20.04 L21.08,15.52 L26.92,15.52 Z M11.32,13 C14.16,10.96 16.8,8.48 19.04,5.68 C20.84,8.36 23.36,10.92 26.08,13 L11.32,13 Z M23.64,33.36 C26.28,31.64 29.32,28.68 31.44,25.84 L26.68,23.12 C25.44,26.2 23.72,29.52 22.04,31.88 L23.64,33.36 Z M7.76,23.28 L5.92,24.52 C7.36,27.4 8.68,30.4 9.88,33.72 L14.44,31.2 C12.76,28.48 9.92,25.16 7.76,23.28 Z" id="Shape"></path>
            <path d="M68.9663158,3.8 L68.9663158,0.64 L64.0063158,0.64 L64.0063158,3.8 L53.8463158,3.8 L53.8463158,0.6 L48.8863158,0.6 L48.8863158,3.8 L41.1263158,3.8 L41.1263158,6.28 L48.8863158,6.28 L48.8863158,9.72 L53.8463158,9.72 L53.8463158,6.28 L64.0063158,6.28 L64.0063158,9.64 L68.9663158,9.64 L68.9663158,6.28 L76.6063158,6.28 L76.6063158,3.8 L68.9663158,3.8 Z M41.9263158,19.44 L46.8863158,19.44 L46.8863158,14 L70.9263158,14 L70.9263158,19.36 L75.9263158,19.36 L75.9263158,11.6 L61.3663158,11.6 L62.9663158,8.96 C60.7263158,7.72 57.8463158,6.76 55.4863158,6.36 L54.6863158,8.16 C55.9263158,9.04 57.6863158,10.4 59.2463158,11.6 L41.9263158,11.6 L41.9263158,19.44 Z M48.2063158,15.96 L48.2063158,18.32 L69.7263158,18.32 L69.7263158,15.96 L48.2063158,15.96 Z M47.6863158,31.84 L70.2863158,31.84 L70.2863158,20.36 L47.6863158,20.36 L47.6863158,31.84 Z M52.5263158,22.68 L65.4463158,22.68 L65.4463158,24.96 L52.5263158,24.96 L52.5263158,22.68 Z M52.5263158,27.2 L65.4463158,27.2 L65.4463158,29.56 L52.5263158,29.56 L52.5263158,27.2 Z M41.4863158,36.52 L76.3263158,36.52 L76.3263158,34.04 L41.4863158,34.04 L41.4863158,36.52 Z" id="Shape"></path>
            <path d="M115.732632,4.2 L111.252632,4.2 L111.252632,0.76 L107.532632,0.76 L107.532632,4.2 L105.972632,4.2 L105.972632,0.76 L102.252632,0.76 L102.252632,4.2 L97.9326316,4.2 L97.9326316,15.84 L115.732632,15.84 L115.732632,4.2 Z M97.0526316,19.32 L97.0526316,12.44 L95.5726316,12.44 L95.5726316,2.12 L83.9326316,2.12 L83.9326316,12.44 L82.3326316,12.44 L82.3326316,19.36 L83.7326316,19.36 L83.7326316,37.88 L87.6126316,37.88 L87.6126316,29.24 L91.6526316,29.24 L91.6526316,33 C91.6526316,34.56 91.4526316,35.08 88.9326316,34.6 L88.6126316,36.36 C91.8926316,38.52 95.4526316,38.16 95.4526316,34.16 L95.4526316,19.32 L97.0526316,19.32 Z M87.4926316,4.44 L91.9726316,4.44 L91.9726316,6.76 L88.7326316,6.76 L88.7326316,12.44 L87.4926316,12.44 L87.4926316,4.44 Z M103.252632,8.8 L101.732632,8.8 L101.732632,6.52 L103.252632,6.52 L103.252632,8.8 Z M107.532632,8.8 L105.972632,8.8 L105.972632,6.52 L107.532632,6.52 L107.532632,8.8 Z M111.852632,8.8 L110.292632,8.8 L110.292632,6.52 L111.852632,6.52 L111.852632,8.8 Z M91.9726316,8.96 L91.9726316,12.44 L90.8526316,12.44 L90.8526316,8.96 L91.9726316,8.96 Z M103.252632,13.52 L101.732632,13.52 L101.732632,10.96 L103.252632,10.96 L103.252632,13.52 Z M107.532632,13.52 L105.972632,13.52 L105.972632,10.96 L107.532632,10.96 L107.532632,13.52 Z M111.852632,13.52 L110.292632,13.52 L110.292632,10.96 L111.852632,10.96 L111.852632,13.52 Z M93.4126316,14.84 L93.4126316,17.08 L86.0926316,17.08 L86.0926316,14.84 L93.4126316,14.84 Z M116.412632,17.44 L97.5326316,17.44 L97.5326316,19.76 L116.412632,19.76 L116.412632,17.44 Z M91.6526316,22.08 L87.6126316,22.08 L87.6126316,19.36 L91.6526316,19.36 L91.6526316,22.08 Z M115.172632,28.6 L115.172632,21.36 L98.4926316,21.36 L98.4926316,28.6 L115.172632,28.6 Z M102.972632,23.64 L110.692632,23.64 L110.692632,26.28 L102.972632,26.28 L102.972632,23.64 Z M87.6126316,27.08 L87.6126316,24.28 L91.6526316,24.28 L91.6526316,27.08 L87.6126316,27.08 Z M111.292632,34.4 C112.412632,33.24 113.332632,31.92 114.412632,30.2 L110.212632,28.6 C109.852632,30.68 109.292632,32.68 108.572632,34.4 L103.972632,34.4 L105.812632,33.28 C104.732632,31.64 103.092632,29.88 101.412632,28.6 L99.8926316,29.68 C100.532632,31 101.292632,32.72 101.932632,34.4 L96.3726316,34.4 L96.3726316,36.76 L117.132632,36.76 L117.132632,34.4 L111.292632,34.4 Z" id="Shape"></path>
        </g>
        <g id="Alkes" transform="translate(0.189807, 67.200000)" fill="#2F2E2C" fill-rule="nonzero">
            <path d="M29.5301934,28.12 L26.4901934,27.76 L17.6101934,2.4 C17.2901934,2.36 16.9701934,2.36 16.6101934,2.36 C14.8901934,2.36 13.2101934,2.8 11.8901934,3.52 L3.37019336,27.72 C1.81019336,27.76 0.37019336,28.32 0.0101933598,28.84 C-0.0298066402,29.48 0.0501933598,30.08 0.21019336,30.8 L9.41019336,30.8 C9.73019336,30.12 9.81019336,29.52 9.81019336,28.92 C9.81019336,28.64 9.81019336,28.4 9.77019336,28.12 L6.81019336,27.76 L8.53019336,22.76 L18.7701934,22.76 L20.4501934,27.72 C19.1301934,27.76 17.8501934,28.32 17.5701934,28.84 C17.5301934,29.48 17.6101934,30.08 17.7301934,30.8 L29.3701934,30.8 C29.5701934,29.84 29.5701934,29.04 29.5301934,28.12 Z M9.45019336,20 L13.6101934,7.84 L13.8101934,7.84 C14.0101934,8.68 14.2501934,9.4 14.4901934,10.16 L17.8101934,20 L9.45019336,20 Z" id="Shape"></path>
            <path d="M31.3365091,30.8 L42.2965091,30.8 C42.6165091,29.88 42.6165091,29.16 42.5765091,28.24 L39.6165091,28 L39.6165091,0.24 L38.6165091,0 C35.7365091,0 33.6165091,0.24 31.4565091,0.88 C31.3365091,1.28 31.2965091,1.76 31.2965091,2.32 C31.2965091,2.6 31.2965091,2.88 31.3365091,3.16 L34.1765091,3.64 L34.1765091,27.84 C32.6165091,27.88 31.4965091,28.44 31.1765091,28.96 C31.1365091,29.44 31.2165091,30.12 31.3365091,30.8 Z" id="Path"></path>
            <path d="M67.7428249,27.4 L65.6628249,27.6 C64.7828249,27.56 62.8228249,24.16 60.7828249,20.64 C60.4628249,20.08 60.1428249,19.52 59.8228249,18.96 L63.7828249,13.32 C65.4628249,13.28 66.5828249,12.72 66.9028249,12.2 C66.9428249,11.72 66.8628249,11.04 66.7428249,10.36 L58.0228249,10.36 C57.7028249,11 57.6228249,11.56 57.6228249,12.16 C57.6228249,12.4 57.6228249,12.64 57.6628249,12.92 L59.9428249,13.16 L56.2628249,18.76 L53.1828249,19.04 L53.1828249,0.24 L52.1828249,0 C49.3028249,0 47.1828249,0.24 45.0228249,0.88 C44.9028249,1.28 44.8628249,1.76 44.8628249,2.32 C44.8628249,2.6 44.8628249,2.88 44.9028249,3.16 L47.7428249,3.64 L47.7428249,27.84 C46.1828249,27.88 45.0628249,28.44 44.7428249,28.96 C44.7028249,29.44 44.7828249,30.12 44.9028249,30.8 L55.6228249,30.8 C55.9028249,29.88 55.9028249,29.16 55.8628249,28.24 L53.1828249,28 L53.1828249,21.6 L55.8628249,21.88 C56.8228249,24.08 57.6228249,25.88 58.6228249,27.52 C60.1828249,30.08 61.5828249,31.16 63.8628249,31.16 C65.9028249,31.16 67.6228249,30.24 68.1828249,29.44 C68.1428249,28.56 68.0228249,28.08 67.7428249,27.4 Z" id="Path"></path>
            <path d="M88.3491407,17.68 C88.3491407,13.48 85.9091407,9.8 80.3891407,9.8 C74.3091407,9.8 69.7491407,14.24 69.7491407,20.96 C69.7491407,27.28 73.6691407,31.2 79.4291407,31.2 C82.7491407,31.2 85.7091407,30.12 87.6291407,28.2 C87.5091407,27.44 87.0691407,26.56 86.5091407,26.04 C85.0691407,26.8 83.0691407,27.44 81.2691407,27.44 C77.7491407,27.44 75.9491407,25.44 75.5491407,21.56 L87.8691407,21.56 C88.1891407,20.6 88.3491407,18.8 88.3491407,17.68 Z M83.0291407,19 L75.4291407,19 C75.5491407,14.52 77.2691407,12.68 79.5891407,12.68 C81.7491407,12.68 83.1491407,14.32 83.1491407,17.12 C83.1491407,17.6 83.1091407,18.36 83.0291407,19 Z" id="Shape"></path>
            <path d="M98.7554565,31.24 C102.755457,31.24 107.035457,29.4 106.995457,25.08 C106.955457,21.28 103.675457,19.64 100.875457,18.28 C98.7154565,17.24 96.8754565,16.28 96.8754565,14.64 C96.8754565,13.36 97.9554565,12.52 99.4754565,12.52 C101.075457,12.52 102.835457,13.68 104.355457,15.8 C105.515457,14.96 106.275457,13.2 106.195457,11.44 C104.715457,10.48 102.275457,9.8 99.8754565,9.8 C95.4354565,9.8 91.9954565,12.04 92.0354565,15.88 C92.0754565,19.48 95.1154565,21.04 97.7954565,22.4 C99.9154565,23.48 101.795457,24.4 101.795457,26.16 C101.795457,27.52 100.595457,28.44 98.8754565,28.44 C96.7554565,28.44 94.8354565,27.08 93.1954565,25 C91.9954565,26.12 91.3554565,27.84 91.4354565,29.48 C93.0354565,30.52 96.0754565,31.24 98.7554565,31.24 Z" id="Path"></path>
        </g>
        <g id="Jasmine-and-osmanthu" transform="translate(147.800000, 67.200000)" fill="#2F2E2C" fill-rule="nonzero">
            <path d="M0.8,37.92 C5.92,35.6 7.32,33.52 7.32,25.32 L7.32,5 C8.84,4.88 10.04,4.48 10.4,4.04 C10.44,3.68 10.36,3.2 10.24,2.8 L1.52,2.8 C1.28,3.4 1.28,4.04 1.32,4.64 L4.4,5 L4.4,25.32 C4.4,31.48 4.08,33.32 0,36.52 C0.12,37.12 0.36,37.52 0.8,37.92 Z" id="Path"></path>
            <path d="M30.6063158,28.36 L27.9663158,28.76 C27.7263158,28.32 27.6463158,27.76 27.6463158,26.88 L27.6463158,16.6 C27.6463158,12.6 25.6063158,10.08 21.2863158,10.08 C18.0063158,10.08 15.4063158,11.36 14.0063158,13 C13.9663158,14.04 14.0463158,15.24 14.1263158,16 C14.5263158,16.44 15.1263158,16.68 15.8063158,16.68 C15.9663158,16.68 16.1263158,16.68 16.2863158,16.64 L16.9663158,12.52 C18.2063158,12.16 19.3263158,11.96 20.6063158,11.96 C24.5263158,11.96 24.8863158,14.52 24.8863158,16.64 L24.8863158,19.08 L21.3263158,19.4 C15.9263158,19.84 12.9663158,22.2 12.9663158,25.92 C12.9663158,29.12 15.1263158,31.24 18.6463158,31.24 C21.5263158,31.24 23.7263158,29.72 24.8863158,28.08 C24.9663158,29.88 26.0063158,31.04 27.7263158,31.04 C28.9663158,31.04 30.1263158,30.56 30.9663158,29.64 C30.9663158,29.08 30.8463158,28.72 30.6063158,28.36 Z M19.3663158,29.08 C17.0863158,29.08 15.8063158,27.6 15.8063158,25.56 C15.8063158,23 17.8063158,21.44 21.3263158,21.08 L24.8863158,20.68 L24.8863158,25.88 C23.5263158,27.72 21.4063158,29.08 19.3663158,29.08 Z" id="Shape"></path>
            <path d="M39.9326316,31.24 C43.9726316,31.24 47.1326316,29.08 47.1326316,25.56 C47.1326316,21.84 44.0526316,20.36 41.2126316,19 C38.9326316,17.88 36.8126316,16.88 36.8126316,14.8 C36.8126316,13.08 38.1726316,12.04 40.4526316,12.04 C42.4126316,12.04 44.1326316,13.04 45.2526316,14.56 C46.0926316,13.92 46.6126316,12.64 46.4926316,11.64 C45.0926316,10.72 43.0926316,10.08 41.2926316,10.08 C37.4126316,10.08 34.2926316,12.16 34.2926316,15.36 C34.2926316,18.8 37.2126316,20.24 39.9326316,21.6 C42.3326316,22.76 44.5726316,23.84 44.5726316,26.16 C44.5726316,28.16 42.9726316,29.24 40.5326316,29.24 C37.9726316,29.24 36.1326316,28.08 34.7726316,26.6 C33.9326316,27.24 33.3726316,28.52 33.4926316,29.44 C34.8526316,30.36 37.2526316,31.24 39.9326316,31.24 Z" id="Path"></path>
            <path d="M84.6589474,29.04 L81.8189474,28.8 L81.8189474,17.68 C81.8189474,12.6 79.4589474,10.08 75.8989474,10.08 C72.6989474,10.08 70.1389474,11.96 68.8189474,13.96 C67.8989474,11.36 65.9789474,10.08 63.4189474,10.08 C60.5789474,10.08 58.2589474,11.64 56.8989474,13.4 L56.8989474,10.52 L56.0589474,10.28 C54.2989474,10.36 53.0189474,10.48 51.2189474,10.96 C51.1389474,11.24 51.1389474,11.48 51.1389474,11.72 C51.1389474,11.96 51.1389474,12.16 51.1789474,12.44 L54.1389474,12.76 L54.1389474,28.72 C52.5789474,28.72 51.5789474,29.2 51.2189474,29.68 C51.1789474,29.92 51.2589474,30.4 51.3389474,30.8 L59.5389474,30.8 C59.8189474,30.16 59.7789474,29.64 59.7789474,29.04 L56.8989474,28.8 L56.8989474,15.56 C58.2189474,13.8 60.5389474,12.36 62.6989474,12.36 C65.1789474,12.36 66.5789474,14.2 66.5789474,17.92 L66.5789474,28.72 C65.0189474,28.72 64.0189474,29.2 63.6589474,29.68 C63.6189474,29.92 63.6989474,30.4 63.7789474,30.8 L72.0189474,30.8 C72.2589474,30.16 72.2189474,29.64 72.2189474,29.04 L69.3389474,28.8 L69.3389474,17.68 C69.3389474,17.04 69.2989474,16.4 69.2189474,15.84 C70.5389474,13.96 72.8989474,12.36 75.1389474,12.36 C77.6189474,12.36 79.0589474,14.2 79.0589474,17.92 L79.0589474,28.72 C77.4589474,28.72 76.4589474,29.2 76.0989474,29.68 C76.0589474,29.92 76.1389474,30.4 76.2589474,30.8 L84.4589474,30.8 C84.6989474,30.16 84.6589474,29.64 84.6589474,29.04 Z" id="Path"></path>
            <path d="M91.6652632,6.6 C93.0252632,6.6 94.1452632,5.48 94.1452632,4.16 C94.1452632,2.88 93.2652632,2.12 91.9852632,2.12 C90.6652632,2.12 89.4252632,3.16 89.4252632,4.52 C89.4252632,5.84 90.3052632,6.6 91.6652632,6.6 Z M87.8252632,30.8 L96.0252632,30.8 C96.3052632,30.16 96.2652632,29.64 96.2652632,29.04 L93.3852632,28.8 L93.3852632,10.4 L92.5452632,10.28 C90.7852632,10.36 89.5052632,10.48 87.7052632,10.96 C87.6252632,11.24 87.6252632,11.48 87.6252632,11.72 C87.6252632,11.96 87.6252632,12.16 87.6652632,12.44 L90.6252632,12.76 L90.6252632,28.72 C89.0652632,28.72 88.0652632,29.2 87.7052632,29.68 C87.6652632,29.92 87.7452632,30.4 87.8252632,30.8 Z" id="Shape"></path>
            <path d="M121.711579,29.04 L118.831579,28.8 L118.831579,17.68 C118.831579,12.6 116.471579,10.08 112.631579,10.08 C109.751579,10.08 107.271579,11.68 105.831579,13.48 L105.831579,10.52 L104.991579,10.28 C103.231579,10.36 101.951579,10.48 100.151579,10.96 C100.071579,11.24 100.071579,11.48 100.071579,11.72 C100.071579,11.96 100.071579,12.16 100.111579,12.44 L103.071579,12.76 L103.071579,28.72 C101.511579,28.72 100.511579,29.2 100.151579,29.68 C100.111579,29.92 100.191579,30.4 100.271579,30.8 L108.471579,30.8 C108.751579,30.16 108.711579,29.64 108.711579,29.04 L105.831579,28.8 L105.831579,15.64 C107.191579,13.88 109.711579,12.36 111.871579,12.36 C114.671579,12.36 116.071579,14.2 116.071579,17.92 L116.071579,28.72 C114.511579,28.72 113.511579,29.2 113.151579,29.68 C113.111579,29.92 113.191579,30.4 113.271579,30.8 L121.471579,30.8 C121.751579,30.16 121.711579,29.64 121.711579,29.04 Z" id="Path"></path>
            <path d="M141.277895,18.2 C141.277895,13.36 138.517895,10.08 134.117895,10.08 C129.037895,10.08 124.517895,14.4 124.517895,21.08 C124.517895,27.04 127.957895,31.24 133.397895,31.24 C136.317895,31.24 138.877895,30.2 140.437895,28.64 C140.357895,28.16 140.037895,27.68 139.717895,27.28 C138.077895,28.32 136.157895,29.04 134.037895,29.04 C130.037895,29.04 127.757895,26.24 127.437895,21.48 L140.797895,21.48 C141.077895,20.6 141.277895,19.36 141.277895,18.2 Z M138.317895,19.8 L127.397895,19.8 C127.517895,14.72 129.797895,12.12 133.357895,12.12 C136.637895,12.12 138.437895,14.52 138.437895,18.04 C138.437895,18.52 138.397895,19.28 138.317895,19.8 Z" id="Shape"></path>
            <path d="M174.010526,28.36 L171.370526,28.76 C171.130526,28.32 171.050526,27.76 171.050526,26.88 L171.050526,16.6 C171.050526,12.6 169.010526,10.08 164.690526,10.08 C161.410526,10.08 158.810526,11.36 157.410526,13 C157.370526,14.04 157.450526,15.24 157.530526,16 C157.930526,16.44 158.530526,16.68 159.210526,16.68 C159.370526,16.68 159.530526,16.68 159.690526,16.64 L160.370526,12.52 C161.610526,12.16 162.730526,11.96 164.010526,11.96 C167.930526,11.96 168.290526,14.52 168.290526,16.64 L168.290526,19.08 L164.730526,19.4 C159.330526,19.84 156.370526,22.2 156.370526,25.92 C156.370526,29.12 158.530526,31.24 162.050526,31.24 C164.930526,31.24 167.130526,29.72 168.290526,28.08 C168.370526,29.88 169.410526,31.04 171.130526,31.04 C172.370526,31.04 173.530526,30.56 174.370526,29.64 C174.370526,29.08 174.250526,28.72 174.010526,28.36 Z M162.770526,29.08 C160.490526,29.08 159.210526,27.6 159.210526,25.56 C159.210526,23 161.210526,21.44 164.730526,21.08 L168.290526,20.68 L168.290526,25.88 C166.930526,27.72 164.810526,29.08 162.770526,29.08 Z" id="Shape"></path>
            <path d="M198.776842,29.04 L195.896842,28.8 L195.896842,17.68 C195.896842,12.6 193.536842,10.08 189.696842,10.08 C186.816842,10.08 184.336842,11.68 182.896842,13.48 L182.896842,10.52 L182.056842,10.28 C180.296842,10.36 179.016842,10.48 177.216842,10.96 C177.136842,11.24 177.136842,11.48 177.136842,11.72 C177.136842,11.96 177.136842,12.16 177.176842,12.44 L180.136842,12.76 L180.136842,28.72 C178.576842,28.72 177.576842,29.2 177.216842,29.68 C177.176842,29.92 177.256842,30.4 177.336842,30.8 L185.536842,30.8 C185.816842,30.16 185.776842,29.64 185.776842,29.04 L182.896842,28.8 L182.896842,15.64 C184.256842,13.88 186.776842,12.36 188.936842,12.36 C191.736842,12.36 193.136842,14.2 193.136842,17.92 L193.136842,28.72 C191.576842,28.72 190.576842,29.2 190.216842,29.68 C190.176842,29.92 190.256842,30.4 190.336842,30.8 L198.536842,30.8 C198.816842,30.16 198.776842,29.64 198.776842,29.04 Z" id="Path"></path>
            <path d="M221.663158,28.36 L219.023158,28.76 C218.743158,28.32 218.703158,27.76 218.703158,26.88 L218.703158,0.24 L217.863158,0 C216.103158,0.04 214.823158,0.16 213.023158,0.68 C212.943158,1 212.903158,1.28 212.903158,1.6 C212.903158,1.76 212.903158,1.96 212.943158,2.16 L215.943158,2.44 L215.943158,11.4 C214.823158,10.56 213.343158,10.08 211.463158,10.08 C206.183158,10.08 201.583158,14.4 201.583158,21.12 C201.583158,27.04 204.983158,31.24 209.743158,31.24 C212.343158,31.24 214.583158,30.08 215.943158,28.2 C216.103158,29.96 217.103158,31.04 218.743158,31.04 C219.983158,31.04 221.183158,30.56 222.023158,29.64 C221.983158,29.08 221.903158,28.72 221.663158,28.36 Z M210.383158,29 C206.943158,29 204.463158,25.76 204.463158,20.16 C204.463158,14.8 206.903158,12.12 210.863158,12.12 C212.983158,12.12 214.823158,13.08 215.943158,14.48 L215.943158,25.92 C214.503158,27.84 212.663158,29 210.383158,29 Z" id="Shape"></path>
            <path d="M245.075789,31.24 C250.195789,31.24 254.715789,26.92 254.715789,20.12 C254.715789,14.28 251.315789,10.08 246.275789,10.08 C241.155789,10.08 236.635789,14.4 236.635789,21.12 C236.635789,27.04 240.035789,31.24 245.075789,31.24 Z M245.915789,29.2 C241.995789,29.2 239.515789,25.72 239.515789,20.16 C239.515789,14.84 241.835789,12.12 245.435789,12.12 C249.355789,12.12 251.835789,15.64 251.835789,21.2 C251.835789,26.48 249.515789,29.2 245.915789,29.2 Z" id="Shape"></path>
            <path d="M265.002105,31.24 C269.042105,31.24 272.202105,29.08 272.202105,25.56 C272.202105,21.84 269.122105,20.36 266.282105,19 C264.002105,17.88 261.882105,16.88 261.882105,14.8 C261.882105,13.08 263.242105,12.04 265.522105,12.04 C267.482105,12.04 269.202105,13.04 270.322105,14.56 C271.162105,13.92 271.682105,12.64 271.562105,11.64 C270.162105,10.72 268.162105,10.08 266.362105,10.08 C262.482105,10.08 259.362105,12.16 259.362105,15.36 C259.362105,18.8 262.282105,20.24 265.002105,21.6 C267.402105,22.76 269.642105,23.84 269.642105,26.16 C269.642105,28.16 268.042105,29.24 265.602105,29.24 C263.042105,29.24 261.202105,28.08 259.842105,26.6 C259.002105,27.24 258.442105,28.52 258.562105,29.44 C259.922105,30.36 262.322105,31.24 265.002105,31.24 Z" id="Path"></path>
            <path d="M309.728421,29.04 L306.888421,28.8 L306.888421,17.68 C306.888421,12.6 304.528421,10.08 300.968421,10.08 C297.768421,10.08 295.208421,11.96 293.888421,13.96 C292.968421,11.36 291.048421,10.08 288.488421,10.08 C285.648421,10.08 283.328421,11.64 281.968421,13.4 L281.968421,10.52 L281.128421,10.28 C279.368421,10.36 278.088421,10.48 276.288421,10.96 C276.208421,11.24 276.208421,11.48 276.208421,11.72 C276.208421,11.96 276.208421,12.16 276.248421,12.44 L279.208421,12.76 L279.208421,28.72 C277.648421,28.72 276.648421,29.2 276.288421,29.68 C276.248421,29.92 276.328421,30.4 276.408421,30.8 L284.608421,30.8 C284.888421,30.16 284.848421,29.64 284.848421,29.04 L281.968421,28.8 L281.968421,15.56 C283.288421,13.8 285.608421,12.36 287.768421,12.36 C290.248421,12.36 291.648421,14.2 291.648421,17.92 L291.648421,28.72 C290.088421,28.72 289.088421,29.2 288.728421,29.68 C288.688421,29.92 288.768421,30.4 288.848421,30.8 L297.088421,30.8 C297.328421,30.16 297.288421,29.64 297.288421,29.04 L294.408421,28.8 L294.408421,17.68 C294.408421,17.04 294.368421,16.4 294.288421,15.84 C295.608421,13.96 297.968421,12.36 300.208421,12.36 C302.688421,12.36 304.128421,14.2 304.128421,17.92 L304.128421,28.72 C302.528421,28.72 301.528421,29.2 301.168421,29.68 C301.128421,29.92 301.208421,30.4 301.328421,30.8 L309.528421,30.8 C309.768421,30.16 309.728421,29.64 309.728421,29.04 Z" id="Path"></path>
            <path d="M330.414737,28.36 L327.774737,28.76 C327.534737,28.32 327.454737,27.76 327.454737,26.88 L327.454737,16.6 C327.454737,12.6 325.414737,10.08 321.094737,10.08 C317.814737,10.08 315.214737,11.36 313.814737,13 C313.774737,14.04 313.854737,15.24 313.934737,16 C314.334737,16.44 314.934737,16.68 315.614737,16.68 C315.774737,16.68 315.934737,16.68 316.094737,16.64 L316.774737,12.52 C318.014737,12.16 319.134737,11.96 320.414737,11.96 C324.334737,11.96 324.694737,14.52 324.694737,16.64 L324.694737,19.08 L321.134737,19.4 C315.734737,19.84 312.774737,22.2 312.774737,25.92 C312.774737,29.12 314.934737,31.24 318.454737,31.24 C321.334737,31.24 323.534737,29.72 324.694737,28.08 C324.774737,29.88 325.814737,31.04 327.534737,31.04 C328.774737,31.04 329.934737,30.56 330.774737,29.64 C330.774737,29.08 330.654737,28.72 330.414737,28.36 Z M319.174737,29.08 C316.894737,29.08 315.614737,27.6 315.614737,25.56 C315.614737,23 317.614737,21.44 321.134737,21.08 L324.694737,20.68 L324.694737,25.88 C323.334737,27.72 321.214737,29.08 319.174737,29.08 Z" id="Shape"></path>
            <path d="M355.181053,29.04 L352.301053,28.8 L352.301053,17.68 C352.301053,12.6 349.941053,10.08 346.101053,10.08 C343.221053,10.08 340.741053,11.68 339.301053,13.48 L339.301053,10.52 L338.461053,10.28 C336.701053,10.36 335.421053,10.48 333.621053,10.96 C333.541053,11.24 333.541053,11.48 333.541053,11.72 C333.541053,11.96 333.541053,12.16 333.581053,12.44 L336.541053,12.76 L336.541053,28.72 C334.981053,28.72 333.981053,29.2 333.621053,29.68 C333.581053,29.92 333.661053,30.4 333.741053,30.8 L341.941053,30.8 C342.221053,30.16 342.181053,29.64 342.181053,29.04 L339.301053,28.8 L339.301053,15.64 C340.661053,13.88 343.181053,12.36 345.341053,12.36 C348.141053,12.36 349.541053,14.2 349.541053,17.92 L349.541053,28.72 C347.981053,28.72 346.981053,29.2 346.621053,29.68 C346.581053,29.92 346.661053,30.4 346.741053,30.8 L354.941053,30.8 C355.221053,30.16 355.181053,29.64 355.181053,29.04 Z" id="Path"></path>
            <path d="M369.107368,27.64 C368.107368,28.32 367.067368,28.8 365.907368,28.8 C363.427368,28.8 363.187368,26.84 363.187368,24.84 L363.227368,12.6 L368.507368,12.6 C368.627368,11.92 368.667368,11.08 368.627368,10.44 L363.227368,10.72 L363.227368,5.24 C362.907368,5.2 362.627368,5.16 362.347368,5.16 C361.907368,5.16 361.547368,5.24 361.107368,5.36 L360.507368,10.48 L357.667368,10.76 C357.587368,11.24 357.547368,11.72 357.547368,12.16 C358.107368,12.6 359.187368,12.76 360.427368,12.8 L360.427368,25.32 C360.427368,29.56 362.427368,31.12 365.067368,31.12 C366.907368,31.12 368.747368,30.32 369.827368,28.92 C369.747368,28.44 369.507368,27.96 369.107368,27.64 Z" id="Path"></path>
            <path d="M394.273684,29.04 L391.393684,28.8 L391.393684,17.68 C391.393684,12.6 389.033684,10.08 385.193684,10.08 C382.313684,10.08 379.833684,11.64 378.393684,13.44 L378.393684,0.24 L377.553684,0 C375.793684,0.04 374.513684,0.16 372.753684,0.68 C372.673684,0.96 372.633684,1.2 372.633684,1.48 C372.633684,1.68 372.633684,1.92 372.673684,2.16 L375.633684,2.44 L375.633684,28.72 C374.073684,28.72 373.073684,29.2 372.713684,29.68 C372.673684,29.92 372.753684,30.4 372.833684,30.8 L381.073684,30.8 C381.313684,30.16 381.273684,29.64 381.273684,29.04 L378.393684,28.8 L378.393684,15.6 C379.753684,13.84 382.273684,12.36 384.433684,12.36 C387.233684,12.36 388.633684,14.2 388.633684,17.92 L388.633684,28.72 C387.073684,28.72 386.073684,29.2 385.713684,29.68 C385.673684,29.92 385.753684,30.4 385.833684,30.8 L394.073684,30.8 C394.313684,30.16 394.273684,29.64 394.273684,29.04 Z" id="Path"></path>
            <path d="M417.84,28.36 L415.2,28.76 C414.96,28.32 414.88,27.76 414.88,26.88 L414.88,10.52 L414.04,10.28 C412.28,10.36 411.04,10.48 409.24,10.96 C409.16,11.24 409.12,11.48 409.12,11.76 C409.12,11.96 409.12,12.2 409.16,12.44 L412.12,12.76 L412.12,26 C410.76,27.88 408.96,29.08 406.6,29.08 C403.6,29.08 402.16,27.12 402.16,23.6 L402.16,10.52 L401.32,10.28 C399.56,10.36 398.28,10.48 396.52,10.96 C396.44,11.24 396.4,11.48 396.4,11.76 C396.4,11.96 396.4,12.2 396.44,12.44 L399.4,12.76 L399.4,23.8 C399.4,28.72 401.68,31.24 405.92,31.24 C409.08,31.24 411,29.72 412.12,28.12 C412.24,29.92 413.28,31.04 414.88,31.04 C416.2,31.04 417.4,30.56 418.2,29.64 C418.2,29.08 418.08,28.72 417.84,28.36 Z" id="Path"></path>
            <path d="M427.726316,31.24 C431.766316,31.24 434.926316,29.08 434.926316,25.56 C434.926316,21.84 431.846316,20.36 429.006316,19 C426.726316,17.88 424.606316,16.88 424.606316,14.8 C424.606316,13.08 425.966316,12.04 428.246316,12.04 C430.206316,12.04 431.926316,13.04 433.046316,14.56 C433.886316,13.92 434.406316,12.64 434.286316,11.64 C432.886316,10.72 430.886316,10.08 429.086316,10.08 C425.206316,10.08 422.086316,12.16 422.086316,15.36 C422.086316,18.8 425.006316,20.24 427.726316,21.6 C430.126316,22.76 432.366316,23.84 432.366316,26.16 C432.366316,28.16 430.766316,29.24 428.326316,29.24 C425.766316,29.24 423.926316,28.08 422.566316,26.6 C421.726316,27.24 421.166316,28.52 421.286316,29.44 C422.646316,30.36 425.046316,31.24 427.726316,31.24 Z" id="Path"></path>
            <path d="M461.618947,10.08 C458.858947,10.08 456.618947,11.36 455.218947,13.24 L455.218947,0.24 L454.378947,0 C452.618947,0.04 451.338947,0.16 449.578947,0.68 C449.498947,0.96 449.458947,1.2 449.458947,1.48 C449.458947,1.68 449.458947,1.92 449.498947,2.16 L452.458947,2.44 L452.458947,27 L452.338947,29.04 C454.498947,30.64 457.538947,31.24 459.698947,31.24 C464.938947,31.24 469.618947,26.92 469.618947,20.12 C469.618947,14.24 466.218947,10.08 461.618947,10.08 Z M460.418947,29.2 C458.178947,29.2 456.138947,28.44 455.218947,27.28 L455.218947,15.44 C456.618947,13.56 458.498947,12.36 460.778947,12.36 C464.258947,12.36 466.738947,15.84 466.738947,21.2 C466.738947,26.52 464.298947,29.2 460.418947,29.2 Z" id="Shape"></path>
            <path d="M472.905263,30.8 L481.145263,30.8 C481.385263,30.16 481.345263,29.64 481.345263,29.04 L478.465263,28.8 L478.465263,0.24 L477.625263,0 C475.865263,0.04 474.585263,0.16 472.825263,0.68 C472.745263,0.96 472.705263,1.2 472.705263,1.48 C472.705263,1.68 472.705263,1.92 472.745263,2.16 L475.705263,2.44 L475.705263,28.72 C474.145263,28.72 473.145263,29.2 472.785263,29.68 C472.745263,29.92 472.825263,30.4 472.905263,30.8 Z" id="Path"></path>
            <path d="M492.871579,31.24 C497.991579,31.24 502.511579,26.92 502.511579,20.12 C502.511579,14.28 499.111579,10.08 494.071579,10.08 C488.951579,10.08 484.431579,14.4 484.431579,21.12 C484.431579,27.04 487.831579,31.24 492.871579,31.24 Z M493.711579,29.2 C489.791579,29.2 487.311579,25.72 487.311579,20.16 C487.311579,14.84 489.631579,12.12 493.231579,12.12 C497.151579,12.12 499.631579,15.64 499.631579,21.2 C499.631579,26.48 497.311579,29.2 493.711579,29.2 Z" id="Shape"></path>
            <path d="M512.797895,31.24 C516.837895,31.24 519.997895,29.08 519.997895,25.56 C519.997895,21.84 516.917895,20.36 514.077895,19 C511.797895,17.88 509.677895,16.88 509.677895,14.8 C509.677895,13.08 511.037895,12.04 513.317895,12.04 C515.277895,12.04 516.997895,13.04 518.117895,14.56 C518.957895,13.92 519.477895,12.64 519.357895,11.64 C517.957895,10.72 515.957895,10.08 514.157895,10.08 C510.277895,10.08 507.157895,12.16 507.157895,15.36 C507.157895,18.8 510.077895,20.24 512.797895,21.6 C515.197895,22.76 517.437895,23.84 517.437895,26.16 C517.437895,28.16 515.837895,29.24 513.397895,29.24 C510.837895,29.24 508.997895,28.08 507.637895,26.6 C506.797895,27.24 506.237895,28.52 506.357895,29.44 C507.717895,30.36 510.117895,31.24 512.797895,31.24 Z" id="Path"></path>
            <path d="M529.804211,31.24 C533.844211,31.24 537.004211,29.08 537.004211,25.56 C537.004211,21.84 533.924211,20.36 531.084211,19 C528.804211,17.88 526.684211,16.88 526.684211,14.8 C526.684211,13.08 528.044211,12.04 530.324211,12.04 C532.284211,12.04 534.004211,13.04 535.124211,14.56 C535.964211,13.92 536.484211,12.64 536.364211,11.64 C534.964211,10.72 532.964211,10.08 531.164211,10.08 C527.284211,10.08 524.164211,12.16 524.164211,15.36 C524.164211,18.8 527.084211,20.24 529.804211,21.6 C532.204211,22.76 534.444211,23.84 534.444211,26.16 C534.444211,28.16 532.844211,29.24 530.404211,29.24 C527.844211,29.24 526.004211,28.08 524.644211,26.6 C523.804211,27.24 523.244211,28.52 523.364211,29.44 C524.724211,30.36 527.124211,31.24 529.804211,31.24 Z" id="Path"></path>
            <path d="M549.290526,31.24 C554.410526,31.24 558.930526,26.92 558.930526,20.12 C558.930526,14.28 555.530526,10.08 550.490526,10.08 C545.370526,10.08 540.850526,14.4 540.850526,21.12 C540.850526,27.04 544.250526,31.24 549.290526,31.24 Z M550.130526,29.2 C546.210526,29.2 543.730526,25.72 543.730526,20.16 C543.730526,14.84 546.050526,12.12 549.650526,12.12 C553.570526,12.12 556.050526,15.64 556.050526,21.2 C556.050526,26.48 553.730526,29.2 550.130526,29.2 Z" id="Shape"></path>
            <path d="M596.176842,29.04 L593.336842,28.8 L593.336842,17.68 C593.336842,12.6 590.976842,10.08 587.416842,10.08 C584.216842,10.08 581.656842,11.96 580.336842,13.96 C579.416842,11.36 577.496842,10.08 574.936842,10.08 C572.096842,10.08 569.776842,11.64 568.416842,13.4 L568.416842,10.52 L567.576842,10.28 C565.816842,10.36 564.536842,10.48 562.736842,10.96 C562.656842,11.24 562.656842,11.48 562.656842,11.72 C562.656842,11.96 562.656842,12.16 562.696842,12.44 L565.656842,12.76 L565.656842,28.72 C564.096842,28.72 563.096842,29.2 562.736842,29.68 C562.696842,29.92 562.776842,30.4 562.856842,30.8 L571.056842,30.8 C571.336842,30.16 571.296842,29.64 571.296842,29.04 L568.416842,28.8 L568.416842,15.56 C569.736842,13.8 572.056842,12.36 574.216842,12.36 C576.696842,12.36 578.096842,14.2 578.096842,17.92 L578.096842,28.72 C576.536842,28.72 575.536842,29.2 575.176842,29.68 C575.136842,29.92 575.216842,30.4 575.296842,30.8 L583.536842,30.8 C583.776842,30.16 583.736842,29.64 583.736842,29.04 L580.856842,28.8 L580.856842,17.68 C580.856842,17.04 580.816842,16.4 580.736842,15.84 C582.056842,13.96 584.416842,12.36 586.656842,12.36 C589.136842,12.36 590.576842,14.2 590.576842,17.92 L590.576842,28.72 C588.976842,28.72 587.976842,29.2 587.616842,29.68 C587.576842,29.92 587.656842,30.4 587.776842,30.8 L595.976842,30.8 C596.216842,30.16 596.176842,29.64 596.176842,29.04 Z" id="Path"></path>
        </g>
        <g id="蜜香烏龍茶茶葉乃被小綠葉蟬叮咬" transform="translate(149.520000, 0.520000)" fill="#2F2E2C" fill-rule="nonzero">
            <path d="M4,6.6 L30.96,6.6 L30.96,11.6 L33.56,11.6 L33.56,5 L19.64,5 L20.68,3.16 C18.2,1.92 14.56,0.84 12.24,0.4 L11.84,1.52 C13.76,2.44 16.08,3.76 18.04,5 L1.4,5 L1.4,11.76 L4,11.76 L4,6.6 Z M18.32,11.92 L19.72,9.76 C17.8,8.6 15.2,7.48 13.32,6.92 L12.92,7.92 C14.4,8.88 16.56,10.4 18.32,11.92 Z M14.32,19.04 C17.24,19.16 20.76,19.16 23.72,19 C27.36,18.8 27.56,17.12 26.44,12.16 L25.24,12.16 C25.28,16.28 25.12,16.52 22.96,16.68 C20.96,16.84 18.68,16.88 16.48,16.8 C20.08,14.56 23.2,11.72 25.48,8.24 L23.44,7.12 C20.84,11.08 17.28,14.12 13.32,16.44 C12.76,16.2 12.56,15.76 12.56,14.92 L12.56,8.8 L10.12,8.8 L10.12,15.32 C10.12,16.44 10.32,17.24 10.76,17.8 C7.28,19.48 3.6,20.64 0,21.4 L0.32,22.6 C4.44,21.96 8.72,20.72 12.68,18.84 C13.12,18.96 13.68,19 14.32,19.04 Z M7.72,9.84 L6.56,9.56 C5.56,12.76 3.76,15.04 1.32,16.8 L3.32,18.76 C5.48,16.64 7.08,13.16 7.72,9.84 Z M26.92,9.56 L26.2,10.32 C28,12.6 29.92,15.36 31.28,17.8 L33.44,16.12 C31.56,13.64 29.28,11.4 26.92,9.56 Z M26.32,30.04 L25.72,31.08 C26.6,31.72 27.56,32.48 28.52,33.32 C25.76,33.56 22.44,33.76 18.88,33.88 L18.88,29.64 L29.68,29.64 L29.68,23.08 L18.88,23.08 L18.88,20.24 L16.2,20.24 L16.2,23.08 L5.56,23.08 L5.56,31.8 L8.08,31.8 L8.08,29.64 L16.2,29.64 L16.2,33.96 C11.16,34.08 5.8,34.04 1.08,33.84 L1.6,36.8 C10.44,36.72 22.96,35.68 29.8,34.44 C30.96,35.52 32.04,36.6 32.84,37.48 L34.8,35.24 C32.4,33.24 29.16,31.32 26.32,30.04 Z M8.08,28.04 L8.08,24.68 L16.2,24.68 L16.2,28.04 L8.08,28.04 Z M18.88,24.68 L27.16,24.68 L27.16,28.04 L18.88,28.04 L18.88,24.68 Z" id="Shape"></path>
            <path d="M60.5263158,10.92 L74.8863158,10.92 L74.8863158,9.32 L59.2863158,9.32 L59.2863158,4.88 C63.8463158,4.36 67.9663158,3.68 70.5663158,2.8 L68.0063158,0.56 C62.2863158,2.64 54.1263158,4 43.6863158,4.6 L43.8463158,5.84 C47.7663158,5.8 52.3263158,5.56 56.6463158,5.16 L56.6463158,9.32 L41.4063158,9.32 L41.4063158,10.92 L54.2863158,10.92 C51.7663158,14.64 46.3663158,19.08 39.9263158,21.52 L40.4063158,22.68 C48.0063158,20.2 54.2063158,15.68 56.6463158,11.56 L56.6463158,20.52 L59.2863158,20.52 L59.2863158,11.48 C63.5263158,17.32 70.3663158,21 74.7663158,22.16 L76.0863158,19.32 C70.7263158,18 64.9263158,15.32 60.5263158,10.92 Z M46.8063158,37.84 L49.4063158,37.84 L49.4063158,34.96 L66.6063158,34.96 L66.6063158,37.8 L69.2063158,37.8 L69.2063158,21.52 L46.8063158,21.52 L46.8063158,37.84 Z M49.4063158,23.12 L66.6063158,23.12 L66.6063158,27.44 L49.4063158,27.44 L49.4063158,23.12 Z M49.4063158,29.04 L66.6063158,29.04 L66.6063158,33.4 L49.4063158,33.4 L49.4063158,29.04 Z" id="Shape"></path>
            <path d="M116.212632,19.24 L116.212632,17.64 L88.8526316,17.64 L88.8526316,14.2 L110.612632,14.2 L110.612632,6 L94.8526316,6 C95.9726316,4.68 97.3726316,2.68 98.2126316,1.16 L95.0526316,0.28 C94.6926316,1.64 93.8926316,4.36 93.2526316,6 L86.1726316,6 L86.1726316,26.48 L88.8526316,26.48 L88.8526316,24.28 L112.092632,24.28 C112.012632,27.96 111.652632,31.96 111.332632,33.4 C110.852632,35.72 109.772632,35.8 103.572632,34.32 L103.212632,35.48 C108.892632,38.24 113.052632,38.88 113.892632,34.8 C114.332632,32.64 114.732632,28.12 114.972632,22.72 L88.8526316,22.72 L88.8526316,19.24 L116.212632,19.24 Z M107.892632,7.56 L107.892632,12.6 L88.8526316,12.6 L88.8526316,7.56 L107.892632,7.56 Z M108.372632,30.88 C107.092632,29.08 104.652632,26.4 103.172632,25.12 L102.252632,25.88 C103.332632,27.56 105.012632,30.52 106.052632,32.48 L108.372632,30.88 Z M96.0126316,26.72 C96.7326316,28.76 97.9326316,32.48 98.4526316,34.52 L101.172632,33.36 C100.332632,31.44 98.3726316,28 97.1326316,26.2 L96.0126316,26.72 Z M90.4126316,27.52 C90.6926316,29.92 91.0526316,34 91.0926316,36.28 L94.0126316,35.88 C93.5726316,33.48 92.4926316,29.6 91.6126316,27.28 L90.4126316,27.52 Z M80.6126316,35.96 L83.0926316,38 C84.6926316,36.28 86.8126316,31.28 87.2526316,27.8 L86.0926316,27.48 C85.1326316,30.6 82.9326316,34.04 80.6126316,35.96 Z" id="Shape"></path>
            <path d="M137.898947,5.36 L130.618947,5.36 L131.778947,4.32 C130.298947,2.68 128.658947,1.08 127.138947,0 L126.298947,0.84 C127.338947,2.04 128.618947,3.76 129.698947,5.36 L121.738947,5.36 L121.738947,6.88 L137.898947,6.88 L137.898947,5.36 Z M156.498947,28.96 L155.298947,28.96 C155.338947,34.08 155.178947,34.48 152.978947,34.64 C150.658947,34.8 147.698947,34.84 145.218947,34.6 C143.098947,34.44 142.978947,33.92 142.978947,32.08 L142.978947,29.76 L154.058947,29.76 L154.058947,28.24 L142.978947,28.24 L142.978947,25.16 L153.818947,25.16 L153.818947,23.64 L142.978947,23.64 L142.978947,20.76 L153.818947,20.76 L153.818947,19.28 L142.978947,19.28 L142.978947,16.52 L153.578947,16.52 L153.578947,9.56 L142.978947,9.56 L142.978947,5.68 L155.658947,5.68 L155.658947,4.12 L142.978947,4.12 L142.978947,0.8 L140.418947,0.8 L140.418947,11.08 L151.098947,11.08 L151.098947,15 L140.498947,15 L140.498947,32.56 C140.498947,35.64 141.218947,36.56 144.658947,36.76 C147.498947,36.96 150.698947,36.96 153.418947,36.8 C157.138947,36.6 157.498947,34.72 156.498947,28.96 Z M136.178947,7.8 L133.738947,6.96 C133.338947,8.84 132.698947,11.44 132.018947,13.4 L126.538947,13.4 L128.498947,12.6 C127.698947,11 126.178947,8.56 125.018947,7 L124.018947,7.6 C124.818947,9.24 125.738947,11.8 126.218947,13.4 L121.138947,13.4 L121.138947,14.96 L138.818947,14.96 L138.818947,13.4 L133.338947,13.4 C134.418947,11.72 135.578947,9.28 136.178947,7.8 Z M123.178947,37.72 L125.698947,37.72 L125.698947,28.76 L134.338947,28.76 L134.338947,33.88 C134.338947,35.88 133.698947,35.96 129.058947,35.36 L128.858947,36.44 C134.498947,38.72 136.858947,37.4 136.858947,34.44 L136.858947,17.44 L123.178947,17.44 L123.178947,37.72 Z M125.698947,18.96 L134.338947,18.96 L134.338947,22.36 L125.698947,22.36 L125.698947,18.96 Z M125.698947,23.84 L134.338947,23.84 L134.338947,27.28 L125.698947,27.28 L125.698947,23.84 Z" id="Shape"></path>
            <path d="M171.985263,10.48 L174.585263,10.48 L174.585263,6.48 L184.625263,6.48 L184.625263,10.48 L187.225263,10.48 L187.225263,6.48 L197.185263,6.48 L197.185263,4.92 L187.225263,4.92 L187.225263,0.76 L184.625263,0.76 L184.625263,4.92 L174.585263,4.92 L174.585263,0.76 L171.985263,0.76 L171.985263,4.92 L162.025263,4.92 L162.025263,6.48 L171.985263,6.48 L171.985263,10.48 Z M180.905263,10.6 C181.185263,10.2 181.465263,9.8 181.705263,9.36 L178.865263,8.04 C175.705263,13.88 170.425263,18.48 161.705263,21.56 L162.105263,22.72 C169.825263,20.68 176.185263,16.76 180.105263,11.68 C184.145263,16.84 190.545263,20.6 196.305263,22.28 L197.625263,19.16 C191.625263,17.92 185.185263,15 180.905263,10.6 Z M191.585263,21.8 L181.385263,21.8 L181.385263,16.24 L178.585263,16.24 L178.585263,21.8 L168.145263,21.8 L168.145263,23.36 L178.585263,23.36 L178.585263,33.8 C178.585263,35.64 178.065263,36 171.065263,35.04 L170.785263,36.2 C179.505263,39.16 181.385263,37.52 181.385263,34.24 L181.385263,23.36 L191.585263,23.36 L191.585263,21.8 Z M175.145263,26.48 L172.625263,25 C170.145263,29.2 166.345263,32.76 162.625263,35.2 L163.225263,36.28 C167.385263,34.36 172.305263,30.48 175.145263,26.48 Z M183.825263,26.28 C187.345263,29.16 191.545263,33 194.025263,35.88 L196.305263,33.4 C193.385263,30.84 188.465263,27.4 184.465263,25.2 L183.825263,26.28 Z" id="Shape"></path>
            <path d="M212.511579,10.48 L215.111579,10.48 L215.111579,6.48 L225.151579,6.48 L225.151579,10.48 L227.751579,10.48 L227.751579,6.48 L237.711579,6.48 L237.711579,4.92 L227.751579,4.92 L227.751579,0.76 L225.151579,0.76 L225.151579,4.92 L215.111579,4.92 L215.111579,0.76 L212.511579,0.76 L212.511579,4.92 L202.551579,4.92 L202.551579,6.48 L212.511579,6.48 L212.511579,10.48 Z M221.431579,10.6 C221.711579,10.2 221.991579,9.8 222.231579,9.36 L219.391579,8.04 C216.231579,13.88 210.951579,18.48 202.231579,21.56 L202.631579,22.72 C210.351579,20.68 216.711579,16.76 220.631579,11.68 C224.671579,16.84 231.071579,20.6 236.831579,22.28 L238.151579,19.16 C232.151579,17.92 225.711579,15 221.431579,10.6 Z M232.111579,21.8 L221.911579,21.8 L221.911579,16.24 L219.111579,16.24 L219.111579,21.8 L208.671579,21.8 L208.671579,23.36 L219.111579,23.36 L219.111579,33.8 C219.111579,35.64 218.591579,36 211.591579,35.04 L211.311579,36.2 C220.031579,39.16 221.911579,37.52 221.911579,34.24 L221.911579,23.36 L232.111579,23.36 L232.111579,21.8 Z M215.671579,26.48 L213.151579,25 C210.671579,29.2 206.871579,32.76 203.151579,35.2 L203.751579,36.28 C207.911579,34.36 212.831579,30.48 215.671579,26.48 Z M224.351579,26.28 C227.871579,29.16 232.071579,33 234.551579,35.88 L236.831579,33.4 C233.911579,30.84 228.991579,27.4 224.991579,25.2 L224.351579,26.28 Z" id="Shape"></path>
            <path d="M253.037895,7.92 L255.597895,7.92 L255.597895,5.2 L265.837895,5.2 L265.837895,7.92 L268.437895,7.92 L268.437895,5.2 L278.397895,5.2 L278.397895,3.64 L268.437895,3.64 L268.437895,0.6 L265.837895,0.6 L265.837895,3.64 L255.597895,3.64 L255.597895,0.6 L253.037895,0.6 L253.037895,3.64 L242.957895,3.64 L242.957895,5.2 L253.037895,5.2 L253.037895,7.92 Z M262.877895,27.2 L277.277895,27.2 L277.277895,25.6 L261.957895,25.6 L261.957895,22.2 L275.237895,22.2 L275.237895,20.68 L252.597895,20.68 L252.597895,13.68 L257.757895,13.68 L257.757895,18.6 L269.997895,18.6 L269.997895,13.68 L277.557895,13.68 L277.557895,12.2 L269.997895,12.2 L269.997895,8.72 L267.517895,8.72 L267.517895,12.2 L260.237895,12.2 L260.237895,8.6 L257.757895,8.6 L257.757895,12.2 L252.597895,12.2 L252.597895,8.56 L249.957895,8.56 L249.957895,12.2 L243.877895,12.2 L243.877895,13.68 L249.957895,13.68 L249.957895,23.8 L252.597895,23.8 L252.597895,22.2 L259.317895,22.2 L259.317895,25.6 L244.197895,25.6 L244.197895,27.2 L257.157895,27.2 C253.437895,31.32 247.757895,34.24 242.757895,36.16 L243.117895,37.32 C248.917895,35.64 255.997895,31.96 259.317895,28.28 L259.317895,38.08 L261.957895,38.08 L261.957895,28.28 C266.437895,32.96 273.357895,36 277.077895,37.08 L278.477895,34.16 C273.197895,32.96 267.997895,30.92 262.877895,27.2 Z M260.237895,13.68 L267.517895,13.68 L267.517895,17.2 L260.237895,17.2 L260.237895,13.68 Z" id="Shape"></path>
            <path d="M307.444211,14.96 C308.364211,11.36 309.364211,6.92 310.164211,2.88 L284.484211,2.88 L284.484211,4.6 L294.084211,4.6 C294.004211,21.52 292.004211,29.8 283.084211,37.2 L283.844211,38.28 C295.764211,30.6 297.164211,20.48 297.204211,4.6 L306.764211,4.6 C305.804211,9.72 304.364211,15.36 303.084211,19.8 L305.924211,20.4 C306.204211,19.44 306.604211,18.16 307.004211,16.64 L314.484211,16.64 C313.804211,23.32 312.884211,29.04 312.164211,31.56 C311.124211,35.16 309.484211,35.52 301.964211,32.84 L301.524211,34.04 C308.804211,38.32 313.324211,38.56 314.884211,32.92 C315.804211,29.56 316.844211,22.92 317.644211,14.96 L307.444211,14.96 Z" id="Path"></path>
            <path d="M333.650526,6.84 C332.370526,4.76 330.090526,1.92 328.410526,0.36 L327.410526,1.08 C328.730526,3.2 330.170526,5.96 331.250526,8.4 L333.650526,6.84 Z M351.170526,30.2 C353.850526,26.88 355.570526,22.84 356.730526,18.24 L354.170526,17.08 L353.290526,17.72 L350.290526,17.72 L350.290526,9.28 L355.490526,9.28 C355.010526,11.04 354.210526,12.8 353.330526,14.56 L354.330526,15.16 C355.890526,13.68 357.170526,11.84 359.010526,8.68 L356.210526,7.12 L355.410526,7.72 L350.290526,7.72 L350.290526,0.72 L347.610526,0.72 L347.610526,7.72 L342.410526,7.72 L339.770526,6.92 L339.770526,16.84 C339.770526,27.16 338.650526,32.44 334.730526,37.28 L335.690526,38.08 C340.730526,33.4 342.170526,26.92 342.370526,19.32 L343.770526,19.32 C344.570526,23.64 345.890526,27.32 348.170526,30.4 C345.890526,33.08 342.890526,35.28 339.050526,36.96 L339.570526,38.04 C343.730526,36.64 346.970526,34.6 349.490526,32.04 C351.610526,34.36 354.410526,36.28 358.050526,37.84 L359.770526,34.76 C356.170526,33.6 353.330526,32.08 351.170526,30.2 Z M336.650526,25.92 L338.650526,24 C337.570526,22.8 336.170526,21.44 334.690526,20.2 C336.090526,19.16 337.650526,17.72 338.970526,16.2 L336.810526,14.72 C336.010526,16.36 334.930526,18.04 333.810526,19.48 C333.370526,19.12 332.930526,18.8 332.490526,18.48 L332.490526,17.88 C334.170526,15.56 335.650526,12.84 336.970526,9.72 L334.410526,8.4 L333.610526,9.04 L324.290526,9.04 L324.290526,10.6 L333.610526,10.6 C331.970526,15.36 328.530526,20.88 323.170526,24.84 L323.850526,25.84 C326.050526,24.48 328.050526,22.88 329.890526,21 L329.890526,37.84 L332.490526,37.84 L332.490526,20.2 C333.930526,22 335.490526,24.24 336.650526,25.92 Z M342.410526,17.24 L342.410526,9.28 L347.610526,9.28 L347.610526,17.72 L342.410526,17.72 L342.410526,17.24 Z M344.970526,19.32 L353.450526,19.32 C352.690526,22.76 351.450526,25.88 349.530526,28.64 C347.210526,26.04 345.770526,22.92 344.970526,19.32 Z" id="Shape"></path>
            <path d="M372.056842,36.12 C381.856842,39.4 384.136842,37.68 384.136842,33.84 L384.136842,0.8 L381.256842,0.8 L381.256842,32.92 C381.256842,35.6 380.256842,35.84 372.336842,34.88 L372.056842,36.12 Z M397.216842,28.92 L400.576842,27.4 C398.496842,22.6 393.536842,14.4 389.776842,9.8 L388.656842,10.56 C391.656842,15.68 395.456842,24 397.216842,28.92 Z M365.296842,30.4 C369.896842,25.64 373.456842,18.36 375.576842,11.12 L372.256842,10.16 C370.736842,17.32 367.936842,24.48 364.256842,29.6 L365.296842,30.4 Z" id="Shape"></path>
            <path d="M405.183158,21.4 L405.903158,24.24 C408.263158,23.88 413.343158,22.68 416.903158,21.44 C417.303158,22.52 417.663158,23.56 417.983158,24.48 L420.343158,23.32 C419.303158,21.04 417.503158,18 415.983158,16.24 L415.023158,16.92 C415.463158,17.88 415.943158,19.04 416.423158,20.24 C414.463158,20.6 412.103158,20.92 409.863158,21.12 C413.263158,17.6 417.383158,11.68 419.383158,7.32 L416.823158,6.16 C416.103158,8 415.263158,9.88 414.303158,11.64 C412.663158,11.8 411.023158,11.92 409.343158,11.92 C411.143158,9.32 413.303158,5.2 414.703158,1.52 L411.943158,0.48 C410.823158,4.92 409.383158,8.88 407.863158,11.92 C407.263158,11.92 406.703158,11.92 406.103158,11.88 L406.663158,14.56 C408.503158,14.32 411.183158,13.8 413.463158,13.2 C411.623158,16.4 409.583158,19.28 407.903158,21.28 C406.943158,21.36 406.023158,21.4 405.183158,21.4 Z M432.903158,25.24 C434.983158,23.64 437.303158,21.48 438.703158,19.64 L436.343158,18.08 C435.183158,20.28 433.543158,22.68 431.823158,24.64 C431.423158,24.4 431.023158,24.2 430.663158,24.04 L430.663158,16.64 L439.943158,16.64 L439.943158,15.04 L433.583158,15.04 C434.583158,11.52 435.543158,7.44 436.223158,3.96 L433.743158,3.04 L433.103158,3.52 L425.863158,3.52 C426.063158,2.68 426.263158,1.88 426.423158,1.12 L423.943158,0.68 C423.063158,4.96 421.983158,9.32 420.743158,13.16 L423.023158,13.6 C423.223158,13 423.463158,12.36 423.663158,11.68 L431.903158,11.68 C431.623158,12.84 431.343158,14 431.063158,15.04 L418.263158,15.04 L418.263158,16.64 L428.063158,16.64 L428.063158,24.48 C425.183158,26.56 421.903158,28.4 418.863158,29.6 L420.183158,32.16 C422.983158,30.56 425.903158,28.32 428.063158,26.2 L428.063158,33.4 C428.063158,35.44 427.383158,35.88 421.263158,34.92 L420.983158,36.12 C427.943158,38.96 430.663158,37.44 430.663158,34.16 L430.663158,25.52 C433.423158,27.72 436.863158,30.96 439.143158,33.28 L441.103158,30.84 C439.103158,29.2 435.903158,26.96 432.903158,25.24 Z M424.143158,10.12 C424.623158,8.48 425.063158,6.76 425.503158,5.04 L433.303158,5.04 C433.063158,6.32 432.663158,8.2 432.263158,10.12 L424.143158,10.12 Z M426.303158,23.28 C424.783158,21.72 422.023158,19.68 420.423158,18.72 L419.703158,19.72 C421.063158,21 422.983158,23.16 424.463158,25.16 L426.303158,23.28 Z M414.223158,24.76 C414.943158,27 416.063158,31.04 416.583158,33.56 L419.143158,32.56 C418.383158,30.32 416.583158,26.44 415.263158,24.32 L414.223158,24.76 Z M411.103158,25.68 C411.343158,28.64 411.543158,33.04 411.463158,35.52 L414.223158,35.24 C413.943158,32.84 413.103158,28.28 412.263158,25.48 L411.103158,25.68 Z M404.743158,36.24 L407.503158,37.44 C408.463158,34.72 409.063158,30.24 409.063158,25.92 L407.863158,25.8 C407.263158,29.96 406.183158,33.72 404.743158,36.24 Z" id="Shape"></path>
            <path d="M455.669474,7.92 L458.229474,7.92 L458.229474,5.2 L468.469474,5.2 L468.469474,7.92 L471.069474,7.92 L471.069474,5.2 L481.029474,5.2 L481.029474,3.64 L471.069474,3.64 L471.069474,0.6 L468.469474,0.6 L468.469474,3.64 L458.229474,3.64 L458.229474,0.6 L455.669474,0.6 L455.669474,3.64 L445.589474,3.64 L445.589474,5.2 L455.669474,5.2 L455.669474,7.92 Z M465.509474,27.2 L479.909474,27.2 L479.909474,25.6 L464.589474,25.6 L464.589474,22.2 L477.869474,22.2 L477.869474,20.68 L455.229474,20.68 L455.229474,13.68 L460.389474,13.68 L460.389474,18.6 L472.629474,18.6 L472.629474,13.68 L480.189474,13.68 L480.189474,12.2 L472.629474,12.2 L472.629474,8.72 L470.149474,8.72 L470.149474,12.2 L462.869474,12.2 L462.869474,8.6 L460.389474,8.6 L460.389474,12.2 L455.229474,12.2 L455.229474,8.56 L452.589474,8.56 L452.589474,12.2 L446.509474,12.2 L446.509474,13.68 L452.589474,13.68 L452.589474,23.8 L455.229474,23.8 L455.229474,22.2 L461.949474,22.2 L461.949474,25.6 L446.829474,25.6 L446.829474,27.2 L459.789474,27.2 C456.069474,31.32 450.389474,34.24 445.389474,36.16 L445.749474,37.32 C451.549474,35.64 458.629474,31.96 461.949474,28.28 L461.949474,38.08 L464.589474,38.08 L464.589474,28.28 C469.069474,32.96 475.989474,36 479.709474,37.08 L481.109474,34.16 C475.829474,32.96 470.629474,30.92 465.509474,27.2 Z M462.869474,13.68 L470.149474,13.68 L470.149474,17.2 L462.869474,17.2 L462.869474,13.68 Z" id="Shape"></path>
            <path d="M496.635789,26.52 C496.995789,27.76 497.355789,29 497.675789,30.28 C496.635789,30.56 495.555789,30.8 494.515789,31.08 L494.515789,22.56 L496.955789,22.56 L496.955789,24.52 L499.275789,24.52 L499.275789,8.44 L494.635789,8.44 L494.635789,0.84 L492.075789,0.84 L492.075789,8.44 L487.235789,8.44 L487.235789,25.4 L489.595789,25.4 L489.595789,22.56 L492.035789,22.56 L492.035789,31.64 C489.955789,32.04 487.915789,32.4 485.795789,32.68 L486.715789,35.52 C490.235789,34.72 494.155789,33.44 497.995789,31.56 C498.315789,32.8 498.555789,34.08 498.755789,35.4 L501.355789,34.52 C500.435789,31.36 499.115789,28.48 497.755789,26.08 L496.635789,26.52 Z M509.235789,2.36 L500.915789,2.36 L500.915789,10.12 L509.235789,10.12 L509.235789,2.36 Z M520.035789,2.36 L511.475789,2.36 L511.475789,10.12 L520.035789,10.12 L520.035789,2.36 Z M517.635789,8.56 L513.875789,8.56 L513.875789,3.88 L517.635789,3.88 L517.635789,8.56 Z M506.875789,8.56 L503.315789,8.56 L503.315789,3.92 L506.875789,3.92 L506.875789,8.56 Z M489.595789,21 L489.595789,10 L492.195789,10 L492.195789,21 L489.595789,21 Z M494.435789,10 L496.955789,10 L496.955789,21 L494.435789,21 L494.435789,10 Z M511.675789,28.36 L511.675789,25.12 L519.275789,25.12 L519.275789,12.76 L501.675789,12.76 L501.675789,25.12 L509.075789,25.12 L509.075789,28.36 L499.795789,28.36 L499.795789,29.92 L509.075789,29.92 L509.075789,37.72 L511.675789,37.72 L511.675789,29.92 L521.635789,29.92 L521.635789,28.36 L511.675789,28.36 Z M509.075789,18.04 L504.235789,18.04 L504.235789,14.32 L509.075789,14.32 L509.075789,18.04 Z M511.675789,14.32 L516.715789,14.32 L516.715789,18.04 L511.675789,18.04 L511.675789,14.32 Z M509.075789,23.56 L504.235789,23.56 L504.235789,19.56 L509.075789,19.56 L509.075789,23.56 Z M511.675789,19.56 L516.715789,19.56 L516.715789,23.56 L511.675789,23.56 L511.675789,19.56 Z" id="Shape"></path>
            <path d="M562.282105,2.44 L541.522105,2.44 L541.522105,4 L551.522105,4 L551.522105,33 C551.562105,35.56 550.282105,35.8 543.642105,34.84 L543.402105,36 C550.122105,38.68 554.322105,38.2 554.322105,34.04 L554.322105,4 L562.282105,4 L562.282105,2.44 Z M528.362105,32.72 L531.002105,32.72 L531.002105,28.4 L537.362105,28.4 L537.362105,32.08 L540.002105,32.08 L540.002105,3.48 L528.362105,3.48 L528.362105,32.72 Z M531.002105,5.04 L537.362105,5.04 L537.362105,26.8 L531.002105,26.8 L531.002105,5.04 Z" id="Shape"></path>
            <path d="M601.848421,7.32 L591.568421,7.32 L593.168421,5.6 C591.528421,4 588.808421,1.92 586.288421,0.52 L585.528421,1.48 C587.368421,3.36 589.328421,5.52 590.768421,7.32 L580.088421,7.32 L580.088421,8.88 L601.848421,8.88 L601.848421,7.32 Z M576.568421,31.6 L579.128421,31.6 L579.128421,5.4 L568.888421,5.4 L568.888421,32.56 L571.448421,32.56 L571.448421,28.44 L576.568421,28.44 L576.568421,31.6 Z M571.448421,26.88 L571.448421,7 L576.568421,7 L576.568421,26.88 L571.448421,26.88 Z M588.328421,10.88 L585.728421,9.68 C584.168421,13.28 581.928421,16.76 579.168421,19.44 L579.928421,20.44 C582.888421,18.48 586.368421,14.64 588.328421,10.88 Z M593.248421,9.92 L592.528421,10.92 C595.288421,13.6 598.088421,16.68 600.168421,19.64 L602.368421,17.56 C600.008421,14.92 596.408421,11.96 593.248421,9.92 Z M592.128421,28.4 C594.488421,25.52 596.208421,22.24 597.448421,18.6 L594.728421,17.48 C593.728421,20.84 592.288421,23.92 590.328421,26.56 C588.168421,24.16 586.288421,21.2 584.848421,17.56 L583.848421,18.12 C585.048421,22 586.808421,25.4 588.968421,28.32 C585.688421,32.12 581.288421,35.04 575.608421,36.96 L576.048421,38.16 C582.248421,36.56 586.968421,33.84 590.528421,30.2 C593.648421,33.72 597.488421,36.32 601.808421,37.88 L603.328421,34.84 C599.328421,33.52 595.448421,31.48 592.128421,28.4 Z" id="Shape"></path>
        </g>
    </g>
</svg>