<?xml version="1.0" encoding="UTF-8"?>
<svg id="Layer_1" xmlns="http://www.w3.org/2000/svg" version="1.1" viewBox="0 0 288 216">
  <!-- Generator: Adobe Illustrator 29.5.1, SVG Export Plug-In . SVG Version: 2.1.0 Build 141)  -->
  <defs>
    <style>
      .st0 {
        fill: #231f20;
      }
    </style>
  </defs>
  <g>
    <path class="st0" d="M19.2,66.5h2l6.6,25c.5,1.8,1.4,3.6,2.2,5.1-2.2-.5-5-.7-8.1,0,0-1.4,0-2.8-.3-4.1v-.4h-5.1l-.8,4.5c-1.6-.4-3-.4-4.8,0l8.2-30.1ZM21,89.6l-2.2-10.7-1.9,10.7h4.1Z"/>
    <path class="st0" d="M30.4,92.8v-19.8c0-2.2,0-4.3-.2-6.4,2.8-.1,4.5-.5,6.2-1.2.3,1.9.4,3.8.4,6v20.3c0,.9.2,1.8.9,1.8s.5,0,.8-.3l-.3,2.8c-.8.8-1.9,1.1-2.8,1.1-3.3,0-4.9-2-4.9-4.2Z"/>
    <path class="st0" d="M43.6,65.8c2.1,0,3.2,1.9,3.2,3.1,0,1.8-2.2,3.1-3.9,3.1s-3.3-1.6-3.3-3.2,2.2-3.1,4-3.1ZM40,92.4v-14.9c0-1.4,0-2.8-.3-4.2,2.3.5,4.5.6,6.8,0-.2,1.1-.2,2.5-.2,4.2v14.9c0,1.7,0,3,.2,4.2-2.3-.6-4.6-.6-6.8,0,.3-1.4.3-2.8.3-4.2Z"/>
    <path class="st0" d="M49.4,92.4v-19.4c0-1.9,0-4.2-.3-6.4,2.9-.1,4.4-.5,6-1.2.3,1.9.4,4.1.4,6v14.6c-.2,2.2-.3,4.3-.3,6.4s0,2.8.2,4.2c-2.2-.6-4.1-.6-6.3,0,.3-1.4.3-2.8.3-4.2ZM57.7,92.9l-2.2-6.8,3-8.2c.4-1.2.8-3,.6-4.5,1.9.4,3.5.4,5.4,0l-4.7,8.7,4.1,10.6c.4,1.1,1.1,2.6,1.8,4-1.6-.6-5.4-.6-7.2,0-.2-1.5-.4-2.4-.8-3.7Z"/>
    <path class="st0" d="M74.3,85.3c-1.9.9-2.4,3-2.4,5.2s.5,2.9,1.1,2.9,1-.5,1.3-1.3c-.4,3.2-2.6,5-4.9,5s-3.9-2.2-3.9-5c0-4.8,4.1-8,8.8-6.8ZM74.3,92.1v-6.8c0-1.6,0-3.3,0-4.6,0-3-.6-4.9-2-4.9s-1.2.8-1.2,2.7.2,2.3.6,3.5c-1.6,0-3.1.4-4.6,1.1-.4-.7-.7-1.8-.7-3.2,0-4.1,4.7-6.8,7.8-6.8,4.5,0,6.3,4.2,6.3,7.8v10.9c0,1.5.3,3.1,1.1,4.7-1.8-.1-4.1.2-6,.8-1-1.3-1.5-3.3-1.5-5Z"/>
    <path class="st0" d="M82.5,92.3c1.9-.2,3.9-.9,5.3-2.1l.4.3c1.9,4.8,1.1,7.4-4.5,12.7l-1.3-1.1c2.8-4.1,2.8-4.4.1-9.8Z"/>
    <path class="st0" d="M97.3,92.5v-17.1h-1.4v-.7c2.6-1.7,4.9-3.8,7.1-6.4l.7.5v4.6h3.3l-.3,2h-3v15.5c0,1.4.3,2.7,1.5,2.7s1-.1,1.7-.6l-.3,3c-.8.8-2.4,1.2-3.3,1.2-4.4,0-5.9-2.5-5.9-4.5Z"/>
    <path class="st0" d="M108.4,92.4v-19.4c0-1.9,0-4.2-.3-6.4,2.8-.1,4.6-.5,6.3-1.2.3,1.9.4,3.9.4,6v20.9c0,1.4,0,2.8.2,4.2-2.3-.6-4.5-.6-6.8,0,.3-1.4.3-2.8.3-4.2ZM119.6,72.9c3.6,0,4,4.8,4,6.5v13.1c0,1.4,0,2.8.3,4.2-1.9-.6-4.6-.6-6.9,0,.3-1.4.2-2.8.2-4.2v-12.2c0-1.3-.1-2.4-1.2-2.4s-.8.2-1.3.9c.5-4.1,2.7-5.8,4.9-5.8Z"/>
    <path class="st0" d="M125.6,84.8c0-8.7,5.1-11.9,8.7-11.9s6.4,3.2,6.1,8.4c0,.8-.5,1.3-1.1,1.3h-7.1c.2,6.2,1.5,11.1,5.6,11.1s2.2-.4,2.7-.9c-.6,2.7-2.3,4.3-5.9,4.3-5.5,0-9-4.9-9-12.2ZM134.2,80.5c.4-4.8-.4-5.9-1.1-5.9s-1,.5-1,5.9h2.1Z"/>
    <path class="st0" d="M148.2,92.4v-21.4c0-1.1,0-2.4-.3-3.5,1.2-.8,4.6-1.1,6.8-1.1,6.3,0,9.5,3.5,9.5,10.3s-3.8,10.9-9.5,10.9v4.8c0,1.7,0,3,.2,4.2-2.3-.6-4.6-.6-6.9,0,.3-1.4.3-2.8.3-4.2ZM157.4,76.9c0-5.5-.3-8.7-2.8-8.7v17.7c1.8,0,2.8-4.1,2.8-8.9Z"/>
    <path class="st0" d="M166.1,92.4v-12c0-1.7,0-3.5-.6-5.2,2.7-.3,4.4-1.1,5.9-2.4.8,1.9,1.1,3.8,1.1,5.7v13.9c0,1.4,0,2.8.2,4.2-2.3-.6-4.5-.6-6.8,0,.3-1.4.3-2.8.3-4.2ZM177.4,72.9l-.4,6.5c-1.2-.2-2.9,0-4.5.9.5-5.2,2.7-7.4,4.9-7.4Z"/>
    <path class="st0" d="M177.7,85.5c0-9.6,5.1-12.6,9-12.6s7.2,4.1,7.2,11.5-5.1,12.7-8.9,12.7-7.3-4.2-7.3-11.5ZM186.1,94.8c.6,0,1.1-.2,1.1-8.2s-1.1-12-1.7-12-1.1.4-1.1,8.4,1.2,11.7,1.7,11.7Z"/>
    <path class="st0" d="M196.4,92.5v-17.1h-1.4v-.7c2.6-1.7,4.9-3.8,7.1-6.4l.7.5v4.6h3.3l-.3,2h-3v15.5c0,1.4.3,2.7,1.5,2.7s1-.1,1.7-.6l-.3,3c-.8.8-2.4,1.2-3.3,1.2-4.4,0-5.9-2.5-5.9-4.5Z"/>
    <path class="st0" d="M206,84.8c0-8.7,5.1-11.9,8.7-11.9s6.4,3.2,6.1,8.4c0,.8-.5,1.3-1.1,1.3h-7.1c.2,6.2,1.5,11.1,5.6,11.1s2.2-.4,2.7-.9c-.6,2.7-2.3,4.3-5.9,4.3-5.5,0-9-4.9-9-12.2ZM214.7,80.5c.4-4.8-.4-5.9-1.1-5.9s-1,.5-1,5.9h2.1Z"/>
    <path class="st0" d="M222.2,85c0-8.9,4.7-12.1,8.4-12.1s4.4,1.8,5.1,4.9l-3.8,2.7c-.5-4.6-1.1-5.8-1.8-5.8s-1.4.4-1.4,7,.8,12,4.4,12,1.7-.4,2-.9c-.5,2.8-2.3,4.3-5.2,4.3-4.8,0-7.7-4.8-7.7-12.1Z"/>
    <path class="st0" d="M237.6,92.5v-17.1h-1.4v-.7c2.6-1.7,4.9-3.8,7.1-6.4l.7.5v4.6h3.3l-.3,2h-3v15.5c0,1.4.3,2.7,1.5,2.7s1-.1,1.7-.6l-.3,3c-.8.8-2.4,1.2-3.3,1.2-4.4,0-5.9-2.5-5.9-4.5Z"/>
    <path class="st0" d="M247.3,85.5c0-9.6,5.1-12.6,9-12.6s7.2,4.1,7.2,11.5-5.1,12.7-8.9,12.7-7.3-4.2-7.3-11.5ZM255.7,94.8c.6,0,1.1-.2,1.1-8.2s-1.1-12-1.7-12-1.1.4-1.1,8.4,1.2,11.7,1.7,11.7Z"/>
    <path class="st0" d="M265.7,92.4v-12c0-1.7,0-3.5-.6-5.2,2.7-.3,4.4-1.1,5.9-2.4.8,1.9,1.1,3.8,1.1,5.7v13.9c0,1.4,0,2.8.2,4.2-2.3-.6-4.5-.6-6.8,0,.3-1.4.3-2.8.3-4.2ZM277,72.9l-.4,6.5c-1.2-.2-2.9,0-4.5.9.5-5.2,2.7-7.4,4.9-7.4Z"/>
  </g>
  <g>
    <path class="st0" d="M13,137.8v-22.4c0-1.5,0-2.9-.3-4.4h10.3l-.4,2.9c-1.6-.4-3-.6-4.3-.6v11.6h3.8l-.4,2.6c-1.2-.2-2.3-.3-3.4-.4v12.7c1.5,0,3-.1,4.8-.6l.4,2.9h-10.8c.3-1.5.3-2.9.3-4.4Z"/>
    <path class="st0" d="M22.8,117.9c2,.4,4.6.5,7,0,.1,1.2.2,2.5.5,3.9l2,10.3,2.2-14.2c1.4.3,2.3.4,3.5,0l-7.2,24.7h-.6l-5.5-19.9c-.4-1.2-1.1-2.9-2-4.7Z"/>
    <path class="st0" d="M38,129.7c0-9.2,4.5-12.3,7.7-12.3s5.8,3.2,5.5,8.8c0,.8-.5,1.2-1,1.2h-6.7c0,7.3,1.5,12.1,5.2,12.1s2-.3,2.6-.8c-.6,2.7-2.3,4-5.2,4-4.9,0-8-5-8-12.9ZM45.9,125.4c.4-5.2-.6-6.2-1.2-6.2s-1.1.4-1.2,6.2h2.5Z"/>
    <path class="st0" d="M53.6,137.8v-12.5c0-1.9,0-3.9-.6-5.8,2.2-.3,3.7-1,4.9-2.1.7,1.6.9,3.4.9,4.9v15.6c0,1.5,0,2.9.2,4.4-1.9-.5-3.8-.5-5.7,0,.2-1.5.2-2.9.2-4.4ZM63.5,117.4l-.4,5.6c-1.1-.1-2.7,0-4.2,1,.6-4.7,2.5-6.5,4.6-6.5Z"/>
    <path class="st0" d="M70.3,140.8l-4.9-18.5c-.4-1.3-.9-2.6-1.9-4.4,2.3.4,4.7.5,7,0,0,1.4.2,2.4.4,3.7l2.1,10.8,2.4-14.5c1.2.3,2.2.3,3.5,0-2.4,8.2-5,16.2-7.2,24.3-.8,2.9-1.4,5-1.8,8.2-1.4-.3-3.5-.3-5,0l5.5-9.7Z"/>
    <path class="st0" d="M85.2,141.5l.4-4.9c1.1,2.4,2.6,3.9,4,3.9s1.4-1.1,1.4-2.7c0-2.7-1.2-4.3-2.6-6.2-1.5-2-2.9-4.2-2.9-7.1s2.9-7.1,7.1-7.1,1.8.1,2.7.7l-.3,4.9c-.8-1.7-2.5-3.4-3.7-3.4s-.9.8-.9,2.2c0,2.5,1.1,4.2,2.1,5.6,1.3,1.7,3.4,3.9,3.4,7.2s-3.4,8-7.6,8-2.4-.4-3.2-1.1Z"/>
    <path class="st0" d="M105.1,130.3c-2.3,1-2.7,3.7-2.7,5.9s.5,3.1,1.1,3.1,1.1-.7,1.5-1.6c-.4,3.3-2.4,5-4.4,5s-3.6-2.3-3.6-5.3c0-4.9,3.8-8.4,8-7.2ZM105.1,137.7v-13.1c0-2.4-.5-4.6-2-4.6s-1.3.8-1.3,2.8.2,2.4.6,3.6c-1.4,0-2.7.4-4,1-.4-.7-.6-1.8-.6-3.2,0-3.9,4.2-6.8,7.1-6.8,4.2,0,5.4,4.8,5.4,7.3v12.5c0,1.4.2,3,1,4.8-1.5-.1-3.5.1-5,.8-.9-1.4-1.3-3.4-1.3-5Z"/>
    <path class="st0" d="M116.3,110.5c1.9,0,2.8,1.8,2.8,2.8,0,1.6-1.9,2.8-3.4,2.8s-2.9-1.5-2.9-2.8,2-2.8,3.5-2.8ZM113.3,137.8v-15.6c0-1.5,0-2.9-.2-4.4,1.9.4,3.8.5,5.7,0-.2,1.3-.2,2.7-.2,4.4v15.6c0,1.7,0,3.1.2,4.4-1.9-.5-3.9-.4-5.7,0,.2-1.5.2-2.9.2-4.4Z"/>
    <path class="st0" d="M126.2,117.3c.7,1.6.9,3.4.9,4.9v15.6c0,1.5,0,2.9.2,4.4-1.9-.5-3.8-.5-5.7,0,.2-1.5.2-2.9.2-4.4v-12.5c0-1.9,0-3.9-.6-5.8,2.2-.3,3.7-1,5-2.1ZM129.8,137.8v-13.5c0-1.2,0-2.8-1.3-2.8s-.9.2-1.4,1c.5-3.7,2.4-5.1,4.4-5.1,3.5,0,3.7,5.1,3.7,6.4v14c0,1.5,0,2.9.2,4.4-1.5-.4-3.9-.5-5.7,0,.3-1.5.2-2.9.2-4.4Z"/>
    <path class="st0" d="M138.4,138.1v-18.3h-1.5v-.5c2.3-1.6,4.4-3.6,6.3-6.2l.5.3v4.5h3.3l-.3,1.9h-3v17c0,1.4.4,2.7,1.5,2.7s1-.1,1.6-.6l-.3,2.7c-.7.8-2,1.1-2.9,1.1-4.1,0-5.3-2.7-5.3-4.6Z"/>
    <path class="st0" d="M154.5,137.8v-20.3c0-2,0-4.6-.2-6.9,2.3-.2,3.8-.5,5.2-1,.3,1.6.4,3.4.4,5.4v22.8c0,1.5,0,2.9.2,4.4-1.9-.5-3.9-.5-5.7,0,.2-1.5.2-2.9.2-4.4ZM164.2,117.4c3.5,0,3.7,5.1,3.7,6.4v14c0,1.5,0,2.9.2,4.4-1.5-.5-3.9-.5-5.8,0,.3-1.5.2-2.9.2-4.4v-13.5c0-1.2,0-2.8-1.3-2.8s-.9.2-1.4,1c.6-3.7,2.5-5.1,4.4-5.1Z"/>
    <path class="st0" d="M177.9,130.3c-2.3,1-2.7,3.7-2.7,5.9s.5,3.1,1.1,3.1,1.1-.7,1.5-1.6c-.4,3.3-2.4,5-4.4,5s-3.6-2.3-3.6-5.3c0-4.9,3.8-8.4,8-7.2ZM177.9,137.7v-13.1c0-2.4-.5-4.6-2-4.6s-1.3.8-1.3,2.8.2,2.4.6,3.6c-1.4,0-2.7.4-4,1-.4-.7-.6-1.8-.6-3.2,0-3.9,4.2-6.8,7.1-6.8,4.2,0,5.4,4.8,5.4,7.3v12.5c0,1.4.2,3,1,4.8-1.5-.1-3.5.1-5,.8-.9-1.4-1.3-3.4-1.3-5Z"/>
    <path class="st0" d="M185,141.5l.4-4.9c1.1,2.4,2.6,3.9,4,3.9s1.4-1.1,1.4-2.7c0-2.7-1.2-4.3-2.6-6.2-1.5-2-2.9-4.2-2.9-7.1s2.9-7.1,7.1-7.1,1.8.1,2.7.7l-.3,4.9c-.8-1.7-2.5-3.4-3.7-3.4s-.9.8-.9,2.2c0,2.5,1.1,4.2,2.1,5.6,1.3,1.7,3.4,3.9,3.4,7.2s-3.4,8-7.6,8-2.4-.4-3.2-1.1Z"/>
    <path class="st0" d="M210.8,130.3c-2.3,1-2.7,3.7-2.7,5.9s.5,3.1,1.1,3.1,1.1-.7,1.5-1.6c-.4,3.3-2.4,5-4.4,5s-3.6-2.3-3.6-5.3c0-4.9,3.8-8.4,8-7.2ZM210.8,137.7v-13.1c0-2.4-.5-4.6-2-4.6s-1.3.8-1.3,2.8.2,2.4.6,3.6c-1.4,0-2.7.4-4,1-.4-.7-.6-1.8-.6-3.2,0-3.9,4.2-6.8,7.1-6.8,4.2,0,5.4,4.8,5.4,7.3v12.5c0,1.4.2,3,1,4.8-1.5-.1-3.5.1-5,.8-.9-1.4-1.3-3.4-1.3-5Z"/>
    <path class="st0" d="M230.1,142.6c0,2.3,0,4.6.3,6.8-2.3.1-3.8.5-5.2,1-.3-1.6-.4-3.4-.4-5.4v-22.2c0-1.4-.2-2.9-.9-4.7,1.6.1,3.6-.2,5.1-.8.8,1.4,1.1,3.5,1.1,5.1v17.5c.4.4.7.5.9.5.9,0,2.1-1,2.1-8.8s-.4-11-1.6-11-1,.4-1.4,1.6c.3-3.4,2.1-5,3.8-5,3.1,0,4.9,4.6,4.9,11.7,0,10.6-4.3,13.6-8,13.6s-.4,0-.6,0Z"/>
    <path class="st0" d="M247.7,130.3c-2.3,1-2.7,3.7-2.7,5.9s.5,3.1,1.1,3.1,1.1-.7,1.5-1.6c-.4,3.3-2.4,5-4.4,5s-3.6-2.3-3.6-5.3c0-4.9,3.8-8.4,8-7.2ZM247.7,137.7v-13.1c0-2.4-.5-4.6-2-4.6s-1.3.8-1.3,2.8.2,2.4.6,3.6c-1.4,0-2.7.4-4,1-.4-.7-.6-1.8-.6-3.2,0-3.9,4.2-6.8,7.1-6.8,4.2,0,5.4,4.8,5.4,7.3v12.5c0,1.4.2,3,1,4.8-1.5-.1-3.5.1-5,.8-.9-1.4-1.3-3.4-1.3-5Z"/>
    <path class="st0" d="M254.8,141.5l.4-4.9c1.1,2.4,2.6,3.9,4,3.9s1.4-1.1,1.4-2.7c0-2.7-1.2-4.3-2.6-6.2-1.5-2-2.9-4.2-2.9-7.1s2.9-7.1,7.1-7.1,1.8.1,2.7.7l-.3,4.9c-.8-1.7-2.5-3.4-3.7-3.4s-.9.8-.9,2.2c0,2.5,1.1,4.2,2.1,5.6,1.3,1.7,3.4,3.9,3.4,7.2s-3.4,8-7.6,8-2.4-.4-3.2-1.1Z"/>
    <path class="st0" d="M267.9,138.1v-18.3h-1.5v-.5c2.3-1.6,4.4-3.6,6.3-6.2l.5.3v4.5h3.3l-.3,1.9h-3v17c0,1.4.4,2.7,1.5,2.7s1-.1,1.6-.6l-.3,2.7c-.7.8-2,1.1-2.9,1.1-4.1,0-5.3-2.7-5.3-4.6Z"/>
  </g>
  <g>
    <path class="st0" d="M19.2,155.4h1.1l5.3,32.5c.2,1.1.7,2.3,1.2,3.3-1.4-.2-2.9-.3-4.3,0,.2-1,.1-1.7-.1-3l-.6-4h-4.9l-.9,7c-1.2-.2-1.7-.2-2.7,0l5.9-35.9ZM21.5,182.3l-2.2-15.9-2.1,15.9h4.4Z"/>
    <path class="st0" d="M30.5,162.8c.4,1.1.6,2.3.6,3v20.4c0,1.7,0,3.3.2,5-1.1-.2-2.4-.2-3.3,0,.1-1.7.1-3.3.1-5v-14.4c0-2.5,0-5.2-.4-7.5,1.2-.3,2.2-.7,2.9-1.5ZM34.7,186.2v-17.2c0-1.2,0-3.8-1.8-3.8s-1.3.3-1.8,1.1c.6-2.8,2.1-3.6,3.4-3.6,3.6,0,3.3,6,3.3,6.6v16.8c0,1.7,0,3.3.2,5-.9-.2-2.4-.2-3.4,0,.2-1.7.2-3.3.2-5Z"/>
    <path class="st0" d="M40.7,177.8c0-12.4,3.1-15.1,5.5-15.1s.9.2,1.4.5v-.4c0-2.9,0-5.8-.2-8.4,1-.2,2.1-.4,3-.6.3,1,.3,2.3.3,4.2v28.2c0,1.2,0,3,.7,5-.8-.2-2.1,0-3,.6-.6-1.8-.8-4.1-.8-5.6v-20c-.4-1.2-.8-1.5-1.1-1.5-.8,0-2.5.5-2.5,11.5s.6,12.8,1.9,12.8,1.3-.5,1.7-2.6c-.1,3.8-1.5,5.4-2.6,5.4-2.8,0-4.3-5.2-4.3-14Z"/>
    <path class="st0" d="M60.2,176.7c0-10.8,3.3-13.9,5.6-13.9s4.7,3.3,4.2,10.3c0,.7-.5,1-.8,1h-5.7v1.1c0,10.4,1.8,14,4.3,14s1.7-.2,2.4-.8c-.6,2.9-2.3,3.5-3.8,3.5-3.5,0-6.2-5.4-6.2-15.1ZM66.9,172.2c.4-6.3-1.1-7.5-1.7-7.5s-1.4.3-1.6,7.5h3.3Z"/>
    <path class="st0" d="M70.7,163.3c1.1.1,2.8.3,4.2,0,0,.8-.1,1.9.1,2.9l2.7,16.7,2.3-19.6c1.1.2,1.6.2,2.5,0l-5.7,28.5h-.2l-4.8-25.2c-.2-1-.6-2-1.2-3.3Z"/>
    <path class="st0" d="M83.3,176.7c0-10.8,3.3-13.9,5.6-13.9s4.7,3.3,4.2,10.3c0,.7-.5,1-.8,1h-5.7v1.1c0,10.4,1.8,14,4.3,14s1.7-.2,2.4-.8c-.6,2.9-2.3,3.5-3.8,3.5-3.5,0-6.2-5.4-6.2-15.1ZM90,172.2c.4-6.3-1.1-7.5-1.7-7.5s-1.4.3-1.6,7.5h3.3Z"/>
    <path class="st0" d="M96.1,186.2v-14.4c0-2.3,0-5.2-.4-7.5,1.2-.3,2.1-.7,2.8-1.5.3,1,.5,2.3.5,3v20.4c0,1.7,0,3.3.2,5-1.1-.2-2.3-.2-3.2,0,.1-1.7.1-3.3.1-5ZM103,162.8l-.4,3.6c-1,0-2.4.3-3.5,1.1.6-3.6,2.3-4.7,3.9-4.7Z"/>
    <path class="st0" d="M108.4,189.7l-4.4-23.1c-.2-1.1-.6-2.1-1.1-3.2,1.5.2,2.6.3,4.2,0-.1,1.4,0,1.8.2,2.9l2.6,16.7,2.3-19.7c1.1.2,1.6.2,2.5,0-1.9,9.5-3.9,19.2-5.7,28.4-.6,3.1-1,4.9-1.6,9-1.1-.1-2.3-.2-3.4,0l4.3-11.1Z"/>
    <path class="st0" d="M122.8,190.9v-5.1c.9,2.5,2.1,4.2,3.2,4.2s1.8-1.8,1.8-4.4c0-3.9-1.2-5.9-2.2-7.6-1.4-2.3-2.7-4.4-2.7-7.8s2.1-7.4,4.9-7.4,1.5.2,2.2.7v4.6c-.5-1.8-2-3.5-3-3.5s-1.3,1.1-1.3,3.3c0,3.8,1.3,5.4,2.4,7.3,1.2,1.9,2.5,4,2.5,7.7,0,5.5-3,8.9-5.6,8.9s-1.6-.4-2.3-.9Z"/>
    <path class="st0" d="M135.1,156.1c1.3,0,1.9,1.5,1.9,2.2,0,1.2-1.4,2.1-2.3,2.1s-2-1.3-2-2.1c0-1.2,1.4-2.1,2.4-2.1ZM133.3,186.2v-17.9c0-1.7,0-3.3-.1-5,1,.2,2.3.2,3.3,0-.1,1.7-.1,3.3-.1,5v17.9c0,1.7,0,3.3.1,5-1-.2-2.4-.2-3.3,0,.1-1.7.1-3.3.1-5Z"/>
    <path class="st0" d="M142.6,162.8c.4,1.1.6,2.3.6,3v20.4c0,1.7,0,3.3.2,5-1.1-.2-2.4-.2-3.3,0,.1-1.7.1-3.3.1-5v-14.4c0-2.5,0-5.2-.4-7.5,1.2-.3,2.2-.7,2.9-1.5ZM146.7,186.2v-17.2c0-1.2,0-3.8-1.8-3.8s-1.3.3-1.8,1.1c.6-2.8,2.1-3.6,3.4-3.6,3.6,0,3.3,6,3.3,6.6v16.8c0,1.7,0,3.3.2,5-.9-.2-2.4-.2-3.4,0,.2-1.7.2-3.3.2-5Z"/>
    <path class="st0" d="M155.9,162.8c.4,1.1.6,2.3.6,3v20.4c0,1.7,0,3.3.2,5-1.1-.2-2.4-.2-3.3,0,.1-1.7.1-3.3.1-5v-14.4c0-2.5,0-5.2-.4-7.5,1.2-.3,2.2-.7,2.9-1.5ZM160.1,186.2v-17.2c0-1.2,0-3.8-1.8-3.8s-1.3.3-1.8,1.1c.6-2.8,2.1-3.6,3.4-3.6,3.6,0,3.3,6,3.3,6.6v16.8c0,1.7,0,3.3.2,5-.9-.2-2.4-.2-3.4,0,.2-1.7.2-3.3.2-5Z"/>
    <path class="st0" d="M166.1,176.7c0-10.8,3.3-13.9,5.6-13.9s4.7,3.3,4.2,10.3c0,.7-.5,1-.8,1h-5.7v1.1c0,10.4,1.8,14,4.3,14s1.7-.2,2.4-.8c-.6,2.9-2.3,3.5-3.8,3.5-3.5,0-6.2-5.4-6.2-15.1ZM172.8,172.2c.4-6.3-1.1-7.5-1.7-7.5s-1.4.3-1.6,7.5h3.3Z"/>
    <path class="st0" d="M178.9,186.2v-14.4c0-2.3,0-5.2-.4-7.5,1.2-.3,2.1-.7,2.8-1.5.3,1,.5,2.3.5,3v20.4c0,1.7,0,3.3.2,5-1.1-.2-2.3-.2-3.2,0,.1-1.7.1-3.3.1-5ZM185.8,162.8l-.4,3.6c-1,0-2.4.3-3.5,1.1.6-3.6,2.3-4.7,3.9-4.7Z"/>
    <path class="st0" d="M200,177.4c-3.1,1.4-3.4,5.6-3.4,7.9s.5,3.7,1.3,3.7,1.6-1.2,2.1-2.6c-.3,3.5-2,5.4-3.6,5.4s-3-2.7-3-6c0-5.7,3.2-9.6,6.6-8.4ZM200,186.4v-17.4c0-1-.3-3.8-2-3.8s-1.6,1.1-1.6,3.2.2,2.6.6,4c-.9,0-1.7.3-2.6.7-.3-.7-.5-1.8-.5-3.5,0-3.7,3.4-6.9,5.7-6.9,3.8,0,3.6,6.3,3.6,6.6v16.8c0,1.2,0,3,.8,5-.9-.2-2.1,0-3,.6-.6-1.8-.8-3.8-.8-5.4Z"/>
    <path class="st0" d="M213,186.2v-21.2h-1.7l.3-1.7h1.4v-2.9c0-4.2,2-6.6,5-6.6s1,.1,1.5.4l-.5,2.6c-.4-.4-.9-.8-1.6-.8-1.4,0-1.4,3.2-1.4,4v3.3h2.8l-.3,1.7h-2.6v21.2c0,1.3,0,2.3.2,5-1.1-.2-2.4-.2-3.3,0,.1-2.6.1-3.3.1-5Z"/>
    <path class="st0" d="M220.2,185.2v-16.8c0-1.7,0-3.3-.2-5,.9.2,2.4.2,3.4,0-.2,1.7-.2,3.3-.2,5v17.2c0,1.2,0,3.7,1.8,3.7s1.3-.2,1.8-1.1c-.6,2.8-2,3.7-3.4,3.7-3.6,0-3.3-6-3.3-6.6ZM230.1,163.3c-.1,1.7-.1,3.3-.1,5v14.4c0,2.8,0,5.9.4,8.5-1.1-.6-2.2-.6-3.3,0,0-.9-.2-1.7-.2-2.5v-20.4c0-1.7,0-3.3-.2-5,1.1.2,2.2.2,3.3,0Z"/>
    <path class="st0" d="M234,186.8v-21.8h-1.8v-.2c1.7-1.3,3.3-3.2,4.6-5.9h.2v4.5h3.5l-.3,1.7h-3.2v21.5c0,1.4.5,2.9,1.7,2.9s1.2-.3,1.7-.8l-.2,2.2c-.4.8-1.3,1-2.1,1-3.5,0-4.1-3.2-4.1-5Z"/>
    <path class="st0" d="M242.7,185.2v-16.8c0-1.7,0-3.3-.2-5,.9.2,2.4.2,3.4,0-.2,1.7-.2,3.3-.2,5v17.2c0,1.2,0,3.7,1.8,3.7s1.3-.2,1.8-1.1c-.6,2.8-2,3.7-3.4,3.7-3.6,0-3.3-6-3.3-6.6ZM252.6,163.3c-.1,1.7-.1,3.3-.1,5v14.4c0,2.8,0,5.9.4,8.5-1.1-.6-2.2-.6-3.3,0,0-.9-.2-1.7-.2-2.5v-20.4c0-1.7,0-3.3-.2-5,1.1.2,2.2.2,3.3,0Z"/>
    <path class="st0" d="M256.2,186.2v-14.4c0-2.3,0-5.2-.4-7.5,1.2-.3,2.1-.7,2.8-1.5.3,1,.5,2.3.5,3v20.4c0,1.7,0,3.3.2,5-1.1-.2-2.3-.2-3.2,0,.1-1.7.1-3.3.1-5ZM263.1,162.8l-.4,3.6c-1,0-2.4.3-3.5,1.1.6-3.6,2.3-4.7,3.9-4.7Z"/>
    <path class="st0" d="M263.8,176.7c0-10.8,3.3-13.9,5.6-13.9s4.7,3.3,4.2,10.3c0,.7-.5,1-.8,1h-5.7v1.1c0,10.4,1.8,14,4.3,14s1.7-.2,2.4-.8c-.6,2.9-2.3,3.5-3.8,3.5-3.5,0-6.2-5.4-6.2-15.1ZM270.5,172.2c.4-6.3-1.1-7.5-1.7-7.5s-1.4.3-1.6,7.5h3.3Z"/>
  </g>
  <g>
    <path class="st0" d="M10.1,18.9c3.2.6,7,.9,10.8,0,0,2.1.4,4.1.7,6.1l1.5,8.6,3.9-14.6h1.2l4.5,15.2,2-15.3c1.8.6,3.2.6,5,0l-8.4,32.4h-1.1l-5.5-17.1-4.4,17.1h-1.2l-6-24.9c-.4-1.8-1.3-4.4-3.1-7.5Z"/>
    <path class="st0" d="M48.2,39c-1.8.8-2.3,2.5-2.3,5s.6,3.1,1.1,3.1.9-.4,1.2-1c-.6,3.6-3.3,5.6-6.1,5.6s-5-2.4-5-5.5c0-5.2,5-8.7,11-7.3ZM48.2,46.1v-7.2c0-1.3,0-3,0-3.9,0-4.4-.9-6.2-2.3-6.2s-1.2.7-1.2,2.9.2,2.6.8,3.9c-2.2,0-4.2.5-6.1,1.5-.5-.9-.9-2.2-.9-3.6,0-4.9,5.9-7.9,9.9-7.9s8.4,4.1,8.4,9.5v10.4c0,1.9.5,3.7,1.5,5.4-2.5-.1-5.5.3-8,1.1-1.4-1.3-2.1-3.6-2.1-5.7Z"/>
    <path class="st0" d="M64.5,17c2.8,0,4.3,2.4,4.3,4,0,2.4-2.8,4-5.2,4s-4.4-1.9-4.4-4,2.9-4,5.3-4ZM59.8,46.6v-16.1c0-1.5,0-3-.4-4.5,3.2.8,6.1.8,9.3,0-.2,1.1-.2,2.7-.2,4.5v16.1c0,2.1,0,3.4.2,4.5-3.2-.8-6.1-.8-9.3,0,.4-1.5.4-3,.4-4.5Z"/>
    <path class="st0" d="M81.5,39c-1.8.8-2.3,2.5-2.3,5s.6,3.1,1.1,3.1.9-.4,1.2-1c-.6,3.6-3.3,5.6-6.1,5.6s-5-2.4-5-5.5c0-5.2,5-8.7,11-7.3ZM81.5,46.1v-7.2c0-1.3,0-3,0-3.9,0-4.4-.9-6.2-2.3-6.2s-1.2.7-1.2,2.9.2,2.6.8,3.9c-2.2,0-4.2.5-6.1,1.5-.5-.9-.9-2.2-.9-3.6,0-4.9,5.9-7.9,9.9-7.9s8.4,4.1,8.4,9.5v10.4c0,1.9.5,3.7,1.5,5.4-2.5-.1-5.5.3-8,1.1-1.4-1.3-2.1-3.6-2.1-5.7Z"/>
    <path class="st0" d="M93,46.6v-21c0-2.2,0-4.4-.3-6.6,3.9-.1,6.2-.7,8.4-1.6.4,2.5.5,5.1.5,7.7v20.4c0,1,.3,1.6,1.1,1.6s.6,0,.9-.3l-.4,3.4c-1.1,1-2.5,1.4-3.8,1.4-4.2,0-6.4-2.3-6.4-5Z"/>
    <path class="st0" d="M115.6,39c-1.8.8-2.3,2.5-2.3,5s.6,3.1,1.1,3.1.9-.4,1.2-1c-.6,3.6-3.3,5.6-6.1,5.6s-5-2.4-5-5.5c0-5.2,5-8.7,11-7.3ZM115.6,46.1v-7.2c0-1.3,0-3,0-3.9,0-4.4-.9-6.2-2.3-6.2s-1.2.7-1.2,2.9.2,2.6.8,3.9c-2.2,0-4.2.5-6.1,1.5-.5-.9-.9-2.2-.9-3.6,0-4.9,5.9-7.9,9.9-7.9s8.4,4.1,8.4,9.5v10.4c0,1.9.5,3.7,1.5,5.4-2.5-.1-5.5.3-8,1.1-1.4-1.3-2.1-3.6-2.1-5.7Z"/>
    <path class="st0" d="M126.3,38.5c0-9.3,6.6-13.1,11.4-13.1s8.1,3.6,7.9,9c0,1-.6,1.6-1.5,1.6h-8.8c.4,5.8,2,11.4,7.1,11.4s2.7-.5,3.2-1.1c-.7,3.1-2.7,5.3-7.7,5.3-7.2,0-11.5-5.5-11.5-13.2ZM137.1,33.7c.4-5-.2-6.2-1-6.2s-1,.5-1,5.7v.5h1.9Z"/>
    <path class="st0" d="M162.6,18.3h2.7l8.3,26.2c.7,2.4,1.9,4.8,2.9,6.6-2.9-.6-6.6-.9-10.9,0,0-1.5,0-2.9-.2-4.3h-6l-.8,4.3c-2-.5-4-.6-6.3,0l10.4-32.8ZM164.6,43.8l-2.6-10.5-2,10.5h4.6Z"/>
    <path class="st0" d="M171.3,26c3.3.7,7.4,1,11.2,0,.3,1.8.4,3.7,1,5.6l1.8,5.7,2.5-11.3c1.9.5,3.4.6,5.2,0l-10,25.4h-1.1l-7.3-18.3c-.7-1.7-1.8-4.4-3.3-7.1Z"/>
    <path class="st0" d="M191.8,38.5c0-9.3,6.6-13.1,11.4-13.1s8.1,3.6,7.9,9c0,1-.6,1.6-1.5,1.6h-8.8c.4,5.8,2,11.4,7.1,11.4s2.7-.5,3.2-1.1c-.7,3.1-2.7,5.3-7.7,5.3-7.2,0-11.5-5.5-11.5-13.2ZM202.6,33.7c.4-5-.2-6.2-1-6.2s-1,.5-1,5.7v.5h1.9Z"/>
    <path class="st0" d="M220.5,25.4c1.1,2.5,1.5,5.1,1.5,7.7v13.6c0,1.5-.1,3,.2,4.5-3.2-.8-6.1-.9-9.3,0,.4-1.5.4-3,.4-4.5v-13c0-1.7,0-3.4-.8-5.1,3.7-.3,5.9-1.4,8-3.1ZM224.4,46.6v-12.3c0-1.5-.2-2.3-1.1-2.3s-.8.2-1.3,1c.6-5.3,3.3-7.6,6.2-7.6,4.2,0,4.9,5.1,4.9,7.5v13.7c0,1.5,0,3,.4,4.5-2.5-.9-6.2-.9-9.4,0,.5-1.5.3-3,.3-4.5Z"/>
    <path class="st0" d="M235.8,44.2v-13.7c0-1.5,0-3-.4-4.5,2.5.9,6.2.9,9.4,0-.5,1.5-.4,3-.4,4.5v12.3c0,1.5.3,2.3,1.1,2.3s.8-.2,1.3-1c-.6,5.3-3.3,7.6-6.2,7.6-4.3,0-4.9-5.1-4.9-7.5ZM256,26c-.4,1.5-.4,3-.4,4.5v13c0,2.6,0,5.1.9,7.7-3.5-.5-6.3-.5-9.6,0,0-2.4,0-4.5,0-7.1v-13.6c0-1.5,0-3-.3-4.5,3.2.8,6.1.9,9.4,0Z"/>
    <path class="st0" d="M257.9,38.5c0-9.3,6.6-13.1,11.4-13.1s8.1,3.6,7.9,9c0,1-.6,1.6-1.5,1.6h-8.8c.4,5.8,2,11.4,7.1,11.4s2.7-.5,3.2-1.1c-.7,3.1-2.7,5.3-7.7,5.3-7.2,0-11.5-5.5-11.5-13.2ZM268.7,33.7c.4-5-.2-6.2-1-6.2s-1,.5-1,5.7v.5h1.9Z"/>
  </g>
</svg>