<?xml version="1.0" encoding="UTF-8"?>
<svg id="Layer_1" xmlns="http://www.w3.org/2000/svg" version="1.1" viewBox="0 0 344.9 216">
  <!-- Generator: Adobe Illustrator 29.5.1, SVG Export Plug-In . SVG Version: 2.1.0 Build 141)  -->
  <defs>
    <style>
      .st0 {
        fill: #231f20;
      }
    </style>
  </defs>
  <g>
    <path class="st0" d="M21.1,54.4h10.9v2.6h-7.9v8.7h7v2.6h-7v11.4h-3v-25.3Z"/>
    <path class="st0" d="M34.5,54.4h2.7v3.8h-2.7v-3.8ZM34.5,61.9h2.7v17.8h-2.7v-17.8Z"/>
    <path class="st0" d="M40.8,61.9h2.5v2.5h.2c.4-1.2,1.6-3,4-3s3.8,1.8,3.3,6.1l-2.6.2c.3-3.1-.3-3.8-1.6-3.8-2.2,0-3.1,2.4-3.1,5.7v10.1h-2.8v-17.8Z"/>
    <path class="st0" d="M51.8,74.4l2.5-.3c.1,2.4.8,3.7,3.1,3.7s2.8-.9,2.8-2.7c0-4.8-7.8-2.3-7.8-8.7s2.4-5.1,5.4-5.1,4.9,1.7,5,5.5l-2.4.3c-.1-2.1-.7-3.5-2.7-3.5s-2.7.8-2.7,2.4c0,4.3,7.9,2.2,7.9,8.6s-2.5,5.3-5.6,5.3-5.3-1.9-5.5-5.7Z"/>
    <path class="st0" d="M66,75v-10.9h-1.9v-2.3h1.9v-3.5l2.8-.9v4.4h3.4v2.3h-3.4v10.6c0,2.2.5,3.1,2.2,3.1s1.3-.1,1.9-.3l.3,2.2c-.4.2-1.6.4-2.9.4-3.1,0-4.2-1.8-4.2-5.1Z"/>
    <path class="st0" d="M80.6,54.4h5.4c5.7,0,7.5,3.1,7.5,7.4s-1.9,8.4-8.4,8.4h-1.6v9.5h-3v-25.3ZM85,67.6c3.8,0,5.5-1.5,5.5-5.8s-1.2-4.8-4.4-4.8h-2.5v10.5h1.4Z"/>
    <path class="st0" d="M96.4,61.9h2.5v2.5h.2c.4-1.2,1.6-3,4-3s3.8,1.8,3.3,6.1l-2.6.2c.3-3.1-.3-3.8-1.6-3.8-2.2,0-3.1,2.4-3.1,5.7v10.1h-2.8v-17.8Z"/>
    <path class="st0" d="M108.8,54.4h2.7v3.8h-2.7v-3.8ZM108.8,61.9h2.7v17.8h-2.7v-17.8Z"/>
    <path class="st0" d="M115.2,61.9h2.5v2.5h.2c.4-1,1.5-2.9,4.3-2.9s4.4,2,4.4,5.7v12.6h-2.8v-12.1c0-2.3-.5-3.7-2.5-3.7-2.8,0-3.4,2.7-3.4,5v10.8h-2.8v-17.8Z"/>
    <path class="st0" d="M130.4,75v-10.9h-1.9v-2.3h1.9v-3.5l2.8-.9v4.4h3.4v2.3h-3.4v10.6c0,2.2.5,3.1,2.2,3.1s1.3-.1,1.9-.3l.3,2.2c-.4.2-1.6.4-2.9.4-3.1,0-4.2-1.8-4.2-5.1Z"/>
    <path class="st0" d="M139.7,54.4h2.7v3.8h-2.7v-3.8ZM139.7,61.9h2.7v17.8h-2.7v-17.8Z"/>
    <path class="st0" d="M146.1,61.9h2.5v2.5h.2c.4-1,1.5-2.9,4.3-2.9s4.4,2,4.4,5.7v12.6h-2.8v-12.1c0-2.3-.5-3.7-2.5-3.7-2.8,0-3.4,2.7-3.4,5v10.8h-2.8v-17.8Z"/>
    <path class="st0" d="M160.8,81.7l2.6-.4c.2,1.9,1.1,2.8,2.8,2.8s3.2-1.1,3.2-4.5v-2.6h-.1c-.4,1.2-1.7,2.6-3.8,2.6s-5.2-1.7-5.2-8.3,2.2-9.8,5.5-9.8,2.8.9,3.5,2.2h.1l.4-1.8h2.3v17.3c0,4.8-1.9,7.3-5.9,7.3s-5-1.3-5.4-4.7ZM169.4,70.9c0-5.5-1.1-7-3-7s-3.2,1.6-3.2,7.1,1.2,6.1,2.9,6.1,3.3-1.8,3.3-6.3Z"/>
    <path class="st0" d="M179.7,72.1l2.9-.3c.2,4.3,1.3,5.8,4.1,5.8s3.7-1.3,3.7-4.1-1.5-4.2-3.9-5.2c-2.9-1.3-6.3-2.4-6.3-7.5s3-6.8,6.8-6.8,6.1,2.4,6,7.8l-2.8.4c-.1-4.1-1.1-5.6-3.4-5.6s-3.5,1.6-3.5,3.8,1.1,3.5,3.5,4.6c3,1.4,6.7,2.5,6.7,7.9s-2.9,7.3-6.8,7.3-6.8-2.6-6.9-8Z"/>
    <path class="st0" d="M195.6,70.9c0-5.9,2-9.5,6.4-9.5s5.7,2.8,5.1,9.9h-8.5c0,3.9.5,6.3,3.2,6.3s2.7-1.3,2.9-4.2l2.5.2c-.2,5.1-2.8,6.4-5.4,6.4-5,0-6.1-3.9-6.1-9.2ZM204.5,69.3c.2-3.8-.6-5.5-2.7-5.5s-3.2,2.7-3.3,5.5h6Z"/>
    <path class="st0" d="M209.2,75.3c0-4.1,3.1-5.2,8.3-5.8v-1.8c0-3-1-3.9-2.7-3.9s-2.6,1.2-2.6,2.8,0,1.1.2,1.7l-2.5.3c-.1-.6-.2-1.2-.2-1.8,0-3.1,1.7-5.2,5.3-5.2s5.3,3.8,5.3,7.5v7.8c0,.8.1,1.1.7,1.1s.4,0,.6-.1v2c-.4.2-.9.2-1.4.2-1.4,0-2.2-.7-2.4-2-.6,1.2-1.9,2.2-4,2.2-3.4,0-4.6-2.4-4.6-4.8ZM217.5,74.9v-3.1c-4.4.3-5.5,1.3-5.5,3.4s.7,2.8,2.5,2.8,2.9-1.3,2.9-3Z"/>
    <path class="st0" d="M224.3,75v-10.9h-1.9v-2.3h1.9v-3.5l2.8-.9v4.4h5.4v-3.5l2.8-.9v4.4h3.4v2.3h-3.4v10.6c0,2.2.5,3.1,2.2,3.1s1.3-.1,1.9-.3l.3,2.2c-.5.2-1.6.4-2.9.4-3.1,0-4.2-1.8-4.2-5.1v-10.9h-5.4v10.6c0,2,.4,3.1,2.2,3.1s1.3-.1,1.8-.3l.3,2.2c-.4.2-1.6.4-2.8.4-3.1,0-4.2-1.8-4.2-5.1Z"/>
    <path class="st0" d="M241.6,54.4h2.8v25.3h-2.8v-25.3Z"/>
    <path class="st0" d="M247.3,70.9c0-5.9,2-9.5,6.4-9.5s5.7,2.8,5.1,9.9h-8.5c0,3.9.5,6.3,3.2,6.3s2.7-1.3,2.9-4.2l2.5.2c-.2,5.1-2.8,6.4-5.4,6.4-5,0-6.1-3.9-6.1-9.2ZM256.2,69.3c.2-3.8-.6-5.5-2.7-5.5s-3.2,2.7-3.3,5.5h6Z"/>
    <path class="st0" d="M261.9,83.6l1-3.9h-1v-4.2h3v3.7l-1.8,4.8-1.3-.4Z"/>
    <path class="st0" d="M273.2,77.8c0-8,8.1-10.9,8.1-17.7s-1.4-3.6-2.9-3.6c-2.7,0-3,2.6-2.5,6l-2.8.2c-.9-4.6.6-8.7,5.5-8.7s5.6,2.1,5.6,6.1c0,7.7-8.1,10.8-7.9,17h7.4v2.7h-10.5c0-.7,0-1.2,0-1.9Z"/>
    <path class="st0" d="M286.6,67.1c0-8.6,2-13.1,7.1-13.1s6.4,4.4,6.4,12.6-1.6,13.5-6.9,13.5-6.6-4.4-6.6-13ZM297.1,66.9c0-7-.5-10.3-3.6-10.3s-4,3.7-4,10.4.6,10.5,3.8,10.5,3.7-3.4,3.7-10.6Z"/>
    <path class="st0" d="M303.2,77.8c0-8,8.1-10.9,8.1-17.7s-1.4-3.6-2.9-3.6c-2.7,0-3,2.6-2.5,6l-2.8.2c-.9-4.6.6-8.7,5.5-8.7s5.6,2.1,5.6,6.1c0,7.7-8.1,10.8-7.9,17h7.4v2.7h-10.5c0-.7,0-1.2,0-1.9Z"/>
    <path class="st0" d="M322.9,74.1h-8.3v-2.1l7.5-17.6h3.5v17h2.6v2.7h-2.6v5.6h-2.8v-5.6ZM322.9,71.4v-13.1h-.1l-5.4,13.1h5.5Z"/>
  </g>
  <g>
    <path class="st0" d="M18.6,35h1.5v-16.6h-1.5v-1.1h4.4v1.1h-1.5v16.6h1.5v1.1h-4.4v-1.1Z"/>
    <path class="st0" d="M25.5,22.9h1.1v1.9h.1c.3-.8,1.2-2.2,3.3-2.2s3.3,1.4,3.3,4.1v9.4h-1.2v-9.2c0-1.9-.4-3.2-2.3-3.2s-3.2,2.4-3.2,4.2v8.2h-1.2v-13.2Z"/>
    <path class="st0" d="M36.6,33v-9h-1.5v-1h1.5v-2.6l1.2-.6v3.2h2.7v1h-2.7v8.9c0,1.6.4,2.4,1.8,2.4s1.2-.1,1.5-.3l.2,1c-.3.1-1.1.3-1.9.3-2.6,0-2.8-1.7-2.8-3.4Z"/>
    <path class="st0" d="M42.1,29.6c0-4.4,1.3-7,4.5-7s3.8,2.5,3.5,7.2h-6.6c0,3.3.5,5.5,2.9,5.5s2.5-1.2,2.7-3.7h1.1c-.2,3.8-2,4.7-3.7,4.7-3.6,0-4.2-2.8-4.2-6.8ZM48.9,28.8c.1-2.7-.1-5.1-2.5-5.1s-3,2.8-3.1,5.1h5.5Z"/>
    <path class="st0" d="M52.7,22.9h1.1v2h.2c.2-.7,1.1-2.4,3.1-2.4s2.7,1.1,2.4,4h-1.1c.2-2.5-.4-3-1.5-3-2.1,0-2.9,2.3-2.9,4.7v7.8h-1.2v-13.2Z"/>
    <path class="st0" d="M61.3,22.9h1.1v1.9h.1c.3-.8,1.2-2.2,3.3-2.2s3.3,1.4,3.3,4.1v9.4h-1.2v-9.2c0-1.9-.4-3.2-2.3-3.2s-3.2,2.4-3.2,4.2v8.2h-1.2v-13.2Z"/>
    <path class="st0" d="M71.6,32.8c0-2.7,2.1-3.8,6.4-4.2v-1.7c0-2.6-1-3.3-2.6-3.3s-2.4,1.3-2.4,2.6,0,1,.1,1.4h-1.1c-.1-.4-.2-.8-.2-1.3,0-2.3,1.2-3.8,3.7-3.8s3.7,2.8,3.7,5.2v6.7c0,.5.1.7.5.7s.3,0,.5,0v.9c-.3.1-.5.1-.8.1-1,0-1.3-.7-1.3-1.4-.5.8-1.4,1.6-3,1.6-2.6,0-3.5-1.7-3.5-3.6ZM78,32.8v-3.1c-4.2.3-5.1,1.3-5.1,3.1s.7,2.5,2.4,2.5,2.7-1,2.7-2.5Z"/>
    <path class="st0" d="M82.5,33v-9h-1.5v-1h1.5v-2.6l1.2-.6v3.2h2.7v1h-2.7v8.9c0,1.6.4,2.4,1.8,2.4s1.2-.1,1.5-.3l.2,1c-.3.1-1.1.3-1.9.3-2.6,0-2.8-1.7-2.8-3.4Z"/>
    <path class="st0" d="M89.2,17.3h1.1v2.3h-1.1v-2.3ZM89.2,22.9h1.1v13.2h-1.1v-13.2Z"/>
    <path class="st0" d="M92.9,29.5c0-4.6,1.4-6.9,4.3-6.9s3.9,2.3,3.9,6.6-1,7.1-4.1,7.1-4-2.4-4-6.9ZM99.8,29.4c0-3.2-.3-5.8-2.7-5.8s-2.9,2.7-2.9,5.8.4,5.9,2.8,5.9,2.8-2.8,2.8-6Z"/>
    <path class="st0" d="M103.7,22.9h1.1v1.9h.1c.3-.8,1.2-2.2,3.3-2.2s3.3,1.4,3.3,4.1v9.4h-1.2v-9.2c0-1.9-.4-3.2-2.3-3.2s-3.2,2.4-3.2,4.2v8.2h-1.2v-13.2Z"/>
    <path class="st0" d="M114,32.8c0-2.7,2.1-3.8,6.4-4.2v-1.7c0-2.6-1-3.3-2.6-3.3s-2.4,1.3-2.4,2.6,0,1,.1,1.4h-1.1c-.1-.4-.2-.8-.2-1.3,0-2.3,1.2-3.8,3.7-3.8s3.7,2.8,3.7,5.2v6.7c0,.5.1.7.5.7s.3,0,.5,0v.9c-.3.1-.5.1-.8.1-1,0-1.3-.7-1.3-1.4-.5.8-1.4,1.6-3,1.6-2.6,0-3.5-1.7-3.5-3.6ZM120.4,32.8v-3.1c-4.2.3-5.1,1.3-5.1,3.1s.7,2.5,2.4,2.5,2.7-1,2.7-2.5Z"/>
    <path class="st0" d="M124.7,17.3h1.2v18.8h-1.2v-18.8Z"/>
    <path class="st0" d="M131.9,30.5l1.3-.2c.2,3.5,1.2,4.8,3.6,4.8s3.5-1.4,3.5-3.8-1.2-3.5-3.1-4.2c-2.2-.9-4.7-1.5-4.7-5.3s1.8-4.8,4.7-4.8,4.2,1.8,4.2,5.6l-1.3.2c0-3.4-.9-4.7-3-4.7s-3.2,1.3-3.2,3.5.9,3,2.8,3.8c2.2,1,4.9,1.6,4.9,5.6s-1.9,5.3-4.9,5.3-4.8-1.9-4.8-5.9Z"/>
    <path class="st0" d="M144.3,33v-9h-1.5v-1h1.5v-2.6l1.2-.6v3.2h2.7v1h-2.7v8.9c0,1.6.4,2.4,1.8,2.4s1.2-.1,1.5-.3l.2,1c-.3.1-1.1.3-1.9.3-2.6,0-2.8-1.7-2.8-3.4Z"/>
    <path class="st0" d="M149.9,32.8c0-2.7,2.1-3.8,6.4-4.2v-1.7c0-2.6-1-3.3-2.6-3.3s-2.4,1.3-2.4,2.6,0,1,.1,1.4h-1.1c-.1-.4-.2-.8-.2-1.3,0-2.3,1.2-3.8,3.7-3.8s3.7,2.8,3.7,5.2v6.7c0,.5.1.7.5.7s.3,0,.5,0v.9c-.3.1-.5.1-.8.1-1,0-1.3-.7-1.3-1.4-.5.8-1.4,1.6-3,1.6-2.6,0-3.5-1.7-3.5-3.6ZM156.3,32.8v-3.1c-4.2.3-5.1,1.3-5.1,3.1s.7,2.5,2.4,2.5,2.7-1,2.7-2.5Z"/>
    <path class="st0" d="M160.7,22.9h1.1v1.9h.1c.3-.8,1.2-2.2,3.3-2.2s3.3,1.4,3.3,4.1v9.4h-1.2v-9.2c0-1.9-.4-3.2-2.3-3.2s-3.2,2.4-3.2,4.2v8.2h-1.2v-13.2Z"/>
    <path class="st0" d="M171.1,29.9c0-5.1,1.5-7.3,4.2-7.3s2.2.8,2.7,1.7h0v-7h1.2v18.8h-1l-.2-1.7h0c-.6,1.4-1.8,2-3,2-2.5,0-4-1.6-4-6.5ZM178.2,29.7c0-5-1.2-6-2.9-6s-2.9,2.3-2.9,6.2.9,5.5,2.8,5.5,3.1-2,3.1-5.6Z"/>
    <path class="st0" d="M181.7,32.8c0-2.7,2.1-3.8,6.4-4.2v-1.7c0-2.6-1-3.3-2.6-3.3s-2.4,1.3-2.4,2.6,0,1,.1,1.4h-1.1c-.1-.4-.2-.8-.2-1.3,0-2.3,1.2-3.8,3.7-3.8s3.7,2.8,3.7,5.2v6.7c0,.5.1.7.5.7s.3,0,.5,0v.9c-.3.1-.5.1-.8.1-1,0-1.3-.7-1.3-1.4-.5.8-1.4,1.6-3,1.6-2.6,0-3.5-1.7-3.5-3.6ZM188.1,32.8v-3.1c-4.2.3-5.1,1.3-5.1,3.1s.7,2.5,2.4,2.5,2.7-1,2.7-2.5Z"/>
    <path class="st0" d="M192.4,22.9h1.1v2h.2c.2-.7,1.1-2.4,3.1-2.4s2.7,1.1,2.4,4h-1.1c.2-2.5-.4-3-1.5-3-2.1,0-2.9,2.3-2.9,4.7v7.8h-1.2v-13.2Z"/>
    <path class="st0" d="M200.2,29.9c0-5.1,1.5-7.3,4.2-7.3s2.2.8,2.7,1.7h0v-7h1.2v18.8h-1l-.2-1.7h0c-.6,1.4-1.8,2-3,2-2.5,0-4-1.6-4-6.5ZM207.3,29.7c0-5-1.2-6-2.9-6s-2.9,2.3-2.9,6.2.9,5.5,2.8,5.5,3.1-2,3.1-5.6Z"/>
    <path class="st0" d="M215.5,17.3h3.7c4,0,4.9,2,4.9,4.2s-1.5,4.3-3.7,4.7h0c3.1.3,4.3,2.1,4.3,4.6,0,3.7-1.8,5.2-5.9,5.2h-3.3v-18.8ZM217.6,25.8c2.2,0,5.1-.6,5.1-4.2s-1.1-3.1-4.1-3.1h-1.8v7.3h.8ZM218.1,34.9c3.1,0,5.2-.4,5.2-4s-1.9-4-4.7-4h-1.8v7.9h1.3Z"/>
    <path class="st0" d="M226.6,29.5c0-4.6,1.4-6.9,4.3-6.9s3.9,2.3,3.9,6.6-1,7.1-4.1,7.1-4-2.4-4-6.9ZM233.5,29.4c0-3.2-.3-5.8-2.7-5.8s-2.9,2.7-2.9,5.8.4,5.9,2.8,5.9,2.8-2.8,2.8-6Z"/>
    <path class="st0" d="M236.8,29.5c0-4.6,1.4-6.9,4.3-6.9s3.9,2.3,3.9,6.6-1,7.1-4.1,7.1-4-2.4-4-6.9ZM243.7,29.4c0-3.2-.3-5.8-2.7-5.8s-2.9,2.7-2.9,5.8.4,5.9,2.8,5.9,2.8-2.8,2.8-6Z"/>
    <path class="st0" d="M247.6,17.3h1.2v11.6l4.9-6h1.4l-3.9,4.7,4.3,8.5h-1.4l-3.7-7.5-1.6,1.9v5.6h-1.2v-18.8Z"/>
    <path class="st0" d="M261.5,17.3h2.1l6.6,17.1h0v-17.1h1.2v18.8h-1.9l-6.9-17.4h0v17.4h-1.2v-18.8Z"/>
    <path class="st0" d="M274.7,32.3v-9.4h1.2v9c0,2,.4,3.4,2.3,3.4s3.1-2.6,3.1-4.3v-8.1h1.2v13.2h-1v-1.9h-.2c-.3.8-1.2,2.2-3.2,2.2s-3.3-1.4-3.3-4.1Z"/>
    <path class="st0" d="M285.6,22.9h1.1v1.9h.1c.4-1.2,1.4-2.2,3.1-2.2s2.5,1,2.7,2.5h0c.4-1.5,1.6-2.5,3.3-2.5s3.2,1.3,3.2,4.1v9.3h-1.2v-9.2c0-2.5-.8-3.2-2.1-3.2s-2.9,1.3-2.9,4.4v8h-1.2v-9.1c0-2.3-.6-3.3-2.1-3.3s-2.9,1.7-2.9,4.5v7.8h-1.2v-13.2Z"/>
    <path class="st0" d="M303.5,34.6h0l-.2,1.5h-.9v-18.8h1.2v7.6h0c.4-1.1,1.6-2.3,3.2-2.3s3.8,1.1,3.8,6.5-1.6,7.3-4.2,7.3-2.6-1-2.9-1.8ZM309.3,29.1c0-4.7-1.2-5.5-2.7-5.5s-3.2,1.8-3.2,5.7,1.2,6,2.9,6,2.9-1.3,2.9-6.2Z"/>
    <path class="st0" d="M312.6,29.6c0-4.4,1.3-7,4.5-7s3.8,2.5,3.5,7.2h-6.6c0,3.3.5,5.5,2.9,5.5s2.5-1.2,2.7-3.7h1.1c-.2,3.8-2,4.7-3.7,4.7-3.6,0-4.2-2.8-4.2-6.8ZM319.4,28.8c.1-2.7-.1-5.1-2.5-5.1s-3,2.8-3.1,5.1h5.5Z"/>
    <path class="st0" d="M323.2,22.9h1.1v2h.2c.2-.7,1.1-2.4,3.1-2.4s2.7,1.1,2.4,4h-1.1c.2-2.5-.4-3-1.5-3-2.1,0-2.9,2.3-2.9,4.7v7.8h-1.2v-13.2Z"/>
  </g>
  <g>
    <path class="st0" d="M21.2,99.5h6.4c10.6,0,13.4,5.2,13.4,16.4s-2.9,17.5-13.6,17.5h-6.2v-33.8ZM28.3,128.2c5,0,6.4-2.8,6.4-12.1s-1.4-11.7-6.3-11.7h-1.2v23.7h1.2Z"/>
    <path class="st0" d="M44.2,109.3h5.1l.2,3.2h0c.6-1.8,2-3.8,5.3-3.8s5.4,2.9,4.7,9.2l-5.6.4c.4-3.8-.2-4.6-1.4-4.6-2,0-2.7,2.2-2.7,6.4v13.1h-5.7v-24Z"/>
    <path class="st0" d="M62.3,126.6h5.3v6.7h-5.3v-6.7Z"/>
    <path class="st0" d="M78.5,99.5h6v28.6h9.3v5.3h-15.3v-33.8Z"/>
    <path class="st0" d="M95.2,121.5c0-7.9,3-12.7,9.3-12.7s8.3,4.7,7.4,13.6h-10.8c0,4.2.5,6.7,3,6.7s2.6-1.6,2.7-4.4l5.1.4c-.4,6.4-3.5,8.9-7.9,8.9-7.1,0-8.9-5.2-8.9-12.4ZM106.7,118.8c.2-3.5-.4-5.4-2.5-5.4s-3,2.3-3,5.4h5.5Z"/>
    <path class="st0" d="M115.1,109.3h5.1v3.2h.3c.6-1.4,1.8-3.7,5.5-3.7s5.8,2.7,5.8,7.6v16.9h-5.7v-15.8c0-2.5-.5-3.8-2.2-3.8-2.5,0-3.1,2.5-3.1,5.4v14.2h-5.7v-24Z"/>
    <path class="st0" d="M142.5,99.5h15.8v5.3h-9.8v9.2h8.7v5.1h-8.7v14.2h-5.9v-33.8Z"/>
    <path class="st0" d="M159.4,121.5c0-7.9,3-12.7,9.3-12.7s8.3,4.7,7.4,13.6h-10.8c0,4.2.5,6.7,3,6.7s2.6-1.6,2.7-4.4l5.1.4c-.4,6.4-3.5,8.9-7.9,8.9-7.1,0-8.9-5.2-8.9-12.4ZM170.8,118.8c.2-3.5-.4-5.4-2.5-5.4s-3,2.3-3,5.4h5.5Z"/>
    <path class="st0" d="M179.3,99.5h5.7v33.8h-5.7v-33.8Z"/>
    <path class="st0" d="M188.7,99.5h5.7v33.8h-5.7v-33.8Z"/>
    <path class="st0" d="M197.4,121.5c0-7.9,3-12.7,9.3-12.7s8.3,4.7,7.4,13.6h-10.8c0,4.2.5,6.7,3,6.7s2.6-1.6,2.7-4.4l5.1.4c-.4,6.4-3.5,8.9-7.9,8.9-7.1,0-8.9-5.2-8.9-12.4ZM208.8,118.8c.2-3.5-.4-5.4-2.5-5.4s-3,2.3-3,5.4h5.5Z"/>
    <path class="st0" d="M215.6,128.7l8.4-14.4h-7.9v-5h14.4v4.5l-8.3,14.5h8.5v5h-15.2v-4.6Z"/>
    <path class="st0" d="M233.6,138.7l1.4-5.4h-1.8v-6.7h5.6v5.6l-2.9,7.1-2.4-.6Z"/>
    <path class="st0" d="M249.2,99.5h15.8v5.3h-9.8v8.7h8.8v5.2h-8.8v9.5h10.7v5.3h-16.6v-33.8Z"/>
    <path class="st0" d="M267.8,121.9c0-9.2,2.5-13.1,7.1-13.1s3.5,1.2,4.3,2.7h.1v-12h5.6v33.8h-4.8l-.5-2.8h-.1c-.6,1.8-2.4,3.3-4.8,3.3-4.6,0-7-3.2-7-11.9ZM279.4,121.4c0-6-.9-7.9-2.8-7.9s-3,2-3,8.3.8,7.2,2.8,7.2,3-2.3,3-7.7Z"/>
    <path class="st0" d="M288.8,126.6h5.3v6.7h-5.3v-6.7Z"/>
    <path class="st0" d="M298.3,99.5h6.4c10.6,0,13.4,5.2,13.4,16.4s-2.9,17.5-13.6,17.5h-6.2v-33.8ZM305.4,128.2c5,0,6.4-2.8,6.4-12.1s-1.4-11.7-6.3-11.7h-1.2v23.7h1.2Z"/>
    <path class="st0" d="M321.5,126.6h5.3v6.7h-5.3v-6.7Z"/>
  </g>
  <g>
    <path class="st0" d="M21.1,178v-27.3h9.6v24.7c0,5.9,0,8.3,2.8,8.3s2.8-2.1,2.8-8.2v-24.8h9.6v27.6c0,9.1-3.5,13.5-12.7,13.5s-12.1-4.5-12.1-13.8Z"/>
    <path class="st0" d="M48.8,162.4h8.4l.2,3.7h.2c.7-1.6,1.9-4.3,6.3-4.3s6.5,3.2,6.5,8.9v20.6h-9.5v-18.7c0-1.9-.2-2.7-1.1-2.7-1.3,0-1.6,1.5-1.6,4.7v16.6h-9.5v-28.8Z"/>
    <path class="st0" d="M72.5,176.7c0-9.7,4.1-15,11.8-15s10,5.2,9.7,11.9l-8.6.6c0-2-.2-4.6-1.4-4.6s-1.8.6-1.8,7.2.5,7.2,1.8,7.2,1.5-2.8,1.5-4.5l8.5.5c-.3,9.2-4.9,11.8-10.5,11.8-8.7,0-11.1-6.1-11.1-15.1Z"/>
    <path class="st0" d="M95.3,176.8c0-10.2,4.2-15.1,11.9-15.1s11,4.8,11,14.6-3.7,15.5-11.8,15.5-11.1-5-11.1-15ZM108.5,176.4c0-5.7-.4-6.8-1.7-6.8s-1.7,1.2-1.7,7,.2,7.5,1.7,7.5,1.7-1.3,1.7-7.7Z"/>
    <path class="st0" d="M120.4,162.4h8.4l.2,3.7h.2c.7-1.6,1.9-4.3,6.3-4.3s6.5,3.2,6.5,8.9v20.6h-9.5v-18.7c0-1.9-.2-2.7-1.1-2.7-1.3,0-1.6,1.5-1.6,4.7v16.6h-9.5v-28.8Z"/>
    <path class="st0" d="M142.3,162.4h10.5l2,18.9h.2l2-18.9h10.1l-6.2,28.8h-12.1l-6.6-28.8Z"/>
    <path class="st0" d="M167.1,176.9c0-9.6,4.1-15.2,11.8-15.2s10.7,6.8,9.6,16.6h-11.7c0,3.8.1,5.7,1.9,5.7s1.5-1.7,1.5-3.8l8.5.6c-.5,7-3.7,11.1-10.2,11.1s-11.4-6.2-11.4-14.9ZM179.8,172.9c.2-2.1.1-3.9-1.3-3.9s-1.7,1-1.7,3.9h3Z"/>
    <path class="st0" d="M191,162.4h8.4l.2,3.7h.2c.7-1.6,1.9-4.3,6.3-4.3s6.5,3.2,6.5,8.9v20.6h-9.5v-18.7c0-1.9-.2-2.7-1.1-2.7-1.3,0-1.6,1.5-1.6,4.7v16.6h-9.5v-28.8Z"/>
    <path class="st0" d="M216.5,182.1v-12.9h-2.8v-6.9h2.8v-5.2l9.4-2.1v7.4h4.5v6.9h-4.5v11.3c0,3.3.7,3.9,2.3,3.9s1.2-.2,2.1-.4l.8,6.9c-.8.4-3.1,1-5.8,1-3.9,0-8.8-1.3-8.8-9.7Z"/>
    <path class="st0" d="M232.8,150.7h9.4v8.5h-9.4v-8.5ZM232.8,162.4h9.4v28.8h-9.4v-28.8Z"/>
    <path class="st0" d="M244.4,176.8c0-10.2,4.2-15.1,11.9-15.1s11,4.8,11,14.6-3.7,15.5-11.8,15.5-11.1-5-11.1-15ZM257.5,176.4c0-5.7-.4-6.8-1.7-6.8s-1.7,1.2-1.7,7,.2,7.5,1.7,7.5,1.7-1.3,1.7-7.7Z"/>
    <path class="st0" d="M269.4,162.4h8.4l.2,3.7h.2c.7-1.6,1.9-4.3,6.3-4.3s6.5,3.2,6.5,8.9v20.6h-9.5v-18.7c0-1.9-.2-2.7-1.1-2.7-1.3,0-1.6,1.5-1.6,4.7v16.6h-9.5v-28.8Z"/>
    <path class="st0" d="M292.8,184c0-7.8,6.2-9,11.4-9.7v-1.8c0-2-.2-3.5-1.3-3.5s-1,.6-1,1.4.1,1.3.3,1.9l-8.4.9c-.2-.9-.3-1.8-.3-2.7,0-5.1,3-8.8,9.9-8.8s10.2,5.1,10.2,12.3v8.6c0,1.3.2,2,1.2,2s.3,0,.5,0v6.2c-1,.4-2.6.8-4.1.8-2.6,0-4.8-.9-5.7-3.6-.8,2.2-2.8,3.9-6,3.9-5.4,0-6.8-4.1-6.8-7.8ZM304.3,182.6v-2.5c-1.7.2-2.5.8-2.5,2.9s.2,2.1,1.3,2.1,1.3-1,1.3-2.4Z"/>
    <path class="st0" d="M317.2,150.7h9.5v40.4h-9.5v-40.4Z"/>
  </g>
</svg>