<svg 
 xmlns="http://www.w3.org/2000/svg"
 xmlns:xlink="http://www.w3.org/1999/xlink"
 width="2797px" height="1114px">
<path fill-rule="evenodd"  fill="rgb(2, 17, 58)"
 d="M2734.484,373.568 C2699.940,373.568 2672.000,345.629 2672.000,311.085 C2672.000,276.541 2699.940,248.601 2734.484,248.601 C2769.028,248.601 2796.968,276.541 2796.968,311.085 C2796.968,345.629 2769.028,373.568 2734.484,373.568 ZM2612.570,365.948 L2391.082,365.948 C2383.462,365.948 2379.906,362.392 2379.906,354.773 L2379.906,303.973 C2379.906,296.353 2383.462,292.797 2391.082,292.797 L2444.930,292.797 C2447.470,292.797 2448.994,291.273 2448.994,288.733 L2448.994,87.565 C2448.994,85.025 2447.470,83.501 2444.930,83.501 L2391.082,83.501 C2383.462,83.501 2379.906,79.945 2379.906,72.325 L2379.906,21.525 C2379.906,13.905 2383.462,10.349 2391.082,10.349 L2612.570,10.349 C2620.190,10.349 2623.746,13.905 2623.746,21.525 L2623.746,72.325 C2623.746,79.945 2620.190,83.501 2612.570,83.501 L2558.722,83.501 C2556.182,83.501 2554.658,85.025 2554.658,87.565 L2554.658,288.733 C2554.658,291.273 2556.182,292.797 2558.722,292.797 L2612.570,292.797 C2620.190,292.797 2623.746,296.353 2623.746,303.973 L2623.746,354.773 C2623.746,362.392 2620.190,365.948 2612.570,365.948 ZM2310.830,365.948 L2112.202,365.948 C2104.582,365.948 2101.026,362.392 2101.026,354.773 L2101.026,303.973 C2101.026,296.353 2104.582,292.797 2112.202,292.797 L2143.190,292.797 C2145.730,292.797 2147.254,291.273 2147.254,288.733 L2147.254,103.821 C2147.254,99.249 2145.222,98.741 2143.698,102.805 L2028.890,357.820 C2026.350,363.408 2023.302,365.948 2018.222,365.948 C2013.143,365.948 2010.095,363.408 2007.555,357.820 L1892.747,102.805 C1891.223,98.741 1889.191,99.249 1889.191,103.821 L1889.191,288.733 C1889.191,291.273 1890.715,292.797 1893.255,292.797 L1924.243,292.797 C1931.863,292.797 1935.419,296.353 1935.419,303.973 L1935.419,354.773 C1935.419,362.392 1931.863,365.948 1924.243,365.948 L1749.999,365.948 C1742.379,365.948 1738.823,362.392 1738.823,354.773 L1738.823,303.973 C1738.823,296.353 1742.379,292.797 1749.999,292.797 L1803.847,292.797 C1806.387,292.797 1807.911,291.273 1807.911,288.733 L1807.911,87.565 C1807.911,85.025 1806.387,83.501 1803.847,83.501 L1749.999,83.501 C1742.379,83.501 1738.823,79.945 1738.823,72.325 L1738.823,21.525 C1738.823,13.905 1742.379,10.349 1749.999,10.349 L1954.723,10.349 C1961.834,10.349 1966.407,13.397 1968.947,19.493 L2030.923,160.209 C2032.446,162.749 2034.478,162.749 2036.002,160.209 L2098.486,19.493 C2101.026,13.397 2105.598,10.349 2112.710,10.349 L2310.830,10.349 C2318.450,10.349 2322.006,13.905 2322.006,21.525 L2322.006,72.325 C2322.006,79.945 2318.450,83.501 2310.830,83.501 L2256.982,83.501 C2254.442,83.501 2252.918,85.025 2252.918,87.565 L2252.918,288.733 C2252.918,291.273 2254.442,292.797 2256.982,292.797 L2310.830,292.797 C2318.450,292.797 2322.006,296.353 2322.006,303.973 L2322.006,354.773 C2322.006,362.392 2318.450,365.948 2310.830,365.948 ZM1505.154,271.461 C1505.154,330.897 1438.606,373.568 1317.703,373.568 C1197.307,373.568 1128.727,329.881 1128.727,274.509 C1128.727,238.949 1155.651,208.469 1211.531,193.737 C1215.087,192.721 1215.595,189.673 1212.039,188.149 C1178.511,168.337 1153.111,141.921 1153.111,102.805 C1153.111,45.909 1212.039,2.729 1318.719,2.729 C1416.254,2.729 1473.658,47.941 1473.658,94.169 C1473.658,123.125 1454.862,149.033 1419.302,167.321 C1415.746,168.845 1416.254,171.893 1419.302,173.417 C1466.038,194.245 1505.154,223.201 1505.154,271.461 ZM1234.391,263.333 C1234.391,282.129 1264.363,299.401 1312.623,299.401 C1358.343,299.401 1378.155,288.225 1378.155,276.033 C1378.155,254.697 1342.595,240.981 1299.415,225.741 C1297.891,225.233 1295.859,224.725 1294.335,225.233 C1252.171,232.853 1234.391,249.109 1234.391,263.333 ZM1323.799,75.373 C1287.223,75.373 1274.523,88.581 1274.523,99.249 C1274.523,117.537 1302.463,129.729 1338.531,142.429 C1340.055,142.937 1342.087,142.937 1343.611,142.429 C1369.011,132.777 1380.695,118.553 1380.695,104.837 C1380.695,88.073 1355.803,75.373 1323.799,75.373 ZM880.323,373.568 C824.952,373.568 773.644,360.360 725.892,324.801 C719.796,319.721 719.796,315.149 724.876,309.561 L761.960,268.921 C767.040,263.333 772.628,262.825 778.724,267.397 C808.188,288.225 841.208,298.893 876.767,298.893 C929.091,298.893 974.811,274.509 980.399,189.673 C980.907,186.117 978.875,185.609 976.843,188.149 C951.951,218.121 908.263,235.901 856.956,235.901 C774.660,235.901 707.096,190.689 707.096,122.109 C707.096,50.989 777.200,2.729 884.895,2.729 C1012.403,2.729 1095.715,76.897 1095.715,188.149 C1095.715,299.401 1008.847,373.568 880.323,373.568 ZM883.371,76.389 C843.240,76.389 821.904,95.693 821.904,118.553 C821.904,140.905 843.240,161.225 883.371,161.225 C923.503,161.225 950.427,140.905 950.427,118.553 C950.427,95.693 923.503,76.389 883.371,76.389 ZM661.889,365.948 L436.846,365.948 C429.226,365.948 425.670,362.392 425.670,354.773 L425.670,303.973 C425.670,296.353 429.226,292.797 436.846,292.797 L494.250,292.797 C496.790,292.797 498.314,291.273 498.314,288.733 L498.314,137.857 C498.314,135.317 496.790,133.793 494.250,133.793 L431.258,133.793 C423.638,133.793 420.082,130.237 420.082,122.617 L420.082,83.501 C420.082,75.881 423.638,71.817 431.258,71.309 C480.534,65.213 509.998,49.465 530.318,8.825 C533.365,3.237 537.429,0.697 543.525,0.697 L592.801,0.697 C600.421,0.697 603.977,4.253 603.977,11.873 L603.977,288.733 C603.977,291.273 605.501,292.797 608.041,292.797 L661.889,292.797 C669.509,292.797 673.065,296.353 673.065,303.973 L673.065,354.773 C673.065,362.392 669.509,365.948 661.889,365.948 ZM349.985,365.440 L14.198,365.440 C6.578,365.440 3.022,361.884 3.022,354.265 L3.022,317.181 C3.022,234.885 51.790,172.401 163.550,142.937 C237.210,123.125 247.878,114.489 247.878,100.265 C247.878,87.565 229.590,75.881 193.522,75.881 C152.374,75.881 108.178,88.073 47.726,125.157 C41.122,129.221 36.042,128.205 32.486,121.601 L2.514,69.785 C-1.042,63.181 -0.026,58.101 6.578,54.545 C67.030,18.985 129.006,2.729 199.618,2.729 C289.534,2.729 357.605,41.337 357.605,108.393 C357.605,153.097 325.601,188.657 221.970,218.121 C143.230,240.473 111.226,258.253 101.574,287.717 C100.558,290.765 102.082,292.289 105.130,292.289 L279.882,292.289 C282.422,292.289 283.946,290.765 284.454,288.225 L290.550,247.585 C291.566,239.965 295.630,236.409 303.249,236.409 L349.985,236.409 C357.605,236.409 361.161,239.965 361.161,247.585 L361.161,354.265 C361.161,361.884 357.605,365.440 349.985,365.440 Z"/>
<path fill-rule="evenodd"  fill="rgb(2, 17, 58)"
 d="M2773.495,621.159 L2759.334,621.159 C2757.725,621.159 2756.759,622.124 2756.759,623.734 L2756.759,694.216 C2756.759,699.044 2754.507,701.297 2749.679,701.297 L2724.897,701.297 C2721.036,701.297 2718.461,699.687 2716.852,696.147 L2707.840,677.159 C2706.875,675.550 2705.909,675.228 2704.622,676.515 C2683.702,694.860 2653.450,706.446 2619.013,706.446 C2546.599,706.446 2495.749,659.458 2495.749,588.975 C2495.749,518.493 2546.599,471.504 2619.013,471.504 C2652.484,471.504 2682.093,482.447 2702.691,499.826 C2703.978,500.792 2705.265,500.470 2705.587,498.861 L2708.484,482.769 C2709.127,478.263 2711.380,476.332 2715.886,476.332 L2747.748,476.332 C2752.576,476.332 2754.828,478.585 2754.828,483.412 L2754.828,547.780 C2754.828,552.607 2752.576,554.860 2747.748,554.860 L2702.369,554.860 C2698.507,554.860 2695.610,553.251 2693.679,550.033 C2681.128,530.723 2661.496,519.458 2636.714,519.458 C2597.450,519.458 2568.484,547.136 2568.484,588.975 C2568.484,630.814 2597.450,658.492 2638.645,658.492 C2667.611,658.492 2689.495,644.653 2691.105,623.734 C2691.105,622.124 2690.139,621.159 2688.530,621.159 L2636.070,621.159 C2631.243,621.159 2628.990,618.906 2628.990,614.078 L2628.990,587.688 C2628.990,582.860 2631.243,580.607 2636.070,580.607 L2773.495,580.607 C2778.323,580.607 2780.575,582.860 2780.575,587.688 L2780.575,614.078 C2780.575,618.906 2778.323,621.159 2773.495,621.159 ZM2476.767,522.677 L2442.652,522.677 C2441.043,522.677 2440.077,523.642 2440.077,525.251 L2440.077,694.538 C2440.077,699.366 2437.824,701.618 2432.997,701.618 L2376.675,701.618 C2372.169,701.618 2368.951,700.009 2366.054,696.791 L2250.193,555.826 C2249.227,554.217 2247.940,554.860 2247.940,556.470 L2247.940,652.699 C2247.940,654.308 2248.905,655.274 2250.515,655.274 L2289.779,655.274 C2294.606,655.274 2296.859,657.527 2296.859,662.354 L2296.859,694.538 C2296.859,699.366 2294.606,701.618 2289.779,701.618 L2159.756,701.618 C2154.929,701.618 2152.676,699.366 2152.676,694.538 L2152.676,662.354 C2152.676,657.527 2154.929,655.274 2159.756,655.274 L2193.871,655.274 C2195.481,655.274 2196.446,654.308 2196.446,652.699 L2196.446,525.251 C2196.446,523.642 2195.481,522.677 2193.871,522.677 L2159.756,522.677 C2154.929,522.677 2152.676,520.424 2152.676,515.596 L2152.676,483.412 C2152.676,478.585 2154.929,476.332 2159.756,476.332 L2265.641,476.332 C2270.147,476.332 2273.365,477.941 2276.262,481.159 L2386.330,615.044 C2387.296,616.653 2388.583,616.010 2388.583,614.400 L2388.583,525.251 C2388.583,523.642 2387.618,522.677 2386.008,522.677 L2350.928,522.677 C2346.101,522.677 2343.848,520.424 2343.848,515.596 L2343.848,483.412 C2343.848,478.585 2346.101,476.332 2350.928,476.332 L2476.767,476.332 C2481.594,476.332 2483.847,478.585 2483.847,483.412 L2483.847,515.596 C2483.847,520.424 2481.594,522.677 2476.767,522.677 ZM2108.910,701.618 L1968.588,701.618 C1963.761,701.618 1961.508,699.366 1961.508,694.538 L1961.508,662.354 C1961.508,657.527 1963.761,655.274 1968.588,655.274 L2002.703,655.274 C2004.312,655.274 2005.278,654.308 2005.278,652.699 L2005.278,525.251 C2005.278,523.642 2004.312,522.677 2002.703,522.677 L1968.588,522.677 C1963.761,522.677 1961.508,520.424 1961.508,515.596 L1961.508,483.412 C1961.508,478.585 1963.761,476.332 1968.588,476.332 L2108.910,476.332 C2113.737,476.332 2115.990,478.585 2115.990,483.412 L2115.990,515.596 C2115.990,520.424 2113.737,522.677 2108.910,522.677 L2074.795,522.677 C2073.186,522.677 2072.220,523.642 2072.220,525.251 L2072.220,652.699 C2072.220,654.308 2073.186,655.274 2074.795,655.274 L2108.910,655.274 C2113.737,655.274 2115.990,657.527 2115.990,662.354 L2115.990,694.538 C2115.990,699.366 2113.737,701.618 2108.910,701.618 ZM1934.479,522.677 L1906.158,522.677 C1904.549,522.677 1903.261,523.642 1902.296,524.929 L1808.319,695.503 C1805.744,699.687 1802.526,701.618 1797.698,701.618 L1752.319,701.618 C1747.492,701.618 1744.273,699.687 1741.699,695.503 L1647.722,524.929 C1646.756,523.642 1645.469,522.677 1643.860,522.677 L1615.538,522.677 C1610.711,522.677 1608.458,520.424 1608.458,515.596 L1608.458,483.412 C1608.458,478.585 1610.711,476.332 1615.538,476.332 L1753.607,476.332 C1758.434,476.332 1760.687,478.585 1760.687,483.412 L1760.687,515.596 C1760.687,520.424 1758.434,522.677 1753.607,522.677 L1724.963,522.677 C1723.676,522.677 1723.032,523.964 1723.676,524.929 L1780.963,633.067 C1781.606,634.676 1782.894,634.676 1783.538,633.067 L1840.825,524.929 C1841.468,523.964 1840.825,522.677 1839.537,522.677 L1811.859,522.677 C1807.032,522.677 1804.779,520.424 1804.779,515.596 L1804.779,483.412 C1804.779,478.585 1807.032,476.332 1811.859,476.332 L1934.479,476.332 C1939.307,476.332 1941.560,478.585 1941.560,483.412 L1941.560,515.596 C1941.560,520.424 1939.307,522.677 1934.479,522.677 ZM1625.520,655.274 L1654.486,655.274 C1659.313,655.274 1661.566,657.527 1661.566,662.354 L1661.566,694.538 C1661.566,699.366 1659.313,701.618 1654.486,701.618 L1516.739,701.618 C1511.911,701.618 1509.659,699.366 1509.659,694.538 L1509.659,666.860 C1509.659,662.032 1511.911,659.779 1516.739,659.779 L1545.704,659.779 C1547.635,659.779 1547.957,658.814 1547.314,657.205 L1535.406,634.032 C1534.762,632.745 1533.796,632.101 1532.509,632.101 L1436.601,632.101 C1435.314,632.101 1434.349,632.745 1433.705,634.032 L1421.475,657.205 C1420.831,658.814 1421.153,659.779 1423.084,659.779 L1454.302,659.779 C1459.130,659.779 1461.383,662.032 1461.383,666.860 L1461.383,694.538 C1461.383,699.366 1459.130,701.618 1454.302,701.618 L1334.579,701.618 C1329.751,701.618 1327.498,699.366 1327.498,694.538 L1327.498,665.573 C1327.498,663.642 1327.498,661.067 1327.820,659.136 C1328.786,656.561 1331.039,655.274 1334.579,655.274 L1363.544,655.274 C1364.832,655.274 1365.797,654.630 1366.441,653.343 L1461.061,481.159 C1462.670,477.941 1465.567,476.332 1469.429,476.332 L1519.636,476.332 C1523.498,476.332 1526.394,477.941 1528.003,481.159 L1622.624,653.343 C1623.267,654.630 1624.233,655.274 1625.520,655.274 ZM1513.199,591.228 L1486.164,538.768 C1485.199,537.481 1483.912,537.481 1482.946,538.768 L1455.590,591.228 C1454.946,592.837 1455.268,593.803 1457.199,593.803 L1511.590,593.803 C1513.521,593.803 1513.842,592.837 1513.199,591.228 ZM1315.273,632.745 C1315.273,675.228 1279.549,706.446 1213.251,706.446 C1177.205,706.446 1147.596,697.756 1116.700,678.446 C1115.412,677.802 1113.803,678.446 1113.481,679.733 L1111.228,694.538 C1110.263,699.366 1107.688,701.618 1102.861,701.618 L1073.895,701.618 C1069.068,701.618 1066.815,699.366 1066.815,694.538 L1066.815,635.642 C1066.815,630.814 1069.068,628.561 1073.895,628.561 L1117.343,628.561 C1120.562,628.561 1123.458,629.527 1126.033,631.458 C1150.492,649.159 1183.320,659.136 1208.423,659.136 C1231.274,659.136 1243.182,651.412 1243.182,640.469 C1243.182,631.136 1236.745,624.055 1181.389,617.941 C1099.320,609.251 1069.389,583.826 1069.389,543.918 C1069.389,501.435 1103.504,471.504 1167.872,471.504 C1200.699,471.504 1228.055,479.228 1258.952,497.573 C1260.239,498.539 1261.848,497.573 1261.848,496.286 L1264.101,482.125 C1264.745,477.297 1267.320,475.045 1272.147,475.045 L1300.469,475.045 C1305.296,475.045 1307.549,477.297 1307.549,482.125 L1307.549,538.447 C1307.549,543.274 1305.296,545.527 1300.469,545.527 L1257.343,545.527 C1254.124,545.527 1251.228,544.562 1248.653,542.309 C1229.343,526.860 1201.665,518.171 1175.596,518.171 C1151.458,518.171 1141.159,527.504 1141.159,536.194 C1141.159,545.849 1145.987,551.642 1205.527,558.079 C1293.389,567.090 1315.273,599.596 1315.273,632.745 ZM915.237,701.618 L832.203,701.618 C827.375,701.618 824.479,699.366 823.513,694.860 L808.709,636.607 C803.559,616.653 792.617,610.216 772.019,610.216 L748.203,610.216 C746.594,610.216 745.628,611.182 745.628,612.791 L745.628,652.699 C745.628,654.308 746.594,655.274 748.203,655.274 L773.628,655.274 C778.456,655.274 780.709,657.527 780.709,662.354 L780.709,694.538 C780.709,699.366 778.456,701.618 773.628,701.618 L641.997,701.618 C637.169,701.618 634.916,699.366 634.916,694.538 L634.916,662.354 C634.916,657.527 637.169,655.274 641.997,655.274 L676.111,655.274 C677.721,655.274 678.686,654.308 678.686,652.699 L678.686,525.251 C678.686,523.642 677.721,522.677 676.111,522.677 L641.997,522.677 C637.169,522.677 634.916,520.424 634.916,515.596 L634.916,483.412 C634.916,478.585 637.169,476.332 641.997,476.332 L832.846,476.332 C881.122,476.332 909.122,499.504 909.122,533.619 C909.122,562.906 884.340,584.148 841.214,589.297 C838.640,589.619 838.640,590.584 841.214,591.228 C857.628,596.056 867.283,606.676 872.111,622.124 L881.444,653.021 C881.766,654.308 883.053,655.274 884.340,655.274 L915.237,655.274 C920.064,655.274 922.317,657.527 922.317,662.354 L922.317,694.538 C922.317,699.366 920.064,701.618 915.237,701.618 ZM806.134,522.677 L748.203,522.677 C746.594,522.677 745.628,523.642 745.628,525.251 L745.628,563.228 C745.628,564.837 746.594,565.803 748.203,565.803 L806.134,565.803 C826.088,565.803 836.387,558.079 836.387,544.240 C836.387,530.401 826.088,522.677 806.134,522.677 ZM465.635,706.446 C377.451,706.446 318.877,659.458 318.877,588.975 C318.877,518.493 377.451,471.504 465.635,471.504 C553.819,471.504 612.393,518.493 612.393,588.975 C612.393,659.458 553.819,706.446 465.635,706.446 ZM465.635,518.815 C421.543,518.815 391.612,544.883 391.612,588.975 C391.612,633.067 421.543,659.136 465.635,659.136 C509.727,659.136 539.658,633.067 539.658,588.975 C539.658,544.883 509.727,518.815 465.635,518.815 ZM283.802,575.780 L253.228,575.780 C248.400,575.780 245.825,573.527 245.182,568.699 L240.032,525.251 C239.710,523.642 238.745,522.677 237.136,522.677 L131.895,522.677 C130.286,522.677 129.320,523.642 129.320,525.251 L129.320,565.803 C129.320,567.412 130.286,568.378 131.895,568.378 L198.193,568.378 C202.699,568.378 204.630,570.630 204.630,575.458 L204.630,606.354 C204.630,611.182 202.699,613.435 198.193,613.435 L131.895,613.435 C130.286,613.435 129.320,614.400 129.320,616.010 L129.320,652.699 C129.320,654.308 130.286,655.274 131.895,655.274 L170.515,655.274 C175.343,655.274 177.596,657.527 177.596,662.354 L177.596,694.538 C177.596,699.366 175.343,701.618 170.515,701.618 L25.688,701.618 C20.861,701.618 18.608,699.366 18.608,694.538 L18.608,662.354 C18.608,657.527 20.861,655.274 25.688,655.274 L59.803,655.274 C61.412,655.274 62.378,654.308 62.378,652.699 L62.378,525.251 C62.378,523.642 61.412,522.677 59.803,522.677 L25.688,522.677 C20.861,522.677 18.608,520.424 18.608,515.596 L18.608,483.412 C18.608,478.585 20.861,476.332 25.688,476.332 L283.802,476.332 C288.630,476.332 290.883,478.585 290.883,483.412 L290.883,568.699 C290.883,573.527 288.630,575.780 283.802,575.780 Z"/>
<path fill-rule="evenodd"  fill="rgb(2, 17, 58)"
 d="M2718.657,872.923 C2705.844,872.923 2698.725,879.567 2698.725,890.482 C2698.725,901.397 2705.844,909.464 2731.470,924.650 C2775.130,950.751 2794.112,980.174 2794.112,1022.884 C2794.112,1075.561 2755.672,1113.051 2697.776,1113.051 C2665.980,1113.051 2636.558,1101.662 2617.575,1088.374 L2634.185,1018.139 C2653.167,1031.901 2672.624,1042.816 2692.081,1042.816 C2704.420,1042.816 2712.962,1035.223 2712.962,1024.308 C2712.962,1012.444 2702.047,1002.004 2673.099,983.970 C2638.456,962.140 2618.050,936.040 2618.050,892.854 C2618.050,839.704 2653.167,803.162 2712.013,803.162 C2741.910,803.162 2773.231,814.552 2791.265,827.365 L2774.655,897.600 C2755.198,881.940 2735.266,872.923 2718.657,872.923 ZM2442.940,809.806 L2595.749,809.806 L2595.749,875.770 L2521.243,875.770 L2521.243,924.176 L2575.342,924.176 L2575.342,990.140 L2521.243,990.140 L2521.243,1040.443 L2595.749,1040.443 L2595.749,1106.407 L2442.940,1106.407 L2442.940,809.806 ZM2262.610,1106.407 L2205.663,809.806 L2285.864,809.806 L2312.914,1011.495 L2339.964,809.806 L2420.165,809.806 L2363.217,1106.407 L2262.610,1106.407 ZM2103.160,809.806 L2182.886,809.806 L2182.886,1106.407 L2103.160,1106.407 L2103.160,809.806 ZM1931.371,809.806 L2011.098,809.806 L2011.098,1036.647 L2077.536,1036.647 L2077.536,1106.407 L1931.371,1106.407 L1931.371,809.806 ZM1698.842,965.462 L1698.842,1106.407 L1624.810,1106.407 L1624.810,809.806 L1706.435,809.806 L1750.094,941.734 L1750.094,809.806 L1824.126,809.806 L1824.126,1108.305 L1746.298,1108.305 L1698.842,965.462 ZM1518.038,1052.307 L1462.989,1052.307 L1454.921,1106.407 L1378.991,1106.407 L1439.260,809.806 L1541.766,809.806 L1602.035,1106.407 L1526.105,1106.407 L1518.038,1052.307 ZM1490.513,882.414 L1473.903,986.343 L1506.648,986.343 L1490.513,882.414 ZM1276.488,809.806 L1356.214,809.806 L1356.214,1106.407 L1276.488,1106.407 L1276.488,809.806 ZM1115.141,965.462 L1115.141,1106.407 L1041.110,1106.407 L1041.110,809.806 L1122.734,809.806 L1166.394,941.734 L1166.394,809.806 L1240.425,809.806 L1240.425,1108.305 L1162.597,1108.305 L1115.141,965.462 ZM925.318,809.806 L1005.045,809.806 L1005.045,1106.407 L925.318,1106.407 L925.318,809.806 ZM818.546,1052.307 L763.497,1052.307 L755.429,1106.407 L679.500,1106.407 L739.769,809.806 L842.274,809.806 L902.544,1106.407 L826.614,1106.407 L818.546,1052.307 ZM791.022,882.414 L774.412,986.343 L807.157,986.343 L791.022,882.414 ZM584.117,1106.407 L553.270,1017.664 L545.677,1018.613 L545.677,1106.407 L465.951,1106.407 L465.951,809.806 L570.354,809.806 C627.776,809.806 658.148,846.822 658.148,907.566 C658.148,949.802 646.284,978.750 623.031,994.411 L668.114,1106.407 L584.117,1106.407 ZM554.219,875.770 L545.677,875.770 L545.677,956.920 L557.067,955.497 C570.829,953.598 577.473,943.158 577.473,914.210 C577.473,884.787 568.931,875.770 554.219,875.770 ZM358.229,1106.407 L315.993,990.614 L314.095,990.614 L314.095,1106.407 L234.369,1106.407 L234.369,809.806 L314.095,809.806 L314.095,927.972 L315.993,927.972 L356.806,809.806 L440.329,809.806 L382.907,953.598 L443.176,1106.407 L358.229,1106.407 ZM102.445,1113.051 C44.074,1113.051 5.634,1077.933 5.634,1009.597 L5.634,809.806 L85.361,809.806 L85.361,1015.291 C85.361,1034.274 92.479,1041.392 102.445,1041.392 C112.411,1041.392 119.529,1034.274 119.529,1015.291 L119.529,809.806 L199.255,809.806 L199.255,1009.597 C199.255,1077.933 160.816,1113.051 102.445,1113.051 Z"/>
</svg>