<?xml version="1.0" encoding="UTF-8"?>
<svg width="250px" height="143px" viewBox="0 0 250 143" version="1.1" xmlns="http://www.w3.org/2000/svg" xmlns:xlink="http://www.w3.org/1999/xlink">
    <title>demo</title>
    <g id="Page-1" stroke="none" stroke-width="1" fill="none" fill-rule="evenodd">
        <g id="demo" transform="translate(0.150000, 0.600000)" fill="#011139" fill-rule="nonzero">
            <g id="2198-mi." transform="translate(0.890000, 0.000000)">
                <path d="M2.04,44.4 L2.04,36.3 L14.88,22.92 C16.44,21.32 17.56,19.92 18.24,18.72 C18.92,17.52 19.26,16.3 19.26,15.06 C19.26,13.54 18.75,12.4 17.73,11.64 C16.71,10.88 15.24,10.5 13.32,10.5 C11.72,10.5 10.09,10.79 8.43,11.37 C6.77,11.95 5.1,12.88 3.42,14.16 L0,6.12 C1.88,4.68 4.14,3.54 6.78,2.7 C9.42,1.86 12.14,1.44 14.94,1.44 C19.86,1.44 23.61,2.5 26.19,4.62 C28.77,6.74 30.06,9.8 30.06,13.8 C30.06,16.36 29.47,18.81 28.29,21.15 C27.11,23.49 25.16,25.98 22.44,28.62 L12.6,38.22 L12.6,35.4 L31.62,35.4 L31.62,44.4 L2.04,44.4 Z" id="Path"></path>
                <polygon id="Path" points="39.42 44.4 39.42 35.4 48.9 35.4 48.9 11.28 53.94 11.28 40.44 18.96 40.44 8.76 52.08 2.1 59.94 2.1 59.94 35.4 68.76 35.4 68.76 44.4"></polygon>
                <path d="M84.3,45.06 C81.94,45.06 79.64,44.68 77.4,43.92 C75.16,43.16 73.16,42.08 71.4,40.68 L74.82,32.64 C76.26,33.76 77.8,34.6 79.44,35.16 C81.08,35.72 82.72,36 84.36,36 C87.4,36 89.68,35.07 91.2,33.21 C92.72,31.35 93.48,28.56 93.48,24.84 L93.48,21.72 L94.44,21.72 C94.08,23.4 93.41,24.86 92.43,26.1 C91.45,27.34 90.24,28.28 88.8,28.92 C87.36,29.56 85.74,29.88 83.94,29.88 C81.66,29.88 79.58,29.29 77.7,28.11 C75.82,26.93 74.34,25.29 73.26,23.19 C72.18,21.09 71.64,18.74 71.64,16.14 C71.64,13.26 72.26,10.72 73.5,8.52 C74.74,6.32 76.47,4.59 78.69,3.33 C80.91,2.07 83.44,1.44 86.28,1.44 C91.88,1.44 96.2,3.3 99.24,7.02 C102.28,10.74 103.8,16.02 103.8,22.86 C103.8,27.5 103.03,31.48 101.49,34.8 C99.95,38.12 97.71,40.66 94.77,42.42 C91.83,44.18 88.34,45.06 84.3,45.06 Z M86.88,21.48 C87.96,21.48 88.89,21.24 89.67,20.76 C90.45,20.28 91.06,19.6 91.5,18.72 C91.94,17.84 92.16,16.82 92.16,15.66 C92.16,14.5 91.94,13.48 91.5,12.6 C91.06,11.72 90.45,11.04 89.67,10.56 C88.89,10.08 87.96,9.84 86.88,9.84 C85.84,9.84 84.93,10.08 84.15,10.56 C83.37,11.04 82.76,11.72 82.32,12.6 C81.88,13.48 81.66,14.5 81.66,15.66 C81.66,16.82 81.88,17.84 82.32,18.72 C82.76,19.6 83.37,20.28 84.15,20.76 C84.93,21.24 85.84,21.48 86.88,21.48 Z" id="Shape"></path>
                <path d="M123.96,45.06 C118.84,45.06 114.81,43.98 111.87,41.82 C108.93,39.66 107.46,36.66 107.46,32.82 C107.46,29.78 108.36,27.27 110.16,25.29 C111.96,23.31 114.24,22.16 117,21.84 L117,23.58 C114.52,23.06 112.5,21.85 110.94,19.95 C109.38,18.05 108.6,15.74 108.6,13.02 C108.6,9.42 109.98,6.59 112.74,4.53 C115.5,2.47 119.24,1.44 123.96,1.44 C128.72,1.44 132.48,2.47 135.24,4.53 C138,6.59 139.38,9.42 139.38,13.02 C139.38,15.78 138.62,18.12 137.1,20.04 C135.58,21.96 133.6,23.12 131.16,23.52 L131.16,21.84 C133.92,22.24 136.16,23.43 137.88,25.41 C139.6,27.39 140.46,29.86 140.46,32.82 C140.46,36.66 139,39.66 136.08,41.82 C133.16,43.98 129.12,45.06 123.96,45.06 Z M123.96,36.78 C126.12,36.78 127.75,36.37 128.85,35.55 C129.95,34.73 130.5,33.54 130.5,31.98 C130.5,30.38 129.95,29.18 128.85,28.38 C127.75,27.58 126.12,27.18 123.96,27.18 C121.84,27.18 120.22,27.58 119.1,28.38 C117.98,29.18 117.42,30.38 117.42,31.98 C117.42,33.54 117.98,34.73 119.1,35.55 C120.22,36.37 121.84,36.78 123.96,36.78 Z M123.96,18.84 C125.68,18.84 127.01,18.43 127.95,17.61 C128.89,16.79 129.36,15.68 129.36,14.28 C129.36,12.88 128.89,11.77 127.95,10.95 C127.01,10.13 125.68,9.72 123.96,9.72 C122.24,9.72 120.91,10.13 119.97,10.95 C119.03,11.77 118.56,12.88 118.56,14.28 C118.56,15.68 119.03,16.79 119.97,17.61 C120.91,18.43 122.24,18.84 123.96,18.84 Z" id="Shape"></path>
                <path d="M162.6,44.4 L162.6,22.2 C162.6,20.84 162.56,19.46 162.48,18.06 C162.4,16.66 162.28,15.28 162.12,13.92 L172.44,13.92 L173.04,19.2 L172.38,19.2 C173.26,17.36 174.56,15.91 176.28,14.85 C178,13.79 180.02,13.26 182.34,13.26 C184.58,13.26 186.49,13.79 188.07,14.85 C189.65,15.91 190.8,17.58 191.52,19.86 L190.5,19.86 C191.5,17.78 192.95,16.16 194.85,15 C196.75,13.84 198.88,13.26 201.24,13.26 C204.72,13.26 207.32,14.31 209.04,16.41 C210.76,18.51 211.62,21.78 211.62,26.22 L211.62,44.4 L200.88,44.4 L200.88,26.58 C200.88,24.7 200.6,23.37 200.04,22.59 C199.48,21.81 198.58,21.42 197.34,21.42 C195.78,21.42 194.57,21.98 193.71,23.1 C192.85,24.22 192.42,25.76 192.42,27.72 L192.42,44.4 L181.74,44.4 L181.74,26.58 C181.74,24.7 181.45,23.37 180.87,22.59 C180.29,21.81 179.4,21.42 178.2,21.42 C176.64,21.42 175.43,21.98 174.57,23.1 C173.71,24.22 173.28,25.76 173.28,27.72 L173.28,44.4 L162.6,44.4 Z" id="Path"></path>
                <path d="M218.04,44.4 L218.04,13.92 L228.72,13.92 L228.72,44.4 L218.04,44.4 Z M217.8,9.6 L217.8,0 L229.02,0 L229.02,9.6 L217.8,9.6 Z" id="Shape"></path>
                <polygon id="Path" points="234.6 44.4 234.6 33.48 245.7 33.48 245.7 44.4"></polygon>
            </g>
            <g id="for-saving" transform="translate(0.000000, 57.400000)">
                <path d="M4.75,37 L4.75,18.15 L0,18.15 L0,11.6 L7.25,11.6 L4.75,13.9 L4.75,10.45 C4.75,6.95 5.66666667,4.33333333 7.5,2.6 C9.33333333,0.866666667 12.1,0 15.8,0 C16.6333333,0 17.5166667,0.05 18.45,0.15 C19.3833333,0.25 20.2166667,0.45 20.95,0.75 L20.95,7.55 C20.4833333,7.38333333 19.95,7.25833333 19.35,7.175 C18.75,7.09166667 18.1666667,7.05 17.6,7.05 C16.9333333,7.05 16.2916667,7.15833333 15.675,7.375 C15.0583333,7.59166667 14.5583333,7.96666667 14.175,8.5 C13.7916667,9.03333333 13.6,9.76666667 13.6,10.7 L13.6,12.95 L12.35,11.6 L19.75,11.6 L19.75,18.15 L13.65,18.15 L13.65,37 L4.75,37 Z" id="Path"></path>
                <path d="M34.95,37.55 C32.1166667,37.55 29.6666667,37.0166667 27.6,35.95 C25.5333333,34.8833333 23.9333333,33.3583333 22.8,31.375 C21.6666667,29.3916667 21.1,27.0333333 21.1,24.3 C21.1,21.5333333 21.6666667,19.1666667 22.8,17.2 C23.9333333,15.2333333 25.5333333,13.7166667 27.6,12.65 C29.6666667,11.5833333 32.1166667,11.05 34.95,11.05 C37.75,11.05 40.1833333,11.5833333 42.25,12.65 C44.3166667,13.7166667 45.9166667,15.2416667 47.05,17.225 C48.1833333,19.2083333 48.75,21.5666667 48.75,24.3 C48.75,27 48.1833333,29.35 47.05,31.35 C45.9166667,33.35 44.3166667,34.8833333 42.25,35.95 C40.1833333,37.0166667 37.75,37.55 34.95,37.55 Z M34.95,30.95 C36.4166667,30.95 37.5833333,30.425 38.45,29.375 C39.3166667,28.325 39.75,26.6333333 39.75,24.3 C39.75,21.9666667 39.3166667,20.275 38.45,19.225 C37.5833333,18.175 36.4166667,17.65 34.95,17.65 C33.45,17.65 32.2666667,18.175 31.4,19.225 C30.5333333,20.275 30.1,21.9666667 30.1,24.3 C30.1,26.6333333 30.5333333,28.325 31.4,29.375 C32.2666667,30.425 33.45,30.95 34.95,30.95 Z" id="Shape"></path>
                <path d="M53.1,37 L53.1,18.55 C53.1,17.3833333 53.0666667,16.2166667 53,15.05 C52.9333333,13.8833333 52.8333333,12.7333333 52.7,11.6 L61.3,11.6 L62.25,19.4 L60.9,19.4 C61.2333333,17.5 61.7666667,15.9333333 62.5,14.7 C63.2333333,13.4666667 64.15,12.55 65.25,11.95 C66.35,11.35 67.65,11.05 69.15,11.05 C69.85,11.05 70.375,11.075 70.725,11.125 C71.075,11.175 71.45,11.2833333 71.85,11.45 L71.85,19.25 C71.0166667,18.8833333 70.35,18.65 69.85,18.55 C69.35,18.45 68.7,18.4 67.9,18.4 C66.5333333,18.4 65.4166667,18.6416667 64.55,19.125 C63.6833333,19.6083333 63.0583333,20.35 62.675,21.35 C62.2916667,22.35 62.1,23.6333333 62.1,25.2 L62.1,37 L53.1,37 Z" id="Path"></path>
                <path d="M98.75,37.55 C96.3833333,37.55 94.2416667,37.3083333 92.325,36.825 C90.4083333,36.3416667 88.7833333,35.6833333 87.45,34.85 L89.6,29.05 C90.9,29.7833333 92.3583333,30.3833333 93.975,30.85 C95.5916667,31.3166667 97.2,31.55 98.8,31.55 C100.066667,31.55 100.991667,31.3583333 101.575,30.975 C102.158333,30.5916667 102.45,30.0833333 102.45,29.45 C102.45,28.95 102.266667,28.55 101.9,28.25 C101.533333,27.95 100.983333,27.7333333 100.25,27.6 L94.85,26.65 C92.7166667,26.25 91.0583333,25.4583333 89.875,24.275 C88.6916667,23.0916667 88.1,21.55 88.1,19.65 C88.1,17.9166667 88.5666667,16.4083333 89.5,15.125 C90.4333333,13.8416667 91.7666667,12.8416667 93.5,12.125 C95.2333333,11.4083333 97.2833333,11.05 99.65,11.05 C101.583333,11.05 103.425,11.2666667 105.175,11.7 C106.925,12.1333333 108.45,12.8166667 109.75,13.75 L107.45,19.4 C106.416667,18.7 105.208333,18.125 103.825,17.675 C102.441667,17.225 101.15,17 99.95,17 C98.5166667,17 97.5,17.2083333 96.9,17.625 C96.3,18.0416667 96,18.55 96,19.15 C96,19.6166667 96.1666667,20.0083333 96.5,20.325 C96.8333333,20.6416667 97.3666667,20.8666667 98.1,21 L103.5,21.95 C105.7,22.3166667 107.391667,23.075 108.575,24.225 C109.758333,25.375 110.35,26.9333333 110.35,28.9 C110.35,30.7333333 109.858333,32.2916667 108.875,33.575 C107.891667,34.8583333 106.533333,35.8416667 104.8,36.525 C103.066667,37.2083333 101.05,37.55 98.75,37.55 Z" id="Path"></path>
                <path d="M124.3,37.55 C122.1,37.55 120.166667,37.025 118.5,35.975 C116.833333,34.925 115.525,33.4 114.575,31.4 C113.625,29.4 113.15,27.0333333 113.15,24.3 C113.15,21.5333333 113.625,19.1583333 114.575,17.175 C115.525,15.1916667 116.833333,13.675 118.5,12.625 C120.166667,11.575 122.1,11.05 124.3,11.05 C126.266667,11.05 128.041667,11.5166667 129.625,12.45 C131.208333,13.3833333 132.25,14.6 132.75,16.1 L132.25,16.1 L132.8,11.6 L141.35,11.6 C141.25,12.7333333 141.158333,13.8833333 141.075,15.05 C140.991667,16.2166667 140.95,17.3666667 140.95,18.5 L140.95,37 L132.15,37 L132.05,32.7 L132.65,32.7 C132.15,34.1666667 131.108333,35.3416667 129.525,36.225 C127.941667,37.1083333 126.2,37.55 124.3,37.55 Z M127.15,30.95 C128.65,30.95 129.866667,30.425 130.8,29.375 C131.733333,28.325 132.2,26.6333333 132.2,24.3 C132.2,21.9666667 131.733333,20.275 130.8,19.225 C129.866667,18.175 128.65,17.65 127.15,17.65 C125.65,17.65 124.433333,18.175 123.5,19.225 C122.566667,20.275 122.1,21.9666667 122.1,24.3 C122.1,26.6333333 122.558333,28.325 123.475,29.375 C124.391667,30.425 125.616667,30.95 127.15,30.95 Z" id="Shape"></path>
                <polygon id="Path" points="153.65 37 142.6 11.6 151.95 11.6 158.5 28.5 156.7 28.5 163.55 11.6 172.3 11.6 161.15 37"></polygon>
                <path d="M174.2,37 L174.2,11.6 L183.1,11.6 L183.1,37 L174.2,37 Z M174,8 L174,0 L183.35,0 L183.35,8 L174,8 Z" id="Shape"></path>
                <path d="M188.6,37 L188.6,18.5 C188.6,17.3666667 188.566667,16.2166667 188.5,15.05 C188.433333,13.8833333 188.333333,12.7333333 188.2,11.6 L196.8,11.6 L197.3,16 L196.75,16 C197.583333,14.4 198.766667,13.175 200.3,12.325 C201.833333,11.475 203.566667,11.05 205.5,11.05 C208.466667,11.05 210.691667,11.925 212.175,13.675 C213.658333,15.425 214.4,18.15 214.4,21.85 L214.4,37 L205.5,37 L205.5,22.25 C205.5,20.6166667 205.216667,19.475 204.65,18.825 C204.083333,18.175 203.266667,17.85 202.2,17.85 C200.8,17.85 199.666667,18.3083333 198.8,19.225 C197.933333,20.1416667 197.5,21.35 197.5,22.85 L197.5,37 L188.6,37 Z" id="Path"></path>
                <path d="M232.2,48.2 C229.666667,48.2 227.441667,47.975 225.525,47.525 C223.608333,47.075 221.883333,46.3833333 220.35,45.45 L221.9,39.15 C222.8,39.6833333 223.783333,40.1333333 224.85,40.5 C225.916667,40.8666667 227.025,41.1416667 228.175,41.325 C229.325,41.5083333 230.416667,41.6 231.45,41.6 C233.583333,41.6 235.166667,41.1083333 236.2,40.125 C237.233333,39.1416667 237.75,37.75 237.75,35.95 L237.75,31.5 L238.25,31.5 C237.716667,32.9666667 236.666667,34.1416667 235.1,35.025 C233.533333,35.9083333 231.8,36.35 229.9,36.35 C227.633333,36.35 225.658333,35.8416667 223.975,34.825 C222.291667,33.8083333 220.975,32.35 220.025,30.45 C219.075,28.55 218.6,26.3 218.6,23.7 C218.6,21.1 219.075,18.85 220.025,16.95 C220.975,15.05 222.291667,13.5916667 223.975,12.575 C225.658333,11.5583333 227.633333,11.05 229.9,11.05 C231.866667,11.05 233.6,11.4833333 235.1,12.35 C236.6,13.2166667 237.616667,14.3666667 238.15,15.8 L237.75,15.7 L238.3,11.6 L246.85,11.6 C246.716667,12.7333333 246.616667,13.8833333 246.55,15.05 C246.483333,16.2166667 246.45,17.3666667 246.45,18.5 L246.45,34.95 C246.45,39.2166667 245.233333,42.4916667 242.8,44.775 C240.366667,47.0583333 236.833333,48.2 232.2,48.2 Z M232.65,29.75 C234.183333,29.75 235.4,29.2333333 236.3,28.2 C237.2,27.1666667 237.65,25.6666667 237.65,23.7 C237.65,21.7 237.2,20.1916667 236.3,19.175 C235.4,18.1583333 234.183333,17.65 232.65,17.65 C231.083333,17.65 229.85,18.1583333 228.95,19.175 C228.05,20.1916667 227.6,21.7 227.6,23.7 C227.6,25.6666667 228.05,27.1666667 228.95,28.2 C229.85,29.2333333 231.083333,29.75 232.65,29.75 Z" id="Shape"></path>
            </g>
            <g id="Ukrainian-lives" transform="translate(1.958000, 116.240000)">
                <path d="M10.744,25.534 C7.16266667,25.534 4.47666667,24.65 2.686,22.882 C0.895333333,21.114 0,18.4733333 0,14.96 L0,1.19 L6.256,1.19 L6.256,14.994 C6.256,16.7393333 6.61866667,18.0596667 7.344,18.955 C8.06933333,19.8503333 9.20266667,20.298 10.744,20.298 C12.2853333,20.298 13.4186667,19.8503333 14.144,18.955 C14.8693333,18.0596667 15.232,16.7393333 15.232,14.994 L15.232,1.19 L21.42,1.19 L21.42,14.96 C21.42,18.4733333 20.536,21.114 18.768,22.882 C17,24.65 14.3253333,25.534 10.744,25.534 Z" id="Path"></path>
                <polygon id="Path" points="25.296 25.16 25.296 0.136 31.348 0.136 31.348 14.858 31.416 14.858 37.196 7.888 44.336 7.888 36.516 17.136 36.516 15.062 44.642 25.16 37.332 25.16 31.416 17.918 31.348 17.918 31.348 25.16"></polygon>
                <path d="M45.56,25.16 L45.56,12.614 C45.56,11.8206667 45.5373333,11.0273333 45.492,10.234 C45.4466667,9.44066667 45.3786667,8.65866667 45.288,7.888 L51.136,7.888 L51.782,13.192 L50.864,13.192 C51.0906667,11.9 51.4533333,10.8346667 51.952,9.996 C52.4506667,9.15733333 53.074,8.534 53.822,8.126 C54.57,7.718 55.454,7.514 56.474,7.514 C56.95,7.514 57.307,7.531 57.545,7.565 C57.783,7.599 58.038,7.67266667 58.31,7.786 L58.31,13.09 C57.7433333,12.8406667 57.29,12.682 56.95,12.614 C56.61,12.546 56.168,12.512 55.624,12.512 C54.6946667,12.512 53.9353333,12.6763333 53.346,13.005 C52.7566667,13.3336667 52.3316667,13.838 52.071,14.518 C51.8103333,15.198 51.68,16.0706667 51.68,17.136 L51.68,25.16 L45.56,25.16 Z" id="Path"></path>
                <path d="M66.776,25.534 C65.28,25.534 63.9653333,25.177 62.832,24.463 C61.6986667,23.749 60.809,22.712 60.163,21.352 C59.517,19.992 59.194,18.3826667 59.194,16.524 C59.194,14.6426667 59.517,13.0276667 60.163,11.679 C60.809,10.3303333 61.6986667,9.299 62.832,8.585 C63.9653333,7.871 65.28,7.514 66.776,7.514 C68.1133333,7.514 69.3203333,7.83133333 70.397,8.466 C71.4736667,9.10066667 72.182,9.928 72.522,10.948 L72.182,10.948 L72.556,7.888 L78.37,7.888 C78.302,8.65866667 78.2396667,9.44066667 78.183,10.234 C78.1263333,11.0273333 78.098,11.8093333 78.098,12.58 L78.098,25.16 L72.114,25.16 L72.046,22.236 L72.454,22.236 C72.114,23.2333333 71.4056667,24.0323333 70.329,24.633 C69.2523333,25.2336667 68.068,25.534 66.776,25.534 Z M68.714,21.046 C69.734,21.046 70.5613333,20.689 71.196,19.975 C71.8306667,19.261 72.148,18.1106667 72.148,16.524 C72.148,14.9373333 71.8306667,13.787 71.196,13.073 C70.5613333,12.359 69.734,12.002 68.714,12.002 C67.694,12.002 66.8666667,12.359 66.232,13.073 C65.5973333,13.787 65.28,14.9373333 65.28,16.524 C65.28,18.1106667 65.5916667,19.261 66.215,19.975 C66.8383333,20.689 67.6713333,21.046 68.714,21.046 Z" id="Shape"></path>
                <path d="M81.872,25.16 L81.872,7.888 L87.924,7.888 L87.924,25.16 L81.872,25.16 Z M81.736,5.44 L81.736,0 L88.094,0 L88.094,5.44 L81.736,5.44 Z" id="Shape"></path>
                <path d="M91.664,25.16 L91.664,12.58 C91.664,11.8093333 91.6413333,11.0273333 91.596,10.234 C91.5506667,9.44066667 91.4826667,8.65866667 91.392,7.888 L97.24,7.888 L97.58,10.88 L97.206,10.88 C97.7726667,9.792 98.5773333,8.959 99.62,8.381 C100.662667,7.803 101.841333,7.514 103.156,7.514 C105.173333,7.514 106.686333,8.109 107.695,9.299 C108.703667,10.489 109.208,12.342 109.208,14.858 L109.208,25.16 L103.156,25.16 L103.156,15.13 C103.156,14.0193333 102.963333,13.243 102.578,12.801 C102.192667,12.359 101.637333,12.138 100.912,12.138 C99.96,12.138 99.1893333,12.4496667 98.6,13.073 C98.0106667,13.6963333 97.716,14.518 97.716,15.538 L97.716,25.16 L91.664,25.16 Z" id="Path"></path>
                <path d="M112.846,25.16 L112.846,7.888 L118.898,7.888 L118.898,25.16 L112.846,25.16 Z M112.71,5.44 L112.71,0 L119.068,0 L119.068,5.44 L112.71,5.44 Z" id="Shape"></path>
                <path d="M129.438,25.534 C127.942,25.534 126.627333,25.177 125.494,24.463 C124.360667,23.749 123.471,22.712 122.825,21.352 C122.179,19.992 121.856,18.3826667 121.856,16.524 C121.856,14.6426667 122.179,13.0276667 122.825,11.679 C123.471,10.3303333 124.360667,9.299 125.494,8.585 C126.627333,7.871 127.942,7.514 129.438,7.514 C130.775333,7.514 131.982333,7.83133333 133.059,8.466 C134.135667,9.10066667 134.844,9.928 135.184,10.948 L134.844,10.948 L135.218,7.888 L141.032,7.888 C140.964,8.65866667 140.901667,9.44066667 140.845,10.234 C140.788333,11.0273333 140.76,11.8093333 140.76,12.58 L140.76,25.16 L134.776,25.16 L134.708,22.236 L135.116,22.236 C134.776,23.2333333 134.067667,24.0323333 132.991,24.633 C131.914333,25.2336667 130.73,25.534 129.438,25.534 Z M131.376,21.046 C132.396,21.046 133.223333,20.689 133.858,19.975 C134.492667,19.261 134.81,18.1106667 134.81,16.524 C134.81,14.9373333 134.492667,13.787 133.858,13.073 C133.223333,12.359 132.396,12.002 131.376,12.002 C130.356,12.002 129.528667,12.359 128.894,13.073 C128.259333,13.787 127.942,14.9373333 127.942,16.524 C127.942,18.1106667 128.253667,19.261 128.877,19.975 C129.500333,20.689 130.333333,21.046 131.376,21.046 Z" id="Shape"></path>
                <path d="M144.534,25.16 L144.534,12.58 C144.534,11.8093333 144.511333,11.0273333 144.466,10.234 C144.420667,9.44066667 144.352667,8.65866667 144.262,7.888 L150.11,7.888 L150.45,10.88 L150.076,10.88 C150.642667,9.792 151.447333,8.959 152.49,8.381 C153.532667,7.803 154.711333,7.514 156.026,7.514 C158.043333,7.514 159.556333,8.109 160.565,9.299 C161.573667,10.489 162.078,12.342 162.078,14.858 L162.078,25.16 L156.026,25.16 L156.026,15.13 C156.026,14.0193333 155.833333,13.243 155.448,12.801 C155.062667,12.359 154.507333,12.138 153.782,12.138 C152.83,12.138 152.059333,12.4496667 151.47,13.073 C150.880667,13.6963333 150.586,14.518 150.586,15.538 L150.586,25.16 L144.534,25.16 Z" id="Path"></path>
                <polygon id="Path" points="175.542 25.16 175.542 0.136 181.594 0.136 181.594 25.16"></polygon>
                <path d="M185.334,25.16 L185.334,7.888 L191.386,7.888 L191.386,25.16 L185.334,25.16 Z M185.198,5.44 L185.198,0 L191.556,0 L191.556,5.44 L185.198,5.44 Z" id="Shape"></path>
                <polygon id="Path" points="200.158 25.16 192.644 7.888 199.002 7.888 203.456 19.38 202.232 19.38 206.89 7.888 212.84 7.888 205.258 25.16"></polygon>
                <path d="M222.802,25.534 C219.674,25.534 217.243,24.7293333 215.509,23.12 C213.775,21.5106667 212.908,19.3006667 212.908,16.49 C212.908,14.7446667 213.270667,13.192 213.996,11.832 C214.721333,10.472 215.741333,9.41233333 217.056,8.653 C218.370667,7.89366667 219.912,7.514 221.68,7.514 C223.425333,7.514 224.881667,7.89366667 226.049,8.653 C227.216333,9.41233333 228.094667,10.455 228.684,11.781 C229.273333,13.107 229.568,14.6426667 229.568,16.388 L229.568,17.68 L217.974,17.68 L217.974,14.824 L225.114,14.824 L224.536,15.3 C224.536,14.008 224.292333,13.0503333 223.805,12.427 C223.317667,11.8036667 222.632,11.492 221.748,11.492 C220.728,11.492 219.951667,11.8716667 219.419,12.631 C218.886333,13.3903333 218.62,14.5293333 218.62,16.048 L218.62,16.66 C218.62,18.1786667 218.994,19.2893333 219.742,19.992 C220.49,20.6946667 221.566667,21.046 222.972,21.046 C223.878667,21.046 224.734333,20.944 225.539,20.74 C226.343667,20.536 227.108667,20.2073333 227.834,19.754 L229.398,23.698 C228.536667,24.2873333 227.539333,24.7406667 226.406,25.058 C225.272667,25.3753333 224.071333,25.534 222.802,25.534 Z" id="Path"></path>
                <path d="M239.088,25.534 C237.478667,25.534 236.022333,25.3696667 234.719,25.041 C233.415667,24.7123333 232.310667,24.2646667 231.404,23.698 L232.866,19.754 C233.75,20.2526667 234.741667,20.6606667 235.841,20.978 C236.940333,21.2953333 238.034,21.454 239.122,21.454 C239.983333,21.454 240.612333,21.3236667 241.009,21.063 C241.405667,20.8023333 241.604,20.4566667 241.604,20.026 C241.604,19.686 241.479333,19.414 241.23,19.21 C240.980667,19.006 240.606667,18.8586667 240.108,18.768 L236.436,18.122 C234.985333,17.85 233.857667,17.3116667 233.053,16.507 C232.248333,15.7023333 231.846,14.654 231.846,13.362 C231.846,12.1833333 232.163333,11.1576667 232.798,10.285 C233.432667,9.41233333 234.339333,8.73233333 235.518,8.245 C236.696667,7.75766667 238.090667,7.514 239.7,7.514 C241.014667,7.514 242.267,7.66133333 243.457,7.956 C244.647,8.25066667 245.684,8.71533333 246.568,9.35 L245.004,13.192 C244.301333,12.716 243.479667,12.325 242.539,12.019 C241.598333,11.713 240.72,11.56 239.904,11.56 C238.929333,11.56 238.238,11.7016667 237.83,11.985 C237.422,12.2683333 237.218,12.614 237.218,13.022 C237.218,13.3393333 237.331333,13.6056667 237.558,13.821 C237.784667,14.0363333 238.147333,14.1893333 238.646,14.28 L242.318,14.926 C243.814,15.1753333 244.964333,15.691 245.769,16.473 C246.573667,17.255 246.976,18.3146667 246.976,19.652 C246.976,20.8986667 246.641667,21.9583333 245.973,22.831 C245.304333,23.7036667 244.380667,24.3723333 243.202,24.837 C242.023333,25.3016667 240.652,25.534 239.088,25.534 Z" id="Path"></path>
            </g>
        </g>
    </g>
</svg>