<?xml version="1.0" encoding="UTF-8"?>
<svg width="79px" height="262px" viewBox="0 0 79 262" version="1.1" xmlns="http://www.w3.org/2000/svg" xmlns:xlink="http://www.w3.org/1999/xlink">
    <title>巨 神 像</title>
    <g id="Colossus" stroke="none" stroke-width="1" fill="none" fill-rule="evenodd">
        <g id="Desktop" transform="translate(-358.000000, -734.000000)" fill="#373737" fill-rule="nonzero">
            <g id="巨-神-像" transform="translate(358.862667, 734.812800)">
                <path d="M61.18,0.1472 C61.8546667,-0.0981333333 62.376,-0.0368 62.744,0.3312 C62.928,0.576533333 63.112,0.6992 63.296,0.6992 C63.48,0.6992 63.572,0.7912 63.572,0.9752 C63.572,1.09786667 63.8173333,1.41986667 64.308,1.9412 C64.7986667,2.46253333 65.1053333,2.7232 65.228,2.7232 C65.3506667,2.7232 65.412,2.8152 65.412,2.9992 C65.412,3.1832 65.5653333,3.33653333 65.872,3.4592 C66.1786667,3.58186667 66.378,3.79653333 66.47,4.1032 C66.562,4.40986667 66.6693333,4.5632 66.792,4.5632 C67.16,4.5632 67.16,4.96186667 66.792,5.7592 C66.6693333,5.9432 66.5466667,6.09653333 66.424,6.2192 C66.3013333,6.28053333 65.044,6.3112 62.652,6.3112 C60.1986667,6.24986667 58.926,6.14253333 58.834,5.9892 C58.742,5.83586667 58.466,5.7592 58.006,5.7592 C57.546,5.7592 57.224,5.8512 57.04,6.0352 C56.9173333,6.15786667 56.718,6.2192 56.442,6.2192 C56.166,6.2192 56.028,6.15786667 56.028,6.0352 C56.028,5.91253333 55.9206667,5.8512 55.706,5.8512 C55.4913333,5.8512 55.3226667,5.8972 55.2,5.9892 C55.0773333,6.0812 53.7893333,6.2192 51.336,6.4032 C48.8213333,6.52586667 47.4413333,6.61786667 47.196,6.6792 C46.8893333,6.80186667 46.276,6.89386667 45.356,6.9552 C44.3746667,7.07786667 43.7,7.0472 43.332,6.8632 C42.78,6.4952 42.1666667,6.4952 41.492,6.8632 C41.124,7.0472 40.3573333,7.10853333 39.192,7.0472 C38.0266667,7.0472 36.892,7.07786667 35.788,7.1392 C34.684,7.26186667 33.9786667,7.2312 33.672,7.0472 C33.3653333,6.92453333 32.844,6.89386667 32.108,6.9552 C30.5133333,7.07786667 29.6546667,7.1392 29.532,7.1392 C28.3053333,7.26186667 27.6306667,7.39986667 27.508,7.5532 C27.3853333,7.70653333 27.3853333,8.5192 27.508,9.9912 C27.5693333,11.6472 27.7226667,12.9658667 27.968,13.9472 C28.152,14.8672 28.244,16.1552 28.244,17.8112 C28.244,19.4672 28.29,20.4332 28.382,20.7092 C28.474,20.9852 28.7346667,21.1232 29.164,21.1232 C29.6546667,21.1232 29.992,21.2458667 30.176,21.4912 C30.4826667,22.0432 30.9426667,22.0738667 31.556,21.5832 C31.8626667,21.3378667 33.5186667,21.1845333 36.524,21.1232 C39.468,21.0618667 41.124,20.9238667 41.492,20.7092 C41.86,20.4945333 43.3013333,20.4178667 45.816,20.4792 C48.3306667,20.4792 49.6953333,20.4332 49.91,20.3412 C50.1246667,20.2492 50.3853333,20.0805333 50.692,19.8352 C50.9373333,19.5285333 51.3513333,19.3445333 51.934,19.2832 C52.5166667,19.2218667 53.0533333,18.9765333 53.544,18.5472 C53.9733333,18.1178667 54.188,17.8418667 54.188,17.7192 C54.188,17.5965333 54.464,17.5045333 55.016,17.4432 C55.568,17.3205333 55.89,17.1672 55.982,16.9832 C56.074,16.7992 56.5033333,16.6305333 57.27,16.4772 C58.0366667,16.3238667 58.6346667,16.2778667 59.064,16.3392 C59.4933333,16.4005333 59.7693333,16.5538667 59.892,16.7992 C59.892,17.0445333 60.1373333,17.2592 60.628,17.4432 C61.1186667,17.6272 61.456,17.9338667 61.64,18.3632 C61.824,18.8538667 62.008,19.1298667 62.192,19.1912 C62.2533333,19.2525333 62.2993333,19.3598667 62.33,19.5132 C62.3606667,19.6665333 62.3913333,19.8352 62.422,20.0192 C62.4526667,20.2032 62.468,20.3718667 62.468,20.5252 C62.468,20.6785333 62.4373333,20.8165333 62.376,20.9392 C62.3146667,21.0618667 62.2533333,21.1232 62.192,21.1232 C62.0693333,21.1232 61.8086667,21.3378667 61.41,21.7672 C61.0113333,22.1965333 60.812,22.4725333 60.812,22.5952 C60.812,22.7178667 60.7046667,22.9632 60.49,23.3312 C60.2753333,23.6992 60.1373333,23.8832 60.076,23.8832 C59.9533333,23.8832 59.9073333,25.2478667 59.938,27.9772 C59.9686667,30.7065333 60.0913333,32.1785333 60.306,32.3932 C60.5206667,32.6078667 60.628,32.9452 60.628,33.4052 C60.628,33.8652 60.812,34.2485333 61.18,34.5552 C61.3026667,34.6778667 61.3946667,34.7698667 61.456,34.8312 C61.5173333,34.8925333 61.5786667,35.0152 61.64,35.1992 C61.7013333,35.3832 61.732,35.5518667 61.732,35.7052 C61.732,35.8585333 61.732,36.1192 61.732,36.4872 L61.732,37.9592 L61.088,38.3272 C60.6586667,38.6338667 59.9226667,38.7565333 58.88,38.6952 C57.96,38.6338667 57.3466667,38.5112 57.04,38.3272 C56.7333333,38.1432 56.4266667,38.1432 56.12,38.3272 C55.8133333,38.5112 55.3226667,38.6032 54.648,38.6032 C53.9733333,38.6032 53.544,38.5112 53.36,38.3272 C53.1146667,38.0818667 52.716,37.9592 52.164,37.9592 C51.612,37.9592 51.2133333,38.0818667 50.968,38.3272 C50.784,38.6338667 50.5693333,38.8485333 50.324,38.9712 C49.8946667,39.2165333 46.736,39.4005333 40.848,39.5232 C38.456,39.6458667 37.03,39.6918667 36.57,39.6612 C36.11,39.6305333 35.8186667,39.5538667 35.696,39.4312 C35.5733333,39.1858667 35.2666667,39.0325333 34.776,38.9712 C34.3466667,38.9098667 34.04,39.0018667 33.856,39.2472 C33.3653333,39.7992 32.6906667,39.8298667 31.832,39.3392 C31.464,39.1552 31.096,39.0632 30.728,39.0632 C30.36,39.0632 30.13,39.1552 30.038,39.3392 C29.946,39.5232 29.8386667,39.6152 29.716,39.6152 C29.4706667,39.6152 29.1793333,39.8605333 28.842,40.3512 C28.5046667,40.8418667 28.2746667,41.2712 28.152,41.6392 C28.0906667,42.1298667 27.968,42.5285333 27.784,42.8352 C27.3546667,43.6325333 27.3546667,44.1232 27.784,44.3072 C27.968,44.3685333 28.06,44.7058667 28.06,45.3192 C28.06,45.9325333 28.0906667,46.6685333 28.152,47.5272 C28.2746667,48.3858667 28.1826667,48.9685333 27.876,49.2752 L27.508,49.7352 L27.876,50.4712 C28.1826667,51.0232 28.2746667,51.5445333 28.152,52.0352 C27.7226667,53.3845333 27.6613333,54.1512 27.968,54.3352 C28.0906667,54.5192 28.4893333,54.6418667 29.164,54.7032 C29.7773333,54.7645333 30.084,54.8565333 30.084,54.9792 C30.084,55.1018667 30.2373333,55.1632 30.544,55.1632 C30.8506667,55.1632 31.234,55.1325333 31.694,55.0712 C32.154,55.0098667 32.6293333,54.9178667 33.12,54.7952 C33.672,54.6725333 37.3213333,54.5805333 44.068,54.5192 C50.692,54.4578667 54.0653333,54.3965333 54.188,54.3352 C54.372,54.2738667 54.6786667,54.2125333 55.108,54.1512 C56.6413333,54.0285333 57.684,53.7525333 58.236,53.3232 C58.604,52.9552 59.0946667,52.7405333 59.708,52.6792 C60.3213333,52.6178667 60.6893333,52.4952 60.812,52.3112 C60.9346667,52.1272 61.088,52.0352 61.272,52.0352 C61.456,52.0352 61.5786667,51.9432 61.64,51.7592 C61.7626667,51.5752 61.8853333,51.4832 62.008,51.4832 C62.192,51.4832 62.284,51.4218667 62.284,51.2992 C62.284,51.1765333 62.468,51.0538667 62.836,50.9312 C63.1426667,50.8085333 63.388,50.6245333 63.572,50.3792 C63.6946667,50.1338667 64.0166667,50.0265333 64.538,50.0572 C65.0593333,50.0878667 65.596,50.2565333 66.148,50.5632 C66.7613333,50.8698667 67.1446667,51.1152 67.298,51.2992 C67.4513333,51.4832 67.7733333,51.6672 68.264,51.8512 C68.7546667,52.0352 69.0306667,52.2345333 69.092,52.4492 C69.1533333,52.6638667 69.276,52.7712 69.46,52.7712 C69.644,52.7712 69.736,52.8325333 69.736,52.9552 C69.736,53.0778667 69.9506667,53.3538667 70.38,53.7832 C70.748,54.2125333 70.932,54.7032 70.932,55.2552 C70.932,55.7458667 70.8093333,56.0525333 70.564,56.1752 C70.3186667,56.3592 69.7053333,56.4512 68.724,56.4512 C67.7426667,56.4512 67.1906667,56.3592 67.068,56.1752 C66.884,55.9912 65.964,56.0218667 64.308,56.2672 C63.5106667,56.3898667 60.72,56.4818667 55.936,56.5432 C51.2133333,56.6045333 48.4226667,56.7272 47.564,56.9112 C45.1106667,57.4632 42.6573333,57.5552 40.204,57.1872 C39.2226667,57.0645333 38.456,57.0952 37.904,57.2792 C37.352,57.4632 35.8186667,57.5245333 33.304,57.4632 C31.28,57.4018667 30.0226667,57.3405333 29.532,57.2792 C29.0413333,57.2178667 28.6426667,57.0338667 28.336,56.7272 C28.0906667,56.5432 27.8146667,56.4818667 27.508,56.5432 C27.14,56.6045333 26.956,56.8498667 26.956,57.2792 C26.956,57.7085333 27.0633333,58.0458667 27.278,58.2912 C27.4926667,58.5365333 27.5386667,58.8432 27.416,59.2112 C27.2933333,59.5792 27.278,60.2078667 27.37,61.0972 C27.462,61.9865333 27.6,62.5845333 27.784,62.8912 C27.968,63.1978667 28.06,63.4125333 28.06,63.5352 C28.06,63.6578667 27.8453333,63.9338667 27.416,64.3632 C26.9866667,64.7925333 26.7106667,65.0072 26.588,65.0072 C26.4653333,65.0072 26.404,65.2525333 26.404,65.7432 C26.404,66.3565333 26.22,66.7552 25.852,66.9392 C25.6066667,67.0005333 25.484,67.1232 25.484,67.3072 C25.484,67.4912 25.3766667,67.6138667 25.162,67.6752 C24.9473333,67.7365333 24.748,67.8898667 24.564,68.1352 C24.4413333,68.4418667 24.15,68.5492 23.69,68.4572 C23.23,68.3652 22.7853333,68.1045333 22.356,67.6752 C21.62,66.8778667 21.1906667,66.3718667 21.068,66.1572 C20.9453333,65.9425333 20.884,65.4978667 20.884,64.8232 C20.884,64.0258667 21.0373333,63.1365333 21.344,62.1552 C21.712,61.1738667 21.804,60.2232 21.62,59.3032 C21.4973333,58.3832 21.528,57.5858667 21.712,56.9112 C21.8346667,56.2365333 21.8653333,55.1632 21.804,53.6912 C21.6813333,52.1578667 21.7273333,51.2072 21.942,50.8392 C22.1566667,50.4712 22.3253333,50.2565333 22.448,50.1952 C22.632,50.1338667 22.724,49.6278667 22.724,48.6772 C22.724,47.7265333 22.632,47.2052 22.448,47.1132 C22.264,47.0212 22.2333333,46.8525333 22.356,46.6072 C22.54,46.3618667 22.632,46.0858667 22.632,45.7792 C22.632,45.4725333 22.54,45.3192 22.356,45.3192 C22.172,45.3192 22.0186667,45.0738667 21.896,44.5832 C21.7733333,44.0925333 21.8653333,43.6325333 22.172,43.2032 C22.6013333,42.4058667 22.632,41.6085333 22.264,40.8112 C21.9573333,40.3205333 21.8653333,39.7992 21.988,39.2472 C22.0493333,38.6338667 22.172,38.2045333 22.356,37.9592 C22.54,37.7752 22.6473333,35.5058667 22.678,31.1512 C22.7086667,26.7965333 22.632,24.4045333 22.448,23.9752 C22.264,23.5458667 22.2333333,23.2698667 22.356,23.1472 C22.724,22.6565333 22.7853333,20.4178667 22.54,16.4312 C22.4173333,13.6098667 22.4173333,11.6472 22.54,10.5432 C22.6013333,9.56186667 22.4786667,8.82586667 22.172,8.3352 L21.62,7.5992 L21.712,4.7472 C21.712,3.02986667 21.7733333,1.95653333 21.896,1.5272 C22.0186667,1.09786667 22.3253333,0.8832 22.816,0.8832 C23.184,0.8832 23.736,1.0672 24.472,1.4352 C25.208,1.8032 25.668,1.9872 25.852,1.9872 C25.9746667,1.9872 26.1126667,2.10986667 26.266,2.3552 C26.4193333,2.60053333 26.6033333,2.7232 26.818,2.7232 C27.0326667,2.7232 27.2013333,2.78453333 27.324,2.9072 C27.508,3.21386667 28.06,3.61253333 28.98,4.1032 C29.2866667,4.2872 31.4333333,4.3792 35.42,4.3792 C39.9586667,4.31786667 42.688,4.2872 43.608,4.2872 C45.1413333,4.2872 46.0613333,4.22586667 46.368,4.1032 C47.288,3.61253333 48.024,3.48986667 48.576,3.7352 C49.5573333,4.22586667 50.876,4.40986667 52.532,4.2872 C53.2066667,4.2872 53.9426667,4.1952 54.74,4.0112 C55.5373333,3.8272 55.9666667,3.6432 56.028,3.4592 C56.1506667,3.02986667 56.672,2.75386667 57.592,2.6312 C58.328,2.56986667 58.7266667,2.46253333 58.788,2.3092 C58.8493333,2.15586667 59.018,1.9412 59.294,1.6652 C59.57,1.3892 59.708,1.18986667 59.708,1.0672 C59.708,0.944533333 59.892,0.852533333 60.26,0.7912 C60.628,0.729866667 60.812,0.637866667 60.812,0.5152 C60.812,0.392533333 60.9346667,0.269866667 61.18,0.1472 Z M26.956,15.4192 C27.0173333,15.3578667 27.0173333,15.2658667 26.956,15.1432 C26.8946667,14.9592 26.8333333,14.9592 26.772,15.1432 C26.7106667,15.3272 26.772,15.4192 26.956,15.4192 Z M50.968,23.8832 C50.7226667,23.3312 50.508,23.0245333 50.324,22.9632 C50.14,22.9018667 49.7413333,22.9018667 49.128,22.9632 C48.6373333,23.0858667 46.184,23.1472 41.768,23.1472 C37.536,23.2085333 35.144,23.3005333 34.592,23.4232 C34.224,23.4845333 33.7333333,23.6072 33.12,23.7912 C32.6906667,23.9138667 32.2306667,23.9752 31.74,23.9752 C31.6173333,23.9752 31.418,23.9598667 31.142,23.9292 C30.866,23.8985333 30.6973333,23.8832 30.636,23.8832 C30.3906667,23.8832 29.9613333,23.9292 29.348,24.0212 C28.7346667,24.1132 28.3973333,24.2205333 28.336,24.3432 C28.2746667,24.4045333 28.244,25.2018667 28.244,26.7352 C28.244,28.2685333 28.3053333,29.2498667 28.428,29.6792 C28.612,30.2925333 28.612,31.7032 28.428,33.9112 C28.3053333,36.3032 28.3666667,37.5298667 28.612,37.5912 C28.6733333,37.5912 28.796,37.5298667 28.98,37.4072 C29.2253333,37.3458667 30.4673333,37.2385333 32.706,37.0852 C34.9446667,36.9318667 36.8613333,36.8552 38.456,36.8552 C40.0506667,36.8552 41.2773333,36.7938667 42.136,36.6712 C44.528,36.3645333 46.6133333,36.1498667 48.392,36.0272 C49.6186667,35.9658667 50.2626667,35.9198667 50.324,35.8892 C50.3853333,35.8585333 50.462,35.4598667 50.554,34.6932 C50.646,33.9265333 50.784,33.4512 50.968,33.2672 C51.2133333,33.0218667 51.3206667,32.6845333 51.29,32.2552 C51.2593333,31.8258667 51.152,31.5192 50.968,31.3352 C50.7226667,31.1512 50.6,30.6912 50.6,29.9552 C50.6,29.2192 50.7533333,28.7898667 51.06,28.6672 C51.3666667,28.5445333 51.4893333,28.2685333 51.428,27.8392 C51.3053333,27.4098667 51.336,26.8885333 51.52,26.2752 C51.7653333,25.6618667 51.8113333,25.2632 51.658,25.0792 C51.5046667,24.8952 51.2746667,24.4965333 50.968,23.8832 Z M53.36,25.2632 C53.2986667,25.0792 53.13,24.9872 52.854,24.9872 C52.578,24.9872 52.394,25.0485333 52.302,25.1712 C52.21,25.2938667 52.256,25.5085333 52.44,25.8152 C52.624,26.1218667 52.7773333,26.2752 52.9,26.2752 C53.0226667,26.2752 53.1453333,26.1372 53.268,25.8612 C53.3906667,25.5852 53.4213333,25.3858667 53.36,25.2632 Z M56.028,25.1712 C56.028,24.9872 55.8746667,24.9565333 55.568,25.0792 C55.5066667,25.0792 55.4453333,25.1405333 55.384,25.2632 C55.2613333,25.3858667 55.1693333,25.6005333 55.108,25.9072 C54.9853333,26.2752 55.0466667,26.5205333 55.292,26.6432 C55.9666667,27.0112 56.4573333,26.9805333 56.764,26.5512 C56.948,26.3672 56.8866667,26.1218667 56.58,25.8152 C56.212,25.5085333 56.028,25.2938667 56.028,25.1712 Z M25.852,28.4832 C25.9746667,28.4832 26.036,28.3912 26.036,28.2072 C26.036,28.0232 25.9746667,27.9312 25.852,27.9312 C25.7293333,27.9312 25.668,28.0232 25.668,28.2072 C25.668,28.3912 25.7293333,28.4832 25.852,28.4832 Z" id="Shape"></path>
                <path d="M51.52,92.7192 C51.888,92.5352 52.164,92.5965333 52.348,92.9032 C52.4706667,93.1485333 52.7773333,93.3785333 53.268,93.5932 C53.7586667,93.8078667 54.188,93.9152 54.556,93.9152 C54.924,93.9152 55.3226667,94.1298667 55.752,94.5592 C56.12,94.9885333 56.7026667,95.2338667 57.5,95.2952 C58.2973333,95.3565333 58.8186667,95.4792 59.064,95.6632 C59.3093333,95.9085333 59.524,96.0618667 59.708,96.1232 C59.9533333,96.1845333 60.076,96.4605333 60.076,96.9512 C60.076,97.4418667 59.9533333,97.7792 59.708,97.9632 C59.4626667,98.2085333 59.3093333,98.5152 59.248,98.8832 C59.1866667,99.2512 58.88,99.5885333 58.328,99.8952 L57.592,100.2632 L57.592,101.3672 C57.592,102.4712 57.3466667,103.2072 56.856,103.5752 C56.304,103.9432 56.3653333,104.249867 57.04,104.4952 C57.2853333,104.556533 57.4233333,104.648533 57.454,104.7712 C57.4846667,104.893867 57.4693333,105.261867 57.408,105.8752 C57.3466667,106.672533 57.2393333,107.193867 57.086,107.4392 C56.9326667,107.684533 56.948,107.929867 57.132,108.1752 C57.316,108.420533 57.27,108.696533 56.994,109.0032 C56.718,109.309867 56.6106667,110.260533 56.672,111.8552 C56.7333333,113.3272 56.8253333,114.553867 56.948,115.5352 C57.132,116.761867 57.1626667,117.7432 57.04,118.4792 C56.9786667,119.153867 57.04,119.4912 57.224,119.4912 C57.408,119.4912 57.5613333,119.5832 57.684,119.7672 C57.9293333,120.196533 58.88,120.380533 60.536,120.3192 C61.0266667,120.3192 61.5173333,120.441867 62.008,120.6872 C62.4986667,120.932533 62.9586667,121.024533 63.388,120.9632 C63.8173333,120.9632 64.0933333,120.855867 64.216,120.6412 C64.3386667,120.426533 64.4613333,119.9512 64.584,119.2152 C64.584,118.785867 64.7066667,118.356533 64.952,117.9272 C65.1973333,117.436533 65.1666667,116.8232 64.86,116.0872 C64.6146667,115.5352 64.6146667,115.105867 64.86,114.7992 C64.9826667,114.492533 65.0133333,114.0632 64.952,113.5112 C64.8906667,112.9592 64.7373333,112.560533 64.492,112.3152 C64.2466667,112.008533 63.0813333,111.8552 60.996,111.8552 C59.0333333,111.8552 57.96,111.793867 57.776,111.6712 C57.6533333,111.609867 57.592,111.333867 57.592,110.8432 C57.592,110.536533 57.6226667,110.3372 57.684,110.2452 C57.7453333,110.1532 57.96,110.076533 58.328,110.0152 C58.8186667,109.953867 59.9533333,109.9232 61.732,109.9232 C63.02,109.9232 63.7866667,109.907867 64.032,109.8772 C64.2773333,109.846533 64.492,109.708533 64.676,109.4632 C64.9213333,109.156533 65.044,108.880533 65.044,108.6352 C65.044,108.389867 65.1666667,108.205867 65.412,108.0832 C65.6573333,107.960533 65.872,107.6232 66.056,107.0712 C66.1786667,106.580533 66.3166667,106.3352 66.47,106.3352 C66.6233333,106.3352 66.7306667,106.1512 66.792,105.7832 C66.9146667,105.476533 67.1906667,105.246533 67.62,105.0932 C68.0493333,104.939867 68.4786667,104.893867 68.908,104.9552 C69.2146667,105.077867 69.5826667,105.307867 70.012,105.6452 C70.4413333,105.982533 70.656,106.2432 70.656,106.4272 C70.656,106.549867 70.978,106.856533 71.622,107.3472 C72.266,107.837867 72.68,108.0832 72.864,108.0832 C72.9253333,108.0832 73.094,108.144533 73.37,108.2672 C73.646,108.389867 73.8913333,108.5432 74.106,108.7272 C74.3206667,108.9112 74.428,109.064533 74.428,109.1872 C74.4893333,109.3712 74.6733333,109.539867 74.98,109.6932 C75.2866667,109.846533 75.44,110.0152 75.44,110.1992 C75.44,110.444533 75.3786667,110.720533 75.256,111.0272 C75.1333333,111.333867 75.0106667,111.4872 74.888,111.4872 C74.152,111.4872 73.508,111.7632 72.956,112.3152 C72.6493333,112.621867 72.3733333,112.805867 72.128,112.8672 C71.8826667,112.928533 71.76,113.296533 71.76,113.9712 C71.8213333,114.584533 71.7906667,115.0292 71.668,115.3052 C71.5453333,115.5812 71.5146667,117.773867 71.576,121.8832 C71.6373333,126.1152 71.576,128.292533 71.392,128.4152 C70.9626667,128.721867 70.932,129.181867 71.3,129.7952 C71.4226667,129.9792 71.5146667,130.270533 71.576,130.6692 C71.6373333,131.067867 71.6526667,131.4512 71.622,131.8192 C71.5913333,132.1872 71.5453333,132.3712 71.484,132.3712 C71.1773333,132.3712 71.0546667,133.352533 71.116,135.3152 L71.116,137.3392 L70.564,137.8912 C70.1346667,138.2592 69.92,138.657867 69.92,139.0872 C69.92,139.516533 69.8433333,139.761867 69.69,139.8232 C69.5366667,139.884533 69.4293333,140.068533 69.368,140.3752 C69.2453333,140.681867 69.1073333,140.8352 68.954,140.8352 C68.8006667,140.8352 68.632,140.988533 68.448,141.2952 C68.264,141.601867 67.7426667,141.785867 66.884,141.8472 C66.0253333,141.908533 65.32,141.908533 64.768,141.8472 C64.216,141.785867 63.8786667,141.5712 63.756,141.2032 C63.6333333,140.8352 63.6333333,140.2832 63.756,139.5472 C63.94,137.952533 63.7866667,137.001867 63.296,136.6952 C63.1733333,136.633867 62.9586667,136.6952 62.652,136.8792 C62.1613333,137.2472 61.824,137.185867 61.64,136.6952 C61.5173333,136.5112 61.1953333,136.4192 60.674,136.4192 C60.1526667,136.4192 59.8306667,136.480533 59.708,136.6032 C59.5853333,136.725867 59.34,136.756533 58.972,136.6952 C58.604,136.633867 58.3586667,136.526533 58.236,136.3732 C58.1133333,136.219867 58.006,135.943867 57.914,135.5452 C57.822,135.146533 57.8066667,134.885867 57.868,134.7632 C57.9906667,134.5792 58.3126667,134.471867 58.834,134.4412 C59.3553333,134.410533 59.7693333,134.4872 60.076,134.6712 C60.628,134.916533 61.3946667,134.885867 62.376,134.5792 C62.928,134.3952 63.2806667,134.226533 63.434,134.0732 C63.5873333,133.919867 63.664,133.597867 63.664,133.1072 C63.6026667,132.861867 63.6946667,132.5552 63.94,132.1872 C64.1853333,131.880533 64.3386667,131.4512 64.4,130.8992 C64.4613333,130.3472 64.4306667,129.917867 64.308,129.6112 C64.124,129.2432 64.124,128.9672 64.308,128.7832 C64.4306667,128.5992 64.4766667,127.663867 64.446,125.9772 C64.4153333,124.290533 64.3693333,123.3552 64.308,123.1712 C64.2466667,123.048533 63.756,123.002533 62.836,123.0332 C61.916,123.063867 61.4253333,123.017867 61.364,122.8952 C61.1186667,122.5272 60.076,122.281867 58.236,122.1592 C57.7453333,122.097867 57.4386667,122.082533 57.316,122.1132 C57.1933333,122.143867 57.1013333,122.281867 57.04,122.5272 C56.9173333,122.8952 56.856,123.876533 56.856,125.4712 C56.856,127.065867 56.9173333,127.9552 57.04,128.1392 C57.224,128.445867 57.1933333,128.8752 56.948,129.4272 C56.7026667,129.9792 56.6413333,130.377867 56.764,130.6232 C56.8866667,130.868533 56.9786667,131.757867 57.04,133.2912 C57.04,136.173867 57.0706667,138.0752 57.132,138.9952 C57.1933333,139.9152 57.1933333,140.681867 57.132,141.2952 C57.0093333,142.092533 57.0553333,142.782533 57.27,143.3652 C57.4846667,143.947867 57.5306667,144.4232 57.408,144.7912 C57.2853333,145.097867 57.2546667,146.0792 57.316,147.7352 C57.316,149.7592 57.316,151.8752 57.316,154.0832 C57.316,155.0032 57.3313333,155.723867 57.362,156.2452 C57.3926667,156.766533 57.3926667,157.195867 57.362,157.5332 C57.3313333,157.870533 57.2853333,158.0852 57.224,158.1772 C57.1626667,158.2692 57.0706667,158.4072 56.948,158.5912 C56.7026667,158.9592 56.58,159.4192 56.58,159.9712 C56.58,160.5232 56.488,160.7992 56.304,160.7992 C56.12,160.7992 55.9053333,160.952533 55.66,161.2592 C55.476,161.504533 55.016,161.688533 54.28,161.8112 C53.6053333,161.872533 53.176,161.9952 52.992,162.1792 C52.624,162.5472 52.2866667,162.516533 51.98,162.0872 C51.796,161.780533 51.612,161.6272 51.428,161.6272 C51.244,161.6272 51.1213333,161.412533 51.06,160.9832 C50.9373333,160.492533 50.9066667,159.725867 50.968,158.6832 C51.0293333,157.640533 51.1213333,157.088533 51.244,157.0272 C51.428,156.965867 51.5506667,156.229867 51.612,154.8192 C51.6733333,153.408533 51.7653333,152.580533 51.888,152.3352 C52.0106667,152.028533 51.9953333,151.6912 51.842,151.3232 C51.6886667,150.9552 51.6426667,149.636533 51.704,147.3672 C51.7653333,145.1592 51.7653333,143.533867 51.704,142.4912 C51.704,141.509867 51.7653333,140.5592 51.888,139.6392 C52.0106667,138.7192 51.9646667,137.9832 51.75,137.4312 C51.5353333,136.8792 51.2746667,136.572533 50.968,136.5112 C50.1706667,136.3272 49.22,136.4192 48.116,136.7872 C47.5026667,136.9712 47.0733333,137.001867 46.828,136.8792 C46.644,136.756533 46.4906667,136.6952 46.368,136.6952 C45.9386667,136.6952 45.724,137.737867 45.724,139.8232 C45.6626667,141.233867 45.5553333,141.9392 45.402,141.9392 C45.2486667,141.9392 45.1106667,142.061867 44.988,142.3072 C44.6813333,142.920533 43.9453333,143.257867 42.78,143.3192 C42.044,143.3192 41.6146667,143.165867 41.492,142.8592 C41.3693333,142.552533 41.308,141.5712 41.308,139.9152 C41.308,138.4432 41.3233333,137.5692 41.354,137.2932 C41.3846667,137.0172 41.5226667,136.7872 41.768,136.6032 C42.0133333,136.4192 42.1053333,136.0512 42.044,135.4992 C41.9826667,134.824533 42.0133333,133.919867 42.136,132.7852 C42.2586667,131.650533 42.412,130.868533 42.596,130.4392 C42.78,129.948533 42.872,129.626533 42.872,129.4732 C42.872,129.319867 42.7186667,129.181867 42.412,129.0592 C42.1053333,128.936533 41.952,128.629867 41.952,128.1392 C41.952,127.4032 42.1666667,126.8052 42.596,126.3452 C43.0253333,125.8852 42.964,125.164533 42.412,124.1832 C42.1666667,123.692533 42.0133333,122.772533 41.952,121.4232 C41.952,120.441867 41.9673333,119.828533 41.998,119.5832 C42.0286667,119.337867 42.1513333,119.138533 42.366,118.9852 C42.5806667,118.831867 42.688,118.6632 42.688,118.4792 C42.688,118.2952 42.6573333,117.773867 42.596,116.9152 C42.4733333,115.749867 42.3506667,115.013867 42.228,114.7072 C42.1053333,114.461867 42.1053333,114.3392 42.228,114.3392 C42.3506667,114.277867 42.412,113.848533 42.412,113.0512 C42.412,112.253867 42.274,111.6712 41.998,111.3032 C41.722,110.9352 41.584,110.2912 41.584,109.3712 C41.5226667,108.4512 41.5533333,107.883867 41.676,107.6692 C41.7986667,107.454533 42.0746667,107.316533 42.504,107.2552 C42.9946667,107.2552 43.4546667,107.3472 43.884,107.5312 C44.3133333,107.7152 44.528,107.8992 44.528,108.0832 C44.528,108.2672 44.758,108.389867 45.218,108.4512 C45.678,108.512533 46.184,108.834533 46.736,109.4172 C47.288,109.999867 47.656,110.2912 47.84,110.2912 C47.9626667,110.2912 48.1313333,110.352533 48.346,110.4752 C48.5606667,110.597867 48.7906667,110.735867 49.036,110.8892 C49.2813333,111.042533 49.4806667,111.195867 49.634,111.3492 C49.7873333,111.502533 49.864,111.609867 49.864,111.6712 C49.9253333,111.977867 49.5266667,112.1312 48.668,112.1312 C48.2386667,112.1312 47.9473333,112.192533 47.794,112.3152 C47.6406667,112.437867 47.5026667,112.744533 47.38,113.2352 C47.196,113.725867 47.012,114.001867 46.828,114.0632 C46.5826667,114.185867 46.46,114.9832 46.46,116.4552 C46.46,118.6632 46.5213333,120.058533 46.644,120.6412 C46.7666667,121.223867 47.012,121.576533 47.38,121.6992 C47.5026667,121.760533 47.5486667,121.913867 47.518,122.1592 C47.4873333,122.404533 47.3953333,122.649867 47.242,122.8952 C47.0886667,123.140533 46.9506667,123.293867 46.828,123.3552 C46.644,123.416533 46.5366667,123.5852 46.506,123.8612 C46.4753333,124.1372 46.46,124.9192 46.46,126.2072 C46.5213333,128.0472 46.46,129.0592 46.276,129.2432 C45.8466667,129.733867 45.8466667,130.224533 46.276,130.7152 C46.644,131.144533 46.644,131.5432 46.276,131.9112 C46.092,132.156533 46.0766667,132.401867 46.23,132.6472 C46.3833333,132.892533 46.46,133.229867 46.46,133.6592 C46.46,134.149867 46.5213333,134.456533 46.644,134.5792 C46.7053333,134.701867 47.288,134.916533 48.392,135.2232 L50.14,135.5912 L50.508,135.2232 C50.8146667,134.916533 51.1673333,134.7172 51.566,134.6252 C51.9646667,134.5332 52.2253333,134.410533 52.348,134.2572 C52.4706667,134.103867 52.5013333,132.892533 52.44,130.6232 C52.3786667,128.292533 52.44,127.065867 52.624,126.9432 C52.808,126.881867 52.9,126.590533 52.9,126.0692 C52.9,125.547867 52.8386667,125.225867 52.716,125.1032 C52.5933333,125.041867 52.532,124.796533 52.532,124.3672 C52.532,123.937867 52.44,123.4472 52.256,122.8952 C52.1333333,122.5272 52.0413333,122.312533 51.98,122.2512 C51.9186667,122.189867 51.7653333,122.189867 51.52,122.2512 C51.0293333,122.312533 50.416,122.312533 49.68,122.2512 C49.1893333,122.189867 48.9133333,122.097867 48.852,121.9752 L49.128,121.7912 C49.5573333,121.668533 50.14,121.6072 50.876,121.6072 C51.5506667,121.6072 51.9493333,121.5152 52.072,121.3312 C52.3173333,120.9632 52.3786667,120.472533 52.256,119.8592 C52.1946667,119.552533 51.98,112.713867 51.612,99.3432 C51.5506667,97.1965333 51.4126667,95.9238667 51.198,95.5252 C50.9833333,95.1265333 50.8453333,94.7125333 50.784,94.2832 C50.6613333,93.6085333 50.9066667,93.0872 51.52,92.7192 Z M55.292,110.1992 C55.476,110.1992 55.568,110.076533 55.568,109.8312 C55.568,109.585867 55.476,109.4632 55.292,109.4632 C55.108,109.4632 55.016,109.585867 55.016,109.8312 C55.016,110.076533 55.108,110.1992 55.292,110.1992 Z M33.58,98.5152 C34.132,97.9018667 34.6226667,97.5952 35.052,97.5952 C35.5426667,97.5338667 35.788,97.5645333 35.788,97.6872 C35.788,97.8712 35.9413333,98.0245333 36.248,98.1472 C36.5546667,98.2698667 36.708,98.4232 36.708,98.6072 C36.708,98.9752 37.2293333,99.7112 38.272,100.8152 C38.456,100.9992 38.594,101.443867 38.686,102.1492 C38.778,102.854533 38.7626667,103.2992 38.64,103.4832 C38.5173333,103.6672 38.1953333,103.789867 37.674,103.8512 C37.1526667,103.912533 36.7386667,103.8512 36.432,103.6672 C35.2053333,103.053867 34.1013333,102.8392 33.12,103.0232 C32.6293333,103.084533 30.7893333,103.176533 27.6,103.2992 C24.5333333,103.360533 22.7853333,103.513867 22.356,103.7592 C21.9266667,104.004533 21.2673333,104.1272 20.378,104.1272 C19.4886667,104.1272 18.8753333,104.004533 18.538,103.7592 C18.2006667,103.513867 17.8786667,103.360533 17.572,103.2992 C17.2653333,103.237867 16.9893333,102.961867 16.744,102.4712 C16.56,102.041867 16.56,101.612533 16.744,101.1832 C16.928,100.8152 17.112,100.600533 17.296,100.5392 C17.48,100.477867 18.4,100.431867 20.056,100.4012 C21.712,100.370533 23.1226667,100.477867 24.288,100.7232 C25.2693333,100.9072 26.4346667,101.014533 27.784,101.0452 C29.1333333,101.075867 29.9306667,100.9992 30.176,100.8152 C30.36,100.692533 30.6973333,100.5392 31.188,100.3552 C31.74,100.1712 32.0773333,99.9872 32.2,99.8032 C32.3226667,99.5578667 32.4606667,99.4352 32.614,99.4352 C32.7673333,99.4352 33.0893333,99.1285333 33.58,98.5152 Z M33.764,110.4752 C35.2973333,110.229867 36.4013333,110.260533 37.076,110.5672 C37.5053333,110.7512 37.812,111.149867 37.996,111.7632 C38.18,112.376533 38.1493333,112.8672 37.904,113.2352 C37.7813333,113.480533 37.168,113.6032 36.064,113.6032 C35.0826667,113.6032 34.408,113.664533 34.04,113.7872 C33.7946667,113.9712 33.3346667,114.093867 32.66,114.1552 C32.476,114.1552 32.2,114.170533 31.832,114.2012 C31.464,114.231867 31.2186667,114.2472 31.096,114.2472 C30.7893333,114.2472 30.5133333,114.3392 30.268,114.5232 C30.1453333,114.645867 30.084,114.737867 30.084,114.7992 C30.084,114.860533 30.2373333,115.013867 30.544,115.2592 C30.9733333,115.6272 31.188,115.979867 31.188,116.3172 C31.188,116.654533 31.1266667,116.8232 31.004,116.8232 C30.8813333,116.8232 30.728,117.037867 30.544,117.4672 C30.36,117.896533 30.176,118.172533 29.992,118.2952 C29.808,118.4792 29.624,118.877867 29.44,119.4912 C29.256,120.104533 29.2253333,120.472533 29.348,120.5952 C29.532,120.717867 29.6086667,120.947867 29.578,121.2852 C29.5473333,121.622533 29.44,121.821867 29.256,121.8832 C29.0106667,121.944533 28.888,122.082533 28.888,122.2972 C28.888,122.511867 29.0106667,122.680533 29.256,122.8032 C29.5013333,122.9872 29.624,123.293867 29.624,123.7232 C29.624,124.0912 29.5013333,124.397867 29.256,124.6432 C28.8266667,125.0112 28.8573333,125.348533 29.348,125.6552 C29.6546667,125.8392 29.716,126.053867 29.532,126.2992 C29.4706667,126.4832 29.1026667,126.605867 28.428,126.6672 C27.8146667,126.6672 27.4773333,126.728533 27.416,126.8512 C27.232,126.973867 27.3546667,127.1272 27.784,127.3112 L28.704,127.4952 C29.256,127.433867 29.5626667,127.525867 29.624,127.7712 C29.6853333,128.016533 29.7313333,129.580533 29.762,132.4632 C29.7926667,135.345867 29.7466667,136.817867 29.624,136.8792 C29.5013333,136.940533 29.5013333,137.3392 29.624,138.0752 C29.7466667,138.8112 29.716,139.332533 29.532,139.6392 C29.4093333,139.945867 29.4093333,140.344533 29.532,140.8352 C29.716,141.3872 29.808,141.7552 29.808,141.9392 C29.808,142.8592 29.716,143.717867 29.532,144.5152 C29.4093333,145.005867 29.3173333,146.324533 29.256,148.4712 C29.1946667,150.617867 29.1333333,151.752533 29.072,151.8752 C28.9493333,152.120533 28.9186667,152.488533 28.98,152.9792 C29.0413333,153.469867 28.98,153.929867 28.796,154.3592 C28.6733333,154.7272 28.5506667,155.125867 28.428,155.5552 C28.3666667,155.9232 28.2133333,156.229867 27.968,156.4752 C27.784,156.6592 27.692,156.8432 27.692,157.0272 C27.692,157.149867 27.4773333,157.4412 27.048,157.9012 C26.6186667,158.3612 26.3426667,158.5912 26.22,158.5912 C26.036,158.5912 25.852,158.713867 25.668,158.9592 C25.4226667,159.204533 25.2386667,159.3272 25.116,159.3272 C25.0546667,159.3272 24.978,159.265867 24.886,159.1432 C24.794,159.020533 24.7173333,158.882533 24.656,158.7292 C24.5946667,158.575867 24.564,158.437867 24.564,158.3152 C24.564,158.1312 24.426,157.885867 24.15,157.5792 C23.874,157.272533 23.736,156.444533 23.736,155.0952 C23.736,153.745867 23.8586667,152.7952 24.104,152.2432 C24.4106667,151.6912 24.5333333,149.7592 24.472,146.4472 C24.472,143.1352 24.5946667,141.1112 24.84,140.3752 C25.392,138.7192 25.392,137.216533 24.84,135.8672 C24.4106667,134.885867 24.3493333,134.241867 24.656,133.9352 C24.84,133.689867 24.932,132.248533 24.932,129.6112 C24.932,128.200533 24.9013333,125.9312 24.84,122.8032 C24.7786667,119.8592 24.9933333,118.2952 25.484,118.1112 C25.7906667,117.9272 25.76,117.681867 25.392,117.3752 C25.2693333,117.1912 25.116,116.669867 24.932,115.8112 C24.8093333,115.2592 24.7173333,114.906533 24.656,114.7532 C24.5946667,114.599867 24.4106667,114.5232 24.104,114.5232 C23.368,114.3392 21.85,114.369867 19.55,114.6152 C17.25,114.860533 15.9466667,115.105867 15.64,115.3512 C15.5173333,115.412533 14.8733333,115.504533 13.708,115.6272 C12.6653333,115.6272 11.9906667,115.4892 11.684,115.2132 C11.3773333,114.9372 11.1626667,114.7992 11.04,114.7992 C10.9173333,114.7992 10.8253333,114.7072 10.764,114.5232 C10.7026667,114.3392 10.7026667,114.032533 10.764,113.6032 C10.8253333,113.173867 10.9173333,112.928533 11.04,112.8672 C11.1626667,112.744533 13.4626667,112.6372 17.94,112.5452 C22.4173333,112.4532 24.9013333,112.284533 25.392,112.0392 C25.944,111.8552 27.1706667,111.732533 29.072,111.6712 C31.4026667,111.548533 32.752,111.272533 33.12,110.8432 C33.304,110.6592 33.5186667,110.536533 33.764,110.4752 Z M16.56,117.2832 C16.6826667,117.160533 16.8053333,117.0992 16.928,117.0992 C17.0506667,117.0992 17.296,117.252533 17.664,117.5592 C18.032,117.865867 18.2773333,118.141867 18.4,118.3872 C18.584,118.693867 18.9213333,118.9392 19.412,119.1232 C19.964,119.245867 20.2706667,119.3992 20.332,119.5832 C20.3933333,119.7672 20.5773333,119.920533 20.884,120.0432 C21.1293333,120.165867 21.2366667,120.472533 21.206,120.9632 C21.1753333,121.453867 21.0526667,121.7912 20.838,121.9752 C20.6233333,122.1592 20.4853333,122.5272 20.424,123.0792 C20.3013333,123.6312 20.1633333,123.983867 20.01,124.1372 C19.8566667,124.290533 19.8413333,124.535867 19.964,124.8732 C20.0866667,125.210533 20.102,125.501867 20.01,125.7472 C19.918,125.992533 19.9333333,126.360533 20.056,126.8512 C20.5466667,128.016533 20.5466667,128.905867 20.056,129.5192 C19.8106667,129.825867 19.7186667,130.224533 19.78,130.7152 C20.0866667,132.125867 20.1173333,132.953867 19.872,133.1992 C19.7493333,133.444533 19.688,134.088533 19.688,135.1312 C19.7493333,136.173867 19.6266667,136.848533 19.32,137.1552 C19.0746667,137.461867 18.9366667,137.9372 18.906,138.5812 C18.8753333,139.2252 18.9826667,139.761867 19.228,140.1912 C19.596,140.865867 19.6266667,141.5712 19.32,142.3072 C19.136,142.613867 18.9826667,143.3192 18.86,144.4232 C18.7373333,145.5272 18.5533333,146.324533 18.308,146.8152 C18.124,147.244533 18.032,147.581867 18.032,147.8272 C18.032,148.0112 17.94,148.133867 17.756,148.1952 C17.4493333,148.3792 17.204,148.992533 17.02,150.0352 C16.9586667,150.464533 16.836,150.740533 16.652,150.8632 C16.468,150.924533 16.376,151.0472 16.376,151.2312 C16.376,151.476533 16.1766667,151.905867 15.778,152.5192 C15.3793333,153.132533 15.18,153.469867 15.18,153.5312 C15.18,153.653867 15.0573333,153.8072 14.812,153.9912 C14.5666667,154.1752 14.444,154.328533 14.444,154.4512 C14.444,154.696533 14.2906667,154.880533 13.984,155.0032 C13.6773333,155.125867 13.524,155.2792 13.524,155.4632 C13.524,155.6472 13.4166667,155.7852 13.202,155.8772 C12.9873333,155.9692 12.788,156.260533 12.604,156.7512 C12.3586667,157.241867 12.144,157.548533 11.96,157.6712 C11.7146667,157.732533 11.5613333,157.885867 11.5,158.1312 C11.5,158.3152 11.2393333,158.4532 10.718,158.5452 C10.1966667,158.6372 9.752,158.836533 9.384,159.1432 C9.016,159.572533 8.40266667,159.756533 7.544,159.6952 C7.29866667,159.6952 7.13,159.6032 7.038,159.4192 C6.946,159.2352 6.992,159.0512 7.176,158.8672 C7.42133333,158.621867 7.728,158.284533 8.096,157.8552 C8.28,157.6712 8.464,157.3032 8.648,156.7512 C8.77066667,156.1992 8.924,155.892533 9.108,155.8312 C9.23066667,155.769867 9.476,155.3712 9.844,154.6352 C10.212,153.8992 10.396,153.4392 10.396,153.2552 C10.396,153.193867 10.58,152.9792 10.948,152.6112 C11.316,152.304533 11.5,151.997867 11.5,151.6912 C11.5,151.200533 11.8373333,150.5872 12.512,149.8512 C13.0026667,149.360533 13.2786667,148.808533 13.34,148.1952 C13.4013333,147.581867 13.524,147.244533 13.708,147.1832 C13.8306667,147.1832 13.9226667,146.753867 13.984,145.8952 C14.0453333,145.097867 14.1373333,144.6072 14.26,144.4232 C14.6893333,143.564533 14.9346667,142.521867 14.996,141.2952 C15.0573333,140.5592 15.18,140.037867 15.364,139.7312 C15.6093333,139.485867 15.7626667,138.412533 15.824,136.5112 C15.9466667,133.321867 16.1306667,131.604533 16.376,131.3592 C16.4986667,131.1752 16.468,130.745867 16.284,130.0712 C16.1,129.396533 16.1,128.859867 16.284,128.4612 C16.468,128.062533 16.5293333,126.3912 16.468,123.4472 C16.3453333,119.5832 16.376,117.528533 16.56,117.2832 Z M35.236,117.9272 C35.3586667,117.9272 35.558,117.911867 35.834,117.8812 C36.11,117.850533 36.3093333,117.8352 36.432,117.8352 C37.1066667,117.773867 37.72,117.957867 38.272,118.3872 C38.7626667,118.7552 39.054,119.015867 39.146,119.1692 C39.238,119.322533 39.2533333,119.5832 39.192,119.9512 C39.1306667,120.380533 38.9773333,120.6872 38.732,120.8712 C38.18,121.4232 37.904,122.496533 37.904,124.0912 C37.9653333,125.440533 37.8733333,126.682533 37.628,127.8172 C37.3826667,128.951867 37.3213333,130.5312 37.444,132.5552 C37.628,135.928533 37.4746667,137.921867 36.984,138.5352 C36.9226667,138.657867 36.8613333,139.240533 36.8,140.2832 C36.7386667,141.264533 36.8153333,141.862533 37.03,142.0772 C37.2446667,142.291867 37.4133333,142.644533 37.536,143.1352 C37.5973333,143.5032 37.6126667,143.7332 37.582,143.8252 C37.5513333,143.9172 37.3826667,144.0552 37.076,144.2392 C36.6466667,144.361867 36.4013333,144.668533 36.34,145.1592 C36.2173333,145.956533 35.6653333,146.293867 34.684,146.1712 L33.948,146.0792 L33.764,144.8832 C33.7026667,144.1472 33.7026667,142.153867 33.764,138.9032 C33.8253333,135.468533 33.8253333,132.677867 33.764,130.5312 L33.672,127.0352 L34.132,126.5752 C34.5,126.268533 34.6226667,125.900533 34.5,125.4712 C34.4386667,125.1032 34.316,124.765867 34.132,124.4592 C33.948,124.152533 33.8866667,123.9072 33.948,123.7232 C34.0093333,123.5392 34.0706667,122.7112 34.132,121.2392 C34.132,119.828533 34.1933333,118.9392 34.316,118.5712 C34.4386667,118.2032 34.7453333,117.988533 35.236,117.9272 Z" id="Shape"></path>
                <path d="M43.516,191.2712 C43.6386667,191.025867 43.8533333,191.056533 44.16,191.3632 C44.4666667,191.608533 44.712,191.792533 44.896,191.9152 C45.08,192.0992 45.2026667,192.3752 45.264,192.7432 C45.3866667,193.172533 45.4786667,193.3872 45.54,193.3872 C45.6626667,193.3872 45.9233333,193.586533 46.322,193.9852 C46.7206667,194.383867 46.92,194.644533 46.92,194.7672 C46.92,194.9512 47.0426667,195.165867 47.288,195.4112 C47.5333333,195.5952 47.748,195.901867 47.932,196.3312 C48.0546667,196.760533 48.2846667,197.0212 48.622,197.1132 C48.9593333,197.2052 49.5573333,197.2512 50.416,197.2512 C51.2133333,197.189867 51.6733333,197.2512 51.796,197.4352 C51.9186667,197.6192 52.1026667,197.6192 52.348,197.4352 C52.5933333,197.312533 53.1146667,197.2512 53.912,197.2512 C54.7093333,197.2512 55.2613333,197.0672 55.568,196.6992 C55.8746667,196.392533 56.028,196.070533 56.028,195.7332 C56.028,195.395867 56.12,195.196533 56.304,195.1352 C56.488,195.073867 56.6873333,194.797867 56.902,194.3072 C57.1166667,193.816533 57.3006667,193.5712 57.454,193.5712 C57.6073333,193.5712 57.73,193.4332 57.822,193.1572 C57.914,192.8812 58.2053333,192.712533 58.696,192.6512 C59.1253333,192.589867 59.4473333,192.681867 59.662,192.9272 C59.8766667,193.172533 60.1373333,193.356533 60.444,193.4792 C60.7506667,193.540533 60.904,193.6632 60.904,193.8472 C60.904,194.0312 60.95,194.1232 61.042,194.1232 C61.134,194.1232 61.272,194.3072 61.456,194.6752 C61.5786667,195.104533 61.732,195.3192 61.916,195.3192 C62.1,195.3192 62.2533333,195.472533 62.376,195.7792 C62.4986667,196.085867 62.6213333,196.2392 62.744,196.2392 C62.9893333,196.2392 63.1886667,196.484533 63.342,196.9752 C63.4953333,197.465867 63.5106667,197.864533 63.388,198.1712 C63.3266667,198.5392 63.2346667,198.753867 63.112,198.8152 C62.9893333,198.876533 62.652,198.9072 62.1,198.9072 C61.3026667,198.968533 60.812,199.0912 60.628,199.2752 C60.5053333,199.4592 60.3826667,199.5512 60.26,199.5512 C60.076,199.5512 59.8,199.7352 59.432,200.1032 C59.064,200.409867 58.4506667,200.593867 57.592,200.6552 L56.212,200.7472 L55.752,201.5752 C55.384,202.1272 54.9393333,202.4492 54.418,202.5412 C53.8966667,202.6332 53.6053333,202.740533 53.544,202.8632 C53.4826667,202.985867 53.2986667,203.108533 52.992,203.2312 C52.6853333,203.353867 52.5166667,203.568533 52.486,203.8752 C52.4553333,204.181867 52.1946667,204.304533 51.704,204.2432 C51.152,204.181867 50.8146667,204.089867 50.692,203.9672 C50.5693333,203.7832 50.3546667,203.660533 50.048,203.5992 C49.128,203.476533 49.1893333,202.893867 50.232,201.8512 C51.0906667,200.992533 51.3053333,200.256533 50.876,199.6432 C50.6306667,199.336533 50.3546667,199.213867 50.048,199.2752 C49.6186667,199.336533 49.1893333,199.397867 48.76,199.4592 C48.2693333,199.4592 47.5946667,199.520533 46.736,199.6432 C45.8773333,199.765867 45.3866667,199.7352 45.264,199.5512 C45.0186667,199.1832 44.3746667,199.213867 43.332,199.6432 C43.332,199.6432 42.9333333,199.796533 42.136,200.1032 C41.768,200.2872 41.676,200.440533 41.86,200.5632 C42.2893333,200.869867 42.4733333,201.421867 42.412,202.2192 C42.412,202.4032 42.3813333,202.4952 42.32,202.4952 C42.1973333,202.4952 42.0133333,202.617867 41.768,202.8632 C41.5226667,203.108533 41.17,203.2772 40.71,203.3692 C40.25,203.4612 39.9586667,203.6912 39.836,204.0592 C39.4066667,205.285867 38.9466667,205.960533 38.456,206.0832 C38.1493333,206.144533 37.9653333,206.297867 37.904,206.5432 C37.8426667,206.849867 37.444,206.972533 36.708,206.9112 L35.696,206.8192 L35.604,207.3712 C35.4813333,208.1072 35.3586667,212.0632 35.236,219.2392 C35.236,219.7912 35.1133333,220.189867 34.868,220.4352 C34.6226667,220.680533 34.4693333,221.048533 34.408,221.5392 C34.2853333,222.152533 34.0246667,222.7352 33.626,223.2872 C33.2273333,223.8392 32.8746667,224.176533 32.568,224.2992 C31.9546667,224.421867 31.6173333,224.283867 31.556,223.8852 C31.4946667,223.486533 31.4946667,222.305867 31.556,220.3432 C31.6786667,218.012533 31.74,216.7552 31.74,216.5712 L31.74,215.6512 C31.8013333,215.2832 31.9546667,215.0992 32.2,215.0992 C32.3226667,215.0992 32.4146667,215.0532 32.476,214.9612 C32.5373333,214.8692 32.5373333,214.761867 32.476,214.6392 C32.4146667,214.516533 32.3226667,214.393867 32.2,214.2712 C31.8933333,214.0872 31.7706667,213.7192 31.832,213.1672 C31.8933333,212.6152 31.9853333,212.277867 32.108,212.1552 C32.2306667,212.093867 32.3226667,211.940533 32.384,211.6952 C32.5066667,211.449867 32.66,211.3272 32.844,211.3272 C32.9666667,211.3272 33.0893333,211.1892 33.212,210.9132 C33.3346667,210.6372 33.4113333,210.2692 33.442,209.8092 C33.4726667,209.3492 33.488,208.873867 33.488,208.3832 C33.4266667,207.156533 32.9666667,206.389867 32.108,206.0832 C31.924,206.021867 31.832,205.883867 31.832,205.6692 C31.832,205.454533 31.9546667,205.285867 32.2,205.1632 C32.2613333,205.101867 32.4146667,205.086533 32.66,205.1172 C32.9053333,205.147867 33.1506667,205.193867 33.396,205.2552 C33.6413333,205.316533 33.856,205.3932 34.04,205.4852 C34.224,205.5772 34.316,205.684533 34.316,205.8072 C34.316,205.868533 34.5,205.8992 34.868,205.8992 C35.6653333,205.8992 36.064,205.5312 36.064,204.7952 C36.064,204.488533 36.1866667,204.304533 36.432,204.2432 C37.2906667,203.936533 37.7813333,203.3232 37.904,202.4032 C37.9653333,202.0352 38.1493333,201.6672 38.456,201.2992 C38.7626667,200.9312 39.0386667,200.7472 39.284,200.7472 C39.5906667,200.7472 40.0506667,199.8272 40.664,197.9872 C40.848,197.4352 41.032,197.0212 41.216,196.7452 C41.4,196.4692 41.492,196.177867 41.492,195.8712 C41.492,195.625867 41.6146667,195.426533 41.86,195.2732 C42.1053333,195.119867 42.228,194.705867 42.228,194.0312 C42.228,192.620533 42.4733333,191.8232 42.964,191.6392 C43.2093333,191.516533 43.3933333,191.393867 43.516,191.2712 Z M24.104,194.0312 C24.5333333,193.969867 24.8246667,193.969867 24.978,194.0312 C25.1313333,194.092533 25.392,194.3072 25.76,194.6752 C26.5573333,195.4112 27.1706667,195.8712 27.6,196.0552 C27.9066667,196.177867 28.1213333,196.453867 28.244,196.8832 C28.3053333,197.2512 28.6426667,197.588533 29.256,197.8952 C29.808,198.140533 30.1146667,198.477867 30.176,198.9072 C30.2373333,199.336533 30.084,199.673867 29.716,199.9192 C29.2866667,200.1032 29.072,200.348533 29.072,200.6552 C29.072,201.452533 28.8573333,201.8512 28.428,201.8512 C28.1826667,201.8512 28.06,201.912533 28.06,202.0352 C28.06,202.157867 27.9066667,202.280533 27.6,202.4032 C27.2933333,202.464533 27.1093333,202.7712 27.048,203.3232 C26.9866667,203.936533 26.8946667,204.2432 26.772,204.2432 C26.6493333,204.2432 26.2813333,204.5192 25.668,205.0712 L24.748,205.8992 L22.816,205.9912 C21.5893333,206.052533 20.8226667,206.1752 20.516,206.3592 C20.2706667,206.481867 20.0866667,206.4512 19.964,206.2672 C19.8413333,206.0832 19.8106667,205.7152 19.872,205.1632 C19.9333333,204.6112 20.056,204.212533 20.24,203.9672 C20.424,203.7832 20.7153333,203.292533 21.114,202.4952 C21.5126667,201.697867 21.712,201.2072 21.712,201.0232 C21.712,200.8392 21.804,200.685867 21.988,200.5632 C22.172,200.440533 22.3406667,199.903867 22.494,198.9532 C22.6473333,198.002533 22.8466667,197.312533 23.092,196.8832 C23.3373333,196.453867 23.46,196.0552 23.46,195.6872 C23.46,194.705867 23.6746667,194.153867 24.104,194.0312 Z M60.536,203.0472 C60.6586667,202.740533 60.95,202.5872 61.41,202.5872 C61.87,202.5872 62.192,202.7252 62.376,203.0012 C62.56,203.2772 62.7286667,203.4152 62.882,203.4152 C63.0353333,203.4152 63.1733333,203.537867 63.296,203.7832 C63.3573333,204.028533 63.6333333,204.212533 64.124,204.3352 C64.676,204.5192 64.952,204.672533 64.952,204.7952 C64.952,204.917867 65.044,204.9792 65.228,204.9792 C65.412,204.9792 65.6573333,205.132533 65.964,205.4392 C66.332,205.745867 66.7306667,205.929867 67.16,205.9912 C67.528,206.052533 67.85,206.205867 68.126,206.4512 C68.402,206.696533 68.5553333,206.941867 68.586,207.1872 C68.6166667,207.432533 68.54,207.6472 68.356,207.8312 C68.2333333,207.892533 68.08,208.076533 67.896,208.3832 C67.712,208.689867 67.4973333,208.873867 67.252,208.9352 C67.0066667,208.996533 66.884,209.149867 66.884,209.3952 C66.884,209.5792 66.7613333,209.6712 66.516,209.6712 C65.8413333,209.6712 65.6266667,210.560533 65.872,212.3392 C65.9946667,213.6272 65.9946667,214.485867 65.872,214.9152 C65.7493333,215.528533 65.688,216.2032 65.688,216.9392 C65.688,217.736533 65.5653333,218.288533 65.32,218.5952 C65.0746667,218.901867 64.952,219.131867 64.952,219.2852 C64.952,219.438533 64.86,219.5152 64.676,219.5152 C64.492,219.5152 64.3386667,219.668533 64.216,219.9752 C64.1546667,220.281867 64.032,220.4812 63.848,220.5732 C63.664,220.6652 63.5106667,220.864533 63.388,221.1712 C63.2653333,221.477867 63.0813333,221.6312 62.836,221.6312 C62.5906667,221.6312 62.3453333,221.7232 62.1,221.9072 C61.548,222.336533 60.9346667,222.213867 60.26,221.5392 L59.616,220.8032 L59.616,217.2152 C59.616,215.3752 59.6313333,214.2712 59.662,213.9032 C59.6926667,213.5352 59.8613333,213.1672 60.168,212.7992 C60.4746667,212.369867 60.628,212.093867 60.628,211.9712 C60.628,211.848533 60.4746667,211.756533 60.168,211.6952 C59.8613333,211.572533 59.708,211.204533 59.708,210.5912 C59.708,209.977867 59.8,209.640533 59.984,209.5792 C60.168,209.517867 60.26,209.287867 60.26,208.8892 C60.26,208.490533 60.168,208.214533 59.984,208.0612 C59.8,207.907867 59.708,207.708533 59.708,207.4632 C59.708,207.217867 59.6006667,207.0492 59.386,206.9572 C59.1713333,206.8652 58.8493333,206.650533 58.42,206.3132 C57.9906667,205.975867 57.776,205.776533 57.776,205.7152 C57.776,205.592533 57.9753333,205.3472 58.374,204.9792 C58.7726667,204.6112 59.064,204.4272 59.248,204.4272 C59.432,204.4272 59.57,204.2892 59.662,204.0132 C59.754,203.7372 59.9073333,203.568533 60.122,203.5072 C60.3366667,203.445867 60.4746667,203.292533 60.536,203.0472 Z M62.836,210.2232 C62.9586667,210.2232 63.02,210.161867 63.02,210.0392 C63.02,209.916533 62.9586667,209.8552 62.836,209.8552 C62.7133333,209.8552 62.652,209.916533 62.652,210.0392 C62.652,210.161867 62.7133333,210.2232 62.836,210.2232 Z M63.112,212.4312 C63.112,212.0632 63.0813333,211.848533 63.02,211.7872 C62.9586667,211.725867 62.836,211.664533 62.652,211.6032 C61.8546667,211.6032 61.456,211.6952 61.456,211.8792 C61.456,212.0632 61.6706667,212.354533 62.1,212.7532 C62.5293333,213.151867 62.7746667,213.320533 62.836,213.2592 C63.02,213.197867 63.112,212.921867 63.112,212.4312 Z M48.852,204.3352 L49.22,203.7832 L49.68,204.1512 C49.9253333,204.396533 49.956,204.764533 49.772,205.2552 C49.6493333,205.745867 49.4653333,206.021867 49.22,206.0832 C48.9746667,206.144533 48.8673333,206.2672 48.898,206.4512 C48.9286667,206.6352 49.0666667,206.788533 49.312,206.9112 C49.68,207.033867 50.4466667,207.064533 51.612,207.0032 C52.7773333,206.941867 53.4826667,206.788533 53.728,206.5432 C54.28,206.052533 55.1386667,205.8992 56.304,206.0832 C56.7333333,206.144533 56.948,206.2672 56.948,206.4512 C56.948,206.6352 56.7333333,206.8192 56.304,207.0032 C55.752,207.248533 55.43,207.4632 55.338,207.6472 C55.246,207.8312 55.0773333,207.9232 54.832,207.9232 C54.5866667,207.9232 54.372,207.984533 54.188,208.1072 C53.636,208.720533 52.8386667,208.9352 51.796,208.7512 C50.3853333,208.628533 49.2506667,209.149867 48.392,210.3152 C47.9013333,210.989867 47.38,211.388533 46.828,211.5112 C46.1533333,211.572533 45.724,211.5572 45.54,211.4652 C45.356,211.3732 45.2333333,211.1432 45.172,210.7752 C45.172,210.345867 45.264,210.008533 45.448,209.7632 C45.632,209.5792 45.7546667,209.3032 45.816,208.9352 C46.0613333,207.892533 46.368,207.2792 46.736,207.0952 C46.9813333,206.972533 47.0733333,206.6352 47.012,206.0832 C46.9506667,205.653867 46.9813333,205.362533 47.104,205.2092 C47.2266667,205.055867 47.5026667,204.9792 47.932,204.9792 C48.3613333,204.9792 48.668,204.764533 48.852,204.3352 Z M48.944,212.4312 C49.0666667,212.369867 49.22,212.369867 49.404,212.4312 C49.588,212.492533 49.8333333,212.553867 50.14,212.6152 C50.4466667,212.737867 50.6306667,212.8912 50.692,213.0752 C50.7533333,213.2592 50.9066667,213.3512 51.152,213.3512 C51.3973333,213.3512 51.5506667,213.473867 51.612,213.7192 C51.7346667,213.9032 51.888,214.056533 52.072,214.1792 C52.992,214.424533 53.8506667,214.976533 54.648,215.8352 C55.016,216.2032 55.2,216.724533 55.2,217.3992 C55.2,218.073867 55.1386667,218.533867 55.016,218.7792 C54.648,219.5152 54.2186667,219.8832 53.728,219.8832 C53.4826667,219.8832 53.2986667,219.944533 53.176,220.0672 C53.0533333,220.189867 52.8846667,220.174533 52.67,220.0212 C52.4553333,219.867867 52.2406667,219.6532 52.026,219.3772 C51.8113333,219.1012 51.612,218.809867 51.428,218.5032 C51.3666667,218.380533 51.3053333,218.257867 51.244,218.1352 C51.1826667,218.012533 51.106,217.874533 51.014,217.7212 C50.922,217.567867 50.876,217.460533 50.876,217.3992 C50.692,217.0312 50.6,216.724533 50.6,216.4792 C50.6,215.7432 50.3853333,215.313867 49.956,215.1912 C49.7106667,215.068533 49.588,214.9152 49.588,214.7312 C49.588,214.5472 49.4653333,214.393867 49.22,214.2712 C48.9746667,214.148533 48.852,213.841867 48.852,213.3512 C48.852,212.860533 48.8826667,212.553867 48.944,212.4312 Z M43.056,212.9832 C43.4853333,212.737867 43.746,212.599867 43.838,212.5692 C43.93,212.538533 44.0833333,212.630533 44.298,212.8452 C44.5126667,213.059867 45.0186667,213.197867 45.816,213.2592 C46.6133333,213.320533 47.058,213.3972 47.15,213.4892 C47.242,213.5812 47.2266667,213.841867 47.104,214.2712 C46.9813333,214.516533 46.8893333,214.6852 46.828,214.7772 C46.7666667,214.8692 46.6746667,214.945867 46.552,215.0072 C46.4293333,215.068533 46.2453333,215.129867 46,215.1912 C45.0186667,215.313867 44.4053333,215.6512 44.16,216.2032 C44.0373333,216.5712 43.7153333,216.8012 43.194,216.8932 C42.6726667,216.9852 42.412,217.092533 42.412,217.2152 C42.412,217.276533 42.1973333,217.429867 41.768,217.6752 C41.216,217.981867 40.848,218.349867 40.664,218.7792 C40.48,219.1472 40.3113333,219.3772 40.158,219.4692 C40.0046667,219.5612 39.6213333,219.668533 39.008,219.7912 C38.5786667,219.852533 38.272,220.097867 38.088,220.5272 C37.904,221.017867 37.5666667,221.3552 37.076,221.5392 C36.5853333,221.7232 36.0946667,221.692533 35.604,221.4472 C35.2973333,221.2632 35.1746667,221.063867 35.236,220.8492 C35.2973333,220.634533 35.5426667,220.496533 35.972,220.4352 C36.34,220.373867 36.7846667,220.082533 37.306,219.5612 C37.8273333,219.039867 38.2413333,218.717867 38.548,218.5952 C39.3453333,218.4112 39.8053333,217.889867 39.928,217.0312 C39.9893333,216.6632 40.0506667,216.417867 40.112,216.2952 C40.1733333,216.172533 40.3573333,216.049867 40.664,215.9272 C41.1546667,215.804533 41.4613333,215.497867 41.584,215.0072 C41.7066667,214.516533 41.8906667,214.209867 42.136,214.0872 C42.32,213.9032 42.412,213.749867 42.412,213.6272 C42.4733333,213.4432 42.688,213.228533 43.056,212.9832 Z M14.26,216.2032 L14.904,215.2832 L15.548,215.5592 C15.916,215.804533 16.192,215.804533 16.376,215.5592 C16.56,215.3752 16.744,215.2832 16.928,215.2832 C17.2346667,215.2832 17.4953333,215.405867 17.71,215.6512 C17.9246667,215.896533 18.032,216.126533 18.032,216.3412 C18.032,216.555867 17.9093333,216.724533 17.664,216.8472 C17.3573333,216.908533 17.204,217.2152 17.204,217.7672 C17.204,218.3192 17.0506667,218.7792 16.744,219.1472 C16.4373333,219.5152 16.284,219.821867 16.284,220.0672 C16.284,220.312533 16.192,220.4352 16.008,220.4352 C15.7626667,220.4352 15.3486667,220.741867 14.766,221.3552 C14.1833333,221.968533 13.8306667,222.4592 13.708,222.8272 C13.5853333,223.3792 13.3706667,223.777867 13.064,224.0232 C12.7573333,224.329867 12.604,224.559867 12.604,224.7132 C12.604,224.866533 12.5426667,224.9432 12.42,224.9432 C12.2973333,224.9432 12.2053333,225.065867 12.144,225.3112 C12.0213333,225.617867 11.8066667,225.832533 11.5,225.9552 C11.1933333,226.077867 11.0093333,226.384533 10.948,226.8752 C10.8866667,227.365867 10.7333333,227.672533 10.488,227.7952 C10.12,227.856533 9.50666667,228.316533 8.648,229.1752 C7.78933333,230.033867 7.36,230.570533 7.36,230.7852 C7.36,230.999867 7.20666667,231.1992 6.9,231.3832 C6.65466667,231.505867 6.348,231.7512 5.98,232.1192 C5.612,232.4872 5.428,232.7632 5.428,232.9472 C5.428,233.008533 5.336,233.0392 5.152,233.0392 C5.09066667,233.0392 4.93733333,233.146533 4.692,233.3612 C4.44666667,233.575867 4.21666667,233.805867 4.002,234.0512 C3.78733333,234.296533 3.68,234.449867 3.68,234.5112 C3.68,234.633867 3.34266667,234.940533 2.668,235.4312 C1.99333333,235.7992 1.41066667,235.952533 0.92,235.8912 C0.490666667,235.768533 0.245333333,235.676533 0.184,235.6152 C0.122666667,235.553867 0.0613333333,235.3392 0,234.9712 C0,234.4192 0.184,234.020533 0.552,233.7752 C0.858666667,233.468533 1.13466667,233.3152 1.38,233.3152 C1.62533333,233.3152 1.84,233.100533 2.024,232.6712 C2.14666667,232.241867 2.42266667,231.781867 2.852,231.2912 C3.22,230.9232 3.496,230.5552 3.68,230.1872 C3.80266667,229.941867 4.14,229.757867 4.692,229.6352 C4.876,229.573867 5.02933333,229.512533 5.152,229.4512 C5.27466667,229.389867 5.35133333,229.3132 5.382,229.2212 C5.41266667,229.1292 5.428,228.9912 5.428,228.8072 C5.428,228.009867 5.58133333,227.6112 5.888,227.6112 C5.94933333,227.6112 6.10266667,227.534533 6.348,227.3812 C6.59333333,227.227867 6.82333333,227.043867 7.038,226.8292 C7.25266667,226.614533 7.36,226.445867 7.36,226.3232 C7.36,226.1392 7.57466667,225.8632 8.004,225.4952 C8.43333333,225.1272 8.77066667,224.820533 9.016,224.5752 C9.32266667,224.329867 9.53733333,224.2072 9.66,224.2072 C9.78266667,224.2072 9.87466667,223.9312 9.936,223.3792 C9.99733333,222.8272 10.12,222.4592 10.304,222.2752 C10.5493333,222.152533 10.7333333,221.876533 10.856,221.4472 C11.04,221.017867 11.3466667,220.557867 11.776,220.0672 C12.328,219.637867 12.6346667,219.208533 12.696,218.7792 C12.8186667,218.349867 12.9413333,218.104533 13.064,218.0432 C13.248,217.981867 13.4013333,217.797867 13.524,217.4912 C13.5853333,217.184533 13.8306667,216.7552 14.26,216.2032 Z M24.656,216.5712 C24.656,216.2032 24.84,216.233867 25.208,216.6632 L25.392,216.9392 C25.576,217.368533 25.6066667,218.748533 25.484,221.0792 C25.4226667,222.857867 25.53,224.0232 25.806,224.5752 C26.082,225.1272 26.1893333,225.740533 26.128,226.4152 C26.0666667,227.089867 25.9286667,227.534533 25.714,227.7492 C25.4993333,227.963867 25.4226667,228.285867 25.484,228.7152 C25.6066667,229.2672 25.6066667,229.9572 25.484,230.7852 C25.3613333,231.6132 25.208,232.1192 25.024,232.3032 C24.5333333,232.732533 24.472,233.0392 24.84,233.2232 C25.024,233.284533 25.1773333,233.468533 25.3,233.7752 C25.3613333,234.081867 25.392,237.056533 25.392,242.6992 L25.392,251.1632 L24.932,251.8072 C24.564,252.1752 24.38,252.4512 24.38,252.6352 C24.38,252.8192 24.2573333,253.079867 24.012,253.4172 C23.7666667,253.754533 23.644,254.030533 23.644,254.2452 C23.644,254.459867 23.5213333,254.6592 23.276,254.8432 C23.0306667,255.0272 22.908,255.180533 22.908,255.3032 C22.908,255.364533 22.8006667,255.502533 22.586,255.7172 C22.3713333,255.931867 22.1413333,256.115867 21.896,256.2692 C21.6506667,256.422533 21.4973333,256.4992 21.436,256.4992 C21.1906667,256.4992 20.884,256.284533 20.516,255.8552 C20.148,255.425867 19.964,255.088533 19.964,254.8432 C19.964,254.536533 20.056,254.1992 20.24,253.8312 C20.424,253.524533 20.5466667,252.420533 20.608,250.5192 C20.7306667,248.617867 20.884,247.452533 21.068,247.0232 C21.252,246.4712 21.3746667,245.2752 21.436,243.4352 C21.4973333,241.472533 21.5586667,240.4912 21.62,240.4912 C21.62,240.368533 21.6813333,238.436533 21.804,234.6952 C21.9266667,230.953867 22.0493333,228.960533 22.172,228.7152 C22.356,228.469867 22.448,227.8412 22.448,226.8292 C22.448,225.8172 22.5706667,225.096533 22.816,224.6672 C23,224.2992 23.0306667,223.900533 22.908,223.4712 C22.7853333,223.1032 22.7546667,222.673867 22.816,222.1832 C22.8773333,221.692533 23,221.416533 23.184,221.3552 C23.3066667,221.293867 23.368,220.8032 23.368,219.8832 C23.368,218.0432 23.6133333,217.061867 24.104,216.9392 C24.472,216.816533 24.656,216.693867 24.656,216.5712 Z M43.424,218.5032 C43.608,218.257867 43.7306667,218.1352 43.792,218.1352 C44.0373333,218.1352 44.482,218.2732 45.126,218.5492 C45.77,218.8252 46.2146667,219.0552 46.46,219.2392 L47.104,219.6992 L47.104,221.8152 C47.104,223.164533 47.2573333,224.176533 47.564,224.8512 C47.932,225.525867 48.208,225.924533 48.392,226.0472 C48.576,226.169867 48.7293333,226.629867 48.852,227.4272 C48.9746667,228.101867 49.1586667,228.684533 49.404,229.1752 C50.2013333,230.769867 50.6306667,232.088533 50.692,233.1312 C50.692,234.173867 50.7993333,234.771867 51.014,234.9252 C51.2286667,235.078533 51.3973333,235.553867 51.52,236.3512 C51.6426667,237.209867 51.796,237.669867 51.98,237.7312 C52.532,238.037867 52.5013333,238.436533 51.888,238.9272 C51.336,239.417867 50.692,239.417867 49.956,238.9272 C49.5266667,238.620533 49.2046667,238.4672 48.99,238.4672 C48.7753333,238.4672 48.668,238.436533 48.668,238.3752 C48.668,238.068533 48.0546667,237.8232 46.828,237.6392 C46.2146667,237.516533 45.816,237.3172 45.632,237.0412 C45.448,236.7652 45.356,236.228533 45.356,235.4312 C45.356,234.388533 45.3253333,233.345867 45.264,232.3032 C45.2026667,231.5672 45.1413333,231.122533 45.08,230.9692 C45.0186667,230.815867 44.8653333,230.7392 44.62,230.7392 C44.3746667,230.7392 44.2366667,230.6932 44.206,230.6012 C44.1753333,230.5092 44.1906667,230.248533 44.252,229.8192 C44.3133333,229.205867 44.4666667,228.8072 44.712,228.6232 C44.9573333,228.500533 45.0953333,228.193867 45.126,227.7032 C45.1566667,227.212533 45.08,226.8752 44.896,226.6912 C44.712,226.568533 44.528,226.200533 44.344,225.5872 C44.2213333,224.973867 43.9913333,224.2992 43.654,223.5632 C43.3166667,222.8272 43.102,222.4592 43.01,222.4592 C42.918,222.4592 42.78,222.6432 42.596,223.0112 C42.2893333,223.808533 41.6453333,224.513867 40.664,225.1272 C40.1733333,225.372533 39.928,225.5872 39.928,225.7712 C39.928,225.832533 39.836,225.8632 39.652,225.8632 C39.468,225.8632 39.2993333,226.0012 39.146,226.2772 C38.9926667,226.5532 38.7626667,226.752533 38.456,226.8752 C38.1493333,226.997867 37.996,227.1512 37.996,227.3352 C37.996,227.5192 37.8426667,227.641867 37.536,227.7032 C37.2906667,227.764533 36.8,228.132533 36.064,228.8072 C34.776,229.972533 34.0093333,230.585867 33.764,230.6472 C33.4573333,230.708533 33.304,230.800533 33.304,230.9232 C33.304,230.984533 33.0893333,231.1072 32.66,231.2912 C32.2306667,231.4752 31.9546667,231.689867 31.832,231.9352 C31.7706667,232.180533 31.5866667,232.333867 31.28,232.3952 C30.912,232.517867 30.6053333,232.640533 30.36,232.7632 C29.6853333,233.253867 29.164,233.1312 28.796,232.3952 C28.612,232.088533 28.5353333,231.8892 28.566,231.7972 C28.5966667,231.7052 28.704,231.536533 28.888,231.2912 C29.1946667,230.984533 29.5626667,230.708533 29.992,230.4632 C30.36,230.2792 30.636,230.0952 30.82,229.9112 C31.004,229.7272 31.188,229.6352 31.372,229.6352 C31.6173333,229.6352 31.8933333,229.466533 32.2,229.1292 C32.5066667,228.791867 32.7366667,228.6232 32.89,228.6232 C33.0433333,228.6232 33.2273333,228.454533 33.442,228.1172 C33.6566667,227.779867 33.856,227.6112 34.04,227.6112 C34.224,227.6112 34.316,227.549867 34.316,227.4272 C34.316,226.997867 34.8986667,226.476533 36.064,225.8632 C36.432,225.740533 36.7693333,225.464533 37.076,225.0352 C37.3213333,224.605867 37.5053333,224.3912 37.628,224.3912 C37.7506667,224.3912 38.1646667,224.0232 38.87,223.2872 C39.5753333,222.5512 39.928,222.121867 39.928,221.9992 C39.928,221.753867 40.1733333,221.569867 40.664,221.4472 C41.1546667,221.324533 41.4766667,221.0792 41.63,220.7112 C41.7833333,220.3432 42.0746667,220.036533 42.504,219.7912 C42.9946667,219.6072 43.24,219.4232 43.24,219.2392 C43.24,219.0552 43.3013333,218.809867 43.424,218.5032 Z M47.932,230.6472 C47.4413333,230.2792 47.1346667,230.2792 47.012,230.6472 C46.828,231.076533 46.9813333,231.2912 47.472,231.2912 C47.7786667,231.2912 47.978,231.214533 48.07,231.0612 C48.162,230.907867 48.116,230.769867 47.932,230.6472 Z M64.308,221.9992 C64.308,221.876533 64.4153333,221.8152 64.63,221.8152 C64.8446667,221.8152 64.952,221.876533 64.952,221.9992 C64.952,222.121867 65.1053333,222.213867 65.412,222.2752 C65.7186667,222.397867 65.872,222.5512 65.872,222.7352 C65.872,222.9192 66.0406667,223.118533 66.378,223.3332 C66.7153333,223.547867 66.884,223.716533 66.884,223.8392 C66.884,223.961867 67.0373333,224.2072 67.344,224.5752 C68.0186667,225.372533 67.9573333,226.169867 67.16,226.9672 C66.792,227.396533 66.286,227.6572 65.642,227.7492 C64.998,227.8412 64.5226667,228.009867 64.216,228.2552 C63.9706667,228.500533 63.664,228.653867 63.296,228.7152 C62.4373333,228.8992 61.64,229.328533 60.904,230.0032 C60.5973333,230.309867 60.1373333,230.493867 59.524,230.5552 C58.7266667,230.7392 58.2513333,230.815867 58.098,230.7852 C57.9446667,230.754533 57.8373333,230.5552 57.776,230.1872 C57.776,229.8192 57.8373333,229.6352 57.96,229.6352 C58.0826667,229.6352 58.4506667,229.328533 59.064,228.7152 C59.616,228.1632 60.0453333,227.856533 60.352,227.7952 C60.536,227.672533 60.9653333,227.304533 61.64,226.6912 C62.3146667,226.077867 62.652,225.6792 62.652,225.4952 C62.652,225.433867 62.7133333,225.372533 62.836,225.3112 C63.1426667,225.188533 63.3266667,224.452533 63.388,223.1032 C63.388,222.673867 63.5413333,222.4132 63.848,222.3212 C64.1546667,222.2292 64.308,222.121867 64.308,221.9992 Z M53.82,230.2792 C53.6973333,229.972533 53.7433333,229.650533 53.958,229.3132 C54.1726667,228.975867 54.4946667,228.8072 54.924,228.8072 C55.3533333,228.8072 55.6906667,228.960533 55.936,229.2672 C56.2426667,229.6352 56.4573333,229.8192 56.58,229.8192 C56.7026667,229.8192 56.856,230.064533 57.04,230.5552 C57.1626667,231.045867 57.3466667,231.2912 57.592,231.2912 C57.8373333,231.2912 57.96,231.3832 57.96,231.5672 C57.96,231.873867 58.696,232.5792 60.168,233.6832 C60.6586667,234.112533 61.0266667,234.6032 61.272,235.1552 C61.7013333,236.136533 62.192,236.688533 62.744,236.8112 C63.0506667,236.933867 63.204,237.0872 63.204,237.2712 C63.204,237.4552 63.3573333,237.608533 63.664,237.7312 C63.9706667,237.853867 64.124,238.0072 64.124,238.1912 C64.124,238.3752 64.262,238.4672 64.538,238.4672 C64.814,238.4672 64.9826667,238.6052 65.044,238.8812 C65.1053333,239.1572 65.228,239.2952 65.412,239.2952 C65.596,239.2952 65.8106667,239.448533 66.056,239.7552 C66.3013333,240.061867 66.4853333,240.2152 66.608,240.2152 C66.792,240.2152 67.0986667,240.429867 67.528,240.8592 C67.9573333,241.2272 68.2333333,241.4112 68.356,241.4112 C68.4786667,241.4112 68.586,241.533867 68.678,241.7792 C68.77,242.024533 68.9386667,242.1472 69.184,242.1472 C69.368,242.1472 69.552,242.269867 69.736,242.5152 C69.8586667,242.760533 70.1346667,243.005867 70.564,243.2512 C70.748,243.312533 71.0853333,243.496533 71.576,243.8032 C71.8826667,243.9872 72.3733333,244.4012 73.048,245.0452 C73.7226667,245.6892 74.06,246.072533 74.06,246.1952 C74.06,246.3792 74.198,246.5632 74.474,246.7472 C74.75,246.9312 74.9186667,247.2072 74.98,247.5752 C75.0413333,247.697867 75.0873333,247.774533 75.118,247.8052 C75.1486667,247.835867 75.1793333,247.881867 75.21,247.9432 C75.2406667,248.004533 75.3173333,248.050533 75.44,248.0812 C75.5626667,248.111867 75.6853333,248.142533 75.808,248.1732 C75.9306667,248.203867 76.1146667,248.2192 76.36,248.2192 C76.7893333,248.280533 77.1113333,248.341867 77.326,248.4032 C77.5406667,248.464533 77.694,248.571867 77.786,248.7252 C77.878,248.878533 77.924,249.0932 77.924,249.3692 C77.924,249.6452 77.878,249.844533 77.786,249.9672 C77.694,250.089867 77.556,250.181867 77.372,250.2432 C77.188,250.304533 76.8506667,250.365867 76.36,250.4272 C75.5013333,250.488533 74.9033333,250.6572 74.566,250.9332 C74.2286667,251.2092 73.9373333,251.3472 73.692,251.3472 C73.4466667,251.3472 73.14,251.4392 72.772,251.6232 C72.404,251.8072 71.9746667,251.8992 71.484,251.8992 C70.9933333,251.8992 70.7173333,251.8072 70.656,251.6232 C70.5946667,251.4392 70.38,251.316533 70.012,251.2552 C69.7053333,251.132533 69.552,250.9792 69.552,250.7952 C69.552,250.6112 69.4293333,250.4732 69.184,250.3812 C68.9386667,250.2892 68.7853333,250.089867 68.724,249.7832 C68.6626667,249.476533 68.54,249.3232 68.356,249.3232 C68.172,249.3232 68.08,249.246533 68.08,249.0932 C68.08,248.939867 67.8806667,248.7712 67.482,248.5872 C67.0833333,248.4032 66.884,248.2192 66.884,248.0352 C66.884,247.8512 66.7613333,247.728533 66.516,247.6672 C66.332,247.605867 66.0253333,247.360533 65.596,246.9312 C65.1666667,246.501867 64.952,246.225867 64.952,246.1032 C64.952,245.980533 64.86,245.9192 64.676,245.9192 C64.676,245.9192 64.5993333,245.857867 64.446,245.7352 C64.2926667,245.612533 64.1393333,245.4592 63.986,245.2752 C63.8326667,245.0912 63.6793333,244.9072 63.526,244.7232 C63.3726667,244.5392 63.2653333,244.385867 63.204,244.2632 C63.0813333,244.017867 62.928,243.8952 62.744,243.8952 C62.56,243.8952 62.4066667,243.649867 62.284,243.1592 C62.1,242.668533 61.8853333,242.392533 61.64,242.3312 C61.088,242.085867 60.8733333,241.5952 60.996,240.8592 C61.1186667,240.4912 61.1493333,240.245867 61.088,240.1232 C61.0266667,240.000533 60.8733333,239.8472 60.628,239.6632 C59.2786667,238.7432 58.3586667,237.8232 57.868,236.9032 C57.684,236.657867 57.3466667,236.289867 56.856,235.7992 C56.3653333,235.185867 56.0586667,234.664533 55.936,234.2352 C55.8746667,233.744533 55.66,233.3152 55.292,232.9472 C54.9853333,232.517867 54.74,232.241867 54.556,232.1192 C54.372,231.9352 54.2493333,231.628533 54.188,231.1992 C54.0653333,230.769867 53.9426667,230.4632 53.82,230.2792 Z M42.412,231.0152 C42.6573333,230.769867 43.1173333,230.677867 43.792,230.7392 C43.9146667,230.7392 43.976,230.769867 43.976,230.8312 C43.976,230.8312 43.8533333,231.076533 43.608,231.5672 C43.1173333,232.548533 42.6573333,233.0392 42.228,233.0392 C42.044,233.0392 41.7986667,233.192533 41.492,233.4992 C41.308,233.744533 40.9706667,234.0512 40.48,234.4192 C40.0506667,234.7872 39.6826667,235.093867 39.376,235.3392 C39.008,235.645867 38.7013333,235.829867 38.456,235.8912 C38.1493333,236.013867 37.996,236.182533 37.996,236.3972 C37.996,236.611867 37.7353333,236.795867 37.214,236.9492 C36.6926667,237.102533 36.3706667,237.0872 36.248,236.9032 C35.88,236.412533 35.972,236.013867 36.524,235.7072 C36.7693333,235.584533 36.9533333,235.446533 37.076,235.2932 C37.1986667,235.139867 37.3673333,235.0632 37.582,235.0632 C37.7966667,235.0632 38.0113333,234.940533 38.226,234.6952 C38.4406667,234.449867 38.7626667,234.2352 39.192,234.0512 C39.4986667,233.928533 39.7133333,233.713867 39.836,233.4072 C39.8973333,233.161867 40.0506667,233.0392 40.296,233.0392 C40.5413333,233.0392 40.6946667,232.916533 40.756,232.6712 C40.8786667,232.425867 41.0013333,232.3032 41.124,232.3032 C41.2466667,232.3032 41.3693333,232.134533 41.492,231.7972 C41.6146667,231.459867 41.768,231.2912 41.952,231.2912 C42.136,231.2912 42.2893333,231.1992 42.412,231.0152 Z M39.468,240.3992 C41.1853333,240.276533 42.32,240.460533 42.872,240.9512 C43.24,241.3192 43.424,241.564533 43.424,241.6872 C43.424,241.809867 43.194,242.085867 42.734,242.5152 C42.274,242.944533 41.9826667,243.1592 41.86,243.1592 C41.7373333,243.1592 41.676,243.266533 41.676,243.4812 C41.676,243.695867 41.4613333,243.864533 41.032,243.9872 C40.6026667,244.1712 40.112,244.5392 39.56,245.0912 C39.008,245.6432 38.64,245.9192 38.456,245.9192 C38.272,245.9192 38.1493333,245.980533 38.088,246.1032 C37.9653333,246.2872 37.6586667,246.501867 37.168,246.7472 C36.6773333,246.992533 36.3706667,247.268533 36.248,247.5752 C36.1253333,247.881867 35.788,248.157867 35.236,248.4032 C34.6226667,248.648533 34.2853333,248.8632 34.224,249.0472 C34.1626667,249.2312 33.8866667,249.3692 33.396,249.4612 C32.9053333,249.5532 32.568,249.721867 32.384,249.9672 C32.1386667,250.212533 31.8166667,250.3352 31.418,250.3352 C31.0193333,250.3352 30.82,250.166533 30.82,249.8292 C30.82,249.491867 30.8966667,249.3232 31.05,249.3232 C31.2033333,249.3232 31.3566667,249.1392 31.51,248.7712 C31.6633333,248.4032 31.8473333,248.2192 32.062,248.2192 C32.2766667,248.2192 32.384,248.1272 32.384,247.9432 C32.384,247.7592 32.5373333,247.605867 32.844,247.4832 C33.1506667,247.421867 33.5033333,247.222533 33.902,246.8852 C34.3006667,246.547867 34.5,246.2872 34.5,246.1032 C34.5,245.980533 34.592,245.9192 34.776,245.9192 C34.96,245.9192 35.144,245.7352 35.328,245.3672 C35.5733333,245.060533 35.8493333,244.876533 36.156,244.8152 C36.524,244.753867 36.8,244.569867 36.984,244.2632 C37.168,244.017867 37.3826667,243.8952 37.628,243.8952 C37.8733333,243.8952 38.0266667,243.557867 38.088,242.8832 C38.1493333,242.208533 38.18,241.656533 38.18,241.2272 L38.088,240.5832 L39.468,240.3992 Z M53.452,240.5832 C53.636,240.337867 53.774,240.2152 53.866,240.2152 C53.958,240.2152 54.0193333,240.276533 54.05,240.3992 C54.0806667,240.521867 54.0653333,240.659867 54.004,240.8132 C53.9426667,240.966533 53.8813333,241.0432 53.82,241.0432 C53.636,241.165867 53.498,241.150533 53.406,240.9972 C53.314,240.843867 53.3293333,240.705867 53.452,240.5832 Z M45.908,241.5032 C46.276,241.196533 47.104,241.257867 48.392,241.6872 C49.9253333,242.2392 50.9986667,242.300533 51.612,241.8712 C51.7346667,241.748533 52.0413333,241.625867 52.532,241.5032 C52.9,241.3192 53.084,241.349867 53.084,241.5952 C53.084,241.840533 53.0226667,242.024533 52.9,242.1472 C52.7773333,242.269867 52.808,242.760533 52.992,243.6192 C53.2373333,244.416533 53.2373333,245.213867 52.992,246.0112 C52.5626667,247.605867 52.348,248.8632 52.348,249.7832 C52.348,250.5192 52.256,250.9332 52.072,251.0252 C51.888,251.1172 51.796,251.4392 51.796,251.9912 C51.796,252.5432 51.5966667,253.033867 51.198,253.4632 C50.7993333,253.892533 50.6,254.1992 50.6,254.3832 C50.6,254.628533 50.508,254.7972 50.324,254.8892 C50.14,254.9812 49.9866667,255.272533 49.864,255.7632 C49.7413333,256.192533 49.5573333,256.468533 49.312,256.5912 C49.0053333,256.713867 48.852,256.897867 48.852,257.1432 C48.852,257.265867 48.7446667,257.434533 48.53,257.6492 C48.3153333,257.863867 48.0853333,258.047867 47.84,258.2012 C47.5946667,258.354533 47.38,258.4312 47.196,258.4312 C47.012,258.4312 46.8586667,258.5232 46.736,258.7072 C46.6133333,258.8912 46.3373333,259.0752 45.908,259.2592 C45.54,259.4432 45.3253333,259.6272 45.264,259.8112 C45.2026667,260.056533 44.6506667,260.240533 43.608,260.3632 C42.504,260.485867 41.86,260.4552 41.676,260.2712 C41.492,260.0872 41.4306667,259.289867 41.492,257.8792 C41.492,256.4072 41.4306667,255.609867 41.308,255.4872 C41.1853333,255.364533 41.0933333,255.134533 41.032,254.7972 C40.9706667,254.459867 40.9246667,254.1532 40.894,253.8772 C40.8633333,253.6012 40.848,253.401867 40.848,253.2792 C40.9706667,253.156533 41.5686667,253.0492 42.642,252.9572 C43.7153333,252.8652 44.436,252.6352 44.804,252.2672 C45.172,251.960533 45.356,251.730533 45.356,251.5772 C45.356,251.423867 45.5706667,251.285867 46,251.1632 C46.4906667,251.101867 46.736,251.040533 46.736,250.9792 C46.736,250.9792 46.5826667,250.810533 46.276,250.4732 C45.9693333,250.135867 45.8466667,249.660533 45.908,249.0472 C45.9693333,248.433867 46.092,247.9432 46.276,247.5752 C46.5213333,247.268533 46.552,246.869867 46.368,246.3792 C46.184,245.888533 46.184,245.428533 46.368,244.9992 C46.4906667,244.569867 46.4753333,244.2172 46.322,243.9412 C46.1686667,243.6652 46.092,243.419867 46.092,243.2052 C46.092,242.990533 46,242.6992 45.816,242.3312 C45.632,241.9632 45.6626667,241.6872 45.908,241.5032 Z" id="Shape"></path>
            </g>
        </g>
    </g>
</svg>