<?xml version="1.0" encoding="UTF-8"?>
<svg width="1512px" height="346px" viewBox="0 0 1512 346" version="1.1" xmlns="http://www.w3.org/2000/svg" xmlns:xlink="http://www.w3.org/1999/xlink">
    <title>Artboard</title>
    <g id="Artboard" stroke="none" stroke-width="1" fill="none" fill-rule="evenodd">
        <g id="1.-e4-e5-2.-Nf3-Nc6" transform="translate(-79.846500, 14.525000)" fill="#F2DD99" fill-rule="nonzero">
            <path d="M109.9435,52.185 C115.3395,51.333 118.5345,49.203 121.7295,45.582 L120.3095,42.529 C117.5405,43.665 115.6235,44.02 113.4935,44.02 C108.5945,44.02 104.4765,42.174 103.9795,35.145 L121.8715,35.145 C122.1555,33.725 122.2975,32.447 122.2975,31.24 C122.2975,24.353 117.3985,20.235 110.2985,20.235 C100.3585,20.235 93.0455,26.98 93.0455,36.423 C93.0455,45.156 97.7315,51.83 109.9435,52.185 Z M104.0505,31.24 C104.4055,27.122 105.8965,24.495 108.3815,24.495 C110.7955,24.495 112.1445,27.122 112.4285,31.24 L104.0505,31.24 Z" id="Shape"></path>
            <path d="M143.1715,64.255 L154.1055,64.255 C153.8925,61.06 153.8215,56.445 153.7505,51.546 L158.7915,51.617 L160.6375,42.387 C158.2235,42.813 155.9515,43.097 153.7505,43.239 L153.7505,43.026 C153.7505,39.476 153.7505,22.365 154.1055,20.448 L148.7805,16.756 C141.6805,28.187 134.7935,38.624 125.3505,49.487 L126.0605,52.54 C131.6695,52.043 137.7045,51.759 143.7395,51.617 C143.5975,56.516 143.3845,61.06 143.1715,64.255 Z M135.9295,43.736 C138.7695,40.044 141.2545,36.423 143.8105,32.873 L143.8105,43.026 L143.8105,43.736 C141.3255,43.736 138.6985,43.736 135.9295,43.736 Z" id="Shape"></path>
            <path d="M199.0485,52.185 C204.4445,51.333 207.6395,49.203 210.8345,45.582 L209.4145,42.529 C206.6455,43.665 204.7285,44.02 202.5985,44.02 C197.6995,44.02 193.5815,42.174 193.0845,35.145 L210.9765,35.145 C211.2605,33.725 211.4025,32.447 211.4025,31.24 C211.4025,24.353 206.5035,20.235 199.4035,20.235 C189.4635,20.235 182.1505,26.98 182.1505,36.423 C182.1505,45.156 186.8365,51.83 199.0485,52.185 Z M193.1555,31.24 C193.5105,27.122 195.0015,24.495 197.4865,24.495 C199.9005,24.495 201.2495,27.122 201.5335,31.24 L193.1555,31.24 Z" id="Shape"></path>
            <path d="M222.6205,20.945 L217.0825,43.381 C227.6615,44.091 233.1285,47.073 233.1285,52.114 C233.1285,56.374 229.7205,61.699 215.5205,64.042 L216.3725,67.095 C233.4835,65.746 244.1335,60.421 244.1335,49.061 C244.1335,39.973 237.2465,34.861 224.3245,34.08 L225.3895,30.175 C230.7145,29.678 237.2465,29.465 243.2815,29.465 L245.9085,18.815 C239.4475,20.235 229.0815,20.661 222.6205,20.945 Z" id="Path"></path>
            <path d="M299.3005,39.76 L295.8925,38.695 C293.2655,43.594 291.3485,44.375 286.8045,44.375 L280.6275,44.375 C289.5025,40.257 293.5495,35.713 293.5495,29.678 C293.5495,23.217 287.9405,20.235 282.4735,20.235 C276.7935,20.235 269.8355,23.43 267.3505,32.66 L270.7585,33.796 C272.4625,30.672 274.7345,28.755 277.6455,28.755 C280.2725,28.755 281.8345,30.175 281.8345,33.086 C281.8345,35.997 281.2665,40.186 268.0605,48.848 L268.7705,51.901 C270.6875,51.617 275.5155,51.475 280.4145,51.475 C287.1595,51.475 291.4195,51.475 296.3895,51.688 C297.0285,47.712 297.9515,43.736 299.3005,39.76 Z" id="Path"></path>
            <path d="M307.4655,39.405 C304.4125,41.038 302.1405,43.381 300.7205,46.15 C302.1405,48.919 304.4125,51.262 307.4655,52.895 C310.5185,51.262 312.7905,48.919 314.2105,46.15 C312.7905,43.381 310.5185,41.038 307.4655,39.405 Z" id="Path"></path>
            <path d="M380.2405,6.745 C377.0455,6.745 374.9155,6.603 371.3655,6.39 L370.6555,9.585 L376.6905,12.07 C377.4005,16.614 377.4005,21.584 377.4005,29.11 L377.4005,33.654 C367.8865,25.489 358.3725,15.62 348.8585,6.745 L346.0185,6.745 C343.5335,6.745 341.1905,6.745 338.7055,6.532 L337.9955,9.585 C341.5455,11.715 341.9005,14.058 341.9005,19.738 L341.9005,29.11 C341.9005,36.636 341.5455,41.606 341.2615,43.31 C340.8355,46.008 340.1255,47.996 337.9955,48.635 L337.9955,51.688 C340.1255,51.546 341.9005,51.475 344.7405,51.475 C347.9355,51.475 350.0655,51.617 353.6155,51.83 L354.3255,48.635 L348.2905,46.15 C347.5805,41.606 347.5805,36.636 347.5805,29.11 L347.5805,22.01 C358.0175,31.595 369.7325,42.955 380.1695,51.83 L383.5775,51.475 C383.0805,41.819 383.0805,37.985 383.0805,29.11 C383.0805,21.584 383.4355,16.614 383.7195,14.91 C384.1455,12.212 384.8555,10.224 386.9855,9.585 L386.9855,6.532 C384.8555,6.674 383.0805,6.745 380.2405,6.745 Z" id="Path"></path>
            <path d="M395.7185,18.531 L395.7185,21.726 C394.2985,22.436 393.2335,22.862 391.8135,23.217 L391.8135,26.27 L395.7185,26.27 C395.7185,36.707 395.5765,43.31 395.2215,45.085 C394.9375,46.505 394.2985,47.925 392.5235,48.635 L392.5235,51.688 C395.3635,51.546 397.8485,51.475 401.0435,51.475 C404.2385,51.475 406.3685,51.546 410.2735,51.83 L410.9835,48.635 L406.7235,47.57 C406.3685,43.381 406.3685,36.707 406.3685,26.27 L415.9535,26.27 L417.0185,20.945 L406.3685,20.945 L406.3685,18.46 C406.3685,11.076 408.5695,4.26 413.6105,4.26 C416.8055,4.26 417.8705,7.455 417.8705,11.715 C422.3435,11.715 425.6805,10.295 425.6805,6.39 C425.6805,2.13 421.6335,0 415.2435,0 C402.4635,0 395.7185,8.165 395.7185,18.531 Z" id="Path"></path>
            <path d="M424.4735,42.387 L425.3965,45.795 C426.4615,45.511 427.4555,45.156 428.4495,44.872 C432.9225,45.724 434.6975,48.777 434.6975,51.901 C434.6975,57.51 428.6625,62.551 417.2315,64.042 L418.0835,67.095 C434.9105,66.314 446.1995,59.356 446.1995,48.635 C446.1995,44.304 444.2825,40.399 440.0935,38.34 C442.6495,35.784 444.0695,32.944 444.0695,29.749 C444.0695,23.998 439.4545,20.235 432.5675,20.235 C425.1835,20.235 420.3555,24.566 417.5155,32.305 L420.8525,33.37 C423.1955,30.317 425.1835,28.755 428.4495,28.755 C431.9285,28.755 433.8455,30.53 433.8455,33.654 C433.8455,37.346 430.7215,39.76 424.4735,42.387 Z" id="Path"></path>
            <path d="M512.2295,6.745 C509.0345,6.745 506.9045,6.603 503.3545,6.39 L502.6445,9.585 L508.6795,12.07 C509.3895,16.614 509.3895,21.584 509.3895,29.11 L509.3895,33.654 C499.8755,25.489 490.3615,15.62 480.8475,6.745 L478.0075,6.745 C475.5225,6.745 473.1795,6.745 470.6945,6.532 L469.9845,9.585 C473.5345,11.715 473.8895,14.058 473.8895,19.738 L473.8895,29.11 C473.8895,36.636 473.5345,41.606 473.2505,43.31 C472.8245,46.008 472.1145,47.996 469.9845,48.635 L469.9845,51.688 C472.1145,51.546 473.8895,51.475 476.7295,51.475 C479.9245,51.475 482.0545,51.617 485.6045,51.83 L486.3145,48.635 L480.2795,46.15 C479.5695,41.606 479.5695,36.636 479.5695,29.11 L479.5695,22.01 C490.0065,31.595 501.7215,42.955 512.1585,51.83 L515.5665,51.475 C515.0695,41.819 515.0695,37.985 515.0695,29.11 C515.0695,21.584 515.4245,16.614 515.7085,14.91 C516.1345,12.212 516.8445,10.224 518.9745,9.585 L518.9745,6.532 C516.8445,6.674 515.0695,6.745 512.2295,6.745 Z" id="Path"></path>
            <path d="M542.6885,44.02 C538.0735,44.02 534.8075,41.89 534.8075,34.009 C534.8075,27.69 536.9375,24.85 539.3515,24.85 C542.2625,24.85 543.3985,28.045 543.3985,31.95 C548.0135,31.95 551.2085,30.459 551.2085,26.767 C551.2085,22.649 547.3035,20.235 541.1265,20.235 C531.2575,20.235 523.4475,26.554 523.4475,36.92 C523.4475,44.659 527.5655,51.83 539.4225,52.185 C544.8185,51.049 548.0135,48.564 551.2085,45.227 L549.7885,42.174 C547.0195,43.594 545.1735,44.02 542.6885,44.02 Z" id="Path"></path>
            <path d="M575.5615,26.625 C573.2185,27.193 570.8045,28.258 568.8165,29.891 L569.6685,32.944 C571.0175,32.447 571.9405,32.234 572.8635,32.234 C575.7035,32.234 577.5495,34.719 577.5495,39.263 C577.5495,45.014 575.2775,47.712 572.7215,47.712 C569.5265,47.712 566.8995,43.381 566.8995,34.364 C566.8995,20.874 572.7925,12.993 585.0045,8.378 L584.1525,5.325 C564.0595,10.082 555.5395,23.004 555.5395,34.577 C555.5395,43.807 560.9355,52.185 571.8695,52.185 C580.8865,52.185 587.8445,46.505 587.8445,38.056 C587.8445,31.027 583.0165,26.625 575.5615,26.625 Z" id="Path"></path>
            <path d="M616.8125,42.387 L617.7355,45.795 C618.8005,45.511 619.7945,45.156 620.7885,44.872 C625.2615,45.724 627.0365,48.777 627.0365,51.901 C627.0365,57.51 621.0015,62.551 609.5705,64.042 L610.4225,67.095 C627.2495,66.314 638.5385,59.356 638.5385,48.635 C638.5385,44.304 636.6215,40.399 632.4325,38.34 C634.9885,35.784 636.4085,32.944 636.4085,29.749 C636.4085,23.998 631.7935,20.235 624.9065,20.235 C617.5225,20.235 612.6945,24.566 609.8545,32.305 L613.1915,33.37 C615.5345,30.317 617.5225,28.755 620.7885,28.755 C624.2675,28.755 626.1845,30.53 626.1845,33.654 C626.1845,37.346 623.0605,39.76 616.8125,42.387 Z" id="Path"></path>
            <path d="M649.8985,39.405 C646.8455,41.038 644.5735,43.381 643.1535,46.15 C644.5735,48.919 646.8455,51.262 649.8985,52.895 C652.9515,51.262 655.2235,48.919 656.6435,46.15 C655.2235,43.381 652.9515,41.038 649.8985,39.405 Z" id="Path"></path>
            <path d="M711.3135,26.625 C715.7155,24.85 717.6325,21.016 717.6325,16.898 C717.6325,10.721 712.1655,6.035 703.4325,6.035 C696.9715,6.035 695.1965,6.745 689.8715,6.745 C686.8185,6.745 684.3335,6.674 681.1385,6.532 L680.4285,9.585 L683.9785,11.36 C684.3335,16.046 684.3335,19.596 684.3335,29.11 C684.3335,38.269 684.0495,41.819 683.6945,44.02 C683.4105,45.795 682.7005,47.925 680.4285,48.635 L680.4285,51.688 C683.9785,51.546 686.1795,51.475 688.8775,51.475 C696.1905,51.475 696.6875,51.83 700.7345,51.83 C713.7275,51.83 720.8275,45.653 720.8275,37.772 C720.8275,32.66 717.7035,27.974 711.3135,26.625 Z M695.3385,30.53 L700.5215,30.53 C705.7045,30.53 708.4025,33.938 708.4025,38.837 C708.4025,42.529 706.5565,46.86 700.5925,46.86 C699.1725,46.86 697.4685,46.647 695.6935,46.079 C695.3385,42.032 695.3385,38.624 695.3385,30.53 Z M695.3385,25.56 C695.4095,18.673 695.6935,15.833 695.9775,14.271 C696.4745,11.857 697.6105,11.005 699.7405,11.005 C704.4975,11.005 706.2725,14.2 706.2725,17.75 C706.2725,21.087 704.7105,25.56 700.0245,25.56 L695.3385,25.56 Z" id="Shape"></path>
            <path d="M729.0635,50.055 L731.1935,52.185 C732.6845,51.262 734.2465,50.481 735.8085,49.842 C739.3585,51.688 742.0565,52.185 744.8255,52.185 C754.9785,52.185 762.7885,45.653 762.7885,34.932 C762.7885,26.696 758.1735,20.235 750.0085,20.235 C746.2455,21.371 743.3345,23.004 740.7785,25.915 C740.7785,11.573 740.7785,6.035 741.8435,2.13 L739.7135,0 C736.5185,1.846 731.9035,3.763 727.2885,4.615 L727.2885,7.668 L729.7735,8.733 C730.1285,11.573 730.1285,16.33 730.1285,25.915 C730.1285,36.565 730.1285,47.57 729.0635,50.055 Z M740.7785,40.328 L740.7785,30.885 C741.7015,29.252 743.7605,28.045 745.6775,28.045 C748.7305,28.045 751.0735,31.098 751.0735,37.559 C751.0735,44.162 748.5885,47.57 745.4645,47.57 C743.1925,47.57 740.7785,45.724 740.7785,40.328 Z" id="Shape"></path>
            <path d="M774.1485,20.945 L768.6105,43.381 C779.1895,44.091 784.6565,47.073 784.6565,52.114 C784.6565,56.374 781.2485,61.699 767.0485,64.042 L767.9005,67.095 C785.0115,65.746 795.6615,60.421 795.6615,49.061 C795.6615,39.973 788.7745,34.861 775.8525,34.08 L776.9175,30.175 C782.2425,29.678 788.7745,29.465 794.8095,29.465 L797.4365,18.815 C790.9755,20.235 780.6095,20.661 774.1485,20.945 Z" id="Path"></path>
            <path d="M843.4445,52.185 C847.0655,51.617 850.1185,49.842 852.5325,47.215 L851.1125,44.162 C850.4025,44.588 849.4795,45.085 848.5565,45.085 C847.3495,45.085 846.2845,44.304 846.2845,42.103 C846.2845,39.192 847.7045,33.512 847.7045,29.323 C847.7045,22.862 842.8055,20.235 834.2855,20.235 C826.1915,21.939 820.6535,24.282 820.6535,29.11 C820.6535,32.66 823.5645,34.151 827.8245,33.441 C827.8245,28.045 829.6705,24.85 832.8655,24.85 C835.7765,24.85 836.3445,27.051 836.3445,30.601 L836.2735,33.512 C822.5705,35.429 819.5885,40.683 819.5885,44.73 C819.5885,49.558 823.7065,51.759 827.7535,52.185 C831.3035,51.475 834.0725,50.055 836.6995,48.28 C837.9065,50.552 840.2495,51.83 843.4445,52.185 Z M830.2385,42.387 C830.2385,40.328 831.5875,38.198 836.1315,36.849 C836.0605,39.263 835.9895,41.89 835.9895,44.02 C834.8535,44.659 833.9305,45.085 832.8655,45.085 C831.1615,45.085 830.2385,43.736 830.2385,42.387 Z" id="Shape"></path>
            <path d="M875.0395,26.625 C872.6965,27.193 870.2825,28.258 868.2945,29.891 L869.1465,32.944 C870.4955,32.447 871.4185,32.234 872.3415,32.234 C875.1815,32.234 877.0275,34.719 877.0275,39.263 C877.0275,45.014 874.7555,47.712 872.1995,47.712 C869.0045,47.712 866.3775,43.381 866.3775,34.364 C866.3775,20.874 872.2705,12.993 884.4825,8.378 L883.6305,5.325 C863.5375,10.082 855.0175,23.004 855.0175,34.577 C855.0175,43.807 860.4135,52.185 871.3475,52.185 C880.3645,52.185 887.3225,46.505 887.3225,38.056 C887.3225,31.027 882.4945,26.625 875.0395,26.625 Z" id="Path"></path>
            <path d="M927.1535,64.255 L938.0875,64.255 C937.8745,61.06 937.8035,56.445 937.7325,51.546 L942.7735,51.617 L944.6195,42.387 C942.2055,42.813 939.9335,43.097 937.7325,43.239 L937.7325,43.026 C937.7325,39.476 937.7325,22.365 938.0875,20.448 L932.7625,16.756 C925.6625,28.187 918.7755,38.624 909.3325,49.487 L910.0425,52.54 C915.6515,52.043 921.6865,51.759 927.7215,51.617 C927.5795,56.516 927.3665,61.06 927.1535,64.255 Z M919.9115,43.736 C922.7515,40.044 925.2365,36.423 927.7925,32.873 L927.7925,43.026 L927.7925,43.736 C925.3075,43.736 922.6805,43.736 919.9115,43.736 Z" id="Shape"></path>
            <path d="M954.7725,39.405 C951.7195,41.038 949.4475,43.381 948.0275,46.15 C949.4475,48.919 951.7195,51.262 954.7725,52.895 C957.8255,51.262 960.0975,48.919 961.5175,46.15 C960.0975,43.381 957.8255,41.038 954.7725,39.405 Z" id="Path"></path>
            <path d="M1016.1875,26.625 C1020.5895,24.85 1022.5065,21.016 1022.5065,16.898 C1022.5065,10.721 1017.0395,6.035 1008.3065,6.035 C1001.8455,6.035 1000.0705,6.745 994.7455,6.745 C991.6925,6.745 989.2075,6.674 986.0125,6.532 L985.3025,9.585 L988.8525,11.36 C989.2075,16.046 989.2075,19.596 989.2075,29.11 C989.2075,38.269 988.9235,41.819 988.5685,44.02 C988.2845,45.795 987.5745,47.925 985.3025,48.635 L985.3025,51.688 C988.8525,51.546 991.0535,51.475 993.7515,51.475 C1001.0645,51.475 1001.5615,51.83 1005.6085,51.83 C1018.6015,51.83 1025.7015,45.653 1025.7015,37.772 C1025.7015,32.66 1022.5775,27.974 1016.1875,26.625 Z M1000.2125,30.53 L1005.3955,30.53 C1010.5785,30.53 1013.2765,33.938 1013.2765,38.837 C1013.2765,42.529 1011.4305,46.86 1005.4665,46.86 C1004.0465,46.86 1002.3425,46.647 1000.5675,46.079 C1000.2125,42.032 1000.2125,38.624 1000.2125,30.53 Z M1000.2125,25.56 C1000.2835,18.673 1000.5675,15.833 1000.8515,14.271 C1001.3485,11.857 1002.4845,11.005 1004.6145,11.005 C1009.3715,11.005 1011.1465,14.2 1011.1465,17.75 C1011.1465,21.087 1009.5845,25.56 1004.8985,25.56 L1000.2125,25.56 Z" id="Shape"></path>
            <path d="M1055.3085,52.185 C1058.9295,51.617 1061.9825,49.842 1064.3965,47.215 L1062.9765,44.162 C1062.2665,44.588 1061.3435,45.085 1060.4205,45.085 C1059.2135,45.085 1058.1485,44.304 1058.1485,42.103 C1058.1485,39.192 1059.5685,33.512 1059.5685,29.323 C1059.5685,22.862 1054.6695,20.235 1046.1495,20.235 C1038.0555,21.939 1032.5175,24.282 1032.5175,29.11 C1032.5175,32.66 1035.4285,34.151 1039.6885,33.441 C1039.6885,28.045 1041.5345,24.85 1044.7295,24.85 C1047.6405,24.85 1048.2085,27.051 1048.2085,30.601 L1048.1375,33.512 C1034.4345,35.429 1031.4525,40.683 1031.4525,44.73 C1031.4525,49.558 1035.5705,51.759 1039.6175,52.185 C1043.1675,51.475 1045.9365,50.055 1048.5635,48.28 C1049.7705,50.552 1052.1135,51.83 1055.3085,52.185 Z M1042.1025,42.387 C1042.1025,40.328 1043.4515,38.198 1047.9955,36.849 C1047.9245,39.263 1047.8535,41.89 1047.8535,44.02 C1046.7175,44.659 1045.7945,45.085 1044.7295,45.085 C1043.0255,45.085 1042.1025,43.736 1042.1025,42.387 Z" id="Shape"></path>
            <path d="M1083.9925,64.255 L1094.9265,64.255 C1094.7135,61.06 1094.6425,56.445 1094.5715,51.546 L1099.6125,51.617 L1101.4585,42.387 C1099.0445,42.813 1096.7725,43.097 1094.5715,43.239 L1094.5715,43.026 C1094.5715,39.476 1094.5715,22.365 1094.9265,20.448 L1089.6015,16.756 C1082.5015,28.187 1075.6145,38.624 1066.1715,49.487 L1066.8815,52.54 C1072.4905,52.043 1078.5255,51.759 1084.5605,51.617 C1084.4185,56.516 1084.2055,61.06 1083.9925,64.255 Z M1076.7505,43.736 C1079.5905,40.044 1082.0755,36.423 1084.6315,32.873 L1084.6315,43.026 L1084.6315,43.736 C1082.1465,43.736 1079.5195,43.736 1076.7505,43.736 Z" id="Shape"></path>
            <path d="M1166.2815,6.745 C1163.0865,6.745 1160.9565,6.603 1157.4065,6.39 L1156.6965,9.585 L1162.7315,12.07 C1163.4415,16.614 1163.4415,21.584 1163.4415,29.11 L1163.4415,33.654 C1153.9275,25.489 1144.4135,15.62 1134.8995,6.745 L1132.0595,6.745 C1129.5745,6.745 1127.2315,6.745 1124.7465,6.532 L1124.0365,9.585 C1127.5865,11.715 1127.9415,14.058 1127.9415,19.738 L1127.9415,29.11 C1127.9415,36.636 1127.5865,41.606 1127.3025,43.31 C1126.8765,46.008 1126.1665,47.996 1124.0365,48.635 L1124.0365,51.688 C1126.1665,51.546 1127.9415,51.475 1130.7815,51.475 C1133.9765,51.475 1136.1065,51.617 1139.6565,51.83 L1140.3665,48.635 L1134.3315,46.15 C1133.6215,41.606 1133.6215,36.636 1133.6215,29.11 L1133.6215,22.01 C1144.0585,31.595 1155.7735,42.955 1166.2105,51.83 L1169.6185,51.475 C1169.1215,41.819 1169.1215,37.985 1169.1215,29.11 C1169.1215,21.584 1169.4765,16.614 1169.7605,14.91 C1170.1865,12.212 1170.8965,10.224 1173.0265,9.585 L1173.0265,6.532 C1170.8965,6.674 1169.1215,6.745 1166.2815,6.745 Z" id="Path"></path>
            <path d="M1181.7595,18.531 L1181.7595,21.726 C1180.3395,22.436 1179.2745,22.862 1177.8545,23.217 L1177.8545,26.27 L1181.7595,26.27 C1181.7595,36.707 1181.6175,43.31 1181.2625,45.085 C1180.9785,46.505 1180.3395,47.925 1178.5645,48.635 L1178.5645,51.688 C1181.4045,51.546 1183.8895,51.475 1187.0845,51.475 C1190.2795,51.475 1192.4095,51.546 1196.3145,51.83 L1197.0245,48.635 L1192.7645,47.57 C1192.4095,43.381 1192.4095,36.707 1192.4095,26.27 L1201.9945,26.27 L1203.0595,20.945 L1192.4095,20.945 L1192.4095,18.46 C1192.4095,11.076 1194.6105,4.26 1199.6515,4.26 C1202.8465,4.26 1203.9115,7.455 1203.9115,11.715 C1208.3845,11.715 1211.7215,10.295 1211.7215,6.39 C1211.7215,2.13 1207.6745,0 1201.2845,0 C1188.5045,0 1181.7595,8.165 1181.7595,18.531 Z" id="Path"></path>
            <path d="M1224.2885,26.625 C1221.9455,27.193 1219.5315,28.258 1217.5435,29.891 L1218.3955,32.944 C1219.7445,32.447 1220.6675,32.234 1221.5905,32.234 C1224.4305,32.234 1226.2765,34.719 1226.2765,39.263 C1226.2765,45.014 1224.0045,47.712 1221.4485,47.712 C1218.2535,47.712 1215.6265,43.381 1215.6265,34.364 C1215.6265,20.874 1221.5195,12.993 1233.7315,8.378 L1232.8795,5.325 C1212.7865,10.082 1204.2665,23.004 1204.2665,34.577 C1204.2665,43.807 1209.6625,52.185 1220.5965,52.185 C1229.6135,52.185 1236.5715,46.505 1236.5715,38.056 C1236.5715,31.027 1231.7435,26.625 1224.2885,26.625 Z" id="Path"></path>
            <path d="M1266.0365,20.945 L1260.4985,43.381 C1271.0775,44.091 1276.5445,47.073 1276.5445,52.114 C1276.5445,56.374 1273.1365,61.699 1258.9365,64.042 L1259.7885,67.095 C1276.8995,65.746 1287.5495,60.421 1287.5495,49.061 C1287.5495,39.973 1280.6625,34.861 1267.7405,34.08 L1268.8055,30.175 C1274.1305,29.678 1280.6625,29.465 1286.6975,29.465 L1289.3245,18.815 C1282.8635,20.235 1272.4975,20.661 1266.0365,20.945 Z" id="Path"></path>
            <path d="M1300.4715,39.405 C1297.4185,41.038 1295.1465,43.381 1293.7265,46.15 C1295.1465,48.919 1297.4185,51.262 1300.4715,52.895 C1303.5245,51.262 1305.7965,48.919 1307.2165,46.15 C1305.7965,43.381 1303.5245,41.038 1300.4715,39.405 Z" id="Path"></path>
            <path d="M1354.7865,52.185 C1368.4895,52.185 1379.9915,42.884 1379.9915,28.613 C1379.9915,15.478 1370.2645,6.035 1356.9165,6.035 C1343.2135,6.035 1331.7115,15.336 1331.7115,29.607 C1331.7115,42.742 1341.4385,52.185 1354.7865,52.185 Z M1344.1365,26.909 C1344.1365,15.691 1349.4615,11.005 1355.1415,11.005 C1362.2415,11.005 1367.5665,19.312 1367.5665,31.311 C1367.5665,42.529 1362.2415,47.215 1356.5615,47.215 C1349.4615,47.215 1344.1365,38.908 1344.1365,26.909 Z" id="Shape"></path>
            <path d="M1387.0915,32.518 L1387.7305,39.547 C1394.9725,38.695 1404.2025,37.914 1411.4445,37.488 L1410.8055,30.459 C1403.5635,31.311 1394.3335,32.092 1387.0915,32.518 Z" id="Path"></path>
            <path d="M1441.6195,52.185 C1455.3225,52.185 1466.8245,42.884 1466.8245,28.613 C1466.8245,15.478 1457.0975,6.035 1443.7495,6.035 C1430.0465,6.035 1418.5445,15.336 1418.5445,29.607 C1418.5445,42.742 1428.2715,52.185 1441.6195,52.185 Z M1430.9695,26.909 C1430.9695,15.691 1436.2945,11.005 1441.9745,11.005 C1449.0745,11.005 1454.3995,19.312 1454.3995,31.311 C1454.3995,42.529 1449.0745,47.215 1443.3945,47.215 C1436.2945,47.215 1430.9695,38.908 1430.9695,26.909 Z" id="Shape"></path>
            <path d="M1523.2695,26.625 C1527.6715,24.85 1529.5885,21.016 1529.5885,16.898 C1529.5885,10.721 1524.1215,6.035 1515.3885,6.035 C1508.9275,6.035 1507.1525,6.745 1501.8275,6.745 C1498.7745,6.745 1496.2895,6.674 1493.0945,6.532 L1492.3845,9.585 L1495.9345,11.36 C1496.2895,16.046 1496.2895,19.596 1496.2895,29.11 C1496.2895,38.269 1496.0055,41.819 1495.6505,44.02 C1495.3665,45.795 1494.6565,47.925 1492.3845,48.635 L1492.3845,51.688 C1495.9345,51.546 1498.1355,51.475 1500.8335,51.475 C1508.1465,51.475 1508.6435,51.83 1512.6905,51.83 C1525.6835,51.83 1532.7835,45.653 1532.7835,37.772 C1532.7835,32.66 1529.6595,27.974 1523.2695,26.625 Z M1507.2945,30.53 L1512.4775,30.53 C1517.6605,30.53 1520.3585,33.938 1520.3585,38.837 C1520.3585,42.529 1518.5125,46.86 1512.5485,46.86 C1511.1285,46.86 1509.4245,46.647 1507.6495,46.079 C1507.2945,42.032 1507.2945,38.624 1507.2945,30.53 Z M1507.2945,25.56 C1507.3655,18.673 1507.6495,15.833 1507.9335,14.271 C1508.4305,11.857 1509.5665,11.005 1511.6965,11.005 C1516.4535,11.005 1518.2285,14.2 1518.2285,17.75 C1518.2285,21.087 1516.6665,25.56 1511.9805,25.56 L1507.2945,25.56 Z" id="Shape"></path>
            <path d="M1555.7875,52.185 C1561.1835,51.333 1564.3785,49.203 1567.5735,45.582 L1566.1535,42.529 C1563.3845,43.665 1561.4675,44.02 1559.3375,44.02 C1554.4385,44.02 1550.3205,42.174 1549.8235,35.145 L1567.7155,35.145 C1567.9995,33.725 1568.1415,32.447 1568.1415,31.24 C1568.1415,24.353 1563.2425,20.235 1556.1425,20.235 C1546.2025,20.235 1538.8895,26.98 1538.8895,36.423 C1538.8895,45.156 1543.5755,51.83 1555.7875,52.185 Z M1549.8945,31.24 C1550.2495,27.122 1551.7405,24.495 1554.2255,24.495 C1556.6395,24.495 1557.9885,27.122 1558.2725,31.24 L1549.8945,31.24 Z" id="Shape"></path>
            <path d="M1600.8015,23.501 L1600.0915,20.306 C1595.4765,20.874 1594.4115,20.945 1585.1815,20.945 C1582.1995,20.945 1579.3595,20.945 1573.3245,20.732 L1570.8395,32.305 C1574.5315,30.885 1579.3595,30.175 1585.8205,30.175 L1593.1335,30.175 C1586.8855,43.31 1581.4185,48.99 1576.5905,62.125 L1588.3765,65.675 C1589.8675,49.274 1593.5595,38.979 1600.8015,23.501 Z" id="Path"></path>
            <path d="M118.499,136.688 L119.209,133.635 C116.582,132.925 113.458,129.375 111.825,126.535 C110.476,124.192 109.34,121.778 108.062,119.506 C105.577,115.175 104.086,113.968 101.246,113.116 C107.423,111.199 111.541,107.152 111.541,101.401 C111.541,94.869 106.074,91.035 95.992,91.035 C91.306,91.035 88.679,91.745 83.638,91.745 C80.585,91.745 78.1,91.674 74.905,91.532 L74.195,94.585 L77.745,96.36 C78.1,101.046 78.1,104.596 78.1,114.11 C78.1,123.269 77.816,126.819 77.461,129.02 C77.177,130.795 76.467,132.925 74.195,133.635 L74.195,136.688 C77.745,136.546 80.017,136.475 83.567,136.475 C87.117,136.475 88.75,136.546 92.3,136.83 L93.01,133.635 L89.46,131.86 C89.105,127.174 89.105,123.837 89.105,116.098 L89.815,116.098 C92.584,116.098 93.223,117.021 95.424,120.216 C96.418,121.707 98.761,126.535 101.317,130.511 C104.441,135.41 108.417,138.818 118.499,136.688 Z M89.105,111.128 C89.176,103.815 89.46,100.833 89.744,99.271 C90.241,96.857 91.377,96.005 93.507,96.005 C97.767,96.005 99.826,99.129 99.826,102.892 C99.826,106.655 97.767,111.128 93.081,111.128 L89.105,111.128 Z" id="Shape"></path>
            <path d="M137.882,137.185 C143.278,136.333 146.473,134.203 149.668,130.582 L148.248,127.529 C145.479,128.665 143.562,129.02 141.432,129.02 C136.533,129.02 132.415,127.174 131.918,120.145 L149.81,120.145 C150.094,118.725 150.236,117.447 150.236,116.24 C150.236,109.353 145.337,105.235 138.237,105.235 C128.297,105.235 120.984,111.98 120.984,121.423 C120.984,130.156 125.67,136.83 137.882,137.185 Z M131.989,116.24 C132.344,112.122 133.835,109.495 136.32,109.495 C138.734,109.495 140.083,112.122 140.367,116.24 L131.989,116.24 Z" id="Shape"></path>
            <path d="M176.151,131.86 C175.796,126.819 175.796,123.269 175.796,121.21 C175.796,114.465 175.654,109.992 176.861,106.655 L174.731,104.525 C170.116,106.655 163.442,108.43 156.697,109.14 L156.697,113.045 L162.022,113.897 C163.797,114.181 164.791,115.53 164.791,117.802 L164.791,121.21 C164.791,124.121 164.578,127.529 164.223,129.02 C163.797,130.866 162.448,132.925 156.271,133.635 L156.271,136.688 C163.371,136.546 166.637,136.475 170.4,136.475 C174.163,136.475 176.861,136.546 183.251,136.83 L183.961,133.635 L176.151,131.86 Z" id="Path"></path>
            <path d="M208.456,135.055 L210.586,137.185 C212.077,136.262 213.639,135.481 215.201,134.842 C218.751,136.688 221.449,137.185 224.218,137.185 C234.371,137.185 242.181,130.653 242.181,119.932 C242.181,111.696 237.566,105.235 229.401,105.235 C225.638,106.371 222.727,108.004 220.171,110.915 C220.171,96.573 220.171,91.035 221.236,87.13 L219.106,85 C215.911,86.846 211.296,88.763 206.681,89.615 L206.681,92.668 L209.166,93.733 C209.521,96.573 209.521,101.33 209.521,110.915 C209.521,121.565 209.521,132.57 208.456,135.055 Z M220.171,125.328 L220.171,115.885 C221.094,114.252 223.153,113.045 225.07,113.045 C228.123,113.045 230.466,116.098 230.466,122.559 C230.466,129.162 227.981,132.57 224.857,132.57 C222.585,132.57 220.171,130.724 220.171,125.328 Z" id="Shape"></path>
            <path d="M253.541,105.945 L248.003,128.381 C258.582,129.091 264.049,132.073 264.049,137.114 C264.049,141.374 260.641,146.699 246.441,149.042 L247.293,152.095 C264.404,150.746 275.054,145.421 275.054,134.061 C275.054,124.973 268.167,119.861 255.245,119.08 L256.31,115.175 C261.635,114.678 268.167,114.465 274.202,114.465 L276.829,103.815 C270.368,105.235 260.002,105.661 253.541,105.945 Z" id="Path"></path>
            <path d="M328.233,108.501 L327.523,105.306 C322.908,105.874 321.843,105.945 312.613,105.945 C309.631,105.945 306.791,105.945 300.756,105.732 L298.271,117.305 C301.963,115.885 306.791,115.175 313.252,115.175 L320.565,115.175 C314.317,128.31 308.85,133.99 304.022,147.125 L315.808,150.675 C317.299,134.274 320.991,123.979 328.233,108.501 Z" id="Path"></path>
            <path d="M334.836,124.405 C331.783,126.038 329.511,128.381 328.091,131.15 C329.511,133.919 331.783,136.262 334.836,137.895 C337.889,136.262 340.161,133.919 341.581,131.15 C340.161,128.381 337.889,126.038 334.836,124.405 Z" id="Path"></path>
            <path d="M396.251,111.625 C400.653,109.85 402.57,106.016 402.57,101.898 C402.57,95.721 397.103,91.035 388.37,91.035 C381.909,91.035 380.134,91.745 374.809,91.745 C371.756,91.745 369.271,91.674 366.076,91.532 L365.366,94.585 L368.916,96.36 C369.271,101.046 369.271,104.596 369.271,114.11 C369.271,123.269 368.987,126.819 368.632,129.02 C368.348,130.795 367.638,132.925 365.366,133.635 L365.366,136.688 C368.916,136.546 371.117,136.475 373.815,136.475 C381.128,136.475 381.625,136.83 385.672,136.83 C398.665,136.83 405.765,130.653 405.765,122.772 C405.765,117.66 402.641,112.974 396.251,111.625 Z M380.276,115.53 L385.459,115.53 C390.642,115.53 393.34,118.938 393.34,123.837 C393.34,127.529 391.494,131.86 385.53,131.86 C384.11,131.86 382.406,131.647 380.631,131.079 C380.276,127.032 380.276,123.624 380.276,115.53 Z M380.276,110.56 C380.347,103.673 380.631,100.833 380.915,99.271 C381.412,96.857 382.548,96.005 384.678,96.005 C389.435,96.005 391.21,99.2 391.21,102.75 C391.21,106.087 389.648,110.56 384.962,110.56 L380.276,110.56 Z" id="Shape"></path>
            <path d="M414.001,135.055 L416.131,137.185 C417.622,136.262 419.184,135.481 420.746,134.842 C424.296,136.688 426.994,137.185 429.763,137.185 C439.916,137.185 447.726,130.653 447.726,119.932 C447.726,111.696 443.111,105.235 434.946,105.235 C431.183,106.371 428.272,108.004 425.716,110.915 C425.716,96.573 425.716,91.035 426.781,87.13 L424.651,85 C421.456,86.846 416.841,88.763 412.226,89.615 L412.226,92.668 L414.711,93.733 C415.066,96.573 415.066,101.33 415.066,110.915 C415.066,121.565 415.066,132.57 414.001,135.055 Z M425.716,125.328 L425.716,115.885 C426.639,114.252 428.698,113.045 430.615,113.045 C433.668,113.045 436.011,116.098 436.011,122.559 C436.011,129.162 433.526,132.57 430.402,132.57 C428.13,132.57 425.716,130.724 425.716,125.328 Z" id="Shape"></path>
            <path d="M458.589,127.387 L459.512,130.795 C460.577,130.511 461.571,130.156 462.565,129.872 C467.038,130.724 468.813,133.777 468.813,136.901 C468.813,142.51 462.778,147.551 451.347,149.042 L452.199,152.095 C469.026,151.314 480.315,144.356 480.315,133.635 C480.315,129.304 478.398,125.399 474.209,123.34 C476.765,120.784 478.185,117.944 478.185,114.749 C478.185,108.998 473.57,105.235 466.683,105.235 C459.299,105.235 454.471,109.566 451.631,117.305 L454.968,118.37 C457.311,115.317 459.299,113.755 462.565,113.755 C466.044,113.755 467.961,115.53 467.961,118.654 C467.961,122.346 464.837,124.76 458.589,127.387 Z" id="Path"></path>
            <path d="M527.885,137.185 C541.588,137.185 553.09,127.884 553.09,113.613 C553.09,100.478 543.363,91.035 530.015,91.035 C516.312,91.035 504.81,100.336 504.81,114.607 C504.81,127.742 514.537,137.185 527.885,137.185 Z M517.235,111.909 C517.235,100.691 522.56,96.005 528.24,96.005 C535.34,96.005 540.665,104.312 540.665,116.311 C540.665,127.529 535.34,132.215 529.66,132.215 C522.56,132.215 517.235,123.908 517.235,111.909 Z" id="Shape"></path>
            <path d="M560.19,117.518 L560.829,124.547 C568.071,123.695 577.301,122.914 584.543,122.488 L583.904,115.459 C576.662,116.311 567.432,117.092 560.19,117.518 Z" id="Path"></path>
            <path d="M614.718,137.185 C628.421,137.185 639.923,127.884 639.923,113.613 C639.923,100.478 630.196,91.035 616.848,91.035 C603.145,91.035 591.643,100.336 591.643,114.607 C591.643,127.742 601.37,137.185 614.718,137.185 Z M604.068,111.909 C604.068,100.691 609.393,96.005 615.073,96.005 C622.173,96.005 627.498,104.312 627.498,116.311 C627.498,127.529 622.173,132.215 616.493,132.215 C609.393,132.215 604.068,123.908 604.068,111.909 Z" id="Shape"></path>
            <path d="M680.322,92.455 C671.092,92.455 664.702,97.425 664.702,105.59 C664.702,111.767 668.394,115.246 672.583,117.802 C666.903,119.648 664.773,123.695 664.773,127.458 C664.773,133.493 670.382,137.185 678.831,137.185 C688.416,137.185 694.806,132.428 694.806,125.044 C694.806,119.151 690.759,116.24 686.357,113.826 C691.398,111.909 694.522,108.572 694.522,103.46 C694.522,96.644 688.771,92.455 680.322,92.455 Z M674.358,126.322 C674.358,124.334 674.997,121.92 676.772,120.145 C681.103,122.346 684.866,124.263 684.866,127.884 C684.866,130.582 682.736,132.712 679.825,132.712 C676.63,132.712 674.358,130.085 674.358,126.322 Z M674.997,103.176 C674.997,99.981 677.056,97.425 679.683,97.425 C682.097,97.425 684.227,99.484 684.227,104.809 C684.227,106.939 683.872,109.211 682.168,111.625 C678.263,109.566 674.997,107.365 674.997,103.176 Z" id="Shape"></path>
            <path d="M706.45,124.405 C703.397,126.038 701.125,128.381 699.705,131.15 C701.125,133.919 703.397,136.262 706.45,137.895 C709.503,136.262 711.775,133.919 713.195,131.15 C711.775,128.381 709.503,126.038 706.45,124.405 Z" id="Path"></path>
            <path d="M755.156,129.02 C750.541,129.02 747.275,126.89 747.275,119.009 C747.275,112.69 749.405,109.85 751.819,109.85 C754.73,109.85 755.866,113.045 755.866,116.95 C760.481,116.95 763.676,115.459 763.676,111.767 C763.676,107.649 759.771,105.235 753.594,105.235 C743.725,105.235 735.915,111.554 735.915,121.92 C735.915,129.659 740.033,136.83 751.89,137.185 C757.286,136.049 760.481,133.564 763.676,130.227 L762.256,127.174 C759.487,128.594 757.641,129.02 755.156,129.02 Z" id="Path"></path>
            <path d="M774.255,127.387 L775.178,130.795 C776.243,130.511 777.237,130.156 778.231,129.872 C782.704,130.724 784.479,133.777 784.479,136.901 C784.479,142.51 778.444,147.551 767.013,149.042 L767.865,152.095 C784.692,151.314 795.981,144.356 795.981,133.635 C795.981,129.304 794.064,125.399 789.875,123.34 C792.431,120.784 793.851,117.944 793.851,114.749 C793.851,108.998 789.236,105.235 782.349,105.235 C774.965,105.235 770.137,109.566 767.297,117.305 L770.634,118.37 C772.977,115.317 774.965,113.755 778.231,113.755 C781.71,113.755 783.627,115.53 783.627,118.654 C783.627,122.346 780.503,124.76 774.255,127.387 Z" id="Path"></path>
            <path d="M851.716,129.872 C851.361,126.322 851.361,123.695 851.361,120.855 L851.361,110.915 C851.361,96.573 851.361,91.035 852.426,87.13 L850.296,85 C847.101,86.846 842.486,88.763 837.871,89.615 L837.871,92.668 L840.356,93.733 C840.64,96.005 840.711,99.484 840.711,105.661 C839.291,105.377 838.013,105.235 836.664,105.235 C826.511,105.235 818.701,111.767 818.701,122.488 C818.701,130.724 823.316,137.185 831.481,137.185 C835.244,136.049 838.155,134.416 840.711,131.505 L841.421,132.215 C841.421,134.345 841.208,135.055 840.711,136.475 L842.841,138.605 C846.036,136.759 849.941,134.842 854.201,133.99 L854.201,130.937 L851.716,129.872 Z M830.416,119.861 C830.416,113.258 832.901,109.85 836.025,109.85 C838.297,109.85 840.711,111.696 840.711,117.092 L840.711,126.535 C839.788,128.168 837.729,129.375 835.812,129.375 C832.759,129.375 830.416,126.322 830.416,119.861 Z" id="Shape"></path>
            <path d="M865.277,105.945 L859.739,128.381 C870.318,129.091 875.785,132.073 875.785,137.114 C875.785,141.374 872.377,146.699 858.177,149.042 L859.029,152.095 C876.14,150.746 886.79,145.421 886.79,134.061 C886.79,124.973 879.903,119.861 866.981,119.08 L868.046,115.175 C873.371,114.678 879.903,114.465 885.938,114.465 L888.565,103.815 C882.104,105.235 871.738,105.661 865.277,105.945 Z" id="Path"></path>
            <path d="M923.355,130.795 C925.698,130.227 928.112,129.162 930.1,127.529 L929.248,124.476 C927.899,124.973 926.976,125.186 926.053,125.186 C923.213,125.186 921.367,122.701 921.367,118.157 C921.367,112.406 923.639,109.708 926.195,109.708 C929.39,109.708 932.017,114.039 932.017,123.056 C932.017,136.546 926.124,144.427 913.912,149.042 L914.764,152.095 C934.857,147.338 943.377,134.416 943.377,122.843 C943.377,113.613 937.981,105.235 927.047,105.235 C918.03,105.235 911.072,110.915 911.072,119.364 C911.072,126.393 915.9,130.795 923.355,130.795 Z" id="Path"></path>
            <path d="M954.737,124.405 C951.684,126.038 949.412,128.381 947.992,131.15 C949.412,133.919 951.684,136.262 954.737,137.895 C957.79,136.262 960.062,133.919 961.482,131.15 C960.062,128.381 957.79,126.038 954.737,124.405 Z" id="Path"></path>
            <path d="M1001.1,137.185 C1006.496,136.333 1009.691,134.203 1012.886,130.582 L1011.466,127.529 C1008.697,128.665 1006.78,129.02 1004.65,129.02 C999.751,129.02 995.633,127.174 995.136,120.145 L1013.028,120.145 C1013.312,118.725 1013.454,117.447 1013.454,116.24 C1013.454,109.353 1008.555,105.235 1001.455,105.235 C991.515,105.235 984.202,111.98 984.202,121.423 C984.202,130.156 988.888,136.83 1001.1,137.185 Z M995.207,116.24 C995.562,112.122 997.053,109.495 999.538,109.495 C1001.952,109.495 1003.301,112.122 1003.585,116.24 L995.207,116.24 Z" id="Shape"></path>
            <path d="M1050.942,129.872 C1050.587,126.322 1050.587,123.695 1050.587,120.855 L1050.587,110.915 C1050.587,96.573 1050.587,91.035 1051.652,87.13 L1049.522,85 C1046.327,86.846 1041.712,88.763 1037.097,89.615 L1037.097,92.668 L1039.582,93.733 C1039.866,96.005 1039.937,99.484 1039.937,105.661 C1038.517,105.377 1037.239,105.235 1035.89,105.235 C1025.737,105.235 1017.927,111.767 1017.927,122.488 C1017.927,130.724 1022.542,137.185 1030.707,137.185 C1034.47,136.049 1037.381,134.416 1039.937,131.505 L1040.647,132.215 C1040.647,134.345 1040.434,135.055 1039.937,136.475 L1042.067,138.605 C1045.262,136.759 1049.167,134.842 1053.427,133.99 L1053.427,130.937 L1050.942,129.872 Z M1029.642,119.861 C1029.642,113.258 1032.127,109.85 1035.251,109.85 C1037.523,109.85 1039.937,111.696 1039.937,117.092 L1039.937,126.535 C1039.014,128.168 1036.955,129.375 1035.038,129.375 C1031.985,129.375 1029.642,126.322 1029.642,119.861 Z" id="Shape"></path>
            <path d="M1064.503,105.945 L1058.965,128.381 C1069.544,129.091 1075.011,132.073 1075.011,137.114 C1075.011,141.374 1071.603,146.699 1057.403,149.042 L1058.255,152.095 C1075.366,150.746 1086.016,145.421 1086.016,134.061 C1086.016,124.973 1079.129,119.861 1066.207,119.08 L1067.272,115.175 C1072.597,114.678 1079.129,114.465 1085.164,114.465 L1087.791,103.815 C1081.33,105.235 1070.964,105.661 1064.503,105.945 Z" id="Path"></path>
            <path d="M1153.608,91.745 C1150.413,91.745 1148.283,91.603 1144.733,91.39 L1144.023,94.585 L1150.058,97.07 C1150.768,101.614 1150.768,106.584 1150.768,114.11 L1150.768,118.654 C1141.254,110.489 1131.74,100.62 1122.226,91.745 L1119.386,91.745 C1116.901,91.745 1114.558,91.745 1112.073,91.532 L1111.363,94.585 C1114.913,96.715 1115.268,99.058 1115.268,104.738 L1115.268,114.11 C1115.268,121.636 1114.913,126.606 1114.629,128.31 C1114.203,131.008 1113.493,132.996 1111.363,133.635 L1111.363,136.688 C1113.493,136.546 1115.268,136.475 1118.108,136.475 C1121.303,136.475 1123.433,136.617 1126.983,136.83 L1127.693,133.635 L1121.658,131.15 C1120.948,126.606 1120.948,121.636 1120.948,114.11 L1120.948,107.01 C1131.385,116.595 1143.1,127.955 1153.537,136.83 L1156.945,136.475 C1156.448,126.819 1156.448,122.985 1156.448,114.11 C1156.448,106.584 1156.803,101.614 1157.087,99.91 C1157.513,97.212 1158.223,95.224 1160.353,94.585 L1160.353,91.532 C1158.223,91.674 1156.448,91.745 1153.608,91.745 Z" id="Path"></path>
            <path d="M1197.841,129.872 C1197.486,126.322 1197.486,123.695 1197.486,120.855 L1197.486,110.915 C1197.486,96.573 1197.486,91.035 1198.551,87.13 L1196.421,85 C1193.226,86.846 1188.611,88.763 1183.996,89.615 L1183.996,92.668 L1186.481,93.733 C1186.765,96.005 1186.836,99.484 1186.836,105.661 C1185.416,105.377 1184.138,105.235 1182.789,105.235 C1172.636,105.235 1164.826,111.767 1164.826,122.488 C1164.826,130.724 1169.441,137.185 1177.606,137.185 C1181.369,136.049 1184.28,134.416 1186.836,131.505 L1187.546,132.215 C1187.546,134.345 1187.333,135.055 1186.836,136.475 L1188.966,138.605 C1192.161,136.759 1196.066,134.842 1200.326,133.99 L1200.326,130.937 L1197.841,129.872 Z M1176.541,119.861 C1176.541,113.258 1179.026,109.85 1182.15,109.85 C1184.422,109.85 1186.836,111.696 1186.836,117.092 L1186.836,126.535 C1185.913,128.168 1183.854,129.375 1181.937,129.375 C1178.884,129.375 1176.541,126.322 1176.541,119.861 Z" id="Shape"></path>
            <path d="M1211.402,105.945 L1205.864,128.381 C1216.443,129.091 1221.91,132.073 1221.91,137.114 C1221.91,141.374 1218.502,146.699 1204.302,149.042 L1205.154,152.095 C1222.265,150.746 1232.915,145.421 1232.915,134.061 C1232.915,124.973 1226.028,119.861 1213.106,119.08 L1214.171,115.175 C1219.496,114.678 1226.028,114.465 1232.063,114.465 L1234.69,103.815 C1228.229,105.235 1217.863,105.661 1211.402,105.945 Z" id="Path"></path>
            <path d="M1278.639,131.86 C1278.284,126.819 1278.284,123.269 1278.284,121.21 C1278.284,114.465 1278.142,109.992 1279.349,106.655 L1277.219,104.525 C1272.604,106.655 1265.93,108.43 1259.185,109.14 L1259.185,113.045 L1264.51,113.897 C1266.285,114.181 1267.279,115.53 1267.279,117.802 L1267.279,121.21 C1267.279,124.121 1267.066,127.529 1266.711,129.02 C1266.285,130.866 1264.936,132.925 1258.759,133.635 L1258.759,136.688 C1265.859,136.546 1269.125,136.475 1272.888,136.475 C1276.651,136.475 1279.349,136.546 1285.739,136.83 L1286.449,133.635 L1278.639,131.86 Z" id="Path"></path>
            <path d="M1308.033,105.235 C1298.519,105.235 1290.709,111.838 1290.709,121.778 C1290.709,130.014 1296.034,137.185 1305.903,137.185 C1315.417,137.185 1323.227,130.582 1323.227,120.642 C1323.227,112.406 1317.902,105.235 1308.033,105.235 Z M1296.744,120.855 C1296.744,117.518 1300.223,115.53 1306.116,115.53 C1311.867,115.53 1317.192,117.447 1317.192,121.565 C1317.192,124.902 1313.713,126.89 1307.82,126.89 C1302.069,126.89 1296.744,124.973 1296.744,120.855 Z" id="Shape"></path>
            <path d="M1334.587,124.405 C1331.534,126.038 1329.262,128.381 1327.842,131.15 C1329.262,133.919 1331.534,136.262 1334.587,137.895 C1337.64,136.262 1339.912,133.919 1341.332,131.15 C1339.912,128.381 1337.64,126.038 1334.587,124.405 Z" id="Path"></path>
            <path d="M1407.362,91.745 C1404.167,91.745 1402.037,91.603 1398.487,91.39 L1397.777,94.585 L1403.812,97.07 C1404.522,101.614 1404.522,106.584 1404.522,114.11 L1404.522,118.654 C1395.008,110.489 1385.494,100.62 1375.98,91.745 L1373.14,91.745 C1370.655,91.745 1368.312,91.745 1365.827,91.532 L1365.117,94.585 C1368.667,96.715 1369.022,99.058 1369.022,104.738 L1369.022,114.11 C1369.022,121.636 1368.667,126.606 1368.383,128.31 C1367.957,131.008 1367.247,132.996 1365.117,133.635 L1365.117,136.688 C1367.247,136.546 1369.022,136.475 1371.862,136.475 C1375.057,136.475 1377.187,136.617 1380.737,136.83 L1381.447,133.635 L1375.412,131.15 C1374.702,126.606 1374.702,121.636 1374.702,114.11 L1374.702,107.01 C1385.139,116.595 1396.854,127.955 1407.291,136.83 L1410.699,136.475 C1410.202,126.819 1410.202,122.985 1410.202,114.11 C1410.202,106.584 1410.557,101.614 1410.841,99.91 C1411.267,97.212 1411.977,95.224 1414.107,94.585 L1414.107,91.532 C1411.977,91.674 1410.202,91.745 1407.362,91.745 Z" id="Path"></path>
            <path d="M1435.478,137.185 C1440.874,136.333 1444.069,134.203 1447.264,130.582 L1445.844,127.529 C1443.075,128.665 1441.158,129.02 1439.028,129.02 C1434.129,129.02 1430.011,127.174 1429.514,120.145 L1447.406,120.145 C1447.69,118.725 1447.832,117.447 1447.832,116.24 C1447.832,109.353 1442.933,105.235 1435.833,105.235 C1425.893,105.235 1418.58,111.98 1418.58,121.423 C1418.58,130.156 1423.266,136.83 1435.478,137.185 Z M1429.585,116.24 C1429.94,112.122 1431.431,109.495 1433.916,109.495 C1436.33,109.495 1437.679,112.122 1437.963,116.24 L1429.585,116.24 Z" id="Shape"></path>
            <path d="M1459.05,105.945 L1453.512,128.381 C1464.091,129.091 1469.558,132.073 1469.558,137.114 C1469.558,141.374 1466.15,146.699 1451.95,149.042 L1452.802,152.095 C1469.913,150.746 1480.563,145.421 1480.563,134.061 C1480.563,124.973 1473.676,119.861 1460.754,119.08 L1461.819,115.175 C1467.144,114.678 1473.676,114.465 1479.711,114.465 L1482.338,103.815 C1475.877,105.235 1465.511,105.661 1459.05,105.945 Z" id="Path"></path>
            <path d="M1548.155,91.745 C1544.96,91.745 1542.83,91.603 1539.28,91.39 L1538.57,94.585 L1544.605,97.07 C1545.315,101.614 1545.315,106.584 1545.315,114.11 L1545.315,118.654 C1535.801,110.489 1526.287,100.62 1516.773,91.745 L1513.933,91.745 C1511.448,91.745 1509.105,91.745 1506.62,91.532 L1505.91,94.585 C1509.46,96.715 1509.815,99.058 1509.815,104.738 L1509.815,114.11 C1509.815,121.636 1509.46,126.606 1509.176,128.31 C1508.75,131.008 1508.04,132.996 1505.91,133.635 L1505.91,136.688 C1508.04,136.546 1509.815,136.475 1512.655,136.475 C1515.85,136.475 1517.98,136.617 1521.53,136.83 L1522.24,133.635 L1516.205,131.15 C1515.495,126.606 1515.495,121.636 1515.495,114.11 L1515.495,107.01 C1525.932,116.595 1537.647,127.955 1548.084,136.83 L1551.492,136.475 C1550.995,126.819 1550.995,122.985 1550.995,114.11 C1550.995,106.584 1551.35,101.614 1551.634,99.91 C1552.06,97.212 1552.77,95.224 1554.9,94.585 L1554.9,91.532 C1552.77,91.674 1550.995,91.745 1548.155,91.745 Z" id="Path"></path>
            <path d="M1576.271,137.185 C1581.667,136.333 1584.862,134.203 1588.057,130.582 L1586.637,127.529 C1583.868,128.665 1581.951,129.02 1579.821,129.02 C1574.922,129.02 1570.804,127.174 1570.307,120.145 L1588.199,120.145 C1588.483,118.725 1588.625,117.447 1588.625,116.24 C1588.625,109.353 1583.726,105.235 1576.626,105.235 C1566.686,105.235 1559.373,111.98 1559.373,121.423 C1559.373,130.156 1564.059,136.83 1576.271,137.185 Z M1570.378,116.24 C1570.733,112.122 1572.224,109.495 1574.709,109.495 C1577.123,109.495 1578.472,112.122 1578.756,116.24 L1570.378,116.24 Z" id="Shape"></path>
            <path d="M72.4555,216.86 C72.1005,211.819 72.1005,208.269 72.1005,206.21 C72.1005,199.465 71.9585,194.992 73.1655,191.655 L71.0355,189.525 C66.4205,191.655 59.7465,193.43 53.0015,194.14 L53.0015,198.045 L58.3265,198.897 C60.1015,199.181 61.0955,200.53 61.0955,202.802 L61.0955,206.21 C61.0955,209.121 60.8825,212.529 60.5275,214.02 C60.1015,215.866 58.7525,217.925 52.5755,218.635 L52.5755,221.688 C59.6755,221.546 62.9415,221.475 66.7045,221.475 C70.4675,221.475 73.1655,221.546 79.5555,221.83 L80.2655,218.635 L72.4555,216.86 Z" id="Path"></path>
            <path d="M91.2705,209.405 C88.2175,211.038 85.9455,213.381 84.5255,216.15 C85.9455,218.919 88.2175,221.262 91.2705,222.895 C94.3235,221.262 96.5955,218.919 98.0155,216.15 C96.5955,213.381 94.3235,211.038 91.2705,209.405 Z" id="Path"></path>
            <path d="M166.1045,221.688 L166.8145,218.635 C164.1875,217.925 161.0635,214.375 159.4305,211.535 C158.0815,209.192 156.9455,206.778 155.6675,204.506 C153.1825,200.175 151.6915,198.968 148.8515,198.116 C155.0285,196.199 159.1465,192.152 159.1465,186.401 C159.1465,179.869 153.6795,176.035 143.5975,176.035 C138.9115,176.035 136.2845,176.745 131.2435,176.745 C128.1905,176.745 125.7055,176.674 122.5105,176.532 L121.8005,179.585 L125.3505,181.36 C125.7055,186.046 125.7055,189.596 125.7055,199.11 C125.7055,208.269 125.4215,211.819 125.0665,214.02 C124.7825,215.795 124.0725,217.925 121.8005,218.635 L121.8005,221.688 C125.3505,221.546 127.6225,221.475 131.1725,221.475 C134.7225,221.475 136.3555,221.546 139.9055,221.83 L140.6155,218.635 L137.0655,216.86 C136.7105,212.174 136.7105,208.837 136.7105,201.098 L137.4205,201.098 C140.1895,201.098 140.8285,202.021 143.0295,205.216 C144.0235,206.707 146.3665,211.535 148.9225,215.511 C152.0465,220.41 156.0225,223.818 166.1045,221.688 Z M136.7105,196.128 C136.7815,188.815 137.0655,185.833 137.3495,184.271 C137.8465,181.857 138.9825,181.005 141.1125,181.005 C145.3725,181.005 147.4315,184.129 147.4315,187.892 C147.4315,191.655 145.3725,196.128 140.6865,196.128 L136.7105,196.128 Z" id="Shape"></path>
            <path d="M185.4875,222.185 C190.8835,221.333 194.0785,219.203 197.2735,215.582 L195.8535,212.529 C193.0845,213.665 191.1675,214.02 189.0375,214.02 C184.1385,214.02 180.0205,212.174 179.5235,205.145 L197.4155,205.145 C197.6995,203.725 197.8415,202.447 197.8415,201.24 C197.8415,194.353 192.9425,190.235 185.8425,190.235 C175.9025,190.235 168.5895,196.98 168.5895,206.423 C168.5895,215.156 173.2755,221.83 185.4875,222.185 Z M179.5945,201.24 C179.9495,197.122 181.4405,194.495 183.9255,194.495 C186.3395,194.495 187.6885,197.122 187.9725,201.24 L179.5945,201.24 Z" id="Shape"></path>
            <path d="M209.0595,190.945 L203.5215,213.381 C214.1005,214.091 219.5675,217.073 219.5675,222.114 C219.5675,226.374 216.1595,231.699 201.9595,234.042 L202.8115,237.095 C219.9225,235.746 230.5725,230.421 230.5725,219.061 C230.5725,209.973 223.6855,204.861 210.7635,204.08 L211.8285,200.175 C217.1535,199.678 223.6855,199.465 229.7205,199.465 L232.3475,188.815 C225.8865,190.235 215.5205,190.661 209.0595,190.945 Z" id="Path"></path>
            <path d="M274.0955,214.02 C269.4805,214.02 266.2145,211.89 266.2145,204.009 C266.2145,197.69 268.3445,194.85 270.7585,194.85 C273.6695,194.85 274.8055,198.045 274.8055,201.95 C279.4205,201.95 282.6155,200.459 282.6155,196.767 C282.6155,192.649 278.7105,190.235 272.5335,190.235 C262.6645,190.235 254.8545,196.554 254.8545,206.92 C254.8545,214.659 258.9725,221.83 270.8295,222.185 C276.2255,221.049 279.4205,218.564 282.6155,215.227 L281.1955,212.174 C278.4265,213.594 276.5805,214.02 274.0955,214.02 Z" id="Path"></path>
            <path d="M306.9685,196.625 C304.6255,197.193 302.2115,198.258 300.2235,199.891 L301.0755,202.944 C302.4245,202.447 303.3475,202.234 304.2705,202.234 C307.1105,202.234 308.9565,204.719 308.9565,209.263 C308.9565,215.014 306.6845,217.712 304.1285,217.712 C300.9335,217.712 298.3065,213.381 298.3065,204.364 C298.3065,190.874 304.1995,182.993 316.4115,178.378 L315.5595,175.325 C295.4665,180.082 286.9465,193.004 286.9465,204.577 C286.9465,213.807 292.3425,222.185 303.2765,222.185 C312.2935,222.185 319.2515,216.505 319.2515,208.056 C319.2515,201.027 314.4235,196.625 306.9685,196.625 Z" id="Path"></path>
            <path d="M363.4135,216.86 C363.0585,211.819 363.0585,208.269 363.0585,206.21 C363.0585,199.465 362.9165,194.992 364.1235,191.655 L361.9935,189.525 C357.3785,191.655 350.7045,193.43 343.9595,194.14 L343.9595,198.045 L349.2845,198.897 C351.0595,199.181 352.0535,200.53 352.0535,202.802 L352.0535,206.21 C352.0535,209.121 351.8405,212.529 351.4855,214.02 C351.0595,215.866 349.7105,217.925 343.5335,218.635 L343.5335,221.688 C350.6335,221.546 353.8995,221.475 357.6625,221.475 C361.4255,221.475 364.1235,221.546 370.5135,221.83 L371.2235,218.635 L363.4135,216.86 Z" id="Path"></path>
            <path d="M406.3685,209.76 L402.9605,208.695 C400.3335,213.594 398.4165,214.375 393.8725,214.375 L387.6955,214.375 C396.5705,210.257 400.6175,205.713 400.6175,199.678 C400.6175,193.217 395.0085,190.235 389.5415,190.235 C383.8615,190.235 376.9035,193.43 374.4185,202.66 L377.8265,203.796 C379.5305,200.672 381.8025,198.755 384.7135,198.755 C387.3405,198.755 388.9025,200.175 388.9025,203.086 C388.9025,205.997 388.3345,210.186 375.1285,218.848 L375.8385,221.901 C377.7555,221.617 382.5835,221.475 387.4825,221.475 C394.2275,221.475 398.4875,221.475 403.4575,221.688 C404.0965,217.712 405.0195,213.736 406.3685,209.76 Z" id="Path"></path>
            <path d="M414.5335,209.405 C411.4805,211.038 409.2085,213.381 407.7885,216.15 C409.2085,218.919 411.4805,221.262 414.5335,222.895 C417.5865,221.262 419.8585,218.919 421.2785,216.15 C419.8585,213.381 417.5865,211.038 414.5335,209.405 Z" id="Path"></path>
            <path d="M477.0135,214.872 C476.6585,211.322 476.6585,208.695 476.6585,205.855 L476.6585,195.915 C476.6585,181.573 476.6585,176.035 477.7235,172.13 L475.5935,170 C472.3985,171.846 467.7835,173.763 463.1685,174.615 L463.1685,177.668 L465.6535,178.733 C465.9375,181.005 466.0085,184.484 466.0085,190.661 C464.5885,190.377 463.3105,190.235 461.9615,190.235 C451.8085,190.235 443.9985,196.767 443.9985,207.488 C443.9985,215.724 448.6135,222.185 456.7785,222.185 C460.5415,221.049 463.4525,219.416 466.0085,216.505 L466.7185,217.215 C466.7185,219.345 466.5055,220.055 466.0085,221.475 L468.1385,223.605 C471.3335,221.759 475.2385,219.842 479.4985,218.99 L479.4985,215.937 L477.0135,214.872 Z M455.7135,204.861 C455.7135,198.258 458.1985,194.85 461.3225,194.85 C463.5945,194.85 466.0085,196.696 466.0085,202.092 L466.0085,211.535 C465.0855,213.168 463.0265,214.375 461.1095,214.375 C458.0565,214.375 455.7135,211.322 455.7135,204.861 Z" id="Shape"></path>
            <path d="M500.9405,234.255 L511.8745,234.255 C511.6615,231.06 511.5905,226.445 511.5195,221.546 L516.5605,221.617 L518.4065,212.387 C515.9925,212.813 513.7205,213.097 511.5195,213.239 L511.5195,213.026 C511.5195,209.476 511.5195,192.365 511.8745,190.448 L506.5495,186.756 C499.4495,198.187 492.5625,208.624 483.1195,219.487 L483.8295,222.54 C489.4385,222.043 495.4735,221.759 501.5085,221.617 C501.3665,226.516 501.1535,231.06 500.9405,234.255 Z M493.6985,213.736 C496.5385,210.044 499.0235,206.423 501.5795,202.873 L501.5795,213.026 L501.5795,213.736 C499.0945,213.736 496.4675,213.736 493.6985,213.736 Z" id="Shape"></path>
            <path d="M571.8695,196.625 C576.2715,194.85 578.1885,191.016 578.1885,186.898 C578.1885,180.721 572.7215,176.035 563.9885,176.035 C557.5275,176.035 555.7525,176.745 550.4275,176.745 C547.3745,176.745 544.8895,176.674 541.6945,176.532 L540.9845,179.585 L544.5345,181.36 C544.8895,186.046 544.8895,189.596 544.8895,199.11 C544.8895,208.269 544.6055,211.819 544.2505,214.02 C543.9665,215.795 543.2565,217.925 540.9845,218.635 L540.9845,221.688 C544.5345,221.546 546.7355,221.475 549.4335,221.475 C556.7465,221.475 557.2435,221.83 561.2905,221.83 C574.2835,221.83 581.3835,215.653 581.3835,207.772 C581.3835,202.66 578.2595,197.974 571.8695,196.625 Z M555.8945,200.53 L561.0775,200.53 C566.2605,200.53 568.9585,203.938 568.9585,208.837 C568.9585,212.529 567.1125,216.86 561.1485,216.86 C559.7285,216.86 558.0245,216.647 556.2495,216.079 C555.8945,212.032 555.8945,208.624 555.8945,200.53 Z M555.8945,195.56 C555.9655,188.673 556.2495,185.833 556.5335,184.271 C557.0305,181.857 558.1665,181.005 560.2965,181.005 C565.0535,181.005 566.8285,184.2 566.8285,187.75 C566.8285,191.087 565.2665,195.56 560.5805,195.56 L555.8945,195.56 Z" id="Shape"></path>
            <path d="M620.5045,214.872 C620.1495,211.322 620.1495,208.695 620.1495,205.855 L620.1495,195.915 C620.1495,181.573 620.1495,176.035 621.2145,172.13 L619.0845,170 C615.8895,171.846 611.2745,173.763 606.6595,174.615 L606.6595,177.668 L609.1445,178.733 C609.4285,181.005 609.4995,184.484 609.4995,190.661 C608.0795,190.377 606.8015,190.235 605.4525,190.235 C595.2995,190.235 587.4895,196.767 587.4895,207.488 C587.4895,215.724 592.1045,222.185 600.2695,222.185 C604.0325,221.049 606.9435,219.416 609.4995,216.505 L610.2095,217.215 C610.2095,219.345 609.9965,220.055 609.4995,221.475 L611.6295,223.605 C614.8245,221.759 618.7295,219.842 622.9895,218.99 L622.9895,215.937 L620.5045,214.872 Z M599.2045,204.861 C599.2045,198.258 601.6895,194.85 604.8135,194.85 C607.0855,194.85 609.4995,196.696 609.4995,202.092 L609.4995,211.535 C608.5765,213.168 606.5175,214.375 604.6005,214.375 C601.5475,214.375 599.2045,211.322 599.2045,204.861 Z" id="Shape"></path>
            <path d="M647.3425,196.625 C644.9995,197.193 642.5855,198.258 640.5975,199.891 L641.4495,202.944 C642.7985,202.447 643.7215,202.234 644.6445,202.234 C647.4845,202.234 649.3305,204.719 649.3305,209.263 C649.3305,215.014 647.0585,217.712 644.5025,217.712 C641.3075,217.712 638.6805,213.381 638.6805,204.364 C638.6805,190.874 644.5735,182.993 656.7855,178.378 L655.9335,175.325 C635.8405,180.082 627.3205,193.004 627.3205,204.577 C627.3205,213.807 632.7165,222.185 643.6505,222.185 C652.6675,222.185 659.6255,216.505 659.6255,208.056 C659.6255,201.027 654.7975,196.625 647.3425,196.625 Z" id="Path"></path>
            <path d="M703.7875,216.86 C703.4325,211.819 703.4325,208.269 703.4325,206.21 C703.4325,199.465 703.2905,194.992 704.4975,191.655 L702.3675,189.525 C697.7525,191.655 691.0785,193.43 684.3335,194.14 L684.3335,198.045 L689.6585,198.897 C691.4335,199.181 692.4275,200.53 692.4275,202.802 L692.4275,206.21 C692.4275,209.121 692.2145,212.529 691.8595,214.02 C691.4335,215.866 690.0845,217.925 683.9075,218.635 L683.9075,221.688 C691.0075,221.546 694.2735,221.475 698.0365,221.475 C701.7995,221.475 704.4975,221.546 710.8875,221.83 L711.5975,218.635 L703.7875,216.86 Z" id="Path"></path>
            <path d="M722.1055,212.387 L723.0285,215.795 C724.0935,215.511 725.0875,215.156 726.0815,214.872 C730.5545,215.724 732.3295,218.777 732.3295,221.901 C732.3295,227.51 726.2945,232.551 714.8635,234.042 L715.7155,237.095 C732.5425,236.314 743.8315,229.356 743.8315,218.635 C743.8315,214.304 741.9145,210.399 737.7255,208.34 C740.2815,205.784 741.7015,202.944 741.7015,199.749 C741.7015,193.998 737.0865,190.235 730.1995,190.235 C722.8155,190.235 717.9875,194.566 715.1475,202.305 L718.4845,203.37 C720.8275,200.317 722.8155,198.755 726.0815,198.755 C729.5605,198.755 731.4775,200.53 731.4775,203.654 C731.4775,207.346 728.3535,209.76 722.1055,212.387 Z" id="Path"></path>
            <path d="M755.1915,209.405 C752.1385,211.038 749.8665,213.381 748.4465,216.15 C749.8665,218.919 752.1385,221.262 755.1915,222.895 C758.2445,221.262 760.5165,218.919 761.9365,216.15 C760.5165,213.381 758.2445,211.038 755.1915,209.405 Z" id="Path"></path>
            <path d="M830.0255,221.688 L830.7355,218.635 C828.1085,217.925 824.9845,214.375 823.3515,211.535 C822.0025,209.192 820.8665,206.778 819.5885,204.506 C817.1035,200.175 815.6125,198.968 812.7725,198.116 C818.9495,196.199 823.0675,192.152 823.0675,186.401 C823.0675,179.869 817.6005,176.035 807.5185,176.035 C802.8325,176.035 800.2055,176.745 795.1645,176.745 C792.1115,176.745 789.6265,176.674 786.4315,176.532 L785.7215,179.585 L789.2715,181.36 C789.6265,186.046 789.6265,189.596 789.6265,199.11 C789.6265,208.269 789.3425,211.819 788.9875,214.02 C788.7035,215.795 787.9935,217.925 785.7215,218.635 L785.7215,221.688 C789.2715,221.546 791.5435,221.475 795.0935,221.475 C798.6435,221.475 800.2765,221.546 803.8265,221.83 L804.5365,218.635 L800.9865,216.86 C800.6315,212.174 800.6315,208.837 800.6315,201.098 L801.3415,201.098 C804.1105,201.098 804.7495,202.021 806.9505,205.216 C807.9445,206.707 810.2875,211.535 812.8435,215.511 C815.9675,220.41 819.9435,223.818 830.0255,221.688 Z M800.6315,196.128 C800.7025,188.815 800.9865,185.833 801.2705,184.271 C801.7675,181.857 802.9035,181.005 805.0335,181.005 C809.2935,181.005 811.3525,184.129 811.3525,187.892 C811.3525,191.655 809.2935,196.128 804.6075,196.128 L800.6315,196.128 Z" id="Shape"></path>
            <path d="M849.4085,222.185 C854.8045,221.333 857.9995,219.203 861.1945,215.582 L859.7745,212.529 C857.0055,213.665 855.0885,214.02 852.9585,214.02 C848.0595,214.02 843.9415,212.174 843.4445,205.145 L861.3365,205.145 C861.6205,203.725 861.7625,202.447 861.7625,201.24 C861.7625,194.353 856.8635,190.235 849.7635,190.235 C839.8235,190.235 832.5105,196.98 832.5105,206.423 C832.5105,215.156 837.1965,221.83 849.4085,222.185 Z M843.5155,201.24 C843.8705,197.122 845.3615,194.495 847.8465,194.495 C850.2605,194.495 851.6095,197.122 851.8935,201.24 L843.5155,201.24 Z" id="Shape"></path>
            <path d="M897.1205,209.76 L893.7125,208.695 C891.0855,213.594 889.1685,214.375 884.6245,214.375 L878.4475,214.375 C887.3225,210.257 891.3695,205.713 891.3695,199.678 C891.3695,193.217 885.7605,190.235 880.2935,190.235 C874.6135,190.235 867.6555,193.43 865.1705,202.66 L868.5785,203.796 C870.2825,200.672 872.5545,198.755 875.4655,198.755 C878.0925,198.755 879.6545,200.175 879.6545,203.086 C879.6545,205.997 879.0865,210.186 865.8805,218.848 L866.5905,221.901 C868.5075,221.617 873.3355,221.475 878.2345,221.475 C884.9795,221.475 889.2395,221.475 894.2095,221.688 C894.8485,217.712 895.7715,213.736 897.1205,209.76 Z" id="Path"></path>
            <path d="M948.5955,196.625 C952.9975,194.85 954.9145,191.016 954.9145,186.898 C954.9145,180.721 949.4475,176.035 940.7145,176.035 C934.2535,176.035 932.4785,176.745 927.1535,176.745 C924.1005,176.745 921.6155,176.674 918.4205,176.532 L917.7105,179.585 L921.2605,181.36 C921.6155,186.046 921.6155,189.596 921.6155,199.11 C921.6155,208.269 921.3315,211.819 920.9765,214.02 C920.6925,215.795 919.9825,217.925 917.7105,218.635 L917.7105,221.688 C921.2605,221.546 923.4615,221.475 926.1595,221.475 C933.4725,221.475 933.9695,221.83 938.0165,221.83 C951.0095,221.83 958.1095,215.653 958.1095,207.772 C958.1095,202.66 954.9855,197.974 948.5955,196.625 Z M932.6205,200.53 L937.8035,200.53 C942.9865,200.53 945.6845,203.938 945.6845,208.837 C945.6845,212.529 943.8385,216.86 937.8745,216.86 C936.4545,216.86 934.7505,216.647 932.9755,216.079 C932.6205,212.032 932.6205,208.624 932.6205,200.53 Z M932.6205,195.56 C932.6915,188.673 932.9755,185.833 933.2595,184.271 C933.7565,181.857 934.8925,181.005 937.0225,181.005 C941.7795,181.005 943.5545,184.2 943.5545,187.75 C943.5545,191.087 941.9925,195.56 937.3065,195.56 L932.6205,195.56 Z" id="Shape"></path>
            <path d="M981.2555,190.164 C971.7415,190.164 965.6355,195.489 965.6355,202.234 C965.6355,205.784 967.1265,208.766 970.2505,210.541 C968.3335,212.6 966.7715,214.943 965.6355,217.215 C965.4225,221.049 966.6295,223.747 968.7595,225.38 C966.8425,227.084 965.2805,228.93 964.2155,230.705 C963.8605,237.45 969.6115,239.935 977.1375,239.935 C988.8525,239.935 998.6505,233.9 998.6505,224.954 C998.6505,219.345 994.7455,216.15 986.2255,216.15 L976.9955,216.15 C975.2205,216.15 973.5875,215.369 973.5875,213.594 C973.5875,212.955 973.6585,212.458 973.8715,211.961 C975.4335,212.316 977.1375,212.529 979.1255,212.529 C988.6395,212.529 994.7455,207.204 994.7455,200.459 C994.7455,197.832 993.9645,195.56 992.2605,193.856 C996.9465,192.862 998.6505,190.732 998.6505,188.389 C998.6505,184.839 996.1655,183.419 991.1955,183.419 C991.1955,186.685 990.2725,190.235 986.7935,190.803 C985.1605,190.377 983.3145,190.164 981.2555,190.164 Z M973.8005,230.208 C973.8005,228.788 974.1555,227.794 974.7945,226.8 L983.7405,226.8 C986.5095,226.8 988.0005,228.007 988.0005,229.853 C988.0005,232.551 984.8765,235.32 979.7645,235.32 C975.3625,235.32 973.8005,233.261 973.8005,230.208 Z M976.2855,200.459 C976.2855,196.696 977.7055,194.424 979.8355,194.424 C982.3915,194.424 984.0955,197.264 984.0955,202.234 C984.0955,206.707 982.6755,208.979 980.5455,208.979 C977.9895,208.979 976.2855,206.139 976.2855,200.459 Z" id="Shape"></path>
            <path d="M1017.8915,234.255 L1028.8255,234.255 C1028.6125,231.06 1028.5415,226.445 1028.4705,221.546 L1033.5115,221.617 L1035.3575,212.387 C1032.9435,212.813 1030.6715,213.097 1028.4705,213.239 L1028.4705,213.026 C1028.4705,209.476 1028.4705,192.365 1028.8255,190.448 L1023.5005,186.756 C1016.4005,198.187 1009.5135,208.624 1000.0705,219.487 L1000.7805,222.54 C1006.3895,222.043 1012.4245,221.759 1018.4595,221.617 C1018.3175,226.516 1018.1045,231.06 1017.8915,234.255 Z M1010.6495,213.736 C1013.4895,210.044 1015.9745,206.423 1018.5305,202.873 L1018.5305,213.026 L1018.5305,213.736 C1016.0455,213.736 1013.4185,213.736 1010.6495,213.736 Z" id="Shape"></path>
            <path d="M1078.3125,216.86 C1077.9575,211.819 1077.9575,208.269 1077.9575,206.21 C1077.9575,199.465 1077.8155,194.992 1079.0225,191.655 L1076.8925,189.525 C1072.2775,191.655 1065.6035,193.43 1058.8585,194.14 L1058.8585,198.045 L1064.1835,198.897 C1065.9585,199.181 1066.9525,200.53 1066.9525,202.802 L1066.9525,206.21 C1066.9525,209.121 1066.7395,212.529 1066.3845,214.02 C1065.9585,215.866 1064.6095,217.925 1058.4325,218.635 L1058.4325,221.688 C1065.5325,221.546 1068.7985,221.475 1072.5615,221.475 C1076.3245,221.475 1079.0225,221.546 1085.4125,221.83 L1086.1225,218.635 L1078.3125,216.86 Z" id="Path"></path>
            <path d="M1107.4935,234.255 L1118.4275,234.255 C1118.2145,231.06 1118.1435,226.445 1118.0725,221.546 L1123.1135,221.617 L1124.9595,212.387 C1122.5455,212.813 1120.2735,213.097 1118.0725,213.239 L1118.0725,213.026 C1118.0725,209.476 1118.0725,192.365 1118.4275,190.448 L1113.1025,186.756 C1106.0025,198.187 1099.1155,208.624 1089.6725,219.487 L1090.3825,222.54 C1095.9915,222.043 1102.0265,221.759 1108.0615,221.617 C1107.9195,226.516 1107.7065,231.06 1107.4935,234.255 Z M1100.2515,213.736 C1103.0915,210.044 1105.5765,206.423 1108.1325,202.873 L1108.1325,213.026 L1108.1325,213.736 C1105.6475,213.736 1103.0205,213.736 1100.2515,213.736 Z" id="Shape"></path>
            <path d="M1135.1125,209.405 C1132.0595,211.038 1129.7875,213.381 1128.3675,216.15 C1129.7875,218.919 1132.0595,221.262 1135.1125,222.895 C1138.1655,221.262 1140.4375,218.919 1141.8575,216.15 C1140.4375,213.381 1138.1655,211.038 1135.1125,209.405 Z" id="Path"></path>
            <path d="M1168.8375,188.531 L1168.8375,191.726 C1167.4175,192.436 1166.3525,192.862 1164.9325,193.217 L1164.9325,196.27 L1168.8375,196.27 C1168.8375,206.707 1168.6955,213.31 1168.3405,215.085 C1168.0565,216.505 1167.4175,217.925 1165.6425,218.635 L1165.6425,221.688 C1168.4825,221.546 1170.9675,221.475 1174.1625,221.475 C1177.3575,221.475 1179.4875,221.546 1183.3925,221.83 L1184.1025,218.635 L1179.8425,217.57 C1179.4875,213.381 1179.4875,206.707 1179.4875,196.27 L1189.0725,196.27 L1190.1375,190.945 L1179.4875,190.945 L1179.4875,188.46 C1179.4875,181.076 1181.6885,174.26 1186.7295,174.26 C1189.9245,174.26 1190.9895,177.455 1190.9895,181.715 C1195.4625,181.715 1198.7995,180.295 1198.7995,176.39 C1198.7995,172.13 1194.7525,170 1188.3625,170 C1175.5825,170 1168.8375,178.165 1168.8375,188.531 Z" id="Path"></path>
            <path d="M1197.5925,212.387 L1198.5155,215.795 C1199.5805,215.511 1200.5745,215.156 1201.5685,214.872 C1206.0415,215.724 1207.8165,218.777 1207.8165,221.901 C1207.8165,227.51 1201.7815,232.551 1190.3505,234.042 L1191.2025,237.095 C1208.0295,236.314 1219.3185,229.356 1219.3185,218.635 C1219.3185,214.304 1217.4015,210.399 1213.2125,208.34 C1215.7685,205.784 1217.1885,202.944 1217.1885,199.749 C1217.1885,193.998 1212.5735,190.235 1205.6865,190.235 C1198.3025,190.235 1193.4745,194.566 1190.6345,202.305 L1193.9715,203.37 C1196.3145,200.317 1198.3025,198.755 1201.5685,198.755 C1205.0475,198.755 1206.9645,200.53 1206.9645,203.654 C1206.9645,207.346 1203.8405,209.76 1197.5925,212.387 Z" id="Path"></path>
            <path d="M1273.9885,196.625 C1278.3905,194.85 1280.3075,191.016 1280.3075,186.898 C1280.3075,180.721 1274.8405,176.035 1266.1075,176.035 C1259.6465,176.035 1257.8715,176.745 1252.5465,176.745 C1249.4935,176.745 1247.0085,176.674 1243.8135,176.532 L1243.1035,179.585 L1246.6535,181.36 C1247.0085,186.046 1247.0085,189.596 1247.0085,199.11 C1247.0085,208.269 1246.7245,211.819 1246.3695,214.02 C1246.0855,215.795 1245.3755,217.925 1243.1035,218.635 L1243.1035,221.688 C1246.6535,221.546 1248.8545,221.475 1251.5525,221.475 C1258.8655,221.475 1259.3625,221.83 1263.4095,221.83 C1276.4025,221.83 1283.5025,215.653 1283.5025,207.772 C1283.5025,202.66 1280.3785,197.974 1273.9885,196.625 Z M1258.0135,200.53 L1263.1965,200.53 C1268.3795,200.53 1271.0775,203.938 1271.0775,208.837 C1271.0775,212.529 1269.2315,216.86 1263.2675,216.86 C1261.8475,216.86 1260.1435,216.647 1258.3685,216.079 C1258.0135,212.032 1258.0135,208.624 1258.0135,200.53 Z M1258.0135,195.56 C1258.0845,188.673 1258.3685,185.833 1258.6525,184.271 C1259.1495,181.857 1260.2855,181.005 1262.4155,181.005 C1267.1725,181.005 1268.9475,184.2 1268.9475,187.75 C1268.9475,191.087 1267.3855,195.56 1262.6995,195.56 L1258.0135,195.56 Z" id="Shape"></path>
            <path d="M1313.0385,202.66 L1313.0385,207.275 C1313.0385,210.825 1312.8965,213.31 1312.5415,215.085 C1312.2575,216.505 1311.6185,217.925 1309.8435,218.635 L1309.8435,221.688 C1312.6835,221.546 1315.1685,221.475 1318.3635,221.475 C1321.5585,221.475 1323.6885,221.546 1326.5285,221.83 L1327.2385,218.635 L1324.0435,217.57 C1323.6885,213.31 1323.6885,210.825 1323.6885,207.275 L1323.6885,198.755 C1323.6885,193.43 1321.2035,190.59 1315.4525,190.235 C1310.9085,191.3 1306.8615,193.856 1303.4535,196.98 L1303.4535,195.915 C1303.4535,181.573 1303.4535,176.035 1304.5185,172.13 L1302.3885,170 C1299.1935,171.846 1294.5785,173.763 1289.9635,174.615 L1289.9635,177.668 L1292.4485,178.733 C1292.8035,181.573 1292.8035,186.33 1292.8035,195.915 C1292.8035,206.565 1292.6615,213.31 1292.3065,215.085 C1292.0225,216.505 1291.3835,217.925 1289.6085,218.635 L1289.6085,221.688 C1292.4485,221.546 1294.9335,221.475 1298.1285,221.475 C1301.3235,221.475 1303.4535,221.546 1305.9385,221.83 L1306.6485,218.635 L1303.8085,217.57 C1303.5245,214.162 1303.4535,209.121 1303.4535,201.808 C1305.2285,200.175 1307.4295,199.11 1309.5595,199.11 C1311.6185,199.11 1313.0385,200.033 1313.0385,202.66 Z" id="Path"></path>
            <path d="M1338.2435,190.945 L1332.7055,213.381 C1343.2845,214.091 1348.7515,217.073 1348.7515,222.114 C1348.7515,226.374 1345.3435,231.699 1331.1435,234.042 L1331.9955,237.095 C1349.1065,235.746 1359.7565,230.421 1359.7565,219.061 C1359.7565,209.973 1352.8695,204.861 1339.9475,204.08 L1341.0125,200.175 C1346.3375,199.678 1352.8695,199.465 1358.9045,199.465 L1361.5315,188.815 C1355.0705,190.235 1344.7045,190.661 1338.2435,190.945 Z" id="Path"></path>
            <path d="M1405.4805,216.86 C1405.1255,211.819 1405.1255,208.269 1405.1255,206.21 C1405.1255,199.465 1404.9835,194.992 1406.1905,191.655 L1404.0605,189.525 C1399.4455,191.655 1392.7715,193.43 1386.0265,194.14 L1386.0265,198.045 L1391.3515,198.897 C1393.1265,199.181 1394.1205,200.53 1394.1205,202.802 L1394.1205,206.21 C1394.1205,209.121 1393.9075,212.529 1393.5525,214.02 C1393.1265,215.866 1391.7775,217.925 1385.6005,218.635 L1385.6005,221.688 C1392.7005,221.546 1395.9665,221.475 1399.7295,221.475 C1403.4925,221.475 1406.1905,221.546 1412.5805,221.83 L1413.2905,218.635 L1405.4805,216.86 Z" id="Path"></path>
            <path d="M1424.2955,190.945 L1418.7575,213.381 C1429.3365,214.091 1434.8035,217.073 1434.8035,222.114 C1434.8035,226.374 1431.3955,231.699 1417.1955,234.042 L1418.0475,237.095 C1435.1585,235.746 1445.8085,230.421 1445.8085,219.061 C1445.8085,209.973 1438.9215,204.861 1425.9995,204.08 L1427.0645,200.175 C1432.3895,199.678 1438.9215,199.465 1444.9565,199.465 L1447.5835,188.815 C1441.1225,190.235 1430.7565,190.661 1424.2955,190.945 Z" id="Path"></path>
            <path d="M1458.7305,209.405 C1455.6775,211.038 1453.4055,213.381 1451.9855,216.15 C1453.4055,218.919 1455.6775,221.262 1458.7305,222.895 C1461.7835,221.262 1464.0555,218.919 1465.4755,216.15 C1464.0555,213.381 1461.7835,211.038 1458.7305,209.405 Z" id="Path"></path>
            <path d="M1520.1455,196.625 C1524.5475,194.85 1526.4645,191.016 1526.4645,186.898 C1526.4645,180.721 1520.9975,176.035 1512.2645,176.035 C1505.8035,176.035 1504.0285,176.745 1498.7035,176.745 C1495.6505,176.745 1493.1655,176.674 1489.9705,176.532 L1489.2605,179.585 L1492.8105,181.36 C1493.1655,186.046 1493.1655,189.596 1493.1655,199.11 C1493.1655,208.269 1492.8815,211.819 1492.5265,214.02 C1492.2425,215.795 1491.5325,217.925 1489.2605,218.635 L1489.2605,221.688 C1492.8105,221.546 1495.0115,221.475 1497.7095,221.475 C1505.0225,221.475 1505.5195,221.83 1509.5665,221.83 C1522.5595,221.83 1529.6595,215.653 1529.6595,207.772 C1529.6595,202.66 1526.5355,197.974 1520.1455,196.625 Z M1504.1705,200.53 L1509.3535,200.53 C1514.5365,200.53 1517.2345,203.938 1517.2345,208.837 C1517.2345,212.529 1515.3885,216.86 1509.4245,216.86 C1508.0045,216.86 1506.3005,216.647 1504.5255,216.079 C1504.1705,212.032 1504.1705,208.624 1504.1705,200.53 Z M1504.1705,195.56 C1504.2415,188.673 1504.5255,185.833 1504.8095,184.271 C1505.3065,181.857 1506.4425,181.005 1508.5725,181.005 C1513.3295,181.005 1515.1045,184.2 1515.1045,187.75 C1515.1045,191.087 1513.5425,195.56 1508.8565,195.56 L1504.1705,195.56 Z" id="Shape"></path>
            <path d="M1568.7805,214.872 C1568.4255,211.322 1568.4255,208.695 1568.4255,205.855 L1568.4255,195.915 C1568.4255,181.573 1568.4255,176.035 1569.4905,172.13 L1567.3605,170 C1564.1655,171.846 1559.5505,173.763 1554.9355,174.615 L1554.9355,177.668 L1557.4205,178.733 C1557.7045,181.005 1557.7755,184.484 1557.7755,190.661 C1556.3555,190.377 1555.0775,190.235 1553.7285,190.235 C1543.5755,190.235 1535.7655,196.767 1535.7655,207.488 C1535.7655,215.724 1540.3805,222.185 1548.5455,222.185 C1552.3085,221.049 1555.2195,219.416 1557.7755,216.505 L1558.4855,217.215 C1558.4855,219.345 1558.2725,220.055 1557.7755,221.475 L1559.9055,223.605 C1563.1005,221.759 1567.0055,219.842 1571.2655,218.99 L1571.2655,215.937 L1568.7805,214.872 Z M1547.4805,204.861 C1547.4805,198.258 1549.9655,194.85 1553.0895,194.85 C1555.3615,194.85 1557.7755,196.696 1557.7755,202.092 L1557.7755,211.535 C1556.8525,213.168 1554.7935,214.375 1552.8765,214.375 C1549.8235,214.375 1547.4805,211.322 1547.4805,204.861 Z" id="Shape"></path>
            <path d="M1582.3415,190.945 L1576.8035,213.381 C1587.3825,214.091 1592.8495,217.073 1592.8495,222.114 C1592.8495,226.374 1589.4415,231.699 1575.2415,234.042 L1576.0935,237.095 C1593.2045,235.746 1603.8545,230.421 1603.8545,219.061 C1603.8545,209.973 1596.9675,204.861 1584.0455,204.08 L1585.1105,200.175 C1590.4355,199.678 1596.9675,199.465 1603.0025,199.465 L1605.6295,188.815 C1599.1685,190.235 1588.8025,190.661 1582.3415,190.945 Z" id="Path"></path>
            <path d="M80.0525,275.945 L74.5145,298.381 C85.0935,299.091 90.5605,302.073 90.5605,307.114 C90.5605,311.374 87.1525,316.699 72.9525,319.042 L73.8045,322.095 C90.9155,320.746 101.5655,315.421 101.5655,304.061 C101.5655,294.973 94.6785,289.861 81.7565,289.08 L82.8215,285.175 C88.1465,284.678 94.6785,284.465 100.7135,284.465 L103.3405,273.815 C96.8795,275.235 86.5135,275.661 80.0525,275.945 Z" id="Path"></path>
            <path d="M147.2895,301.86 C146.9345,296.819 146.9345,293.269 146.9345,291.21 C146.9345,284.465 146.7925,279.992 147.9995,276.655 L145.8695,274.525 C141.2545,276.655 134.5805,278.43 127.8355,279.14 L127.8355,283.045 L133.1605,283.897 C134.9355,284.181 135.9295,285.53 135.9295,287.802 L135.9295,291.21 C135.9295,294.121 135.7165,297.529 135.3615,299.02 C134.9355,300.866 133.5865,302.925 127.4095,303.635 L127.4095,306.688 C134.5095,306.546 137.7755,306.475 141.5385,306.475 C145.3015,306.475 147.9995,306.546 154.3895,306.83 L155.0995,303.635 L147.2895,301.86 Z" id="Path"></path>
            <path d="M179.3815,281.625 C177.0385,282.193 174.6245,283.258 172.6365,284.891 L173.4885,287.944 C174.8375,287.447 175.7605,287.234 176.6835,287.234 C179.5235,287.234 181.3695,289.719 181.3695,294.263 C181.3695,300.014 179.0975,302.712 176.5415,302.712 C173.3465,302.712 170.7195,298.381 170.7195,289.364 C170.7195,275.874 176.6125,267.993 188.8245,263.378 L187.9725,260.325 C167.8795,265.082 159.3595,278.004 159.3595,289.577 C159.3595,298.807 164.7555,307.185 175.6895,307.185 C184.7065,307.185 191.6645,301.505 191.6645,293.056 C191.6645,286.027 186.8365,281.625 179.3815,281.625 Z" id="Path"></path>
            <path d="M203.0245,294.405 C199.9715,296.038 197.6995,298.381 196.2795,301.15 C197.6995,303.919 199.9715,306.262 203.0245,307.895 C206.0775,306.262 208.3495,303.919 209.7695,301.15 C208.3495,298.381 206.0775,296.038 203.0245,294.405 Z" id="Path"></path>
            <path d="M275.7995,261.745 C272.6045,261.745 270.4745,261.603 266.9245,261.39 L266.2145,264.585 L272.2495,267.07 C272.9595,271.614 272.9595,276.584 272.9595,284.11 L272.9595,288.654 C263.4455,280.489 253.9315,270.62 244.4175,261.745 L241.5775,261.745 C239.0925,261.745 236.7495,261.745 234.2645,261.532 L233.5545,264.585 C237.1045,266.715 237.4595,269.058 237.4595,274.738 L237.4595,284.11 C237.4595,291.636 237.1045,296.606 236.8205,298.31 C236.3945,301.008 235.6845,302.996 233.5545,303.635 L233.5545,306.688 C235.6845,306.546 237.4595,306.475 240.2995,306.475 C243.4945,306.475 245.6245,306.617 249.1745,306.83 L249.8845,303.635 L243.8495,301.15 C243.1395,296.606 243.1395,291.636 243.1395,284.11 L243.1395,277.01 C253.5765,286.595 265.2915,297.955 275.7285,306.83 L279.1365,306.475 C278.6395,296.819 278.6395,292.985 278.6395,284.11 C278.6395,276.584 278.9945,271.614 279.2785,269.91 C279.7045,267.212 280.4145,265.224 282.5445,264.585 L282.5445,261.532 C280.4145,261.674 278.6395,261.745 275.7995,261.745 Z" id="Path"></path>
            <path d="M320.0325,299.872 C319.6775,296.322 319.6775,293.695 319.6775,290.855 L319.6775,280.915 C319.6775,266.573 319.6775,261.035 320.7425,257.13 L318.6125,255 C315.4175,256.846 310.8025,258.763 306.1875,259.615 L306.1875,262.668 L308.6725,263.733 C308.9565,266.005 309.0275,269.484 309.0275,275.661 C307.6075,275.377 306.3295,275.235 304.9805,275.235 C294.8275,275.235 287.0175,281.767 287.0175,292.488 C287.0175,300.724 291.6325,307.185 299.7975,307.185 C303.5605,306.049 306.4715,304.416 309.0275,301.505 L309.7375,302.215 C309.7375,304.345 309.5245,305.055 309.0275,306.475 L311.1575,308.605 C314.3525,306.759 318.2575,304.842 322.5175,303.99 L322.5175,300.937 L320.0325,299.872 Z M298.7325,289.861 C298.7325,283.258 301.2175,279.85 304.3415,279.85 C306.6135,279.85 309.0275,281.696 309.0275,287.092 L309.0275,296.535 C308.1045,298.168 306.0455,299.375 304.1285,299.375 C301.0755,299.375 298.7325,296.322 298.7325,289.861 Z" id="Shape"></path>
            <path d="M357.7335,294.76 L354.3255,293.695 C351.6985,298.594 349.7815,299.375 345.2375,299.375 L339.0605,299.375 C347.9355,295.257 351.9825,290.713 351.9825,284.678 C351.9825,278.217 346.3735,275.235 340.9065,275.235 C335.2265,275.235 328.2685,278.43 325.7835,287.66 L329.1915,288.796 C330.8955,285.672 333.1675,283.755 336.0785,283.755 C338.7055,283.755 340.2675,285.175 340.2675,288.086 C340.2675,290.997 339.6995,295.186 326.4935,303.848 L327.2035,306.901 C329.1205,306.617 333.9485,306.475 338.8475,306.475 C345.5925,306.475 349.8525,306.475 354.8225,306.688 C355.4615,302.712 356.3845,298.736 357.7335,294.76 Z" id="Path"></path>
            <path d="M381.5185,273.531 L381.5185,276.726 C380.0985,277.436 379.0335,277.862 377.6135,278.217 L377.6135,281.27 L381.5185,281.27 C381.5185,291.707 381.3765,298.31 381.0215,300.085 C380.7375,301.505 380.0985,302.925 378.3235,303.635 L378.3235,306.688 C381.1635,306.546 383.6485,306.475 386.8435,306.475 C390.0385,306.475 392.1685,306.546 396.0735,306.83 L396.7835,303.635 L392.5235,302.57 C392.1685,298.381 392.1685,291.707 392.1685,281.27 L401.7535,281.27 L402.8185,275.945 L392.1685,275.945 L392.1685,273.46 C392.1685,266.076 394.3695,259.26 399.4105,259.26 C402.6055,259.26 403.6705,262.455 403.6705,266.715 C408.1435,266.715 411.4805,265.295 411.4805,261.39 C411.4805,257.13 407.4335,255 401.0435,255 C388.2635,255 381.5185,263.165 381.5185,273.531 Z" id="Path"></path>
            <path d="M410.7705,275.945 L405.2325,298.381 C415.8115,299.091 421.2785,302.073 421.2785,307.114 C421.2785,311.374 417.8705,316.699 403.6705,319.042 L404.5225,322.095 C421.6335,320.746 432.2835,315.421 432.2835,304.061 C432.2835,294.973 425.3965,289.861 412.4745,289.08 L413.5395,285.175 C418.8645,284.678 425.3965,284.465 431.4315,284.465 L434.0585,273.815 C427.5975,275.235 417.2315,275.661 410.7705,275.945 Z" id="Path"></path>
            <path d="M478.0075,301.86 C477.6525,296.819 477.6525,293.269 477.6525,291.21 C477.6525,284.465 477.5105,279.992 478.7175,276.655 L476.5875,274.525 C471.9725,276.655 465.2985,278.43 458.5535,279.14 L458.5535,283.045 L463.8785,283.897 C465.6535,284.181 466.6475,285.53 466.6475,287.802 L466.6475,291.21 C466.6475,294.121 466.4345,297.529 466.0795,299.02 C465.6535,300.866 464.3045,302.925 458.1275,303.635 L458.1275,306.688 C465.2275,306.546 468.4935,306.475 472.2565,306.475 C476.0195,306.475 478.7175,306.546 485.1075,306.83 L485.8175,303.635 L478.0075,301.86 Z" id="Path"></path>
            <path d="M518.2645,278.501 L517.5545,275.306 C512.9395,275.874 511.8745,275.945 502.6445,275.945 C499.6625,275.945 496.8225,275.945 490.7875,275.732 L488.3025,287.305 C491.9945,285.885 496.8225,285.175 503.2835,285.175 L510.5965,285.175 C504.3485,298.31 498.8815,303.99 494.0535,317.125 L505.8395,320.675 C507.3305,304.274 511.0225,293.979 518.2645,278.501 Z" id="Path"></path>
            <path d="M524.8675,294.405 C521.8145,296.038 519.5425,298.381 518.1225,301.15 C519.5425,303.919 521.8145,306.262 524.8675,307.895 C527.9205,306.262 530.1925,303.919 531.6125,301.15 C530.1925,298.381 527.9205,296.038 524.8675,294.405 Z" id="Path"></path>
            <path d="M616.8835,326.355 C627.3915,326.355 634.4915,324.012 643.0825,319.042 L641.6625,315.634 C633.6395,319.184 628.1015,319.965 620.2205,319.965 C609.5705,319.965 600.1275,317.054 587.7735,305.907 C597.3585,302.854 604.3875,294.76 604.3875,283.613 C604.3875,270.478 594.6605,261.035 581.3125,261.035 C567.6095,261.035 556.1075,270.336 556.1075,284.607 C556.1075,296.038 563.4205,304.629 574.1415,306.688 C588.6255,320.746 600.6955,326.355 616.8835,326.355 Z M568.5325,281.909 C568.5325,270.691 573.8575,266.005 579.5375,266.005 C586.6375,266.005 591.9625,274.312 591.9625,286.311 C591.9625,297.529 586.6375,302.215 580.9575,302.215 C573.8575,302.215 568.5325,293.908 568.5325,281.909 Z" id="Shape"></path>
            <path d="M612.9075,305.055 L615.0375,307.185 C616.5285,306.262 618.0905,305.481 619.6525,304.842 C623.2025,306.688 625.9005,307.185 628.6695,307.185 C638.8225,307.185 646.6325,300.653 646.6325,289.932 C646.6325,281.696 642.0175,275.235 633.8525,275.235 C630.0895,276.371 627.1785,278.004 624.6225,280.915 C624.6225,266.573 624.6225,261.035 625.6875,257.13 L623.5575,255 C620.3625,256.846 615.7475,258.763 611.1325,259.615 L611.1325,262.668 L613.6175,263.733 C613.9725,266.573 613.9725,271.33 613.9725,280.915 C613.9725,291.565 613.9725,302.57 612.9075,305.055 Z M624.6225,295.328 L624.6225,285.885 C625.5455,284.252 627.6045,283.045 629.5215,283.045 C632.5745,283.045 634.9175,286.098 634.9175,292.559 C634.9175,299.162 632.4325,302.57 629.3085,302.57 C627.0365,302.57 624.6225,300.724 624.6225,295.328 Z" id="Shape"></path>
            <path d="M657.4955,297.387 L658.4185,300.795 C659.4835,300.511 660.4775,300.156 661.4715,299.872 C665.9445,300.724 667.7195,303.777 667.7195,306.901 C667.7195,312.51 661.6845,317.551 650.2535,319.042 L651.1055,322.095 C667.9325,321.314 679.2215,314.356 679.2215,303.635 C679.2215,299.304 677.3045,295.399 673.1155,293.34 C675.6715,290.784 677.0915,287.944 677.0915,284.749 C677.0915,278.998 672.4765,275.235 665.5895,275.235 C658.2055,275.235 653.3775,279.566 650.5375,287.305 L653.8745,288.37 C656.2175,285.317 658.2055,283.755 661.4715,283.755 C664.9505,283.755 666.8675,285.53 666.8675,288.654 C666.8675,292.346 663.7435,294.76 657.4955,297.387 Z" id="Path"></path>
            <path d="M733.8915,281.625 C738.2935,279.85 740.2105,276.016 740.2105,271.898 C740.2105,265.721 734.7435,261.035 726.0105,261.035 C719.5495,261.035 717.7745,261.745 712.4495,261.745 C709.3965,261.745 706.9115,261.674 703.7165,261.532 L703.0065,264.585 L706.5565,266.36 C706.9115,271.046 706.9115,274.596 706.9115,284.11 C706.9115,293.269 706.6275,296.819 706.2725,299.02 C705.9885,300.795 705.2785,302.925 703.0065,303.635 L703.0065,306.688 C706.5565,306.546 708.7575,306.475 711.4555,306.475 C718.7685,306.475 719.2655,306.83 723.3125,306.83 C736.3055,306.83 743.4055,300.653 743.4055,292.772 C743.4055,287.66 740.2815,282.974 733.8915,281.625 Z M717.9165,285.53 L723.0995,285.53 C728.2825,285.53 730.9805,288.938 730.9805,293.837 C730.9805,297.529 729.1345,301.86 723.1705,301.86 C721.7505,301.86 720.0465,301.647 718.2715,301.079 C717.9165,297.032 717.9165,293.624 717.9165,285.53 Z M717.9165,280.56 C717.9875,273.673 718.2715,270.833 718.5555,269.271 C719.0525,266.857 720.1885,266.005 722.3185,266.005 C727.0755,266.005 728.8505,269.2 728.8505,272.75 C728.8505,276.087 727.2885,280.56 722.6025,280.56 L717.9165,280.56 Z" id="Shape"></path>
            <path d="M753.7715,273.531 L753.7715,276.726 C752.3515,277.436 751.2865,277.862 749.8665,278.217 L749.8665,281.27 L753.7715,281.27 C753.7715,291.707 753.6295,298.31 753.2745,300.085 C752.9905,301.505 752.3515,302.925 750.5765,303.635 L750.5765,306.688 C753.4165,306.546 755.9015,306.475 759.0965,306.475 C762.2915,306.475 764.4215,306.546 768.3265,306.83 L769.0365,303.635 L764.7765,302.57 C764.4215,298.381 764.4215,291.707 764.4215,281.27 L774.0065,281.27 L775.0715,275.945 L764.4215,275.945 L764.4215,273.46 C764.4215,266.076 766.6225,259.26 771.6635,259.26 C774.8585,259.26 775.9235,262.455 775.9235,266.715 C780.3965,266.715 783.7335,265.295 783.7335,261.39 C783.7335,257.13 779.6865,255 773.2965,255 C760.5165,255 753.7715,263.165 753.7715,273.531 Z" id="Path"></path>
            <path d="M805.1755,278.501 L804.4655,275.306 C799.8505,275.874 798.7855,275.945 789.5555,275.945 C786.5735,275.945 783.7335,275.945 777.6985,275.732 L775.2135,287.305 C778.9055,285.885 783.7335,285.175 790.1945,285.175 L797.5075,285.175 C791.2595,298.31 785.7925,303.99 780.9645,317.125 L792.7505,320.675 C794.2415,304.274 797.9335,293.979 805.1755,278.501 Z" id="Path"></path>
            <path d="M848.1305,301.86 C847.7755,296.819 847.7755,293.269 847.7755,291.21 C847.7755,284.465 847.6335,279.992 848.8405,276.655 L846.7105,274.525 C842.0955,276.655 835.4215,278.43 828.6765,279.14 L828.6765,283.045 L834.0015,283.897 C835.7765,284.181 836.7705,285.53 836.7705,287.802 L836.7705,291.21 C836.7705,294.121 836.5575,297.529 836.2025,299.02 C835.7765,300.866 834.4275,302.925 828.2505,303.635 L828.2505,306.688 C835.3505,306.546 838.6165,306.475 842.3795,306.475 C846.1425,306.475 848.8405,306.546 855.2305,306.83 L855.9405,303.635 L848.1305,301.86 Z" id="Path"></path>
            <path d="M876.1045,262.455 C866.8745,262.455 860.4845,267.425 860.4845,275.59 C860.4845,281.767 864.1765,285.246 868.3655,287.802 C862.6855,289.648 860.5555,293.695 860.5555,297.458 C860.5555,303.493 866.1645,307.185 874.6135,307.185 C884.1985,307.185 890.5885,302.428 890.5885,295.044 C890.5885,289.151 886.5415,286.24 882.1395,283.826 C887.1805,281.909 890.3045,278.572 890.3045,273.46 C890.3045,266.644 884.5535,262.455 876.1045,262.455 Z M870.1405,296.322 C870.1405,294.334 870.7795,291.92 872.5545,290.145 C876.8855,292.346 880.6485,294.263 880.6485,297.884 C880.6485,300.582 878.5185,302.712 875.6075,302.712 C872.4125,302.712 870.1405,300.085 870.1405,296.322 Z M870.7795,273.176 C870.7795,269.981 872.8385,267.425 875.4655,267.425 C877.8795,267.425 880.0095,269.484 880.0095,274.809 C880.0095,276.939 879.6545,279.211 877.9505,281.625 C874.0455,279.566 870.7795,277.365 870.7795,273.176 Z" id="Shape"></path>
            <path d="M902.2325,294.405 C899.1795,296.038 896.9075,298.381 895.4875,301.15 C896.9075,303.919 899.1795,306.262 902.2325,307.895 C905.2855,306.262 907.5575,303.919 908.9775,301.15 C907.5575,298.381 905.2855,296.038 902.2325,294.405 Z" id="Path"></path>
            <path d="M975.0075,261.745 C971.8125,261.745 969.6825,261.603 966.1325,261.39 L965.4225,264.585 L971.4575,267.07 C972.1675,271.614 972.1675,276.584 972.1675,284.11 L972.1675,288.654 C962.6535,280.489 953.1395,270.62 943.6255,261.745 L940.7855,261.745 C938.3005,261.745 935.9575,261.745 933.4725,261.532 L932.7625,264.585 C936.3125,266.715 936.6675,269.058 936.6675,274.738 L936.6675,284.11 C936.6675,291.636 936.3125,296.606 936.0285,298.31 C935.6025,301.008 934.8925,302.996 932.7625,303.635 L932.7625,306.688 C934.8925,306.546 936.6675,306.475 939.5075,306.475 C942.7025,306.475 944.8325,306.617 948.3825,306.83 L949.0925,303.635 L943.0575,301.15 C942.3475,296.606 942.3475,291.636 942.3475,284.11 L942.3475,277.01 C952.7845,286.595 964.4995,297.955 974.9365,306.83 L978.3445,306.475 C977.8475,296.819 977.8475,292.985 977.8475,284.11 C977.8475,276.584 978.2025,271.614 978.4865,269.91 C978.9125,267.212 979.6225,265.224 981.7525,264.585 L981.7525,261.532 C979.6225,261.674 977.8475,261.745 975.0075,261.745 Z" id="Path"></path>
            <path d="M990.4855,273.531 L990.4855,276.726 C989.0655,277.436 988.0005,277.862 986.5805,278.217 L986.5805,281.27 L990.4855,281.27 C990.4855,291.707 990.3435,298.31 989.9885,300.085 C989.7045,301.505 989.0655,302.925 987.2905,303.635 L987.2905,306.688 C990.1305,306.546 992.6155,306.475 995.8105,306.475 C999.0055,306.475 1001.1355,306.546 1005.0405,306.83 L1005.7505,303.635 L1001.4905,302.57 C1001.1355,298.381 1001.1355,291.707 1001.1355,281.27 L1010.7205,281.27 L1011.7855,275.945 L1001.1355,275.945 L1001.1355,273.46 C1001.1355,266.076 1003.3365,259.26 1008.3775,259.26 C1011.5725,259.26 1012.6375,262.455 1012.6375,266.715 C1017.1105,266.715 1020.4475,265.295 1020.4475,261.39 C1020.4475,257.13 1016.4005,255 1010.0105,255 C997.2305,255 990.4855,263.165 990.4855,273.531 Z" id="Path"></path>
            <path d="M1034.4345,301.86 C1034.0795,296.819 1034.0795,293.269 1034.0795,291.21 C1034.0795,284.465 1033.9375,279.992 1035.1445,276.655 L1033.0145,274.525 C1028.3995,276.655 1021.7255,278.43 1014.9805,279.14 L1014.9805,283.045 L1020.3055,283.897 C1022.0805,284.181 1023.0745,285.53 1023.0745,287.802 L1023.0745,291.21 C1023.0745,294.121 1022.8615,297.529 1022.5065,299.02 C1022.0805,300.866 1020.7315,302.925 1014.5545,303.635 L1014.5545,306.688 C1021.6545,306.546 1024.9205,306.475 1028.6835,306.475 C1032.4465,306.475 1035.1445,306.546 1041.5345,306.83 L1042.2445,303.635 L1034.4345,301.86 Z" id="Path"></path>
            <path d="M1068.8695,273.531 L1068.8695,276.726 C1067.4495,277.436 1066.3845,277.862 1064.9645,278.217 L1064.9645,281.27 L1068.8695,281.27 C1068.8695,291.707 1068.7275,298.31 1068.3725,300.085 C1068.0885,301.505 1067.4495,302.925 1065.6745,303.635 L1065.6745,306.688 C1068.5145,306.546 1070.9995,306.475 1074.1945,306.475 C1077.3895,306.475 1079.5195,306.546 1083.4245,306.83 L1084.1345,303.635 L1079.8745,302.57 C1079.5195,298.381 1079.5195,291.707 1079.5195,281.27 L1089.1045,281.27 L1090.1695,275.945 L1079.5195,275.945 L1079.5195,273.46 C1079.5195,266.076 1081.7205,259.26 1086.7615,259.26 C1089.9565,259.26 1091.0215,262.455 1091.0215,266.715 C1095.4945,266.715 1098.8315,265.295 1098.8315,261.39 C1098.8315,257.13 1094.7845,255 1088.3945,255 C1075.6145,255 1068.8695,263.165 1068.8695,273.531 Z" id="Path"></path>
            <path d="M1108.4875,319.255 L1119.4215,319.255 C1119.2085,316.06 1119.1375,311.445 1119.0665,306.546 L1124.1075,306.617 L1125.9535,297.387 C1123.5395,297.813 1121.2675,298.097 1119.0665,298.239 L1119.0665,298.026 C1119.0665,294.476 1119.0665,277.365 1119.4215,275.448 L1114.0965,271.756 C1106.9965,283.187 1100.1095,293.624 1090.6665,304.487 L1091.3765,307.54 C1096.9855,307.043 1103.0205,306.759 1109.0555,306.617 C1108.9135,311.516 1108.7005,316.06 1108.4875,319.255 Z M1101.2455,298.736 C1104.0855,295.044 1106.5705,291.423 1109.1265,287.873 L1109.1265,298.026 L1109.1265,298.736 C1106.6415,298.736 1104.0145,298.736 1101.2455,298.736 Z" id="Shape"></path>
            <path d="M1168.9085,301.86 C1168.5535,296.819 1168.5535,293.269 1168.5535,291.21 C1168.5535,284.465 1168.4115,279.992 1169.6185,276.655 L1167.4885,274.525 C1162.8735,276.655 1156.1995,278.43 1149.4545,279.14 L1149.4545,283.045 L1154.7795,283.897 C1156.5545,284.181 1157.5485,285.53 1157.5485,287.802 L1157.5485,291.21 C1157.5485,294.121 1157.3355,297.529 1156.9805,299.02 C1156.5545,300.866 1155.2055,302.925 1149.0285,303.635 L1149.0285,306.688 C1156.1285,306.546 1159.3945,306.475 1163.1575,306.475 C1166.9205,306.475 1169.6185,306.546 1176.0085,306.83 L1176.7185,303.635 L1168.9085,301.86 Z" id="Path"></path>
            <path d="M1193.2615,300.795 C1195.6045,300.227 1198.0185,299.162 1200.0065,297.529 L1199.1545,294.476 C1197.8055,294.973 1196.8825,295.186 1195.9595,295.186 C1193.1195,295.186 1191.2735,292.701 1191.2735,288.157 C1191.2735,282.406 1193.5455,279.708 1196.1015,279.708 C1199.2965,279.708 1201.9235,284.039 1201.9235,293.056 C1201.9235,306.546 1196.0305,314.427 1183.8185,319.042 L1184.6705,322.095 C1204.7635,317.338 1213.2835,304.416 1213.2835,292.843 C1213.2835,283.613 1207.8875,275.235 1196.9535,275.235 C1187.9365,275.235 1180.9785,280.915 1180.9785,289.364 C1180.9785,296.393 1185.8065,300.795 1193.2615,300.795 Z" id="Path"></path>
            <path d="M1224.6435,294.405 C1221.5905,296.038 1219.3185,298.381 1217.8985,301.15 C1219.3185,303.919 1221.5905,306.262 1224.6435,307.895 C1227.6965,306.262 1229.9685,303.919 1231.3885,301.15 C1229.9685,298.381 1227.6965,296.038 1224.6435,294.405 Z" id="Path"></path>
            <path d="M1286.0585,281.625 C1290.4605,279.85 1292.3775,276.016 1292.3775,271.898 C1292.3775,265.721 1286.9105,261.035 1278.1775,261.035 C1271.7165,261.035 1269.9415,261.745 1264.6165,261.745 C1261.5635,261.745 1259.0785,261.674 1255.8835,261.532 L1255.1735,264.585 L1258.7235,266.36 C1259.0785,271.046 1259.0785,274.596 1259.0785,284.11 C1259.0785,293.269 1258.7945,296.819 1258.4395,299.02 C1258.1555,300.795 1257.4455,302.925 1255.1735,303.635 L1255.1735,306.688 C1258.7235,306.546 1260.9245,306.475 1263.6225,306.475 C1270.9355,306.475 1271.4325,306.83 1275.4795,306.83 C1288.4725,306.83 1295.5725,300.653 1295.5725,292.772 C1295.5725,287.66 1292.4485,282.974 1286.0585,281.625 Z M1270.0835,285.53 L1275.2665,285.53 C1280.4495,285.53 1283.1475,288.938 1283.1475,293.837 C1283.1475,297.529 1281.3015,301.86 1275.3375,301.86 C1273.9175,301.86 1272.2135,301.647 1270.4385,301.079 C1270.0835,297.032 1270.0835,293.624 1270.0835,285.53 Z M1270.0835,280.56 C1270.1545,273.673 1270.4385,270.833 1270.7225,269.271 C1271.2195,266.857 1272.3555,266.005 1274.4855,266.005 C1279.2425,266.005 1281.0175,269.2 1281.0175,272.75 C1281.0175,276.087 1279.4555,280.56 1274.7695,280.56 L1270.0835,280.56 Z" id="Shape"></path>
            <path d="M1334.6935,299.872 C1334.3385,296.322 1334.3385,293.695 1334.3385,290.855 L1334.3385,280.915 C1334.3385,266.573 1334.3385,261.035 1335.4035,257.13 L1333.2735,255 C1330.0785,256.846 1325.4635,258.763 1320.8485,259.615 L1320.8485,262.668 L1323.3335,263.733 C1323.6175,266.005 1323.6885,269.484 1323.6885,275.661 C1322.2685,275.377 1320.9905,275.235 1319.6415,275.235 C1309.4885,275.235 1301.6785,281.767 1301.6785,292.488 C1301.6785,300.724 1306.2935,307.185 1314.4585,307.185 C1318.2215,306.049 1321.1325,304.416 1323.6885,301.505 L1324.3985,302.215 C1324.3985,304.345 1324.1855,305.055 1323.6885,306.475 L1325.8185,308.605 C1329.0135,306.759 1332.9185,304.842 1337.1785,303.99 L1337.1785,300.937 L1334.6935,299.872 Z M1313.3935,289.861 C1313.3935,283.258 1315.8785,279.85 1319.0025,279.85 C1321.2745,279.85 1323.6885,281.696 1323.6885,287.092 L1323.6885,296.535 C1322.7655,298.168 1320.7065,299.375 1318.7895,299.375 C1315.7365,299.375 1313.3935,296.322 1313.3935,289.861 Z" id="Shape"></path>
            <path d="M1372.3945,294.76 L1368.9865,293.695 C1366.3595,298.594 1364.4425,299.375 1359.8985,299.375 L1353.7215,299.375 C1362.5965,295.257 1366.6435,290.713 1366.6435,284.678 C1366.6435,278.217 1361.0345,275.235 1355.5675,275.235 C1349.8875,275.235 1342.9295,278.43 1340.4445,287.66 L1343.8525,288.796 C1345.5565,285.672 1347.8285,283.755 1350.7395,283.755 C1353.3665,283.755 1354.9285,285.175 1354.9285,288.086 C1354.9285,290.997 1354.3605,295.186 1341.1545,303.848 L1341.8645,306.901 C1343.7815,306.617 1348.6095,306.475 1353.5085,306.475 C1360.2535,306.475 1364.5135,306.475 1369.4835,306.688 C1370.1225,302.712 1371.0455,298.736 1372.3945,294.76 Z" id="Path"></path>
            <path d="M1454.4705,326.355 C1464.9785,326.355 1472.0785,324.012 1480.6695,319.042 L1479.2495,315.634 C1471.2265,319.184 1465.6885,319.965 1457.8075,319.965 C1447.1575,319.965 1437.7145,317.054 1425.3605,305.907 C1434.9455,302.854 1441.9745,294.76 1441.9745,283.613 C1441.9745,270.478 1432.2475,261.035 1418.8995,261.035 C1405.1965,261.035 1393.6945,270.336 1393.6945,284.607 C1393.6945,296.038 1401.0075,304.629 1411.7285,306.688 C1426.2125,320.746 1438.2825,326.355 1454.4705,326.355 Z M1406.1195,281.909 C1406.1195,270.691 1411.4445,266.005 1417.1245,266.005 C1424.2245,266.005 1429.5495,274.312 1429.5495,286.311 C1429.5495,297.529 1424.2245,302.215 1418.5445,302.215 C1411.4445,302.215 1406.1195,293.908 1406.1195,281.909 Z" id="Shape"></path>
            <path d="M1481.3795,299.872 C1481.0245,296.322 1481.0245,293.695 1481.0245,290.855 L1481.0245,280.915 C1481.0245,266.573 1481.0245,261.035 1482.0895,257.13 L1479.9595,255 C1476.7645,256.846 1472.1495,258.763 1467.5345,259.615 L1467.5345,262.668 L1470.0195,263.733 C1470.3035,266.005 1470.3745,269.484 1470.3745,275.661 C1468.9545,275.377 1467.6765,275.235 1466.3275,275.235 C1456.1745,275.235 1448.3645,281.767 1448.3645,292.488 C1448.3645,300.724 1452.9795,307.185 1461.1445,307.185 C1464.9075,306.049 1467.8185,304.416 1470.3745,301.505 L1471.0845,302.215 C1471.0845,304.345 1470.8715,305.055 1470.3745,306.475 L1472.5045,308.605 C1475.6995,306.759 1479.6045,304.842 1483.8645,303.99 L1483.8645,300.937 L1481.3795,299.872 Z M1460.0795,289.861 C1460.0795,283.258 1462.5645,279.85 1465.6885,279.85 C1467.9605,279.85 1470.3745,281.696 1470.3745,287.092 L1470.3745,296.535 C1469.4515,298.168 1467.3925,299.375 1465.4755,299.375 C1462.4225,299.375 1460.0795,296.322 1460.0795,289.861 Z" id="Shape"></path>
            <path d="M1517.0925,278.501 L1516.3825,275.306 C1511.7675,275.874 1510.7025,275.945 1501.4725,275.945 C1498.4905,275.945 1495.6505,275.945 1489.6155,275.732 L1487.1305,287.305 C1490.8225,285.885 1495.6505,285.175 1502.1115,285.175 L1509.4245,285.175 C1503.1765,298.31 1497.7095,303.99 1492.8815,317.125 L1504.6675,320.675 C1506.1585,304.274 1509.8505,293.979 1517.0925,278.501 Z" id="Path"></path>
            <path d="M1569.4905,294.76 L1566.0825,293.695 C1563.4555,298.594 1561.5385,299.375 1556.9945,299.375 L1550.8175,299.375 C1559.6925,295.257 1563.7395,290.713 1563.7395,284.678 C1563.7395,278.217 1558.1305,275.235 1552.6635,275.235 C1546.9835,275.235 1540.0255,278.43 1537.5405,287.66 L1540.9485,288.796 C1542.6525,285.672 1544.9245,283.755 1547.8355,283.755 C1550.4625,283.755 1552.0245,285.175 1552.0245,288.086 C1552.0245,290.997 1551.4565,295.186 1538.2505,303.848 L1538.9605,306.901 C1540.8775,306.617 1545.7055,306.475 1550.6045,306.475 C1557.3495,306.475 1561.6095,306.475 1566.5795,306.688 C1567.2185,302.712 1568.1415,298.736 1569.4905,294.76 Z" id="Path"></path>
            <path d="M1588.2345,275.235 C1578.7205,275.235 1570.9105,281.838 1570.9105,291.778 C1570.9105,300.014 1576.2355,307.185 1586.1045,307.185 C1595.6185,307.185 1603.4285,300.582 1603.4285,290.642 C1603.4285,282.406 1598.1035,275.235 1588.2345,275.235 Z M1576.9455,290.855 C1576.9455,287.518 1580.4245,285.53 1586.3175,285.53 C1592.0685,285.53 1597.3935,287.447 1597.3935,291.565 C1597.3935,294.902 1593.9145,296.89 1588.0215,296.89 C1582.2705,296.89 1576.9455,294.973 1576.9455,290.855 Z" id="Shape"></path>
        </g>
    </g>
</svg>