<?xml version="1.0" encoding="UTF-8"?>
<svg width="1512px" height="346px" viewBox="0 0 1512 346" version="1.1" xmlns="http://www.w3.org/2000/svg" xmlns:xlink="http://www.w3.org/1999/xlink">
    <title>Artboard</title>
    <g id="Artboard" stroke="none" stroke-width="1" fill="none" fill-rule="evenodd">
        <g id="1.-e4-c5-2.-Nf3-d6-3" transform="translate(-57.752500, 9.525000)" fill="#F2DD99" fill-rule="nonzero">
            <path d="M85.058,52.185 C90.454,51.333 93.649,49.203 96.844,45.582 L95.424,42.529 C92.655,43.665 90.738,44.02 88.608,44.02 C83.709,44.02 79.591,42.174 79.094,35.145 L96.986,35.145 C97.27,33.725 97.412,32.447 97.412,31.24 C97.412,24.353 92.513,20.235 85.413,20.235 C75.473,20.235 68.16,26.98 68.16,36.423 C68.16,45.156 72.846,51.83 85.058,52.185 Z M79.165,31.24 C79.52,27.122 81.011,24.495 83.496,24.495 C85.91,24.495 87.259,27.122 87.543,31.24 L79.165,31.24 Z" id="Shape"></path>
            <path d="M118.286,64.255 L129.22,64.255 C129.007,61.06 128.936,56.445 128.865,51.546 L133.906,51.617 L135.752,42.387 C133.338,42.813 131.066,43.097 128.865,43.239 L128.865,43.026 C128.865,39.476 128.865,22.365 129.22,20.448 L123.895,16.756 C116.795,28.187 109.908,38.624 100.465,49.487 L101.175,52.54 C106.784,52.043 112.819,51.759 118.854,51.617 C118.712,56.516 118.499,61.06 118.286,64.255 Z M111.044,43.736 C113.884,40.044 116.369,36.423 118.925,32.873 L118.925,43.026 L118.925,43.736 C116.44,43.736 113.813,43.736 111.044,43.736 Z" id="Shape"></path>
            <path d="M176.506,44.02 C171.891,44.02 168.625,41.89 168.625,34.009 C168.625,27.69 170.755,24.85 173.169,24.85 C176.08,24.85 177.216,28.045 177.216,31.95 C181.831,31.95 185.026,30.459 185.026,26.767 C185.026,22.649 181.121,20.235 174.944,20.235 C165.075,20.235 157.265,26.554 157.265,36.92 C157.265,44.659 161.383,51.83 173.24,52.185 C178.636,51.049 181.831,48.564 185.026,45.227 L183.606,42.174 C180.837,43.594 178.991,44.02 176.506,44.02 Z" id="Path"></path>
            <path d="M196.102,20.945 L190.564,43.381 C201.143,44.091 206.61,47.073 206.61,52.114 C206.61,56.374 203.202,61.699 189.002,64.042 L189.854,67.095 C206.965,65.746 217.615,60.421 217.615,49.061 C217.615,39.973 210.728,34.861 197.806,34.08 L198.871,30.175 C204.196,29.678 210.728,29.465 216.763,29.465 L219.39,18.815 C212.929,20.235 202.563,20.661 196.102,20.945 Z" id="Path"></path>
            <path d="M272.782,39.76 L269.374,38.695 C266.747,43.594 264.83,44.375 260.286,44.375 L254.109,44.375 C262.984,40.257 267.031,35.713 267.031,29.678 C267.031,23.217 261.422,20.235 255.955,20.235 C250.275,20.235 243.317,23.43 240.832,32.66 L244.24,33.796 C245.944,30.672 248.216,28.755 251.127,28.755 C253.754,28.755 255.316,30.175 255.316,33.086 C255.316,35.997 254.748,40.186 241.542,48.848 L242.252,51.901 C244.169,51.617 248.997,51.475 253.896,51.475 C260.641,51.475 264.901,51.475 269.871,51.688 C270.51,47.712 271.433,43.736 272.782,39.76 Z" id="Path"></path>
            <path d="M280.947,39.405 C277.894,41.038 275.622,43.381 274.202,46.15 C275.622,48.919 277.894,51.262 280.947,52.895 C284,51.262 286.272,48.919 287.692,46.15 C286.272,43.381 284,41.038 280.947,39.405 Z" id="Path"></path>
            <path d="M353.722,6.745 C350.527,6.745 348.397,6.603 344.847,6.39 L344.137,9.585 L350.172,12.07 C350.882,16.614 350.882,21.584 350.882,29.11 L350.882,33.654 C341.368,25.489 331.854,15.62 322.34,6.745 L319.5,6.745 C317.015,6.745 314.672,6.745 312.187,6.532 L311.477,9.585 C315.027,11.715 315.382,14.058 315.382,19.738 L315.382,29.11 C315.382,36.636 315.027,41.606 314.743,43.31 C314.317,46.008 313.607,47.996 311.477,48.635 L311.477,51.688 C313.607,51.546 315.382,51.475 318.222,51.475 C321.417,51.475 323.547,51.617 327.097,51.83 L327.807,48.635 L321.772,46.15 C321.062,41.606 321.062,36.636 321.062,29.11 L321.062,22.01 C331.499,31.595 343.214,42.955 353.651,51.83 L357.059,51.475 C356.562,41.819 356.562,37.985 356.562,29.11 C356.562,21.584 356.917,16.614 357.201,14.91 C357.627,12.212 358.337,10.224 360.467,9.585 L360.467,6.532 C358.337,6.674 356.562,6.745 353.722,6.745 Z" id="Path"></path>
            <path d="M369.2,18.531 L369.2,21.726 C367.78,22.436 366.715,22.862 365.295,23.217 L365.295,26.27 L369.2,26.27 C369.2,36.707 369.058,43.31 368.703,45.085 C368.419,46.505 367.78,47.925 366.005,48.635 L366.005,51.688 C368.845,51.546 371.33,51.475 374.525,51.475 C377.72,51.475 379.85,51.546 383.755,51.83 L384.465,48.635 L380.205,47.57 C379.85,43.381 379.85,36.707 379.85,26.27 L389.435,26.27 L390.5,20.945 L379.85,20.945 L379.85,18.46 C379.85,11.076 382.051,4.26 387.092,4.26 C390.287,4.26 391.352,7.455 391.352,11.715 C395.825,11.715 399.162,10.295 399.162,6.39 C399.162,2.13 395.115,2.84217094e-14 388.725,2.84217094e-14 C375.945,2.84217094e-14 369.2,8.165 369.2,18.531 Z" id="Path"></path>
            <path d="M397.955,42.387 L398.878,45.795 C399.943,45.511 400.937,45.156 401.931,44.872 C406.404,45.724 408.179,48.777 408.179,51.901 C408.179,57.51 402.144,62.551 390.713,64.042 L391.565,67.095 C408.392,66.314 419.681,59.356 419.681,48.635 C419.681,44.304 417.764,40.399 413.575,38.34 C416.131,35.784 417.551,32.944 417.551,29.749 C417.551,23.998 412.936,20.235 406.049,20.235 C398.665,20.235 393.837,24.566 390.997,32.305 L394.334,33.37 C396.677,30.317 398.665,28.755 401.931,28.755 C405.41,28.755 407.327,30.53 407.327,33.654 C407.327,37.346 404.203,39.76 397.955,42.387 Z" id="Path"></path>
            <path d="M475.416,44.872 C475.061,41.322 475.061,38.695 475.061,35.855 L475.061,25.915 C475.061,11.573 475.061,6.035 476.126,2.13 L473.996,2.84217094e-14 C470.801,1.846 466.186,3.763 461.571,4.615 L461.571,7.668 L464.056,8.733 C464.34,11.005 464.411,14.484 464.411,20.661 C462.991,20.377 461.713,20.235 460.364,20.235 C450.211,20.235 442.401,26.767 442.401,37.488 C442.401,45.724 447.016,52.185 455.181,52.185 C458.944,51.049 461.855,49.416 464.411,46.505 L465.121,47.215 C465.121,49.345 464.908,50.055 464.411,51.475 L466.541,53.605 C469.736,51.759 473.641,49.842 477.901,48.99 L477.901,45.937 L475.416,44.872 Z M454.116,34.861 C454.116,28.258 456.601,24.85 459.725,24.85 C461.997,24.85 464.411,26.696 464.411,32.092 L464.411,41.535 C463.488,43.168 461.429,44.375 459.512,44.375 C456.459,44.375 454.116,41.322 454.116,34.861 Z" id="Shape"></path>
            <path d="M502.254,26.625 C499.911,27.193 497.497,28.258 495.509,29.891 L496.361,32.944 C497.71,32.447 498.633,32.234 499.556,32.234 C502.396,32.234 504.242,34.719 504.242,39.263 C504.242,45.014 501.97,47.712 499.414,47.712 C496.219,47.712 493.592,43.381 493.592,34.364 C493.592,20.874 499.485,12.993 511.697,8.378 L510.845,5.325 C490.752,10.082 482.232,23.004 482.232,34.577 C482.232,43.807 487.628,52.185 498.562,52.185 C507.579,52.185 514.537,46.505 514.537,38.056 C514.537,31.027 509.709,26.625 502.254,26.625 Z" id="Path"></path>
            <path d="M543.505,42.387 L544.428,45.795 C545.493,45.511 546.487,45.156 547.481,44.872 C551.954,45.724 553.729,48.777 553.729,51.901 C553.729,57.51 547.694,62.551 536.263,64.042 L537.115,67.095 C553.942,66.314 565.231,59.356 565.231,48.635 C565.231,44.304 563.314,40.399 559.125,38.34 C561.681,35.784 563.101,32.944 563.101,29.749 C563.101,23.998 558.486,20.235 551.599,20.235 C544.215,20.235 539.387,24.566 536.547,32.305 L539.884,33.37 C542.227,30.317 544.215,28.755 547.481,28.755 C550.96,28.755 552.877,30.53 552.877,33.654 C552.877,37.346 549.753,39.76 543.505,42.387 Z" id="Path"></path>
            <path d="M576.591,39.405 C573.538,41.038 571.266,43.381 569.846,46.15 C571.266,48.919 573.538,51.262 576.591,52.895 C579.644,51.262 581.916,48.919 583.336,46.15 C581.916,43.381 579.644,41.038 576.591,39.405 Z" id="Path"></path>
            <path d="M638.006,26.625 C642.408,24.85 644.325,21.016 644.325,16.898 C644.325,10.721 638.858,6.035 630.125,6.035 C623.664,6.035 621.889,6.745 616.564,6.745 C613.511,6.745 611.026,6.674 607.831,6.532 L607.121,9.585 L610.671,11.36 C611.026,16.046 611.026,19.596 611.026,29.11 C611.026,38.269 610.742,41.819 610.387,44.02 C610.103,45.795 609.393,47.925 607.121,48.635 L607.121,51.688 C610.671,51.546 612.872,51.475 615.57,51.475 C622.883,51.475 623.38,51.83 627.427,51.83 C640.42,51.83 647.52,45.653 647.52,37.772 C647.52,32.66 644.396,27.974 638.006,26.625 Z M622.031,30.53 L627.214,30.53 C632.397,30.53 635.095,33.938 635.095,38.837 C635.095,42.529 633.249,46.86 627.285,46.86 C625.865,46.86 624.161,46.647 622.386,46.079 C622.031,42.032 622.031,38.624 622.031,30.53 Z M622.031,25.56 C622.102,18.673 622.386,15.833 622.67,14.271 C623.167,11.857 624.303,11.005 626.433,11.005 C631.19,11.005 632.965,14.2 632.965,17.75 C632.965,21.087 631.403,25.56 626.717,25.56 L622.031,25.56 Z" id="Shape"></path>
            <path d="M655.756,50.055 L657.886,52.185 C659.377,51.262 660.939,50.481 662.501,49.842 C666.051,51.688 668.749,52.185 671.518,52.185 C681.671,52.185 689.481,45.653 689.481,34.932 C689.481,26.696 684.866,20.235 676.701,20.235 C672.938,21.371 670.027,23.004 667.471,25.915 C667.471,11.573 667.471,6.035 668.536,2.13 L666.406,2.84217094e-14 C663.211,1.846 658.596,3.763 653.981,4.615 L653.981,7.668 L656.466,8.733 C656.821,11.573 656.821,16.33 656.821,25.915 C656.821,36.565 656.821,47.57 655.756,50.055 Z M667.471,40.328 L667.471,30.885 C668.394,29.252 670.453,28.045 672.37,28.045 C675.423,28.045 677.766,31.098 677.766,37.559 C677.766,44.162 675.281,47.57 672.157,47.57 C669.885,47.57 667.471,45.724 667.471,40.328 Z" id="Shape"></path>
            <path d="M700.841,20.945 L695.303,43.381 C705.882,44.091 711.349,47.073 711.349,52.114 C711.349,56.374 707.941,61.699 693.741,64.042 L694.593,67.095 C711.704,65.746 722.354,60.421 722.354,49.061 C722.354,39.973 715.467,34.861 702.545,34.08 L703.61,30.175 C708.935,29.678 715.467,29.465 721.502,29.465 L724.129,18.815 C717.668,20.235 707.302,20.661 700.841,20.945 Z" id="Path"></path>
            <path d="M789.946,6.745 C786.751,6.745 784.621,6.603 781.071,6.39 L780.361,9.585 L786.396,12.07 C787.106,16.614 787.106,21.584 787.106,29.11 L787.106,33.654 C777.592,25.489 768.078,15.62 758.564,6.745 L755.724,6.745 C753.239,6.745 750.896,6.745 748.411,6.532 L747.701,9.585 C751.251,11.715 751.606,14.058 751.606,19.738 L751.606,29.11 C751.606,36.636 751.251,41.606 750.967,43.31 C750.541,46.008 749.831,47.996 747.701,48.635 L747.701,51.688 C749.831,51.546 751.606,51.475 754.446,51.475 C757.641,51.475 759.771,51.617 763.321,51.83 L764.031,48.635 L757.996,46.15 C757.286,41.606 757.286,36.636 757.286,29.11 L757.286,22.01 C767.723,31.595 779.438,42.955 789.875,51.83 L793.283,51.475 C792.786,41.819 792.786,37.985 792.786,29.11 C792.786,21.584 793.141,16.614 793.425,14.91 C793.851,12.212 794.561,10.224 796.691,9.585 L796.691,6.532 C794.561,6.674 792.786,6.745 789.946,6.745 Z" id="Path"></path>
            <path d="M834.179,44.872 C833.824,41.322 833.824,38.695 833.824,35.855 L833.824,25.915 C833.824,11.573 833.824,6.035 834.889,2.13 L832.759,2.84217094e-14 C829.564,1.846 824.949,3.763 820.334,4.615 L820.334,7.668 L822.819,8.733 C823.103,11.005 823.174,14.484 823.174,20.661 C821.754,20.377 820.476,20.235 819.127,20.235 C808.974,20.235 801.164,26.767 801.164,37.488 C801.164,45.724 805.779,52.185 813.944,52.185 C817.707,51.049 820.618,49.416 823.174,46.505 L823.884,47.215 C823.884,49.345 823.671,50.055 823.174,51.475 L825.304,53.605 C828.499,51.759 832.404,49.842 836.664,48.99 L836.664,45.937 L834.179,44.872 Z M812.879,34.861 C812.879,28.258 815.364,24.85 818.488,24.85 C820.76,24.85 823.174,26.696 823.174,32.092 L823.174,41.535 C822.251,43.168 820.192,44.375 818.275,44.375 C815.222,44.375 812.879,41.322 812.879,34.861 Z" id="Shape"></path>
            <path d="M869.892,23.501 L869.182,20.306 C864.567,20.874 863.502,20.945 854.272,20.945 C851.29,20.945 848.45,20.945 842.415,20.732 L839.93,32.305 C843.622,30.885 848.45,30.175 854.911,30.175 L862.224,30.175 C855.976,43.31 850.509,48.99 845.681,62.125 L857.467,65.675 C858.958,49.274 862.65,38.979 869.892,23.501 Z" id="Path"></path>
            <path d="M908.516,64.255 L919.45,64.255 C919.237,61.06 919.166,56.445 919.095,51.546 L924.136,51.617 L925.982,42.387 C923.568,42.813 921.296,43.097 919.095,43.239 L919.095,43.026 C919.095,39.476 919.095,22.365 919.45,20.448 L914.125,16.756 C907.025,28.187 900.138,38.624 890.695,49.487 L891.405,52.54 C897.014,52.043 903.049,51.759 909.084,51.617 C908.942,56.516 908.729,61.06 908.516,64.255 Z M901.274,43.736 C904.114,40.044 906.599,36.423 909.155,32.873 L909.155,43.026 L909.155,43.736 C906.67,43.736 904.043,43.736 901.274,43.736 Z" id="Shape"></path>
            <path d="M936.135,39.405 C933.082,41.038 930.81,43.381 929.39,46.15 C930.81,48.919 933.082,51.262 936.135,52.895 C939.188,51.262 941.46,48.919 942.88,46.15 C941.46,43.381 939.188,41.038 936.135,39.405 Z" id="Path"></path>
            <path d="M998.615,44.872 C998.26,41.322 998.26,38.695 998.26,35.855 L998.26,25.915 C998.26,11.573 998.26,6.035 999.325,2.13 L997.195,2.84217094e-14 C994,1.846 989.385,3.763 984.77,4.615 L984.77,7.668 L987.255,8.733 C987.539,11.005 987.61,14.484 987.61,20.661 C986.19,20.377 984.912,20.235 983.563,20.235 C973.41,20.235 965.6,26.767 965.6,37.488 C965.6,45.724 970.215,52.185 978.38,52.185 C982.143,51.049 985.054,49.416 987.61,46.505 L988.32,47.215 C988.32,49.345 988.107,50.055 987.61,51.475 L989.74,53.605 C992.935,51.759 996.84,49.842 1001.1,48.99 L1001.1,45.937 L998.615,44.872 Z M977.315,34.861 C977.315,28.258 979.8,24.85 982.924,24.85 C985.196,24.85 987.61,26.696 987.61,32.092 L987.61,41.535 C986.687,43.168 984.628,44.375 982.711,44.375 C979.658,44.375 977.315,41.322 977.315,34.861 Z" id="Shape"></path>
            <path d="M1022.542,64.255 L1033.476,64.255 C1033.263,61.06 1033.192,56.445 1033.121,51.546 L1038.162,51.617 L1040.008,42.387 C1037.594,42.813 1035.322,43.097 1033.121,43.239 L1033.121,43.026 C1033.121,39.476 1033.121,22.365 1033.476,20.448 L1028.151,16.756 C1021.051,28.187 1014.164,38.624 1004.721,49.487 L1005.431,52.54 C1011.04,52.043 1017.075,51.759 1023.11,51.617 C1022.968,56.516 1022.755,61.06 1022.542,64.255 Z M1015.3,43.736 C1018.14,40.044 1020.625,36.423 1023.181,32.873 L1023.181,43.026 L1023.181,43.736 C1020.696,43.736 1018.069,43.736 1015.3,43.736 Z" id="Shape"></path>
            <path d="M1104.831,6.745 C1101.636,6.745 1099.506,6.603 1095.956,6.39 L1095.246,9.585 L1101.281,12.07 C1101.991,16.614 1101.991,21.584 1101.991,29.11 L1101.991,33.654 C1092.477,25.489 1082.963,15.62 1073.449,6.745 L1070.609,6.745 C1068.124,6.745 1065.781,6.745 1063.296,6.532 L1062.586,9.585 C1066.136,11.715 1066.491,14.058 1066.491,19.738 L1066.491,29.11 C1066.491,36.636 1066.136,41.606 1065.852,43.31 C1065.426,46.008 1064.716,47.996 1062.586,48.635 L1062.586,51.688 C1064.716,51.546 1066.491,51.475 1069.331,51.475 C1072.526,51.475 1074.656,51.617 1078.206,51.83 L1078.916,48.635 L1072.881,46.15 C1072.171,41.606 1072.171,36.636 1072.171,29.11 L1072.171,22.01 C1082.608,31.595 1094.323,42.955 1104.76,51.83 L1108.168,51.475 C1107.671,41.819 1107.671,37.985 1107.671,29.11 C1107.671,21.584 1108.026,16.614 1108.31,14.91 C1108.736,12.212 1109.446,10.224 1111.576,9.585 L1111.576,6.532 C1109.446,6.674 1107.671,6.745 1104.831,6.745 Z" id="Path"></path>
            <path d="M1120.309,18.531 L1120.309,21.726 C1118.889,22.436 1117.824,22.862 1116.404,23.217 L1116.404,26.27 L1120.309,26.27 C1120.309,36.707 1120.167,43.31 1119.812,45.085 C1119.528,46.505 1118.889,47.925 1117.114,48.635 L1117.114,51.688 C1119.954,51.546 1122.439,51.475 1125.634,51.475 C1128.829,51.475 1130.959,51.546 1134.864,51.83 L1135.574,48.635 L1131.314,47.57 C1130.959,43.381 1130.959,36.707 1130.959,26.27 L1140.544,26.27 L1141.609,20.945 L1130.959,20.945 L1130.959,18.46 C1130.959,11.076 1133.16,4.26 1138.201,4.26 C1141.396,4.26 1142.461,7.455 1142.461,11.715 C1146.934,11.715 1150.271,10.295 1150.271,6.39 C1150.271,2.13 1146.224,2.84217094e-14 1139.834,2.84217094e-14 C1127.054,2.84217094e-14 1120.309,8.165 1120.309,18.531 Z" id="Path"></path>
            <path d="M1162.838,26.625 C1160.495,27.193 1158.081,28.258 1156.093,29.891 L1156.945,32.944 C1158.294,32.447 1159.217,32.234 1160.14,32.234 C1162.98,32.234 1164.826,34.719 1164.826,39.263 C1164.826,45.014 1162.554,47.712 1159.998,47.712 C1156.803,47.712 1154.176,43.381 1154.176,34.364 C1154.176,20.874 1160.069,12.993 1172.281,8.378 L1171.429,5.325 C1151.336,10.082 1142.816,23.004 1142.816,34.577 C1142.816,43.807 1148.212,52.185 1159.146,52.185 C1168.163,52.185 1175.121,46.505 1175.121,38.056 C1175.121,31.027 1170.293,26.625 1162.838,26.625 Z" id="Path"></path>
            <path d="M1204.586,20.945 L1199.048,43.381 C1209.627,44.091 1215.094,47.073 1215.094,52.114 C1215.094,56.374 1211.686,61.699 1197.486,64.042 L1198.338,67.095 C1215.449,65.746 1226.099,60.421 1226.099,49.061 C1226.099,39.973 1219.212,34.861 1206.29,34.08 L1207.355,30.175 C1212.68,29.678 1219.212,29.465 1225.247,29.465 L1227.874,18.815 C1221.413,20.235 1211.047,20.661 1204.586,20.945 Z" id="Path"></path>
            <path d="M1239.021,39.405 C1235.968,41.038 1233.696,43.381 1232.276,46.15 C1233.696,48.919 1235.968,51.262 1239.021,52.895 C1242.074,51.262 1244.346,48.919 1245.766,46.15 C1244.346,43.381 1242.074,41.038 1239.021,39.405 Z" id="Path"></path>
            <path d="M1293.336,52.185 C1307.039,52.185 1318.541,42.884 1318.541,28.613 C1318.541,15.478 1308.814,6.035 1295.466,6.035 C1281.763,6.035 1270.261,15.336 1270.261,29.607 C1270.261,42.742 1279.988,52.185 1293.336,52.185 Z M1282.686,26.909 C1282.686,15.691 1288.011,11.005 1293.691,11.005 C1300.791,11.005 1306.116,19.312 1306.116,31.311 C1306.116,42.529 1300.791,47.215 1295.111,47.215 C1288.011,47.215 1282.686,38.908 1282.686,26.909 Z" id="Shape"></path>
            <path d="M1325.641,32.518 L1326.28,39.547 C1333.522,38.695 1342.752,37.914 1349.994,37.488 L1349.355,30.459 C1342.113,31.311 1332.883,32.092 1325.641,32.518 Z" id="Path"></path>
            <path d="M1380.169,52.185 C1393.872,52.185 1405.374,42.884 1405.374,28.613 C1405.374,15.478 1395.647,6.035 1382.299,6.035 C1368.596,6.035 1357.094,15.336 1357.094,29.607 C1357.094,42.742 1366.821,52.185 1380.169,52.185 Z M1369.519,26.909 C1369.519,15.691 1374.844,11.005 1380.524,11.005 C1387.624,11.005 1392.949,19.312 1392.949,31.311 C1392.949,42.529 1387.624,47.215 1381.944,47.215 C1374.844,47.215 1369.519,38.908 1369.519,26.909 Z" id="Shape"></path>
            <path d="M1449.11,44.02 C1444.495,44.02 1441.229,41.89 1441.229,34.009 C1441.229,27.69 1443.359,24.85 1445.773,24.85 C1448.684,24.85 1449.82,28.045 1449.82,31.95 C1454.435,31.95 1457.63,30.459 1457.63,26.767 C1457.63,22.649 1453.725,20.235 1447.548,20.235 C1437.679,20.235 1429.869,26.554 1429.869,36.92 C1429.869,44.659 1433.987,51.83 1445.844,52.185 C1451.24,51.049 1454.435,48.564 1457.63,45.227 L1456.21,42.174 C1453.441,43.594 1451.595,44.02 1449.11,44.02 Z" id="Path"></path>
            <path d="M1494.976,44.872 C1494.621,41.322 1494.621,38.695 1494.621,35.855 L1494.621,25.915 C1494.621,11.573 1494.621,6.035 1495.686,2.13 L1493.556,2.84217094e-14 C1490.361,1.846 1485.746,3.763 1481.131,4.615 L1481.131,7.668 L1483.616,8.733 C1483.9,11.005 1483.971,14.484 1483.971,20.661 C1482.551,20.377 1481.273,20.235 1479.924,20.235 C1469.771,20.235 1461.961,26.767 1461.961,37.488 C1461.961,45.724 1466.576,52.185 1474.741,52.185 C1478.504,51.049 1481.415,49.416 1483.971,46.505 L1484.681,47.215 C1484.681,49.345 1484.468,50.055 1483.971,51.475 L1486.101,53.605 C1489.296,51.759 1493.201,49.842 1497.461,48.99 L1497.461,45.937 L1494.976,44.872 Z M1473.676,34.861 C1473.676,28.258 1476.161,24.85 1479.285,24.85 C1481.557,24.85 1483.971,26.696 1483.971,32.092 L1483.971,41.535 C1483.048,43.168 1480.989,44.375 1479.072,44.375 C1476.019,44.375 1473.676,41.322 1473.676,34.861 Z" id="Shape"></path>
            <path d="M1518.903,64.255 L1529.837,64.255 C1529.624,61.06 1529.553,56.445 1529.482,51.546 L1534.523,51.617 L1536.369,42.387 C1533.955,42.813 1531.683,43.097 1529.482,43.239 L1529.482,43.026 C1529.482,39.476 1529.482,22.365 1529.837,20.448 L1524.512,16.756 C1517.412,28.187 1510.525,38.624 1501.082,49.487 L1501.792,52.54 C1507.401,52.043 1513.436,51.759 1519.471,51.617 C1519.329,56.516 1519.116,61.06 1518.903,64.255 Z M1511.661,43.736 C1514.501,40.044 1516.986,36.423 1519.542,32.873 L1519.542,43.026 L1519.542,43.736 C1517.057,43.736 1514.43,43.736 1511.661,43.736 Z" id="Shape"></path>
            <path d="M1577.904,26.625 C1575.561,27.193 1573.147,28.258 1571.159,29.891 L1572.011,32.944 C1573.36,32.447 1574.283,32.234 1575.206,32.234 C1578.046,32.234 1579.892,34.719 1579.892,39.263 C1579.892,45.014 1577.62,47.712 1575.064,47.712 C1571.869,47.712 1569.242,43.381 1569.242,34.364 C1569.242,20.874 1575.135,12.993 1587.347,8.378 L1586.495,5.325 C1566.402,10.082 1557.882,23.004 1557.882,34.577 C1557.882,43.807 1563.278,52.185 1574.212,52.185 C1583.229,52.185 1590.187,46.505 1590.187,38.056 C1590.187,31.027 1585.359,26.625 1577.904,26.625 Z" id="Path"></path>
            <path d="M78.9165,156.355 C89.4245,156.355 96.5245,154.012 105.1155,149.042 L103.6955,145.634 C95.6725,149.184 90.1345,149.965 82.2535,149.965 C71.6035,149.965 62.1605,147.054 49.8065,135.907 C59.3915,132.854 66.4205,124.76 66.4205,113.613 C66.4205,100.478 56.6935,91.035 43.3455,91.035 C29.6425,91.035 18.1405,100.336 18.1405,114.607 C18.1405,126.038 25.4535,134.629 36.1745,136.688 C50.6585,150.746 62.7285,156.355 78.9165,156.355 Z M30.5655,111.909 C30.5655,100.691 35.8905,96.005 41.5705,96.005 C48.6705,96.005 53.9955,104.312 53.9955,116.311 C53.9955,127.529 48.6705,132.215 42.9905,132.215 C35.8905,132.215 30.5655,123.908 30.5655,111.909 Z" id="Shape"></path>
            <path d="M105.8255,129.872 C105.4705,126.322 105.4705,123.695 105.4705,120.855 L105.4705,110.915 C105.4705,96.573 105.4705,91.035 106.5355,87.13 L104.4055,85 C101.2105,86.846 96.5955,88.763 91.9805,89.615 L91.9805,92.668 L94.4655,93.733 C94.7495,96.005 94.8205,99.484 94.8205,105.661 C93.4005,105.377 92.1225,105.235 90.7735,105.235 C80.6205,105.235 72.8105,111.767 72.8105,122.488 C72.8105,130.724 77.4255,137.185 85.5905,137.185 C89.3535,136.049 92.2645,134.416 94.8205,131.505 L95.5305,132.215 C95.5305,134.345 95.3175,135.055 94.8205,136.475 L96.9505,138.605 C100.1455,136.759 104.0505,134.842 108.3105,133.99 L108.3105,130.937 L105.8255,129.872 Z M84.5255,119.861 C84.5255,113.258 87.0105,109.85 90.1345,109.85 C92.4065,109.85 94.8205,111.696 94.8205,117.092 L94.8205,126.535 C93.8975,128.168 91.8385,129.375 89.9215,129.375 C86.8685,129.375 84.5255,126.322 84.5255,119.861 Z" id="Shape"></path>
            <path d="M129.7525,149.255 L140.6865,149.255 C140.4735,146.06 140.4025,141.445 140.3315,136.546 L145.3725,136.617 L147.2185,127.387 C144.8045,127.813 142.5325,128.097 140.3315,128.239 L140.3315,128.026 C140.3315,124.476 140.3315,107.365 140.6865,105.448 L135.3615,101.756 C128.2615,113.187 121.3745,123.624 111.9315,134.487 L112.6415,137.54 C118.2505,137.043 124.2855,136.759 130.3205,136.617 C130.1785,141.516 129.9655,146.06 129.7525,149.255 Z M122.5105,128.736 C125.3505,125.044 127.8355,121.423 130.3915,117.873 L130.3915,128.026 L130.3915,128.736 C127.9065,128.736 125.2795,128.736 122.5105,128.736 Z" id="Shape"></path>
            <path d="M192.2325,137.185 C195.8535,136.617 198.9065,134.842 201.3205,132.215 L199.9005,129.162 C199.1905,129.588 198.2675,130.085 197.3445,130.085 C196.1375,130.085 195.0725,129.304 195.0725,127.103 C195.0725,124.192 196.4925,118.512 196.4925,114.323 C196.4925,107.862 191.5935,105.235 183.0735,105.235 C174.9795,106.939 169.4415,109.282 169.4415,114.11 C169.4415,117.66 172.3525,119.151 176.6125,118.441 C176.6125,113.045 178.4585,109.85 181.6535,109.85 C184.5645,109.85 185.1325,112.051 185.1325,115.601 L185.0615,118.512 C171.3585,120.429 168.3765,125.683 168.3765,129.73 C168.3765,134.558 172.4945,136.759 176.5415,137.185 C180.0915,136.475 182.8605,135.055 185.4875,133.28 C186.6945,135.552 189.0375,136.83 192.2325,137.185 Z M179.0265,127.387 C179.0265,125.328 180.3755,123.198 184.9195,121.849 C184.8485,124.263 184.7775,126.89 184.7775,129.02 C183.6415,129.659 182.7185,130.085 181.6535,130.085 C179.9495,130.085 179.0265,128.736 179.0265,127.387 Z" id="Shape"></path>
            <path d="M223.8275,111.625 C221.4845,112.193 219.0705,113.258 217.0825,114.891 L217.9345,117.944 C219.2835,117.447 220.2065,117.234 221.1295,117.234 C223.9695,117.234 225.8155,119.719 225.8155,124.263 C225.8155,130.014 223.5435,132.712 220.9875,132.712 C217.7925,132.712 215.1655,128.381 215.1655,119.364 C215.1655,105.874 221.0585,97.993 233.2705,93.378 L232.4185,90.325 C212.3255,95.082 203.8055,108.004 203.8055,119.577 C203.8055,128.807 209.2015,137.185 220.1355,137.185 C229.1525,137.185 236.1105,131.505 236.1105,123.056 C236.1105,116.027 231.2825,111.625 223.8275,111.625 Z" id="Path"></path>
            <path d="M287.7275,108.501 L287.0175,105.306 C282.4025,105.874 281.3375,105.945 272.1075,105.945 C269.1255,105.945 266.2855,105.945 260.2505,105.732 L257.7655,117.305 C261.4575,115.885 266.2855,115.175 272.7465,115.175 L280.0595,115.175 C273.8115,128.31 268.3445,133.99 263.5165,147.125 L275.3025,150.675 C276.7935,134.274 280.4855,123.979 287.7275,108.501 Z" id="Path"></path>
            <path d="M294.3305,124.405 C291.2775,126.038 289.0055,128.381 287.5855,131.15 C289.0055,133.919 291.2775,136.262 294.3305,137.895 C297.3835,136.262 299.6555,133.919 301.0755,131.15 C299.6555,128.381 297.3835,126.038 294.3305,124.405 Z" id="Path"></path>
            <path d="M355.7455,111.625 C360.1475,109.85 362.0645,106.016 362.0645,101.898 C362.0645,95.721 356.5975,91.035 347.8645,91.035 C341.4035,91.035 339.6285,91.745 334.3035,91.745 C331.2505,91.745 328.7655,91.674 325.5705,91.532 L324.8605,94.585 L328.4105,96.36 C328.7655,101.046 328.7655,104.596 328.7655,114.11 C328.7655,123.269 328.4815,126.819 328.1265,129.02 C327.8425,130.795 327.1325,132.925 324.8605,133.635 L324.8605,136.688 C328.4105,136.546 330.6115,136.475 333.3095,136.475 C340.6225,136.475 341.1195,136.83 345.1665,136.83 C358.1595,136.83 365.2595,130.653 365.2595,122.772 C365.2595,117.66 362.1355,112.974 355.7455,111.625 Z M339.7705,115.53 L344.9535,115.53 C350.1365,115.53 352.8345,118.938 352.8345,123.837 C352.8345,127.529 350.9885,131.86 345.0245,131.86 C343.6045,131.86 341.9005,131.647 340.1255,131.079 C339.7705,127.032 339.7705,123.624 339.7705,115.53 Z M339.7705,110.56 C339.8415,103.673 340.1255,100.833 340.4095,99.271 C340.9065,96.857 342.0425,96.005 344.1725,96.005 C348.9295,96.005 350.7045,99.2 350.7045,102.75 C350.7045,106.087 349.1425,110.56 344.4565,110.56 L339.7705,110.56 Z" id="Shape"></path>
            <path d="M404.3805,129.872 C404.0255,126.322 404.0255,123.695 404.0255,120.855 L404.0255,110.915 C404.0255,96.573 404.0255,91.035 405.0905,87.13 L402.9605,85 C399.7655,86.846 395.1505,88.763 390.5355,89.615 L390.5355,92.668 L393.0205,93.733 C393.3045,96.005 393.3755,99.484 393.3755,105.661 C391.9555,105.377 390.6775,105.235 389.3285,105.235 C379.1755,105.235 371.3655,111.767 371.3655,122.488 C371.3655,130.724 375.9805,137.185 384.1455,137.185 C387.9085,136.049 390.8195,134.416 393.3755,131.505 L394.0855,132.215 C394.0855,134.345 393.8725,135.055 393.3755,136.475 L395.5055,138.605 C398.7005,136.759 402.6055,134.842 406.8655,133.99 L406.8655,130.937 L404.3805,129.872 Z M383.0805,119.861 C383.0805,113.258 385.5655,109.85 388.6895,109.85 C390.9615,109.85 393.3755,111.696 393.3755,117.092 L393.3755,126.535 C392.4525,128.168 390.3935,129.375 388.4765,129.375 C385.4235,129.375 383.0805,126.322 383.0805,119.861 Z" id="Shape"></path>
            <path d="M440.0935,108.501 L439.3835,105.306 C434.7685,105.874 433.7035,105.945 424.4735,105.945 C421.4915,105.945 418.6515,105.945 412.6165,105.732 L410.1315,117.305 C413.8235,115.885 418.6515,115.175 425.1125,115.175 L432.4255,115.175 C426.1775,128.31 420.7105,133.99 415.8825,147.125 L427.6685,150.675 C429.1595,134.274 432.8515,123.979 440.0935,108.501 Z" id="Path"></path>
            <path d="M493.5565,111.625 C497.9585,109.85 499.8755,106.016 499.8755,101.898 C499.8755,95.721 494.4085,91.035 485.6755,91.035 C479.2145,91.035 477.4395,91.745 472.1145,91.745 C469.0615,91.745 466.5765,91.674 463.3815,91.532 L462.6715,94.585 L466.2215,96.36 C466.5765,101.046 466.5765,104.596 466.5765,114.11 C466.5765,123.269 466.2925,126.819 465.9375,129.02 C465.6535,130.795 464.9435,132.925 462.6715,133.635 L462.6715,136.688 C466.2215,136.546 468.4225,136.475 471.1205,136.475 C478.4335,136.475 478.9305,136.83 482.9775,136.83 C495.9705,136.83 503.0705,130.653 503.0705,122.772 C503.0705,117.66 499.9465,112.974 493.5565,111.625 Z M477.5815,115.53 L482.7645,115.53 C487.9475,115.53 490.6455,118.938 490.6455,123.837 C490.6455,127.529 488.7995,131.86 482.8355,131.86 C481.4155,131.86 479.7115,131.647 477.9365,131.079 C477.5815,127.032 477.5815,123.624 477.5815,115.53 Z M477.5815,110.56 C477.6525,103.673 477.9365,100.833 478.2205,99.271 C478.7175,96.857 479.8535,96.005 481.9835,96.005 C486.7405,96.005 488.5155,99.2 488.5155,102.75 C488.5155,106.087 486.9535,110.56 482.2675,110.56 L477.5815,110.56 Z" id="Shape"></path>
            <path d="M542.1915,129.872 C541.8365,126.322 541.8365,123.695 541.8365,120.855 L541.8365,110.915 C541.8365,96.573 541.8365,91.035 542.9015,87.13 L540.7715,85 C537.5765,86.846 532.9615,88.763 528.3465,89.615 L528.3465,92.668 L530.8315,93.733 C531.1155,96.005 531.1865,99.484 531.1865,105.661 C529.7665,105.377 528.4885,105.235 527.1395,105.235 C516.9865,105.235 509.1765,111.767 509.1765,122.488 C509.1765,130.724 513.7915,137.185 521.9565,137.185 C525.7195,136.049 528.6305,134.416 531.1865,131.505 L531.8965,132.215 C531.8965,134.345 531.6835,135.055 531.1865,136.475 L533.3165,138.605 C536.5115,136.759 540.4165,134.842 544.6765,133.99 L544.6765,130.937 L542.1915,129.872 Z M520.8915,119.861 C520.8915,113.258 523.3765,109.85 526.5005,109.85 C528.7725,109.85 531.1865,111.696 531.1865,117.092 L531.1865,126.535 C530.2635,128.168 528.2045,129.375 526.2875,129.375 C523.2345,129.375 520.8915,126.322 520.8915,119.861 Z" id="Shape"></path>
            <path d="M577.9045,108.501 L577.1945,105.306 C572.5795,105.874 571.5145,105.945 562.2845,105.945 C559.3025,105.945 556.4625,105.945 550.4275,105.732 L547.9425,117.305 C551.6345,115.885 556.4625,115.175 562.9235,115.175 L570.2365,115.175 C563.9885,128.31 558.5215,133.99 553.6935,147.125 L565.4795,150.675 C566.9705,134.274 570.6625,123.979 577.9045,108.501 Z" id="Path"></path>
            <path d="M615.3215,92.455 C606.0915,92.455 599.7015,97.425 599.7015,105.59 C599.7015,111.767 603.3935,115.246 607.5825,117.802 C601.9025,119.648 599.7725,123.695 599.7725,127.458 C599.7725,133.493 605.3815,137.185 613.8305,137.185 C623.4155,137.185 629.8055,132.428 629.8055,125.044 C629.8055,119.151 625.7585,116.24 621.3565,113.826 C626.3975,111.909 629.5215,108.572 629.5215,103.46 C629.5215,96.644 623.7705,92.455 615.3215,92.455 Z M609.3575,126.322 C609.3575,124.334 609.9965,121.92 611.7715,120.145 C616.1025,122.346 619.8655,124.263 619.8655,127.884 C619.8655,130.582 617.7355,132.712 614.8245,132.712 C611.6295,132.712 609.3575,130.085 609.3575,126.322 Z M609.9965,103.176 C609.9965,99.981 612.0555,97.425 614.6825,97.425 C617.0965,97.425 619.2265,99.484 619.2265,104.809 C619.2265,106.939 618.8715,109.211 617.1675,111.625 C613.2625,109.566 609.9965,107.365 609.9965,103.176 Z" id="Shape"></path>
            <path d="M641.4495,124.405 C638.3965,126.038 636.1245,128.381 634.7045,131.15 C636.1245,133.919 638.3965,136.262 641.4495,137.895 C644.5025,136.262 646.7745,133.919 648.1945,131.15 C646.7745,128.381 644.5025,126.038 641.4495,124.405 Z" id="Path"></path>
            <path d="M702.8645,111.625 C707.2665,109.85 709.1835,106.016 709.1835,101.898 C709.1835,95.721 703.7165,91.035 694.9835,91.035 C688.5225,91.035 686.7475,91.745 681.4225,91.745 C678.3695,91.745 675.8845,91.674 672.6895,91.532 L671.9795,94.585 L675.5295,96.36 C675.8845,101.046 675.8845,104.596 675.8845,114.11 C675.8845,123.269 675.6005,126.819 675.2455,129.02 C674.9615,130.795 674.2515,132.925 671.9795,133.635 L671.9795,136.688 C675.5295,136.546 677.7305,136.475 680.4285,136.475 C687.7415,136.475 688.2385,136.83 692.2855,136.83 C705.2785,136.83 712.3785,130.653 712.3785,122.772 C712.3785,117.66 709.2545,112.974 702.8645,111.625 Z M686.8895,115.53 L692.0725,115.53 C697.2555,115.53 699.9535,118.938 699.9535,123.837 C699.9535,127.529 698.1075,131.86 692.1435,131.86 C690.7235,131.86 689.0195,131.647 687.2445,131.079 C686.8895,127.032 686.8895,123.624 686.8895,115.53 Z M686.8895,110.56 C686.9605,103.673 687.2445,100.833 687.5285,99.271 C688.0255,96.857 689.1615,96.005 691.2915,96.005 C696.0485,96.005 697.8235,99.2 697.8235,102.75 C697.8235,106.087 696.2615,110.56 691.5755,110.56 L686.8895,110.56 Z" id="Shape"></path>
            <path d="M735.5245,105.164 C726.0105,105.164 719.9045,110.489 719.9045,117.234 C719.9045,120.784 721.3955,123.766 724.5195,125.541 C722.6025,127.6 721.0405,129.943 719.9045,132.215 C719.6915,136.049 720.8985,138.747 723.0285,140.38 C721.1115,142.084 719.5495,143.93 718.4845,145.705 C718.1295,152.45 723.8805,154.935 731.4065,154.935 C743.1215,154.935 752.9195,148.9 752.9195,139.954 C752.9195,134.345 749.0145,131.15 740.4945,131.15 L731.2645,131.15 C729.4895,131.15 727.8565,130.369 727.8565,128.594 C727.8565,127.955 727.9275,127.458 728.1405,126.961 C729.7025,127.316 731.4065,127.529 733.3945,127.529 C742.9085,127.529 749.0145,122.204 749.0145,115.459 C749.0145,112.832 748.2335,110.56 746.5295,108.856 C751.2155,107.862 752.9195,105.732 752.9195,103.389 C752.9195,99.839 750.4345,98.419 745.4645,98.419 C745.4645,101.685 744.5415,105.235 741.0625,105.803 C739.4295,105.377 737.5835,105.164 735.5245,105.164 Z M728.0695,145.208 C728.0695,143.788 728.4245,142.794 729.0635,141.8 L738.0095,141.8 C740.7785,141.8 742.2695,143.007 742.2695,144.853 C742.2695,147.551 739.1455,150.32 734.0335,150.32 C729.6315,150.32 728.0695,148.261 728.0695,145.208 Z M730.5545,115.459 C730.5545,111.696 731.9745,109.424 734.1045,109.424 C736.6605,109.424 738.3645,112.264 738.3645,117.234 C738.3645,121.707 736.9445,123.979 734.8145,123.979 C732.2585,123.979 730.5545,121.139 730.5545,115.459 Z" id="Shape"></path>
            <path d="M762.5045,105.945 L756.9665,128.381 C767.5455,129.091 773.0125,132.073 773.0125,137.114 C773.0125,141.374 769.6045,146.699 755.4045,149.042 L756.2565,152.095 C773.3675,150.746 784.0175,145.421 784.0175,134.061 C784.0175,124.973 777.1305,119.861 764.2085,119.08 L765.2735,115.175 C770.5985,114.678 777.1305,114.465 783.1655,114.465 L785.7925,103.815 C779.3315,105.235 768.9655,105.661 762.5045,105.945 Z" id="Path"></path>
            <path d="M831.7295,117.66 L831.7295,122.275 C831.7295,125.825 831.5875,128.31 831.2325,130.085 C830.9485,131.505 830.3095,132.925 828.5345,133.635 L828.5345,136.688 C831.3745,136.546 833.8595,136.475 837.0545,136.475 C840.2495,136.475 842.3795,136.546 845.2195,136.83 L845.9295,133.635 L842.7345,132.57 C842.3795,128.31 842.3795,125.825 842.3795,122.275 L842.3795,113.755 C842.3795,108.43 839.8945,105.59 834.1435,105.235 C829.5995,106.3 825.5525,108.856 822.1445,111.98 L822.1445,110.915 C822.1445,96.573 822.1445,91.035 823.2095,87.13 L821.0795,85 C817.8845,86.846 813.2695,88.763 808.6545,89.615 L808.6545,92.668 L811.1395,93.733 C811.4945,96.573 811.4945,101.33 811.4945,110.915 C811.4945,121.565 811.3525,128.31 810.9975,130.085 C810.7135,131.505 810.0745,132.925 808.2995,133.635 L808.2995,136.688 C811.1395,136.546 813.6245,136.475 816.8195,136.475 C820.0145,136.475 822.1445,136.546 824.6295,136.83 L825.3395,133.635 L822.4995,132.57 C822.2155,129.162 822.1445,124.121 822.1445,116.808 C823.9195,115.175 826.1205,114.11 828.2505,114.11 C830.3095,114.11 831.7295,115.033 831.7295,117.66 Z" id="Path"></path>
            <path d="M870.2115,111.625 C867.8685,112.193 865.4545,113.258 863.4665,114.891 L864.3185,117.944 C865.6675,117.447 866.5905,117.234 867.5135,117.234 C870.3535,117.234 872.1995,119.719 872.1995,124.263 C872.1995,130.014 869.9275,132.712 867.3715,132.712 C864.1765,132.712 861.5495,128.381 861.5495,119.364 C861.5495,105.874 867.4425,97.993 879.6545,93.378 L878.8025,90.325 C858.7095,95.082 850.1895,108.004 850.1895,119.577 C850.1895,128.807 855.5855,137.185 866.5195,137.185 C875.5365,137.185 882.4945,131.505 882.4945,123.056 C882.4945,116.027 877.6665,111.625 870.2115,111.625 Z" id="Path"></path>
            <path d="M917.4975,130.795 C919.8405,130.227 922.2545,129.162 924.2425,127.529 L923.3905,124.476 C922.0415,124.973 921.1185,125.186 920.1955,125.186 C917.3555,125.186 915.5095,122.701 915.5095,118.157 C915.5095,112.406 917.7815,109.708 920.3375,109.708 C923.5325,109.708 926.1595,114.039 926.1595,123.056 C926.1595,136.546 920.2665,144.427 908.0545,149.042 L908.9065,152.095 C928.9995,147.338 937.5195,134.416 937.5195,122.843 C937.5195,113.613 932.1235,105.235 921.1895,105.235 C912.1725,105.235 905.2145,110.915 905.2145,119.364 C905.2145,126.393 910.0425,130.795 917.4975,130.795 Z" id="Path"></path>
            <path d="M948.8795,124.405 C945.8265,126.038 943.5545,128.381 942.1345,131.15 C943.5545,133.919 945.8265,136.262 948.8795,137.895 C951.9325,136.262 954.2045,133.919 955.6245,131.15 C954.2045,128.381 951.9325,126.038 948.8795,124.405 Z" id="Path"></path>
            <path d="M1010.2945,111.625 C1014.6965,109.85 1016.6135,106.016 1016.6135,101.898 C1016.6135,95.721 1011.1465,91.035 1002.4135,91.035 C995.9525,91.035 994.1775,91.745 988.8525,91.745 C985.7995,91.745 983.3145,91.674 980.1195,91.532 L979.4095,94.585 L982.9595,96.36 C983.3145,101.046 983.3145,104.596 983.3145,114.11 C983.3145,123.269 983.0305,126.819 982.6755,129.02 C982.3915,130.795 981.6815,132.925 979.4095,133.635 L979.4095,136.688 C982.9595,136.546 985.1605,136.475 987.8585,136.475 C995.1715,136.475 995.6685,136.83 999.7155,136.83 C1012.7085,136.83 1019.8085,130.653 1019.8085,122.772 C1019.8085,117.66 1016.6845,112.974 1010.2945,111.625 Z M994.3195,115.53 L999.5025,115.53 C1004.6855,115.53 1007.3835,118.938 1007.3835,123.837 C1007.3835,127.529 1005.5375,131.86 999.5735,131.86 C998.1535,131.86 996.4495,131.647 994.6745,131.079 C994.3195,127.032 994.3195,123.624 994.3195,115.53 Z M994.3195,110.56 C994.3905,103.673 994.6745,100.833 994.9585,99.271 C995.4555,96.857 996.5915,96.005 998.7215,96.005 C1003.4785,96.005 1005.2535,99.2 1005.2535,102.75 C1005.2535,106.087 1003.6915,110.56 999.0055,110.56 L994.3195,110.56 Z" id="Shape"></path>
            <path d="M1030.1745,103.531 L1030.1745,106.726 C1028.7545,107.436 1027.6895,107.862 1026.2695,108.217 L1026.2695,111.27 L1030.1745,111.27 C1030.1745,121.707 1030.0325,128.31 1029.6775,130.085 C1029.3935,131.505 1028.7545,132.925 1026.9795,133.635 L1026.9795,136.688 C1029.8195,136.546 1032.3045,136.475 1035.4995,136.475 C1038.6945,136.475 1040.8245,136.546 1044.7295,136.83 L1045.4395,133.635 L1041.1795,132.57 C1040.8245,128.381 1040.8245,121.707 1040.8245,111.27 L1050.4095,111.27 L1051.4745,105.945 L1040.8245,105.945 L1040.8245,103.46 C1040.8245,96.076 1043.0255,89.26 1048.0665,89.26 C1051.2615,89.26 1052.3265,92.455 1052.3265,96.715 C1056.7995,96.715 1060.1365,95.295 1060.1365,91.39 C1060.1365,87.13 1056.0895,85 1049.6995,85 C1036.9195,85 1030.1745,93.165 1030.1745,103.531 Z" id="Path"></path>
            <path d="M1072.7035,111.625 C1070.3605,112.193 1067.9465,113.258 1065.9585,114.891 L1066.8105,117.944 C1068.1595,117.447 1069.0825,117.234 1070.0055,117.234 C1072.8455,117.234 1074.6915,119.719 1074.6915,124.263 C1074.6915,130.014 1072.4195,132.712 1069.8635,132.712 C1066.6685,132.712 1064.0415,128.381 1064.0415,119.364 C1064.0415,105.874 1069.9345,97.993 1082.1465,93.378 L1081.2945,90.325 C1061.2015,95.082 1052.6815,108.004 1052.6815,119.577 C1052.6815,128.807 1058.0775,137.185 1069.0115,137.185 C1078.0285,137.185 1084.9865,131.505 1084.9865,123.056 C1084.9865,116.027 1080.1585,111.625 1072.7035,111.625 Z" id="Path"></path>
            <path d="M1124.7465,105.164 C1115.2325,105.164 1109.1265,110.489 1109.1265,117.234 C1109.1265,120.784 1110.6175,123.766 1113.7415,125.541 C1111.8245,127.6 1110.2625,129.943 1109.1265,132.215 C1108.9135,136.049 1110.1205,138.747 1112.2505,140.38 C1110.3335,142.084 1108.7715,143.93 1107.7065,145.705 C1107.3515,152.45 1113.1025,154.935 1120.6285,154.935 C1132.3435,154.935 1142.1415,148.9 1142.1415,139.954 C1142.1415,134.345 1138.2365,131.15 1129.7165,131.15 L1120.4865,131.15 C1118.7115,131.15 1117.0785,130.369 1117.0785,128.594 C1117.0785,127.955 1117.1495,127.458 1117.3625,126.961 C1118.9245,127.316 1120.6285,127.529 1122.6165,127.529 C1132.1305,127.529 1138.2365,122.204 1138.2365,115.459 C1138.2365,112.832 1137.4555,110.56 1135.7515,108.856 C1140.4375,107.862 1142.1415,105.732 1142.1415,103.389 C1142.1415,99.839 1139.6565,98.419 1134.6865,98.419 C1134.6865,101.685 1133.7635,105.235 1130.2845,105.803 C1128.6515,105.377 1126.8055,105.164 1124.7465,105.164 Z M1117.2915,145.208 C1117.2915,143.788 1117.6465,142.794 1118.2855,141.8 L1127.2315,141.8 C1130.0005,141.8 1131.4915,143.007 1131.4915,144.853 C1131.4915,147.551 1128.3675,150.32 1123.2555,150.32 C1118.8535,150.32 1117.2915,148.261 1117.2915,145.208 Z M1119.7765,115.459 C1119.7765,111.696 1121.1965,109.424 1123.3265,109.424 C1125.8825,109.424 1127.5865,112.264 1127.5865,117.234 C1127.5865,121.707 1126.1665,123.979 1124.0365,123.979 C1121.4805,123.979 1119.7765,121.139 1119.7765,115.459 Z" id="Shape"></path>
            <path d="M1149.2415,103.531 L1149.2415,106.726 C1147.8215,107.436 1146.7565,107.862 1145.3365,108.217 L1145.3365,111.27 L1149.2415,111.27 C1149.2415,121.707 1149.0995,128.31 1148.7445,130.085 C1148.4605,131.505 1147.8215,132.925 1146.0465,133.635 L1146.0465,136.688 C1148.8865,136.546 1151.3715,136.475 1154.5665,136.475 C1157.7615,136.475 1159.8915,136.546 1163.7965,136.83 L1164.5065,133.635 L1160.2465,132.57 C1159.8915,128.381 1159.8915,121.707 1159.8915,111.27 L1169.4765,111.27 L1170.5415,105.945 L1159.8915,105.945 L1159.8915,103.46 C1159.8915,96.076 1162.0925,89.26 1167.1335,89.26 C1170.3285,89.26 1171.3935,92.455 1171.3935,96.715 C1175.8665,96.715 1179.2035,95.295 1179.2035,91.39 C1179.2035,87.13 1175.1565,85 1168.7665,85 C1155.9865,85 1149.2415,93.165 1149.2415,103.531 Z" id="Path"></path>
            <path d="M1191.7705,111.625 C1189.4275,112.193 1187.0135,113.258 1185.0255,114.891 L1185.8775,117.944 C1187.2265,117.447 1188.1495,117.234 1189.0725,117.234 C1191.9125,117.234 1193.7585,119.719 1193.7585,124.263 C1193.7585,130.014 1191.4865,132.712 1188.9305,132.712 C1185.7355,132.712 1183.1085,128.381 1183.1085,119.364 C1183.1085,105.874 1189.0015,97.993 1201.2135,93.378 L1200.3615,90.325 C1180.2685,95.082 1171.7485,108.004 1171.7485,119.577 C1171.7485,128.807 1177.1445,137.185 1188.0785,137.185 C1197.0955,137.185 1204.0535,131.505 1204.0535,123.056 C1204.0535,116.027 1199.2255,111.625 1191.7705,111.625 Z" id="Path"></path>
            <path d="M1248.2155,131.86 C1247.8605,126.819 1247.8605,123.269 1247.8605,121.21 C1247.8605,114.465 1247.7185,109.992 1248.9255,106.655 L1246.7955,104.525 C1242.1805,106.655 1235.5065,108.43 1228.7615,109.14 L1228.7615,113.045 L1234.0865,113.897 C1235.8615,114.181 1236.8555,115.53 1236.8555,117.802 L1236.8555,121.21 C1236.8555,124.121 1236.6425,127.529 1236.2875,129.02 C1235.8615,130.866 1234.5125,132.925 1228.3355,133.635 L1228.3355,136.688 C1235.4355,136.546 1238.7015,136.475 1242.4645,136.475 C1246.2275,136.475 1248.9255,136.546 1255.3155,136.83 L1256.0255,133.635 L1248.2155,131.86 Z" id="Path"></path>
            <path d="M1277.6095,105.235 C1268.0955,105.235 1260.2855,111.838 1260.2855,121.778 C1260.2855,130.014 1265.6105,137.185 1275.4795,137.185 C1284.9935,137.185 1292.8035,130.582 1292.8035,120.642 C1292.8035,112.406 1287.4785,105.235 1277.6095,105.235 Z M1266.3205,120.855 C1266.3205,117.518 1269.7995,115.53 1275.6925,115.53 C1281.4435,115.53 1286.7685,117.447 1286.7685,121.565 C1286.7685,124.902 1283.2895,126.89 1277.3965,126.89 C1271.6455,126.89 1266.3205,124.973 1266.3205,120.855 Z" id="Shape"></path>
            <path d="M1304.1635,124.405 C1301.1105,126.038 1298.8385,128.381 1297.4185,131.15 C1298.8385,133.919 1301.1105,136.262 1304.1635,137.895 C1307.2165,136.262 1309.4885,133.919 1310.9085,131.15 C1309.4885,128.381 1307.2165,126.038 1304.1635,124.405 Z" id="Path"></path>
            <path d="M1352.8695,129.02 C1348.2545,129.02 1344.9885,126.89 1344.9885,119.009 C1344.9885,112.69 1347.1185,109.85 1349.5325,109.85 C1352.4435,109.85 1353.5795,113.045 1353.5795,116.95 C1358.1945,116.95 1361.3895,115.459 1361.3895,111.767 C1361.3895,107.649 1357.4845,105.235 1351.3075,105.235 C1341.4385,105.235 1333.6285,111.554 1333.6285,121.92 C1333.6285,129.659 1337.7465,136.83 1349.6035,137.185 C1354.9995,136.049 1358.1945,133.564 1361.3895,130.227 L1359.9695,127.174 C1357.2005,128.594 1355.3545,129.02 1352.8695,129.02 Z" id="Path"></path>
            <path d="M1382.1215,149.255 L1393.0555,149.255 C1392.8425,146.06 1392.7715,141.445 1392.7005,136.546 L1397.7415,136.617 L1399.5875,127.387 C1397.1735,127.813 1394.9015,128.097 1392.7005,128.239 L1392.7005,128.026 C1392.7005,124.476 1392.7005,107.365 1393.0555,105.448 L1387.7305,101.756 C1380.6305,113.187 1373.7435,123.624 1364.3005,134.487 L1365.0105,137.54 C1370.6195,137.043 1376.6545,136.759 1382.6895,136.617 C1382.5475,141.516 1382.3345,146.06 1382.1215,149.255 Z M1374.8795,128.736 C1377.7195,125.044 1380.2045,121.423 1382.7605,117.873 L1382.7605,128.026 L1382.7605,128.736 C1380.2755,128.736 1377.6485,128.736 1374.8795,128.736 Z" id="Shape"></path>
            <path d="M1437.9985,137.185 C1443.3945,136.333 1446.5895,134.203 1449.7845,130.582 L1448.3645,127.529 C1445.5955,128.665 1443.6785,129.02 1441.5485,129.02 C1436.6495,129.02 1432.5315,127.174 1432.0345,120.145 L1449.9265,120.145 C1450.2105,118.725 1450.3525,117.447 1450.3525,116.24 C1450.3525,109.353 1445.4535,105.235 1438.3535,105.235 C1428.4135,105.235 1421.1005,111.98 1421.1005,121.423 C1421.1005,130.156 1425.7865,136.83 1437.9985,137.185 Z M1432.1055,116.24 C1432.4605,112.122 1433.9515,109.495 1436.4365,109.495 C1438.8505,109.495 1440.1995,112.122 1440.4835,116.24 L1432.1055,116.24 Z" id="Shape"></path>
            <path d="M1474.8475,111.625 C1472.5045,112.193 1470.0905,113.258 1468.1025,114.891 L1468.9545,117.944 C1470.3035,117.447 1471.2265,117.234 1472.1495,117.234 C1474.9895,117.234 1476.8355,119.719 1476.8355,124.263 C1476.8355,130.014 1474.5635,132.712 1472.0075,132.712 C1468.8125,132.712 1466.1855,128.381 1466.1855,119.364 C1466.1855,105.874 1472.0785,97.993 1484.2905,93.378 L1483.4385,90.325 C1463.3455,95.082 1454.8255,108.004 1454.8255,119.577 C1454.8255,128.807 1460.2215,137.185 1471.1555,137.185 C1480.1725,137.185 1487.1305,131.505 1487.1305,123.056 C1487.1305,116.027 1482.3025,111.625 1474.8475,111.625 Z" id="Path"></path>
            <path d="M1531.2925,131.86 C1530.9375,126.819 1530.9375,123.269 1530.9375,121.21 C1530.9375,114.465 1530.7955,109.992 1532.0025,106.655 L1529.8725,104.525 C1525.2575,106.655 1518.5835,108.43 1511.8385,109.14 L1511.8385,113.045 L1517.1635,113.897 C1518.9385,114.181 1519.9325,115.53 1519.9325,117.802 L1519.9325,121.21 C1519.9325,124.121 1519.7195,127.529 1519.3645,129.02 C1518.9385,130.866 1517.5895,132.925 1511.4125,133.635 L1511.4125,136.688 C1518.5125,136.546 1521.7785,136.475 1525.5415,136.475 C1529.3045,136.475 1532.0025,136.546 1538.3925,136.83 L1539.1025,133.635 L1531.2925,131.86 Z" id="Path"></path>
            <path d="M1564.8045,131.86 C1564.4495,126.819 1564.4495,123.269 1564.4495,121.21 C1564.4495,114.465 1564.3075,109.992 1565.5145,106.655 L1563.3845,104.525 C1558.7695,106.655 1552.0955,108.43 1545.3505,109.14 L1545.3505,113.045 L1550.6755,113.897 C1552.4505,114.181 1553.4445,115.53 1553.4445,117.802 L1553.4445,121.21 C1553.4445,124.121 1553.2315,127.529 1552.8765,129.02 C1552.4505,130.866 1551.1015,132.925 1544.9245,133.635 L1544.9245,136.688 C1552.0245,136.546 1555.2905,136.475 1559.0535,136.475 C1562.8165,136.475 1565.5145,136.546 1571.9045,136.83 L1572.6145,133.635 L1564.8045,131.86 Z" id="Path"></path>
            <path d="M73.769,214.02 C69.154,214.02 65.888,211.89 65.888,204.009 C65.888,197.69 68.018,194.85 70.432,194.85 C73.343,194.85 74.479,198.045 74.479,201.95 C79.094,201.95 82.289,200.459 82.289,196.767 C82.289,192.649 78.384,190.235 72.207,190.235 C62.338,190.235 54.528,196.554 54.528,206.92 C54.528,214.659 58.646,221.83 70.503,222.185 C75.899,221.049 79.094,218.564 82.289,215.227 L80.869,212.174 C78.1,213.594 76.254,214.02 73.769,214.02 Z" id="Path"></path>
            <path d="M92.868,212.387 L93.791,215.795 C94.856,215.511 95.85,215.156 96.844,214.872 C101.317,215.724 103.092,218.777 103.092,221.901 C103.092,227.51 97.057,232.551 85.626,234.042 L86.478,237.095 C103.305,236.314 114.594,229.356 114.594,218.635 C114.594,214.304 112.677,210.399 108.488,208.34 C111.044,205.784 112.464,202.944 112.464,199.749 C112.464,193.998 107.849,190.235 100.962,190.235 C93.578,190.235 88.75,194.566 85.91,202.305 L89.247,203.37 C91.59,200.317 93.578,198.755 96.844,198.755 C100.323,198.755 102.24,200.53 102.24,203.654 C102.24,207.346 99.116,209.76 92.868,212.387 Z" id="Path"></path>
            <path d="M182.683,221.688 L183.393,218.635 C180.766,217.925 177.642,214.375 176.009,211.535 C174.66,209.192 173.524,206.778 172.246,204.506 C169.761,200.175 168.27,198.968 165.43,198.116 C171.607,196.199 175.725,192.152 175.725,186.401 C175.725,179.869 170.258,176.035 160.176,176.035 C155.49,176.035 152.863,176.745 147.822,176.745 C144.769,176.745 142.284,176.674 139.089,176.532 L138.379,179.585 L141.929,181.36 C142.284,186.046 142.284,189.596 142.284,199.11 C142.284,208.269 142,211.819 141.645,214.02 C141.361,215.795 140.651,217.925 138.379,218.635 L138.379,221.688 C141.929,221.546 144.201,221.475 147.751,221.475 C151.301,221.475 152.934,221.546 156.484,221.83 L157.194,218.635 L153.644,216.86 C153.289,212.174 153.289,208.837 153.289,201.098 L153.999,201.098 C156.768,201.098 157.407,202.021 159.608,205.216 C160.602,206.707 162.945,211.535 165.501,215.511 C168.625,220.41 172.601,223.818 182.683,221.688 Z M153.289,196.128 C153.36,188.815 153.644,185.833 153.928,184.271 C154.425,181.857 155.561,181.005 157.691,181.005 C161.951,181.005 164.01,184.129 164.01,187.892 C164.01,191.655 161.951,196.128 157.265,196.128 L153.289,196.128 Z" id="Shape"></path>
            <path d="M204.409,214.02 C199.794,214.02 196.528,211.89 196.528,204.009 C196.528,197.69 198.658,194.85 201.072,194.85 C203.983,194.85 205.119,198.045 205.119,201.95 C209.734,201.95 212.929,200.459 212.929,196.767 C212.929,192.649 209.024,190.235 202.847,190.235 C192.978,190.235 185.168,196.554 185.168,206.92 C185.168,214.659 189.286,221.83 201.143,222.185 C206.539,221.049 209.734,218.564 212.929,215.227 L211.509,212.174 C208.74,213.594 206.894,214.02 204.409,214.02 Z" id="Path"></path>
            <path d="M233.164,177.455 C223.934,177.455 217.544,182.425 217.544,190.59 C217.544,196.767 221.236,200.246 225.425,202.802 C219.745,204.648 217.615,208.695 217.615,212.458 C217.615,218.493 223.224,222.185 231.673,222.185 C241.258,222.185 247.648,217.428 247.648,210.044 C247.648,204.151 243.601,201.24 239.199,198.826 C244.24,196.909 247.364,193.572 247.364,188.46 C247.364,181.644 241.613,177.455 233.164,177.455 Z M227.2,211.322 C227.2,209.334 227.839,206.92 229.614,205.145 C233.945,207.346 237.708,209.263 237.708,212.884 C237.708,215.582 235.578,217.712 232.667,217.712 C229.472,217.712 227.2,215.085 227.2,211.322 Z M227.839,188.176 C227.839,184.981 229.898,182.425 232.525,182.425 C234.939,182.425 237.069,184.484 237.069,189.809 C237.069,191.939 236.714,194.211 235.01,196.625 C231.105,194.566 227.839,192.365 227.839,188.176 Z" id="Shape"></path>
            <path d="M292.094,216.86 C291.739,211.819 291.739,208.269 291.739,206.21 C291.739,199.465 291.597,194.992 292.804,191.655 L290.674,189.525 C286.059,191.655 279.385,193.43 272.64,194.14 L272.64,198.045 L277.965,198.897 C279.74,199.181 280.734,200.53 280.734,202.802 L280.734,206.21 C280.734,209.121 280.521,212.529 280.166,214.02 C279.74,215.866 278.391,217.925 272.214,218.635 L272.214,221.688 C279.314,221.546 282.58,221.475 286.343,221.475 C290.106,221.475 292.804,221.546 299.194,221.83 L299.904,218.635 L292.094,216.86 Z" id="Path"></path>
            <path d="M335.049,209.76 L331.641,208.695 C329.014,213.594 327.097,214.375 322.553,214.375 L316.376,214.375 C325.251,210.257 329.298,205.713 329.298,199.678 C329.298,193.217 323.689,190.235 318.222,190.235 C312.542,190.235 305.584,193.43 303.099,202.66 L306.507,203.796 C308.211,200.672 310.483,198.755 313.394,198.755 C316.021,198.755 317.583,200.175 317.583,203.086 C317.583,205.997 317.015,210.186 303.809,218.848 L304.519,221.901 C306.436,221.617 311.264,221.475 316.163,221.475 C322.908,221.475 327.168,221.475 332.138,221.688 C332.777,217.712 333.7,213.736 335.049,209.76 Z" id="Path"></path>
            <path d="M343.214,209.405 C340.161,211.038 337.889,213.381 336.469,216.15 C337.889,218.919 340.161,221.262 343.214,222.895 C346.267,221.262 348.539,218.919 349.959,216.15 C348.539,213.381 346.267,211.038 343.214,209.405 Z" id="Path"></path>
            <path d="M420.32,221.688 L421.03,218.635 C417.551,217.215 413.646,212.955 411.942,210.47 C408.321,205.145 405.126,199.465 401.505,194.14 C412.794,182.425 415.776,180.65 419.965,179.585 L419.965,176.532 C417.835,176.674 414.569,176.745 411.374,176.745 C408.108,176.745 405.268,176.745 401.789,176.532 L401.079,179.585 L405.339,181.786 C402.215,185.691 400.014,188.957 390.784,196.767 L390.784,199.82 C395.257,205.145 398.381,210.541 402.144,215.866 C405.765,220.978 410.451,223.818 420.32,221.688 Z M373.744,221.688 C377.294,221.546 379.566,221.475 383.116,221.475 C386.666,221.475 388.299,221.546 391.849,221.83 L392.559,218.635 L389.009,216.86 C388.654,211.819 388.654,208.269 388.654,199.11 C388.654,189.951 388.938,186.401 389.293,184.2 C389.577,182.425 390.287,180.295 392.559,179.585 L392.559,176.532 C389.009,176.674 386.737,176.745 383.187,176.745 C379.637,176.745 378.004,176.745 374.454,176.532 L373.744,179.585 L377.294,181.36 C377.649,186.401 377.649,189.951 377.649,199.11 C377.649,208.269 377.365,211.819 377.01,214.02 C376.726,215.795 376.016,217.925 373.744,218.635 L373.744,221.688 Z" id="Shape"></path>
            <path d="M447.939,202.66 L447.939,207.275 C447.939,210.825 447.797,213.31 447.442,215.085 C447.158,216.505 446.519,217.925 444.744,218.635 L444.744,221.688 C447.584,221.546 450.069,221.475 453.264,221.475 C456.459,221.475 458.589,221.546 461.429,221.83 L462.139,218.635 L458.944,217.57 C458.589,213.31 458.589,210.825 458.589,207.275 L458.589,198.755 C458.589,193.43 456.104,190.59 450.353,190.235 C445.809,191.3 441.762,193.856 438.354,196.98 L438.354,195.915 C438.354,181.573 438.354,176.035 439.419,172.13 L437.289,170 C434.094,171.846 429.479,173.763 424.864,174.615 L424.864,177.668 L427.349,178.733 C427.704,181.573 427.704,186.33 427.704,195.915 C427.704,206.565 427.562,213.31 427.207,215.085 C426.923,216.505 426.284,217.925 424.509,218.635 L424.509,221.688 C427.349,221.546 429.834,221.475 433.029,221.475 C436.224,221.475 438.354,221.546 440.839,221.83 L441.549,218.635 L438.709,217.57 C438.425,214.162 438.354,209.121 438.354,201.808 C440.129,200.175 442.33,199.11 444.46,199.11 C446.519,199.11 447.939,200.033 447.939,202.66 Z" id="Path"></path>
            <path d="M487.841,216.86 C487.486,211.819 487.486,208.269 487.486,206.21 C487.486,199.465 487.344,194.992 488.551,191.655 L486.421,189.525 C481.806,191.655 475.132,193.43 468.387,194.14 L468.387,198.045 L473.712,198.897 C475.487,199.181 476.481,200.53 476.481,202.802 L476.481,206.21 C476.481,209.121 476.268,212.529 475.913,214.02 C475.487,215.866 474.138,217.925 467.961,218.635 L467.961,221.688 C475.061,221.546 478.327,221.475 482.09,221.475 C485.853,221.475 488.551,221.546 494.941,221.83 L495.651,218.635 L487.841,216.86 Z" id="Path"></path>
            <path d="M541.446,202.66 L541.446,207.275 C541.446,210.825 541.304,213.31 540.949,215.085 C540.665,216.505 540.026,217.925 538.251,218.635 L538.251,221.688 C541.091,221.546 543.576,221.475 546.771,221.475 C549.966,221.475 552.096,221.546 554.936,221.83 L555.646,218.635 L552.451,217.57 C552.096,213.31 552.096,210.825 552.096,207.275 L552.096,198.755 C552.096,193.43 549.611,190.59 543.86,190.235 C539.316,191.3 535.269,193.856 531.861,196.98 L531.861,195.915 C531.861,181.573 531.861,176.035 532.926,172.13 L530.796,170 C527.601,171.846 522.986,173.763 518.371,174.615 L518.371,177.668 L520.856,178.733 C521.211,181.573 521.211,186.33 521.211,195.915 C521.211,206.565 521.069,213.31 520.714,215.085 C520.43,216.505 519.791,217.925 518.016,218.635 L518.016,221.688 C520.856,221.546 523.341,221.475 526.536,221.475 C529.731,221.475 531.861,221.546 534.346,221.83 L535.056,218.635 L532.216,217.57 C531.932,214.162 531.861,209.121 531.861,201.808 C533.636,200.175 535.837,199.11 537.967,199.11 C540.026,199.11 541.446,200.033 541.446,202.66 Z" id="Path"></path>
            <path d="M566.651,190.945 L561.113,213.381 C571.692,214.091 577.159,217.073 577.159,222.114 C577.159,226.374 573.751,231.699 559.551,234.042 L560.403,237.095 C577.514,235.746 588.164,230.421 588.164,219.061 C588.164,209.973 581.277,204.861 568.355,204.08 L569.42,200.175 C574.745,199.678 581.277,199.465 587.312,199.465 L589.939,188.815 C583.478,190.235 573.112,190.661 566.651,190.945 Z" id="Path"></path>
            <path d="M633.888,216.86 C633.533,211.819 633.533,208.269 633.533,206.21 C633.533,199.465 633.391,194.992 634.598,191.655 L632.468,189.525 C627.853,191.655 621.179,193.43 614.434,194.14 L614.434,198.045 L619.759,198.897 C621.534,199.181 622.528,200.53 622.528,202.802 L622.528,206.21 C622.528,209.121 622.315,212.529 621.96,214.02 C621.534,215.866 620.185,217.925 614.008,218.635 L614.008,221.688 C621.108,221.546 624.374,221.475 628.137,221.475 C631.9,221.475 634.598,221.546 640.988,221.83 L641.698,218.635 L633.888,216.86 Z" id="Path"></path>
            <path d="M652.206,212.387 L653.129,215.795 C654.194,215.511 655.188,215.156 656.182,214.872 C660.655,215.724 662.43,218.777 662.43,221.901 C662.43,227.51 656.395,232.551 644.964,234.042 L645.816,237.095 C662.643,236.314 673.932,229.356 673.932,218.635 C673.932,214.304 672.015,210.399 667.826,208.34 C670.382,205.784 671.802,202.944 671.802,199.749 C671.802,193.998 667.187,190.235 660.3,190.235 C652.916,190.235 648.088,194.566 645.248,202.305 L648.585,203.37 C650.928,200.317 652.916,198.755 656.182,198.755 C659.661,198.755 661.578,200.53 661.578,203.654 C661.578,207.346 658.454,209.76 652.206,212.387 Z" id="Path"></path>
            <path d="M685.292,209.405 C682.239,211.038 679.967,213.381 678.547,216.15 C679.967,218.919 682.239,221.262 685.292,222.895 C688.345,221.262 690.617,218.919 692.037,216.15 C690.617,213.381 688.345,211.038 685.292,209.405 Z" id="Path"></path>
            <path d="M738.258,222.185 C741.879,221.617 744.932,219.842 747.346,217.215 L745.926,214.162 C745.216,214.588 744.293,215.085 743.37,215.085 C742.163,215.085 741.098,214.304 741.098,212.103 C741.098,209.192 742.518,203.512 742.518,199.323 C742.518,192.862 737.619,190.235 729.099,190.235 C721.005,191.939 715.467,194.282 715.467,199.11 C715.467,202.66 718.378,204.151 722.638,203.441 C722.638,198.045 724.484,194.85 727.679,194.85 C730.59,194.85 731.158,197.051 731.158,200.601 L731.087,203.512 C717.384,205.429 714.402,210.683 714.402,214.73 C714.402,219.558 718.52,221.759 722.567,222.185 C726.117,221.475 728.886,220.055 731.513,218.28 C732.72,220.552 735.063,221.83 738.258,222.185 Z M725.052,212.387 C725.052,210.328 726.401,208.198 730.945,206.849 C730.874,209.263 730.803,211.89 730.803,214.02 C729.667,214.659 728.744,215.085 727.679,215.085 C725.975,215.085 725.052,213.736 725.052,212.387 Z" id="Shape"></path>
            <path d="M766.942,234.255 L777.876,234.255 C777.663,231.06 777.592,226.445 777.521,221.546 L782.562,221.617 L784.408,212.387 C781.994,212.813 779.722,213.097 777.521,213.239 L777.521,213.026 C777.521,209.476 777.521,192.365 777.876,190.448 L772.551,186.756 C765.451,198.187 758.564,208.624 749.121,219.487 L749.831,222.54 C755.44,222.043 761.475,221.759 767.51,221.617 C767.368,226.516 767.155,231.06 766.942,234.255 Z M759.7,213.736 C762.54,210.044 765.025,206.423 767.581,202.873 L767.581,213.026 L767.581,213.736 C765.096,213.736 762.469,213.736 759.7,213.736 Z" id="Shape"></path>
            <path d="M829.351,202.66 L829.351,207.275 C829.351,210.825 829.209,213.31 828.854,215.085 C828.57,216.505 827.931,217.925 826.156,218.635 L826.156,221.688 C828.996,221.546 831.481,221.475 834.676,221.475 C837.871,221.475 840.001,221.546 842.841,221.83 L843.551,218.635 L840.356,217.57 C840.001,213.31 840.001,210.825 840.001,207.275 L840.001,198.755 C840.001,193.43 837.516,190.59 831.765,190.235 C827.221,191.3 823.174,193.856 819.766,196.98 L819.766,195.915 C819.766,181.573 819.766,176.035 820.831,172.13 L818.701,170 C815.506,171.846 810.891,173.763 806.276,174.615 L806.276,177.668 L808.761,178.733 C809.116,181.573 809.116,186.33 809.116,195.915 C809.116,206.565 808.974,213.31 808.619,215.085 C808.335,216.505 807.696,217.925 805.921,218.635 L805.921,221.688 C808.761,221.546 811.246,221.475 814.441,221.475 C817.636,221.475 819.766,221.546 822.251,221.83 L822.961,218.635 L820.121,217.57 C819.837,214.162 819.766,209.121 819.766,201.808 C821.541,200.175 823.742,199.11 825.872,199.11 C827.931,199.11 829.351,200.033 829.351,202.66 Z" id="Path"></path>
            <path d="M864.922,234.255 L875.856,234.255 C875.643,231.06 875.572,226.445 875.501,221.546 L880.542,221.617 L882.388,212.387 C879.974,212.813 877.702,213.097 875.501,213.239 L875.501,213.026 C875.501,209.476 875.501,192.365 875.856,190.448 L870.531,186.756 C863.431,198.187 856.544,208.624 847.101,219.487 L847.811,222.54 C853.42,222.043 859.455,221.759 865.49,221.617 C865.348,226.516 865.135,231.06 864.922,234.255 Z M857.68,213.736 C860.52,210.044 863.005,206.423 865.561,202.873 L865.561,213.026 L865.561,213.736 C863.076,213.736 860.449,213.736 857.68,213.736 Z" id="Shape"></path>
            <path d="M925.343,216.86 C924.988,211.819 924.988,208.269 924.988,206.21 C924.988,199.465 924.846,194.992 926.053,191.655 L923.923,189.525 C919.308,191.655 912.634,193.43 905.889,194.14 L905.889,198.045 L911.214,198.897 C912.989,199.181 913.983,200.53 913.983,202.802 L913.983,206.21 C913.983,209.121 913.77,212.529 913.415,214.02 C912.989,215.866 911.64,217.925 905.463,218.635 L905.463,221.688 C912.563,221.546 915.829,221.475 919.592,221.475 C923.355,221.475 926.053,221.546 932.443,221.83 L933.153,218.635 L925.343,216.86 Z" id="Path"></path>
            <path d="M954.524,234.255 L965.458,234.255 C965.245,231.06 965.174,226.445 965.103,221.546 L970.144,221.617 L971.99,212.387 C969.576,212.813 967.304,213.097 965.103,213.239 L965.103,213.026 C965.103,209.476 965.103,192.365 965.458,190.448 L960.133,186.756 C953.033,198.187 946.146,208.624 936.703,219.487 L937.413,222.54 C943.022,222.043 949.057,221.759 955.092,221.617 C954.95,226.516 954.737,231.06 954.524,234.255 Z M947.282,213.736 C950.122,210.044 952.607,206.423 955.163,202.873 L955.163,213.026 L955.163,213.736 C952.678,213.736 950.051,213.736 947.282,213.736 Z" id="Shape"></path>
            <path d="M982.143,209.405 C979.09,211.038 976.818,213.381 975.398,216.15 C976.818,218.919 979.09,221.262 982.143,222.895 C985.196,221.262 987.468,218.919 988.888,216.15 C987.468,213.381 985.196,211.038 982.143,209.405 Z" id="Path"></path>
            <path d="M1035.038,202.66 L1035.038,207.275 C1035.038,210.825 1034.896,213.31 1034.541,215.085 C1034.257,216.505 1033.618,217.925 1031.843,218.635 L1031.843,221.688 C1034.683,221.546 1037.168,221.475 1040.363,221.475 C1043.558,221.475 1045.688,221.546 1048.528,221.83 L1049.238,218.635 L1046.043,217.57 C1045.688,213.31 1045.688,210.825 1045.688,207.275 L1045.688,198.755 C1045.688,193.43 1043.203,190.59 1037.452,190.235 C1032.908,191.3 1028.861,193.856 1025.453,196.98 L1025.453,195.915 C1025.453,181.573 1025.453,176.035 1026.518,172.13 L1024.388,170 C1021.193,171.846 1016.578,173.763 1011.963,174.615 L1011.963,177.668 L1014.448,178.733 C1014.803,181.573 1014.803,186.33 1014.803,195.915 C1014.803,206.565 1014.661,213.31 1014.306,215.085 C1014.022,216.505 1013.383,217.925 1011.608,218.635 L1011.608,221.688 C1014.448,221.546 1016.933,221.475 1020.128,221.475 C1023.323,221.475 1025.453,221.546 1027.938,221.83 L1028.648,218.635 L1025.808,217.57 C1025.524,214.162 1025.453,209.121 1025.453,201.808 C1027.228,200.175 1029.429,199.11 1031.559,199.11 C1033.618,199.11 1035.038,200.033 1035.038,202.66 Z" id="Path"></path>
            <path d="M1059.746,212.387 L1060.669,215.795 C1061.734,215.511 1062.728,215.156 1063.722,214.872 C1068.195,215.724 1069.97,218.777 1069.97,221.901 C1069.97,227.51 1063.935,232.551 1052.504,234.042 L1053.356,237.095 C1070.183,236.314 1081.472,229.356 1081.472,218.635 C1081.472,214.304 1079.555,210.399 1075.366,208.34 C1077.922,205.784 1079.342,202.944 1079.342,199.749 C1079.342,193.998 1074.727,190.235 1067.84,190.235 C1060.456,190.235 1055.628,194.566 1052.788,202.305 L1056.125,203.37 C1058.468,200.317 1060.456,198.755 1063.722,198.755 C1067.201,198.755 1069.118,200.53 1069.118,203.654 C1069.118,207.346 1065.994,209.76 1059.746,212.387 Z" id="Path"></path>
            <path d="M1136.142,196.625 C1140.544,194.85 1142.461,191.016 1142.461,186.898 C1142.461,180.721 1136.994,176.035 1128.261,176.035 C1121.8,176.035 1120.025,176.745 1114.7,176.745 C1111.647,176.745 1109.162,176.674 1105.967,176.532 L1105.257,179.585 L1108.807,181.36 C1109.162,186.046 1109.162,189.596 1109.162,199.11 C1109.162,208.269 1108.878,211.819 1108.523,214.02 C1108.239,215.795 1107.529,217.925 1105.257,218.635 L1105.257,221.688 C1108.807,221.546 1111.008,221.475 1113.706,221.475 C1121.019,221.475 1121.516,221.83 1125.563,221.83 C1138.556,221.83 1145.656,215.653 1145.656,207.772 C1145.656,202.66 1142.532,197.974 1136.142,196.625 Z M1120.167,200.53 L1125.35,200.53 C1130.533,200.53 1133.231,203.938 1133.231,208.837 C1133.231,212.529 1131.385,216.86 1125.421,216.86 C1124.001,216.86 1122.297,216.647 1120.522,216.079 C1120.167,212.032 1120.167,208.624 1120.167,200.53 Z M1120.167,195.56 C1120.238,188.673 1120.522,185.833 1120.806,184.271 C1121.303,181.857 1122.439,181.005 1124.569,181.005 C1129.326,181.005 1131.101,184.2 1131.101,187.75 C1131.101,191.087 1129.539,195.56 1124.853,195.56 L1120.167,195.56 Z" id="Shape"></path>
            <path d="M1168.66,222.185 C1174.056,221.333 1177.251,219.203 1180.446,215.582 L1179.026,212.529 C1176.257,213.665 1174.34,214.02 1172.21,214.02 C1167.311,214.02 1163.193,212.174 1162.696,205.145 L1180.588,205.145 C1180.872,203.725 1181.014,202.447 1181.014,201.24 C1181.014,194.353 1176.115,190.235 1169.015,190.235 C1159.075,190.235 1151.762,196.98 1151.762,206.423 C1151.762,215.156 1156.448,221.83 1168.66,222.185 Z M1162.767,201.24 C1163.122,197.122 1164.613,194.495 1167.098,194.495 C1169.512,194.495 1170.861,197.122 1171.145,201.24 L1162.767,201.24 Z" id="Shape"></path>
            <path d="M1213.674,193.501 L1212.964,190.306 C1208.349,190.874 1207.284,190.945 1198.054,190.945 C1195.072,190.945 1192.232,190.945 1186.197,190.732 L1183.712,202.305 C1187.404,200.885 1192.232,200.175 1198.693,200.175 L1206.006,200.175 C1199.758,213.31 1194.291,218.99 1189.463,232.125 L1201.249,235.675 C1202.74,219.274 1206.432,208.979 1213.674,193.501 Z" id="Path"></path>
            <path d="M1256.629,216.86 C1256.274,211.819 1256.274,208.269 1256.274,206.21 C1256.274,199.465 1256.132,194.992 1257.339,191.655 L1255.209,189.525 C1250.594,191.655 1243.92,193.43 1237.175,194.14 L1237.175,198.045 L1242.5,198.897 C1244.275,199.181 1245.269,200.53 1245.269,202.802 L1245.269,206.21 C1245.269,209.121 1245.056,212.529 1244.701,214.02 C1244.275,215.866 1242.926,217.925 1236.749,218.635 L1236.749,221.688 C1243.849,221.546 1247.115,221.475 1250.878,221.475 C1254.641,221.475 1257.339,221.546 1263.729,221.83 L1264.439,218.635 L1256.629,216.86 Z" id="Path"></path>
            <path d="M1275.444,190.945 L1269.906,213.381 C1280.485,214.091 1285.952,217.073 1285.952,222.114 C1285.952,226.374 1282.544,231.699 1268.344,234.042 L1269.196,237.095 C1286.307,235.746 1296.957,230.421 1296.957,219.061 C1296.957,209.973 1290.07,204.861 1277.148,204.08 L1278.213,200.175 C1283.538,199.678 1290.07,199.465 1296.105,199.465 L1298.732,188.815 C1292.271,190.235 1281.905,190.661 1275.444,190.945 Z" id="Path"></path>
            <path d="M1309.879,209.405 C1306.826,211.038 1304.554,213.381 1303.134,216.15 C1304.554,218.919 1306.826,221.262 1309.879,222.895 C1312.932,221.262 1315.204,218.919 1316.624,216.15 C1315.204,213.381 1312.932,211.038 1309.879,209.405 Z" id="Path"></path>
            <path d="M1341.474,220.055 L1343.604,222.185 C1345.095,221.262 1346.657,220.481 1348.219,219.842 C1351.769,221.688 1354.467,222.185 1357.236,222.185 C1367.389,222.185 1375.199,215.653 1375.199,204.932 C1375.199,196.696 1370.584,190.235 1362.419,190.235 C1358.656,191.371 1355.745,193.004 1353.189,195.915 C1353.189,181.573 1353.189,176.035 1354.254,172.13 L1352.124,170 C1348.929,171.846 1344.314,173.763 1339.699,174.615 L1339.699,177.668 L1342.184,178.733 C1342.539,181.573 1342.539,186.33 1342.539,195.915 C1342.539,206.565 1342.539,217.57 1341.474,220.055 Z M1353.189,210.328 L1353.189,200.885 C1354.112,199.252 1356.171,198.045 1358.088,198.045 C1361.141,198.045 1363.484,201.098 1363.484,207.559 C1363.484,214.162 1360.999,217.57 1357.875,217.57 C1355.603,217.57 1353.189,215.724 1353.189,210.328 Z" id="Shape"></path>
            <path d="M1396.215,234.255 L1407.149,234.255 C1406.936,231.06 1406.865,226.445 1406.794,221.546 L1411.835,221.617 L1413.681,212.387 C1411.267,212.813 1408.995,213.097 1406.794,213.239 L1406.794,213.026 C1406.794,209.476 1406.794,192.365 1407.149,190.448 L1401.824,186.756 C1394.724,198.187 1387.837,208.624 1378.394,219.487 L1379.104,222.54 C1384.713,222.043 1390.748,221.759 1396.783,221.617 C1396.641,226.516 1396.428,231.06 1396.215,234.255 Z M1388.973,213.736 C1391.813,210.044 1394.298,206.423 1396.854,202.873 L1396.854,213.026 L1396.854,213.736 C1394.369,213.736 1391.742,213.736 1388.973,213.736 Z" id="Shape"></path>
            <path d="M1458.695,222.185 C1462.316,221.617 1465.369,219.842 1467.783,217.215 L1466.363,214.162 C1465.653,214.588 1464.73,215.085 1463.807,215.085 C1462.6,215.085 1461.535,214.304 1461.535,212.103 C1461.535,209.192 1462.955,203.512 1462.955,199.323 C1462.955,192.862 1458.056,190.235 1449.536,190.235 C1441.442,191.939 1435.904,194.282 1435.904,199.11 C1435.904,202.66 1438.815,204.151 1443.075,203.441 C1443.075,198.045 1444.921,194.85 1448.116,194.85 C1451.027,194.85 1451.595,197.051 1451.595,200.601 L1451.524,203.512 C1437.821,205.429 1434.839,210.683 1434.839,214.73 C1434.839,219.558 1438.957,221.759 1443.004,222.185 C1446.554,221.475 1449.323,220.055 1451.95,218.28 C1453.157,220.552 1455.5,221.83 1458.695,222.185 Z M1445.489,212.387 C1445.489,210.328 1446.838,208.198 1451.382,206.849 C1451.311,209.263 1451.24,211.89 1451.24,214.02 C1450.104,214.659 1449.181,215.085 1448.116,215.085 C1446.412,215.085 1445.489,213.736 1445.489,212.387 Z" id="Shape"></path>
            <path d="M1477.013,190.945 L1471.475,213.381 C1482.054,214.091 1487.521,217.073 1487.521,222.114 C1487.521,226.374 1484.113,231.699 1469.913,234.042 L1470.765,237.095 C1487.876,235.746 1498.526,230.421 1498.526,219.061 C1498.526,209.973 1491.639,204.861 1478.717,204.08 L1479.782,200.175 C1485.107,199.678 1491.639,199.465 1497.674,199.465 L1500.301,188.815 C1493.84,190.235 1483.474,190.661 1477.013,190.945 Z" id="Path"></path>
            <path d="M1544.25,216.86 C1543.895,211.819 1543.895,208.269 1543.895,206.21 C1543.895,199.465 1543.753,194.992 1544.96,191.655 L1542.83,189.525 C1538.215,191.655 1531.541,193.43 1524.796,194.14 L1524.796,198.045 L1530.121,198.897 C1531.896,199.181 1532.89,200.53 1532.89,202.802 L1532.89,206.21 C1532.89,209.121 1532.677,212.529 1532.322,214.02 C1531.896,215.866 1530.547,217.925 1524.37,218.635 L1524.37,221.688 C1531.47,221.546 1534.736,221.475 1538.499,221.475 C1542.262,221.475 1544.96,221.546 1551.35,221.83 L1552.06,218.635 L1544.25,216.86 Z" id="Path"></path>
            <path d="M1576.342,196.625 C1573.999,197.193 1571.585,198.258 1569.597,199.891 L1570.449,202.944 C1571.798,202.447 1572.721,202.234 1573.644,202.234 C1576.484,202.234 1578.33,204.719 1578.33,209.263 C1578.33,215.014 1576.058,217.712 1573.502,217.712 C1570.307,217.712 1567.68,213.381 1567.68,204.364 C1567.68,190.874 1573.573,182.993 1585.785,178.378 L1584.933,175.325 C1564.84,180.082 1556.32,193.004 1556.32,204.577 C1556.32,213.807 1561.716,222.185 1572.65,222.185 C1581.667,222.185 1588.625,216.505 1588.625,208.056 C1588.625,201.027 1583.797,196.625 1576.342,196.625 Z" id="Path"></path>
            <path d="M50.765,305.055 L52.895,307.185 C54.386,306.262 55.948,305.481 57.51,304.842 C61.06,306.688 63.758,307.185 66.527,307.185 C76.68,307.185 84.49,300.653 84.49,289.932 C84.49,281.696 79.875,275.235 71.71,275.235 C67.947,276.371 65.036,278.004 62.48,280.915 C62.48,266.573 62.48,261.035 63.545,257.13 L61.415,255 C58.22,256.846 53.605,258.763 48.99,259.615 L48.99,262.668 L51.475,263.733 C51.83,266.573 51.83,271.33 51.83,280.915 C51.83,291.565 51.83,302.57 50.765,305.055 Z M62.48,295.328 L62.48,285.885 C63.403,284.252 65.462,283.045 67.379,283.045 C70.432,283.045 72.775,286.098 72.775,292.559 C72.775,299.162 70.29,302.57 67.166,302.57 C64.894,302.57 62.48,300.724 62.48,295.328 Z" id="Shape"></path>
            <path d="M95.85,275.945 L90.312,298.381 C100.891,299.091 106.358,302.073 106.358,307.114 C106.358,311.374 102.95,316.699 88.75,319.042 L89.602,322.095 C106.713,320.746 117.363,315.421 117.363,304.061 C117.363,294.973 110.476,289.861 97.554,289.08 L98.619,285.175 C103.944,284.678 110.476,284.465 116.511,284.465 L119.138,273.815 C112.677,275.235 102.311,275.661 95.85,275.945 Z" id="Path"></path>
            <path d="M204.196,326.355 C214.704,326.355 221.804,324.012 230.395,319.042 L228.975,315.634 C220.952,319.184 215.414,319.965 207.533,319.965 C196.883,319.965 187.44,317.054 175.086,305.907 C184.671,302.854 191.7,294.76 191.7,283.613 C191.7,270.478 181.973,261.035 168.625,261.035 C154.922,261.035 143.42,270.336 143.42,284.607 C143.42,296.038 150.733,304.629 161.454,306.688 C175.938,320.746 188.008,326.355 204.196,326.355 Z M155.845,281.909 C155.845,270.691 161.17,266.005 166.85,266.005 C173.95,266.005 179.275,274.312 179.275,286.311 C179.275,297.529 173.95,302.215 168.27,302.215 C161.17,302.215 155.845,293.908 155.845,281.909 Z" id="Shape"></path>
            <path d="M217.331,299.02 C212.716,299.02 209.45,296.89 209.45,289.009 C209.45,282.69 211.58,279.85 213.994,279.85 C216.905,279.85 218.041,283.045 218.041,286.95 C222.656,286.95 225.851,285.459 225.851,281.767 C225.851,277.649 221.946,275.235 215.769,275.235 C205.9,275.235 198.09,281.554 198.09,291.92 C198.09,299.659 202.208,306.83 214.065,307.185 C219.461,306.049 222.656,303.564 225.851,300.227 L224.431,297.174 C221.662,298.594 219.816,299.02 217.331,299.02 Z" id="Path"></path>
            <path d="M258.369,278.501 L257.659,275.306 C253.044,275.874 251.979,275.945 242.749,275.945 C239.767,275.945 236.927,275.945 230.892,275.732 L228.407,287.305 C232.099,285.885 236.927,285.175 243.388,285.175 L250.701,285.175 C244.453,298.31 238.986,303.99 234.158,317.125 L245.944,320.675 C247.435,304.274 251.127,293.979 258.369,278.501 Z" id="Path"></path>
            <path d="M301.324,301.86 C300.969,296.819 300.969,293.269 300.969,291.21 C300.969,284.465 300.827,279.992 302.034,276.655 L299.904,274.525 C295.289,276.655 288.615,278.43 281.87,279.14 L281.87,283.045 L287.195,283.897 C288.97,284.181 289.964,285.53 289.964,287.802 L289.964,291.21 C289.964,294.121 289.751,297.529 289.396,299.02 C288.97,300.866 287.621,302.925 281.444,303.635 L281.444,306.688 C288.544,306.546 291.81,306.475 295.573,306.475 C299.336,306.475 302.034,306.546 308.424,306.83 L309.134,303.635 L301.324,301.86 Z" id="Path"></path>
            <path d="M341.581,278.501 L340.871,275.306 C336.256,275.874 335.191,275.945 325.961,275.945 C322.979,275.945 320.139,275.945 314.104,275.732 L311.619,287.305 C315.311,285.885 320.139,285.175 326.6,285.175 L333.913,285.175 C327.665,298.31 322.198,303.99 317.37,317.125 L329.156,320.675 C330.647,304.274 334.339,293.979 341.581,278.501 Z" id="Path"></path>
            <path d="M348.184,294.405 C345.131,296.038 342.859,298.381 341.439,301.15 C342.859,303.919 345.131,306.262 348.184,307.895 C351.237,306.262 353.509,303.919 354.929,301.15 C353.509,298.381 351.237,296.038 348.184,294.405 Z" id="Path"></path>
            <path d="M420.959,261.745 C417.764,261.745 415.634,261.603 412.084,261.39 L411.374,264.585 L417.409,267.07 C418.119,271.614 418.119,276.584 418.119,284.11 L418.119,288.654 C408.605,280.489 399.091,270.62 389.577,261.745 L386.737,261.745 C384.252,261.745 381.909,261.745 379.424,261.532 L378.714,264.585 C382.264,266.715 382.619,269.058 382.619,274.738 L382.619,284.11 C382.619,291.636 382.264,296.606 381.98,298.31 C381.554,301.008 380.844,302.996 378.714,303.635 L378.714,306.688 C380.844,306.546 382.619,306.475 385.459,306.475 C388.654,306.475 390.784,306.617 394.334,306.83 L395.044,303.635 L389.009,301.15 C388.299,296.606 388.299,291.636 388.299,284.11 L388.299,277.01 C398.736,286.595 410.451,297.955 420.888,306.83 L424.296,306.475 C423.799,296.819 423.799,292.985 423.799,284.11 C423.799,276.584 424.154,271.614 424.438,269.91 C424.864,267.212 425.574,265.224 427.704,264.585 L427.704,261.532 C425.574,261.674 423.799,261.745 420.959,261.745 Z" id="Path"></path>
            <path d="M465.192,299.872 C464.837,296.322 464.837,293.695 464.837,290.855 L464.837,280.915 C464.837,266.573 464.837,261.035 465.902,257.13 L463.772,255 C460.577,256.846 455.962,258.763 451.347,259.615 L451.347,262.668 L453.832,263.733 C454.116,266.005 454.187,269.484 454.187,275.661 C452.767,275.377 451.489,275.235 450.14,275.235 C439.987,275.235 432.177,281.767 432.177,292.488 C432.177,300.724 436.792,307.185 444.957,307.185 C448.72,306.049 451.631,304.416 454.187,301.505 L454.897,302.215 C454.897,304.345 454.684,305.055 454.187,306.475 L456.317,308.605 C459.512,306.759 463.417,304.842 467.677,303.99 L467.677,300.937 L465.192,299.872 Z M443.892,289.861 C443.892,283.258 446.377,279.85 449.501,279.85 C451.773,279.85 454.187,281.696 454.187,287.092 L454.187,296.535 C453.264,298.168 451.205,299.375 449.288,299.375 C446.235,299.375 443.892,296.322 443.892,289.861 Z" id="Shape"></path>
            <path d="M502.893,294.76 L499.485,293.695 C496.858,298.594 494.941,299.375 490.397,299.375 L484.22,299.375 C493.095,295.257 497.142,290.713 497.142,284.678 C497.142,278.217 491.533,275.235 486.066,275.235 C480.386,275.235 473.428,278.43 470.943,287.66 L474.351,288.796 C476.055,285.672 478.327,283.755 481.238,283.755 C483.865,283.755 485.427,285.175 485.427,288.086 C485.427,290.997 484.859,295.186 471.653,303.848 L472.363,306.901 C474.28,306.617 479.108,306.475 484.007,306.475 C490.752,306.475 495.012,306.475 499.982,306.688 C500.621,302.712 501.544,298.736 502.893,294.76 Z" id="Path"></path>
            <path d="M584.969,326.355 C595.477,326.355 602.577,324.012 611.168,319.042 L609.748,315.634 C601.725,319.184 596.187,319.965 588.306,319.965 C577.656,319.965 568.213,317.054 555.859,305.907 C565.444,302.854 572.473,294.76 572.473,283.613 C572.473,270.478 562.746,261.035 549.398,261.035 C535.695,261.035 524.193,270.336 524.193,284.607 C524.193,296.038 531.506,304.629 542.227,306.688 C556.711,320.746 568.781,326.355 584.969,326.355 Z M536.618,281.909 C536.618,270.691 541.943,266.005 547.623,266.005 C554.723,266.005 560.048,274.312 560.048,286.311 C560.048,297.529 554.723,302.215 549.043,302.215 C541.943,302.215 536.618,293.908 536.618,281.909 Z" id="Shape"></path>
            <path d="M598.104,299.02 C593.489,299.02 590.223,296.89 590.223,289.009 C590.223,282.69 592.353,279.85 594.767,279.85 C597.678,279.85 598.814,283.045 598.814,286.95 C603.429,286.95 606.624,285.459 606.624,281.767 C606.624,277.649 602.719,275.235 596.542,275.235 C586.673,275.235 578.863,281.554 578.863,291.92 C578.863,299.659 582.981,306.83 594.838,307.185 C600.234,306.049 603.429,303.564 606.624,300.227 L605.204,297.174 C602.435,298.594 600.589,299.02 598.104,299.02 Z" id="Path"></path>
            <path d="M617.7,275.945 L612.162,298.381 C622.741,299.091 628.208,302.073 628.208,307.114 C628.208,311.374 624.8,316.699 610.6,319.042 L611.452,322.095 C628.563,320.746 639.213,315.421 639.213,304.061 C639.213,294.973 632.326,289.861 619.404,289.08 L620.469,285.175 C625.794,284.678 632.326,284.465 638.361,284.465 L640.988,273.815 C634.527,275.235 624.161,275.661 617.7,275.945 Z" id="Path"></path>
            <path d="M684.937,301.86 C684.582,296.819 684.582,293.269 684.582,291.21 C684.582,284.465 684.44,279.992 685.647,276.655 L683.517,274.525 C678.902,276.655 672.228,278.43 665.483,279.14 L665.483,283.045 L670.808,283.897 C672.583,284.181 673.577,285.53 673.577,287.802 L673.577,291.21 C673.577,294.121 673.364,297.529 673.009,299.02 C672.583,300.866 671.234,302.925 665.057,303.635 L665.057,306.688 C672.157,306.546 675.423,306.475 679.186,306.475 C682.949,306.475 685.647,306.546 692.037,306.83 L692.747,303.635 L684.937,301.86 Z" id="Path"></path>
            <path d="M712.911,262.455 C703.681,262.455 697.291,267.425 697.291,275.59 C697.291,281.767 700.983,285.246 705.172,287.802 C699.492,289.648 697.362,293.695 697.362,297.458 C697.362,303.493 702.971,307.185 711.42,307.185 C721.005,307.185 727.395,302.428 727.395,295.044 C727.395,289.151 723.348,286.24 718.946,283.826 C723.987,281.909 727.111,278.572 727.111,273.46 C727.111,266.644 721.36,262.455 712.911,262.455 Z M706.947,296.322 C706.947,294.334 707.586,291.92 709.361,290.145 C713.692,292.346 717.455,294.263 717.455,297.884 C717.455,300.582 715.325,302.712 712.414,302.712 C709.219,302.712 706.947,300.085 706.947,296.322 Z M707.586,273.176 C707.586,269.981 709.645,267.425 712.272,267.425 C714.686,267.425 716.816,269.484 716.816,274.809 C716.816,276.939 716.461,279.211 714.757,281.625 C710.852,279.566 707.586,277.365 707.586,273.176 Z" id="Shape"></path>
            <path d="M739.039,294.405 C735.986,296.038 733.714,298.381 732.294,301.15 C733.714,303.919 735.986,306.262 739.039,307.895 C742.092,306.262 744.364,303.919 745.784,301.15 C744.364,298.381 742.092,296.038 739.039,294.405 Z" id="Path"></path>
            <path d="M831.055,326.355 C841.563,326.355 848.663,324.012 857.254,319.042 L855.834,315.634 C847.811,319.184 842.273,319.965 834.392,319.965 C823.742,319.965 814.299,317.054 801.945,305.907 C811.53,302.854 818.559,294.76 818.559,283.613 C818.559,270.478 808.832,261.035 795.484,261.035 C781.781,261.035 770.279,270.336 770.279,284.607 C770.279,296.038 777.592,304.629 788.313,306.688 C802.797,320.746 814.867,326.355 831.055,326.355 Z M782.704,281.909 C782.704,270.691 788.029,266.005 793.709,266.005 C800.809,266.005 806.134,274.312 806.134,286.311 C806.134,297.529 800.809,302.215 795.129,302.215 C788.029,302.215 782.704,293.908 782.704,281.909 Z" id="Shape"></path>
            <path d="M857.964,299.872 C857.609,296.322 857.609,293.695 857.609,290.855 L857.609,280.915 C857.609,266.573 857.609,261.035 858.674,257.13 L856.544,255 C853.349,256.846 848.734,258.763 844.119,259.615 L844.119,262.668 L846.604,263.733 C846.888,266.005 846.959,269.484 846.959,275.661 C845.539,275.377 844.261,275.235 842.912,275.235 C832.759,275.235 824.949,281.767 824.949,292.488 C824.949,300.724 829.564,307.185 837.729,307.185 C841.492,306.049 844.403,304.416 846.959,301.505 L847.669,302.215 C847.669,304.345 847.456,305.055 846.959,306.475 L849.089,308.605 C852.284,306.759 856.189,304.842 860.449,303.99 L860.449,300.937 L857.964,299.872 Z M836.664,289.861 C836.664,283.258 839.149,279.85 842.273,279.85 C844.545,279.85 846.959,281.696 846.959,287.092 L846.959,296.535 C846.036,298.168 843.977,299.375 842.06,299.375 C839.007,299.375 836.664,296.322 836.664,289.861 Z" id="Shape"></path>
            <path d="M871.028,297.387 L871.951,300.795 C873.016,300.511 874.01,300.156 875.004,299.872 C879.477,300.724 881.252,303.777 881.252,306.901 C881.252,312.51 875.217,317.551 863.786,319.042 L864.638,322.095 C881.465,321.314 892.754,314.356 892.754,303.635 C892.754,299.304 890.837,295.399 886.648,293.34 C889.204,290.784 890.624,287.944 890.624,284.749 C890.624,278.998 886.009,275.235 879.122,275.235 C871.738,275.235 866.91,279.566 864.07,287.305 L867.407,288.37 C869.75,285.317 871.738,283.755 875.004,283.755 C878.483,283.755 880.4,285.53 880.4,288.654 C880.4,292.346 877.276,294.76 871.028,297.387 Z" id="Path"></path>
            <path d="M960.843,306.688 L961.553,303.635 C958.926,302.925 955.802,299.375 954.169,296.535 C952.82,294.192 951.684,291.778 950.406,289.506 C947.921,285.175 946.43,283.968 943.59,283.116 C949.767,281.199 953.885,277.152 953.885,271.401 C953.885,264.869 948.418,261.035 938.336,261.035 C933.65,261.035 931.023,261.745 925.982,261.745 C922.929,261.745 920.444,261.674 917.249,261.532 L916.539,264.585 L920.089,266.36 C920.444,271.046 920.444,274.596 920.444,284.11 C920.444,293.269 920.16,296.819 919.805,299.02 C919.521,300.795 918.811,302.925 916.539,303.635 L916.539,306.688 C920.089,306.546 922.361,306.475 925.911,306.475 C929.461,306.475 931.094,306.546 934.644,306.83 L935.354,303.635 L931.804,301.86 C931.449,297.174 931.449,293.837 931.449,286.098 L932.159,286.098 C934.928,286.098 935.567,287.021 937.768,290.216 C938.762,291.707 941.105,296.535 943.661,300.511 C946.785,305.41 950.761,308.818 960.843,306.688 Z M931.449,281.128 C931.52,273.815 931.804,270.833 932.088,269.271 C932.585,266.857 933.721,266.005 935.851,266.005 C940.111,266.005 942.17,269.129 942.17,272.892 C942.17,276.655 940.111,281.128 935.425,281.128 L931.449,281.128 Z" id="Shape"></path>
            <path d="M980.368,275.164 C970.854,275.164 964.748,280.489 964.748,287.234 C964.748,290.784 966.239,293.766 969.363,295.541 C967.446,297.6 965.884,299.943 964.748,302.215 C964.535,306.049 965.742,308.747 967.872,310.38 C965.955,312.084 964.393,313.93 963.328,315.705 C962.973,322.45 968.724,324.935 976.25,324.935 C987.965,324.935 997.763,318.9 997.763,309.954 C997.763,304.345 993.858,301.15 985.338,301.15 L976.108,301.15 C974.333,301.15 972.7,300.369 972.7,298.594 C972.7,297.955 972.771,297.458 972.984,296.961 C974.546,297.316 976.25,297.529 978.238,297.529 C987.752,297.529 993.858,292.204 993.858,285.459 C993.858,282.832 993.077,280.56 991.373,278.856 C996.059,277.862 997.763,275.732 997.763,273.389 C997.763,269.839 995.278,268.419 990.308,268.419 C990.308,271.685 989.385,275.235 985.906,275.803 C984.273,275.377 982.427,275.164 980.368,275.164 Z M972.913,315.208 C972.913,313.788 973.268,312.794 973.907,311.8 L982.853,311.8 C985.622,311.8 987.113,313.007 987.113,314.853 C987.113,317.551 983.989,320.32 978.877,320.32 C974.475,320.32 972.913,318.261 972.913,315.208 Z M975.398,285.459 C975.398,281.696 976.818,279.424 978.948,279.424 C981.504,279.424 983.208,282.264 983.208,287.234 C983.208,291.707 981.788,293.979 979.658,293.979 C977.102,293.979 975.398,291.139 975.398,285.459 Z" id="Shape"></path>
            <path d="M1016.507,262.455 C1007.277,262.455 1000.887,267.425 1000.887,275.59 C1000.887,281.767 1004.579,285.246 1008.768,287.802 C1003.088,289.648 1000.958,293.695 1000.958,297.458 C1000.958,303.493 1006.567,307.185 1015.016,307.185 C1024.601,307.185 1030.991,302.428 1030.991,295.044 C1030.991,289.151 1026.944,286.24 1022.542,283.826 C1027.583,281.909 1030.707,278.572 1030.707,273.46 C1030.707,266.644 1024.956,262.455 1016.507,262.455 Z M1010.543,296.322 C1010.543,294.334 1011.182,291.92 1012.957,290.145 C1017.288,292.346 1021.051,294.263 1021.051,297.884 C1021.051,300.582 1018.921,302.712 1016.01,302.712 C1012.815,302.712 1010.543,300.085 1010.543,296.322 Z M1011.182,273.176 C1011.182,269.981 1013.241,267.425 1015.868,267.425 C1018.282,267.425 1020.412,269.484 1020.412,274.809 C1020.412,276.939 1020.057,279.211 1018.353,281.625 C1014.448,279.566 1011.182,277.365 1011.182,273.176 Z" id="Shape"></path>
            <path d="M1075.437,301.86 C1075.082,296.819 1075.082,293.269 1075.082,291.21 C1075.082,284.465 1074.94,279.992 1076.147,276.655 L1074.017,274.525 C1069.402,276.655 1062.728,278.43 1055.983,279.14 L1055.983,283.045 L1061.308,283.897 C1063.083,284.181 1064.077,285.53 1064.077,287.802 L1064.077,291.21 C1064.077,294.121 1063.864,297.529 1063.509,299.02 C1063.083,300.866 1061.734,302.925 1055.557,303.635 L1055.557,306.688 C1062.657,306.546 1065.923,306.475 1069.686,306.475 C1073.449,306.475 1076.147,306.546 1082.537,306.83 L1083.247,303.635 L1075.437,301.86 Z" id="Path"></path>
            <path d="M1099.79,300.795 C1102.133,300.227 1104.547,299.162 1106.535,297.529 L1105.683,294.476 C1104.334,294.973 1103.411,295.186 1102.488,295.186 C1099.648,295.186 1097.802,292.701 1097.802,288.157 C1097.802,282.406 1100.074,279.708 1102.63,279.708 C1105.825,279.708 1108.452,284.039 1108.452,293.056 C1108.452,306.546 1102.559,314.427 1090.347,319.042 L1091.199,322.095 C1111.292,317.338 1119.812,304.416 1119.812,292.843 C1119.812,283.613 1114.416,275.235 1103.482,275.235 C1094.465,275.235 1087.507,280.915 1087.507,289.364 C1087.507,296.393 1092.335,300.795 1099.79,300.795 Z" id="Path"></path>
            <path d="M1131.172,294.405 C1128.119,296.038 1125.847,298.381 1124.427,301.15 C1125.847,303.919 1128.119,306.262 1131.172,307.895 C1134.225,306.262 1136.497,303.919 1137.917,301.15 C1136.497,298.381 1134.225,296.038 1131.172,294.405 Z" id="Path"></path>
            <path d="M1206.006,306.688 L1206.716,303.635 C1204.089,302.925 1200.965,299.375 1199.332,296.535 C1197.983,294.192 1196.847,291.778 1195.569,289.506 C1193.084,285.175 1191.593,283.968 1188.753,283.116 C1194.93,281.199 1199.048,277.152 1199.048,271.401 C1199.048,264.869 1193.581,261.035 1183.499,261.035 C1178.813,261.035 1176.186,261.745 1171.145,261.745 C1168.092,261.745 1165.607,261.674 1162.412,261.532 L1161.702,264.585 L1165.252,266.36 C1165.607,271.046 1165.607,274.596 1165.607,284.11 C1165.607,293.269 1165.323,296.819 1164.968,299.02 C1164.684,300.795 1163.974,302.925 1161.702,303.635 L1161.702,306.688 C1165.252,306.546 1167.524,306.475 1171.074,306.475 C1174.624,306.475 1176.257,306.546 1179.807,306.83 L1180.517,303.635 L1176.967,301.86 C1176.612,297.174 1176.612,293.837 1176.612,286.098 L1177.322,286.098 C1180.091,286.098 1180.73,287.021 1182.931,290.216 C1183.925,291.707 1186.268,296.535 1188.824,300.511 C1191.948,305.41 1195.924,308.818 1206.006,306.688 Z M1176.612,281.128 C1176.683,273.815 1176.967,270.833 1177.251,269.271 C1177.748,266.857 1178.884,266.005 1181.014,266.005 C1185.274,266.005 1187.333,269.129 1187.333,272.892 C1187.333,276.655 1185.274,281.128 1180.588,281.128 L1176.612,281.128 Z" id="Shape"></path>
            <path d="M1231.992,307.185 C1235.613,306.617 1238.666,304.842 1241.08,302.215 L1239.66,299.162 C1238.95,299.588 1238.027,300.085 1237.104,300.085 C1235.897,300.085 1234.832,299.304 1234.832,297.103 C1234.832,294.192 1236.252,288.512 1236.252,284.323 C1236.252,277.862 1231.353,275.235 1222.833,275.235 C1214.739,276.939 1209.201,279.282 1209.201,284.11 C1209.201,287.66 1212.112,289.151 1216.372,288.441 C1216.372,283.045 1218.218,279.85 1221.413,279.85 C1224.324,279.85 1224.892,282.051 1224.892,285.601 L1224.821,288.512 C1211.118,290.429 1208.136,295.683 1208.136,299.73 C1208.136,304.558 1212.254,306.759 1216.301,307.185 C1219.851,306.475 1222.62,305.055 1225.247,303.28 C1226.454,305.552 1228.797,306.83 1231.992,307.185 Z M1218.786,297.387 C1218.786,295.328 1220.135,293.198 1224.679,291.849 C1224.608,294.263 1224.537,296.89 1224.537,299.02 C1223.401,299.659 1222.478,300.085 1221.413,300.085 C1219.709,300.085 1218.786,298.736 1218.786,297.387 Z" id="Shape"></path>
            <path d="M1260.463,307.185 C1265.859,306.333 1269.054,304.203 1272.249,300.582 L1270.829,297.529 C1268.06,298.665 1266.143,299.02 1264.013,299.02 C1259.114,299.02 1254.996,297.174 1254.499,290.145 L1272.391,290.145 C1272.675,288.725 1272.817,287.447 1272.817,286.24 C1272.817,279.353 1267.918,275.235 1260.818,275.235 C1250.878,275.235 1243.565,281.98 1243.565,291.423 C1243.565,300.156 1248.251,306.83 1260.463,307.185 Z M1254.57,286.24 C1254.925,282.122 1256.416,279.495 1258.901,279.495 C1261.315,279.495 1262.664,282.122 1262.948,286.24 L1254.57,286.24 Z" id="Shape"></path>
            <path d="M1298.732,301.86 C1298.377,296.819 1298.377,293.269 1298.377,291.21 C1298.377,284.465 1298.235,279.992 1299.442,276.655 L1297.312,274.525 C1292.697,276.655 1286.023,278.43 1279.278,279.14 L1279.278,283.045 L1284.603,283.897 C1286.378,284.181 1287.372,285.53 1287.372,287.802 L1287.372,291.21 C1287.372,294.121 1287.159,297.529 1286.804,299.02 C1286.378,300.866 1285.029,302.925 1278.852,303.635 L1278.852,306.688 C1285.952,306.546 1289.218,306.475 1292.981,306.475 C1296.744,306.475 1299.442,306.546 1305.832,306.83 L1306.542,303.635 L1298.732,301.86 Z" id="Path"></path>
            <path d="M1391.458,326.355 C1401.966,326.355 1409.066,324.012 1417.657,319.042 L1416.237,315.634 C1408.214,319.184 1402.676,319.965 1394.795,319.965 C1384.145,319.965 1374.702,317.054 1362.348,305.907 C1371.933,302.854 1378.962,294.76 1378.962,283.613 C1378.962,270.478 1369.235,261.035 1355.887,261.035 C1342.184,261.035 1330.682,270.336 1330.682,284.607 C1330.682,296.038 1337.995,304.629 1348.716,306.688 C1363.2,320.746 1375.27,326.355 1391.458,326.355 Z M1343.107,281.909 C1343.107,270.691 1348.432,266.005 1354.112,266.005 C1361.212,266.005 1366.537,274.312 1366.537,286.311 C1366.537,297.529 1361.212,302.215 1355.532,302.215 C1348.432,302.215 1343.107,293.908 1343.107,281.909 Z" id="Shape"></path>
            <path d="M1402.392,275.164 C1392.878,275.164 1386.772,280.489 1386.772,287.234 C1386.772,290.784 1388.263,293.766 1391.387,295.541 C1389.47,297.6 1387.908,299.943 1386.772,302.215 C1386.559,306.049 1387.766,308.747 1389.896,310.38 C1387.979,312.084 1386.417,313.93 1385.352,315.705 C1384.997,322.45 1390.748,324.935 1398.274,324.935 C1409.989,324.935 1419.787,318.9 1419.787,309.954 C1419.787,304.345 1415.882,301.15 1407.362,301.15 L1398.132,301.15 C1396.357,301.15 1394.724,300.369 1394.724,298.594 C1394.724,297.955 1394.795,297.458 1395.008,296.961 C1396.57,297.316 1398.274,297.529 1400.262,297.529 C1409.776,297.529 1415.882,292.204 1415.882,285.459 C1415.882,282.832 1415.101,280.56 1413.397,278.856 C1418.083,277.862 1419.787,275.732 1419.787,273.389 C1419.787,269.839 1417.302,268.419 1412.332,268.419 C1412.332,271.685 1411.409,275.235 1407.93,275.803 C1406.297,275.377 1404.451,275.164 1402.392,275.164 Z M1394.937,315.208 C1394.937,313.788 1395.292,312.794 1395.931,311.8 L1404.877,311.8 C1407.646,311.8 1409.137,313.007 1409.137,314.853 C1409.137,317.551 1406.013,320.32 1400.901,320.32 C1396.499,320.32 1394.937,318.261 1394.937,315.208 Z M1397.422,285.459 C1397.422,281.696 1398.842,279.424 1400.972,279.424 C1403.528,279.424 1405.232,282.264 1405.232,287.234 C1405.232,291.707 1403.812,293.979 1401.682,293.979 C1399.126,293.979 1397.422,291.139 1397.422,285.459 Z" id="Shape"></path>
            <path d="M1429.372,275.945 L1423.834,298.381 C1434.413,299.091 1439.88,302.073 1439.88,307.114 C1439.88,311.374 1436.472,316.699 1422.272,319.042 L1423.124,322.095 C1440.235,320.746 1450.885,315.421 1450.885,304.061 C1450.885,294.973 1443.998,289.861 1431.076,289.08 L1432.141,285.175 C1437.466,284.678 1443.998,284.465 1450.033,284.465 L1452.66,273.815 C1446.199,275.235 1435.833,275.661 1429.372,275.945 Z" id="Path"></path>
            <path d="M1506.052,294.76 L1502.644,293.695 C1500.017,298.594 1498.1,299.375 1493.556,299.375 L1487.379,299.375 C1496.254,295.257 1500.301,290.713 1500.301,284.678 C1500.301,278.217 1494.692,275.235 1489.225,275.235 C1483.545,275.235 1476.587,278.43 1474.102,287.66 L1477.51,288.796 C1479.214,285.672 1481.486,283.755 1484.397,283.755 C1487.024,283.755 1488.586,285.175 1488.586,288.086 C1488.586,290.997 1488.018,295.186 1474.812,303.848 L1475.522,306.901 C1477.439,306.617 1482.267,306.475 1487.166,306.475 C1493.911,306.475 1498.171,306.475 1503.141,306.688 C1503.78,302.712 1504.703,298.736 1506.052,294.76 Z" id="Path"></path>
            <path d="M1524.796,275.235 C1515.282,275.235 1507.472,281.838 1507.472,291.778 C1507.472,300.014 1512.797,307.185 1522.666,307.185 C1532.18,307.185 1539.99,300.582 1539.99,290.642 C1539.99,282.406 1534.665,275.235 1524.796,275.235 Z M1513.507,290.855 C1513.507,287.518 1516.986,285.53 1522.879,285.53 C1528.63,285.53 1533.955,287.447 1533.955,291.565 C1533.955,294.902 1530.476,296.89 1524.583,296.89 C1518.832,296.89 1513.507,294.973 1513.507,290.855 Z" id="Shape"></path>
            <path d="M1551.35,294.405 C1548.297,296.038 1546.025,298.381 1544.605,301.15 C1546.025,303.919 1548.297,306.262 1551.35,307.895 C1554.403,306.262 1556.675,303.919 1558.095,301.15 C1556.675,298.381 1554.403,296.038 1551.35,294.405 Z" id="Path"></path>
        </g>
    </g>
</svg>