<?xml version="1.0" encoding="UTF-8"?>
<svg width="602px" height="225px" viewBox="0 0 602 225" version="1.1" xmlns="http://www.w3.org/2000/svg" xmlns:xlink="http://www.w3.org/1999/xlink">
    <title>kajo</title>
    <defs>
        <ellipse id="path-1" cx="62.1540963" cy="65.0368059" rx="62.1540963" ry="65.0368059"></ellipse>
    </defs>
    <g id="Page-1" stroke="none" stroke-width="1" fill="none" fill-rule="evenodd">
        <g id="Extra-Large" transform="translate(-264.000000, -900.000000)">
            <g id="Group-2" transform="translate(0.000000, 549.000000)">
                <g id="dosis" transform="translate(226.000000, 325.000000)">
                    <g id="Group" transform="translate(28.005130, 207.110628)" fill="#FFFFFF" fill-rule="nonzero">
                        <g transform="translate(0.000000, 0.565082)" id="Path">
                            <path d="M24.7934059,32.5604384 C24.7934059,33.3398624 25.6127002,33.7295744 26.4319945,33.7295744 C27.2512888,33.7295744 28.070583,33.3398624 28.070583,32.5604384 L28.070583,6.37179135 C28.070583,5.59236733 27.2512888,5.24162652 26.4319945,5.24162652 C25.6127002,5.24162652 24.7934059,5.59236733 24.7934059,6.37179135 L24.7934059,17.5954972 L14.2206081,17.5954972 L14.2206081,6.37179135 C14.2206081,5.59236733 13.4013138,5.24162652 12.5820195,5.24162652 C11.7627252,5.24162652 10.9434309,5.59236733 10.9434309,6.37179135 L10.9434309,32.5604384 C10.9434309,33.3398624 11.7627252,33.7295744 12.5820195,33.7295744 C13.4013138,33.7295744 14.2206081,33.3398624 14.2206081,32.5604384 L14.2206081,20.3234813 L24.7934059,20.3234813 L24.7934059,32.5604384 Z"></path>
                        </g>
                        <g transform="translate(38.566663, 7.053787)" id="Shape">
                            <path d="M2.02872873,8.76852021 C1.13140641,8.76852021 0.429154154,9.23617462 0.429154154,9.89868504 L0.429154154,26.0717334 C0.429154154,26.6563014 1.13140641,27.2408694 2.02872873,27.2408694 C2.92605105,27.2408694 3.66731731,26.6563014 3.66731731,26.0717334 L3.66731731,9.89868504 C3.66731731,9.23617462 2.92605105,8.76852021 2.02872873,8.76852021 Z M2.02872873,-3.19744231e-14 C0.897322321,-3.19744231e-14 7.10542736e-15,0.85736642 7.10542736e-15,1.83164644 C7.10542736e-15,2.80592647 0.897322321,3.70226409 2.02872873,3.70226409 C3.12112112,3.70226409 4.01844344,2.80592647 4.01844344,1.83164644 C4.01844344,0.85736642 3.12112112,-3.19744231e-14 2.02872873,-3.19744231e-14 Z"></path>
                        </g>
                        <g transform="translate(51.987014, 15.588480)" id="Shape">
                            <path d="M7.76378878,-8.8817842e-15 C3.47224724,-8.8817842e-15 1.0658141e-14,3.39049448 1.0658141e-14,7.36555698 L1.0658141e-14,11.4575331 C1.0658141e-14,15.9781924 3.58928929,19.0179461 8.6611111,19.0179461 C12.4454705,19.0179461 14.8253253,17.264242 14.8253253,16.2509908 C14.8253253,15.6664228 14.2791291,14.7700852 13.4988488,14.7700852 C12.5234985,14.7700852 11.7042042,16.289962 8.77815314,16.289962 C5.53998998,16.289962 3.23816316,14.4583155 3.23816316,11.5744467 L3.23816316,10.4053106 L11.7822322,10.4053106 C13.5378628,10.4053106 15.2544795,10.288397 15.2544795,7.17070097 C15.2544795,3.00078247 11.7432182,-8.8817842e-15 7.76378878,-8.8817842e-15 Z M3.23816316,8.2229234 L3.23816316,6.81996016 C3.23816316,4.44271691 5.26689189,2.57209926 7.72477477,2.57209926 C10.2996997,2.57209926 12.1723724,4.67654411 12.1723724,6.97584497 C12.1723724,7.98909619 11.8212462,8.2229234 10.4557557,8.2229234 L3.23816316,8.2229234 Z"></path>
                        </g>
                        <g transform="translate(62.560520, 5.455968)" id="Path">
                            <path d="M23.6424925,13.0553523 C24.3057307,13.0553523 24.8909409,12.3928419 24.8909409,11.6134179 C24.8909409,10.8339939 24.3057307,10.1325122 23.6424925,10.1325122 L22.316016,10.1325122 C19.8971471,10.1325122 18.0634885,11.7303315 17.2051802,13.3281507 L17.2051802,11.4965043 C17.2051802,10.8339939 16.5419419,10.3663394 15.7226476,10.3663394 C14.7863113,10.3663394 14.1230731,10.8339939 14.1230731,11.4965043 L14.1230731,27.6695527 C14.1230731,28.2541207 14.7863113,28.8386887 15.7226476,28.8386887 C16.61997,28.8386887 17.3612362,28.2541207 17.3612362,27.6695527 L17.3612362,18.7841188 C17.3612362,15.2377396 19.8191191,13.0553523 22.316016,13.0553523 L23.6424925,13.0553523 Z"></path>
                        </g>
                        <g transform="translate(94.668477, 15.588480)" id="Shape">
                            <path d="M7.68576075,-8.8817842e-15 C3.47224724,-8.8817842e-15 1.59872116e-14,3.50740808 1.59872116e-14,7.48247058 L1.59872116e-14,11.4575331 C1.59872116e-14,15.4325956 3.55027527,19.0179461 7.68576075,19.0179461 C11.8212462,19.0179461 15.4105355,15.3936244 15.4105355,11.4575331 L15.4105355,7.48247058 C15.4105355,3.39049448 11.8212462,-8.8817842e-15 7.68576075,-8.8817842e-15 Z M12.1723724,11.4575331 C12.1723724,13.8347763 10.1436436,16.095106 7.68576075,16.095106 C5.22787787,16.095106 3.23816316,13.8347763 3.23816316,11.4575331 L3.23816316,7.48247058 C3.23816316,5.18316972 5.18886386,2.92284007 7.68576075,2.92284007 C10.1826576,2.92284007 12.1723724,5.18316972 12.1723724,7.48247058 L12.1723724,11.4575331 Z"></path>
                        </g>
                        <g transform="translate(107.913733, 5.455968)" id="Path">
                            <path d="M15.1569444,17.6149828 C15.1569444,14.7700852 17.3027152,13.0553523 19.4094719,13.0553523 C21.8283408,13.0553523 23.8570695,15.315682 23.8570695,17.6149828 L23.8570695,27.6695527 C23.8570695,28.4489767 24.6763638,28.8386887 25.4566441,28.8386887 C26.2759384,28.8386887 27.0952327,28.4489767 27.0952327,27.6695527 L27.0952327,17.6149828 C27.0952327,13.5230067 23.9350976,10.1325122 20.2287662,10.1325122 C17.6148273,10.1325122 15.7811686,11.5744467 15.0008884,13.0943235 L15.0008884,11.4965043 C15.0008884,10.8339939 14.2986361,10.3663394 13.5183558,10.3663394 C12.5820195,10.3663394 11.9187813,10.8339939 11.9187813,11.4965043 L11.9187813,27.6695527 C11.9187813,28.2541207 12.5820195,28.8386887 13.5183558,28.8386887 C14.3766641,28.8386887 15.1569444,28.2541207 15.1569444,27.6695527 L15.1569444,17.6149828 Z"></path>
                        </g>
                        <g transform="translate(130.287197, 1.266564)" id="Path">
                            <path d="M18.1805305,17.0888716 L23.0962963,17.0888716 C23.6815065,17.0888716 24.0716466,16.5043036 24.0716466,15.8417932 C24.0716466,15.1792828 23.6815065,14.5557435 23.0962963,14.5557435 L18.1805305,14.5557435 L18.1805305,7.07327297 C18.1805305,6.41076255 17.3612362,5.94310814 16.5419419,5.94310814 C15.8006757,5.94310814 14.9423673,6.41076255 14.9423673,7.07327297 L14.9423673,27.1434414 C14.9423673,31.2354175 17.2051802,33.0280928 21.4186937,33.0280928 L22.6281281,33.0280928 C23.5254504,33.0280928 24.0326326,32.3266112 24.0326326,31.5861584 C24.0326326,30.8457055 23.5254504,30.1831951 22.6281281,30.1831951 L21.4186937,30.1831951 C18.9998248,30.1831951 18.1805305,29.3647999 18.1805305,27.1434414 L18.1805305,17.0888716 Z"></path>
                        </g>
                        <g transform="translate(162.046317, 15.588480)" id="Shape">
                            <path d="M6.78843843,-8.8817842e-15 C4.21351351,-8.8817842e-15 1.24844845,1.05222243 1.24844845,2.26032965 C1.24844845,2.96181127 1.6776026,3.89712009 2.45788288,3.89712009 C3.16013513,3.89712009 3.97942942,2.76695527 6.7104104,2.76695527 C9.83153152,2.76695527 11.0019519,5.30008333 11.0019519,7.59938418 L11.0019519,8.4177794 L9.12927927,8.4177794 C3.70633133,8.4177794 0,9.50897303 0,13.8347763 C0,17.3811556 2.34084084,19.0179461 5.26689189,19.0179461 C7.88083082,19.0179461 9.79251751,17.5370404 11.158008,15.9781924 L11.158008,17.5370404 C11.158008,18.1995508 11.7822322,18.7061764 12.6405405,18.7061764 C13.5768769,18.7061764 14.2401151,18.1995508 14.2401151,17.5370404 L14.2401151,7.56041298 C14.2401151,3.66329289 12.2504004,-8.8817842e-15 6.78843843,-8.8817842e-15 Z M11.0019519,12.4318131 C11.0019519,14.2244883 8.50505504,16.4068756 6.28125625,16.4068756 C4.56463963,16.4068756 3.27717717,15.510538 3.27717717,13.4840355 C3.27717717,10.7170803 6.32027026,10.4053106 9.63646145,10.4053106 L11.0019519,10.4053106 L11.0019519,12.4318131 Z"></path>
                        </g>
                        <g transform="translate(172.831440, 5.436483)" id="Path">
                            <path d="M13.2842718,19.5050861 C13.2842718,20.3234813 13.7134259,20.8690781 14.4156782,20.8690781 L24.5593218,20.8690781 C25.144532,20.8690781 25.7297422,20.3234813 25.7297422,19.5050861 C25.7297422,18.725662 25.144532,18.1021228 24.5593218,18.1021228 L14.4156782,18.1021228 C13.7134259,18.1021228 13.2842718,18.725662 13.2842718,19.5050861 Z"></path>
                        </g>
                        <g transform="translate(221.074476, 5.144199)" id="Shape">
                            <path d="M9.16829328,29.5401703 C12.7575826,29.5401703 15.2934935,28.0202935 17.0101101,25.9158486 L19.9751752,29.0335447 C20.2872873,29.3453143 20.5603854,29.4622279 20.8334835,29.4622279 C21.5747497,29.4622279 22.35503,28.7997175 22.35503,28.0982359 C22.35503,27.9033799 22.277002,27.6695527 22.0819319,27.4357255 L18.6096847,23.7334614 C20.2482732,20.7326789 20.6384134,17.1862996 20.6384134,15.510538 C20.6384134,14.4193443 20.3263013,13.8737475 19.2339089,13.8737475 C18.1415165,13.8737475 17.8294044,14.2244883 17.7903904,15.0428836 C17.7513764,16.679674 17.6343343,19.2517733 16.5809559,21.6290165 L9.12927927,13.5230067 C7.37364864,11.6134179 5.38393393,9.50897303 5.38393393,6.93687377 C5.38393393,4.3258033 7.06153653,2.68901286 9.59744744,2.68901286 C13.0696947,2.68901286 13.4598348,5.49493933 14.7082833,5.49493933 C15.5275776,5.49493933 16.2298298,4.79345771 16.2298298,3.97506249 C16.2298298,2.68901286 13.888989,-5.06261699e-14 9.51941941,-5.06261699e-14 C5.46196196,-5.06261699e-14 2.14577077,2.45518566 2.14577077,6.74201776 C2.14577077,9.58691543 3.6283033,11.5744467 5.18886386,13.3671219 C2.53591091,14.6531715 3.55271368e-15,17.3032132 3.55271368e-15,21.1613621 C3.55271368e-15,25.6430502 3.43323323,29.5401703 9.16829328,29.5401703 Z M9.59744744,26.6173302 C5.53998998,26.6173302 3.31619119,23.9672886 3.31619119,20.8885637 C3.31619119,17.8877812 5.38393393,16.3679044 7.02252251,15.3546532 L15.0203954,23.850375 C13.928003,25.4871654 12.2504004,26.6173302 9.59744744,26.6173302 Z"></path>
                        </g>
                        <g transform="translate(253.942494, 0.000000)" id="Path">
                            <path d="M15.1569444,23.0709509 C15.1569444,20.2260533 17.3027152,18.5113204 19.4094719,18.5113204 C21.8283408,18.5113204 23.8570695,20.7716501 23.8570695,23.0709509 L23.8570695,33.1255208 C23.8570695,33.9049448 24.7153778,34.2946568 25.4566441,34.2946568 C26.2759384,34.2946568 27.0952327,33.9049448 27.0952327,33.1255208 L27.0952327,23.0709509 C27.0952327,18.9789749 23.9350976,15.5884804 20.2287662,15.5884804 C17.6928553,15.5884804 15.9372247,17.0304148 15.1569444,18.5502916 L15.1569444,5.80670894 C15.1569444,5.14419852 14.4156782,4.67654411 13.5183558,4.67654411 C12.5820195,4.67654411 11.9187813,5.14419852 11.9187813,5.80670894 L11.9187813,33.1255208 C11.9187813,33.7100888 12.5820195,34.2946568 13.5183558,34.2946568 C14.4156782,34.2946568 15.1569444,33.7100888 15.1569444,33.1255208 L15.1569444,23.0709509 Z"></path>
                        </g>
                        <g transform="translate(277.682855, 9.918171)" id="Path">
                            <path d="M18.1025025,23.4411774 C17.2832082,27.6500671 14.7082833,30.4559935 12.4454705,30.4559935 C11.7432182,30.4559935 11.5091341,31.1185039 11.5091341,31.8589568 C11.5091341,33.0280928 12.1723724,33.3008912 13.0306807,33.3008912 C17.9464464,33.3008912 19.8581331,27.8838943 21.4967217,23.5191198 L27.4268518,7.65784098 C27.5048798,7.54092738 27.5438939,7.38504258 27.5438939,7.26812897 C27.5438939,6.33282015 26.2174174,5.67030974 25.4371371,5.67030974 C25.007983,5.67030974 24.6178428,5.86516574 24.4227727,6.33282015 L19.7801051,19.8947981 L14.6302552,6.33282015 C14.4741992,5.86516574 14.045045,5.67030974 13.5768769,5.67030974 C12.7185686,5.67030974 11.4701201,6.37179135 11.4701201,7.22915777 C11.4701201,7.38504258 11.5481481,7.54092738 11.6261762,7.65784098 L18.1025025,23.4411774 Z"></path>
                        </g>
                        <g transform="translate(300.605019, 5.709281)" id="Path">
                            <path d="M18.0049674,28.2346351 C18.2000375,28.7022895 18.8242617,28.9361167 19.526514,28.9361167 C20.1507382,28.9361167 20.8139765,28.6633183 21.0090465,28.2346351 L27.4073448,12.0615867 C27.4853728,11.9057019 27.5634009,11.6718747 27.5634009,11.4380475 C27.5634009,10.6586235 26.1979104,10.0350842 25.4566441,10.0350842 C24.8714339,10.0350842 24.5983358,10.3468538 24.4032657,10.8145083 L19.526514,23.9088318 L14.5717342,10.6586235 C14.4156782,10.2299402 13.986524,10.0350842 13.5183558,10.0350842 C12.6600475,10.0350842 11.4506131,10.6586235 11.4506131,11.4380475 C11.4506131,11.6329035 11.5676551,11.9446731 11.6066692,12.0615867 L18.0049674,28.2346351 Z"></path>
                        </g>
                        <g transform="translate(336.359995, 7.053787)" id="Shape">
                            <path d="M2.02872873,8.76852021 C1.13140641,8.76852021 0.429154154,9.23617462 0.429154154,9.89868504 L0.429154154,26.0717334 C0.429154154,26.6563014 1.13140641,27.2408694 2.02872873,27.2408694 C2.92605105,27.2408694 3.66731731,26.6563014 3.66731731,26.0717334 L3.66731731,9.89868504 C3.66731731,9.23617462 2.92605105,8.76852021 2.02872873,8.76852021 Z M2.02872873,-2.84217094e-14 C0.897322321,-2.84217094e-14 0,0.85736642 0,1.83164644 C0,2.80592647 0.897322321,3.70226409 2.02872873,3.70226409 C3.12112112,3.70226409 4.01844344,2.80592647 4.01844344,1.83164644 C4.01844344,0.85736642 3.12112112,-2.84217094e-14 2.02872873,-2.84217094e-14 Z"></path>
                        </g>
                        <g transform="translate(338.563818, 5.455968)" id="Path">
                            <path d="M15.1569444,17.6149828 C15.1569444,14.7700852 17.3027152,13.0553523 19.4094719,13.0553523 C21.8283408,13.0553523 23.8570695,15.315682 23.8570695,17.6149828 L23.8570695,27.6695527 C23.8570695,28.4489767 24.6763638,28.8386887 25.4566441,28.8386887 C26.2759384,28.8386887 27.0952327,28.4489767 27.0952327,27.6695527 L27.0952327,17.6149828 C27.0952327,13.5230067 23.9350976,10.1325122 20.2287662,10.1325122 C17.6148273,10.1325122 15.7811686,11.5744467 15.0008884,13.0943235 L15.0008884,11.4965043 C15.0008884,10.8339939 14.2986361,10.3663394 13.5183558,10.3663394 C12.5820195,10.3663394 11.9187813,10.8339939 11.9187813,11.4965043 L11.9187813,27.6695527 C11.9187813,28.2541207 12.5820195,28.8386887 13.5183558,28.8386887 C14.3766641,28.8386887 15.1569444,28.2541207 15.1569444,27.6695527 L15.1569444,17.6149828 Z"></path>
                        </g>
                        <g transform="translate(362.362699, 5.709281)" id="Path">
                            <path d="M18.0049674,28.2346351 C18.2000375,28.7022895 18.8242617,28.9361167 19.526514,28.9361167 C20.1507382,28.9361167 20.8139765,28.6633183 21.0090465,28.2346351 L27.4073448,12.0615867 C27.4853728,11.9057019 27.5634009,11.6718747 27.5634009,11.4380475 C27.5634009,10.6586235 26.1979104,10.0350842 25.4566441,10.0350842 C24.8714339,10.0350842 24.5983358,10.3468538 24.4032657,10.8145083 L19.526514,23.9088318 L14.5717342,10.6586235 C14.4156782,10.2299402 13.986524,10.0350842 13.5183558,10.0350842 C12.6600475,10.0350842 11.4506131,10.6586235 11.4506131,11.4380475 C11.4506131,11.6329035 11.5676551,11.9446731 11.6066692,12.0615867 L18.0049674,28.2346351 Z"></path>
                        </g>
                        <g transform="translate(397.847376, 15.588480)" id="Shape">
                            <path d="M7.68576075,-8.8817842e-15 C3.47224724,-8.8817842e-15 -1.24344979e-14,3.50740808 -1.24344979e-14,7.48247058 L-1.24344979e-14,11.4575331 C-1.24344979e-14,15.4325956 3.55027527,19.0179461 7.68576075,19.0179461 C11.8212462,19.0179461 15.4105355,15.3936244 15.4105355,11.4575331 L15.4105355,7.48247058 C15.4105355,3.39049448 11.8212462,-8.8817842e-15 7.68576075,-8.8817842e-15 Z M12.1723724,11.4575331 C12.1723724,13.8347763 10.1436436,16.095106 7.68576075,16.095106 C5.22787787,16.095106 3.23816316,13.8347763 3.23816316,11.4575331 L3.23816316,7.48247058 C3.23816316,5.18316972 5.18886386,2.92284007 7.68576075,2.92284007 C10.1826576,2.92284007 12.1723724,5.18316972 12.1723724,7.48247058 L12.1723724,11.4575331 Z"></path>
                        </g>
                        <g transform="translate(422.582260, 7.053787)" id="Shape">
                            <path d="M2.02872873,8.76852021 C1.13140641,8.76852021 0.429154154,9.23617462 0.429154154,9.89868504 L0.429154154,26.0717334 C0.429154154,26.6563014 1.13140641,27.2408694 2.02872873,27.2408694 C2.92605105,27.2408694 3.66731731,26.6563014 3.66731731,26.0717334 L3.66731731,9.89868504 C3.66731731,9.23617462 2.92605105,8.76852021 2.02872873,8.76852021 Z M2.02872873,-2.84217094e-14 C0.897322321,-2.84217094e-14 1.0658141e-14,0.85736642 1.0658141e-14,1.83164644 C1.0658141e-14,2.80592647 0.897322321,3.70226409 2.02872873,3.70226409 C3.12112112,3.70226409 4.01844344,2.80592647 4.01844344,1.83164644 C4.01844344,0.85736642 3.12112112,-2.84217094e-14 2.02872873,-2.84217094e-14 Z"></path>
                        </g>
                        <g transform="translate(424.786082, 5.455968)" id="Path">
                            <path d="M15.1569444,17.6149828 C15.1569444,14.7700852 17.3027152,13.0553523 19.4094719,13.0553523 C21.8283408,13.0553523 23.8570695,15.315682 23.8570695,17.6149828 L23.8570695,27.6695527 C23.8570695,28.4489767 24.6763638,28.8386887 25.4566441,28.8386887 C26.2759384,28.8386887 27.0952327,28.4489767 27.0952327,27.6695527 L27.0952327,17.6149828 C27.0952327,13.5230067 23.9350976,10.1325122 20.2287662,10.1325122 C17.6148273,10.1325122 15.7811686,11.5744467 15.0008884,13.0943235 L15.0008884,11.4965043 C15.0008884,10.8339939 14.2986361,10.3663394 13.5183558,10.3663394 C12.5820195,10.3663394 11.9187813,10.8339939 11.9187813,11.4965043 L11.9187813,27.6695527 C11.9187813,28.2541207 12.5820195,28.8386887 13.5183558,28.8386887 C14.3766641,28.8386887 15.1569444,28.2541207 15.1569444,27.6695527 L15.1569444,17.6149828 Z"></path>
                        </g>
                        <g transform="translate(447.159545, 1.266564)" id="Path">
                            <path d="M18.1805305,17.0888716 L23.0962963,17.0888716 C23.6815065,17.0888716 24.0716466,16.5043036 24.0716466,15.8417932 C24.0716466,15.1792828 23.6815065,14.5557435 23.0962963,14.5557435 L18.1805305,14.5557435 L18.1805305,7.07327297 C18.1805305,6.41076255 17.3612362,5.94310814 16.5419419,5.94310814 C15.8006757,5.94310814 14.9423673,6.41076255 14.9423673,7.07327297 L14.9423673,27.1434414 C14.9423673,31.2354175 17.2051802,33.0280928 21.4186937,33.0280928 L22.6281281,33.0280928 C23.5254504,33.0280928 24.0326326,32.3266112 24.0326326,31.5861584 C24.0326326,30.8457055 23.5254504,30.1831951 22.6281281,30.1831951 L21.4186937,30.1831951 C18.9998248,30.1831951 18.1805305,29.3647999 18.1805305,27.1434414 L18.1805305,17.0888716 Z"></path>
                        </g>
                        <g transform="translate(479.698946, 7.053787)" id="Shape">
                            <path d="M2.02872873,8.76852021 C1.13140641,8.76852021 0.429154154,9.23617462 0.429154154,9.89868504 L0.429154154,26.0717334 C0.429154154,26.6563014 1.13140641,27.2408694 2.02872873,27.2408694 C2.92605105,27.2408694 3.66731731,26.6563014 3.66731731,26.0717334 L3.66731731,9.89868504 C3.66731731,9.23617462 2.92605105,8.76852021 2.02872873,8.76852021 Z M2.02872873,-2.84217094e-14 C0.897322321,-2.84217094e-14 4.61852778e-14,0.85736642 4.61852778e-14,1.83164644 C4.61852778e-14,2.80592647 0.897322321,3.70226409 2.02872873,3.70226409 C3.12112112,3.70226409 4.01844344,2.80592647 4.01844344,1.83164644 C4.01844344,0.85736642 3.12112112,-2.84217094e-14 2.02872873,-2.84217094e-14 Z"></path>
                        </g>
                        <g transform="translate(479.639955, 5.611853)" id="Path">
                            <path d="M19.3314439,26.383503 C15.8982107,26.383503 15.0789164,24.5518566 14.1815941,24.5518566 C13.5183558,24.5518566 13.0501877,25.4481942 13.0501877,26.0327622 C13.0501877,27.3577831 15.7031406,28.9945735 19.448486,28.9945735 C23.6229855,28.9945735 25.9638263,26.968071 25.9638263,23.7724326 C25.9638263,16.7186452 16.4053929,19.2907445 16.4053929,15.315682 C16.4053929,14.1465459 17.3417292,12.5876979 19.9556681,12.5876979 C22.218481,12.5876979 23.4279154,13.7178627 24.1301676,13.7178627 C24.9104479,13.7178627 25.4176301,12.5876979 25.4176301,12.0810723 C25.4176301,10.9898787 22.6476351,9.97662744 19.9166541,9.97662744 C15.2349725,9.97662744 13.5183558,12.8604963 13.5183558,15.4325956 C13.5183558,21.9018149 23.0377752,19.2128021 23.0377752,23.9283174 C23.0377752,25.1753958 22.1404529,26.383503 19.3314439,26.383503 Z"></path>
                        </g>
                        <g transform="translate(499.945945, 1.266564)" id="Path">
                            <path d="M18.1805305,17.0888716 L23.0962963,17.0888716 C23.6815065,17.0888716 24.0716466,16.5043036 24.0716466,15.8417932 C24.0716466,15.1792828 23.6815065,14.5557435 23.0962963,14.5557435 L18.1805305,14.5557435 L18.1805305,7.07327297 C18.1805305,6.41076255 17.3612362,5.94310814 16.5419419,5.94310814 C15.8006757,5.94310814 14.9423673,6.41076255 14.9423673,7.07327297 L14.9423673,27.1434414 C14.9423673,31.2354175 17.2051802,33.0280928 21.4186937,33.0280928 L22.6281281,33.0280928 C23.5254504,33.0280928 24.0326326,32.3266112 24.0326326,31.5861584 C24.0326326,30.8457055 23.5254504,30.1831951 22.6281281,30.1831951 L21.4186937,30.1831951 C18.9998248,30.1831951 18.1805305,29.3647999 18.1805305,27.1434414 L18.1805305,17.0888716 Z"></path>
                        </g>
                        <g transform="translate(520.956704, 5.728767)" id="Path">
                            <path d="M19.526514,28.8776599 C23.7010135,28.8776599 27.2122747,25.3702518 27.2122747,21.3951893 L27.2122747,11.2237059 C27.2122747,10.6391379 26.5490365,10.093541 25.6127002,10.093541 C24.7153778,10.093541 23.9741116,10.6391379 23.9741116,11.2237059 L23.9741116,21.3951893 C23.9741116,23.7334614 21.9843969,25.9548198 19.526514,25.9548198 C17.0296171,25.9548198 15.0399024,23.6944902 15.0399024,21.3951893 L15.0399024,11.2626771 C15.0399024,10.6781091 14.2596221,10.093541 13.4403278,10.093541 C12.5039915,10.093541 11.8017392,10.6781091 11.8017392,11.2626771 L11.8017392,21.3951893 C11.8017392,25.3312806 15.2739865,28.8776599 19.526514,28.8776599 Z"></path>
                        </g>
                        <g transform="translate(557.765701, 4.676544)" id="Shape">
                            <path d="M13.7329329,5.06261699e-14 C12.8356106,5.06261699e-14 12.0943443,0.467654411 12.0943443,1.13016483 L12.0943443,13.8737475 C11.236036,12.3538707 9.48040539,10.9119363 6.9835085,10.9119363 C3.16013513,10.9119363 2.84217094e-14,14.3024307 2.84217094e-14,18.3944068 L2.84217094e-14,22.3694693 C2.84217094e-14,26.3055606 3.19914915,29.9298823 6.86646646,29.9298823 C9.32434934,29.9298823 11.4311061,28.4879479 12.2504004,26.8901286 L12.2504004,28.4489767 C12.2504004,29.0335447 12.9136386,29.6181127 13.7329329,29.6181127 C14.6692693,29.6181127 15.3325075,29.0335447 15.3325075,28.4489767 L15.3325075,1.13016483 C15.3325075,0.467654411 14.6692693,5.06261699e-14 13.7329329,5.06261699e-14 Z M3.23816316,18.3944068 C3.23816316,16.095106 5.22787787,13.8347763 7.68576075,13.8347763 C9.87054553,13.8347763 12.0943443,15.5495092 12.0943443,18.3944068 L12.0943443,23.4216918 C12.0943443,24.4739142 10.1826576,27.0070422 7.64674674,27.0070422 C5.26689189,27.0070422 3.23816316,24.7077414 3.23816316,22.3694693 L3.23816316,18.3944068 Z"></path>
                        </g>
                        <g transform="translate(583.163984, 7.053787)" id="Shape">
                            <path d="M2.02872873,8.76852021 C1.13140641,8.76852021 0.429154154,9.23617462 0.429154154,9.89868504 L0.429154154,26.0717334 C0.429154154,26.6563014 1.13140641,27.2408694 2.02872873,27.2408694 C2.92605105,27.2408694 3.66731731,26.6563014 3.66731731,26.0717334 L3.66731731,9.89868504 C3.66731731,9.23617462 2.92605105,8.76852021 2.02872873,8.76852021 Z M2.02872873,-2.84217094e-14 C0.897322321,-2.84217094e-14 2.13162821e-14,0.85736642 2.13162821e-14,1.83164644 C2.13162821e-14,2.80592647 0.897322321,3.70226409 2.02872873,3.70226409 C3.12112112,3.70226409 4.01844344,2.80592647 4.01844344,1.83164644 C4.01844344,0.85736642 3.12112112,-2.84217094e-14 2.02872873,-2.84217094e-14 Z"></path>
                        </g>
                        <g transform="translate(596.584335, 15.588480)" id="Shape">
                            <path d="M7.68576075,-8.8817842e-15 C3.47224724,-8.8817842e-15 -3.19744231e-14,3.50740808 -3.19744231e-14,7.48247058 L-3.19744231e-14,11.4575331 C-3.19744231e-14,15.4325956 3.55027527,19.0179461 7.68576075,19.0179461 C11.8212462,19.0179461 15.4105355,15.3936244 15.4105355,11.4575331 L15.4105355,7.48247058 C15.4105355,3.39049448 11.8212462,-8.8817842e-15 7.68576075,-8.8817842e-15 Z M12.1723724,11.4575331 C12.1723724,13.8347763 10.1436436,16.095106 7.68576075,16.095106 C5.22787787,16.095106 3.23816316,13.8347763 3.23816316,11.4575331 L3.23816316,7.48247058 C3.23816316,5.18316972 5.18886386,2.92284007 7.68576075,2.92284007 C10.1826576,2.92284007 12.1723724,5.18316972 12.1723724,7.48247058 L12.1723724,11.4575331 Z"></path>
                        </g>
                    </g>
                    <g id="Group">
                        <g transform="translate(509.805851, 30.529027)" id="Clipped">
                            <mask id="mask-2" fill="white">
                                <use xlink:href="#path-1"></use>
                            </mask>
                            <g id="Oval"></g>
                            <g id="Group" mask="url(#mask-2)" fill="#FFFFFF" fill-rule="nonzero">
                                <g transform="translate(5.369126, 45.680207)" id="Path">
                                    <path d="M1.47137438,25.3084991 C1.47137438,25.3084991 -1.64452064,32.6999837 1.19233901,46.7551601 C1.19233901,46.7551601 6.92289884,32.0341307 22.7710747,29.3603954 C22.7710747,29.3603954 26.9824419,28.6945424 27.3648237,30.3927256 C27.7472055,32.0909089 26.8480915,31.1514884 26.9152667,32.4522245 C26.9876092,33.7529606 27.3028158,34.9349787 29.7159551,33.9439417 C32.1290944,32.9529047 31.1989765,27.4815543 26.6879046,26.2840512 C26.6879046,26.2840512 30.501388,24.6013529 32.7698423,27.4660694 C35.0382965,30.3307858 33.9273223,31.2495597 33.9273223,31.2495597 C33.9273223,31.2495597 33.1522241,32.0392924 33.3847536,33.2367955 C33.617283,34.4291369 35.5291921,35.0691817 36.8261898,33.5155246 C38.1231876,31.9618676 37.9009928,27.9770728 35.9477451,26.2943745 C35.9477451,26.2943745 40.5414942,25.9898371 41.1719074,31.1979432 C41.1719074,31.1979432 35.6325385,33.7477989 37.1310618,38.1919807 C38.6295851,42.6361624 47.8119159,42.7393954 48.4009906,35.3427492 C48.9848979,27.9461029 46.0911978,9.16285398 16.2499146,15.5736249 C16.2499146,15.5736249 6.94356813,17.7002252 1.47137438,25.3084991 Z"></path>
                                    <path d="M19.484658,13.4367012 C19.484658,13.4367012 28.3517822,-4.61875489 51.6409013,2.09139175 C51.6409013,2.09139175 58.9578289,-2.86895511 67.0601895,2.4888389 C75.16255,7.84663291 71.6539385,14.4328999 70.3621081,15.289734 C69.0702776,16.1465681 67.1790379,15.9091322 66.233418,14.861317 C65.2929654,13.8135018 65.5875028,11.4494655 67.277217,11.0107251 C67.277217,11.0107251 67.4529059,5.73551754 60.3271692,7.48015567 C60.3271692,7.48015567 63.6652591,10.9797552 62.3372574,13.4676711 C61.1901119,14.8406704 58.8338132,14.7116291 58.2085673,12.8998895 C57.9657032,12.1927433 57.7900142,11.1500897 58.6322877,10.7784508 C58.6322877,10.7784508 54.0075347,4.35735666 43.6108833,5.96779185 C33.2090646,7.57822705 29.1940556,12.832788 28.8736817,13.1063555 C28.558475,13.3850847 27.0031112,12.0585403 19.484658,13.4367012 Z"></path>
                                    <path d="M30.677077,13.5502576 C30.677077,13.5502576 40.7533544,3.81022162 52.1886374,9.47255306 C52.1886374,9.47255306 57.8571894,12.0585403 57.433469,17.1892217 C57.4386363,18.2576835 57.0924258,19.5326114 56.1054673,20.0900697 C54.2503988,21.1430466 51.9974465,19.3984084 52.5606846,17.3337479 C52.5606846,17.3337479 53.1084207,16.1052749 54.0643752,15.8162225 C54.0643752,15.8162225 51.651236,11.2842927 45.4349479,12.848273 C45.4349479,12.848273 50.7211181,14.2006256 50.9484802,17.9737927 C50.9484802,17.9737927 52.0284505,21.5869486 47.4553707,21.788253 C47.4553707,21.788253 45.7036486,21.2462796 45.3832747,19.5997128 C45.0680681,17.9531461 46.0705285,17.5969921 46.2410501,17.5763455 C46.4115717,17.5556989 44.2206273,12.9102128 39.2238271,15.4187753 C39.2289945,15.4187753 32.3977951,13.3541148 30.677077,13.5502576 Z"></path>
                                    <path d="M1.96226995,51.7929318 C1.96226995,51.7929318 5.80159002,40.2772878 15.3146294,36.1582901 C24.8276687,32.0392924 34.4905604,36.7983348 36.2732864,40.9431408 C38.0560124,45.0879468 35.4413476,47.4984379 33.8033066,47.4623064 C32.1704329,47.4261748 31.1576379,46.2699649 31.1886418,44.6388831 C31.2248131,43.0078013 32.8731887,42.2232303 32.8731887,42.2232303 C32.8731887,42.2232303 30.9251084,38.1558491 24.0112319,39.2294726 C24.0112319,39.2294726 28.6669888,41.1083136 29.2870674,43.8233422 C29.2870674,43.8233422 31.5193504,48.3191405 26.7447451,48.7836891 C26.7447451,48.7836891 23.1741258,48.6340012 24.5951392,44.9743904 C24.5951392,44.9743904 23.675356,40.5508553 18.9369219,43.5652597 C14.1984879,46.5848256 14.2501611,52.278127 14.2501611,52.278127 C14.2501611,52.278127 7.66699317,58.4875935 6.5818556,61.0580995 C6.5818556,61.0632574 2.60818517,55.6693319 1.96226995,51.7929318 Z"></path>
                                    <path d="M6.82471973,62.0801027 C6.82471973,62.0801027 12.5397776,52.840747 19.8360359,50.9670676 C27.1374616,49.0933882 33.6896255,50.3321845 36.3921348,54.8331444 C39.0946441,59.3341043 38.2472033,63.3911622 35.735885,64.7435148 C33.2245666,66.0958674 29.3025694,63.5460117 30.6874116,60.5883855 C30.6874116,60.5883855 27.2511426,56.7584403 22.9002577,62.6375611 C22.9002577,62.6375611 28.108918,61.424573 28.6101483,65.0841838 C29.1113785,68.7437945 24.5641353,69.6470835 22.7245688,67.4275734 C20.8850022,65.2080634 15.9863812,67.5462914 15.9553773,73.5389685 C15.9605446,73.5338069 8.05970963,65.997796 6.82471973,62.0801027 Z"></path>
                                    <path d="M21.2467148,67.685656 C21.1950415,67.5204832 16.1569028,69.2599596 17.6399242,75.3661931 C17.6399242,75.3661931 31.2868209,89.9375346 54.0798772,88.4819489 C54.0798772,88.4819489 41.1667401,82.1073096 38.6605891,78.7470747 C38.6605891,78.7470747 56.8650636,87.7077013 63.7169323,87.3102541 C63.7169323,87.3102541 80.8672732,81.8285805 87.04739,73.7505962 C87.04739,73.7505962 60.6423758,84.2803648 50.0183623,78.0657367 C39.3943488,71.8511086 39.9369175,63.3808388 41.4716121,60.2012617 C41.4716121,60.2012617 41.6111298,71.4072066 48.9642287,75.1390804 C56.3173275,78.8709543 60.3633405,77.6837745 60.3633405,77.6837745 C60.3633405,77.6837745 52.8035487,77.291489 52.4676728,72.362112 C52.1317969,67.4327351 55.4750541,67.6650094 55.8626032,68.692178 C56.2501523,69.7193466 55.8005953,71.7788455 58.5031046,71.7169056 C61.2004466,71.6498042 62.4871097,67.1333593 58.8131439,65.6571271 C55.1391782,64.1860564 63.2260367,61.0219642 63.0658497,64.7073832 C63.0658497,64.7073832 61.5053186,68.3876406 64.6987234,68.7850877 C64.6987234,68.7850877 67.9438015,69.6109519 67.390898,64.3563909 C66.8379946,59.10183 61.0764309,57.6772142 56.4465106,58.3843604 C56.4465106,58.3843604 48.6180181,60.7380734 47.1091601,67.7734041 C47.1091601,67.7734041 43.5643774,65.1925784 45.08357,59.752198 C46.6079299,54.3118176 50.2973977,50.8999661 56.6532034,52.9181717 C56.6532034,52.9181717 57.3817958,56.7532786 60.1256437,56.3351849 C62.8694915,55.9170911 62.812651,51.1270788 59.6709193,50.4560641 C59.6709193,50.4560641 59.8982815,47.2868102 64.1251507,47.5603777 C64.1251507,47.5603777 66.4556128,48.0610579 66.3264298,49.1243581 C66.1920794,50.1876582 65.8975421,52.056176 67.7629452,53.0523747 C69.6283484,54.0485734 73.4521665,53.1452844 72.9819402,49.2792076 C72.5117139,45.4131308 68.6207206,45.0156837 68.0781518,44.8608341 C67.5355831,44.7059846 70.37761,40.7676447 73.2403063,40.6489267 C76.1081698,40.5250471 75.8291345,42.5638993 75.5035932,43.4775116 C75.1780519,44.3911239 75.5914377,46.342228 77.2553153,47.1061524 C78.9191929,47.8649152 84.8047724,46.7138669 81.5751963,38.8165405 C78.3456202,30.9192141 64.5178671,29.9797935 55.8419339,41.9393395 C55.8419339,41.9393395 41.2029114,38.8320254 33.4984346,50.6676918 C33.4984346,50.6676918 37.8389849,53.3672354 38.4435616,56.1751737 C39.0481382,58.9779503 40.0919372,62.5188431 36.6608356,65.2029017 C36.6608356,65.2029017 34.9917906,67.0094797 31.4263386,65.22871 C31.4263386,65.22871 29.183721,64.0363686 29.5661028,60.7071035 C29.5661028,60.7071035 28.5533077,60.077382 27.2511426,60.2373932 L26.8377569,61.9717081 C26.8377569,61.9717081 28.9873627,62.4104484 29.2715654,64.2944511 C29.5609355,66.1784538 29.457589,68.692178 26.1660051,69.3838393 C26.1660051,69.3838393 27.2046367,77.4566618 32.7181691,83.537087 C32.7233364,83.537087 25.4787513,81.9163285 21.2467148,67.685656 Z"></path>
                                </g>
                            </g>
                        </g>
                        <g fill="#FFFFFF" fill-rule="nonzero">
                            <g id="Path">
                                <polygon points="126.935662 160.981196 150.256179 160.981196 86.1721559 82.0057153 138.880317 28.4084464 129.210834 28.4084464 69.2979604 89.7706907 57.3533051 89.7706907 57.3533051 28.4084464 39.3415233 28.4084464 39.3415233 160.981196 57.3533051 160.981196 57.3533051 96.5887178 72.5211213 96.5887178"></polygon>
                            </g>
                            <g transform="translate(194.243234, 27.082719)" id="Shape">
                                <path d="M104.84753,133.898477 L124.565691,133.898477 L61.9984488,4.26325641e-14 L59.5336787,4.26325641e-14 L-2.13162821e-14,133.898477 L7.58390811,133.898477 L23.8893105,96.9674971 L87.5941387,96.9674971 L104.84753,133.898477 Z M26.9228738,90.14947 L54.7937361,26.7039396 L84.3709777,90.14947 L26.9228738,90.14947 Z"></path>
                            </g>
                            <g transform="translate(311.414283, 0.852253)" id="Path">
                                <path d="M118.498564,27.556193 L118.498564,126.038807 C118.498564,143.462654 107.122702,153.879085 90.2485065,153.879085 C72.9951156,153.879085 61.0504603,142.136927 61.0504603,123.766132 L53.0873568,123.766132 C53.0873568,146.682278 68.8239661,161.83345 94.2300583,161.83345 C118.119369,161.83345 136.510346,147.061058 136.510346,121.114677 L136.510346,27.556193 L118.498564,27.556193 Z"></path>
                            </g>
                            <g transform="translate(503.856341, 26.514550)" id="Shape">
                                <path d="M67.8759776,7.10542736e-15 C32.2316095,7.10542736e-15 3.55271368e-15,28.2190568 3.55271368e-15,68.1802714 C3.55271368e-15,108.141486 32.2316095,136.360543 67.8759776,136.360543 C103.330748,136.360543 135.751955,108.141486 135.751955,68.1802714 C135.751955,28.2190568 103.330748,7.10542736e-15 67.8759776,7.10542736e-15 Z M67.8759776,129.542516 C38.6779314,129.542516 19.3389657,106.815759 19.3389657,68.1802714 C19.3389657,29.5447843 38.6779314,6.81802714 67.8759776,6.81802714 C97.0740238,6.81802714 116.412989,29.5447843 116.412989,68.1802714 C116.412989,106.815759 97.0740238,129.542516 67.8759776,129.542516 Z"></path>
                            </g>
                        </g>
                    </g>
                </g>
            </g>
        </g>
    </g>
</svg>