<?xml version="1.0" encoding="UTF-8"?>
<svg width="471px" height="138px" viewBox="0 0 471 138" version="1.1" xmlns="http://www.w3.org/2000/svg" xmlns:xlink="http://www.w3.org/1999/xlink">
    <title>致去年夏天 三位死去的女孩</title>
    <g id="Page-1" stroke="none" stroke-width="1" fill="none" fill-rule="evenodd">
        <g id="致去年夏天-三位死去的女孩" transform="translate(0.972755, 0.534180)" fill="#48453E" fill-rule="nonzero">
            <path d="M17.2655261,9.22167969 C17.404198,9.12923177 17.6584298,9.08300781 18.0282214,9.08300781 C18.5829089,9.08300781 19.0798165,9.22167969 19.5189441,9.49902344 C19.9580717,9.77636719 20.1776355,10.1692708 20.1776355,10.6777344 C20.1776355,11.3248698 19.8078438,11.7524414 19.0682605,11.9604492 C18.3286771,12.168457 17.334862,12.2724609 16.0868152,12.2724609 L14.7000964,12.2724609 C13.6369454,12.2724609 12.966698,12.3417969 12.6893542,12.4804688 C12.4582344,12.5266927 11.9151029,14.1445312 11.0599597,17.3339844 C10.2048165,20.5234375 9.75413288,22.4417318 9.70790892,23.0888672 C9.70790892,23.273763 9.75413288,23.5048828 9.8465808,23.7822266 C10.1701485,23.7822266 10.4012683,23.6666667 10.5399402,23.4355469 C10.678612,23.2044271 10.8403959,22.8346354 11.0252917,22.3261719 C11.2564115,21.5403646 11.5453113,20.9394531 11.891991,20.5234375 C12.2386706,20.1074219 12.8511381,19.8994141 13.7293933,19.8994141 C14.7925443,19.8994141 15.5090157,20.2692057 15.8788074,21.0087891 C16.1099271,21.4248047 16.5028308,22.0488281 17.0575183,22.8808594 C17.7046537,23.8977865 18.1668933,24.6835938 18.444237,25.2382812 C18.7215808,25.7929688 18.8602527,26.3245443 18.8602527,26.8330078 C18.8602527,27.2952474 18.6753568,27.688151 18.3055652,28.0117188 C18.0744454,28.2428385 17.7971016,28.3583984 17.4735339,28.3583984 C17.1037423,28.3583984 16.7801745,28.2312826 16.5028308,27.9770508 C16.225487,27.722819 15.9481433,27.3876953 15.6707995,26.9716797 C15.3934558,26.5556641 15.20856,26.3476562 15.116112,26.3476562 C14.9312162,26.3476562 14.8156563,26.8098958 14.7694324,27.734375 C14.7694324,28.3815104 14.8041003,29.3291016 14.8734363,30.5771484 C14.9427722,31.8251953 15.0467761,32.4954427 15.185448,32.5878906 C15.5090157,32.3567708 15.8210274,32.1140951 16.1214831,31.8598633 C16.4219389,31.6056315 16.6992826,31.4207357 16.9535144,31.3051758 C17.2077462,31.1896159 17.5659818,31.1318359 18.0282214,31.1318359 L18.2362292,31.1318359 C19.1144844,31.1318359 19.553612,31.3860677 19.553612,31.8945312 C19.5073881,32.5878906 19.2531563,33.1656901 18.7909167,33.6279297 C18.3286771,34.0901693 17.6815417,34.5986328 16.8495105,35.1533203 C16.4797188,35.3844401 16.1445951,35.6155599 15.8441394,35.8466797 C15.5436837,36.0777995 15.3703438,36.3089193 15.3241199,36.5400391 C15.2778959,36.9560547 15.20856,37.4414062 15.116112,37.9960938 C15.0236641,38.5507812 14.9543282,39.0130208 14.9081042,39.3828125 C14.9081042,40.2148438 15.116112,40.6308594 15.5321277,40.6308594 C16.1330391,40.6770833 16.7570626,40.4112956 17.404198,39.8334961 C18.0513334,39.2556966 18.8371407,38.4352214 19.7616199,37.3720703 C20.4549792,36.586263 20.9403308,36.0777995 21.2176745,35.8466797 C22.3732735,35.8466797 22.951073,36.1933594 22.951073,36.8867188 C22.951073,37.2565104 22.8470691,37.6263021 22.6390613,37.9960938 C22.4310535,38.3658854 22.3039376,38.5738932 22.2577136,38.6201172 C21.1483386,40.3304036 19.8771798,41.7864583 18.444237,42.9882812 C17.0112943,44.1901042 15.4627917,44.7910156 13.7987292,44.7910156 C12.5506824,44.7910156 11.7648751,44.375 11.4413074,43.5429688 C11.1177396,42.7109375 10.9328438,41.5091146 10.8866199,39.9375 C10.8866199,39.7063802 10.8635079,39.3828125 10.8172839,38.9667969 C10.77106,38.5507812 10.724836,38.2041016 10.678612,37.9267578 C10.2625964,37.8805339 9.74257689,37.9036458 9.11855345,37.9960938 C8.49453001,38.0885417 7.97451048,38.1347656 7.55849486,38.1347656 C6.9575834,38.1347656 6.37978392,38.0538737 5.82509642,37.8920898 C5.27040892,37.730306 4.99306517,37.4182943 4.99306517,36.9560547 C5.03928913,36.3551432 5.52464069,35.8697917 6.44911986,35.5 C7.37359902,35.1302083 8.21718626,34.8644206 8.97988158,34.7026367 C9.74257689,34.5408529 10.1932605,34.436849 10.3319324,34.390625 C10.5168282,32.7265625 10.6555001,30.3229167 10.747948,27.1796875 C10.1932605,27.3183594 9.70790892,27.3876953 9.2918933,27.3876953 C8.22874225,27.3414714 7.33893106,26.9138997 6.6224597,26.1049805 C5.90598835,25.2960612 5.54775267,24.383138 5.54775267,23.3662109 C5.54775267,22.3492839 5.67486856,21.3554688 5.92910033,20.3847656 C6.1833321,19.4140625 6.56467975,18.2815755 7.0731433,16.9873047 C7.72027871,15.3232422 8.15940632,13.9596354 8.39052611,12.8964844 L5.33974486,12.9658203 C1.73427611,12.9658203 -0.0453462882,12.4573568 0.000877670095,11.4404297 C0.0471016284,10.8395182 0.960024806,10.4350586 2.7396472,10.2270508 C4.5192696,10.019043 6.98069538,9.89192708 10.1239245,9.84570312 C14.1916329,9.75325521 16.5721667,9.5452474 17.2655261,9.22167969 Z M30.647362,13.6591797 C30.647362,13.289388 30.7744779,13.0004883 31.0287097,12.7924805 C31.2829415,12.5844727 31.5949532,12.4804688 31.9647449,12.4804688 C32.6581042,12.5266927 33.2012357,12.8387044 33.5941394,13.4165039 C33.987043,13.9943034 34.4146146,14.8841146 34.8768542,16.0859375 C35.3390938,17.3339844 35.8013334,18.2815755 36.263573,18.9287109 C36.7258126,19.5758464 37.372948,19.8994141 38.2049792,19.8994141 C38.7596667,19.8994141 39.4530261,19.7607422 40.2850574,19.4833984 C41.2095365,19.2060547 41.8566719,19.0673828 42.2264636,19.0673828 C43.0584949,19.1136068 43.6594063,19.2522786 44.029198,19.4833984 C44.3989896,19.7145182 44.5838855,20.1767578 44.5838855,20.8701172 C44.5838855,21.7945964 44.3412097,22.8115234 43.8558581,23.9208984 C43.3705066,25.0302734 42.6655912,26.5094401 41.741112,28.3583984 C40.8628568,29.7913411 40.4237292,30.7158203 40.4237292,31.1318359 C40.4237292,31.4554036 40.7704089,31.6865234 41.4637683,31.8251953 C42.0184558,31.9638672 42.6424792,32.3105469 43.3358386,32.8652344 C43.6594063,33.0963542 44.006086,33.327474 44.3758777,33.5585938 C44.7456693,33.7897135 45.115461,33.9283854 45.4852527,33.9746094 C46.224836,34.1595052 47.0799792,34.425293 48.0506824,34.7719727 C49.0213855,35.1186523 49.6685209,35.3613281 49.9920886,35.5 C51.1014636,35.9622396 52.2108386,36.3782552 53.3202136,36.7480469 C53.7362292,36.8867188 54.5913725,37.1409505 55.8856433,37.5107422 C57.1799141,37.8805339 58.416405,38.1578776 59.595116,38.3427734 C60.7738269,38.5276693 62.0103178,38.6201172 63.3045886,38.6201172 L66.2860339,38.6201172 C66.7944975,38.6201172 67.0487292,38.828125 67.0487292,39.2441406 C67.0487292,39.8450521 66.6096016,40.5615234 65.7313464,41.3935547 C64.8530912,42.2255859 63.974836,42.6416016 63.0965808,42.6416016 C62.4956693,42.6416016 60.3924792,42.202474 56.7870105,41.3242188 C53.1815417,40.4459635 51.0552396,39.8219401 50.4081042,39.4521484 C49.9920886,39.1748047 48.0391264,38.2965495 44.5492175,36.8173828 C41.0593087,35.3382161 39.2219063,34.5986328 39.0370105,34.5986328 C38.5747709,34.5524089 38.1471993,34.7488607 37.7542956,35.1879883 C37.361392,35.6271159 36.8875964,36.2858073 36.3329089,37.1640625 C35.7782214,37.9960938 35.3044258,38.6316732 34.9115222,39.0708008 C34.5186186,39.5099284 34.067935,39.7294922 33.5594714,39.7294922 C33.2359037,39.7294922 32.8545561,39.5445964 32.4154285,39.1748047 C31.9763008,38.805013 31.779849,38.4814453 31.826073,38.2041016 C31.826073,37.9267578 32.3114245,37.1640625 33.2821277,35.9160156 C34.4839506,34.4830729 35.131086,33.4430339 35.2235339,32.7958984 C35.0386381,32.5647786 34.4146146,32.2874349 33.3514636,31.9638672 C32.1034167,31.5016276 31.1211576,31.050944 30.4046863,30.6118164 C29.6882149,30.1726888 29.3530912,29.5833333 29.3993152,28.84375 C29.4455391,28.0117188 30.0464506,27.5957031 31.2020495,27.5957031 C32.0340808,27.6419271 33.0972318,27.9886068 34.3915027,28.6357422 C35.3159818,29.1442057 36.0093412,29.3984375 36.4715808,29.3984375 C36.8413725,29.3984375 37.407616,28.6357422 38.1703113,27.1103516 C38.9330066,25.5849609 39.522362,24.2906901 39.9383777,23.2275391 C37.8120756,23.0888672 36.240461,22.8577474 35.2235339,22.5341797 C34.2066068,22.210612 33.3630196,21.5981445 32.6927722,20.6967773 C32.0225248,19.7954102 31.4562813,18.3971354 30.9940417,16.5019531 C30.716698,15.3925781 30.6011381,14.444987 30.647362,13.6591797 Z" id="Shape"></path>
            <path d="M83.6678699,11.5791016 C83.6678699,10.9319661 83.9914376,10.5275065 84.638573,10.3657227 C85.2857084,10.2039388 86.3488594,10.1230469 87.8280261,10.1230469 C89.8618803,10.1230469 91.4334949,9.91503906 92.5428699,9.49902344 C93.6522449,9.08300781 94.2069324,8.06608073 94.2069324,6.44824219 C94.2069324,5.70865885 94.4149402,5.11930339 94.8309558,4.68017578 C95.2469714,4.24104818 95.8247709,4.02148438 96.5643542,4.02148438 C97.1652657,4.02148438 97.5928373,4.31038411 97.8470691,4.88818359 C98.1013008,5.46598307 98.2977527,6.26334635 98.4364245,7.28027344 C98.4826485,7.55761719 98.5057605,7.82340495 98.5057605,8.07763672 C98.5057605,8.33186849 98.5750964,8.45898438 98.7137683,8.45898438 C98.8524402,8.45898438 99.08356,8.38964844 99.4071277,8.25097656 L100.100487,7.97363281 C101.579654,7.60384115 102.642805,7.41894531 103.28994,7.41894531 C105.000227,7.41894531 105.85537,8.22786458 105.85537,9.84570312 C105.85537,10.1230469 105.73981,10.3657227 105.50869,10.5737305 C105.27757,10.7817383 104.907779,10.9088542 104.399315,10.9550781 C102.781477,11.047526 101.614322,11.1630859 100.89785,11.3017578 C100.181379,11.4404297 99.5689115,11.7177734 99.060448,12.1337891 C98.5519844,12.5498047 98.1128568,13.2431641 97.7430652,14.2138672 C97.5119454,14.8610026 97.1190417,15.6930339 96.5643542,16.7099609 C96.4719063,16.9873047 96.3794584,17.1953125 96.2870105,17.3339844 C95.8709949,18.2584635 95.662987,18.9980469 95.662987,19.5527344 C95.662987,19.8300781 95.743879,20.0843099 95.9056628,20.3154297 C96.0674467,20.5465495 96.2870105,20.6621094 96.5643542,20.6621094 C97.9972969,20.6621094 100.031151,20.1767578 102.665917,19.2060547 C104.237531,18.6975911 105.50869,18.3162435 106.479393,18.0620117 C107.450096,17.8077799 108.467024,17.6806641 109.530175,17.6806641 C110.269758,17.6806641 111.044009,17.8077799 111.852928,18.0620117 C112.661848,18.3162435 113.066307,18.5820312 113.066307,18.859375 C113.066307,19.2291667 112.927635,19.4833984 112.650292,19.6220703 C112.372948,19.7607422 112.003156,19.8531901 111.540917,19.8994141 C110.570214,19.991862 108.166568,20.7661133 104.329979,22.222168 C100.493391,23.6782227 98.3670886,24.6373698 97.951073,25.0996094 L97.951073,25.3769531 C97.951073,25.6542969 97.974185,25.9200846 98.0204089,26.1743164 C98.0666329,26.4285482 98.0897449,26.671224 98.0897449,26.9023438 C98.0897449,27.5957031 97.8239571,28.3815104 97.2923816,29.2597656 C96.7608061,30.1380208 95.8709949,31.4091797 94.622948,33.0732422 C93.3286771,34.7373047 92.3233061,36.2164714 91.6068347,37.5107422 C90.8903633,38.805013 90.5321277,40.0068359 90.5321277,41.1162109 C90.5321277,41.7633464 90.6939115,42.2833659 91.0174792,42.6762695 C91.3410469,43.0691732 91.7339506,43.265625 92.1961902,43.265625 C92.4735339,43.265625 92.7508777,43.1962891 93.0282214,43.0576172 C94.64606,42.3180339 95.9634428,41.5322266 96.9803699,40.7001953 C97.9972969,39.8681641 99.2222318,38.6663411 100.655175,37.0947266 L102.388573,35.2226562 C102.712141,34.9453125 103.070376,34.7719727 103.46328,34.7026367 C103.856184,34.6333008 104.399315,34.5986328 105.092675,34.5986328 C106.433169,34.5986328 107.542544,34.9915365 108.4208,35.7773438 C110.223534,37.5338542 112.060936,39.8450521 113.933007,42.7109375 C115.805077,45.5768229 116.741112,47.9111328 116.741112,49.7138672 C116.741112,50.0836589 116.625552,50.4187826 116.394432,50.7192383 C116.163313,51.019694 115.932193,51.1699219 115.701073,51.1699219 C115.100162,51.1699219 113.089419,48.8818359 109.668846,44.3056641 C108.051008,42.0869141 106.918521,40.6193034 106.271385,39.902832 C105.62425,39.1863607 105.138899,38.828125 104.815331,38.828125 C104.537987,38.828125 103.913964,39.2441406 102.94326,40.0761719 C102.388573,40.4921875 101.394758,41.3011068 99.9618152,42.5029297 C97.6968412,44.351888 96.1136706,45.5537109 95.2123035,46.1083984 C94.3109363,46.6630859 93.2362292,46.9404297 91.9881824,46.9404297 C91.0174792,46.9404297 90.0352201,46.6746419 89.041405,46.1430664 C88.0475899,45.6114909 87.2155587,44.9412435 86.5453113,44.1323242 C85.8750639,43.3234049 85.5399402,42.5260417 85.5399402,41.7402344 C85.5399402,40.1686198 86.1292956,38.3889974 87.3080066,36.4013672 C88.4867175,34.413737 90.0005521,32.218099 91.8495105,29.8144531 C93.2824532,27.734375 94.0451485,26.4401042 94.1375964,25.9316406 C93.2131173,25.9778646 92.36953,26.0818685 91.6068347,26.2436523 C90.8441394,26.4054362 89.9312162,26.6943359 88.8680652,27.1103516 C86.7417631,27.8499349 85.0777006,28.2197266 83.8758777,28.2197266 C83.3674141,28.2197266 82.7665027,27.8730469 82.0731433,27.1796875 C81.3797839,26.4863281 81.0331042,25.8854167 81.0331042,25.3769531 C81.0331042,24.9609375 81.4375639,24.6142578 82.2464831,24.3369141 C83.0554024,24.0595703 84.4536771,23.7822266 86.4413074,23.5048828 C88.1978178,23.2275391 89.3880847,23.0079753 90.0121081,22.8461914 C90.6361316,22.6844076 91.0405912,22.4417318 91.225487,22.1181641 C91.4566068,21.7945964 91.7339506,20.7892253 92.0575183,19.1020508 C92.381086,17.4148763 92.5428699,16.2708333 92.5428699,15.6699219 C92.5428699,14.7916667 92.2770821,14.2254232 91.7455066,13.9711914 C91.2139311,13.7169596 90.5321277,13.5898438 89.7000964,13.5898438 L88.5907214,13.5898438 C87.7586902,13.6822917 87.1346667,13.7285156 86.7186511,13.7285156 C84.6847969,13.7285156 83.6678699,13.0120443 83.6678699,11.5791016 Z" id="Path"></path>
            <path d="M142.581932,17.1953125 C142.951724,16.594401 143.668195,15.2539062 144.731346,13.1738281 C146.534081,9.89192708 147.9208,7.40738932 148.891503,5.72021484 C149.862206,4.03304036 150.671125,3.00455729 151.31826,2.63476562 C151.826724,2.35742188 152.404524,2.21875 153.051659,2.21875 C153.976138,2.21875 154.438378,2.38053385 154.438378,2.70410156 C154.438378,3.90592448 154.265038,4.8766276 153.918358,5.61621094 C153.571678,6.35579427 153.097883,7.0953776 152.496971,7.83496094 C152.219628,8.15852865 151.988508,8.48209635 151.803612,8.80566406 C151.618716,9.12923177 151.526268,9.45279948 151.526268,9.77636719 C151.526268,10.0537109 151.711164,10.1923828 152.080956,10.1923828 C152.589419,10.1923828 153.178775,10.1114909 153.849022,9.94970703 C154.51927,9.78792318 154.993065,9.66080729 155.270409,9.56835938 C158.274966,8.92122396 162.204003,8.45898438 167.057518,8.18164062 C167.42731,8.13541667 167.750878,8.41276042 168.028221,9.01367188 C168.305565,9.61458333 168.444237,10.2154948 168.444237,10.8164062 C168.444237,11.2786458 168.317121,11.6484375 168.062889,11.9257812 C167.808658,12.203125 167.496646,12.3417969 167.126854,12.3417969 C166.988182,12.3417969 166.294823,12.2724609 165.046776,12.1337891 C164.492089,11.9951172 163.937401,11.9257812 163.382714,11.9257812 C161.487531,11.9257812 159.268781,12.237793 156.726464,12.8618164 C154.184146,13.4858398 152.080956,14.2369792 150.416893,15.1152344 C150.278221,15.2076823 149.885318,15.4388021 149.238182,15.8085938 C148.591047,16.1783854 148.013247,16.5828451 147.504784,17.0219727 C146.99632,17.4611003 146.626529,17.8886719 146.395409,18.3046875 C146.210513,18.7669271 145.956281,18.9980469 145.632714,18.9980469 C145.078026,18.9980469 144.384667,18.7784831 143.552635,18.3393555 C142.720604,17.9002279 142.397037,17.5188802 142.581932,17.1953125 Z M156.657128,21.3554688 C156.842024,20.6621094 156.957583,19.991862 157.003807,19.3447266 C157.234927,17.5882161 157.558495,16.1899414 157.97451,15.1499023 C158.390526,14.1098633 159.130109,13.4742839 160.19326,13.2431641 C160.609276,13.1507161 161.106184,13.2316081 161.683983,13.4858398 C162.261783,13.7400716 162.550682,14.0520833 162.550682,14.421875 C162.550682,14.9303385 162.342675,15.6468099 161.926659,16.5712891 C161.464419,17.6806641 161.2333,18.6051432 161.2333,19.3447266 C161.2333,19.8994141 161.279524,20.2692057 161.371971,20.4541016 C161.787987,20.4541016 162.41201,20.4078776 163.244042,20.3154297 C164.076073,20.2229818 164.676984,20.1767578 165.046776,20.1767578 C167.589094,20.1767578 168.860253,20.9856771 168.860253,22.6035156 C168.860253,23.6666667 168.721581,24.4986979 168.444237,25.0996094 C168.166893,25.7005208 167.565982,26.0009766 166.641503,26.0009766 C166.179263,26.0009766 165.844139,25.8969727 165.636132,25.6889648 C165.428124,25.480957 165.254784,25.1920573 165.116112,24.8222656 C164.97744,24.452474 164.792544,24.2675781 164.561425,24.2675781 C162.98981,24.2675781 161.880435,24.40625 161.2333,24.6835938 C160.909732,27.8268229 160.632388,30.2304688 160.401268,31.8945312 L160.262596,33.0732422 C161.464419,32.9345703 162.689354,32.6803385 163.937401,32.3105469 C165.185448,31.9407552 165.901919,31.7327474 166.086815,31.6865234 C167.797102,31.1780599 169.18382,30.7967122 170.246971,30.5424805 C171.310122,30.2882487 172.419497,30.1611328 173.575096,30.1611328 C176.949445,30.1611328 178.63662,30.7620443 178.63662,31.9638672 C178.63662,32.3336589 178.532616,32.7150065 178.324608,33.1079102 C178.1166,33.5008138 177.850813,33.6972656 177.527245,33.6972656 C177.249901,33.6972656 176.891665,33.6625977 176.452538,33.5932617 C176.01341,33.5239258 175.655175,33.4892578 175.377831,33.4892578 C174.453352,33.4892578 172.847069,33.7088216 170.558983,34.1479492 C168.270897,34.5870768 166.121483,35.1070964 164.110741,35.7080078 C162.099999,36.3089193 160.863508,36.8867188 160.401268,37.4414062 C159.939029,37.9960938 159.557681,38.9899089 159.257225,40.4228516 C158.95677,41.8557943 158.621646,43.8665365 158.251854,46.4550781 C157.743391,49.875651 157.258039,52.4295247 156.7958,54.1166992 C156.33356,55.8038737 155.709537,56.6474609 154.923729,56.6474609 C154.553938,56.6474609 154.126366,56.4394531 153.641014,56.0234375 C153.155663,55.6074219 152.912987,55.2376302 152.912987,54.9140625 C152.912987,54.2669271 153.051659,53.3886719 153.329003,52.2792969 C153.513899,51.4472656 153.629458,50.8232422 153.675682,50.4072266 C153.814354,49.3440755 154.068586,47.749349 154.438378,45.6230469 C155.085513,42.2486979 155.455305,39.6139323 155.547753,37.71875 C154.11481,37.71875 151.930728,38.0192057 148.995507,38.6201172 C146.060285,39.2210286 143.945539,39.8219401 142.651268,40.4228516 C141.541893,40.9313151 140.617414,41.1855469 139.877831,41.1855469 C139.508039,41.1855469 139.092024,41.093099 138.629784,40.9082031 C138.167544,40.7233073 137.751529,40.4690755 137.381737,40.1455078 C137.196841,39.960612 137.104393,39.7526042 137.104393,39.5214844 C137.104393,38.874349 137.809309,38.2849935 139.219139,37.753418 C140.62897,37.2218424 142.535708,36.632487 144.939354,35.9853516 C146.510969,35.5693359 147.319888,35.3151042 147.366112,35.2226562 C147.643456,34.4830729 147.828352,33.5239258 147.9208,32.3452148 C148.013247,31.1665039 148.059471,30.4615885 148.059471,30.2304688 C148.198143,28.3352865 148.359927,26.8561198 148.544823,25.7929687 C148.729719,24.7298177 149.145734,23.8168945 149.79287,23.0541992 C150.440005,22.2915039 151.410708,21.9101562 152.704979,21.9101562 C153.167219,21.8639323 153.791242,21.7945964 154.57705,21.7021484 C155.362857,21.6097005 156.056216,21.4941406 156.657128,21.3554688 Z M155.75576,33.6972656 C155.848208,32.4954427 155.940656,31.6171875 156.033104,31.0625 C156.264224,29.5833333 156.379784,28.2428385 156.379784,27.0410156 C156.379784,26.3938802 156.194888,26.0703125 155.825096,26.0703125 C155.501529,26.0703125 154.900617,26.1627604 154.022362,26.3476562 C153.144107,26.5325521 152.589419,26.6943359 152.3583,26.8330078 C152.312076,26.8792318 152.092512,28.0001628 151.699608,30.1958008 C151.306704,32.3914388 151.110253,33.6279297 151.110253,33.9052734 C151.110253,34.0901693 151.156477,34.2057292 151.248925,34.2519531 C151.341372,34.2981771 151.456932,34.3212891 151.595604,34.3212891 C153.259667,34.3212891 154.646385,34.1132812 155.75576,33.6972656 Z" id="Shape"></path>
            <path d="M211.965721,2.63476562 C213.537336,1.75651042 214.808495,1.09781901 215.779198,0.658691406 C216.749901,0.219563802 217.651268,0 218.4833,0 C218.991763,0 219.245995,0.439127604 219.245995,1.31738281 L219.245995,1.59472656 C219.245995,2.51920573 218.991763,3.12011719 218.4833,3.39746094 C217.974836,3.58235677 217.339257,3.85970052 216.576561,4.22949219 C215.813866,4.59928385 215.363182,4.89973958 215.22451,5.13085938 C213.144432,7.58072917 211.665266,9.73014323 210.78701,11.5791016 C211.110578,11.6715495 211.619042,11.7177734 212.312401,11.7177734 C214.438703,11.7177734 215.871646,12.249349 216.611229,13.3125 C217.350813,14.375651 217.720604,16.0397135 217.720604,18.3046875 C217.720604,18.905599 217.813052,19.8069661 217.997948,21.0087891 C218.229068,22.164388 218.344628,23.1582031 218.344628,23.9902344 C218.344628,26.1165365 218.182844,27.5263672 217.859276,28.2197266 C217.720604,28.6357422 217.466372,28.9130859 217.096581,29.0517578 C216.726789,29.1904297 216.195214,29.3059896 215.501854,29.3984375 C215.363182,29.3984375 215.028059,29.4446615 214.496483,29.5371094 C213.964908,29.6295573 213.537336,29.8144531 213.213768,30.0917969 C212.566633,30.6464844 211.445702,31.1665039 209.850975,31.6518555 C208.256249,32.137207 206.996646,32.3798828 206.072167,32.3798828 C205.193912,32.3798828 204.500552,32.0332031 203.992089,31.3398438 C203.483625,30.6464844 203.229393,29.8606771 203.229393,28.9824219 C203.229393,26.578776 203.402733,23.7475586 203.749413,20.4887695 C204.096093,17.2299805 204.569888,14.7916667 205.1708,13.1738281 C205.494367,12.4342448 206.118391,11.3479818 207.04287,9.91503906 C208.244693,8.11230469 208.845604,7.02604167 208.845604,6.65625 C208.845604,6.47135417 208.637596,6.37890625 208.221581,6.37890625 C208.036685,6.37890625 207.239322,6.39046224 205.829491,6.41357422 C204.41966,6.4366862 203.148501,6.27490234 202.016014,5.92822266 C200.883527,5.58154297 200.317284,5.06152344 200.317284,4.36816406 C200.317284,3.53613281 201.519107,3.12011719 203.922753,3.12011719 C205.540591,3.12011719 206.765526,3.14322917 207.597557,3.18945312 L210.856346,3.18945312 L211.965721,2.63476562 Z M207.597557,28.4970703 C208.891828,28.4046224 209.816307,28.2659505 210.370995,28.0810547 C210.78701,27.8499349 211.341698,27.734375 212.035057,27.734375 C212.913313,27.734375 213.502668,27.3183594 213.803124,26.4863281 C214.103579,25.6542969 214.253807,24.5911458 214.253807,23.296875 C214.253807,20.6158854 214.138247,18.5820312 213.907128,17.1953125 C213.676008,15.8085938 213.306216,15.1152344 212.797753,15.1152344 C211.457258,15.1152344 210.324771,15.508138 209.400292,16.2939453 C208.475813,17.0797526 208.013573,18.1197917 208.013573,19.4140625 C208.013573,19.5989583 208.106021,19.6914062 208.290917,19.6914062 C208.475813,19.6914062 208.776268,19.5296224 209.192284,19.2060547 C209.284732,19.1598307 209.596744,18.9518229 210.128319,18.5820312 C210.659895,18.2122396 211.387922,18.0273438 212.312401,18.0273438 C213.375552,18.0273438 213.907128,18.3277995 213.907128,18.9287109 C213.907128,20.3154297 212.659081,21.5172526 210.162987,22.5341797 C209.885643,22.6728516 209.400292,22.7884115 208.706932,22.8808594 C208.475813,22.9270833 207.967349,23.0426432 207.181542,23.2275391 L206.973534,23.296875 C206.973534,23.5742188 207.112206,23.7128906 207.38955,23.7128906 C207.898013,23.7128906 208.394921,23.6435547 208.880272,23.5048828 C209.365624,23.3662109 209.677635,23.273763 209.816307,23.2275391 C210.925682,22.8577474 211.803938,22.6728516 212.451073,22.6728516 C213.144432,22.6728516 213.491112,23.1119792 213.491112,23.9902344 C213.491112,25.0071615 213.075096,25.6542969 212.243065,25.9316406 C211.411034,26.2089844 210.347883,26.3476562 209.053612,26.3476562 L207.666893,26.2783203 C207.38955,26.2783203 207.204654,26.3014323 207.112206,26.3476562 C207.019758,26.5325521 206.973534,26.8561198 206.973534,27.3183594 L206.973534,28.4970703 L207.597557,28.4970703 Z M203.229393,39.8681641 C203.229393,39.3134766 203.483625,38.6201172 203.992089,37.7880859 C204.315656,37.4182943 204.593,36.9098307 204.82412,36.2626953 C205.193912,35.2919922 205.586815,34.5408529 206.002831,34.0092773 C206.418846,33.4777018 207.065982,33.2119141 207.944237,33.2119141 C208.314029,33.2119141 208.602928,33.3390299 208.810936,33.5932617 C209.018944,33.8474935 209.122948,34.1595052 209.122948,34.5292969 C209.122948,34.8990885 208.961164,35.5693359 208.637596,36.5400391 C208.452701,36.9098307 208.314029,37.3489583 208.221581,37.8574219 C208.68382,37.8111979 209.192284,37.71875 209.746971,37.5800781 C210.301659,37.4414062 210.694563,37.3489583 210.925682,37.3027344 C212.266177,36.8867188 213.306216,36.6787109 214.0458,36.6787109 C214.739159,36.6787109 215.270734,36.8173828 215.640526,37.0947266 C216.010318,37.3720703 216.195214,37.8343099 216.195214,38.4814453 C216.195214,39.4983724 215.848534,40.5152995 215.155175,41.5322266 C214.461815,42.5491536 213.58356,43.6585286 212.520409,44.8603516 C211.82705,45.6923828 211.48037,46.1546224 211.48037,46.2470703 C211.48037,46.4781901 211.676822,46.6861979 212.069725,46.8710938 C212.462629,47.0559896 212.797753,47.1715495 213.075096,47.2177734 C213.306216,47.2639974 213.664452,47.3564453 214.149803,47.4951172 C214.635155,47.6337891 215.039615,47.7955729 215.363182,47.9804688 C217.397037,49.1822917 222.250552,49.7832031 229.923729,49.7832031 C233.113182,49.7832031 235.53994,49.7138672 237.204003,49.5751953 C238.22093,49.4365234 239.723208,49.2516276 241.710839,49.0205078 C243.698469,48.789388 245.223859,48.6276042 246.28701,48.5351562 C247.165266,48.5351562 247.604393,49.0667318 247.604393,50.1298828 C247.604393,50.8232422 247.373274,51.3317057 246.911034,51.6552734 C246.217675,52.163737 243.918033,52.5104167 240.012108,52.6953125 C236.106184,52.8802083 232.627831,52.9726562 229.57705,52.9726562 C223.937727,52.9726562 218.968651,52.4641927 214.669823,51.4472656 C213.93024,51.3085938 212.705305,50.9619141 210.995018,50.4072266 C209.284732,49.7600911 208.244693,49.4365234 207.874901,49.4365234 C207.458885,49.4365234 207.054426,49.6098633 206.661522,49.956543 C206.268619,50.3032227 205.748599,50.8463542 205.101464,51.5859375 C204.454328,52.3255208 203.899641,52.8917643 203.437401,53.284668 C202.975162,53.6775716 202.512922,53.8740234 202.050682,53.8740234 C200.247948,53.8740234 199.346581,53.3655599 199.346581,52.3486328 C199.346581,51.7939453 199.600813,51.3201497 200.109276,50.9272461 C200.61774,50.5343424 201.380435,50.0374349 202.397362,49.4365234 C202.443586,49.3902995 202.536034,49.3094076 202.674706,49.1938477 C202.813378,49.0782878 203.206281,48.9049479 203.853417,48.6738281 C204.685448,48.3502604 205.101464,48.0498047 205.101464,47.7724609 C205.101464,47.5413411 204.893456,47.4026693 204.47744,47.3564453 C204.200096,47.3102214 203.992089,47.1484375 203.853417,46.8710938 C203.714745,46.59375 203.645409,46.3164062 203.645409,46.0390625 C203.645409,45.530599 203.911197,45.1608073 204.442772,44.9296875 C204.974348,44.6985677 205.517479,44.5830078 206.072167,44.5830078 C206.395734,44.5830078 206.649966,44.6061198 206.834862,44.6523438 C207.435774,44.7447917 207.898013,44.7447917 208.221581,44.6523438 C208.360253,44.6061198 208.718488,44.1207682 209.296288,43.1962891 C209.874087,42.2718099 210.324771,41.4860026 210.648339,40.8388672 C209.770083,41.1624349 209.076724,41.3704427 208.56826,41.4628906 C208.059797,41.5553385 207.366438,41.6015625 206.488182,41.6015625 C204.315656,41.6015625 203.229393,41.023763 203.229393,39.8681641 Z" id="Shape"></path>
            <path d="M263.807518,12.6884766 C263.807518,12.226237 263.88841,11.9026693 264.050194,11.7177734 C264.211978,11.5328776 264.52399,11.3479818 264.986229,11.1630859 C265.772037,11.0244141 268.429914,10.7701823 272.959862,10.4003906 C277.48981,10.030599 280.078352,9.89192708 280.725487,9.984375 C281.557518,10.0768229 282.181542,10.2270508 282.597557,10.4350586 C283.013573,10.6430664 283.175357,11.09375 283.082909,11.7871094 L282.944237,12.8964844 L276.218651,13.1738281 C276.311099,13.4973958 276.438215,13.7978516 276.599999,14.0751953 C276.761783,14.3525391 276.888899,14.6183268 276.981346,14.8725586 C277.073794,15.1267904 277.096906,15.4619141 277.050682,15.8779297 C276.958234,16.8024089 276.542219,18.1429036 275.802635,19.8994141 C275.710188,20.1767578 275.548404,20.6158854 275.317284,21.2167969 C275.086164,21.8177083 274.901268,22.3723958 274.762596,22.8808594 C276.287987,22.3261719 277.686262,21.9217122 278.957421,21.6674805 C280.228579,21.4132487 281.488182,21.3554688 282.736229,21.4941406 C283.152245,21.4941406 283.522037,21.5865885 283.845604,21.7714844 C284.169172,21.9563802 284.330956,22.233724 284.330956,22.6035156 C284.330956,23.2044271 283.718488,23.7360026 282.493553,24.1982422 C281.268619,24.6604818 279.616112,25.1227214 277.536034,25.5849609 C277.25869,25.6774089 276.715559,25.8276367 275.906639,26.0356445 C275.09772,26.2436523 274.496809,26.4285482 274.103905,26.590332 C273.711001,26.7521159 273.51455,26.9023438 273.51455,27.0410156 C273.51455,27.4570312 273.133202,28.4508464 272.370507,30.0224609 C271.607811,31.5940755 271.157128,32.5185547 271.018456,32.7958984 C272.867414,32.9807943 274.762596,33.6048177 276.704003,34.6679688 C278.645409,35.7311198 281.072167,37.2333984 283.984276,39.1748047 C286.665266,41.023763 288.837792,42.3873698 290.501854,43.265625 C291.195214,43.5429688 292.997948,44.0976562 295.910057,44.9296875 C298.544823,45.6230469 299.885318,46.0390625 299.931542,46.1777344 C300.255109,46.4550781 300.416893,46.7786458 300.416893,47.1484375 C300.324445,47.8417969 299.943098,48.3618164 299.27285,48.7084961 C298.602603,49.0551758 297.9208,49.1822917 297.22744,49.0898438 C294.916242,48.8125 291.588117,47.656901 287.243065,45.6230469 C282.898013,43.5891927 279.82412,41.7402344 278.021385,40.0761719 C277.420474,39.5677083 276.195539,38.874349 274.346581,37.9960938 C274.161685,37.8574219 273.583885,37.5569661 272.613182,37.0947266 C272.197167,36.7711589 271.804263,36.5515951 271.434471,36.4360352 C271.06468,36.3204753 270.83356,36.2395833 270.741112,36.1933594 C270.186425,36.0084635 269.724185,35.8235677 269.354393,35.6386719 C269.215721,36.2395833 268.510806,37.4298503 267.239647,39.2094727 C265.968488,40.9890951 264.651106,42.5953776 263.287499,44.0283203 C261.923892,45.461263 261.010969,46.1546224 260.548729,46.1083984 C260.178938,46.1083984 259.705142,45.8194987 259.127343,45.2416992 C258.549543,44.6638997 258.283755,44.2132161 258.329979,43.8896484 C258.329979,43.6123047 259.115787,42.6416016 260.687401,40.9775391 C261.242089,40.4228516 261.565656,40.0761719 261.658104,39.9375 C261.704328,39.8450521 261.912336,39.5214844 262.282128,38.9667969 C262.651919,38.4121094 262.836815,37.9498698 262.836815,37.5800781 C262.883039,37.3027344 263.067935,36.9907227 263.391503,36.644043 C263.71507,36.2973633 263.94619,36.0315755 264.084862,35.8466797 C264.315982,35.5693359 265.113345,34.1479492 266.476952,31.5825195 C267.840559,29.0170898 268.545474,27.5957031 268.591698,27.3183594 L268.522362,27.1103516 L267.551659,27.0410156 C267.043195,27.0410156 266.372948,27.0872396 265.540917,27.1796875 C265.309797,27.1796875 264.882225,27.2143555 264.258202,27.2836914 C263.634178,27.3530273 263.044823,27.3414714 262.490135,27.2490234 C261.981672,27.1565755 261.507876,26.9138997 261.068749,26.5209961 C260.629621,26.1280924 260.433169,25.7005208 260.479393,25.2382812 C260.479393,25.1458333 260.502505,25.0418294 260.548729,24.9262695 C260.594953,24.8107096 260.641177,24.7298177 260.687401,24.6835938 C261.195865,24.1751302 261.981672,23.9208984 263.044823,23.9208984 C264.06175,23.9671224 265.044009,23.9324544 265.9916,23.8168945 C266.939191,23.7013346 267.863671,23.5626628 268.765038,23.4008789 C269.666405,23.2390951 270.325096,23.1350911 270.741112,23.0888672 C270.83356,22.6728516 270.972232,22.222168 271.157128,21.7368164 C271.342024,21.2514648 271.503807,20.7776693 271.642479,20.3154297 C272.659406,17.5882161 273.190982,15.7854818 273.237206,14.9072266 L273.237206,14.6992188 C273.237206,14.3294271 272.982974,14.1445312 272.47451,14.1445312 L271.434471,14.0751953 C270.879784,14.0751953 270.047753,14.1214193 268.938378,14.2138672 C267.459211,14.398763 266.326724,14.444987 265.540917,14.3525391 C264.385318,14.2600911 263.807518,13.7054036 263.807518,12.6884766 Z" id="Path"></path>
            <path d="M4.8543933,101.640625 C4.8543933,100.99349 5.9637683,100.438802 8.1825183,99.9765625 C10.4012683,99.5143229 12.8858061,99.1560872 15.6361316,98.9018555 C18.3864571,98.6476237 20.3625313,98.5205078 21.5643542,98.5205078 C23.9680001,98.5205078 25.169823,99.1676432 25.169823,100.461914 C25.169823,101.663737 24.6151355,102.264648 23.5057605,102.264648 C22.4888334,102.264648 20.9403308,102.333984 18.8602527,102.472656 C16.7801745,102.611328 15.5090157,102.773112 15.0467761,102.958008 C14.3534167,103.189128 13.1169258,103.431803 11.3373035,103.686035 C9.55768106,103.940267 8.22874225,104.067383 7.35048705,104.067383 C6.8420235,104.067383 6.29889199,103.801595 5.72109251,103.27002 C5.14329303,102.738444 4.8543933,102.195312 4.8543933,101.640625 Z M7.41982298,112.803711 C7.41982298,112.249023 8.27496621,111.775228 9.98525267,111.382324 C11.6955391,110.989421 13.6022774,110.688965 15.7054675,110.480957 C17.8086576,110.272949 19.3456042,110.168945 20.3163074,110.168945 C21.4256824,110.168945 22.2230456,110.353841 22.7083972,110.723633 C23.1937488,111.093424 23.4364245,111.833008 23.4364245,112.942383 L23.4364245,114.537109 C21.9572579,114.167318 20.8478829,113.982422 20.1082995,113.982422 C19.1838204,113.982422 17.8895495,114.167318 16.225487,114.537109 C15.9481433,114.583333 15.4281238,114.675781 14.6654285,114.814453 C13.9027331,114.953125 13.1978178,115.022461 12.5506824,115.022461 C11.3026355,115.022461 10.1354805,114.872233 9.04921751,114.571777 C7.96295449,114.271322 7.41982298,113.681966 7.41982298,112.803711 Z M0.0702136076,127.086914 C0.0702136076,126.162435 0.960024806,125.561523 2.7396472,125.28418 C4.5192696,125.006836 6.05621621,124.856608 7.35048705,124.833496 C8.64475788,124.810384 9.40745319,124.798828 9.63857298,124.798828 C13.7525053,124.613932 18.536685,124.036133 23.991112,123.06543 C26.30231,122.556966 28.2668282,122.175618 29.8846667,121.921387 C31.5025053,121.667155 33.0972318,121.540039 34.6688464,121.540039 C35.9631173,121.540039 37.315168,121.736491 38.7249988,122.129395 C40.1348295,122.522298 40.8397449,123.204102 40.8397449,124.174805 C40.8397449,124.637044 40.701073,124.99528 40.4237292,125.249512 C40.1463855,125.503743 39.7765938,125.630859 39.3143542,125.630859 C38.7596667,125.630859 37.8351876,125.584635 36.5409167,125.492188 C35.3390938,125.39974 34.3915027,125.353516 33.6981433,125.353516 C32.0803048,125.353516 30.0580066,125.549967 27.6312488,125.942871 C25.204491,126.335775 23.2746407,126.80957 21.841698,127.364258 C21.2870105,127.595378 20.662987,127.734049 19.9696277,127.780273 C19.2762683,127.826497 18.8602527,127.849609 18.7215808,127.849609 C18.2131173,127.895833 17.7393217,127.965169 17.3001941,128.057617 C16.8610665,128.150065 16.4797188,128.219401 16.1561511,128.265625 C14.9543282,128.589193 13.9142891,128.750977 13.0360339,128.750977 C12.8511381,128.750977 12.6777982,128.716309 12.5160144,128.646973 C12.3542305,128.577637 12.1115548,128.612305 11.787987,128.750977 C10.5861641,129.120768 8.7372058,129.305664 6.24111205,129.305664 L3.95302611,129.305664 C2.84365111,129.305664 1.91917194,129.166992 1.17958861,128.889648 C0.440005274,128.612305 0.0702136076,128.011393 0.0702136076,127.086914 Z" id="Shape"></path>
            <path d="M85.5399402,90.1308594 C85.5399402,89.7610677 85.8057279,89.4952799 86.3373035,89.3334961 C86.868879,89.1717122 87.3657865,89.0908203 87.8280261,89.0908203 C88.6600574,89.0908203 89.1916329,89.3450521 89.4227527,89.8535156 C89.7463204,90.500651 90.0005521,91.4829102 90.185448,92.800293 C90.3703438,94.1176758 90.4627917,95.2386068 90.4627917,96.1630859 C90.4627917,99.1676432 90.0467761,100.669922 89.2147449,100.669922 C88.7987292,100.669922 88.3827136,100.53125 87.966698,100.253906 C87.6893542,99.9765625 87.2155587,98.3818359 86.5453113,95.4697266 C85.8750639,92.5576172 85.5399402,90.7779948 85.5399402,90.1308594 Z M60.3016589,108.712891 C60.6714506,108.343099 61.0874662,107.788411 61.5497058,107.048828 C61.9194975,106.447917 62.2892891,105.962565 62.6590808,105.592773 C63.0288725,105.130534 63.3755521,104.73763 63.6991199,104.414062 C65.1320626,102.75 66.4147774,101.421061 67.5472644,100.427246 C68.6797514,99.433431 69.7082344,98.9365234 70.6327136,98.9365234 C71.6034167,98.9365234 72.0887683,99.1676432 72.0887683,99.6298828 C72.0887683,99.9534505 71.7305326,100.554362 71.0140613,101.432617 C70.2975899,102.310872 69.4771146,103.235352 68.5526355,104.206055 C66.5650053,106.378581 65.0165027,108.192871 63.9071277,109.648926 C62.7977527,111.10498 62.2430652,112.295247 62.2430652,113.219727 C62.2430652,113.543294 62.2661771,113.878418 62.3124011,114.225098 C62.3586251,114.571777 62.381737,114.930013 62.381737,115.299805 C62.381737,116.131836 62.2430652,117.379883 61.9657214,119.043945 C61.6883777,120.708008 61.5497058,122.002279 61.5497058,122.926758 C61.5497058,124.405924 61.9888334,125.330404 62.8670886,125.700195 C63.0057605,125.746419 63.1675443,125.804199 63.3524402,125.873535 C63.537336,125.942871 63.6297839,126.093099 63.6297839,126.324219 C63.6297839,127.063802 63.4680001,127.630046 63.1444324,128.022949 C62.8208646,128.415853 62.404849,128.612305 61.8963855,128.612305 C61.2492501,128.612305 60.5790027,128.358073 59.8856433,127.849609 C59.1922839,127.341146 58.6144844,126.63623 58.1522449,125.734863 C57.6900053,124.833496 57.4588855,123.805013 57.4588855,122.649414 C57.4588855,122.464518 57.5051094,122.210286 57.5975574,121.886719 C57.6900053,121.563151 57.7593412,121.193359 57.8055652,120.777344 C58.4527006,118.373698 58.6375964,117.125651 58.3602527,117.033203 C58.036685,116.940755 57.6900053,117.310547 57.3202136,118.142578 C57.1815417,118.466146 57.0313139,118.755046 56.86953,119.009277 C56.7077462,119.263509 56.5344063,119.390625 56.3495105,119.390625 C55.1014636,119.390625 54.4774402,118.882161 54.4774402,117.865234 C54.4774402,116.755859 55.1476876,115.230469 56.4881824,113.289062 C57.8286771,111.347656 59.099836,109.822266 60.3016589,108.712891 Z M82.1424792,104.691406 C82.1424792,104.136719 82.5238269,103.755371 83.2865222,103.547363 C84.0492175,103.339355 84.8234688,103.235352 85.6092761,103.235352 C86.6724271,103.235352 87.7009102,103.09668 88.6947253,102.819336 C89.6885404,102.541992 90.8094714,102.149089 92.0575183,101.640625 C93.9527006,100.808594 95.4318673,100.392578 96.4950183,100.392578 C97.2808256,100.392578 97.7892891,100.485026 98.0204089,100.669922 C98.2515287,100.854818 98.3670886,101.178385 98.3670886,101.640625 C98.3670886,102.380208 97.8470691,103.0389 96.80703,103.616699 C95.766991,104.194499 94.4380521,104.760742 92.8202136,105.31543 L91.5028308,105.800781 C90.7632475,106.031901 89.5960925,106.297689 88.001366,106.598145 C86.4066394,106.8986 85.3550443,107.048828 84.8465808,107.048828 C84.1069975,107.048828 83.471418,106.771484 82.9398425,106.216797 C82.408267,105.662109 82.1424792,105.153646 82.1424792,104.691406 Z M82.350487,119.182617 C82.350487,116.547852 82.6047188,114.051758 83.1131824,111.694336 C83.6216459,109.336914 84.7079089,108.158203 86.3719714,108.158203 C87.0191068,108.158203 87.3426745,108.527995 87.3426745,109.267578 C87.3426745,110.561849 87.1808907,112.064128 86.857323,113.774414 C86.5799792,115.71582 86.4413074,117.171875 86.4413074,118.142578 C86.4413074,118.604818 86.5337553,118.928385 86.7186511,119.113281 C86.9035469,119.298177 87.2271146,119.483073 87.6893542,119.667969 C88.1515938,119.852865 88.3827136,120.176432 88.3827136,120.638672 C88.3827136,121.008464 88.1400378,121.343587 87.6546863,121.644043 C87.1693347,121.944499 86.7417631,122.094727 86.3719714,122.094727 C85.4012683,122.094727 84.4883451,121.852051 83.6332019,121.366699 C82.7780587,120.881348 82.350487,120.15332 82.350487,119.182617 Z M84.3612292,126.324219 C84.3612292,126.000651 84.5461251,125.677083 84.9159167,125.353516 C85.2857084,125.029948 85.701724,124.717936 86.1639636,124.41748 C86.6262032,124.117025 86.9497709,123.897461 87.1346667,123.758789 C87.8280261,123.250326 89.052961,121.782715 90.8094714,119.355957 C92.5659818,116.929199 93.8140287,115.091797 94.553612,113.84375 C95.1545235,112.641927 95.709211,111.786784 96.2176745,111.27832 C96.4950183,110.954753 96.9341459,110.792969 97.5350574,110.792969 C97.9972969,110.792969 98.3786446,110.885417 98.6791003,111.070312 C98.9795561,111.255208 99.1297839,111.601888 99.1297839,112.110352 C99.1297839,114.051758 98.4710925,115.981608 97.1537097,117.899902 C95.8363269,119.818197 94.1838204,121.817383 92.1961902,123.897461 C91.317935,124.775716 90.8788074,125.28418 90.8788074,125.422852 C90.8788074,125.561523 91.3641589,125.734863 92.334862,125.942871 C93.3055652,126.150879 93.9758126,126.254883 94.3456042,126.254883 C95.686099,126.254883 96.9919258,126.081543 98.2630847,125.734863 C99.5342436,125.388184 101.117414,124.868164 103.012596,124.174805 C104.954003,123.435221 106.618065,122.880534 108.004784,122.510742 C109.391503,122.140951 110.778221,122.002279 112.16494,122.094727 C112.580956,122.140951 113.066307,122.117839 113.620995,122.025391 C114.175682,121.932943 114.545474,121.863607 114.73037,121.817383 C115.007714,121.771159 115.319725,121.724935 115.666405,121.678711 C116.013085,121.632487 116.394432,121.609375 116.810448,121.609375 C117.688703,121.609375 118.127831,121.932943 118.127831,122.580078 C118.127831,123.042318 117.792707,123.504557 117.12246,123.966797 C116.452212,124.429036 115.839745,124.729492 115.285057,124.868164 C114.453026,125.237956 113.528547,125.480632 112.51162,125.596191 C111.494693,125.711751 110.893781,125.792643 110.708885,125.838867 C109.507063,125.931315 108.628807,126.046875 108.07412,126.185547 C106.779849,126.416667 104.769107,126.994466 102.041893,127.918945 C100.054263,128.566081 98.5057605,129.039876 97.3963855,129.340332 C96.2870105,129.640788 95.1082995,129.791016 93.8602527,129.791016 C93.0744454,129.791016 91.9072904,129.652344 90.3587878,129.375 C88.8102852,129.097656 87.4235665,128.693197 86.1986316,128.161621 C84.9736967,127.630046 84.3612292,127.017578 84.3612292,126.324219 Z" id="Shape"></path>
            <path d="M140.085839,95.4003906 C140.085839,94.938151 140.86009,94.6376953 142.408593,94.4990234 C143.957095,94.3603516 145.390038,94.2794596 146.707421,94.2563477 C148.024803,94.2332357 148.845279,94.2216797 149.168846,94.2216797 C153.606346,94.1292318 157.165591,93.828776 159.846581,93.3203125 C160.170149,93.2740885 161.036848,93.0891927 162.446678,92.765625 C163.856509,92.4420573 164.815656,92.2802734 165.32412,92.2802734 C165.647688,92.2802734 166.029035,92.3149414 166.468163,92.3842773 C166.90729,92.4536133 167.265526,92.5113932 167.54287,92.5576172 C167.866438,92.6500651 168.363345,92.742513 169.033593,92.8349609 C169.70384,92.9274089 170.200747,93.1469727 170.524315,93.4936523 C170.847883,93.840332 171.009667,94.3834635 171.009667,95.1230469 C171.009667,96.0013021 170.905663,96.6022135 170.697655,96.9257812 C170.489647,97.249349 169.99274,97.4111328 169.206932,97.4111328 C168.883365,97.4111328 168.629133,97.3533529 168.444237,97.237793 C168.259341,97.1222331 168.028221,96.9257812 167.750878,96.6484375 C167.381086,96.2786458 167.02285,96.0013021 166.676171,95.8164062 C166.329491,95.6315104 165.855695,95.5390625 165.254784,95.5390625 C164.792544,95.5390625 164.052961,95.6777344 163.036034,95.9550781 C162.573794,96.139974 162.088443,96.2786458 161.579979,96.3710938 C154.969953,97.3417969 149.284406,97.8271484 144.523339,97.8271484 C143.598859,97.8271484 142.628156,97.6306966 141.611229,97.237793 C140.594302,96.8448893 140.085839,96.2324219 140.085839,95.4003906 Z M142.581932,113.358398 C142.581932,112.711263 142.951724,112.156576 143.691307,111.694336 C144.477115,111.232096 145.251366,110.515625 146.014061,109.544922 C146.776757,108.574219 147.735904,107.210612 148.891503,105.454102 C149.030175,105.269206 149.353742,104.806966 149.862206,104.067383 C150.370669,103.327799 150.925357,102.726888 151.526268,102.264648 C152.12718,101.802409 152.704979,101.571289 153.259667,101.571289 C153.490787,101.571289 153.675682,101.675293 153.814354,101.883301 C153.953026,102.091309 154.022362,102.310872 154.022362,102.541992 C154.022362,103.420247 153.490787,104.783854 152.427635,106.632812 C151.641828,107.927083 151.248925,108.805339 151.248925,109.267578 C151.248925,109.63737 151.688052,109.822266 152.566307,109.822266 C153.398339,109.822266 154.126366,110.157389 154.750389,110.827637 C155.374413,111.497884 155.686425,112.249023 155.686425,113.081055 C155.686425,114.051758 155.536197,114.964681 155.235741,115.819824 C154.935285,116.674967 154.484602,117.795898 153.88369,119.182617 C152.959211,121.031576 152.381412,122.626302 152.150292,123.966797 C152.01162,124.752604 151.595604,125.330404 150.902245,125.700195 C150.162662,126.069987 149.399966,126.590007 148.614159,127.260254 C147.828352,127.930501 147.319888,128.358073 147.088768,128.542969 C145.609602,129.744792 144.373111,130.646159 143.379296,131.24707 C142.385481,131.847982 141.241438,132.148438 139.947167,132.148438 C139.161359,132.148438 138.387108,131.905762 137.624413,131.42041 C136.861718,130.935059 136.48037,130.299479 136.48037,129.513672 C136.48037,128.91276 136.607486,128.508301 136.861718,128.300293 C137.115949,128.092285 137.566633,127.988281 138.213768,127.988281 C138.491112,127.988281 138.860904,128.092285 139.323143,128.300293 C139.785383,128.508301 140.108951,128.612305 140.293846,128.612305 C140.709862,128.612305 141.368553,128.311849 142.269921,127.710938 C143.171288,127.110026 143.991763,126.428223 144.731346,125.665527 C145.47093,124.902832 145.840721,124.313477 145.840721,123.897461 C145.840721,123.758789 145.540266,123.342773 144.939354,122.649414 C143.552635,121.031576 142.859276,119.852865 142.859276,119.113281 C142.859276,118.74349 143.4833,118.558594 144.731346,118.558594 C145.378482,118.558594 145.875389,118.62793 146.222069,118.766602 C146.568749,118.905273 146.950096,119.147949 147.366112,119.494629 C147.782128,119.841309 148.151919,120.107096 148.475487,120.291992 C149.030175,120.014648 149.596418,119.090169 150.174218,117.518555 C150.752017,115.94694 151.040917,114.745117 151.040917,113.913086 C151.040917,113.358398 150.786685,113.081055 150.278221,113.081055 C149.769758,113.081055 148.960839,113.358398 147.851464,113.913086 C146.649641,114.560221 145.678938,114.883789 144.939354,114.883789 C144.477115,114.883789 143.968651,114.733561 143.413964,114.433105 C142.859276,114.13265 142.581932,113.774414 142.581932,113.358398 Z M159.638573,114.051758 C159.638573,112.480143 159.846581,110.931641 160.262596,109.40625 C160.678612,107.880859 161.441307,106.95638 162.550682,106.632812 C162.828026,106.540365 163.22093,106.494141 163.729393,106.494141 C164.74632,106.494141 165.301008,107.095052 165.393456,108.296875 C164.74632,110.145833 164.422753,111.833008 164.422753,113.358398 C164.422753,113.635742 164.468977,113.820638 164.561425,113.913086 C164.792544,113.913086 165.15078,113.716634 165.636132,113.32373 C166.121483,112.930827 166.410383,112.688151 166.502831,112.595703 C167.519758,111.717448 168.398013,111.047201 169.137596,110.584961 C169.87718,110.122721 170.616763,109.891602 171.356346,109.891602 C171.772362,109.891602 172.119042,109.984049 172.396385,110.168945 C172.673729,110.353841 172.812401,110.654297 172.812401,111.070312 C172.812401,112.410807 172.072818,113.658854 170.593651,114.814453 C169.114484,115.970052 167.357974,117.102539 165.32412,118.211914 C166.525943,119.598633 167.65843,120.604004 168.721581,121.228027 C169.784732,121.852051 171.125227,122.164062 172.743065,122.164062 C174.037336,122.164062 175.262271,121.967611 176.41787,121.574707 C177.573469,121.181803 179.052635,120.569336 180.85537,119.737305 L182.519432,118.974609 C182.935448,118.835938 183.513247,118.674154 184.252831,118.489258 C184.992414,118.304362 185.570214,118.073242 185.986229,117.795898 C186.402245,117.518555 187.04938,116.802083 187.927635,115.646484 C188.574771,114.814453 189.106346,114.19043 189.522362,113.774414 C189.938378,113.358398 190.331281,113.150391 190.701073,113.150391 C191.070865,113.150391 191.394432,113.346842 191.671776,113.739746 C191.94912,114.13265 192.087792,114.537109 192.087792,114.953125 C192.087792,115.276693 191.914452,115.94694 191.567772,116.963867 C191.221093,117.980794 190.828189,118.905273 190.389061,119.737305 C189.949934,120.569336 189.568586,120.985352 189.245018,120.985352 C188.412987,120.985352 187.476952,121.170247 186.436913,121.540039 C185.396874,121.909831 184.114159,122.441406 182.588768,123.134766 C180.27757,124.105469 178.336164,124.845052 176.76455,125.353516 C175.192935,125.861979 173.62132,126.116211 172.049706,126.116211 C171.587466,126.116211 171.009667,126.012207 170.316307,125.804199 C169.622948,125.596191 169.137596,125.469076 168.860253,125.422852 C166.317935,124.637044 164.145409,123.192546 162.342675,121.089355 C160.53994,118.986165 159.638573,116.640299 159.638573,114.051758 Z" id="Shape"></path>
            <path d="M213.837792,96.5791016 C213.837792,95.9319661 214.161359,95.5275065 214.808495,95.3657227 C215.45563,95.2039388 216.518781,95.1230469 217.997948,95.1230469 C220.031802,95.1230469 221.603417,94.9150391 222.712792,94.4990234 C223.822167,94.0830078 224.376854,93.0660807 224.376854,91.4482422 C224.376854,90.7086589 224.584862,90.1193034 225.000878,89.6801758 C225.416893,89.2410482 225.994693,89.0214844 226.734276,89.0214844 C227.335188,89.0214844 227.762759,89.3103841 228.016991,89.8881836 C228.271223,90.4659831 228.467675,91.2633464 228.606346,92.2802734 C228.65257,92.5576172 228.675682,92.8234049 228.675682,93.0776367 C228.675682,93.3318685 228.745018,93.4589844 228.88369,93.4589844 C229.022362,93.4589844 229.253482,93.3896484 229.57705,93.2509766 L230.270409,92.9736328 C231.749576,92.6038411 232.812727,92.4189453 233.459862,92.4189453 C235.170149,92.4189453 236.025292,93.2278646 236.025292,94.8457031 C236.025292,95.1230469 235.909732,95.3657227 235.678612,95.5737305 C235.447492,95.7817383 235.077701,95.9088542 234.569237,95.9550781 C232.951399,96.047526 231.784244,96.1630859 231.067772,96.3017578 C230.351301,96.4404297 229.738833,96.7177734 229.23037,97.1337891 C228.721906,97.5498047 228.282779,98.2431641 227.912987,99.2138672 C227.681867,99.8610026 227.288964,100.693034 226.734276,101.709961 C226.641828,101.987305 226.54938,102.195312 226.456932,102.333984 C226.040917,103.258464 225.832909,103.998047 225.832909,104.552734 C225.832909,104.830078 225.913801,105.08431 226.075585,105.31543 C226.237369,105.546549 226.456932,105.662109 226.734276,105.662109 C228.167219,105.662109 230.201073,105.176758 232.835839,104.206055 C234.407453,103.697591 235.678612,103.316243 236.649315,103.062012 C237.620018,102.80778 238.636945,102.680664 239.700096,102.680664 C240.43968,102.680664 241.213931,102.80778 242.02285,103.062012 C242.83177,103.316243 243.236229,103.582031 243.236229,103.859375 C243.236229,104.229167 243.097557,104.483398 242.820214,104.62207 C242.54287,104.760742 242.173078,104.85319 241.710839,104.899414 C240.740135,104.991862 238.33649,105.766113 234.499901,107.222168 C230.663313,108.678223 228.53701,109.63737 228.120995,110.099609 L228.120995,110.376953 C228.120995,110.654297 228.144107,110.920085 228.190331,111.174316 C228.236555,111.428548 228.259667,111.671224 228.259667,111.902344 C228.259667,112.595703 227.993879,113.38151 227.462303,114.259766 C226.930728,115.138021 226.040917,116.40918 224.79287,118.073242 C223.498599,119.737305 222.493228,121.216471 221.776757,122.510742 C221.060285,123.805013 220.70205,125.006836 220.70205,126.116211 C220.70205,126.763346 220.863833,127.283366 221.187401,127.67627 C221.510969,128.069173 221.903872,128.265625 222.366112,128.265625 C222.643456,128.265625 222.9208,128.196289 223.198143,128.057617 C224.815982,127.318034 226.133365,126.532227 227.150292,125.700195 C228.167219,124.868164 229.392154,123.666341 230.825096,122.094727 L232.558495,120.222656 C232.882063,119.945312 233.240298,119.771973 233.633202,119.702637 C234.026106,119.633301 234.569237,119.598633 235.262596,119.598633 C236.603091,119.598633 237.712466,119.991536 238.590721,120.777344 C240.393456,122.533854 242.230858,124.845052 244.102928,127.710938 C245.974999,130.576823 246.911034,132.911133 246.911034,134.713867 C246.911034,135.083659 246.795474,135.418783 246.564354,135.719238 C246.333234,136.019694 246.102115,136.169922 245.870995,136.169922 C245.270083,136.169922 243.259341,133.881836 239.838768,129.305664 C238.22093,127.086914 237.088443,125.619303 236.441307,124.902832 C235.794172,124.186361 235.30882,123.828125 234.985253,123.828125 C234.707909,123.828125 234.083885,124.244141 233.113182,125.076172 C232.558495,125.492188 231.56468,126.301107 230.131737,127.50293 C227.866763,129.351888 226.283593,130.553711 225.382225,131.108398 C224.480858,131.663086 223.406151,131.94043 222.158104,131.94043 C221.187401,131.94043 220.205142,131.674642 219.211327,131.143066 C218.217512,130.611491 217.385481,129.941243 216.715233,129.132324 C216.044986,128.323405 215.709862,127.526042 215.709862,126.740234 C215.709862,125.16862 216.299218,123.388997 217.477928,121.401367 C218.656639,119.413737 220.170474,117.218099 222.019432,114.814453 C223.452375,112.734375 224.21507,111.440104 224.307518,110.931641 C223.383039,110.977865 222.539452,111.081868 221.776757,111.243652 C221.014061,111.405436 220.101138,111.694336 219.037987,112.110352 C216.911685,112.849935 215.247622,113.219727 214.0458,113.219727 C213.537336,113.219727 212.936425,112.873047 212.243065,112.179688 C211.549706,111.486328 211.203026,110.885417 211.203026,110.376953 C211.203026,109.960938 211.607486,109.614258 212.416405,109.336914 C213.225324,109.05957 214.623599,108.782227 216.611229,108.504883 C218.36774,108.227539 219.558007,108.007975 220.18203,107.846191 C220.806053,107.684408 221.210513,107.441732 221.395409,107.118164 C221.626529,106.794596 221.903872,105.789225 222.22744,104.102051 C222.551008,102.414876 222.712792,101.270833 222.712792,100.669922 C222.712792,99.7916667 222.447004,99.2254232 221.915428,98.9711914 C221.383853,98.7169596 220.70205,98.5898438 219.870018,98.5898438 L218.760643,98.5898438 C217.928612,98.6822917 217.304589,98.7285156 216.888573,98.7285156 C214.854719,98.7285156 213.837792,98.0120443 213.837792,96.5791016 Z" id="Path"></path>
            <path d="M276.079979,93.875 C276.542219,93.6901042 276.981346,93.5976562 277.397362,93.5976562 C277.998274,93.5976562 278.564517,93.7132161 279.096093,93.9443359 C279.627668,94.1754557 279.893456,94.4527995 279.893456,94.7763672 C279.893456,95.3772786 279.662336,96.0128581 279.200096,96.6831055 C278.737857,97.3533529 278.460513,97.8040365 278.368065,98.0351562 C276.334211,103.119792 274.727928,107.765299 273.549218,111.97168 C272.370507,116.17806 271.781151,120.014648 271.781151,123.481445 C271.781151,124.036133 271.966047,124.82194 272.335839,125.838867 C272.659406,126.902018 272.82119,127.641602 272.82119,128.057617 C272.82119,128.658529 272.659406,129.132324 272.335839,129.479004 C272.012271,129.825684 271.596255,129.999023 271.087792,129.999023 C270.394432,129.999023 269.770409,129.652344 269.215721,128.958984 C268.61481,128.173177 268.314354,126.670898 268.314354,124.452148 C268.314354,121.401367 268.78815,117.530111 269.735741,112.838379 C270.683332,108.146647 271.781151,103.917155 273.029198,100.149902 C274.277245,96.3826497 275.294172,94.2910156 276.079979,93.875 Z M293.691307,106.979492 C293.691307,106.193685 294.257551,104.44873 295.390038,101.744629 C296.522525,99.0405273 297.296776,97.4804688 297.712792,97.0644531 C298.036359,96.7408854 298.591047,96.5791016 299.376854,96.5791016 C300.070214,96.5791016 300.636457,96.7177734 301.075585,96.9951172 C301.514712,97.2724609 301.66494,97.6884766 301.526268,98.2431641 C301.43382,98.4742839 301.260481,98.8325195 301.006249,99.3178711 C300.752017,99.8032227 300.624901,100.18457 300.624901,100.461914 C300.624901,100.924154 300.902245,101.178385 301.456932,101.224609 C304.369042,101.733073 306.483788,102.183757 307.801171,102.57666 C309.118553,102.969564 310.181704,103.524251 310.990624,104.240723 C311.799543,104.957194 312.342675,106.031901 312.620018,107.464844 C312.712466,107.927083 312.75869,108.319987 312.75869,108.643555 C312.75869,109.429362 312.573794,110.792969 312.204003,112.734375 L311.787987,115.369141 C311.741763,115.646484 311.891991,115.842936 312.238671,115.958496 C312.58535,116.074056 313.174706,116.201172 314.006737,116.339844 C315.20856,116.478516 316.156151,116.709635 316.84951,117.033203 C317.54287,117.356771 317.88955,117.911458 317.88955,118.697266 C317.88955,119.159505 317.750878,119.540853 317.473534,119.841309 C317.19619,120.141764 316.826399,120.291992 316.364159,120.291992 C315.43968,120.291992 314.445865,120.222656 313.382714,120.083984 C312.319563,119.945312 311.579979,119.852865 311.163964,119.806641 C308.991438,124.983724 307.142479,127.803385 305.617089,128.265625 C305.154849,128.358073 304.785057,128.404297 304.507714,128.404297 C303.444563,128.404297 302.346744,128.126953 301.214257,127.572266 C300.08177,127.017578 299.145734,126.312663 298.406151,125.45752 C297.666568,124.602376 297.296776,123.781901 297.296776,122.996094 C297.296776,122.626302 297.782128,122.441406 298.752831,122.441406 C299.307518,122.441406 299.79287,122.580078 300.208885,122.857422 C300.624901,123.134766 301.087141,123.527669 301.595604,124.036133 C302.381412,124.82194 303.005435,125.214844 303.467675,125.214844 C303.88369,125.214844 304.449934,124.498372 305.166405,123.06543 C305.882876,121.632487 306.241112,120.61556 306.241112,120.014648 C306.241112,119.875977 305.998436,119.737305 305.513085,119.598633 C305.027733,119.459961 304.692609,119.367513 304.507714,119.321289 C302.936099,118.905273 301.699608,118.466146 300.798241,118.003906 C299.896874,117.541667 299.469302,116.871419 299.515526,115.993164 C299.515526,115.623372 300.255109,115.438477 301.734276,115.438477 L305.478417,115.507812 C306.495344,115.507812 307.119367,115.438477 307.350487,115.299805 C307.812727,115.022461 308.136294,114.178874 308.32119,112.769043 C308.506086,111.359212 308.598534,110.099609 308.598534,108.990234 C308.598534,106.910156 306.911359,105.592773 303.53701,105.038086 C302.150292,104.760742 301.31826,104.62207 301.040917,104.62207 C300.255109,104.62207 299.607974,104.991862 299.09951,105.731445 C298.960839,105.916341 298.741275,106.274577 298.440819,106.806152 C298.140363,107.337728 297.816796,107.811523 297.470116,108.227539 C297.123436,108.643555 296.765201,108.851562 296.395409,108.851562 C295.748274,108.851562 295.135806,108.701335 294.558007,108.400879 C293.980207,108.100423 293.691307,107.626628 293.691307,106.979492 Z M276.842675,107.464844 C278.552961,107.464844 280.309471,107.753743 282.112206,108.331543 C283.91494,108.909342 284.978091,109.845378 285.301659,111.139648 C285.486555,111.879232 285.579003,113.196615 285.579003,115.091797 C285.579003,117.587891 285.336327,120.2111 284.850975,122.961426 C284.365624,125.711751 283.406477,127.086914 281.973534,127.086914 C281.742414,127.086914 281.395734,126.971354 280.933495,126.740234 C280.471255,126.509115 280.101464,126.393555 279.82412,126.393555 C279.36188,126.393555 278.714745,126.624674 277.882714,127.086914 C276.958234,127.549154 276.241763,127.780273 275.7333,127.780273 C275.317284,127.780273 274.797264,127.491374 274.173241,126.913574 C273.549218,126.335775 273.237206,125.838867 273.237206,125.422852 C273.237206,124.960612 273.479882,124.602376 273.965233,124.348145 C274.450585,124.093913 275.224836,123.805013 276.287987,123.481445 C277.95205,122.972982 279.211652,122.441406 280.066796,121.886719 C280.921939,121.332031 281.34951,120.430664 281.34951,119.182617 C281.025943,119.182617 280.609927,119.298177 280.101464,119.529297 C279.593,119.760417 279.269432,119.922201 279.13076,120.014648 C277.651594,120.754232 276.565331,121.124023 275.871971,121.124023 C275.50218,121.124023 274.970604,120.777344 274.277245,120.083984 C273.583885,119.390625 273.329654,118.882161 273.51455,118.558594 C273.699445,118.188802 274.138573,117.853678 274.831932,117.553223 C275.525292,117.252767 276.634667,116.848307 278.160057,116.339844 C279.500552,115.923828 280.448143,115.577148 281.002831,115.299805 C281.233951,115.161133 281.34951,114.675781 281.34951,113.84375 C281.34951,113.242839 281.268619,112.676595 281.106835,112.14502 C280.945051,111.613444 280.725487,111.255208 280.448143,111.070312 C280.217024,110.931641 279.905012,110.827637 279.512108,110.758301 C279.119204,110.688965 278.853417,110.631185 278.714745,110.584961 C277.697818,110.400065 276.923566,110.157389 276.391991,109.856934 C275.860415,109.556478 275.594628,108.990234 275.594628,108.158203 C275.594628,107.834635 275.698632,107.638184 275.906639,107.568848 C276.114647,107.499512 276.426659,107.464844 276.842675,107.464844 Z" id="Shape"></path>
            <path d="M354.269432,94.2216797 C354.269432,93.7594401 354.384992,93.4012044 354.616112,93.1469727 C354.847232,92.8927409 355.309471,92.765625 356.002831,92.765625 C357.112206,92.765625 357.817121,93.0429688 358.117577,93.5976562 C358.418033,94.1523438 358.56826,95.1230469 358.56826,96.5097656 C358.56826,97.5266927 358.475813,98.5436198 358.290917,99.5605469 C358.106021,100.577474 357.828677,101.825521 357.458885,103.304688 C357.04287,105.061198 356.834862,106.239909 356.834862,106.84082 C356.834862,107.53418 357.04287,107.880859 357.458885,107.880859 C358.198469,107.788411 359.469628,107.557292 361.272362,107.1875 C363.075096,106.817708 364.184471,106.563477 364.600487,106.424805 C364.785383,106.286133 364.947167,106.031901 365.085839,105.662109 C365.22451,105.292318 365.363182,104.899414 365.501854,104.483398 C365.779198,103.281576 366.137434,102.333984 366.576561,101.640625 C367.015689,100.947266 367.766828,100.600586 368.829979,100.600586 C369.384667,100.600586 369.83535,100.658366 370.18203,100.773926 C370.52871,100.889486 370.70205,101.201497 370.70205,101.709961 C370.70205,102.310872 370.609602,102.946452 370.424706,103.616699 C370.23981,104.286947 370.031802,104.922526 369.800682,105.523438 C371.094953,105.292318 373.544823,105.176758 377.150292,105.176758 C378.675682,105.176758 382.142479,105.246094 387.550682,105.384766 C388.475162,105.43099 389.422753,105.454102 390.393456,105.454102 C392.981997,105.454102 394.276268,106.147461 394.276268,107.53418 C394.276268,108.504883 393.259341,108.990234 391.225487,108.990234 L378.675682,108.920898 C375.347557,108.920898 372.886132,109.024902 371.291405,109.23291 C369.696678,109.440918 368.737531,109.86849 368.413964,110.515625 C368.13662,111.070312 367.605044,112.376139 366.819237,114.433105 C366.03343,116.490072 365.524966,117.842122 365.293846,118.489258 C364.323143,121.077799 363.768456,122.533854 363.629784,122.857422 C363.35244,123.458333 363.213768,124.267253 363.213768,125.28418 C363.12132,126.254883 362.959537,126.902018 362.728417,127.225586 C362.127505,128.011393 361.341698,128.716309 360.370995,129.340332 C359.400292,129.964355 358.452701,130.276367 357.528221,130.276367 C356.280175,130.276367 355.378807,130.137695 354.82412,129.860352 C354.269432,129.583008 353.992089,129.074544 353.992089,128.334961 C353.992089,128.103841 354.153872,127.872721 354.47744,127.641602 C354.801008,127.410482 355.1708,127.202474 355.586815,127.017578 C356.233951,126.69401 356.719302,126.428223 357.04287,126.220215 C357.366438,126.012207 357.528221,125.700195 357.528221,125.28418 C357.528221,125.05306 357.112206,124.637044 356.280175,124.036133 C355.124576,123.111654 354.408104,122.395182 354.13076,121.886719 C353.437401,120.684896 352.917382,119.471517 352.570702,118.246582 C352.224022,117.021647 351.888899,115.253581 351.565331,112.942383 C350.455956,113.358398 348.699445,113.913086 346.2958,114.606445 C343.198794,115.484701 341.095604,116.154948 339.986229,116.617188 C338.322167,117.541667 337.30524,118.003906 336.935448,118.003906 C336.334537,118.003906 335.733625,117.703451 335.132714,117.102539 C334.531802,116.501628 334.346906,115.993164 334.578026,115.577148 C334.85537,114.883789 336.415428,114.028646 339.258202,113.011719 C342.100975,111.994792 345.509992,110.862305 349.485253,109.614258 L350.941307,109.128906 C351.264875,109.036458 351.507551,108.920898 351.669335,108.782227 C351.831119,108.643555 351.935122,108.435547 351.981346,108.158203 C352.304914,106.72526 352.77871,104.494954 353.402733,101.467285 C354.026757,98.4396159 354.338768,96.6253255 354.338768,96.0244141 L354.269432,94.2216797 Z M359.816307,121.124023 C360.463443,120.15332 361.203026,118.443034 362.035057,115.993164 C362.867089,113.543294 363.375552,111.717448 363.560448,110.515625 C362.543521,110.515625 361.13369,110.712077 359.330956,111.10498 C357.528221,111.497884 356.58063,111.97168 356.488182,112.526367 C356.395734,113.081055 356.476626,114.040202 356.730858,115.403809 C356.98509,116.767415 357.377994,118.027018 357.909569,119.182617 C358.441145,120.338216 359.076724,120.985352 359.816307,121.124023 Z" id="Shape"></path>
            <path d="M436.341698,87.6347656 C436.341698,87.3574219 436.445702,87.1378581 436.65371,86.9760742 C436.861718,86.8142904 437.127505,86.7333984 437.451073,86.7333984 C438.745344,86.7333984 439.716047,87.230306 440.363182,88.2241211 C441.010318,89.2179362 441.333885,90.3850911 441.333885,91.7255859 C441.333885,92.6038411 441.241438,93.2740885 441.056542,93.7363281 C440.779198,93.828776 440.501854,93.875 440.22451,93.875 C439.669823,93.875 439.138247,93.7132161 438.629784,93.3896484 C438.491112,93.2047526 438.387108,92.9042969 438.317772,92.4882812 C438.248436,92.0722656 438.213768,91.702474 438.213768,91.3789062 C438.12132,90.9166667 437.971093,90.512207 437.763085,90.1655273 C437.555077,89.8188477 437.335513,89.5299479 437.104393,89.2988281 C436.82705,88.9752604 436.630598,88.7094727 436.515038,88.5014648 C436.399478,88.293457 436.341698,88.0045573 436.341698,87.6347656 Z M431.765526,97.9658203 C431.765526,97.4573568 432.15843,97.203125 432.944237,97.203125 C436.36481,97.203125 439.115135,96.8564453 441.195214,96.1630859 C442.720604,95.5621745 444.130435,95.2617188 445.424706,95.2617188 C446.118065,95.2617188 446.603417,95.3888346 446.88076,95.6430664 C447.158104,95.8972982 447.296776,96.3710938 447.296776,97.0644531 C447.296776,97.6653646 447.158104,98.0120443 446.88076,98.1044922 C446.834537,98.1507161 446.418521,98.266276 445.632714,98.4511719 L444.592675,98.7285156 C443.806867,98.9134115 442.928612,99.1907552 441.957909,99.5605469 C440.663638,99.9303385 439.588931,100.207682 438.733788,100.392578 C437.878645,100.577474 436.896385,100.669922 435.78701,100.669922 C434.677635,100.669922 433.730044,100.47347 432.944237,100.080566 C432.15843,99.6876628 431.765526,98.9827474 431.765526,97.9658203 Z M411.935448,101.016602 C411.935448,100.693034 412.108788,100.438802 412.455468,100.253906 C412.802147,100.06901 413.160383,99.9765625 413.530175,99.9765625 C414.084862,99.9765625 414.824445,100.161458 415.748925,100.53125 C416.996971,101.132161 417.863671,101.848633 418.349022,102.680664 C418.834374,103.512695 419.07705,104.645182 419.07705,106.078125 C419.07705,107.002604 418.938378,108.250651 418.661034,109.822266 C418.38369,111.486328 418.245018,112.688151 418.245018,113.427734 C418.245018,113.566406 418.256574,113.681966 418.279686,113.774414 C418.302798,113.866862 418.360578,113.913086 418.453026,113.913086 C418.591698,113.913086 418.84593,113.832194 419.215721,113.67041 C419.585513,113.508626 419.885969,113.38151 420.117089,113.289062 C421.596255,112.595703 422.798078,112.249023 423.722557,112.249023 C424.970604,112.249023 425.594628,112.549479 425.594628,113.150391 C425.594628,113.705078 424.947492,114.340658 423.653221,115.057129 C422.358951,115.7736 421.157128,116.374512 420.047753,116.859863 C418.938378,117.345215 418.26813,117.657227 418.03701,117.795898 L418.314354,120.083984 C418.591698,121.932943 418.73037,123.296549 418.73037,124.174805 C418.73037,125.515299 418.141014,126.578451 416.962303,127.364258 C415.783593,128.150065 414.339094,128.820312 412.628807,129.375 C411.750552,129.698568 411.242089,129.929688 411.103417,130.068359 C410.964745,130.207031 410.826073,130.299479 410.687401,130.345703 C410.548729,130.391927 410.386945,130.415039 410.20205,130.415039 C409.786034,130.415039 409.289126,130.322591 408.711327,130.137695 C408.133527,129.952799 407.844628,129.675456 407.844628,129.305664 C408.214419,128.982096 408.815331,128.635417 409.647362,128.265625 C411.357649,127.294922 412.617251,126.532227 413.426171,125.977539 C414.23509,125.422852 414.63955,124.868164 414.63955,124.313477 C414.63955,123.758789 414.500878,122.764974 414.223534,121.332031 C413.94619,119.899089 413.761294,119.159505 413.668846,119.113281 C411.588768,119.899089 410.005598,120.55778 408.919335,121.089355 C407.833072,121.620931 406.897037,122.395182 406.111229,123.412109 C405.833885,123.689453 405.625878,123.828125 405.487206,123.828125 C404.793846,123.828125 404.447167,123.042318 404.447167,121.470703 C404.447167,120.130208 405.048078,119.113281 406.249901,118.419922 C407.451724,117.726562 409.208234,117.033203 411.519432,116.339844 C412.212792,116.108724 412.663475,115.970052 412.871483,115.923828 C413.079491,115.877604 413.275943,115.762044 413.460839,115.577148 C413.738182,115.346029 414.165754,113.947754 414.743553,111.382324 C415.321353,108.816895 415.610253,107.233724 415.610253,106.632812 C415.610253,105.477214 415.413801,104.633626 415.020897,104.102051 C414.627994,103.570475 414.038638,103.073568 413.252831,102.611328 C412.836815,102.333984 412.513247,102.079753 412.282128,101.848633 C412.051008,101.617513 411.935448,101.340169 411.935448,101.016602 Z M435.440331,107.53418 C435.440331,105.870117 435.590559,104.390951 435.891014,103.09668 C436.19147,101.802409 436.896385,101.155273 438.00576,101.155273 C438.329328,101.155273 438.710676,101.282389 439.149803,101.536621 C439.588931,101.790853 439.808495,102.079753 439.808495,102.40332 C439.808495,102.773112 439.716047,103.327799 439.531151,104.067383 C439.253807,104.945638 439.115135,105.962565 439.115135,107.118164 C439.115135,107.857747 439.184471,108.551107 439.323143,109.198242 C439.369367,109.475586 439.623599,109.822266 440.085839,110.238281 C440.548078,110.654297 440.894758,110.908529 441.125878,111.000977 C441.726789,111.185872 442.304589,110.920085 442.859276,110.203613 C443.413964,109.487142 444.269107,107.903971 445.424706,105.454102 C445.655826,104.945638 446.326073,104.691406 447.435448,104.691406 C448.221255,104.691406 448.706607,104.899414 448.891503,105.31543 C448.937727,106.239909 448.302147,107.996419 446.984764,110.584961 C445.667382,113.173503 443.760643,116.663411 441.26455,121.054688 L440.016503,123.273438 C438.58356,125.769531 437.635969,127.572266 437.173729,128.681641 C436.850162,129.375 436.561262,129.871908 436.30703,130.172363 C436.052798,130.472819 435.648339,130.623047 435.093651,130.623047 C434.631412,130.623047 434.238508,130.472819 433.91494,130.172363 C433.591372,129.871908 433.429589,129.49056 433.429589,129.02832 C433.429589,128.612305 433.961164,127.248698 435.024315,124.9375 C436.087466,122.626302 437.150617,120.38444 438.213768,118.211914 L439.947167,114.606445 L438.768456,114.19043 C438.12132,114.005534 437.635969,113.774414 437.312401,113.49707 C436.526594,112.988607 436.01813,112.214355 435.78701,111.174316 C435.555891,110.134277 435.440331,108.920898 435.440331,107.53418 Z M440.779198,130.761719 C440.779198,130.484375 440.987206,130.091471 441.403221,129.583008 C442.235253,128.519857 442.836164,127.61849 443.205956,126.878906 C443.575747,126.139323 444.037987,124.960612 444.592675,123.342773 C444.870018,122.649414 445.147362,121.979167 445.424706,121.332031 C445.70205,120.684896 445.956281,120.245768 446.187401,120.014648 C446.603417,119.644857 447.11188,119.459961 447.712792,119.459961 C448.960839,119.459961 449.584862,119.829753 449.584862,120.569336 C449.584862,121.077799 449.434634,121.736491 449.134178,122.54541 C448.833723,123.354329 448.521711,124.128581 448.198143,124.868164 C448.105695,125.145508 447.943912,125.573079 447.712792,126.150879 C447.481672,126.728678 447.366112,127.110026 447.366112,127.294922 C447.366112,127.572266 447.620344,127.757161 448.128807,127.849609 C450.070214,128.358073 452.450747,129.097656 455.270409,130.068359 L458.459862,131.108398 C458.968326,131.24707 459.430565,131.408854 459.846581,131.59375 C461.464419,132.102214 462.596906,132.518229 463.244042,132.841797 C463.798729,133.026693 464.769432,133.119141 466.156151,133.119141 C466.433495,133.119141 466.826399,133.142253 467.334862,133.188477 C467.843326,133.234701 468.236229,133.280924 468.513573,133.327148 C468.929589,133.419596 469.253156,133.546712 469.484276,133.708496 C469.715396,133.87028 469.830956,134.136068 469.830956,134.505859 C469.830956,135.245443 469.438052,135.834798 468.652245,136.273926 C467.866438,136.713053 467.103742,136.932617 466.364159,136.932617 C464.792544,136.932617 463.232486,136.689941 461.683983,136.20459 C460.135481,135.719238 458.298078,135.014323 456.171776,134.089844 C453.76813,133.165365 451.872948,132.483561 450.486229,132.044434 C449.09951,131.605306 447.620344,131.385742 446.048729,131.385742 C445.632714,131.385742 445.00869,131.431966 444.176659,131.524414 C443.575747,131.663086 442.928612,131.732422 442.235253,131.732422 C441.26455,131.732422 440.779198,131.408854 440.779198,130.761719 Z" id="Shape"></path>
        </g>
    </g>
</svg>