<?xml version="1.0" encoding="UTF-8"?>
<svg width="155px" height="562px" viewBox="0 0 155 562" version="1.1" xmlns="http://www.w3.org/2000/svg" xmlns:xlink="http://www.w3.org/1999/xlink">
    <title>Artboard</title>
    <g id="Artboard" stroke="none" stroke-width="1" fill="none" fill-rule="evenodd">
        <g id="三位死去的女孩" transform="translate(-0.067871, 96.054688)" fill="#48453E" fill-rule="nonzero">
            <path d="M18.7900391,3.12011719 C18.7900391,2.47298177 19.8994141,1.91829427 22.1181641,1.45605469 C24.3369141,0.993815104 26.8214518,0.635579427 29.5717773,0.381347656 C32.3221029,0.127115885 34.2981771,0 35.5,0 C37.9036458,0 39.1054688,0.647135417 39.1054688,1.94140625 C39.1054688,3.14322917 38.5507812,3.74414063 37.4414062,3.74414063 C36.4244792,3.74414063 34.8759766,3.81347656 32.7958984,3.95214844 C30.7158203,4.09082031 29.4446615,4.25260417 28.9824219,4.4375 C28.2890625,4.66861979 27.0525716,4.91129557 25.2729492,5.16552734 C23.4933268,5.41975911 22.164388,5.546875 21.2861328,5.546875 C20.7776693,5.546875 20.2345378,5.28108724 19.6567383,4.74951172 C19.0789388,4.2179362 18.7900391,3.67480469 18.7900391,3.12011719 Z M21.3554688,14.2832031 C21.3554688,13.7285156 22.210612,13.2547201 23.9208984,12.8618164 C25.6311849,12.4689128 27.5379232,12.168457 29.6411133,11.9604492 C31.7443034,11.7524414 33.28125,11.6484375 34.2519531,11.6484375 C35.3613281,11.6484375 36.1586914,11.8333333 36.644043,12.203125 C37.1293945,12.5729167 37.3720703,13.3125 37.3720703,14.421875 L37.3720703,16.0166016 C35.8929036,15.6468099 34.7835286,15.4619141 34.0439453,15.4619141 C33.1194661,15.4619141 31.8251953,15.6468099 30.1611328,16.0166016 C29.8837891,16.0628255 29.3637695,16.1552734 28.6010742,16.2939453 C27.8383789,16.4326172 27.1334635,16.5019531 26.4863281,16.5019531 C25.2382812,16.5019531 24.0711263,16.3517253 22.9848633,16.0512695 C21.8986003,15.7508138 21.3554688,15.1614583 21.3554688,14.2832031 Z M14.0058594,28.5664062 C14.0058594,27.6419271 14.8956706,27.0410156 16.675293,26.7636719 C18.4549154,26.4863281 19.991862,26.3361003 21.2861328,26.3129883 C22.5804036,26.2898763 23.343099,26.2783203 23.5742188,26.2783203 C27.688151,26.0934245 32.4723307,25.515625 37.9267578,24.5449219 C40.2379557,24.0364583 42.202474,23.6551107 43.8203125,23.4008789 C45.438151,23.1466471 47.0328776,23.0195312 48.6044922,23.0195312 C49.898763,23.0195312 51.2508138,23.2159831 52.6606445,23.6088867 C54.0704753,24.0017904 54.7753906,24.6835938 54.7753906,25.6542969 C54.7753906,26.1165365 54.6367188,26.4747721 54.359375,26.7290039 C54.0820312,26.9832357 53.7122396,27.1103516 53.25,27.1103516 C52.6953125,27.1103516 51.7708333,27.0641276 50.4765625,26.9716797 C49.2747396,26.8792318 48.3271484,26.8330078 47.6337891,26.8330078 C46.0159505,26.8330078 43.9936523,27.0294596 41.5668945,27.4223633 C39.1401367,27.8152669 37.2102865,28.2890625 35.7773438,28.84375 C35.2226562,29.0748698 34.5986328,29.2135417 33.9052734,29.2597656 C33.2119141,29.3059896 32.7958984,29.3291016 32.6572266,29.3291016 C32.148763,29.3753255 31.6749674,29.4446615 31.2358398,29.5371094 C30.7967122,29.6295573 30.4153646,29.6988932 30.0917969,29.7451172 C28.889974,30.0686849 27.8499349,30.2304688 26.9716797,30.2304688 C26.7867839,30.2304688 26.613444,30.1958008 26.4516602,30.1264648 C26.2898763,30.0571289 26.0472005,30.0917969 25.7236328,30.2304688 C24.5218099,30.6002604 22.6728516,30.7851562 20.1767578,30.7851562 L17.8886719,30.7851562 C16.7792969,30.7851562 15.8548177,30.6464844 15.1152344,30.3691406 C14.375651,30.0917969 14.0058594,29.4908854 14.0058594,28.5664062 Z" id="Shape"></path>
            <path d="M31.0625,62.6103516 C31.0625,62.2405599 31.3282878,61.9747721 31.8598633,61.8129883 C32.3914388,61.6512044 32.8883464,61.5703125 33.3505859,61.5703125 C34.1826172,61.5703125 34.7141927,61.8245443 34.9453125,62.3330078 C35.2688802,62.9801432 35.523112,63.9624023 35.7080078,65.2797852 C35.8929036,66.597168 35.9853516,67.718099 35.9853516,68.6425781 C35.9853516,71.6471354 35.5693359,73.1494141 34.7373047,73.1494141 C34.3212891,73.1494141 33.9052734,73.0107422 33.4892578,72.7333984 C33.2119141,72.4560547 32.7381185,70.8613281 32.0678711,67.9492188 C31.3976237,65.0371094 31.0625,63.257487 31.0625,62.6103516 Z M5.82421875,81.1923828 C6.19401042,80.8225911 6.61002604,80.2679036 7.07226562,79.5283203 C7.44205729,78.9274089 7.81184896,78.4420573 8.18164062,78.0722656 C8.55143229,77.610026 8.89811198,77.2171224 9.22167969,76.8935547 C10.6546224,75.2294922 11.9373372,73.9005534 13.0698242,72.9067383 C14.2023112,71.9129232 15.2307943,71.4160156 16.1552734,71.4160156 C17.1259766,71.4160156 17.6113281,71.6471354 17.6113281,72.109375 C17.6113281,72.4329427 17.2530924,73.0338542 16.5366211,73.9121094 C15.8201497,74.7903646 14.9996745,75.7148438 14.0751953,76.6855469 C12.0875651,78.8580729 10.5390625,80.6723633 9.4296875,82.128418 C8.3203125,83.5844727 7.765625,84.7747396 7.765625,85.6992188 C7.765625,86.0227865 7.78873698,86.3579102 7.83496094,86.7045898 C7.8811849,87.0512695 7.90429688,87.4095052 7.90429688,87.7792969 C7.90429688,88.6113281 7.765625,89.859375 7.48828125,91.5234375 C7.2109375,93.1875 7.07226562,94.4817708 7.07226562,95.40625 C7.07226562,96.8854167 7.51139323,97.8098958 8.38964844,98.1796875 C8.52832031,98.2259115 8.69010417,98.2836914 8.875,98.3530273 C9.05989583,98.4223633 9.15234375,98.5725911 9.15234375,98.8037109 C9.15234375,99.5432943 8.9905599,100.109538 8.66699219,100.502441 C8.34342448,100.895345 7.92740885,101.091797 7.41894531,101.091797 C6.7718099,101.091797 6.1015625,100.837565 5.40820312,100.329102 C4.71484375,99.820638 4.13704427,99.1157227 3.67480469,98.2143555 C3.2125651,97.3129883 2.98144531,96.2845052 2.98144531,95.1289062 C2.98144531,94.9440104 3.02766927,94.6897786 3.12011719,94.3662109 C3.2125651,94.0426432 3.28190104,93.6728516 3.328125,93.2568359 C3.97526042,90.8531901 4.16015625,89.6051432 3.8828125,89.5126953 C3.55924479,89.4202474 3.2125651,89.7900391 2.84277344,90.6220703 C2.70410156,90.945638 2.5538737,91.2345378 2.39208984,91.4887695 C2.23030599,91.7430013 2.05696615,91.8701172 1.87207031,91.8701172 C0.624023438,91.8701172 0,91.3616536 0,90.3447266 C0,89.2353516 0.670247396,87.7099609 2.01074219,85.7685547 C3.35123698,83.8271484 4.62239583,82.3017578 5.82421875,81.1923828 Z M27.6650391,77.1708984 C27.6650391,76.6162109 28.0463867,76.2348633 28.809082,76.0268555 C29.5717773,75.8188477 30.3460286,75.7148438 31.1318359,75.7148438 C32.194987,75.7148438 33.2234701,75.5761719 34.2172852,75.2988281 C35.2111003,75.0214844 36.3320312,74.6285807 37.5800781,74.1201172 C39.4752604,73.2880859 40.9544271,72.8720703 42.0175781,72.8720703 C42.8033854,72.8720703 43.311849,72.9645182 43.5429688,73.1494141 C43.7740885,73.3343099 43.8896484,73.6578776 43.8896484,74.1201172 C43.8896484,74.8597005 43.3696289,75.5183919 42.3295898,76.0961914 C41.2895508,76.6739909 39.960612,77.2402344 38.3427734,77.7949219 L37.0253906,78.2802734 C36.2858073,78.5113932 35.1186523,78.777181 33.5239258,79.0776367 C31.9291992,79.3780924 30.8776042,79.5283203 30.3691406,79.5283203 C29.6295573,79.5283203 28.9939779,79.2509766 28.4624023,78.6962891 C27.9308268,78.1416016 27.6650391,77.633138 27.6650391,77.1708984 Z M27.8730469,91.6621094 C27.8730469,89.0273438 28.1272786,86.53125 28.6357422,84.1738281 C29.1442057,81.8164062 30.2304688,80.6376953 31.8945312,80.6376953 C32.5416667,80.6376953 32.8652344,81.007487 32.8652344,81.7470703 C32.8652344,83.0413411 32.7034505,84.5436198 32.3798828,86.2539062 C32.1025391,88.1953125 31.9638672,89.6513672 31.9638672,90.6220703 C31.9638672,91.0843099 32.0563151,91.4078776 32.2412109,91.5927734 C32.4261068,91.7776693 32.7496745,91.9625651 33.2119141,92.1474609 C33.6741536,92.3323568 33.9052734,92.6559245 33.9052734,93.1181641 C33.9052734,93.4879557 33.6625977,93.8230794 33.1772461,94.1235352 C32.6918945,94.4239909 32.2643229,94.5742188 31.8945312,94.5742188 C30.9238281,94.5742188 30.0109049,94.331543 29.1557617,93.8461914 C28.3006185,93.3608398 27.8730469,92.6328125 27.8730469,91.6621094 Z M29.8837891,98.8037109 C29.8837891,98.4801432 30.0686849,98.1565755 30.4384766,97.8330078 C30.8082682,97.5094401 31.2242839,97.1974284 31.6865234,96.8969727 C32.148763,96.5965169 32.4723307,96.3769531 32.6572266,96.2382812 C33.3505859,95.7298177 34.5755208,94.262207 36.3320312,91.8354492 C38.0885417,89.4086914 39.3365885,87.5712891 40.0761719,86.3232422 C40.6770833,85.1214193 41.2317708,84.266276 41.7402344,83.7578125 C42.0175781,83.4342448 42.4567057,83.2724609 43.0576172,83.2724609 C43.5198568,83.2724609 43.9012044,83.3649089 44.2016602,83.5498047 C44.5021159,83.7347005 44.6523438,84.0813802 44.6523438,84.5898438 C44.6523438,86.53125 43.9936523,88.4611003 42.6762695,90.3793945 C41.3588867,92.2976888 39.7063802,94.296875 37.71875,96.3769531 C36.8404948,97.2552083 36.4013672,97.7636719 36.4013672,97.9023438 C36.4013672,98.0410156 36.8867188,98.2143555 37.8574219,98.4223633 C38.828125,98.6303711 39.4983724,98.734375 39.8681641,98.734375 C41.2086589,98.734375 42.5144857,98.5610352 43.7856445,98.2143555 C45.0568034,97.8676758 46.639974,97.3476562 48.5351562,96.6542969 C50.4765625,95.9147135 52.140625,95.360026 53.5273438,94.9902344 C54.9140625,94.6204427 56.3007812,94.4817708 57.6875,94.5742188 C58.1035156,94.6204427 58.5888672,94.5973307 59.1435547,94.5048828 C59.6982422,94.4124349 60.0680339,94.343099 60.2529297,94.296875 C60.5302734,94.250651 60.8422852,94.2044271 61.1889648,94.1582031 C61.5356445,94.1119792 61.9169922,94.0888672 62.3330078,94.0888672 C63.211263,94.0888672 63.6503906,94.4124349 63.6503906,95.0595703 C63.6503906,95.5218099 63.3152669,95.9840495 62.6450195,96.4462891 C61.9747721,96.9085286 61.3623047,97.2089844 60.8076172,97.3476562 C59.9755859,97.7174479 59.0511068,97.9601237 58.0341797,98.0756836 C57.0172526,98.1912435 56.4163411,98.2721354 56.2314453,98.3183594 C55.0296224,98.4108073 54.1513672,98.5263672 53.5966797,98.6650391 C52.3024089,98.8961589 50.2916667,99.4739583 47.5644531,100.398438 C45.5768229,101.045573 44.0283203,101.519368 42.9189453,101.819824 C41.8095703,102.12028 40.6308594,102.270508 39.3828125,102.270508 C38.5970052,102.270508 37.4298503,102.131836 35.8813477,101.854492 C34.3328451,101.577148 32.9461263,101.172689 31.7211914,100.641113 C30.4962565,100.109538 29.8837891,99.4970703 29.8837891,98.8037109 Z" id="Shape"></path>
            <path d="M8.52832031,138.879883 C8.52832031,138.417643 9.30257161,138.117188 10.8510742,137.978516 C12.3995768,137.839844 13.8325195,137.758952 15.1499023,137.73584 C16.4672852,137.712728 17.2877604,137.701172 17.6113281,137.701172 C22.0488281,137.608724 25.6080729,137.308268 28.2890625,136.799805 C28.6126302,136.753581 29.4793294,136.568685 30.8891602,136.245117 C32.2989909,135.921549 33.258138,135.759766 33.7666016,135.759766 C34.0901693,135.759766 34.4715169,135.794434 34.9106445,135.86377 C35.3497721,135.933105 35.7080078,135.990885 35.9853516,136.037109 C36.3089193,136.129557 36.8058268,136.222005 37.4760742,136.314453 C38.1463216,136.406901 38.6432292,136.626465 38.9667969,136.973145 C39.2903646,137.319824 39.4521484,137.862956 39.4521484,138.602539 C39.4521484,139.480794 39.3481445,140.081706 39.1401367,140.405273 C38.9321289,140.728841 38.4352214,140.890625 37.6494141,140.890625 C37.3258464,140.890625 37.0716146,140.832845 36.8867188,140.717285 C36.7018229,140.601725 36.4707031,140.405273 36.1933594,140.12793 C35.8235677,139.758138 35.465332,139.480794 35.1186523,139.295898 C34.7719727,139.111003 34.2981771,139.018555 33.6972656,139.018555 C33.235026,139.018555 32.4954427,139.157227 31.4785156,139.43457 C31.016276,139.619466 30.5309245,139.758138 30.0224609,139.850586 C23.4124349,140.821289 17.726888,141.306641 12.9658203,141.306641 C12.0413411,141.306641 11.070638,141.110189 10.0537109,140.717285 C9.03678385,140.324382 8.52832031,139.711914 8.52832031,138.879883 Z M11.0244141,156.837891 C11.0244141,156.190755 11.3942057,155.636068 12.1337891,155.173828 C12.9195964,154.711589 13.6938477,153.995117 14.456543,153.024414 C15.2192383,152.053711 16.1783854,150.690104 17.3339844,148.933594 C17.4726562,148.748698 17.796224,148.286458 18.3046875,147.546875 C18.813151,146.807292 19.3678385,146.20638 19.96875,145.744141 C20.5696615,145.281901 21.1474609,145.050781 21.7021484,145.050781 C21.9332682,145.050781 22.1181641,145.154785 22.2568359,145.362793 C22.3955078,145.570801 22.4648438,145.790365 22.4648438,146.021484 C22.4648438,146.89974 21.9332682,148.263346 20.8701172,150.112305 C20.0843099,151.406576 19.6914062,152.284831 19.6914062,152.74707 C19.6914062,153.116862 20.1305339,153.301758 21.0087891,153.301758 C21.8408203,153.301758 22.5688477,153.636882 23.1928711,154.307129 C23.8168945,154.977376 24.1289062,155.728516 24.1289062,156.560547 C24.1289062,157.53125 23.9786784,158.444173 23.6782227,159.299316 C23.3777669,160.15446 22.9270833,161.275391 22.3261719,162.662109 C21.4016927,164.511068 20.8238932,166.105794 20.5927734,167.446289 C20.4541016,168.232096 20.0380859,168.809896 19.3447266,169.179688 C18.6051432,169.549479 17.8424479,170.069499 17.0566406,170.739746 C16.2708333,171.409993 15.7623698,171.837565 15.53125,172.022461 C14.0520833,173.224284 12.8155924,174.125651 11.8217773,174.726562 C10.8279622,175.327474 9.68391927,175.62793 8.38964844,175.62793 C7.60384115,175.62793 6.82958984,175.385254 6.06689453,174.899902 C5.30419922,174.414551 4.92285156,173.778971 4.92285156,172.993164 C4.92285156,172.392253 5.04996745,171.987793 5.30419922,171.779785 C5.55843099,171.571777 6.00911458,171.467773 6.65625,171.467773 C6.93359375,171.467773 7.30338542,171.571777 7.765625,171.779785 C8.22786458,171.987793 8.55143229,172.091797 8.73632812,172.091797 C9.15234375,172.091797 9.81103516,171.791341 10.7124023,171.19043 C11.6137695,170.589518 12.4342448,169.907715 13.1738281,169.14502 C13.9134115,168.382324 14.2832031,167.792969 14.2832031,167.376953 C14.2832031,167.238281 13.9827474,166.822266 13.3818359,166.128906 C11.9951172,164.511068 11.3017578,163.332357 11.3017578,162.592773 C11.3017578,162.222982 11.9257812,162.038086 13.1738281,162.038086 C13.8209635,162.038086 14.3178711,162.107422 14.6645508,162.246094 C15.0112305,162.384766 15.3925781,162.627441 15.8085937,162.974121 C16.2246094,163.320801 16.594401,163.586589 16.9179688,163.771484 C17.4726562,163.494141 18.0388997,162.569661 18.6166992,160.998047 C19.1944987,159.426432 19.4833984,158.224609 19.4833984,157.392578 C19.4833984,156.837891 19.2291667,156.560547 18.7207031,156.560547 C18.2122396,156.560547 17.4033203,156.837891 16.2939453,157.392578 C15.0921224,158.039714 14.1214193,158.363281 13.3818359,158.363281 C12.9195964,158.363281 12.4111328,158.213053 11.8564453,157.912598 C11.3017578,157.612142 11.0244141,157.253906 11.0244141,156.837891 Z M28.0810547,157.53125 C28.0810547,155.959635 28.2890625,154.411133 28.7050781,152.885742 C29.1210938,151.360352 29.8837891,150.435872 30.9931641,150.112305 C31.2705078,150.019857 31.6634115,149.973633 32.171875,149.973633 C33.1888021,149.973633 33.7434896,150.574544 33.8359375,151.776367 C33.1888021,153.625326 32.8652344,155.3125 32.8652344,156.837891 C32.8652344,157.115234 32.9114583,157.30013 33.0039062,157.392578 C33.235026,157.392578 33.5932617,157.196126 34.0786133,156.803223 C34.5639648,156.410319 34.8528646,156.167643 34.9453125,156.075195 C35.9622396,155.19694 36.8404948,154.526693 37.5800781,154.064453 C38.3196615,153.602214 39.0592448,153.371094 39.7988281,153.371094 C40.2148438,153.371094 40.5615234,153.463542 40.8388672,153.648438 C41.1162109,153.833333 41.2548828,154.133789 41.2548828,154.549805 C41.2548828,155.890299 40.5152995,157.138346 39.0361328,158.293945 C37.5569661,159.449544 35.8004557,160.582031 33.7666016,161.691406 C34.9684245,163.078125 36.1009115,164.083496 37.1640625,164.70752 C38.2272135,165.331543 39.5677083,165.643555 41.1855469,165.643555 C42.4798177,165.643555 43.7047526,165.447103 44.8603516,165.054199 C46.0159505,164.661296 47.4951172,164.048828 49.2978516,163.216797 L50.9619141,162.454102 C51.3779297,162.31543 51.9557292,162.153646 52.6953125,161.96875 C53.4348958,161.783854 54.0126953,161.552734 54.4287109,161.275391 C54.8447266,160.998047 55.491862,160.281576 56.3701172,159.125977 C57.0172526,158.293945 57.5488281,157.669922 57.9648438,157.253906 C58.3808594,156.837891 58.773763,156.629883 59.1435547,156.629883 C59.5133464,156.629883 59.8369141,156.826335 60.1142578,157.219238 C60.3916016,157.612142 60.5302734,158.016602 60.5302734,158.432617 C60.5302734,158.756185 60.3569336,159.426432 60.0102539,160.443359 C59.6635742,161.460286 59.2706706,162.384766 58.831543,163.216797 C58.3924154,164.048828 58.0110677,164.464844 57.6875,164.464844 C56.8554688,164.464844 55.9194336,164.64974 54.8793945,165.019531 C53.8393555,165.389323 52.5566406,165.920898 51.03125,166.614258 C48.7200521,167.584961 46.7786458,168.324544 45.2070312,168.833008 C43.6354167,169.341471 42.0638021,169.595703 40.4921875,169.595703 C40.0299479,169.595703 39.4521484,169.491699 38.7587891,169.283691 C38.0654297,169.075684 37.5800781,168.948568 37.3027344,168.902344 C34.7604167,168.116536 32.5878906,166.672038 30.7851562,164.568848 C28.9824219,162.465658 28.0810547,160.119792 28.0810547,157.53125 Z" id="Shape"></path>
            <path d="M16.9873047,211.058594 C16.9873047,210.411458 17.3108724,210.006999 17.9580078,209.845215 C18.6051432,209.683431 19.6682943,209.602539 21.1474609,209.602539 C23.1813151,209.602539 24.7529297,209.394531 25.8623047,208.978516 C26.9716797,208.5625 27.5263672,207.545573 27.5263672,205.927734 C27.5263672,205.188151 27.734375,204.598796 28.1503906,204.159668 C28.5664062,203.72054 29.1442057,203.500977 29.8837891,203.500977 C30.4847005,203.500977 30.9122721,203.789876 31.1665039,204.367676 C31.4207357,204.945475 31.6171875,205.742839 31.7558594,206.759766 C31.8020833,207.037109 31.8251953,207.302897 31.8251953,207.557129 C31.8251953,207.811361 31.8945312,207.938477 32.0332031,207.938477 C32.171875,207.938477 32.4029948,207.869141 32.7265625,207.730469 L33.4199219,207.453125 C34.8990885,207.083333 35.9622396,206.898438 36.609375,206.898438 C38.3196615,206.898438 39.1748047,207.707357 39.1748047,209.325195 C39.1748047,209.602539 39.0592448,209.845215 38.828125,210.053223 C38.5970052,210.26123 38.2272135,210.388346 37.71875,210.43457 C36.1009115,210.527018 34.9337565,210.642578 34.2172852,210.78125 C33.5008138,210.919922 32.8883464,211.197266 32.3798828,211.613281 C31.8714193,212.029297 31.4322917,212.722656 31.0625,213.693359 C30.8313802,214.340495 30.4384766,215.172526 29.8837891,216.189453 C29.7913411,216.466797 29.6988932,216.674805 29.6064453,216.813477 C29.1904297,217.737956 28.9824219,218.477539 28.9824219,219.032227 C28.9824219,219.30957 29.0633138,219.563802 29.2250977,219.794922 C29.3868815,220.026042 29.6064453,220.141602 29.8837891,220.141602 C31.3167318,220.141602 33.3505859,219.65625 35.9853516,218.685547 C37.5569661,218.177083 38.828125,217.795736 39.7988281,217.541504 C40.7695312,217.287272 41.7864583,217.160156 42.8496094,217.160156 C43.5891927,217.160156 44.363444,217.287272 45.1723633,217.541504 C45.9812826,217.795736 46.3857422,218.061523 46.3857422,218.338867 C46.3857422,218.708659 46.2470703,218.962891 45.9697266,219.101562 C45.6923828,219.240234 45.3225911,219.332682 44.8603516,219.378906 C43.8896484,219.471354 41.4860026,220.245605 37.6494141,221.70166 C33.8128255,223.157715 31.6865234,224.116862 31.2705078,224.579102 L31.2705078,224.856445 C31.2705078,225.133789 31.2936198,225.399577 31.3398438,225.653809 C31.3860677,225.90804 31.4091797,226.150716 31.4091797,226.381836 C31.4091797,227.075195 31.1433919,227.861003 30.6118164,228.739258 C30.0802409,229.617513 29.1904297,230.888672 27.9423828,232.552734 C26.648112,234.216797 25.6427409,235.695964 24.9262695,236.990234 C24.2097982,238.284505 23.8515625,239.486328 23.8515625,240.595703 C23.8515625,241.242839 24.0133464,241.762858 24.3369141,242.155762 C24.6604818,242.548665 25.0533854,242.745117 25.515625,242.745117 C25.7929688,242.745117 26.0703125,242.675781 26.3476562,242.537109 C27.9654948,241.797526 29.2828776,241.011719 30.2998047,240.179688 C31.3167318,239.347656 32.5416667,238.145833 33.9746094,236.574219 L35.7080078,234.702148 C36.0315755,234.424805 36.3898112,234.251465 36.7827148,234.182129 C37.1756185,234.112793 37.71875,234.078125 38.4121094,234.078125 C39.7526042,234.078125 40.8619792,234.471029 41.7402344,235.256836 C43.5429688,237.013346 45.3803711,239.324544 47.2524414,242.19043 C49.1245117,245.056315 50.0605469,247.390625 50.0605469,249.193359 C50.0605469,249.563151 49.944987,249.898275 49.7138672,250.19873 C49.4827474,250.499186 49.2516276,250.649414 49.0205078,250.649414 C48.4195964,250.649414 46.4088542,248.361328 42.9882812,243.785156 C41.3704427,241.566406 40.2379557,240.098796 39.5908203,239.382324 C38.9436849,238.665853 38.4583333,238.307617 38.1347656,238.307617 C37.8574219,238.307617 37.2333984,238.723633 36.2626953,239.555664 C35.7080078,239.97168 34.7141927,240.780599 33.28125,241.982422 C31.016276,243.83138 29.4331055,245.033203 28.5317383,245.587891 C27.6303711,246.142578 26.5556641,246.419922 25.3076172,246.419922 C24.3369141,246.419922 23.3546549,246.154134 22.3608398,245.622559 C21.3670247,245.090983 20.5349935,244.420736 19.8647461,243.611816 C19.1944987,242.802897 18.859375,242.005534 18.859375,241.219727 C18.859375,239.648112 19.4487305,237.86849 20.6274414,235.880859 C21.8061523,233.893229 23.319987,231.697591 25.1689453,229.293945 C26.601888,227.213867 27.3645833,225.919596 27.4570312,225.411133 C26.5325521,225.457357 25.6889648,225.561361 24.9262695,225.723145 C24.1635742,225.884928 23.250651,226.173828 22.1875,226.589844 C20.0611979,227.329427 18.3971354,227.699219 17.1953125,227.699219 C16.686849,227.699219 16.0859375,227.352539 15.3925781,226.65918 C14.6992188,225.96582 14.3525391,225.364909 14.3525391,224.856445 C14.3525391,224.44043 14.7569987,224.09375 15.565918,223.816406 C16.3748372,223.539062 17.773112,223.261719 19.7607422,222.984375 C21.5172526,222.707031 22.7075195,222.487467 23.331543,222.325684 C23.9555664,222.1639 24.360026,221.921224 24.5449219,221.597656 C24.7760417,221.274089 25.0533854,220.268717 25.3769531,218.581543 C25.7005208,216.894368 25.8623047,215.750326 25.8623047,215.149414 C25.8623047,214.271159 25.5965169,213.704915 25.0649414,213.450684 C24.5333659,213.196452 23.8515625,213.069336 23.0195312,213.069336 L21.9101562,213.069336 C21.078125,213.161784 20.4541016,213.208008 20.0380859,213.208008 C18.0042318,213.208008 16.9873047,212.491536 16.9873047,211.058594 Z" id="Path"></path>
            <path d="M15.8779297,279.354492 C16.3401693,279.169596 16.7792969,279.077148 17.1953125,279.077148 C17.796224,279.077148 18.3624674,279.192708 18.894043,279.423828 C19.4256185,279.654948 19.6914062,279.932292 19.6914062,280.255859 C19.6914062,280.856771 19.4602865,281.49235 18.9980469,282.162598 C18.5358073,282.832845 18.2584635,283.283529 18.1660156,283.514648 C16.1321615,288.599284 14.5258789,293.244792 13.347168,297.451172 C12.168457,301.657552 11.5791016,305.494141 11.5791016,308.960938 C11.5791016,309.515625 11.7639974,310.301432 12.1337891,311.318359 C12.4573568,312.38151 12.6191406,313.121094 12.6191406,313.537109 C12.6191406,314.138021 12.4573568,314.611816 12.1337891,314.958496 C11.8102214,315.305176 11.3942057,315.478516 10.8857422,315.478516 C10.1923828,315.478516 9.56835938,315.131836 9.01367188,314.438477 C8.41276042,313.652669 8.11230469,312.150391 8.11230469,309.931641 C8.11230469,306.880859 8.58610026,303.009603 9.53369141,298.317871 C10.4812826,293.626139 11.5791016,289.396647 12.8271484,285.629395 C14.0751953,281.862142 15.0921224,279.770508 15.8779297,279.354492 Z M33.4892578,292.458984 C33.4892578,291.673177 34.0555013,289.928223 35.1879883,287.224121 C36.3204753,284.52002 37.0947266,282.959961 37.5107422,282.543945 C37.8343099,282.220378 38.3889974,282.058594 39.1748047,282.058594 C39.8681641,282.058594 40.4344076,282.197266 40.8735352,282.474609 C41.3126628,282.751953 41.4628906,283.167969 41.3242188,283.722656 C41.2317708,283.953776 41.058431,284.312012 40.8041992,284.797363 C40.5499674,285.282715 40.4228516,285.664062 40.4228516,285.941406 C40.4228516,286.403646 40.7001953,286.657878 41.2548828,286.704102 C44.1669922,287.212565 46.2817383,287.663249 47.5991211,288.056152 C48.9165039,288.449056 49.9796549,289.003743 50.7885742,289.720215 C51.5974935,290.436686 52.140625,291.511393 52.4179688,292.944336 C52.5104167,293.406576 52.5566406,293.799479 52.5566406,294.123047 C52.5566406,294.908854 52.3717448,296.272461 52.0019531,298.213867 L51.5859375,300.848633 C51.5397135,301.125977 51.6899414,301.322428 52.0366211,301.437988 C52.3833008,301.553548 52.9726562,301.680664 53.8046875,301.819336 C55.0065104,301.958008 55.9541016,302.189128 56.6474609,302.512695 C57.3408203,302.836263 57.6875,303.390951 57.6875,304.176758 C57.6875,304.638997 57.5488281,305.020345 57.2714844,305.320801 C56.9941406,305.621257 56.624349,305.771484 56.1621094,305.771484 C55.2376302,305.771484 54.2438151,305.702148 53.1806641,305.563477 C52.117513,305.424805 51.3779297,305.332357 50.9619141,305.286133 C48.789388,310.463216 46.9404297,313.282878 45.4150391,313.745117 C44.9527995,313.837565 44.5830078,313.883789 44.3056641,313.883789 C43.242513,313.883789 42.144694,313.606445 41.012207,313.051758 C39.8797201,312.49707 38.9436849,311.792155 38.2041016,310.937012 C37.4645182,310.081868 37.0947266,309.261393 37.0947266,308.475586 C37.0947266,308.105794 37.5800781,307.920898 38.5507812,307.920898 C39.1054688,307.920898 39.5908203,308.05957 40.0068359,308.336914 C40.4228516,308.614258 40.8850911,309.007161 41.3935547,309.515625 C42.179362,310.301432 42.8033854,310.694336 43.265625,310.694336 C43.6816406,310.694336 44.2478841,309.977865 44.9643555,308.544922 C45.6808268,307.111979 46.0390625,306.095052 46.0390625,305.494141 C46.0390625,305.355469 45.7963867,305.216797 45.3110352,305.078125 C44.8256836,304.939453 44.4905599,304.847005 44.3056641,304.800781 C42.7340495,304.384766 41.4975586,303.945638 40.5961914,303.483398 C39.6948242,303.021159 39.2672526,302.350911 39.3134766,301.472656 C39.3134766,301.102865 40.0530599,300.917969 41.5322266,300.917969 L45.2763672,300.987305 C46.2932943,300.987305 46.9173177,300.917969 47.1484375,300.779297 C47.6106771,300.501953 47.9342448,299.658366 48.1191406,298.248535 C48.3040365,296.838704 48.3964844,295.579102 48.3964844,294.469727 C48.3964844,292.389648 46.7093099,291.072266 43.3349609,290.517578 C41.9482422,290.240234 41.1162109,290.101562 40.8388672,290.101562 C40.0530599,290.101562 39.4059245,290.471354 38.8974609,291.210938 C38.7587891,291.395833 38.5392253,291.754069 38.2387695,292.285645 C37.9383138,292.81722 37.6147461,293.291016 37.2680664,293.707031 C36.9213867,294.123047 36.563151,294.331055 36.1933594,294.331055 C35.546224,294.331055 34.9337565,294.180827 34.355957,293.880371 C33.7781576,293.579915 33.4892578,293.10612 33.4892578,292.458984 Z M16.640625,292.944336 C18.3509115,292.944336 20.1074219,293.233236 21.9101562,293.811035 C23.7128906,294.388835 24.7760417,295.32487 25.0996094,296.619141 C25.2845052,297.358724 25.3769531,298.676107 25.3769531,300.571289 C25.3769531,303.067383 25.1342773,305.690592 24.6489258,308.440918 C24.1635742,311.191243 23.2044271,312.566406 21.7714844,312.566406 C21.5403646,312.566406 21.1936849,312.450846 20.7314453,312.219727 C20.2692057,311.988607 19.8994141,311.873047 19.6220703,311.873047 C19.1598307,311.873047 18.5126953,312.104167 17.6806641,312.566406 C16.7561849,313.028646 16.0397135,313.259766 15.53125,313.259766 C15.1152344,313.259766 14.5952148,312.970866 13.9711914,312.393066 C13.347168,311.815267 13.0351562,311.318359 13.0351562,310.902344 C13.0351562,310.440104 13.277832,310.081868 13.7631836,309.827637 C14.2485352,309.573405 15.0227865,309.284505 16.0859375,308.960938 C17.75,308.452474 19.0096029,307.920898 19.8647461,307.366211 C20.7198893,306.811523 21.1474609,305.910156 21.1474609,304.662109 C20.8238932,304.662109 20.4078776,304.777669 19.8994141,305.008789 C19.3909505,305.239909 19.0673828,305.401693 18.9287109,305.494141 C17.4495443,306.233724 16.3632812,306.603516 15.6699219,306.603516 C15.3001302,306.603516 14.7685547,306.256836 14.0751953,305.563477 C13.3818359,304.870117 13.1276042,304.361654 13.3125,304.038086 C13.4973958,303.668294 13.9365234,303.333171 14.6298828,303.032715 C15.3232422,302.732259 16.4326172,302.327799 17.9580078,301.819336 C19.2985026,301.40332 20.2460938,301.056641 20.8007812,300.779297 C21.031901,300.640625 21.1474609,300.155273 21.1474609,299.323242 C21.1474609,298.722331 21.066569,298.156087 20.9047852,297.624512 C20.7430013,297.092936 20.5234375,296.734701 20.2460938,296.549805 C20.014974,296.411133 19.7029622,296.307129 19.3100586,296.237793 C18.9171549,296.168457 18.6513672,296.110677 18.5126953,296.064453 C17.4957682,295.879557 16.7215169,295.636882 16.1899414,295.336426 C15.6583659,295.03597 15.3925781,294.469727 15.3925781,293.637695 C15.3925781,293.314128 15.496582,293.117676 15.7045898,293.04834 C15.9125977,292.979004 16.2246094,292.944336 16.640625,292.944336 Z" id="Shape"></path>
            <path d="M24.440918,350.701172 C24.440918,350.238932 24.5564779,349.880697 24.7875977,349.626465 C25.0187174,349.372233 25.480957,349.245117 26.1743164,349.245117 C27.2836914,349.245117 27.9886068,349.522461 28.2890625,350.077148 C28.5895182,350.631836 28.7397461,351.602539 28.7397461,352.989258 C28.7397461,354.006185 28.6472982,355.023112 28.4624023,356.040039 C28.2775065,357.056966 28.0001628,358.305013 27.6303711,359.78418 C27.2143555,361.54069 27.0063477,362.719401 27.0063477,363.320312 C27.0063477,364.013672 27.2143555,364.360352 27.6303711,364.360352 C28.3699544,364.267904 29.6411133,364.036784 31.4438477,363.666992 C33.246582,363.297201 34.355957,363.042969 34.7719727,362.904297 C34.9568685,362.765625 35.1186523,362.511393 35.2573242,362.141602 C35.3959961,361.77181 35.534668,361.378906 35.6733398,360.962891 C35.9506836,359.761068 36.3089193,358.813477 36.7480469,358.120117 C37.1871745,357.426758 37.9383138,357.080078 39.0014648,357.080078 C39.5561523,357.080078 40.0068359,357.137858 40.3535156,357.253418 C40.7001953,357.368978 40.8735352,357.68099 40.8735352,358.189453 C40.8735352,358.790365 40.7810872,359.425944 40.5961914,360.096191 C40.4112956,360.766439 40.2032878,361.402018 39.972168,362.00293 C41.2664388,361.77181 43.7163086,361.65625 47.3217773,361.65625 C48.847168,361.65625 52.3139648,361.725586 57.722168,361.864258 C58.6466471,361.910482 59.5942383,361.933594 60.5649414,361.933594 C63.1534831,361.933594 64.4477539,362.626953 64.4477539,364.013672 C64.4477539,364.984375 63.4308268,365.469727 61.3969727,365.469727 L48.847168,365.400391 C45.519043,365.400391 43.0576172,365.504395 41.4628906,365.712402 C39.8681641,365.92041 38.9090169,366.347982 38.5854492,366.995117 C38.3081055,367.549805 37.7765299,368.855632 36.9907227,370.912598 C36.2049154,372.969564 35.6964518,374.321615 35.465332,374.96875 C34.4946289,377.557292 33.9399414,379.013346 33.8012695,379.336914 C33.5239258,379.937826 33.3852539,380.746745 33.3852539,381.763672 C33.292806,382.734375 33.1310221,383.38151 32.8999023,383.705078 C32.2989909,384.490885 31.5131836,385.195801 30.5424805,385.819824 C29.5717773,386.443848 28.6241862,386.755859 27.699707,386.755859 C26.4516602,386.755859 25.550293,386.617188 24.9956055,386.339844 C24.440918,386.0625 24.1635742,385.554036 24.1635742,384.814453 C24.1635742,384.583333 24.3253581,384.352214 24.6489258,384.121094 C24.9724935,383.889974 25.3422852,383.681966 25.7583008,383.49707 C26.4054362,383.173503 26.8907878,382.907715 27.2143555,382.699707 C27.5379232,382.491699 27.699707,382.179688 27.699707,381.763672 C27.699707,381.532552 27.2836914,381.116536 26.4516602,380.515625 C25.2960612,379.591146 24.5795898,378.874674 24.3022461,378.366211 C23.6088867,377.164388 23.0888672,375.951009 22.7421875,374.726074 C22.3955078,373.501139 22.0603841,371.733073 21.7368164,369.421875 C20.6274414,369.837891 18.870931,370.392578 16.4672852,371.085938 C13.3702799,371.964193 11.2670898,372.63444 10.1577148,373.09668 C8.49365234,374.021159 7.47672526,374.483398 7.10693359,374.483398 C6.50602214,374.483398 5.90511068,374.182943 5.30419922,373.582031 C4.70328776,372.98112 4.51839193,372.472656 4.74951172,372.056641 C5.02685547,371.363281 6.58691406,370.508138 9.4296875,369.491211 C12.2724609,368.474284 15.6814779,367.341797 19.6567383,366.09375 L21.112793,365.608398 C21.4363607,365.515951 21.6790365,365.400391 21.8408203,365.261719 C22.0026042,365.123047 22.1066081,364.915039 22.152832,364.637695 C22.4763997,363.204753 22.9501953,360.974447 23.5742188,357.946777 C24.1982422,354.919108 24.5102539,353.104818 24.5102539,352.503906 L24.440918,350.701172 Z M29.987793,377.603516 C30.6349284,376.632812 31.3745117,374.922526 32.206543,372.472656 C33.0385742,370.022786 33.5470378,368.19694 33.7319336,366.995117 C32.7150065,366.995117 31.3051758,367.191569 29.5024414,367.584473 C27.699707,367.977376 26.7521159,368.451172 26.659668,369.005859 C26.5672201,369.560547 26.648112,370.519694 26.9023438,371.883301 C27.1565755,373.246908 27.5494792,374.50651 28.0810547,375.662109 C28.6126302,376.817708 29.2482096,377.464844 29.987793,377.603516 Z" id="Shape"></path>
            <path d="M35.5,415.114258 C35.5,414.836914 35.6040039,414.61735 35.8120117,414.455566 C36.0200195,414.293783 36.2858073,414.212891 36.609375,414.212891 C37.9036458,414.212891 38.874349,414.709798 39.5214844,415.703613 C40.1686198,416.697428 40.4921875,417.864583 40.4921875,419.205078 C40.4921875,420.083333 40.3997396,420.753581 40.2148438,421.21582 C39.9375,421.308268 39.6601562,421.354492 39.3828125,421.354492 C38.828125,421.354492 38.2965495,421.192708 37.7880859,420.869141 C37.6494141,420.684245 37.5454102,420.383789 37.4760742,419.967773 C37.4067383,419.551758 37.3720703,419.181966 37.3720703,418.858398 C37.2796224,418.396159 37.1293945,417.991699 36.9213867,417.64502 C36.7133789,417.29834 36.4938151,417.00944 36.2626953,416.77832 C35.9853516,416.454753 35.7888997,416.188965 35.6733398,415.980957 C35.5577799,415.772949 35.5,415.484049 35.5,415.114258 Z M30.9238281,425.445312 C30.9238281,424.936849 31.3167318,424.682617 32.1025391,424.682617 C35.523112,424.682617 38.2734375,424.335938 40.3535156,423.642578 C41.8789062,423.041667 43.288737,422.741211 44.5830078,422.741211 C45.2763672,422.741211 45.7617188,422.868327 46.0390625,423.122559 C46.3164062,423.37679 46.4550781,423.850586 46.4550781,424.543945 C46.4550781,425.144857 46.3164062,425.491536 46.0390625,425.583984 C45.9928385,425.630208 45.5768229,425.745768 44.7910156,425.930664 L43.7509766,426.208008 C42.9651693,426.392904 42.0869141,426.670247 41.1162109,427.040039 C39.8219401,427.409831 38.7472331,427.687174 37.8920898,427.87207 C37.0369466,428.056966 36.0546875,428.149414 34.9453125,428.149414 C33.8359375,428.149414 32.8883464,427.952962 32.1025391,427.560059 C31.3167318,427.167155 30.9238281,426.46224 30.9238281,425.445312 Z M11.09375,428.496094 C11.09375,428.172526 11.2670898,427.918294 11.6137695,427.733398 C11.9604492,427.548503 12.3186849,427.456055 12.6884766,427.456055 C13.2431641,427.456055 13.9827474,427.640951 14.9072266,428.010742 C16.1552734,428.611654 17.0219727,429.328125 17.5073242,430.160156 C17.9926758,430.992188 18.2353516,432.124674 18.2353516,433.557617 C18.2353516,434.482096 18.0966797,435.730143 17.8193359,437.301758 C17.5419922,438.96582 17.4033203,440.167643 17.4033203,440.907227 C17.4033203,441.045898 17.4148763,441.161458 17.4379883,441.253906 C17.4611003,441.346354 17.5188802,441.392578 17.6113281,441.392578 C17.75,441.392578 18.0042318,441.311686 18.3740234,441.149902 C18.7438151,440.988118 19.0442708,440.861003 19.2753906,440.768555 C20.7545573,440.075195 21.9563802,439.728516 22.8808594,439.728516 C24.1289062,439.728516 24.7529297,440.028971 24.7529297,440.629883 C24.7529297,441.18457 24.1057943,441.82015 22.8115234,442.536621 C21.5172526,443.253092 20.3154297,443.854004 19.2060547,444.339355 C18.0966797,444.824707 17.4264323,445.136719 17.1953125,445.275391 L17.4726562,447.563477 C17.75,449.412435 17.8886719,450.776042 17.8886719,451.654297 C17.8886719,452.994792 17.2993164,454.057943 16.1206055,454.84375 C14.9418945,455.629557 13.4973958,456.299805 11.7871094,456.854492 C10.9088542,457.17806 10.4003906,457.40918 10.2617188,457.547852 C10.1230469,457.686523 9.984375,457.778971 9.84570312,457.825195 C9.70703125,457.871419 9.5452474,457.894531 9.36035156,457.894531 C8.94433594,457.894531 8.44742839,457.802083 7.86962891,457.617188 C7.29182943,457.432292 7.00292969,457.154948 7.00292969,456.785156 C7.37272135,456.461589 7.97363281,456.114909 8.80566406,455.745117 C10.5159505,454.774414 11.7755534,454.011719 12.5844727,453.457031 C13.3933919,452.902344 13.7978516,452.347656 13.7978516,451.792969 C13.7978516,451.238281 13.6591797,450.244466 13.3818359,448.811523 C13.1044922,447.378581 12.9195964,446.638997 12.8271484,446.592773 C10.7470703,447.378581 9.16389974,448.037272 8.07763672,448.568848 C6.9913737,449.100423 6.05533854,449.874674 5.26953125,450.891602 C4.9921875,451.168945 4.78417969,451.307617 4.64550781,451.307617 C3.95214844,451.307617 3.60546875,450.52181 3.60546875,448.950195 C3.60546875,447.609701 4.20638021,446.592773 5.40820312,445.899414 C6.61002604,445.206055 8.36653646,444.512695 10.6777344,443.819336 C11.3710938,443.588216 11.8217773,443.449544 12.0297852,443.40332 C12.237793,443.357096 12.4342448,443.241536 12.6191406,443.056641 C12.8964844,442.825521 13.324056,441.427246 13.9018555,438.861816 C14.4796549,436.296387 14.7685547,434.713216 14.7685547,434.112305 C14.7685547,432.956706 14.5721029,432.113118 14.1791992,431.581543 C13.7862956,431.049967 13.1969401,430.55306 12.4111328,430.09082 C11.9951172,429.813477 11.6715495,429.559245 11.4404297,429.328125 C11.2093099,429.097005 11.09375,428.819661 11.09375,428.496094 Z M34.5986328,435.013672 C34.5986328,433.349609 34.7488607,431.870443 35.0493164,430.576172 C35.3497721,429.281901 36.0546875,428.634766 37.1640625,428.634766 C37.4876302,428.634766 37.8689779,428.761882 38.3081055,429.016113 C38.7472331,429.270345 38.9667969,429.559245 38.9667969,429.882812 C38.9667969,430.252604 38.874349,430.807292 38.6894531,431.546875 C38.4121094,432.42513 38.2734375,433.442057 38.2734375,434.597656 C38.2734375,435.33724 38.3427734,436.030599 38.4814453,436.677734 C38.5276693,436.955078 38.781901,437.301758 39.2441406,437.717773 C39.7063802,438.133789 40.0530599,438.388021 40.2841797,438.480469 C40.8850911,438.665365 41.4628906,438.399577 42.0175781,437.683105 C42.5722656,436.966634 43.4274089,435.383464 44.5830078,432.933594 C44.8141276,432.42513 45.484375,432.170898 46.59375,432.170898 C47.3795573,432.170898 47.8649089,432.378906 48.0498047,432.794922 C48.0960286,433.719401 47.4604492,435.475911 46.1430664,438.064453 C44.8256836,440.652995 42.9189453,444.142904 40.4228516,448.53418 L39.1748047,450.75293 C37.741862,453.249023 36.7942708,455.051758 36.3320312,456.161133 C36.0084635,456.854492 35.7195638,457.3514 35.465332,457.651855 C35.2111003,457.952311 34.8066406,458.102539 34.2519531,458.102539 C33.7897135,458.102539 33.3968099,457.952311 33.0732422,457.651855 C32.7496745,457.3514 32.5878906,456.970052 32.5878906,456.507812 C32.5878906,456.091797 33.1194661,454.72819 34.1826172,452.416992 C35.2457682,450.105794 36.3089193,447.863932 37.3720703,445.691406 L39.1054688,442.085938 L37.9267578,441.669922 C37.2796224,441.485026 36.7942708,441.253906 36.4707031,440.976562 C35.6848958,440.468099 35.1764323,439.693848 34.9453125,438.653809 C34.7141927,437.61377 34.5986328,436.400391 34.5986328,435.013672 Z M39.9375,458.241211 C39.9375,457.963867 40.1455078,457.570964 40.5615234,457.0625 C41.3935547,455.999349 41.9944661,455.097982 42.3642578,454.358398 C42.7340495,453.618815 43.1962891,452.440104 43.7509766,450.822266 C44.0283203,450.128906 44.3056641,449.458659 44.5830078,448.811523 C44.8603516,448.164388 45.1145833,447.72526 45.3457031,447.494141 C45.7617188,447.124349 46.2701823,446.939453 46.8710938,446.939453 C48.1191406,446.939453 48.7431641,447.309245 48.7431641,448.048828 C48.7431641,448.557292 48.5929362,449.215983 48.2924805,450.024902 C47.9920247,450.833822 47.680013,451.608073 47.3564453,452.347656 C47.2639974,452.625 47.1022135,453.052572 46.8710938,453.630371 C46.639974,454.208171 46.5244141,454.589518 46.5244141,454.774414 C46.5244141,455.051758 46.7786458,455.236654 47.2871094,455.329102 C49.2285156,455.837565 51.6090495,456.577148 54.4287109,457.547852 L57.6181641,458.587891 C58.1266276,458.726562 58.5888672,458.888346 59.0048828,459.073242 C60.6227214,459.581706 61.7552083,459.997721 62.4023438,460.321289 C62.9570312,460.506185 63.9277344,460.598633 65.3144531,460.598633 C65.5917969,460.598633 65.9847005,460.621745 66.4931641,460.667969 C67.0016276,460.714193 67.3945312,460.760417 67.671875,460.806641 C68.0878906,460.899089 68.4114583,461.026204 68.6425781,461.187988 C68.8736979,461.349772 68.9892578,461.61556 68.9892578,461.985352 C68.9892578,462.724935 68.5963542,463.31429 67.8105469,463.753418 C67.0247396,464.192546 66.2620443,464.412109 65.5224609,464.412109 C63.9508464,464.412109 62.3907878,464.169434 60.8422852,463.684082 C59.2937826,463.19873 57.4563802,462.493815 55.3300781,461.569336 C52.9264323,460.644857 51.03125,459.963053 49.6445312,459.523926 C48.2578125,459.084798 46.7786458,458.865234 45.2070312,458.865234 C44.7910156,458.865234 44.1669922,458.911458 43.3349609,459.003906 C42.7340495,459.142578 42.0869141,459.211914 41.3935547,459.211914 C40.4228516,459.211914 39.9375,458.888346 39.9375,458.241211 Z" id="Shape"></path>
        </g>
        <g id="致去年夏天" transform="translate(87.872657, -0.382812)" fill="#48453E" fill-rule="nonzero">
            <path d="M17.2655261,0.138671875 C17.404198,0.0462239583 17.6584298,0 18.0282214,0 C18.5829089,0 19.0798165,0.138671875 19.5189441,0.416015625 C19.9580717,0.693359375 20.1776355,1.08626302 20.1776355,1.59472656 C20.1776355,2.24186198 19.8078438,2.66943359 19.0682605,2.87744141 C18.3286771,3.08544922 17.334862,3.18945312 16.0868152,3.18945312 L14.7000964,3.18945312 C13.6369454,3.18945312 12.966698,3.25878906 12.6893542,3.39746094 C12.4582344,3.4436849 11.9151029,5.06152344 11.0599597,8.25097656 C10.2048165,11.4404297 9.75413288,13.358724 9.70790892,14.0058594 C9.70790892,14.1907552 9.75413288,14.421875 9.8465808,14.6992188 C10.1701485,14.6992188 10.4012683,14.5836589 10.5399402,14.3525391 C10.678612,14.1214193 10.8403959,13.7516276 11.0252917,13.2431641 C11.2564115,12.4573568 11.5453113,11.8564453 11.891991,11.4404297 C12.2386706,11.0244141 12.8511381,10.8164062 13.7293933,10.8164062 C14.7925443,10.8164062 15.5090157,11.1861979 15.8788074,11.9257812 C16.1099271,12.3417969 16.5028308,12.9658203 17.0575183,13.7978516 C17.7046537,14.8147786 18.1668933,15.6005859 18.444237,16.1552734 C18.7215808,16.7099609 18.8602527,17.2415365 18.8602527,17.75 C18.8602527,18.2122396 18.6753568,18.6051432 18.3055652,18.9287109 C18.0744454,19.1598307 17.7971016,19.2753906 17.4735339,19.2753906 C17.1037423,19.2753906 16.7801745,19.1482747 16.5028308,18.894043 C16.225487,18.6398112 15.9481433,18.3046875 15.6707995,17.8886719 C15.3934558,17.4726562 15.20856,17.2646484 15.116112,17.2646484 C14.9312162,17.2646484 14.8156563,17.726888 14.7694324,18.6513672 C14.7694324,19.2985026 14.8041003,20.2460938 14.8734363,21.4941406 C14.9427722,22.7421875 15.0467761,23.4124349 15.185448,23.5048828 C15.5090157,23.273763 15.8210274,23.0310872 16.1214831,22.7768555 C16.4219389,22.5226237 16.6992826,22.3377279 16.9535144,22.222168 C17.2077462,22.1066081 17.5659818,22.0488281 18.0282214,22.0488281 L18.2362292,22.0488281 C19.1144844,22.0488281 19.553612,22.3030599 19.553612,22.8115234 C19.5073881,23.5048828 19.2531563,24.0826823 18.7909167,24.5449219 C18.3286771,25.0071615 17.6815417,25.515625 16.8495105,26.0703125 C16.4797188,26.3014323 16.1445951,26.5325521 15.8441394,26.7636719 C15.5436837,26.9947917 15.3703438,27.2259115 15.3241199,27.4570312 C15.2778959,27.8730469 15.20856,28.3583984 15.116112,28.9130859 C15.0236641,29.4677734 14.9543282,29.930013 14.9081042,30.2998047 C14.9081042,31.1318359 15.116112,31.5478516 15.5321277,31.5478516 C16.1330391,31.5940755 16.7570626,31.3282878 17.404198,30.7504883 C18.0513334,30.1726888 18.8371407,29.3522135 19.7616199,28.2890625 C20.4549792,27.5032552 20.9403308,26.9947917 21.2176745,26.7636719 C22.3732735,26.7636719 22.951073,27.1103516 22.951073,27.8037109 C22.951073,28.1735026 22.8470691,28.5432943 22.6390613,28.9130859 C22.4310535,29.2828776 22.3039376,29.4908854 22.2577136,29.5371094 C21.1483386,31.2473958 19.8771798,32.7034505 18.444237,33.9052734 C17.0112943,35.1070964 15.4627917,35.7080078 13.7987292,35.7080078 C12.5506824,35.7080078 11.7648751,35.2919922 11.4413074,34.4599609 C11.1177396,33.6279297 10.9328438,32.4261068 10.8866199,30.8544922 C10.8866199,30.6233724 10.8635079,30.2998047 10.8172839,29.8837891 C10.77106,29.4677734 10.724836,29.1210938 10.678612,28.84375 C10.2625964,28.797526 9.74257689,28.820638 9.11855345,28.9130859 C8.49453001,29.0055339 7.97451048,29.0517578 7.55849486,29.0517578 C6.9575834,29.0517578 6.37978392,28.9708659 5.82509642,28.809082 C5.27040892,28.6472982 4.99306517,28.3352865 4.99306517,27.8730469 C5.03928913,27.2721354 5.52464069,26.7867839 6.44911986,26.4169922 C7.37359902,26.0472005 8.21718626,25.7814128 8.97988158,25.6196289 C9.74257689,25.4578451 10.1932605,25.3538411 10.3319324,25.3076172 C10.5168282,23.6435547 10.6555001,21.2399089 10.747948,18.0966797 C10.1932605,18.2353516 9.70790892,18.3046875 9.2918933,18.3046875 C8.22874225,18.2584635 7.33893106,17.8308919 6.6224597,17.0219727 C5.90598835,16.2130534 5.54775267,15.3001302 5.54775267,14.2832031 C5.54775267,13.266276 5.67486856,12.2724609 5.92910033,11.3017578 C6.1833321,10.3310547 6.56467975,9.19856771 7.0731433,7.90429688 C7.72027871,6.24023438 8.15940632,4.8766276 8.39052611,3.81347656 L5.33974486,3.8828125 C1.73427611,3.8828125 -0.0453462882,3.37434896 0.000877670095,2.35742188 C0.0471016284,1.75651042 0.960024806,1.35205078 2.7396472,1.14404297 C4.5192696,0.936035156 6.98069538,0.808919271 10.1239245,0.762695312 C14.1916329,0.670247396 16.5721667,0.462239583 17.2655261,0.138671875 Z M30.647362,4.57617188 C30.647362,4.20638021 30.7744779,3.91748047 31.0287097,3.70947266 C31.2829415,3.50146484 31.5949532,3.39746094 31.9647449,3.39746094 C32.6581042,3.4436849 33.2012357,3.75569661 33.5941394,4.33349609 C33.987043,4.91129557 34.4146146,5.80110677 34.8768542,7.00292969 C35.3390938,8.25097656 35.8013334,9.19856771 36.263573,9.84570312 C36.7258126,10.4928385 37.372948,10.8164062 38.2049792,10.8164062 C38.7596667,10.8164062 39.4530261,10.6777344 40.2850574,10.4003906 C41.2095365,10.1230469 41.8566719,9.984375 42.2264636,9.984375 C43.0584949,10.030599 43.6594063,10.1692708 44.029198,10.4003906 C44.3989896,10.6315104 44.5838855,11.09375 44.5838855,11.7871094 C44.5838855,12.7115885 44.3412097,13.7285156 43.8558581,14.8378906 C43.3705066,15.9472656 42.6655912,17.4264323 41.741112,19.2753906 C40.8628568,20.7083333 40.4237292,21.6328125 40.4237292,22.0488281 C40.4237292,22.3723958 40.7704089,22.6035156 41.4637683,22.7421875 C42.0184558,22.8808594 42.6424792,23.2275391 43.3358386,23.7822266 C43.6594063,24.0133464 44.006086,24.2444661 44.3758777,24.4755859 C44.7456693,24.7067057 45.115461,24.8453776 45.4852527,24.8916016 C46.224836,25.0764974 47.0799792,25.3422852 48.0506824,25.6889648 C49.0213855,26.0356445 49.6685209,26.2783203 49.9920886,26.4169922 C51.1014636,26.8792318 52.2108386,27.2952474 53.3202136,27.6650391 C53.7362292,27.8037109 54.5913725,28.0579427 55.8856433,28.4277344 C57.1799141,28.797526 58.416405,29.0748698 59.595116,29.2597656 C60.7738269,29.4446615 62.0103178,29.5371094 63.3045886,29.5371094 L66.2860339,29.5371094 C66.7944975,29.5371094 67.0487292,29.7451172 67.0487292,30.1611328 C67.0487292,30.7620443 66.6096016,31.4785156 65.7313464,32.3105469 C64.8530912,33.1425781 63.974836,33.5585938 63.0965808,33.5585938 C62.4956693,33.5585938 60.3924792,33.1194661 56.7870105,32.2412109 C53.1815417,31.3629557 51.0552396,30.7389323 50.4081042,30.3691406 C49.9920886,30.0917969 48.0391264,29.2135417 44.5492175,27.734375 C41.0593087,26.2552083 39.2219063,25.515625 39.0370105,25.515625 C38.5747709,25.469401 38.1471993,25.6658529 37.7542956,26.1049805 C37.361392,26.5441081 36.8875964,27.2027995 36.3329089,28.0810547 C35.7782214,28.9130859 35.3044258,29.5486654 34.9115222,29.987793 C34.5186186,30.4269206 34.067935,30.6464844 33.5594714,30.6464844 C33.2359037,30.6464844 32.8545561,30.4615885 32.4154285,30.0917969 C31.9763008,29.7220052 31.779849,29.3984375 31.826073,29.1210938 C31.826073,28.84375 32.3114245,28.0810547 33.2821277,26.8330078 C34.4839506,25.4000651 35.131086,24.360026 35.2235339,23.7128906 C35.0386381,23.4817708 34.4146146,23.2044271 33.3514636,22.8808594 C32.1034167,22.4186198 31.1211576,21.9679362 30.4046863,21.5288086 C29.6882149,21.089681 29.3530912,20.5003255 29.3993152,19.7607422 C29.4455391,18.9287109 30.0464506,18.5126953 31.2020495,18.5126953 C32.0340808,18.5589193 33.0972318,18.905599 34.3915027,19.5527344 C35.3159818,20.0611979 36.0093412,20.3154297 36.4715808,20.3154297 C36.8413725,20.3154297 37.407616,19.5527344 38.1703113,18.0273438 C38.9330066,16.5019531 39.522362,15.2076823 39.9383777,14.1445312 C37.8120756,14.0058594 36.240461,13.7747396 35.2235339,13.4511719 C34.2066068,13.1276042 33.3630196,12.5151367 32.6927722,11.6137695 C32.0225248,10.7124023 31.4562813,9.3141276 30.9940417,7.41894531 C30.716698,6.30957031 30.6011381,5.36197917 30.647362,4.57617188 Z" id="Shape"></path>
            <path d="M15.0467761,73.4960938 C15.0467761,72.8489583 15.3703438,72.4444987 16.0174792,72.2827148 C16.6646146,72.120931 17.7277657,72.0400391 19.2069324,72.0400391 C21.2407865,72.0400391 22.8124011,71.8320312 23.9217761,71.4160156 C25.0311511,71 25.5858386,69.9830729 25.5858386,68.3652344 C25.5858386,67.625651 25.7938464,67.0362956 26.209862,66.597168 C26.6258777,66.1580404 27.2036771,65.9384766 27.9432605,65.9384766 C28.5441719,65.9384766 28.9717436,66.2273763 29.2259753,66.8051758 C29.4802071,67.3829753 29.6766589,68.1803385 29.8153308,69.1972656 C29.8615548,69.4746094 29.8846667,69.7403971 29.8846667,69.9946289 C29.8846667,70.2488607 29.9540027,70.3759766 30.0926745,70.3759766 C30.2313464,70.3759766 30.4624662,70.3066406 30.7860339,70.1679688 L31.4793933,69.890625 C32.95856,69.5208333 34.021711,69.3359375 34.6688464,69.3359375 C36.3791329,69.3359375 37.2342761,70.1448568 37.2342761,71.7626953 C37.2342761,72.0400391 37.1187162,72.2827148 36.8875964,72.4907227 C36.6564766,72.6987305 36.286685,72.8258464 35.7782214,72.8720703 C34.1603829,72.9645182 32.9932279,73.0800781 32.2767566,73.21875 C31.5602852,73.3574219 30.9478178,73.6347656 30.4393542,74.0507812 C29.9308907,74.4667969 29.4917631,75.1601562 29.1219714,76.1308594 C28.8908516,76.7779948 28.497948,77.610026 27.9432605,78.6269531 C27.8508126,78.9042969 27.7583646,79.1123047 27.6659167,79.2509766 C27.2499011,80.1754557 27.0418933,80.9150391 27.0418933,81.4697266 C27.0418933,81.7470703 27.1227852,82.0013021 27.2845691,82.2324219 C27.4463529,82.4635417 27.6659167,82.5791016 27.9432605,82.5791016 C29.3762032,82.5791016 31.4100574,82.09375 34.044823,81.1230469 C35.6164376,80.6145833 36.8875964,80.2332357 37.8582995,79.9790039 C38.8290027,79.7247721 39.8459298,79.5976562 40.9090808,79.5976562 C41.6486641,79.5976562 42.4229154,79.7247721 43.2318347,79.9790039 C44.040754,80.2332357 44.4452136,80.4990234 44.4452136,80.7763672 C44.4452136,81.1461589 44.3065417,81.4003906 44.029198,81.5390625 C43.7518542,81.6777344 43.3820626,81.7701823 42.919823,81.8164062 C41.9491199,81.9088542 39.545474,82.6831055 35.7088855,84.1391602 C31.8722969,85.5952148 29.7459949,86.554362 29.3299792,87.0166016 L29.3299792,87.2939453 C29.3299792,87.5712891 29.3530912,87.8370768 29.3993152,88.0913086 C29.4455391,88.3455404 29.4686511,88.5882161 29.4686511,88.8193359 C29.4686511,89.5126953 29.2028633,90.2985026 28.6712878,91.1767578 C28.1397123,92.055013 27.2499011,93.3261719 26.0018542,94.9902344 C24.7075834,96.6542969 23.7022123,98.1334635 22.985741,99.4277344 C22.2692696,100.722005 21.9110339,101.923828 21.9110339,103.033203 C21.9110339,103.680339 22.0728178,104.200358 22.3963855,104.593262 C22.7199532,104.986165 23.1128568,105.182617 23.5750964,105.182617 C23.8524402,105.182617 24.1297839,105.113281 24.4071277,104.974609 C26.0249662,104.235026 27.342349,103.449219 28.3592761,102.617188 C29.3762032,101.785156 30.6011381,100.583333 32.0340808,99.0117188 L33.7674792,97.1396484 C34.0910469,96.8623047 34.4492826,96.6889648 34.8421863,96.6196289 C35.2350899,96.550293 35.7782214,96.515625 36.4715808,96.515625 C37.8120756,96.515625 38.9214506,96.9085286 39.7997058,97.6943359 C41.6024402,99.4508464 43.4398425,101.762044 45.3119128,104.62793 C47.1839831,107.493815 48.1200183,109.828125 48.1200183,111.630859 C48.1200183,112.000651 48.0044584,112.335775 47.7733386,112.63623 C47.5422188,112.936686 47.311099,113.086914 47.0799792,113.086914 C46.4790678,113.086914 44.4683256,110.798828 41.0477527,106.222656 C39.4299141,104.003906 38.2974271,102.536296 37.6502917,101.819824 C37.0031563,101.103353 36.5178048,100.745117 36.194237,100.745117 C35.9168933,100.745117 35.2928699,101.161133 34.3221667,101.993164 C33.7674792,102.40918 32.7736641,103.218099 31.3407214,104.419922 C29.0757475,106.26888 27.4925769,107.470703 26.5912097,108.025391 C25.6898425,108.580078 24.6151355,108.857422 23.3670886,108.857422 C22.3963855,108.857422 21.4141264,108.591634 20.4203113,108.060059 C19.4264962,107.528483 18.5944649,106.858236 17.9242175,106.049316 C17.2539701,105.240397 16.9188464,104.443034 16.9188464,103.657227 C16.9188464,102.085612 17.5082019,100.30599 18.6869128,98.3183594 C19.8656238,96.3307292 21.3794584,94.1350911 23.2284167,91.7314453 C24.6613594,89.6513672 25.4240548,88.3570964 25.5165027,87.8486328 C24.5920235,87.8948568 23.7484363,87.9988607 22.985741,88.1606445 C22.2230456,88.3224284 21.3101225,88.6113281 20.2469714,89.0273438 C18.1206693,89.7669271 16.4566068,90.1367188 15.2547839,90.1367188 C14.7463204,90.1367188 14.1454089,89.7900391 13.4520495,89.0966797 C12.7586902,88.4033203 12.4120105,87.8024089 12.4120105,87.2939453 C12.4120105,86.8779297 12.8164701,86.53125 13.6253894,86.2539062 C14.4343087,85.9765625 15.8325834,85.6992188 17.8202136,85.421875 C19.576724,85.1445312 20.766991,84.9249674 21.3910144,84.7631836 C22.0150378,84.6013997 22.4194975,84.358724 22.6043933,84.0351562 C22.8355131,83.7115885 23.1128568,82.7062174 23.4364245,81.019043 C23.7599923,79.3318685 23.9217761,78.1878255 23.9217761,77.5869141 C23.9217761,76.7086589 23.6559883,76.1424154 23.1244128,75.8881836 C22.5928373,75.6339518 21.9110339,75.5068359 21.0790027,75.5068359 L19.9696277,75.5068359 C19.1375964,75.5992839 18.513573,75.6455078 18.0975574,75.6455078 C16.0637032,75.6455078 15.0467761,74.9290365 15.0467761,73.4960938 Z" id="Path"></path>
            <path d="M14.5960925,150.112305 C14.9658842,149.511393 15.6823555,148.170898 16.7455066,146.09082 C18.548241,142.808919 19.9349597,140.324382 20.9056628,138.637207 C21.876366,136.950033 22.6852852,135.921549 23.3324206,135.551758 C23.8408842,135.274414 24.4186837,135.135742 25.0658191,135.135742 C25.9902982,135.135742 26.4525378,135.297526 26.4525378,135.621094 C26.4525378,136.822917 26.279198,137.79362 25.9325183,138.533203 C25.5858386,139.272786 25.112043,140.01237 24.5111316,140.751953 C24.2337878,141.075521 24.002668,141.399089 23.8177722,141.722656 C23.6328764,142.046224 23.5404285,142.369792 23.5404285,142.693359 C23.5404285,142.970703 23.7253243,143.109375 24.095116,143.109375 C24.6035795,143.109375 25.192935,143.028483 25.8631824,142.866699 C26.5334298,142.704915 27.0072253,142.577799 27.2845691,142.485352 C30.2891264,141.838216 34.2181628,141.375977 39.0716785,141.098633 C39.4414701,141.052409 39.7650378,141.329753 40.0423816,141.930664 C40.3197253,142.531576 40.4583972,143.132487 40.4583972,143.733398 C40.4583972,144.195638 40.3312813,144.56543 40.0770495,144.842773 C39.8228178,145.120117 39.5108061,145.258789 39.1410144,145.258789 C39.0023425,145.258789 38.3089831,145.189453 37.0609363,145.050781 C36.5062488,144.912109 35.9515613,144.842773 35.3968738,144.842773 C33.5016915,144.842773 31.2829415,145.154785 28.7406238,145.778809 C26.1983061,146.402832 24.095116,147.153971 22.4310535,148.032227 C22.2923816,148.124674 21.8994779,148.355794 21.2523425,148.725586 C20.6052071,149.095378 20.0274076,149.499837 19.5189441,149.938965 C19.0104805,150.378092 18.6406889,150.805664 18.4095691,151.22168 C18.2246732,151.683919 17.9704415,151.915039 17.6468738,151.915039 C17.0921863,151.915039 16.3988269,151.695475 15.5667956,151.256348 C14.7347644,150.81722 14.4111967,150.435872 14.5960925,150.112305 Z M28.6712878,154.272461 C28.8561837,153.579102 28.9717436,152.908854 29.0179675,152.261719 C29.2490873,150.505208 29.572655,149.106934 29.9886706,148.066895 C30.4046863,147.026855 31.1442696,146.391276 32.2074206,146.160156 C32.6234363,146.067708 33.1203438,146.1486 33.6981433,146.402832 C34.2759428,146.657064 34.5648425,146.969076 34.5648425,147.338867 C34.5648425,147.847331 34.3568347,148.563802 33.9408191,149.488281 C33.4785795,150.597656 33.2474597,151.522135 33.2474597,152.261719 C33.2474597,152.816406 33.2936837,153.186198 33.3861316,153.371094 C33.8021472,153.371094 34.4261706,153.32487 35.2582019,153.232422 C36.0902331,153.139974 36.6911446,153.09375 37.0609363,153.09375 C39.603254,153.09375 40.8744128,153.902669 40.8744128,155.520508 C40.8744128,156.583659 40.735741,157.41569 40.4583972,158.016602 C40.1810535,158.617513 39.580142,158.917969 38.6556628,158.917969 C38.1934232,158.917969 37.8582995,158.813965 37.6502917,158.605957 C37.4422839,158.397949 37.2689441,158.109049 37.1302722,157.739258 C36.9916003,157.369466 36.8067045,157.18457 36.5755847,157.18457 C35.0039701,157.18457 33.8945951,157.323242 33.2474597,157.600586 C32.923892,160.743815 32.6465482,163.147461 32.4154285,164.811523 L32.2767566,165.990234 C33.4785795,165.851562 34.7035144,165.597331 35.9515613,165.227539 C37.1996081,164.857747 37.9160795,164.64974 38.1009753,164.603516 C39.8112618,164.095052 41.1979805,163.713704 42.2611316,163.459473 C43.3242826,163.205241 44.4336576,163.078125 45.5892566,163.078125 C48.9636055,163.078125 50.65078,163.679036 50.65078,164.880859 C50.65078,165.250651 50.5467761,165.631999 50.3387683,166.024902 C50.1307605,166.417806 49.8649727,166.614258 49.541405,166.614258 C49.2640613,166.614258 48.9058256,166.57959 48.466698,166.510254 C48.0275704,166.440918 47.6693347,166.40625 47.391991,166.40625 C46.4675118,166.40625 44.8612292,166.625814 42.5731433,167.064941 C40.2850574,167.504069 38.1356433,168.024089 36.1249011,168.625 C34.1141589,169.225911 32.877668,169.803711 32.4154285,170.358398 C31.9531889,170.913086 31.5718412,171.906901 31.2713855,173.339844 C30.9709298,174.772786 30.6358061,176.783529 30.2660144,179.37207 C29.7575508,182.792643 29.2721993,185.346517 28.8099597,187.033691 C28.3477201,188.720866 27.7236967,189.564453 26.9378894,189.564453 C26.5680977,189.564453 26.1405261,189.356445 25.6551745,188.94043 C25.169823,188.524414 24.9271472,188.154622 24.9271472,187.831055 C24.9271472,187.183919 25.0658191,186.305664 25.3431628,185.196289 C25.5280587,184.364258 25.6436186,183.740234 25.6898425,183.324219 C25.8285144,182.261068 26.0827462,180.666341 26.4525378,178.540039 C27.0996732,175.16569 27.4694649,172.530924 27.5619128,170.635742 C26.1289701,170.635742 23.9448881,170.936198 21.0096667,171.537109 C18.0744454,172.138021 15.9596993,172.738932 14.6654285,173.339844 C13.5560535,173.848307 12.6315743,174.102539 11.891991,174.102539 C11.5221993,174.102539 11.1061837,174.010091 10.6439441,173.825195 C10.1817045,173.640299 9.76568887,173.386068 9.3958972,173.0625 C9.21100137,172.877604 9.11855345,172.669596 9.11855345,172.438477 C9.11855345,171.791341 9.82346882,171.201986 11.2332995,170.67041 C12.6431303,170.138835 14.5498686,169.549479 16.9535144,168.902344 C18.525129,168.486328 19.3340482,168.232096 19.3802722,168.139648 C19.657616,167.400065 19.8425118,166.440918 19.9349597,165.262207 C20.0274076,164.083496 20.0736316,163.378581 20.0736316,163.147461 C20.2123035,161.252279 20.3740873,159.773112 20.5589831,158.709961 C20.743879,157.64681 21.1598946,156.733887 21.80703,155.971191 C22.4541654,155.208496 23.4248686,154.827148 24.7191394,154.827148 C25.181379,154.780924 25.8054024,154.711589 26.5912097,154.619141 C27.377017,154.526693 28.0703764,154.411133 28.6712878,154.272461 Z M27.7699206,166.614258 C27.8623686,165.412435 27.9548165,164.53418 28.0472644,163.979492 C28.2783842,162.500326 28.3939441,161.159831 28.3939441,159.958008 C28.3939441,159.310872 28.2090482,158.987305 27.8392566,158.987305 C27.5156889,158.987305 26.9147774,159.079753 26.0365222,159.264648 C25.158267,159.449544 24.6035795,159.611328 24.3724597,159.75 C24.3262357,159.796224 24.1066719,160.917155 23.7137683,163.112793 C23.3208646,165.308431 23.1244128,166.544922 23.1244128,166.822266 C23.1244128,167.007161 23.1706368,167.122721 23.2630847,167.168945 C23.3555326,167.215169 23.4710925,167.238281 23.6097644,167.238281 C25.2738269,167.238281 26.6605456,167.030273 27.7699206,166.614258 Z" id="Shape"></path>
            <path d="M23.3324206,206.551758 C24.9040352,205.673503 26.1751941,205.014811 27.1458972,204.575684 C28.1166003,204.136556 29.0179675,203.916992 29.8499988,203.916992 C30.3584623,203.916992 30.6126941,204.35612 30.6126941,205.234375 L30.6126941,205.511719 C30.6126941,206.436198 30.3584623,207.037109 29.8499988,207.314453 C29.3415352,207.499349 28.7059558,207.776693 27.9432605,208.146484 C27.1805652,208.516276 26.7298816,208.816732 26.5912097,209.047852 C24.5111316,211.497721 23.0319649,213.647135 22.1537097,215.496094 C22.4772774,215.588542 22.985741,215.634766 23.6791003,215.634766 C25.8054024,215.634766 27.2383451,216.166341 27.9779285,217.229492 C28.7175118,218.292643 29.0873035,219.956706 29.0873035,222.22168 C29.0873035,222.822591 29.1797514,223.723958 29.3646472,224.925781 C29.595767,226.08138 29.7113269,227.075195 29.7113269,227.907227 C29.7113269,230.033529 29.549543,231.443359 29.2259753,232.136719 C29.0873035,232.552734 28.8330717,232.830078 28.46328,232.96875 C28.0934883,233.107422 27.5619128,233.222982 26.8685535,233.31543 C26.7298816,233.31543 26.3947579,233.361654 25.8631824,233.454102 C25.3316068,233.546549 24.9040352,233.731445 24.5804675,234.008789 C23.9333321,234.563477 22.8124011,235.083496 21.2176745,235.568848 C19.622948,236.054199 18.3633451,236.296875 17.438866,236.296875 C16.5606107,236.296875 15.8672514,235.950195 15.3587878,235.256836 C14.8503243,234.563477 14.5960925,233.777669 14.5960925,232.899414 C14.5960925,230.495768 14.7694324,227.664551 15.116112,224.405762 C15.4627917,221.146973 15.9365873,218.708659 16.5374988,217.09082 C16.8610665,216.351237 17.4850899,215.264974 18.4095691,213.832031 C19.611392,212.029297 20.2123035,210.943034 20.2123035,210.573242 C20.2123035,210.388346 20.0042956,210.295898 19.58828,210.295898 C19.4033842,210.295898 18.6060209,210.307454 17.1961902,210.330566 C15.7863594,210.353678 14.5152006,210.191895 13.3827136,209.845215 C12.2502266,209.498535 11.6839831,208.978516 11.6839831,208.285156 C11.6839831,207.453125 12.8858061,207.037109 15.2894519,207.037109 C16.9072904,207.037109 18.1322253,207.060221 18.9642566,207.106445 L22.2230456,207.106445 L23.3324206,206.551758 Z M18.9642566,232.414062 C20.2585274,232.321615 21.1830066,232.182943 21.7376941,231.998047 C22.1537097,231.766927 22.7083972,231.651367 23.4017566,231.651367 C24.2800118,231.651367 24.8693673,231.235352 25.169823,230.40332 C25.4702787,229.571289 25.6205066,228.508138 25.6205066,227.213867 C25.6205066,224.532878 25.5049467,222.499023 25.2738269,221.112305 C25.0427071,219.725586 24.6729154,219.032227 24.1644519,219.032227 C22.8239571,219.032227 21.6914701,219.42513 20.766991,220.210938 C19.8425118,220.996745 19.3802722,222.036784 19.3802722,223.331055 C19.3802722,223.515951 19.4727201,223.608398 19.657616,223.608398 C19.8425118,223.608398 20.1429675,223.446615 20.5589831,223.123047 C20.6514311,223.076823 20.9634428,222.868815 21.4950183,222.499023 C22.0265938,222.129232 22.7546212,221.944336 23.6791003,221.944336 C24.7422514,221.944336 25.2738269,222.244792 25.2738269,222.845703 C25.2738269,224.232422 24.02578,225.434245 21.5296863,226.451172 C21.2523425,226.589844 20.766991,226.705404 20.0736316,226.797852 C19.8425118,226.844076 19.3340482,226.959635 18.548241,227.144531 L18.3402331,227.213867 C18.3402331,227.491211 18.478905,227.629883 18.7562488,227.629883 C19.2647123,227.629883 19.7616199,227.560547 20.2469714,227.421875 C20.732323,227.283203 21.0443347,227.190755 21.1830066,227.144531 C22.2923816,226.77474 23.1706368,226.589844 23.8177722,226.589844 C24.5111316,226.589844 24.8578113,227.028971 24.8578113,227.907227 C24.8578113,228.924154 24.4417956,229.571289 23.6097644,229.848633 C22.7777331,230.125977 21.7145821,230.264648 20.4203113,230.264648 L19.0335925,230.195312 C18.7562488,230.195312 18.5713529,230.218424 18.478905,230.264648 C18.3864571,230.449544 18.3402331,230.773112 18.3402331,231.235352 L18.3402331,232.414062 L18.9642566,232.414062 Z M14.5960925,243.785156 C14.5960925,243.230469 14.8503243,242.537109 15.3587878,241.705078 C15.6823555,241.335286 15.9596993,240.826823 16.1908191,240.179688 C16.5606107,239.208984 16.9535144,238.457845 17.36953,237.92627 C17.7855456,237.394694 18.4326811,237.128906 19.3109363,237.128906 C19.6807279,237.128906 19.9696277,237.256022 20.1776355,237.510254 C20.3856433,237.764486 20.4896472,238.076497 20.4896472,238.446289 C20.4896472,238.816081 20.3278633,239.486328 20.0042956,240.457031 C19.8193998,240.826823 19.6807279,241.265951 19.58828,241.774414 C20.0505196,241.72819 20.5589831,241.635742 21.1136706,241.49707 C21.6683581,241.358398 22.0612618,241.265951 22.2923816,241.219727 C23.6328764,240.803711 24.6729154,240.595703 25.4124988,240.595703 C26.1058581,240.595703 26.6374337,240.734375 27.0072253,241.011719 C27.377017,241.289062 27.5619128,241.751302 27.5619128,242.398438 C27.5619128,243.415365 27.2152331,244.432292 26.5218738,245.449219 C25.8285144,246.466146 24.9502592,247.575521 23.8871081,248.777344 C23.1937488,249.609375 22.8470691,250.071615 22.8470691,250.164062 C22.8470691,250.395182 23.0435209,250.60319 23.4364245,250.788086 C23.8293282,250.972982 24.1644519,251.088542 24.4417956,251.134766 C24.6729154,251.18099 25.0311511,251.273438 25.5165027,251.412109 C26.0018542,251.550781 26.4063139,251.712565 26.7298816,251.897461 C28.7637357,253.099284 33.6172514,253.700195 41.2904285,253.700195 C44.4798816,253.700195 46.9066394,253.630859 48.5707019,253.492188 C49.587629,253.353516 51.0899076,253.16862 53.0775378,252.9375 C55.065168,252.70638 56.5905587,252.544596 57.6537097,252.452148 C58.5319649,252.452148 58.9710925,252.983724 58.9710925,254.046875 C58.9710925,254.740234 58.7399727,255.248698 58.2777331,255.572266 C57.5843738,256.080729 55.2847318,256.427409 51.3788074,256.612305 C47.4728829,256.797201 43.99453,256.889648 40.9437488,256.889648 C35.3044258,256.889648 30.3353503,256.381185 26.0365222,255.364258 C25.2969389,255.225586 24.072004,254.878906 22.3617175,254.324219 C20.6514311,253.677083 19.611392,253.353516 19.2416003,253.353516 C18.8255847,253.353516 18.4211251,253.526855 18.0282214,253.873535 C17.6353178,254.220215 17.1152982,254.763346 16.4681628,255.50293 C15.8210274,256.242513 15.2663399,256.808757 14.8041003,257.20166 C14.3418607,257.594564 13.8796212,257.791016 13.4173816,257.791016 C11.6146472,257.791016 10.71328,257.282552 10.71328,256.265625 C10.71328,255.710938 10.9675118,255.237142 11.4759753,254.844238 C11.9844389,254.451335 12.7471342,253.954427 13.7640613,253.353516 C13.8102852,253.307292 13.9027331,253.2264 14.041405,253.11084 C14.1800769,252.99528 14.5729805,252.82194 15.220116,252.59082 C16.0521472,252.267253 16.4681628,251.966797 16.4681628,251.689453 C16.4681628,251.458333 16.260155,251.319661 15.8441394,251.273438 C15.5667956,251.227214 15.3587878,251.06543 15.220116,250.788086 C15.0814441,250.510742 15.0121081,250.233398 15.0121081,249.956055 C15.0121081,249.447591 15.2778959,249.077799 15.8094714,248.84668 C16.3410469,248.61556 16.8841785,248.5 17.438866,248.5 C17.7624337,248.5 18.0166654,248.523112 18.2015613,248.569336 C18.8024727,248.661784 19.2647123,248.661784 19.58828,248.569336 C19.7269519,248.523112 20.0851876,248.03776 20.662987,247.113281 C21.2407865,246.188802 21.6914701,245.402995 22.0150378,244.755859 C21.1367826,245.079427 20.4434232,245.287435 19.9349597,245.379883 C19.4264962,245.472331 18.7331368,245.518555 17.8548816,245.518555 C15.6823555,245.518555 14.5960925,244.940755 14.5960925,243.785156 Z" id="Shape"></path>
            <path d="M18.7909167,287.605469 C18.7909167,287.143229 18.8718087,286.819661 19.0335925,286.634766 C19.1953764,286.44987 19.5073881,286.264974 19.9696277,286.080078 C20.755435,285.941406 23.4133126,285.687174 27.9432605,285.317383 C32.4732084,284.947591 35.0617501,284.808919 35.7088855,284.901367 C36.5409167,284.993815 37.1649402,285.144043 37.5809558,285.352051 C37.9969714,285.560059 38.1587553,286.010742 38.0663074,286.704102 L37.9276355,287.813477 L31.2020495,288.09082 C31.2944975,288.414388 31.4216133,288.714844 31.5833972,288.992188 C31.7451811,289.269531 31.8722969,289.535319 31.9647449,289.789551 C32.0571928,290.043783 32.0803048,290.378906 32.0340808,290.794922 C31.9416329,291.719401 31.5256173,293.059896 30.7860339,294.816406 C30.693586,295.09375 30.5318021,295.532878 30.3006824,296.133789 C30.0695626,296.734701 29.8846667,297.289388 29.7459949,297.797852 C31.2713855,297.243164 32.6696602,296.838704 33.9408191,296.584473 C35.2119779,296.330241 36.4715808,296.272461 37.7196277,296.411133 C38.1356433,296.411133 38.505435,296.503581 38.8290027,296.688477 C39.1525704,296.873372 39.3143542,297.150716 39.3143542,297.520508 C39.3143542,298.121419 38.7018868,298.652995 37.4769519,299.115234 C36.252017,299.577474 34.5995105,300.039714 32.5194324,300.501953 C32.2420886,300.594401 31.6989571,300.744629 30.8900378,300.952637 C30.0811186,301.160645 29.4802071,301.34554 29.0873035,301.507324 C28.6943998,301.669108 28.497948,301.819336 28.497948,301.958008 C28.497948,302.374023 28.1166003,303.367839 27.353905,304.939453 C26.5912097,306.511068 26.1405261,307.435547 26.0018542,307.712891 C27.8508126,307.897786 29.7459949,308.52181 31.6874011,309.584961 C33.6288074,310.648112 36.0555652,312.150391 38.9676745,314.091797 C41.6486641,315.940755 43.8211902,317.304362 45.4852527,318.182617 C46.178612,318.459961 47.9813464,319.014648 50.8934558,319.84668 C53.5282214,320.540039 54.8687162,320.956055 54.9149402,321.094727 C55.2385079,321.37207 55.4002917,321.695638 55.4002917,322.06543 C55.3078438,322.758789 54.9264962,323.278809 54.2562488,323.625488 C53.5860014,323.972168 52.904198,324.099284 52.2108386,324.006836 C49.8996407,323.729492 46.5715157,322.573893 42.2264636,320.540039 C37.8814115,318.506185 34.8075183,316.657227 33.0047839,314.993164 C32.4038725,314.484701 31.1789376,313.791341 29.3299792,312.913086 C29.1450834,312.774414 28.5672839,312.473958 27.5965808,312.011719 C27.1805652,311.688151 26.7876615,311.468587 26.4178699,311.353027 C26.0480782,311.237467 25.8169584,311.156576 25.7245105,311.110352 C25.169823,310.925456 24.7075834,310.74056 24.3377917,310.555664 C24.1991199,311.156576 23.4942045,312.346842 22.2230456,314.126465 C20.9518868,315.906087 19.634504,317.51237 18.2708972,318.945312 C16.9072904,320.378255 15.9943673,321.071615 15.5321277,321.025391 C15.162336,321.025391 14.6885404,320.736491 14.110741,320.158691 C13.5329415,319.580892 13.2671537,319.130208 13.3133777,318.806641 C13.3133777,318.529297 14.099185,317.558594 15.6707995,315.894531 C16.225487,315.339844 16.5490548,314.993164 16.6415027,314.854492 C16.6877266,314.762044 16.8957344,314.438477 17.2655261,313.883789 C17.6353178,313.329102 17.8202136,312.866862 17.8202136,312.49707 C17.8664376,312.219727 18.0513334,311.907715 18.3749011,311.561035 C18.6984688,311.214355 18.9295886,310.948568 19.0682605,310.763672 C19.2993803,310.486328 20.0967436,309.064941 21.4603503,306.499512 C22.8239571,303.934082 23.5288725,302.512695 23.5750964,302.235352 L23.5057605,302.027344 L22.5350574,301.958008 C22.0265938,301.958008 21.3563464,302.004232 20.5243152,302.09668 C20.2931954,302.09668 19.8656238,302.131348 19.2416003,302.200684 C18.6175769,302.27002 18.0282214,302.258464 17.4735339,302.166016 C16.9650704,302.073568 16.4912748,301.830892 16.0521472,301.437988 C15.6130196,301.045085 15.4165678,300.617513 15.4627917,300.155273 C15.4627917,300.062826 15.4859037,299.958822 15.5321277,299.843262 C15.5783516,299.727702 15.6245756,299.64681 15.6707995,299.600586 C16.1792631,299.092122 16.9650704,298.837891 18.0282214,298.837891 C19.0451485,298.884115 20.0274076,298.849447 20.9749988,298.733887 C21.9225899,298.618327 22.8470691,298.479655 23.7484363,298.317871 C24.6498035,298.156087 25.3084949,298.052083 25.7245105,298.005859 C25.8169584,297.589844 25.9556303,297.13916 26.1405261,296.653809 C26.3254219,296.168457 26.4872058,295.694661 26.6258777,295.232422 C27.6428048,292.505208 28.1743803,290.702474 28.2206042,289.824219 L28.2206042,289.616211 C28.2206042,289.246419 27.9663725,289.061523 27.4579089,289.061523 L26.4178699,288.992188 C25.8631824,288.992188 25.0311511,289.038411 23.9217761,289.130859 C22.4426094,289.315755 21.3101225,289.361979 20.5243152,289.269531 C19.3687162,289.177083 18.7909167,288.622396 18.7909167,287.605469 Z" id="Path"></path>
        </g>
    </g>
</svg>