<?xml version="1.0" encoding="UTF-8"?>
<svg width="214px" height="43px" viewBox="0 0 214 43" version="1.1" xmlns="http://www.w3.org/2000/svg" xmlns:xlink="http://www.w3.org/1999/xlink">
    <title>二次降臨</title>
    <g id="Page-1" stroke="none" stroke-width="1" fill="none" fill-rule="evenodd">
        <g id="Artboard" transform="translate(-2.000000, -1.000000)" fill="#D6D9E9" fill-rule="nonzero">
            <g id="二次降臨" transform="translate(2.475000, 1.615000)">
                <path d="M3.06,9.27 L36.855,9.27 L36.855,6.75 L3.06,6.75 L3.06,9.27 Z M-2.84217094e-14,37.125 L39.96,37.125 L39.96,34.65 L-2.84217094e-14,34.65 L-2.84217094e-14,37.125 Z" id="Shape"></path>
                <path d="M70.375,20.565 C72.895,17.955 74.92,14.625 76.495,10.935 L93.01,10.935 C92.245,13.815 90.535,17.73 88.735,20.835 L89.86,21.6 C92.29,19.215 95.44,14.13 97.15,10.305 L93.82,8.325 L92.47,9.18 L77.17,9.18 C78.205,6.435 78.97,3.51 79.555,0.585 L75.955,0 C74.92,7.56 72.94,14.49 69.25,19.665 L70.375,20.565 Z M69.25,12.96 C66.865,10.395 62.545,6.84 59.485,4.905 L58.63,5.985 C61.195,8.73 64.57,12.555 66.73,15.435 L69.25,12.96 Z M83.875,18.99 C83.92,17.19 83.92,15.57 83.92,13.77 L80.725,13.77 L80.725,17.775 C80.41,27.72 76,36.45 64.345,41.085 L64.93,42.345 C75.685,38.925 81.76,31.635 83.245,22.23 C84.685,30.285 89.14,37.845 96.745,42.12 L98.77,38.7 C90.715,34.875 85.765,28.395 83.875,18.99 Z M71.14,21.87 C67.945,26.19 62.23,32.22 58.135,35.37 L60.61,38.025 C64.615,34.155 69.88,27.225 72.31,22.68 L71.14,21.87 Z" id="Shape"></path>
                <path d="M145.475,13.635 C148.04,11.295 150.11,8.415 151.685,4.95 L148.625,3.375 L147.635,4.05 L139.985,4.05 C140.525,3.06 140.975,2.025 141.38,0.99 L138.41,0.045 C136.52,5.535 133.505,10.395 129.455,13.95 L130.265,15.03 C132.92,13.365 135.125,11.205 136.97,8.82 C138.23,10.665 139.76,12.375 141.425,13.815 C138.545,16.245 134.81,18.18 129.86,19.89 L130.355,21.24 C135.53,19.935 139.895,18 143.405,15.345 C147.455,18.27 152,20.07 155.375,20.745 L156.815,17.505 C153.35,16.875 149.3,15.705 145.475,13.635 Z M125.45,15.66 C126.98,13.185 129.095,8.955 131.03,3.6 L128.06,2.25 L127.16,2.925 L121.175,2.925 L118.295,1.845 L118.295,42.165 L121.175,42.165 L121.175,4.68 L127.385,4.68 C126.755,8.235 125.18,12.825 124.01,15.705 C126.305,19.305 127.43,22.815 127.565,25.875 C127.655,29.7 126.935,30.24 122.84,29.52 L122.48,30.825 C127.34,33.39 130.76,31.905 130.58,26.505 C130.445,22.905 128.6,19.53 125.45,15.66 Z M137.87,7.56 C138.275,6.975 138.68,6.39 139.04,5.76 L147.68,5.76 C146.465,8.235 144.98,10.395 143.135,12.24 C141.245,10.98 139.445,9.45 137.87,7.56 Z M145.07,24.165 L153.845,24.165 L153.845,22.41 L145.07,22.41 L145.07,17.82 L142.01,17.82 L142.01,22.41 L132.425,22.41 L132.425,24.165 L142.01,24.165 L142.01,31.635 L135.53,31.635 C135.98,29.745 136.43,27.9 136.745,26.28 L133.955,25.695 C133.325,28.755 132.29,32.895 131.255,36.27 L134.045,36.9 C134.36,35.775 134.72,34.605 135.035,33.435 L142.01,33.435 L142.01,42.21 L145.07,42.21 L145.07,33.435 L155.195,33.435 L155.195,31.635 L145.07,31.635 L145.07,24.165 Z" id="Shape"></path>
                <path d="M197.265,5.265 C197.895,3.96 198.48,2.565 198.975,1.08 L195.915,0.27 C194.7,5.31 192.765,9.36 190.02,12.735 L191.01,13.68 C193.215,11.61 194.925,9.45 196.32,7.02 L213.375,7.02 L213.375,5.265 L197.265,5.265 Z M185.88,26.01 L190.065,26.01 L190.065,13.86 L185.925,13.86 L185.925,4.5 L192.72,4.5 L192.72,2.745 L175.89,2.745 L175.89,42.21 L178.815,42.21 L178.815,38.565 L190.74,38.565 L190.74,36.81 L185.88,36.81 L185.88,26.01 Z M178.815,4.5 L183.225,4.5 L183.225,13.86 L178.815,13.86 L178.815,4.5 Z M209.505,10.98 L194.43,10.98 L194.43,20.835 L209.505,20.835 L209.505,10.98 Z M206.58,19.08 L197.355,19.08 L197.355,12.735 L206.58,12.735 L206.58,19.08 Z M178.815,15.615 L187.275,15.615 L187.275,24.255 L178.815,24.255 L178.815,15.615 Z M191.64,41.985 L194.16,41.985 L194.16,38.97 L198.435,38.97 L198.435,41.805 L200.91,41.805 L200.91,24.255 L191.64,24.255 L191.64,41.985 Z M203.115,41.985 L205.59,41.985 L205.59,38.97 L209.955,38.97 L209.955,41.85 L212.475,41.85 L212.475,24.255 L203.115,24.255 L203.115,41.985 Z M194.16,25.965 L198.435,25.965 L198.435,37.215 L194.16,37.215 L194.16,25.965 Z M205.59,25.965 L209.955,25.965 L209.955,37.215 L205.59,37.215 L205.59,25.965 Z M183.135,36.81 L178.815,36.81 L178.815,26.01 L183.135,26.01 L183.135,36.81 Z" id="Shape"></path>
            </g>
        </g>
    </g>
</svg>