<?xml version="1.0" encoding="UTF-8"?>
<svg width="120px" height="120px" viewBox="0 0 120 120" version="1.1" xmlns="http://www.w3.org/2000/svg" xmlns:xlink="http://www.w3.org/1999/xlink">
    <title>spiral</title>
    <g id="Page-1" stroke="none" stroke-width="1" fill="none" fill-rule="evenodd">
        <g id="spiral" transform="translate(60.366149, 60.317620) rotate(17.000000) translate(-60.366149, -60.317620) translate(0.793056, 0.817620)" fill="#D85517">
            <path d="M54.306897,35.2359417 C46.5732804,35.2359417 39.4787744,37.9768045 35.1653451,43.337603 C31.885384,47.4141193 30.6120034,52.4248657 31.4831603,57.8276402 C32.6613929,65.135547 37.6216476,72.0906739 45.0920565,76.9098766 C58.5115641,85.5669237 75.8912885,84.5779885 83.8345637,74.7063665 C87.1145247,70.6296987 88.3880566,65.6189523 87.5167484,60.2158747 C86.3385159,52.9081195 81.3782612,45.9529926 73.9078522,41.1339414 C67.775567,37.1780491 60.8147826,35.2359417 54.306897,35.2359417 Z M64.6895325,83.0218476 C58.140048,83.0218476 51.141749,81.0703448 44.9749744,77.0921765 C37.4529829,72.239787 32.4576338,65.2308642 31.2695688,57.8623423 C30.3882769,52.3968313 31.6773894,47.3272882 34.9969829,43.2016737 C43.0071188,33.2459483 60.5152704,32.2365555 74.0249343,40.9517931 C81.5469258,45.804031 86.5422749,52.8129538 87.7304912,60.1813241 C88.6116319,65.6468352 87.3226706,70.7165298 84.0029258,74.8421443 C79.6491077,80.2531019 72.4878922,83.0218476 64.6895325,83.0218476 Z" id="Shape"></path>
            <path d="M32.1949299,47.5316319 L32.2958903,47.5807724 C29.7967069,52.7115186 29.5758279,58.6587181 31.6740285,64.3268537 C34.3393225,71.5269098 40.4168067,77.6294953 48.3478394,81.0697793 C63.0856485,87.462549 79.8632786,82.8355302 85.7475689,70.7553894 C88.2470532,65.6246431 88.4679323,59.6772934 86.3697317,54.009308 C83.7044377,46.8091017 77.6269534,40.7065161 69.6957702,37.2662322 C54.9581117,30.873763 38.1801806,35.5006315 32.2958903,47.5807724 L32.1949299,47.5316319 Z M62.0373757,84.1680335 C57.4988227,84.1680335 52.7828742,83.2378209 48.2584647,81.2752075 C40.2714599,77.8108793 34.1500406,71.661708 31.4635313,64.4045468 C29.3438146,58.6785546 29.5678534,52.6689903 32.09412,47.4826417 C38.0304703,35.296105 54.9388524,30.6209976 69.785145,37.060804 C77.7721498,40.5251322 83.8937196,46.6743035 86.5802288,53.9314647 C88.6999455,59.6574569 88.4757563,65.6670211 85.9494897,70.85352 C81.8221509,79.3262693 72.3916082,84.1680335 62.0373757,84.1680335 Z" id="Shape"></path>
            <path d="M58.2406658,32.2581268 C45.3231323,32.2581268 33.8493106,40.1654094 30.928182,52.118893 C29.3624983,58.5257828 30.4691627,65.3027594 34.0444354,71.2015203 C38.1293601,77.9409871 45.1044292,82.9253892 53.1810239,84.8769628 C68.9344417,88.6832224 84.5878033,80.182009 88.071786,65.9249365 C89.6376209,59.5181985 88.5309565,52.7412219 84.9556838,46.842461 C80.870759,40.1029943 73.8956899,35.1184403 65.8190953,33.1668667 C63.2738578,32.5518271 60.7298295,32.2581268 58.2406658,32.2581268 Z M60.7586977,86.0218476 C58.2506412,86.0218476 55.6907429,85.726173 53.1260081,85.1065776 C44.9891076,83.1404252 37.9611387,78.1169947 33.8438695,71.3243764 C30.2357989,65.3715528 29.1193102,58.531098 30.7001082,52.0627042 L30.8140696,52.0906467 L30.7001082,52.0627042 C34.2147728,37.6798903 49.9941871,29.1000125 65.8741111,32.9372519 C74.0110116,34.9034043 81.0389805,39.9268348 85.1562497,46.719605 C88.7643203,52.6722767 89.8806578,59.5128834 88.2998598,65.9812772 C85.3527348,78.0412158 73.7808217,86.0209364 60.7586977,86.0218476 Z" id="Shape"></path>
            <path d="M59.3209847,30.2662273 C51.9406403,30.2662273 44.9594124,32.9539773 39.5257392,37.9182055 C33.8977751,43.0597059 30.6116858,50.0563045 30.2726174,57.6188167 C29.5628763,73.4554951 42.0969705,86.9686238 58.2131805,87.7419837 C66.1298942,88.1206675 73.6818044,85.4170762 79.4741106,80.12546 C85.1022252,74.9838087 88.3883145,67.9872101 88.7273829,60.4246979 C89.437124,44.5880195 76.9028793,31.0748908 60.7866693,30.3015309 C60.296653,30.2778443 59.8079911,30.2662273 59.3209847,30.2662273 Z M59.6793166,88.0218476 C59.1879458,88.0218476 58.6961235,88.0100798 58.2015923,87.9862423 C41.95129,87.206395 29.3132027,73.5787559 30.0289637,57.6078032 C30.3707411,49.9799643 33.6851237,42.9231685 39.3613971,37.7374631 C45.2018621,32.401642 52.816078,29.6746659 60.7982575,30.0572723 C77.0485598,30.8371196 89.6867976,44.4647587 88.9710366,60.4357114 C88.6292593,68.0635503 85.3148766,75.1203461 79.6384527,80.3060515 C74.1599316,85.3113163 67.1200101,88.0218476 59.6793166,88.0218476 Z" id="Shape"></path>
            <path d="M59.7672093,28.2548797 C58.3319271,28.2548797 56.8888223,28.3678337 55.4467706,28.5957022 C39.4876236,31.1202016 28.3891206,47.0382711 30.7062417,64.0803009 C31.8766112,72.6871246 36.195696,80.1666704 42.8684572,85.14102 C48.991987,89.7062318 56.4415847,91.5751757 63.8456011,90.4043147 C79.8047481,87.8799661 90.9032511,71.9617457 88.58613,54.919716 C87.4157605,46.3128923 83.0962244,38.8331957 76.4236137,33.8588461 C71.492567,30.1830905 65.7014943,28.2548797 59.7672093,28.2548797 Z M59.5244103,91 C53.5358189,91 47.692245,89.0547481 42.7168206,85.3455135 C35.9888505,80.3299937 31.6339626,72.7901254 30.4544167,64.1146847 C28.1186419,46.936326 39.3125195,30.8897694 55.4072067,28.3440063 C62.8780154,27.1621364 70.3962106,29.0481214 76.5752503,33.6543526 C83.3033708,38.6700231 87.6582586,46.2098915 88.837955,54.8853321 C91.1737298,72.0636909 79.9798522,88.1102475 63.885165,90.6560106 C62.4298752,90.8861412 60.9729306,91 59.5244103,91 Z" id="Shape"></path>
            <path d="M58.8878863,25.2865968 C55.7178566,25.2865968 52.5541325,25.8823634 49.5208727,27.0794476 C34.3644828,33.0606676 26.5157506,52.2585733 32.0248312,69.8748695 C34.8891929,79.0335611 41.0103603,86.4255072 48.8190073,90.1556869 C55.4443167,93.320256 62.7812502,93.6075622 69.4790732,90.9643451 C84.6354631,84.9832751 92.4841954,65.7853695 86.9752648,48.1690732 C84.1110533,39.0103816 77.9897358,31.6184355 70.1810888,27.8881058 C66.5563103,26.1567671 62.7175944,25.2865968 58.8878863,25.2865968 Z M60.1117594,93.0218476 C56.2430171,93.0218476 52.3663178,92.1431257 48.7049073,90.3940836 C40.8302023,86.6323977 34.6584405,79.1822402 31.7726101,69.9534848 C26.2229939,52.2080134 34.141237,32.8644293 49.4235874,26.8335495 C56.190471,24.163027 63.6027705,24.4528837 70.2951888,27.6498591 C78.1698938,31.411545 84.3416555,38.8617025 87.227486,48.0903078 C92.7769521,65.8359293 84.8585588,85.1795135 69.5762084,91.2102432 C66.5115711,92.4194798 63.3143676,93.0218476 60.1117594,93.0218476 Z" id="Shape"></path>
            <path d="M33.9671802,76.6123355 C38.6798082,86.1241746 46.3619132,92.8627875 55.0433643,95.1002081 C61.9978341,96.8923859 69.0895194,95.6105714 75.0138149,91.4916215 C88.8431151,81.8763467 92.9085029,59.5507541 84.0765378,41.7239307 C79.3637587,32.2119401 71.6818048,25.4733272 63.0003537,23.2360581 C56.0467906,21.4437288 48.9543497,22.7255433 43.0300542,26.8444932 C29.200754,36.4596165 25.1352151,58.7852091 33.9671802,76.6123355 Z M61.1984176,96.1680335 C59.1338377,96.1680335 57.0485546,95.9040681 54.9744543,95.3694739 C46.2145727,93.1120629 38.4671845,86.3202935 33.7187415,76.735913 C24.8276891,58.7902068 28.9338789,36.3065076 42.8719843,26.6161169 C48.8636786,22.4502197 56.0365146,21.1541696 63.0694148,22.9666408 C71.8291453,25.2240518 79.5765335,32.0158212 84.3249765,41.6003531 C93.2158778,59.5457565 89.1099902,82.0294557 75.1718848,91.7201492 C70.9473693,94.6573884 66.1345498,96.1680335 61.1984176,96.1680335 Z" id="Shape"></path>
            <path d="M55.232204,20.2901811 C48.7019437,20.2901811 42.6246078,23.1148178 37.9959114,28.3356343 C26.3519779,41.4695819 26.6095937,66.1361381 38.5703047,83.3215023 C44.9894308,92.5448338 53.7849126,98.1389983 62.7017135,98.6696491 C69.7431614,99.0879624 76.3480105,96.2457634 81.2963303,90.6644678 C92.9402637,77.5306715 92.6827977,52.8641153 80.7220867,35.6785997 C74.3031104,26.4552683 65.5076286,20.8612552 56.5908277,20.330453 C56.1359561,20.3035041 55.6828818,20.2901811 55.232204,20.2901811 Z M64.0612358,99 C63.6044171,99 63.1458012,98.9865256 62.6847887,98.9589711 C53.6803685,98.4231728 44.8053553,92.7843458 38.3356047,83.4883432 C26.3027014,66.1989684 26.0545215,41.3707189 37.7824797,28.1422987 C42.790111,22.4937823 49.474791,19.6163076 56.6077524,20.041131 C65.6120229,20.5770807 74.4870361,26.2159077 80.9567867,35.5119103 C92.98969,52.8012851 93.2378699,77.6295346 81.5097619,90.8579547 C76.8257979,96.1414501 70.673424,99 64.0612358,99 Z" id="Shape"></path>
            <path d="M51.999921,18.4469999 C51.0102738,18.4469999 50.0278393,18.5102866 49.0548716,18.6382162 C41.903446,19.5781749 35.8297231,23.989863 31.9524279,31.06095 C22.9691183,47.4436252 27.8943636,73.5918954 42.9318617,89.3499907 C50.8893102,97.688922 60.493516,101.808888 69.2811803,100.654207 C76.4326059,99.7143988 82.506479,95.3025601 86.3837742,88.231473 C95.3669336,71.8487979 90.4416883,45.7005277 75.4043405,29.942583 C68.3277471,22.526734 59.9486541,18.4469999 51.999921,18.4469999 Z M66.3365817,101.146186 C58.3050524,101.146186 49.8494744,97.0343563 42.7150289,89.5579328 C27.5936827,73.7119895 22.6478511,47.4053518 31.6896139,30.9159933 C35.6140924,23.7588664 41.7671554,19.2926312 49.0159529,18.3398645 C57.8996367,17.1719229 67.5968567,21.3256422 75.6211733,29.7344902 C90.7422189,45.5804336 95.6882008,71.8870713 86.6465882,88.3765805 C82.7221097,95.5335567 76.5687462,99.9999426 69.320099,100.952559 C68.3348095,101.081995 67.3385507,101.146186 66.3365817,101.146186 Z" id="Shape"></path>
            <path d="M48.9998056,16.461259 C46.6316806,16.461259 44.3356621,16.8128848 42.1577726,17.5278017 C34.9881866,19.8817706 29.6392551,25.968336 27.0963352,34.6662647 C21.4072584,54.1255186 31.1951689,81.152984 48.9152565,94.9151726 C58.0026385,101.97314 67.9397093,104.469517 76.178452,101.764377 C83.348038,99.4104078 88.6968195,93.3238424 91.2397394,84.6260652 C96.9289662,65.1666598 87.1410557,38.1391945 69.420968,24.3770058 C62.7357406,19.1850334 55.5901402,16.461259 48.9998056,16.461259 Z M69.3373184,103.146186 C62.6772758,103.146186 55.4663147,100.400747 48.725021,95.1651436 C30.9113896,81.3303876 21.0747584,54.1505157 26.7971152,34.5768811 C29.370167,25.7763886 34.7910552,19.6151349 42.0613806,17.2279881 C50.3996633,14.4905789 60.4409214,17.0049837 69.6112036,24.1270348 C87.4248349,37.9619423 97.2614661,65.1416627 91.5388095,84.7152973 C88.9660575,93.5157898 83.5451693,99.6770435 76.274844,102.06419 C74.0662229,102.789409 71.7370744,103.146186 69.3373184,103.146186 Z" id="Shape"></path>
            <path d="M45.9473155,15.4729889 C42.0768711,15.4729889 38.4501628,16.3345857 35.2023643,18.0689064 C28.0206169,21.904591 23.567746,29.6442263 22.6640174,39.862193 C20.7366576,61.6584869 35.5749236,88.2498001 55.7413634,99.1383988 C65.7773329,104.557286 75.5054571,105.297538 83.1337012,101.223373 C90.3155998,97.3878386 94.7683194,89.6480529 95.6720481,79.4302366 C97.5994078,57.6337923 82.7611418,31.0424791 62.5948533,20.1538804 C56.8315229,17.0420574 51.1682877,15.4729889 45.9473155,15.4729889 Z M72.3893547,104.146186 C67.1133454,104.146186 61.3982482,102.564035 55.5847191,99.4251466 C35.314253,88.4801607 20.3994793,61.7475035 22.3374231,39.8336234 C23.2508286,29.5024312 27.7646335,21.6707719 35.047232,17.7815571 C42.7766295,13.6537114 52.6152817,14.394414 62.7514976,19.8671326 C83.0219636,30.8121185 97.9365862,57.5447757 95.9986423,79.4588061 C95.0850856,89.7899983 90.5714319,97.6216576 83.2888335,101.510872 C79.9926506,103.271206 76.3122659,104.146186 72.3893547,104.146186 Z" id="Shape"></path>
            <path d="M43.2696979,14.4884734 C37.7049905,14.4884734 32.7409253,16.088758 28.7495363,19.2518617 C21.8061058,24.7544354 18.6030316,34.25553 19.7299696,46.0046972 C22.0095807,69.7729938 41.585612,95.2062329 63.3679614,102.699456 C73.6490123,106.236156 82.9602465,105.291817 89.5865753,100.040624 C96.5297048,94.5380503 99.73308,85.0369557 98.606142,73.2877885 C96.3263804,49.5193408 76.7504996,24.0861017 54.9679997,16.5928786 C50.8798398,15.1864168 46.9433831,14.4884734 43.2696979,14.4884734 Z M75.0680692,105.146186 C71.3557057,105.146186 67.3838817,104.4422 63.2576455,103.022746 C41.3607662,95.4902445 21.682245,69.9267831 19.3908949,46.0374794 C18.252519,34.1686647 21.501345,24.5606126 28.538687,18.9835613 C35.2587767,13.6577395 44.6837883,12.6937618 55.0783156,16.2695888 C76.9750444,23.8020901 96.6537161,49.3657026 98.9452167,73.2550063 C100.083442,85.123821 96.8347666,94.731722 89.7974246,100.308773 C85.744933,103.52037 80.7072737,105.146186 75.0680692,105.146186 Z" id="Shape"></path>
            <path d="M41.5695096,13.3794218 C33.805195,13.3794218 27.2417342,16.053182 22.7312582,21.145236 C16.333188,28.3682978 14.6554604,39.8564056 18.1282118,52.6639684 C24.8962626,77.6258819 48.9878155,100.757256 71.8317772,104.227568 C82.0317216,105.77658 90.7099816,103.174035 96.2688865,96.8984411 C102.666957,89.6753793 104.344684,78.1872716 100.871782,65.3797088 C94.1034299,40.4177952 70.0123293,17.2865725 47.1683676,13.8161087 C45.2445894,13.5241255 43.3741824,13.3794218 41.5695096,13.3794218 Z M77.4330474,105.021848 C75.609378,105.021848 73.7217837,104.875932 71.7787074,104.580918 C48.8082528,101.091363 24.5868901,77.8437708 17.7850677,52.7579121 C14.2802031,39.8317074 15.986124,28.2225335 22.465608,20.9076492 C28.1072836,14.5387179 36.8995229,11.8949591 47.2214373,13.462759 C70.1917412,16.9523146 94.4131039,40.1999063 101.214926,65.285765 C104.719791,78.2119697 103.01387,89.8209922 96.5345368,97.1360279 C91.9550099,102.306116 85.2983754,105.021848 77.4330474,105.021848 Z" id="Shape"></path>
            <path d="M79.710271,104.75544 L79.7185638,104.941168 L79.710271,104.75544 C89.4978329,104.307154 97.3038787,100.105148 101.690445,92.9233361 C107.25624,83.8108977 106.944131,70.8350878 100.834331,57.322665 C89.4507904,32.1464722 61.4185642,12.5241027 38.3334941,13.5805406 C28.5459322,14.0288272 20.7398865,18.2308334 16.3530191,25.4126449 C10.7875249,34.5249321 11.0993325,47.5008932 17.2092837,61.013316 C28.5929748,86.18966 56.6309305,105.813542 79.710271,104.75544 Z M77.9191867,105.168033 C55.0643537,105.168033 28.0170053,85.8162391 16.8715424,61.1669797 C10.7101762,47.5403678 10.4060582,34.4376644 16.0369897,25.2184478 C20.4898976,17.9280434 28.4022414,13.6629684 38.3167578,13.2090858 C61.5296871,12.145842 89.7312363,31.8665199 101.172072,57.1690013 C107.333438,70.7954619 107.637707,83.8983166 102.006775,93.1175331 C97.5538676,100.407938 89.6415238,104.673013 79.7270073,105.126895 C79.1276673,105.154422 78.5247086,105.168033 77.9191867,105.168033 Z" id="Shape"></path>
            <path d="M40.8436973,13.4069779 C37.2294821,13.4069779 33.7304243,13.8236352 30.420521,14.6939894 C21.1089687,17.1428338 14.5200323,22.7671028 11.3662951,30.9587427 C7.11833627,41.9918465 9.78042275,56.1111775 18.669782,69.6962317 C34.6892112,94.1775701 66.0498368,109.274292 88.5793628,103.349776 C97.8909152,100.900931 104.479852,95.2768136 107.63374,87.0850225 C111.881699,76.0519187 109.219612,61.9325877 100.330102,48.3475335 C86.6642101,27.4626613 61.8316888,13.4069779 40.8436973,13.4069779 Z M78.1728322,105.021848 C57.0521298,105.021848 32.0811473,90.9000977 18.3451927,69.9084911 C9.38652716,56.2177608 6.71097288,41.9705299 11.0041775,30.8195042 C14.2045224,22.5069187 20.884707,16.8011627 30.3220093,14.3193607 C52.9996812,8.35447886 84.5508233,23.5251288 100.654691,48.1352741 C109.613357,61.8260045 112.289062,76.0733866 107.995858,87.224261 C104.795361,95.5368465 98.1153282,101.242754 88.6780258,103.724556 C85.3436082,104.601411 81.813529,105.021848 78.1728322,105.021848 Z" id="Shape"></path>
            <path d="M42.5845934,13.4177953 C35.2571569,13.4177953 28.3599174,14.8710303 22.4607652,17.9423808 C13.9661921,22.3648187 8.5999389,29.5055281 6.9418627,38.5924592 C4.61879888,51.3237608 9.9002245,65.9737537 21.4317764,78.7859911 C36.1128551,95.0978772 57.6616351,104.62469 76.4153464,104.625894 C83.7426315,104.625894 90.6400225,103.172659 96.5390232,100.101308 C105.033748,95.6788703 110.400152,88.5381609 112.058077,79.4513802 C114.381292,66.7200787 109.099867,52.0700857 97.5683149,39.2576979 C82.8872362,22.9458118 61.3383047,13.4177953 42.5845934,13.4177953 Z M76.4289794,105.021848 C57.5545403,105.021848 35.8866987,95.4500535 21.1297296,79.0539219 C9.51471345,66.1487136 4.1979935,51.3749098 6.54347604,38.5208506 C8.22457687,29.3074007 13.6638424,22.0683046 22.2727812,17.5861427 C43.423629,6.57420169 77.336786,16.1757826 97.8703617,38.9897671 C109.485378,51.8951258 114.802098,66.6690801 112.456464,79.5229889 C110.775514,88.7364387 105.336097,95.9753844 96.7271586,100.457546 L96.6330909,100.279427 L96.7271586,100.457546 C90.7771099,103.555224 83.8168556,105.021848 76.4289794,105.021848 Z" id="Shape"></path>
            <path d="M45.9583356,12.4362951 C34.2579605,12.4362951 23.447382,15.7678054 15.6037945,22.6291717 C8.15851114,29.1422237 4.29180359,37.9299005 4.42196641,48.0421992 C4.60353302,62.1654023 12.5415112,76.7678398 26.2003407,88.10589 C50.404914,108.197753 85.0348378,111.476351 103.396213,95.4144409 L103.53359,95.573329 L103.396213,95.4144409 C110.841496,88.9013888 114.708053,80.1138632 114.578041,70.0015645 C114.396474,55.8785126 106.458346,41.2759239 92.7995161,29.9377225 C78.9346204,18.4288412 61.6473143,12.4362951 45.9583356,12.4362951 Z M73.0424231,106.021848 C57.2537931,106.021848 39.8716455,100.000427 25.9338527,88.4306204 C12.179881,77.0138065 4.18629054,62.2946595 4.00322089,48.0474904 C3.87140473,37.8077486 7.78786274,28.9082001 15.3290397,22.3113954 C33.8378622,6.120228 68.7103759,9.39550011 93.0661545,29.6129921 C106.820126,41.0299573 114.813717,55.7491042 114.996786,69.9962733 C115.128452,80.2360151 111.212144,89.1354124 103.670967,95.7322171 C95.7541821,102.657834 84.8435015,106.021848 73.0424231,106.021848 Z" id="Shape"></path>
            <path d="M50.2984236,11.4336023 C33.5519498,11.4336023 18.2127783,17.7741827 9.49857371,29.8994009 C3.24171905,38.6048481 1.15911691,49.0335969 3.47576673,60.0582356 C6.56151656,74.7435336 17.1028614,88.3473964 32.3964902,97.3817663 C44.0092969,104.241809 56.8712125,107.566461 68.9940381,107.566461 C85.7405118,107.566461 101.079683,101.225881 109.793737,89.1006626 C116.050592,80.3952154 118.133194,69.9666173 115.816544,58.9419787 C112.730794,44.2566807 102.1896,30.652667 86.8958207,21.6182971 C75.2831648,14.758254 62.4210984,11.4336023 50.2984236,11.4336023 Z M68.9857438,108 C56.7858575,108 43.8524608,104.657862 32.1734512,97.7587763 C16.7742597,88.6619985 6.15796526,74.9536702 3.04703119,60.1483803 C0.737921556,49.1593172 2.90256103,38.3259723 9.14267646,29.6435889 C24.2940972,8.56208603 59.2736698,4.79243897 87.1188597,21.2412872 C102.518051,30.338065 113.134346,44.046544 116.24543,58.8519847 C118.554389,69.8407463 116.38975,80.6740912 110.149634,89.3564746 L109.971686,89.228644 L110.149634,89.3564746 C101.353242,101.595655 85.8726161,108 68.9857438,108 Z" id="Shape"></path>
            <path d="M54.3917285,8.47578218 C32.498569,8.47578218 12.6393743,19.397216 4.8070309,37.8979924 C0.195056767,48.791936 0.347641719,61.1407588 5.23652372,72.6693813 C11.3027903,86.9739163 23.9924464,98.7368818 40.0522006,104.941863 C70.2124579,116.594717 103.471618,105.471087 114.193003,80.1458232 C118.804827,69.2518797 118.652242,56.9030568 113.76336,45.3744344 C107.697094,31.0698993 95.0072872,19.3069339 78.9476834,13.1019527 C70.8203925,9.96205738 62.4674562,8.47578218 54.3917285,8.47578218 Z M64.6024429,110.021848 C56.4730474,110.021848 48.067195,108.526259 39.8878899,105.366234 C23.7141856,99.1170882 10.9313249,87.2642913 4.81710301,72.8467909 C-0.120185247,61.2040014 -0.27261987,48.7291441 4.38776053,37.720733 C15.2038539,12.1714909 48.7241371,0.936848743 79.1119941,12.6777318 C95.2856983,18.9267274 108.068559,30.7795243 114.182631,45.1970247 C119.12022,56.8399645 119.272654,69.3146716 114.612274,80.3232329 C106.707471,98.9955603 86.6752468,110.021848 64.6024429,110.021848 Z" id="Shape"></path>
            <path d="M57.6384122,4.49891235 C30.3645755,4.49891235 6.40397664,22.12165 1.41459999,47.7484191 C-1.35858735,61.9919421 2.07419095,76.5560433 11.080127,88.7581084 C20.0906026,100.966368 33.6001877,109.348234 49.1201709,112.36034 C53.2414417,113.159973 57.3442518,113.544757 61.3714035,113.544757 C88.6453915,113.546117 112.60599,95.9220195 117.595367,70.2952504 C123.321506,40.8843892 101.920738,11.8997068 69.8896447,5.6834806 C65.7683739,4.88369686 61.6657151,4.49891235 57.6384122,4.49891235 Z M61.3711008,114.021848 C57.3111134,114.021848 53.1836386,113.634797 49.029078,112.828517 C33.3909162,109.79375 19.777225,101.345865 10.6954791,89.0410693 C1.6091937,76.7303822 -1.85339406,62.0334873 0.945668488,47.6573217 C6.72204506,17.9882758 37.6905898,-1.05138135 69.9807376,5.21515238 C102.270583,11.481535 123.840675,40.7171507 118.064298,70.3863477 L117.829908,70.3408746 L118.064298,70.3863477 C113.031191,96.2382165 88.8658604,114.021848 61.3711008,114.021848 Z" id="Shape"></path>
            <path d="M59.6464122,0.496752547 C27.1117953,0.496752547 0.643089926,26.9655752 0.643089926,59.5 C0.643089926,92.0344248 27.1117953,118.503247 59.6464122,118.503247 C92.1808782,118.503247 118.649433,92.0344248 118.649433,59.5 C118.649433,26.9655752 92.1808782,0.496752547 59.6464122,0.496752547 Z M59.6464122,119 C26.8379171,119 0.146185852,92.3084535 0.146185852,59.5 C0.146185852,26.6915465 26.8379171,0 59.6464122,0 C92.4547564,0 119.146186,26.6915465 119.146186,59.5 C119.146186,92.3084535 92.4547564,119 59.6464122,119 Z" id="Shape"></path>
        </g>
    </g>
</svg>