<?xml version="1.0" encoding="UTF-8"?>
<svg width="1349px" height="271px" viewBox="0 0 1349 271" version="1.1" xmlns="http://www.w3.org/2000/svg" xmlns:xlink="http://www.w3.org/1999/xlink">
    <title>Artboard</title>
    <g id="Artboard" stroke="none" stroke-width="1" fill="none" fill-rule="evenodd">
        <rect id="Rectangle" fill="#595758" x="0" y="0" width="279" height="271"></rect>
        <g id="Group" transform="translate(346.000000, 31.440000)" fill="#48453E" fill-rule="nonzero">
            <g id="Gaultier" transform="translate(1.680000, 0.000000)">
                <path d="M16.608,35.04 C21.6,35.04 26.4,33.504 28.368,32.016 L28.368,18.48 L16.08,18.48 L15.312,23.136 L21.936,23.136 L21.936,28.56 C20.64,29.184 19.2,29.424 17.568,29.424 C11.04,29.424 7.584,25.008 7.584,19.104 C7.584,13.008 11.856,9.168 18.048,9.168 C21.504,9.168 24.912,10.32 26.976,11.664 L26.976,5.568 C24.432,4.464 21.456,3.84 18.192,3.84 C7.728,3.84 0,10.416 0,19.776 C0,28.848 6.48,35.04 16.608,35.04 Z" id="Path"></path>
                <path d="M51.216,30.576 C50.208,30.576 49.584,29.904 49.584,28.272 C49.584,26.784 49.968,23.136 49.968,21.36 C49.968,16.224 46.944,14.208 41.76,14.208 C38.64,14.208 36.336,14.976 34.32,16.464 L33.408,22.608 C35.904,20.16 37.824,19.248 40.128,19.248 C42.816,19.248 43.728,20.592 43.728,22.608 L43.728,23.76 C36.912,23.376 32.832,25.92 32.832,30.096 C32.832,33.264 35.232,35.04 38.352,35.04 C40.848,35.04 42.912,33.936 44.352,32.064 C44.928,33.456 46.368,34.56 48.768,34.56 C50.208,34.56 51.408,34.176 52.56,33.312 L53.184,29.856 C52.416,30.336 51.84,30.576 51.216,30.576 Z M40.464,30.912 C39.12,30.912 38.544,30.144 38.544,29.184 C38.544,27.456 40.32,26.208 43.728,26.496 L43.728,29.424 C42.864,30.336 41.664,30.912 40.464,30.912 Z" id="Shape"></path>
                <path d="M68.832,14.688 L68.832,27.84 C67.248,29.088 66.096,29.472 64.896,29.472 C63.312,29.472 62.4,28.704 62.4,26.688 L62.4,13.92 L55.536,15.744 L55.536,28.656 C55.536,32.832 57.6,35.04 61.824,35.04 C64.704,35.04 67.008,33.936 68.832,31.968 L68.832,35.088 L75.696,33.408 L75.696,14.688 L68.832,14.688 Z" id="Path"></path>
                <polygon id="Path" points="80.784 34.56 87.648 34.56 87.648 0 80.784 1.776"></polygon>
                <path d="M103.008,29.808 C101.472,29.808 100.656,28.992 100.656,26.496 L100.656,19.392 L105.888,19.392 L106.656,14.688 L100.656,14.688 L100.656,9.6 L93.84,11.376 L93.792,14.688 L90.432,14.688 L90.432,19.392 L93.792,19.392 L93.792,27.84 C93.792,33.36 97.104,35.04 100.608,35.04 C102.624,35.04 104.496,34.464 106.224,33.408 L107.04,28.224 C105.36,29.424 104.208,29.808 103.008,29.808 Z" id="Path"></path>
                <path d="M113.088,10.272 C115.248,10.272 116.976,8.592 116.976,6.432 C116.976,4.272 115.248,2.592 113.088,2.592 C110.976,2.592 109.248,4.272 109.248,6.432 C109.248,8.592 110.976,10.272 113.088,10.272 Z M109.68,34.56 L116.544,34.56 L116.544,13.92 L109.68,15.744 L109.68,34.56 Z" id="Shape"></path>
                <path d="M133.632,29.856 C130.32,29.856 127.68,28.176 127.152,24.864 L140.544,24.864 C141.552,16.848 136.8,14.208 131.856,14.208 C125.952,14.208 120.72,18 120.72,24.624 C120.72,31.584 126.192,35.04 131.952,35.04 C134.976,35.04 138.192,34.224 139.872,32.928 L140.688,27.456 C138.288,29.232 136.08,29.856 133.632,29.856 Z M131.376,18.288 C133.488,18.288 134.544,19.872 134.688,21.84 L127.248,21.84 C127.776,19.44 129.504,18.288 131.376,18.288 Z" id="Shape"></path>
                <path d="M156.624,14.16 C154.608,14.16 152.688,15.888 151.776,18.672 L151.776,13.92 L144.912,15.696 L144.912,34.56 L151.776,34.56 L151.776,24.096 C152.88,22.464 154.464,21.216 156.192,21.216 C156.96,21.216 157.536,21.6 158.496,22.08 L158.496,14.688 C158.064,14.352 157.44,14.16 156.624,14.16 Z" id="Path"></path>
            </g>
            <g id="Organetto" transform="translate(1.444000, 89.922000)">
                <path d="M14.022,0 C5.244,0 0,5.32 0,13.452 L0,13.49 C0,21.66 5.244,26.98 14.022,26.98 L19.988,26.98 C28.804,26.98 34.01,21.66 34.01,13.49 L34.01,13.452 C34.01,5.32 28.804,0 19.988,0 L14.022,0 Z M14.022,21.66 C8.74,21.66 5.776,18.43 5.776,13.49 L5.776,13.452 C5.776,8.55 8.74,5.32 14.022,5.32 L19.988,5.32 C25.308,5.32 28.234,8.55 28.234,13.452 L28.234,13.49 C28.234,18.43 25.308,21.66 19.988,21.66 L14.022,21.66 Z" id="Shape"></path>
                <path d="M67.304,26.638 L61.072,17.518 C64.872,16.226 66.658,13.338 66.658,9.462 L66.658,9.424 C66.658,3.952 63.162,0.342 55.714,0.342 L38.956,0.342 L38.956,26.638 L44.694,26.638 L44.694,18.316 L55.524,18.316 L60.844,26.638 L67.304,26.638 Z M55.714,5.51 C59.096,5.51 60.882,6.726 60.882,9.424 L60.882,9.462 C60.882,12.198 59.096,13.376 55.714,13.376 L44.694,13.376 L44.694,5.51 L55.714,5.51 Z" id="Shape"></path>
                <path d="M100.902,3.23 C98.356,0.912 94.974,0 90.566,0 L84.828,0 C75.746,0 70.502,5.358 70.502,13.452 L70.502,13.49 C70.502,21.622 75.67,26.98 84.22,26.98 L89.692,26.98 C93.416,26.98 96.19,26.03 97.786,23.75 L98.09,26.638 L101.586,26.638 L101.586,12.73 L89.198,12.73 L89.198,17.328 L96.684,17.328 L96.684,18.62 C96,20.71 93.378,21.66 90.072,21.66 L84.6,21.66 C79.318,21.66 76.278,18.354 76.278,13.49 L76.278,13.452 C76.278,8.55 79.356,5.32 84.828,5.32 L90.566,5.32 C93.606,5.32 95.848,5.928 97.596,7.486 L100.902,3.23 Z" id="Path"></path>
                <path d="M124.734,0.342 L118.692,0.342 L104.784,26.638 L111.016,26.638 L113.752,21.204 L129.674,21.204 L132.41,26.638 L138.642,26.638 L124.734,0.342 Z M127.242,16.264 L116.222,16.264 L121.732,5.852 L127.242,16.264 Z" id="Shape"></path>
                <polygon id="Path" points="166.578 17.86 148.186 0.342 142.866 0.342 142.866 26.638 148.566 26.638 148.566 9.12 166.996 26.638 172.316 26.638 172.316 0.342 166.578 0.342"></polygon>
                <polygon id="Path" points="178.82 0.342 178.82 26.638 203.406 26.638 203.406 21.394 184.558 21.394 184.558 16.112 201.468 16.112 201.468 10.944 184.558 10.944 184.558 5.586 203.406 5.586 203.406 0.342"></polygon>
                <polygon id="Path" points="206.946 0.342 206.946 5.814 217.738 5.814 217.738 26.638 223.59 26.638 223.59 5.814 234.344 5.814 234.344 0.342"></polygon>
                <polygon id="Path" points="236.402 0.342 236.402 5.814 247.194 5.814 247.194 26.638 253.046 26.638 253.046 5.814 263.8 5.814 263.8 0.342"></polygon>
                <path d="M279.956,0 C271.178,0 265.934,5.32 265.934,13.452 L265.934,13.49 C265.934,21.66 271.178,26.98 279.956,26.98 L285.922,26.98 C294.738,26.98 299.944,21.66 299.944,13.49 L299.944,13.452 C299.944,5.32 294.738,0 285.922,0 L279.956,0 Z M279.956,21.66 C274.674,21.66 271.71,18.43 271.71,13.49 L271.71,13.452 C271.71,8.55 274.674,5.32 279.956,5.32 L285.922,5.32 C291.242,5.32 294.168,8.55 294.168,13.452 L294.168,13.49 C294.168,18.43 291.242,21.66 285.922,21.66 L279.956,21.66 Z" id="Shape"></path>
            </g>
            <g id="LaFarge" transform="translate(0.000000, 168.960000)">
                <path d="M0,31.488 L0,33.6 L23.472,33.6 L28.368,24.864 L26.448,23.76 C23.376,28.896 20.208,30.528 15.936,30.528 C13.584,30.528 11.664,30.048 10.368,29.28 L15.504,5.232 C15.984,2.88 17.088,2.112 19.296,2.112 L19.392,0 L7.056,0 L6.288,2.112 C8.064,2.112 8.928,2.592 8.928,4.032 C8.928,4.368 8.88,4.752 8.784,5.232 L3.84,28.368 C3.36,30.768 2.208,31.488 0,31.488 Z" id="Path"></path>
                <path d="M36.672,34.176 C39.552,34.176 42.336,32.304 44.016,29.136 C43.968,29.424 43.968,29.712 43.968,30 C43.968,32.448 45.408,33.888 47.472,33.888 C49.536,33.888 51.552,32.448 52.992,30.24 L52.128,28.944 C51.408,30 50.64,30.528 49.968,30.528 C49.152,30.528 48.72,29.904 48.72,28.896 C48.72,28.128 48.96,26.928 49.44,24.912 L52.032,13.488 L51.744,13.248 L48.816,14.304 C47.568,13.344 45.792,12.528 43.44,12.528 C35.952,12.528 30.192,19.776 30.192,26.592 C30.192,31.536 33.264,34.176 36.672,34.176 Z M36.096,26.352 C36.096,21.552 39.408,15.792 43.536,15.792 C44.352,15.792 44.976,15.984 45.552,16.272 L43.92,23.424 C42.768,28.416 40.752,30.576 38.832,30.576 C37.248,30.576 36.096,29.184 36.096,26.352 Z" id="Shape"></path>
                <path d="M53.856,31.488 L53.856,33.6 L65.712,33.6 L66.528,31.488 C64.896,31.488 64.08,31.008 64.08,29.616 C64.08,29.28 64.128,28.848 64.224,28.368 L66.528,17.52 L71.712,17.52 C73.68,17.52 74.256,18.768 74.448,20.64 L76.464,19.68 L75.84,10.848 L73.776,10.848 C73.824,11.232 73.776,11.616 73.728,12 C73.536,13.44 72.768,14.448 71.136,14.448 L67.2,14.448 L69.6,3.12 L74.976,3.12 C78.816,3.12 80.688,4.272 81.648,7.776 L83.76,7.152 L82.656,0 L60.912,0 L60.096,2.112 C61.776,2.112 62.544,2.592 62.544,4.032 C62.544,4.368 62.496,4.752 62.4,5.232 L57.504,28.368 C56.976,30.768 55.872,31.488 53.856,31.488 Z" id="Path"></path>
                <path d="M85.584,34.176 C88.464,34.176 91.248,32.304 92.928,29.136 C92.88,29.424 92.88,29.712 92.88,30 C92.88,32.448 94.32,33.888 96.384,33.888 C98.448,33.888 100.464,32.448 101.904,30.24 L101.04,28.944 C100.32,30 99.552,30.528 98.88,30.528 C98.064,30.528 97.632,29.904 97.632,28.896 C97.632,28.128 97.872,26.928 98.352,24.912 L100.944,13.488 L100.656,13.248 L97.728,14.304 C96.48,13.344 94.704,12.528 92.352,12.528 C84.864,12.528 79.104,19.776 79.104,26.592 C79.104,31.536 82.176,34.176 85.584,34.176 Z M85.008,26.352 C85.008,21.552 88.32,15.792 92.448,15.792 C93.264,15.792 93.888,15.984 94.464,16.272 L92.832,23.424 C91.68,28.416 89.664,30.576 87.744,30.576 C86.16,30.576 85.008,29.184 85.008,26.352 Z" id="Shape"></path>
                <path d="M107.712,19.92 L104.544,33.6 L110.4,33.6 L112.704,23.376 C113.712,19.056 115.968,17.28 118.32,17.28 C119.232,17.28 119.952,17.568 120.48,17.808 L120.864,17.472 L120.864,12.912 C120.624,12.768 120.048,12.576 119.28,12.576 C116.976,12.576 114.672,14.4 113.28,17.616 L113.28,17.328 C113.28,14.592 111.984,12.816 109.68,12.816 C107.664,12.816 105.648,14.16 104.4,15.552 L104.832,17.04 C105.456,16.464 106.176,16.032 106.896,16.032 C107.616,16.032 108.048,16.56 108.048,17.568 C108.048,18.048 107.904,18.96 107.712,19.92 Z" id="Path"></path>
                <path d="M127.056,43.92 C132.576,43.92 138.24,39.36 140.16,31.056 L144.192,13.824 L143.856,13.68 L140.448,14.928 C139.008,13.584 136.992,12.528 134.4,12.528 C127.536,12.528 121.68,19.152 121.68,26.4 C121.68,31.2 124.704,34.176 128.4,34.176 C130.944,34.176 133.104,32.736 134.64,30.24 L133.728,34.032 C132.768,38.16 130.272,39.936 127.488,39.936 C125.664,39.936 123.84,39.168 122.688,37.776 L122.112,37.968 L122.112,42.48 C123.072,43.2 124.8,43.92 127.056,43.92 Z M127.68,26.448 C127.68,21.648 131.04,15.84 134.64,15.84 C136.08,15.84 137.04,16.704 137.472,17.52 L135.984,23.856 C134.976,28.464 132.576,30.576 130.56,30.576 C128.832,30.576 127.68,29.232 127.68,26.448 Z" id="Shape"></path>
                <path d="M154.848,34.224 C158.592,34.224 161.424,32.352 163.152,30.336 L161.712,28.656 C160.464,30 158.784,31.008 156.816,31.008 C154.272,31.008 152.4,29.28 152.016,26.256 C159.456,25.008 165.12,22.128 165.12,17.76 C165.12,14.784 162.48,12.576 158.4,12.576 C151.968,12.576 145.92,18.432 145.92,25.296 C145.92,30.432 149.424,34.224 154.848,34.224 Z M152.112,23.472 C152.688,19.728 155.232,15.648 158.064,15.648 C159.36,15.648 160.224,16.416 160.224,17.76 C160.224,20.016 157.92,22.272 152.112,23.472 Z" id="Shape"></path>
            </g>
            <g id="Roasted-endives-with" transform="translate(183.840000, 0.000000)">
                <path d="M15.216,24 C13.728,22.176 12.384,20.928 11.04,20.208 C16.224,18.96 18.816,15.936 18.816,11.952 C18.816,7.776 15.792,3.84 7.92,3.84 C5.616,3.84 2.208,4.176 0,4.56 L0,34.56 L3.552,34.56 L3.552,21.264 C6.576,21.264 8.544,21.456 12.096,25.776 L19.248,34.56 L23.856,34.56 L15.216,24 Z M3.552,7.152 C4.848,7.008 6.336,6.912 7.392,6.912 C13.392,6.912 14.928,9.888 14.928,12.432 C14.928,16.416 11.136,18.768 3.552,18.288 L3.552,7.152 Z" id="Shape"></path>
                <path d="M34.656,15.36 C29.328,15.36 24.912,19.488 24.912,25.2 C24.912,30.912 29.328,35.04 34.656,35.04 C40.032,35.04 44.4,30.912 44.4,25.2 C44.4,19.488 40.032,15.36 34.656,15.36 Z M34.896,32.208 C31.008,32.208 28.368,28.896 28.368,24.864 C28.368,21.216 30.768,18.24 34.416,18.24 C38.304,18.24 40.944,21.552 40.944,25.536 C40.944,29.232 38.592,32.208 34.896,32.208 Z" id="Shape"></path>
                <path d="M65.088,32.208 C63.696,32.208 62.88,31.2 62.88,28.848 C62.88,27.6 63.12,23.856 63.12,22.272 C63.12,17.04 60.528,15.36 56.448,15.36 C53.808,15.36 51.84,16.176 50.016,17.76 L49.44,21.552 C52.032,19.008 53.712,18.24 55.92,18.24 C58.992,18.24 59.76,19.968 59.76,22.56 L59.76,24.48 C53.184,24 48.96,26.4 48.96,30.528 C48.96,33.216 50.928,35.04 54.192,35.04 C56.592,35.04 58.8,33.984 60.24,32.016 C60.672,33.456 62.064,34.56 64.032,34.56 C65.136,34.56 66.048,34.272 66.96,33.6 L67.344,31.344 C66.528,31.872 65.856,32.208 65.088,32.208 Z M54.864,32.448 C53.136,32.448 52.272,31.44 52.272,30.096 C52.272,27.888 54.816,26.112 59.76,26.592 L59.76,29.856 C58.512,31.392 56.88,32.448 54.864,32.448 Z" id="Shape"></path>
                <path d="M75.6,35.04 C80.112,35.04 82.704,32.352 82.704,29.232 C82.704,23.232 73.2,24.24 73.2,20.64 C73.2,19.44 74.304,18 77.04,18 C79.008,18 80.592,18.72 82.128,19.728 L82.128,16.416 C80.88,15.744 79.248,15.36 77.28,15.36 C72.768,15.36 69.888,17.424 69.888,20.736 C69.888,27.216 79.296,25.584 79.296,29.712 C79.296,31.2 78.048,32.208 75.552,32.208 C73.056,32.208 71.328,31.248 68.928,29.328 L69.408,32.88 C70.8,33.984 72.864,35.04 75.6,35.04 Z" id="Path"></path>
                <path d="M95.76,32.208 C93.84,32.208 92.592,31.44 92.592,27.936 L92.592,18.576 L99.408,18.576 L99.792,15.84 L92.592,15.84 L92.592,11.184 L89.328,12.048 L89.28,15.84 L85.488,15.84 L85.488,18.576 L89.28,18.576 L89.28,28.848 C89.28,33.6 92.208,35.04 95.136,35.04 C97.008,35.04 98.544,34.32 100.08,33.408 L100.608,30.048 C98.544,31.584 97.056,32.208 95.76,32.208 Z" id="Path"></path>
                <path d="M113.904,31.968 C109.104,31.968 106.752,28.416 106.752,24.624 L106.752,24.576 L120.96,24.576 C121.152,18.096 117.792,15.36 113.184,15.36 C107.328,15.36 103.44,19.824 103.44,25.152 C103.44,30.672 107.568,35.04 113.712,35.04 C116.592,35.04 118.944,34.272 120.768,32.88 L121.296,29.328 C118.608,31.248 116.4,31.968 113.904,31.968 Z M112.8,18 C115.344,18 117.12,19.536 117.312,22.416 L107.04,22.416 C107.856,19.536 110.256,18 112.8,18 Z" id="Shape"></path>
                <path d="M140.64,0.864 L140.64,15.648 C139.488,15.456 138.384,15.36 137.376,15.36 C130.944,15.36 125.568,19.2 125.568,25.872 C125.568,31.296 129.216,35.04 134.352,35.04 C137.088,35.04 139.344,33.984 140.64,32.784 L140.64,35.28 L143.952,34.56 L143.952,0 L140.64,0.864 Z M140.64,29.904 C139.104,31.248 136.944,32.208 134.928,32.208 C131.232,32.208 129.024,29.184 129.024,25.632 C129.024,21.264 132.336,18.24 137.424,18.24 C138.48,18.24 139.536,18.336 140.64,18.624 L140.64,29.904 Z" id="Shape"></path>
                <path d="M169.2,31.968 C164.4,31.968 162.048,28.416 162.048,24.624 L162.048,24.576 L176.256,24.576 C176.448,18.096 173.088,15.36 168.48,15.36 C162.624,15.36 158.736,19.824 158.736,25.152 C158.736,30.672 162.864,35.04 169.008,35.04 C171.888,35.04 174.24,34.272 176.064,32.88 L176.592,29.328 C173.904,31.248 171.696,31.968 169.2,31.968 Z M168.096,18 C170.64,18 172.416,19.536 172.608,22.416 L162.336,22.416 C163.152,19.536 165.552,18 168.096,18 Z" id="Shape"></path>
                <path d="M192.288,15.36 C189.504,15.36 187.248,16.416 185.04,18.048 L185.04,15.072 L181.728,15.936 L181.728,34.56 L185.04,34.56 L185.04,21.12 C187.68,18.912 189.6,18.336 191.424,18.336 C193.92,18.336 195.456,19.584 195.456,22.8 L195.456,34.56 L198.768,34.56 L198.768,21.36 C198.768,17.088 195.888,15.36 192.288,15.36 Z" id="Path"></path>
                <path d="M219.216,0.864 L219.216,15.648 C218.064,15.456 216.96,15.36 215.952,15.36 C209.52,15.36 204.144,19.2 204.144,25.872 C204.144,31.296 207.792,35.04 212.928,35.04 C215.664,35.04 217.92,33.984 219.216,32.784 L219.216,35.28 L222.528,34.56 L222.528,0 L219.216,0.864 Z M219.216,29.904 C217.68,31.248 215.52,32.208 213.504,32.208 C209.808,32.208 207.6,29.184 207.6,25.632 C207.6,21.264 210.912,18.24 216,18.24 C217.056,18.24 218.112,18.336 219.216,18.624 L219.216,29.904 Z" id="Shape"></path>
                <path d="M230.496,9.12 C231.792,9.12 232.848,8.064 232.848,6.72 C232.848,5.376 231.792,4.368 230.496,4.368 C229.152,4.368 228.096,5.376 228.096,6.72 C228.096,8.064 229.152,9.12 230.496,9.12 Z M228.816,34.56 L232.128,34.56 L232.128,15.072 L228.816,15.936 L228.816,34.56 Z" id="Shape"></path>
                <polygon id="Path" points="251.808 15.84 245.952 29.568 239.712 15.84 236.016 15.84 244.656 34.8 246.816 34.8 255.216 15.84"></polygon>
                <path d="M268.896,31.968 C264.096,31.968 261.744,28.416 261.744,24.624 L261.744,24.576 L275.952,24.576 C276.144,18.096 272.784,15.36 268.176,15.36 C262.32,15.36 258.432,19.824 258.432,25.152 C258.432,30.672 262.56,35.04 268.704,35.04 C271.584,35.04 273.936,34.272 275.76,32.88 L276.288,29.328 C273.6,31.248 271.392,31.968 268.896,31.968 Z M267.792,18 C270.336,18 272.112,19.536 272.304,22.416 L262.032,22.416 C262.848,19.536 265.248,18 267.792,18 Z" id="Shape"></path>
                <path d="M286.56,35.04 C291.072,35.04 293.664,32.352 293.664,29.232 C293.664,23.232 284.16,24.24 284.16,20.64 C284.16,19.44 285.264,18 288,18 C289.968,18 291.552,18.72 293.088,19.728 L293.088,16.416 C291.84,15.744 290.208,15.36 288.24,15.36 C283.728,15.36 280.848,17.424 280.848,20.736 C280.848,27.216 290.256,25.584 290.256,29.712 C290.256,31.2 289.008,32.208 286.512,32.208 C284.016,32.208 282.288,31.248 279.888,29.328 L280.368,32.88 C281.76,33.984 283.824,35.04 286.56,35.04 Z" id="Path"></path>
                <polygon id="Path" points="332.256 15.84 327.36 29.568 321.552 16.32 318.144 16.32 319.2 18.768 314.352 29.568 308.928 15.84 305.328 15.84 312.768 34.8 314.928 34.8 320.688 22.176 326.208 34.8 328.368 34.8 335.616 15.84"></polygon>
                <path d="M341.136,9.12 C342.432,9.12 343.488,8.064 343.488,6.72 C343.488,5.376 342.432,4.368 341.136,4.368 C339.792,4.368 338.736,5.376 338.736,6.72 C338.736,8.064 339.792,9.12 341.136,9.12 Z M339.456,34.56 L342.768,34.56 L342.768,15.072 L339.456,15.936 L339.456,34.56 Z" id="Shape"></path>
                <path d="M357.168,32.208 C355.248,32.208 354,31.44 354,27.936 L354,18.576 L360.816,18.576 L361.2,15.84 L354,15.84 L354,11.184 L350.736,12.048 L350.688,15.84 L346.896,15.84 L346.896,18.576 L350.688,18.576 L350.688,28.848 C350.688,33.6 353.616,35.04 356.544,35.04 C358.416,35.04 359.952,34.32 361.488,33.408 L362.016,30.048 C359.952,31.584 358.464,32.208 357.168,32.208 Z" id="Path"></path>
                <path d="M376.032,15.36 C373.248,15.36 370.992,16.416 368.784,18.048 L368.784,0 L365.472,0.864 L365.472,34.56 L368.784,34.56 L368.784,21.12 C371.424,18.912 373.344,18.336 375.168,18.336 C377.664,18.336 379.2,19.584 379.2,22.8 L379.2,34.56 L382.512,34.56 L382.512,21.36 C382.512,17.088 379.632,15.36 376.032,15.36 Z" id="Path"></path>
                <path d="M413.136,32.208 C411.744,32.208 410.928,31.2 410.928,28.848 C410.928,27.6 411.168,23.856 411.168,22.272 C411.168,17.04 408.576,15.36 404.496,15.36 C401.856,15.36 399.888,16.176 398.064,17.76 L397.488,21.552 C400.08,19.008 401.76,18.24 403.968,18.24 C407.04,18.24 407.808,19.968 407.808,22.56 L407.808,24.48 C401.232,24 397.008,26.4 397.008,30.528 C397.008,33.216 398.976,35.04 402.24,35.04 C404.64,35.04 406.848,33.984 408.288,32.016 C408.72,33.456 410.112,34.56 412.08,34.56 C413.184,34.56 414.096,34.272 415.008,33.6 L415.392,31.344 C414.576,31.872 413.904,32.208 413.136,32.208 Z M402.912,32.448 C401.184,32.448 400.32,31.44 400.32,30.096 C400.32,27.888 402.864,26.112 407.808,26.592 L407.808,29.856 C406.56,31.392 404.928,32.448 402.912,32.448 Z" id="Shape"></path>
                <path d="M429.072,15.36 C426.288,15.36 424.032,16.416 421.824,18.048 L421.824,15.072 L418.512,15.936 L418.512,34.56 L421.824,34.56 L421.824,21.12 C424.464,18.912 426.384,18.336 428.208,18.336 C430.704,18.336 432.24,19.584 432.24,22.8 L432.24,34.56 L435.552,34.56 L435.552,21.36 C435.552,17.088 432.672,15.36 429.072,15.36 Z" id="Path"></path>
                <path d="M451.008,31.968 C446.928,31.968 444.384,29.088 444.384,24.96 C444.384,20.352 447.552,18.192 451.344,18.192 C452.928,18.192 455.232,18.672 456.96,19.728 L456.96,16.416 C455.568,15.792 453.696,15.36 451.728,15.36 C445.392,15.36 440.928,19.44 440.928,25.584 C440.928,31.584 445.2,35.04 450.72,35.04 C453.024,35.04 455.28,34.368 457.2,32.88 L457.728,29.328 C455.184,31.248 453.024,31.968 451.008,31.968 Z" id="Path"></path>
                <path d="M472.56,15.36 C469.776,15.36 467.52,16.416 465.312,18.048 L465.312,0 L462,0.864 L462,34.56 L465.312,34.56 L465.312,21.12 C467.952,18.912 469.872,18.336 471.696,18.336 C474.192,18.336 475.728,19.584 475.728,22.8 L475.728,34.56 L479.04,34.56 L479.04,21.36 C479.04,17.088 476.16,15.36 472.56,15.36 Z" id="Path"></path>
                <path d="M494.16,15.36 C488.832,15.36 484.416,19.488 484.416,25.2 C484.416,30.912 488.832,35.04 494.16,35.04 C499.536,35.04 503.904,30.912 503.904,25.2 C503.904,19.488 499.536,15.36 494.16,15.36 Z M494.4,32.208 C490.512,32.208 487.872,28.896 487.872,24.864 C487.872,21.216 490.272,18.24 493.92,18.24 C497.808,18.24 500.448,21.552 500.448,25.536 C500.448,29.232 498.096,32.208 494.4,32.208 Z" id="Shape"></path>
                <polygon id="Path" points="522.24 15.84 516.384 29.568 510.144 15.84 506.448 15.84 515.088 34.8 517.248 34.8 525.648 15.84"></polygon>
                <path d="M531.168,9.12 C532.464,9.12 533.52,8.064 533.52,6.72 C533.52,5.376 532.464,4.368 531.168,4.368 C529.824,4.368 528.768,5.376 528.768,6.72 C528.768,8.064 529.824,9.12 531.168,9.12 Z M529.488,34.56 L532.8,34.56 L532.8,15.072 L529.488,15.936 L529.488,34.56 Z" id="Shape"></path>
                <path d="M548.928,31.968 C544.128,31.968 541.776,28.416 541.776,24.624 L541.776,24.576 L555.984,24.576 C556.176,18.096 552.816,15.36 548.208,15.36 C542.352,15.36 538.464,19.824 538.464,25.152 C538.464,30.672 542.592,35.04 548.736,35.04 C551.616,35.04 553.968,34.272 555.792,32.88 L556.32,29.328 C553.632,31.248 551.424,31.968 548.928,31.968 Z M547.824,18 C550.368,18 552.144,19.536 552.336,22.416 L542.064,22.416 C542.88,19.536 545.28,18 547.824,18 Z" id="Shape"></path>
                <path d="M566.592,35.04 C571.104,35.04 573.696,32.352 573.696,29.232 C573.696,23.232 564.192,24.24 564.192,20.64 C564.192,19.44 565.296,18 568.032,18 C570,18 571.584,18.72 573.12,19.728 L573.12,16.416 C571.872,15.744 570.24,15.36 568.272,15.36 C563.76,15.36 560.88,17.424 560.88,20.736 C560.88,27.216 570.288,25.584 570.288,29.712 C570.288,31.2 569.04,32.208 566.544,32.208 C564.048,32.208 562.32,31.248 559.92,29.328 L560.4,32.88 C561.792,33.984 563.856,35.04 566.592,35.04 Z" id="Path"></path>
                <path d="M603.024,32.208 C601.632,32.208 600.816,31.2 600.816,28.848 C600.816,27.6 601.056,23.856 601.056,22.272 C601.056,17.04 598.464,15.36 594.384,15.36 C591.744,15.36 589.776,16.176 587.952,17.76 L587.376,21.552 C589.968,19.008 591.648,18.24 593.856,18.24 C596.928,18.24 597.696,19.968 597.696,22.56 L597.696,24.48 C591.12,24 586.896,26.4 586.896,30.528 C586.896,33.216 588.864,35.04 592.128,35.04 C594.528,35.04 596.736,33.984 598.176,32.016 C598.608,33.456 600,34.56 601.968,34.56 C603.072,34.56 603.984,34.272 604.896,33.6 L605.28,31.344 C604.464,31.872 603.792,32.208 603.024,32.208 Z M592.8,32.448 C591.072,32.448 590.208,31.44 590.208,30.096 C590.208,27.888 592.752,26.112 597.696,26.592 L597.696,29.856 C596.448,31.392 594.816,32.448 592.8,32.448 Z" id="Shape"></path>
                <path d="M618.96,15.36 C616.176,15.36 613.92,16.416 611.712,18.048 L611.712,15.072 L608.4,15.936 L608.4,34.56 L611.712,34.56 L611.712,21.12 C614.352,18.912 616.272,18.336 618.096,18.336 C620.592,18.336 622.128,19.584 622.128,22.8 L622.128,34.56 L625.44,34.56 L625.44,21.36 C625.44,17.088 622.56,15.36 618.96,15.36 Z" id="Path"></path>
                <path d="M645.888,0.864 L645.888,15.648 C644.736,15.456 643.632,15.36 642.624,15.36 C636.192,15.36 630.816,19.2 630.816,25.872 C630.816,31.296 634.464,35.04 639.6,35.04 C642.336,35.04 644.592,33.984 645.888,32.784 L645.888,35.28 L649.2,34.56 L649.2,0 L645.888,0.864 Z M645.888,29.904 C644.352,31.248 642.192,32.208 640.176,32.208 C636.48,32.208 634.272,29.184 634.272,25.632 C634.272,21.264 637.584,18.24 642.672,18.24 C643.728,18.24 644.784,18.336 645.888,18.624 L645.888,29.904 Z" id="Shape"></path>
                <path d="M675.168,15.36 C672.384,15.36 670.128,16.416 667.92,18.048 L667.92,0 L664.608,0.864 L664.608,34.56 L667.92,34.56 L667.92,21.12 C670.56,18.912 672.48,18.336 674.304,18.336 C676.8,18.336 678.336,19.584 678.336,22.8 L678.336,34.56 L681.648,34.56 L681.648,21.36 C681.648,17.088 678.768,15.36 675.168,15.36 Z" id="Path"></path>
                <path d="M703.152,32.208 C701.76,32.208 700.944,31.2 700.944,28.848 C700.944,27.6 701.184,23.856 701.184,22.272 C701.184,17.04 698.592,15.36 694.512,15.36 C691.872,15.36 689.904,16.176 688.08,17.76 L687.504,21.552 C690.096,19.008 691.776,18.24 693.984,18.24 C697.056,18.24 697.824,19.968 697.824,22.56 L697.824,24.48 C691.248,24 687.024,26.4 687.024,30.528 C687.024,33.216 688.992,35.04 692.256,35.04 C694.656,35.04 696.864,33.984 698.304,32.016 C698.736,33.456 700.128,34.56 702.096,34.56 C703.2,34.56 704.112,34.272 705.024,33.6 L705.408,31.344 C704.592,31.872 703.92,32.208 703.152,32.208 Z M692.928,32.448 C691.2,32.448 690.336,31.44 690.336,30.096 C690.336,27.888 692.88,26.112 697.824,26.592 L697.824,29.856 C696.576,31.392 694.944,32.448 692.928,32.448 Z" id="Shape"></path>
                <polygon id="Path" points="711.552 31.824 722.88 16.8 722.88 15.84 706.944 15.84 706.944 18.576 717.552 18.576 706.224 33.6 706.224 34.56 723.408 34.56 723.84 31.824"></polygon>
                <path d="M736.8,31.968 C732,31.968 729.648,28.416 729.648,24.624 L729.648,24.576 L743.856,24.576 C744.048,18.096 740.688,15.36 736.08,15.36 C730.224,15.36 726.336,19.824 726.336,25.152 C726.336,30.672 730.464,35.04 736.608,35.04 C739.488,35.04 741.84,34.272 743.664,32.88 L744.192,29.328 C741.504,31.248 739.296,31.968 736.8,31.968 Z M735.696,18 C738.24,18 740.016,19.536 740.208,22.416 L729.936,22.416 C730.752,19.536 733.152,18 735.696,18 Z" id="Shape"></path>
                <polygon id="Path" points="749.328 34.56 752.64 34.56 752.64 0 749.328 0.864"></polygon>
                <path d="M769.488,15.36 C766.704,15.36 764.448,16.416 762.24,18.048 L762.24,15.072 L758.928,15.936 L758.928,34.56 L762.24,34.56 L762.24,21.12 C764.88,18.912 766.8,18.336 768.624,18.336 C771.12,18.336 772.656,19.584 772.656,22.8 L772.656,34.56 L775.968,34.56 L775.968,21.36 C775.968,17.088 773.088,15.36 769.488,15.36 Z" id="Path"></path>
                <path d="M795.696,15.84 L795.696,29.28 C793.056,31.488 791.136,32.064 789.312,32.064 C787.056,32.064 785.52,30.864 785.52,27.6 L785.52,15.072 L782.208,15.936 L782.208,29.04 C782.208,33.312 785.088,35.04 788.448,35.04 C791.232,35.04 793.488,33.984 795.696,32.4 L795.696,35.04 L799.008,34.224 L799.008,15.84 L795.696,15.84 Z" id="Path"></path>
                <path d="M813.36,32.208 C811.44,32.208 810.192,31.44 810.192,27.936 L810.192,18.576 L817.008,18.576 L817.392,15.84 L810.192,15.84 L810.192,11.184 L806.928,12.048 L806.88,15.84 L803.088,15.84 L803.088,18.576 L806.88,18.576 L806.88,28.848 C806.88,33.6 809.808,35.04 812.736,35.04 C814.608,35.04 816.144,34.32 817.68,33.408 L818.208,30.048 C816.144,31.584 814.656,32.208 813.36,32.208 Z" id="Path"></path>
            </g>
            <g id="Inquire-about-cateri" transform="translate(182.576000, 166.992000)">
                <path d="M0,34.176 L0,35.568 L9.072,35.568 L9.552,34.176 C7.824,34.176 7.008,33.84 7.008,32.64 C7.008,32.304 7.056,31.92 7.152,31.488 L12.576,6.048 C13.008,3.936 13.92,3.36 16.08,3.36 L16.08,1.968 L7.008,1.968 L6.528,3.36 C8.256,3.36 9.024,3.696 9.024,4.848 C9.024,5.184 8.976,5.568 8.88,6.048 L3.456,31.488 C3.024,33.6 2.112,34.176 0,34.176 Z" id="Path"></path>
                <path d="M33.024,35.856 C34.848,35.856 36.576,34.512 37.824,32.88 L37.152,32.016 C36.288,33.168 35.376,33.792 34.512,33.792 C33.744,33.792 33.264,33.168 33.264,32.064 C33.264,31.344 33.456,30.192 33.984,28.272 L35.52,22.416 C35.712,21.696 35.76,20.928 35.76,20.304 C35.76,16.896 33.504,14.976 30.528,14.976 C27.36,14.976 24.528,16.944 22.752,19.728 C22.8,19.344 22.848,18.96 22.848,18.672 C22.848,16.56 21.744,15.264 20.064,15.264 C18.384,15.264 16.608,16.512 15.456,17.856 L15.792,18.816 C16.608,17.952 17.568,17.28 18.48,17.28 C19.296,17.28 19.728,17.952 19.728,18.96 C19.728,19.44 19.584,20.112 19.392,21.024 L15.984,35.568 L19.296,35.568 L21.888,24.48 C22.896,20.208 26.16,17.184 29.184,17.184 C31.248,17.184 32.448,18.432 32.448,20.688 C32.448,21.264 32.352,21.888 32.16,22.608 L30.576,28.608 C30.144,30.288 29.952,31.488 29.952,32.448 C29.952,34.608 31.104,35.856 33.024,35.856 Z" id="Path"></path>
                <path d="M51.456,45.168 L54.768,45.168 L61.296,16.464 L61.056,16.368 L58.752,17.712 C57.552,16.224 55.632,14.976 52.944,14.976 C46.56,14.976 40.704,21.696 40.704,28.608 C40.704,33.456 43.728,36.144 47.232,36.144 C50.016,36.144 52.752,34.464 54.672,31.104 L51.456,45.168 Z M44.16,28.512 C44.16,23.04 48.336,16.992 52.848,16.992 C54.96,16.992 56.544,18.336 57.312,19.728 L56.208,24.288 C54.768,30.864 51.264,33.888 48.336,33.888 C46.08,33.888 44.16,32.016 44.16,28.512 Z" id="Shape"></path>
                <path d="M70.704,36.144 C73.92,36.144 76.848,34.128 78.624,31.296 C78.576,31.728 78.528,32.064 78.528,32.4 C78.528,34.368 79.632,35.856 81.504,35.856 C83.184,35.856 84.96,34.656 86.256,32.88 L85.536,32.016 C84.768,33.072 83.808,33.792 82.896,33.792 C82.08,33.792 81.696,33.12 81.696,32.016 C81.696,31.296 81.84,30.336 82.08,29.28 L85.344,15.552 L82.032,15.552 L79.44,26.592 C78.432,30.864 75.168,33.936 72.144,33.936 C70.08,33.936 68.88,32.688 68.88,30.576 C68.88,29.904 69.024,29.232 69.168,28.512 L70.848,22.464 C71.184,21.168 71.472,19.68 71.472,18.624 C71.472,16.416 70.224,15.168 68.544,15.168 C66.672,15.168 64.992,16.56 63.888,17.808 L64.272,18.72 C65.088,17.856 66.048,17.232 66.912,17.232 C67.728,17.232 68.16,17.904 68.16,18.864 C68.16,19.824 67.824,21.12 67.488,22.512 L65.856,28.704 C65.664,29.424 65.52,30.192 65.52,31.008 C65.52,34.224 67.728,36.144 70.704,36.144 Z" id="Path"></path>
                <path d="M93.36,35.808 C95.28,35.808 97.056,34.32 98.112,32.496 L97.392,31.68 C96.528,33.072 95.616,33.744 94.704,33.744 C93.888,33.744 93.456,33.072 93.456,32.016 C93.456,31.344 93.696,30.144 94.128,28.272 L97.296,15.648 L97.008,15.216 L90.528,17.04 L90.48,18.048 C90.72,17.952 91.248,17.856 91.68,17.856 C92.544,17.856 92.976,18.336 92.976,19.248 C92.976,19.584 92.928,19.968 92.832,20.352 L90.72,28.56 C90.288,30.24 90.096,31.44 90.096,32.352 C90.096,34.656 91.584,35.808 93.36,35.808 Z M94.32,8.304 C94.32,9.504 95.184,10.368 96.336,10.368 C97.728,10.368 98.88,9.168 98.88,7.68 C98.88,6.528 98.016,5.664 96.864,5.664 C95.568,5.664 94.32,6.768 94.32,8.304 Z" id="Shape"></path>
                <path d="M105.552,21.024 L102.192,35.568 L105.504,35.568 L108.048,24.48 C109.152,19.728 111.744,17.856 114.192,17.856 C115.248,17.856 115.968,18.144 116.448,18.432 L116.736,18.192 L116.736,15.456 C116.496,15.312 115.776,15.12 114.912,15.12 C112.8,15.12 110.4,16.464 108.768,19.584 C108.816,19.296 108.864,19.056 108.864,18.816 C108.864,16.608 107.712,15.264 106.032,15.264 C104.4,15.264 102.72,16.464 101.616,17.856 L102,18.816 C102.816,17.952 103.776,17.328 104.64,17.328 C105.456,17.328 105.84,17.952 105.84,18.96 C105.84,19.44 105.792,20.112 105.552,21.024 Z" id="Path"></path>
                <path d="M126.528,36.192 C129.888,36.192 132.672,34.464 134.208,32.64 L133.2,31.488 C131.856,32.976 129.888,34.176 127.488,34.176 C124.272,34.176 122.112,31.92 121.872,28.464 C130.992,26.592 136.128,23.328 136.128,19.536 C136.128,16.848 133.776,15.024 130.368,15.024 C124.224,15.024 118.416,21.312 118.416,27.84 C118.416,32.688 121.728,36.192 126.528,36.192 Z M121.872,26.64 C122.4,21.936 126.24,16.944 130.224,16.944 C132.048,16.944 133.152,18 133.152,19.584 C133.152,22.128 130.368,24.864 121.872,26.64 Z" id="Shape"></path>
                <path d="M155.616,36.144 C158.448,36.144 161.328,34.176 163.104,30.72 C163.008,31.44 162.912,32.016 162.912,32.544 C162.912,34.704 164.256,35.808 165.792,35.808 C167.52,35.808 169.2,34.464 170.4,32.496 L169.68,31.68 C168.768,33.12 167.856,33.744 167.04,33.744 C166.176,33.744 165.744,33.12 165.744,32.064 C165.744,31.2 166.032,29.76 166.608,27.168 L169.2,15.744 L169.008,15.6 L166.896,16.656 C165.888,15.84 164.256,14.976 161.952,14.976 C155.04,14.976 149.472,22.08 149.472,28.752 C149.472,33.552 152.4,36.144 155.616,36.144 Z M152.88,28.464 C152.88,23.184 156.816,16.992 162,16.992 C163.536,16.992 164.592,17.472 165.36,18.144 L164.016,24.096 C162.432,31.056 159.504,33.888 156.72,33.888 C154.512,33.888 152.88,32.016 152.88,28.464 Z" id="Shape"></path>
                <path d="M180.912,36.144 C187.968,36.144 193.152,29.424 193.152,22.848 C193.152,18.24 190.56,14.976 186.72,14.976 C184.128,14.976 181.392,16.512 179.376,20.064 L183.792,0.432 L183.456,0 L176.88,1.824 L176.832,2.88 C177.072,2.784 177.648,2.64 178.08,2.64 C178.944,2.64 179.568,3.168 179.568,4.08 C179.568,4.416 179.52,4.8 179.424,5.184 L174.096,28.416 C174,28.992 173.904,29.712 173.904,30.336 C173.904,33.744 176.832,36.144 180.912,36.144 Z M177.072,30.576 C177.072,30.144 177.168,29.616 177.264,29.136 L177.696,27.36 C179.328,20.16 182.784,17.232 185.568,17.232 C188.112,17.232 189.744,19.536 189.744,22.944 C189.744,28.176 186.096,34.128 181.296,34.128 C178.752,34.128 177.072,32.544 177.072,30.576 Z" id="Shape"></path>
                <path d="M205.056,36.144 C209.904,36.144 214.56,32.448 215.808,26.544 C216,25.68 216.048,24.768 216.048,23.952 C216.048,18.72 212.4,14.976 207.504,14.976 C202.656,14.976 198.096,18.768 196.896,24.576 C196.704,25.488 196.608,26.352 196.608,27.216 C196.608,32.448 200.16,36.144 205.056,36.144 Z M199.872,28.08 C199.872,27.168 199.968,26.16 200.256,24.912 C201.36,19.632 204.336,16.992 207.504,16.992 C210.48,16.992 212.784,19.2 212.784,23.088 C212.784,24 212.64,25.008 212.4,26.208 C211.296,31.488 208.272,34.128 205.104,34.128 C202.128,34.128 199.872,31.92 199.872,28.08 Z" id="Shape"></path>
                <path d="M226.368,36.144 C229.584,36.144 232.512,34.128 234.288,31.296 C234.24,31.728 234.192,32.064 234.192,32.4 C234.192,34.368 235.296,35.856 237.168,35.856 C238.848,35.856 240.624,34.656 241.92,32.88 L241.2,32.016 C240.432,33.072 239.472,33.792 238.56,33.792 C237.744,33.792 237.36,33.12 237.36,32.016 C237.36,31.296 237.504,30.336 237.744,29.28 L241.008,15.552 L237.696,15.552 L235.104,26.592 C234.096,30.864 230.832,33.936 227.808,33.936 C225.744,33.936 224.544,32.688 224.544,30.576 C224.544,29.904 224.688,29.232 224.832,28.512 L226.512,22.464 C226.848,21.168 227.136,19.68 227.136,18.624 C227.136,16.416 225.888,15.168 224.208,15.168 C222.336,15.168 220.656,16.56 219.552,17.808 L219.936,18.72 C220.752,17.856 221.712,17.232 222.576,17.232 C223.392,17.232 223.824,17.904 223.824,18.864 C223.824,19.824 223.488,21.12 223.152,22.512 L221.52,28.704 C221.328,29.424 221.184,30.192 221.184,31.008 C221.184,34.224 223.392,36.144 226.368,36.144 Z" id="Path"></path>
                <path d="M250.656,36.048 C253.2,36.048 255.408,34.368 256.752,32.496 L256.032,31.632 C254.88,33.12 253.296,33.936 252,33.936 C250.608,33.936 249.408,33.072 249.408,31.44 C249.408,31.056 249.504,30.624 249.552,30.288 L252.48,17.424 L259.392,17.424 L259.44,17.28 L259.44,15.552 L252.96,15.552 L254.112,10.368 L252.576,10.368 C251.328,14.352 249.408,15.936 246.624,16.176 L246.336,17.424 L249.216,17.424 L246.384,29.712 C246.192,30.48 246.144,31.056 246.144,31.584 C246.144,34.224 248.16,36.048 250.656,36.048 Z" id="Path"></path>
                <path d="M280.176,36.144 C283.536,36.144 286.368,34.32 288.192,31.728 L287.04,30.768 C285.6,32.784 283.488,34.128 281.04,34.128 C277.776,34.128 275.184,31.632 275.184,27.12 C275.184,21.984 278.544,17.136 283.056,17.136 C285.504,17.136 287.376,18.528 288.048,20.496 L289.296,20.4 L290.256,16.032 L289.008,16.032 C288.72,16.512 288.288,16.992 287.76,17.424 C286.608,16.08 284.784,15.024 282.384,15.024 C276.576,15.024 271.776,20.88 271.776,27.168 C271.776,32.592 275.52,36.144 280.176,36.144 Z" id="Path"></path>
                <path d="M298.512,36.144 C301.344,36.144 304.224,34.176 306,30.72 C305.904,31.44 305.808,32.016 305.808,32.544 C305.808,34.704 307.152,35.808 308.688,35.808 C310.416,35.808 312.096,34.464 313.296,32.496 L312.576,31.68 C311.664,33.12 310.752,33.744 309.936,33.744 C309.072,33.744 308.64,33.12 308.64,32.064 C308.64,31.2 308.928,29.76 309.504,27.168 L312.096,15.744 L311.904,15.6 L309.792,16.656 C308.784,15.84 307.152,14.976 304.848,14.976 C297.936,14.976 292.368,22.08 292.368,28.752 C292.368,33.552 295.296,36.144 298.512,36.144 Z M295.776,28.464 C295.776,23.184 299.712,16.992 304.896,16.992 C306.432,16.992 307.488,17.472 308.256,18.144 L306.912,24.096 C305.328,31.056 302.4,33.888 299.616,33.888 C297.408,33.888 295.776,32.016 295.776,28.464 Z" id="Shape"></path>
                <path d="M321.888,36.048 C324.432,36.048 326.64,34.368 327.984,32.496 L327.264,31.632 C326.112,33.12 324.528,33.936 323.232,33.936 C321.84,33.936 320.64,33.072 320.64,31.44 C320.64,31.056 320.736,30.624 320.784,30.288 L323.712,17.424 L330.624,17.424 L330.672,17.28 L330.672,15.552 L324.192,15.552 L325.344,10.368 L323.808,10.368 C322.56,14.352 320.64,15.936 317.856,16.176 L317.568,17.424 L320.448,17.424 L317.616,29.712 C317.424,30.48 317.376,31.056 317.376,31.584 C317.376,34.224 319.392,36.048 321.888,36.048 Z" id="Path"></path>
                <path d="M340.704,36.192 C344.064,36.192 346.848,34.464 348.384,32.64 L347.376,31.488 C346.032,32.976 344.064,34.176 341.664,34.176 C338.448,34.176 336.288,31.92 336.048,28.464 C345.168,26.592 350.304,23.328 350.304,19.536 C350.304,16.848 347.952,15.024 344.544,15.024 C338.4,15.024 332.592,21.312 332.592,27.84 C332.592,32.688 335.904,36.192 340.704,36.192 Z M336.048,26.64 C336.576,21.936 340.416,16.944 344.4,16.944 C346.224,16.944 347.328,18 347.328,19.584 C347.328,22.128 344.544,24.864 336.048,26.64 Z" id="Shape"></path>
                <path d="M357.504,21.024 L354.144,35.568 L357.456,35.568 L360,24.48 C361.104,19.728 363.696,17.856 366.144,17.856 C367.2,17.856 367.92,18.144 368.4,18.432 L368.688,18.192 L368.688,15.456 C368.448,15.312 367.728,15.12 366.864,15.12 C364.752,15.12 362.352,16.464 360.72,19.584 C360.768,19.296 360.816,19.056 360.816,18.816 C360.816,16.608 359.664,15.264 357.984,15.264 C356.352,15.264 354.672,16.464 353.568,17.856 L353.952,18.816 C354.768,17.952 355.728,17.328 356.592,17.328 C357.408,17.328 357.792,17.952 357.792,18.96 C357.792,19.44 357.744,20.112 357.504,21.024 Z" id="Path"></path>
                <path d="M374.304,35.808 C376.224,35.808 378,34.32 379.056,32.496 L378.336,31.68 C377.472,33.072 376.56,33.744 375.648,33.744 C374.832,33.744 374.4,33.072 374.4,32.016 C374.4,31.344 374.64,30.144 375.072,28.272 L378.24,15.648 L377.952,15.216 L371.472,17.04 L371.424,18.048 C371.664,17.952 372.192,17.856 372.624,17.856 C373.488,17.856 373.92,18.336 373.92,19.248 C373.92,19.584 373.872,19.968 373.776,20.352 L371.664,28.56 C371.232,30.24 371.04,31.44 371.04,32.352 C371.04,34.656 372.528,35.808 374.304,35.808 Z M375.264,8.304 C375.264,9.504 376.128,10.368 377.28,10.368 C378.672,10.368 379.824,9.168 379.824,7.68 C379.824,6.528 378.96,5.664 377.808,5.664 C376.512,5.664 375.264,6.768 375.264,8.304 Z" id="Shape"></path>
                <path d="M400.032,35.856 C401.856,35.856 403.584,34.512 404.832,32.88 L404.16,32.016 C403.296,33.168 402.384,33.792 401.52,33.792 C400.752,33.792 400.272,33.168 400.272,32.064 C400.272,31.344 400.464,30.192 400.992,28.272 L402.528,22.416 C402.72,21.696 402.768,20.928 402.768,20.304 C402.768,16.896 400.512,14.976 397.536,14.976 C394.368,14.976 391.536,16.944 389.76,19.728 C389.808,19.344 389.856,18.96 389.856,18.672 C389.856,16.56 388.752,15.264 387.072,15.264 C385.392,15.264 383.616,16.512 382.464,17.856 L382.8,18.816 C383.616,17.952 384.576,17.28 385.488,17.28 C386.304,17.28 386.736,17.952 386.736,18.96 C386.736,19.44 386.592,20.112 386.4,21.024 L382.992,35.568 L386.304,35.568 L388.896,24.48 C389.904,20.208 393.168,17.184 396.192,17.184 C398.256,17.184 399.456,18.432 399.456,20.688 C399.456,21.264 399.36,21.888 399.168,22.608 L397.584,28.608 C397.152,30.288 396.96,31.488 396.96,32.448 C396.96,34.608 398.112,35.856 400.032,35.856 Z" id="Path"></path>
                <path d="M412.512,45.888 C417.264,45.888 422.208,42.192 424.08,34.128 L428.112,16.464 L427.872,16.368 L425.616,17.712 C424.368,16.176 422.496,14.976 419.856,14.976 C413.568,14.976 407.76,21.504 407.76,28.608 C407.76,33.264 410.592,36.144 414.288,36.144 C417.072,36.144 419.664,34.416 421.584,30.912 L420.48,35.76 C419.136,41.28 416.208,43.488 412.944,43.488 C411.024,43.488 409.2,42.72 408.096,41.328 L407.712,41.472 L407.712,44.304 C408.672,45.12 410.352,45.888 412.512,45.888 Z M411.216,28.56 C411.216,22.896 415.392,16.992 419.952,16.992 C422.112,16.992 423.552,18.336 424.128,19.632 L423.072,24.288 C421.584,30.912 418.128,33.888 415.248,33.888 C412.848,33.888 411.216,31.968 411.216,28.56 Z" id="Shape"></path>
                <path d="M447.216,36.144 C450.048,36.144 452.928,34.176 454.704,30.72 C454.608,31.44 454.512,32.016 454.512,32.544 C454.512,34.704 455.856,35.808 457.392,35.808 C459.12,35.808 460.8,34.464 462,32.496 L461.28,31.68 C460.368,33.12 459.456,33.744 458.64,33.744 C457.776,33.744 457.344,33.12 457.344,32.064 C457.344,31.2 457.632,29.76 458.208,27.168 L460.8,15.744 L460.608,15.6 L458.496,16.656 C457.488,15.84 455.856,14.976 453.552,14.976 C446.64,14.976 441.072,22.08 441.072,28.752 C441.072,33.552 444,36.144 447.216,36.144 Z M444.48,28.464 C444.48,23.184 448.416,16.992 453.6,16.992 C455.136,16.992 456.192,17.472 456.96,18.144 L455.616,24.096 C454.032,31.056 451.104,33.888 448.32,33.888 C446.112,33.888 444.48,32.016 444.48,28.464 Z" id="Shape"></path>
                <path d="M482.496,35.856 C484.32,35.856 486.048,34.512 487.296,32.88 L486.624,32.016 C485.76,33.168 484.848,33.792 483.984,33.792 C483.216,33.792 482.736,33.168 482.736,32.064 C482.736,31.344 482.928,30.192 483.456,28.272 L484.992,22.416 C485.184,21.696 485.232,20.928 485.232,20.304 C485.232,16.896 482.976,14.976 480,14.976 C476.832,14.976 474,16.944 472.224,19.728 C472.272,19.344 472.32,18.96 472.32,18.672 C472.32,16.56 471.216,15.264 469.536,15.264 C467.856,15.264 466.08,16.512 464.928,17.856 L465.264,18.816 C466.08,17.952 467.04,17.28 467.952,17.28 C468.768,17.28 469.2,17.952 469.2,18.96 C469.2,19.44 469.056,20.112 468.864,21.024 L465.456,35.568 L468.768,35.568 L471.36,24.48 C472.368,20.208 475.632,17.184 478.656,17.184 C480.72,17.184 481.92,18.432 481.92,20.688 C481.92,21.264 481.824,21.888 481.632,22.608 L480.048,28.608 C479.616,30.288 479.424,31.488 479.424,32.448 C479.424,34.608 480.576,35.856 482.496,35.856 Z" id="Path"></path>
                <path d="M496.656,36.144 C499.632,36.144 502.272,34.32 504.096,30.96 C504,31.488 503.952,31.92 503.952,32.352 C503.952,34.368 505.104,35.808 507.024,35.808 C508.752,35.808 510.528,34.464 511.68,32.496 L510.96,31.68 C510.048,33.024 509.136,33.744 508.272,33.744 C507.456,33.744 506.976,33.168 506.976,32.064 C506.976,31.344 507.216,29.952 507.6,28.272 L514.032,0.432 L513.696,0 L507.072,1.824 L507.072,2.88 C507.36,2.736 507.936,2.64 508.32,2.64 C509.232,2.64 509.76,3.168 509.76,4.08 C509.76,4.416 509.712,4.704 509.616,5.184 L507.072,16.176 C505.824,15.408 504.288,14.976 502.752,14.976 C496.032,14.976 490.176,21.6 490.176,28.464 C490.176,33.216 492.912,36.144 496.656,36.144 Z M493.584,28.416 C493.584,22.944 497.808,16.992 502.8,16.992 C504.144,16.992 505.44,17.376 506.64,18.144 L505.2,24.336 C503.856,30.192 501.072,33.888 497.712,33.888 C495.312,33.888 493.584,31.92 493.584,28.416 Z" id="Shape"></path>
                <path d="M533.088,36.144 C537.168,36.144 540.24,33.408 540.24,30.048 C540.24,28.32 539.424,26.88 538.032,25.68 C536.016,24 533.376,23.328 531.792,22.032 C531.12,21.504 530.688,20.832 530.688,19.92 C530.688,18.192 532.368,16.992 534.528,16.992 C536.688,16.992 538.8,18.384 539.808,20.688 L541.008,20.544 L541.728,15.984 L540.528,15.984 C540.24,16.416 539.952,16.848 539.472,17.28 C538.368,16.128 536.64,14.976 534.336,14.976 C530.784,14.976 527.904,17.472 527.904,20.592 C527.904,22.08 528.576,23.52 530.064,24.72 C531.936,26.304 534.528,26.88 536.16,28.272 C537.12,29.136 537.504,29.952 537.504,30.864 C537.504,32.736 535.776,34.128 533.136,34.128 C530.352,34.128 526.992,32.592 525.648,28.464 L524.256,28.656 L524.256,34.896 L525.456,34.896 C525.792,34.32 526.128,33.792 526.56,33.36 C528.048,34.896 530.304,36.144 533.088,36.144 Z" id="Path"></path>
                <path d="M542.88,45.168 L546.192,45.168 L548.88,33.12 C549.888,34.992 552.096,36.144 554.592,36.144 C560.064,36.144 564.864,30.768 564.864,24.432 C564.864,18.576 560.784,14.976 555.792,14.976 C554.88,14.976 553.968,15.072 553.008,15.264 L553.776,11.904 L553.584,11.712 L550.368,12.48 L549.456,16.416 C548.016,17.088 546.624,17.904 545.376,18.816 L545.76,20.064 C546.816,19.344 547.92,18.72 549.072,18.192 L542.88,45.168 Z M549.792,30.048 C549.792,29.568 549.888,29.04 549.984,28.512 L552.576,17.088 C553.248,16.944 553.92,16.896 554.544,16.896 C558.624,16.896 561.456,19.728 561.456,24.384 C561.456,29.424 558.24,33.984 554.16,33.984 C551.664,33.984 549.792,32.352 549.792,30.048 Z" id="Shape"></path>
                <path d="M576.624,36.192 C579.984,36.192 582.768,34.464 584.304,32.64 L583.296,31.488 C581.952,32.976 579.984,34.176 577.584,34.176 C574.368,34.176 572.208,31.92 571.968,28.464 C581.088,26.592 586.224,23.328 586.224,19.536 C586.224,16.848 583.872,15.024 580.464,15.024 C574.32,15.024 568.512,21.312 568.512,27.84 C568.512,32.688 571.824,36.192 576.624,36.192 Z M571.968,26.64 C572.496,21.936 576.336,16.944 580.32,16.944 C582.144,16.944 583.248,18 583.248,19.584 C583.248,22.128 580.464,24.864 571.968,26.64 Z" id="Shape"></path>
                <path d="M598.032,36.144 C601.392,36.144 604.224,34.32 606.048,31.728 L604.896,30.768 C603.456,32.784 601.344,34.128 598.896,34.128 C595.632,34.128 593.04,31.632 593.04,27.12 C593.04,21.984 596.4,17.136 600.912,17.136 C603.36,17.136 605.232,18.528 605.904,20.496 L607.152,20.4 L608.112,16.032 L606.864,16.032 C606.576,16.512 606.144,16.992 605.616,17.424 C604.464,16.08 602.64,15.024 600.24,15.024 C594.432,15.024 589.632,20.88 589.632,27.168 C589.632,32.592 593.376,36.144 598.032,36.144 Z" id="Path"></path>
                <path d="M614.352,35.808 C616.272,35.808 618.048,34.32 619.104,32.496 L618.384,31.68 C617.52,33.072 616.608,33.744 615.696,33.744 C614.88,33.744 614.448,33.072 614.448,32.016 C614.448,31.344 614.688,30.144 615.12,28.272 L618.288,15.648 L618,15.216 L611.52,17.04 L611.472,18.048 C611.712,17.952 612.24,17.856 612.672,17.856 C613.536,17.856 613.968,18.336 613.968,19.248 C613.968,19.584 613.92,19.968 613.824,20.352 L611.712,28.56 C611.28,30.24 611.088,31.44 611.088,32.352 C611.088,34.656 612.576,35.808 614.352,35.808 Z M615.312,8.304 C615.312,9.504 616.176,10.368 617.328,10.368 C618.72,10.368 619.872,9.168 619.872,7.68 C619.872,6.528 619.008,5.664 617.856,5.664 C616.56,5.664 615.312,6.768 615.312,8.304 Z" id="Shape"></path>
                <path d="M628.56,36.144 C631.392,36.144 634.272,34.176 636.048,30.72 C635.952,31.44 635.856,32.016 635.856,32.544 C635.856,34.704 637.2,35.808 638.736,35.808 C640.464,35.808 642.144,34.464 643.344,32.496 L642.624,31.68 C641.712,33.12 640.8,33.744 639.984,33.744 C639.12,33.744 638.688,33.12 638.688,32.064 C638.688,31.2 638.976,29.76 639.552,27.168 L642.144,15.744 L641.952,15.6 L639.84,16.656 C638.832,15.84 637.2,14.976 634.896,14.976 C627.984,14.976 622.416,22.08 622.416,28.752 C622.416,33.552 625.344,36.144 628.56,36.144 Z M625.824,28.464 C625.824,23.184 629.76,16.992 634.944,16.992 C636.48,16.992 637.536,17.472 638.304,18.144 L636.96,24.096 C635.376,31.056 632.448,33.888 629.664,33.888 C627.456,33.888 625.824,32.016 625.824,28.464 Z" id="Shape"></path>
                <path d="M650.256,35.808 C652.224,35.808 654,34.32 655.008,32.496 L654.288,31.68 C653.376,33.072 652.464,33.744 651.6,33.744 C650.736,33.744 650.304,33.072 650.304,32.064 C650.304,31.296 650.496,30.24 650.976,28.272 L657.312,0.432 L657.024,0 L650.352,1.824 L650.352,2.88 C650.592,2.784 651.168,2.64 651.6,2.64 C652.464,2.64 653.088,3.168 653.088,4.08 C653.088,4.368 653.04,4.752 652.944,5.184 L647.568,28.656 C647.184,30.192 646.992,31.392 646.992,32.352 C646.992,34.704 648.528,35.808 650.256,35.808 Z" id="Path"></path>
                <path d="M676.848,36.192 C680.208,36.192 682.992,34.464 684.528,32.64 L683.52,31.488 C682.176,32.976 680.208,34.176 677.808,34.176 C674.592,34.176 672.432,31.92 672.192,28.464 C681.312,26.592 686.448,23.328 686.448,19.536 C686.448,16.848 684.096,15.024 680.688,15.024 C674.544,15.024 668.736,21.312 668.736,27.84 C668.736,32.688 672.048,36.192 676.848,36.192 Z M672.192,26.64 C672.72,21.936 676.56,16.944 680.544,16.944 C682.368,16.944 683.472,18 683.472,19.584 C683.472,22.128 680.688,24.864 672.192,26.64 Z" id="Shape"></path>
                <path d="M696.96,36.144 C702.432,36.144 709.728,28.08 709.728,20.256 C709.728,16.56 708,15.216 706.56,15.216 C705.888,15.216 705.072,15.648 704.688,16.128 L704.352,17.04 C704.544,16.944 704.88,16.8 705.168,16.8 C706.08,16.8 706.8,17.904 706.8,20.832 C706.8,27.696 701.856,33.936 698.208,33.936 C696.624,33.936 695.328,32.688 695.328,30.096 C695.328,27.12 696.864,21.792 696.864,18.576 C696.864,16.272 695.52,15.264 693.888,15.264 C692.016,15.264 690.48,16.608 689.328,17.856 L689.712,18.816 C690.576,17.904 691.488,17.328 692.4,17.328 C693.216,17.328 693.648,18 693.648,19.008 C693.648,21.888 692.112,26.736 692.112,30.384 C692.112,34.224 694.272,36.144 696.96,36.144 Z" id="Path"></path>
                <path d="M721.248,36.192 C724.608,36.192 727.392,34.464 728.928,32.64 L727.92,31.488 C726.576,32.976 724.608,34.176 722.208,34.176 C718.992,34.176 716.832,31.92 716.592,28.464 C725.712,26.592 730.848,23.328 730.848,19.536 C730.848,16.848 728.496,15.024 725.088,15.024 C718.944,15.024 713.136,21.312 713.136,27.84 C713.136,32.688 716.448,36.192 721.248,36.192 Z M716.592,26.64 C717.12,21.936 720.96,16.944 724.944,16.944 C726.768,16.944 727.872,18 727.872,19.584 C727.872,22.128 725.088,24.864 716.592,26.64 Z" id="Shape"></path>
                <path d="M751.584,35.856 C753.408,35.856 755.136,34.512 756.384,32.88 L755.712,32.016 C754.848,33.168 753.936,33.792 753.072,33.792 C752.304,33.792 751.824,33.168 751.824,32.064 C751.824,31.344 752.016,30.192 752.544,28.272 L754.08,22.416 C754.272,21.696 754.32,20.928 754.32,20.304 C754.32,16.896 752.064,14.976 749.088,14.976 C745.92,14.976 743.088,16.944 741.312,19.728 C741.36,19.344 741.408,18.96 741.408,18.672 C741.408,16.56 740.304,15.264 738.624,15.264 C736.944,15.264 735.168,16.512 734.016,17.856 L734.352,18.816 C735.168,17.952 736.128,17.28 737.04,17.28 C737.856,17.28 738.288,17.952 738.288,18.96 C738.288,19.44 738.144,20.112 737.952,21.024 L734.544,35.568 L737.856,35.568 L740.448,24.48 C741.456,20.208 744.72,17.184 747.744,17.184 C749.808,17.184 751.008,18.432 751.008,20.688 C751.008,21.264 750.912,21.888 750.72,22.608 L749.136,28.608 C748.704,30.288 748.512,31.488 748.512,32.448 C748.512,34.608 749.664,35.856 751.584,35.856 Z" id="Path"></path>
                <path d="M765.072,36.048 C767.616,36.048 769.824,34.368 771.168,32.496 L770.448,31.632 C769.296,33.12 767.712,33.936 766.416,33.936 C765.024,33.936 763.824,33.072 763.824,31.44 C763.824,31.056 763.92,30.624 763.968,30.288 L766.896,17.424 L773.808,17.424 L773.856,17.28 L773.856,15.552 L767.376,15.552 L768.528,10.368 L766.992,10.368 C765.744,14.352 763.824,15.936 761.04,16.176 L760.752,17.424 L763.632,17.424 L760.8,29.712 C760.608,30.48 760.56,31.056 760.56,31.584 C760.56,34.224 762.576,36.048 765.072,36.048 Z" id="Path"></path>
                <path d="M783.936,36.144 C788.016,36.144 791.088,33.408 791.088,30.048 C791.088,28.32 790.272,26.88 788.88,25.68 C786.864,24 784.224,23.328 782.64,22.032 C781.968,21.504 781.536,20.832 781.536,19.92 C781.536,18.192 783.216,16.992 785.376,16.992 C787.536,16.992 789.648,18.384 790.656,20.688 L791.856,20.544 L792.576,15.984 L791.376,15.984 C791.088,16.416 790.8,16.848 790.32,17.28 C789.216,16.128 787.488,14.976 785.184,14.976 C781.632,14.976 778.752,17.472 778.752,20.592 C778.752,22.08 779.424,23.52 780.912,24.72 C782.784,26.304 785.376,26.88 787.008,28.272 C787.968,29.136 788.352,29.952 788.352,30.864 C788.352,32.736 786.624,34.128 783.984,34.128 C781.2,34.128 777.84,32.592 776.496,28.464 L775.104,28.656 L775.104,34.896 L776.304,34.896 C776.64,34.32 776.976,33.792 777.408,33.36 C778.896,34.896 781.152,36.144 783.936,36.144 Z" id="Path"></path>
            </g>
        </g>
        <g id="Seasonal-patio-seati" transform="translate(677.634000, 122.362000)" fill="#48453E" fill-rule="nonzero">
            <path d="M26.22,5.472 C25.08,2.09 21.736,0 16.682,0 L10.412,0 C4.104,0 0.798,2.736 0.798,6.954 C0.798,10.146 2.66,12.806 7.638,13.718 L18.696,15.2 C22.192,15.884 23.674,17.404 23.674,19.836 C23.674,22.61 21.394,24.32 17.062,24.32 L10.564,24.32 C6.46,24.32 3.686,22.648 2.622,19.152 L0,20.71 C1.254,24.7 4.978,26.98 10.526,26.98 L17.024,26.98 C23.218,26.98 26.6,24.092 26.6,19.874 C26.6,16.34 24.852,13.49 19.57,12.578 L8.778,11.172 C5.054,10.488 3.762,8.892 3.762,6.878 C3.762,4.294 6.042,2.66 10.298,2.66 L16.606,2.66 C20.672,2.66 23.18,4.408 24.092,7.258 L26.22,5.472 Z" id="Path"></path>
            <polygon id="Path" points="32.458 0.342 32.458 26.638 56.056 26.638 56.056 23.902 35.46 23.902 35.46 14.934 54.536 14.934 54.536 12.236 35.46 12.236 35.46 3.078 56.056 3.078 56.056 0.342"></polygon>
            <path d="M77.266,0.342 L74.15,0.342 L59.71,26.638 L62.978,26.638 L66.626,19.912 L84.828,19.912 L88.476,26.638 L91.744,26.638 L77.266,0.342 Z M83.498,17.29 L67.956,17.29 L75.708,3.268 L83.498,17.29 Z" id="Shape"></path>
            <path d="M121.048,5.472 C119.908,2.09 116.564,0 111.51,0 L105.24,0 C98.932,0 95.626,2.736 95.626,6.954 C95.626,10.146 97.488,12.806 102.466,13.718 L113.524,15.2 C117.02,15.884 118.502,17.404 118.502,19.836 C118.502,22.61 116.222,24.32 111.89,24.32 L105.392,24.32 C101.288,24.32 98.514,22.648 97.45,19.152 L94.828,20.71 C96.082,24.7 99.806,26.98 105.354,26.98 L111.852,26.98 C118.046,26.98 121.428,24.092 121.428,19.874 C121.428,16.34 119.68,13.49 114.398,12.578 L103.606,11.172 C99.882,10.488 98.59,8.892 98.59,6.878 C98.59,4.294 100.87,2.66 105.126,2.66 L111.434,2.66 C115.5,2.66 118.008,4.408 118.92,7.258 L121.048,5.472 Z" id="Path"></path>
            <path d="M139.636,0 C131.01,0 125.766,5.206 125.766,13.452 L125.766,13.49 C125.766,21.774 131.01,26.98 139.636,26.98 L145.184,26.98 C153.848,26.98 159.092,21.774 159.092,13.49 L159.092,13.452 C159.092,5.206 153.848,0 145.184,0 L139.636,0 Z M139.636,24.168 C132.796,24.168 128.768,20.102 128.768,13.49 L128.768,13.452 C128.768,6.878 132.796,2.812 139.636,2.812 L145.184,2.812 C152.024,2.812 156.052,6.878 156.052,13.452 L156.052,13.49 C156.052,20.102 152.024,24.168 145.184,24.168 L139.636,24.168 Z" id="Shape"></path>
            <polygon id="Path" points="190.296 22.268 168.028 0.342 165.026 0.342 165.026 26.638 168.028 26.638 168.028 4.75 190.296 26.638 193.298 26.638 193.298 0.342 190.296 0.342"></polygon>
            <path d="M216.028,0.342 L212.912,0.342 L198.472,26.638 L201.74,26.638 L205.388,19.912 L223.59,19.912 L227.238,26.638 L230.506,26.638 L216.028,0.342 Z M222.26,17.29 L206.718,17.29 L214.47,3.268 L222.26,17.29 Z" id="Shape"></path>
            <polygon id="Path" points="235.68 0.342 235.68 26.638 259.468 26.638 259.468 23.75 238.72 23.75 238.72 0.342"></polygon>
            <path d="M277.264,0.342 L277.264,26.638 L280.266,26.638 L280.266,19.152 L293.262,19.152 C300.178,19.152 303.598,15.618 303.598,9.766 L303.598,9.728 C303.598,3.876 300.178,0.342 293.262,0.342 L277.264,0.342 Z M300.596,9.766 C300.596,14.022 298.202,16.302 293.262,16.302 L280.266,16.302 L280.266,3.154 L293.262,3.154 C298.202,3.154 300.596,5.51 300.596,9.728 L300.596,9.766 Z" id="Shape"></path>
            <path d="M323.25,0.342 L320.134,0.342 L305.694,26.638 L308.962,26.638 L312.61,19.912 L330.812,19.912 L334.46,26.638 L337.728,26.638 L323.25,0.342 Z M329.482,17.29 L313.94,17.29 L321.692,3.268 L329.482,17.29 Z" id="Shape"></path>
            <polygon id="Path" points="336.784 0.342 336.784 3.23 348.64 3.23 348.64 26.638 351.68 26.638 351.68 3.23 363.536 3.23 363.536 0.342"></polygon>
            <polygon id="Path" points="371.902 26.638 371.902 0.342 368.862 0.342 368.862 26.638"></polygon>
            <path d="M391.706,0 C383.08,0 377.836,5.206 377.836,13.452 L377.836,13.49 C377.836,21.774 383.08,26.98 391.706,26.98 L397.254,26.98 C405.918,26.98 411.162,21.774 411.162,13.49 L411.162,13.452 C411.162,5.206 405.918,0 397.254,0 L391.706,0 Z M391.706,24.168 C384.866,24.168 380.838,20.102 380.838,13.49 L380.838,13.452 C380.838,6.878 384.866,2.812 391.706,2.812 L397.254,2.812 C404.094,2.812 408.122,6.878 408.122,13.452 L408.122,13.49 C408.122,20.102 404.094,24.168 397.254,24.168 L391.706,24.168 Z" id="Shape"></path>
            <path d="M453.924,5.472 C452.784,2.09 449.44,0 444.386,0 L438.116,0 C431.808,0 428.502,2.736 428.502,6.954 C428.502,10.146 430.364,12.806 435.342,13.718 L446.4,15.2 C449.896,15.884 451.378,17.404 451.378,19.836 C451.378,22.61 449.098,24.32 444.766,24.32 L438.268,24.32 C434.164,24.32 431.39,22.648 430.326,19.152 L427.704,20.71 C428.958,24.7 432.682,26.98 438.23,26.98 L444.728,26.98 C450.922,26.98 454.304,24.092 454.304,19.874 C454.304,16.34 452.556,13.49 447.274,12.578 L436.482,11.172 C432.758,10.488 431.466,8.892 431.466,6.878 C431.466,4.294 433.746,2.66 438.002,2.66 L444.31,2.66 C448.376,2.66 450.884,4.408 451.796,7.258 L453.924,5.472 Z" id="Path"></path>
            <polygon id="Path" points="460.162 0.342 460.162 26.638 483.76 26.638 483.76 23.902 463.164 23.902 463.164 14.934 482.24 14.934 482.24 12.236 463.164 12.236 463.164 3.078 483.76 3.078 483.76 0.342"></polygon>
            <path d="M504.97,0.342 L501.854,0.342 L487.414,26.638 L490.682,26.638 L494.33,19.912 L512.532,19.912 L516.18,26.638 L519.448,26.638 L504.97,0.342 Z M511.202,17.29 L495.66,17.29 L503.412,3.268 L511.202,17.29 Z" id="Shape"></path>
            <polygon id="Path" points="518.504 0.342 518.504 3.23 530.36 3.23 530.36 26.638 533.4 26.638 533.4 3.23 545.256 3.23 545.256 0.342"></polygon>
            <polygon id="Path" points="553.622 26.638 553.622 0.342 550.582 0.342 550.582 26.638"></polygon>
            <polygon id="Path" points="586.346 22.268 564.078 0.342 561.076 0.342 561.076 26.638 564.078 26.638 564.078 4.75 586.346 26.638 589.348 26.638 589.348 0.342 586.346 0.342"></polygon>
            <path d="M625.112,3.002 C622.566,0.798 619.146,0 614.89,0 L609.456,0 C600.526,0 595.282,5.244 595.282,13.452 L595.282,13.49 C595.282,21.736 600.45,26.98 608.962,26.98 L614.282,26.98 C618.766,26.98 622.262,25.726 623.706,22.762 L623.896,26.638 L625.796,26.638 L625.796,13.566 L614.662,13.566 L614.662,16.036 L623.212,16.036 L623.212,18.886 C622.87,22.458 619.26,24.168 614.434,24.168 L609.114,24.168 C602.426,24.168 598.284,19.988 598.284,13.49 L598.284,13.452 C598.284,6.954 602.388,2.812 609.456,2.812 L614.89,2.812 C618.462,2.812 621.35,3.496 623.364,5.244 L625.112,3.002 Z" id="Path"></path>
        </g>
        <g id="Aa" transform="translate(45.888000, 81.068000)" fill="#FEFFF1" fill-rule="nonzero">
            <path d="M0,100.64 L0.74,104.932 L25.012,104.932 L25.752,100.64 C20.424,100.64 18.204,99.16 18.204,96.2 C18.204,94.572 18.796,93.24 19.388,91.76 L27.084,74.444 L75.48,74.444 L83.324,92.204 C83.916,93.536 84.36,94.868 84.36,96.2 C84.36,99.012 82.288,100.64 77.108,100.64 L77.848,104.932 L107.152,104.932 L107.892,100.64 C102.12,100.64 99.604,99.012 96.496,92.352 L55.056,0 L53.428,0 L11.544,91.76 C8.288,99.012 4.884,100.64 0,100.64 Z M29.748,68.376 L51.208,19.98 L72.816,68.376 L29.748,68.376 Z" id="Shape"></path>
            <path d="M175.107368,105.672 C179.843368,105.672 183.543368,103.008 185.911368,100.344 L184.135368,97.384 C182.951368,98.42 181.027368,99.752 178.807368,99.752 C175.995368,99.752 173.775368,97.532 173.775368,92.352 L173.775368,67.636 C173.775368,51.948 162.231368,41.44 147.727368,41.44 C139.439368,41.44 131.003368,44.844 124.491368,50.764 L126.711368,54.168 C132.039368,50.172 138.551368,48.1 144.471368,48.1 C155.867368,48.1 163.267368,56.092 163.267368,68.08 L163.267368,71.484 C157.791368,68.08 150.687368,65.564 142.695368,65.564 C127.451368,65.564 116.943368,75.036 116.943368,86.58 C116.943368,97.532 126.859368,106.708 140.919368,106.708 C150.835368,106.708 158.975368,101.972 164.007368,95.756 C165.191368,102.416 169.927368,105.672 175.107368,105.672 Z M127.599368,86.136 C127.599368,78.144 134.259368,71.04 145.655368,71.04 C151.279368,71.04 157.643368,72.816 163.267368,76.072 L163.267368,90.132 C159.123368,96.2 151.723368,100.492 143.731368,100.492 C133.963368,100.492 127.599368,93.98 127.599368,86.136 Z" id="Shape"></path>
        </g>
    </g>
</svg>