<?xml version="1.0" encoding="UTF-8"?>
<svg width="544px" height="116px" viewBox="0 0 544 116" version="1.1" xmlns="http://www.w3.org/2000/svg" xmlns:xlink="http://www.w3.org/1999/xlink">
    <title>Artboard</title>
    <g id="Artboard" stroke="none" stroke-width="1" fill="none" fill-rule="evenodd">
        <rect id="Rectangle" fill="#F04B28" x="143" y="0" width="115" height="116"></rect>
        <rect id="Rectangle-Copy-3" fill="#8A191B" x="0" y="0" width="115" height="116"></rect>
        <rect id="Rectangle-Copy" fill="#F3BF4B" x="286" y="0" width="115" height="116"></rect>
        <rect id="Rectangle-Copy-2" fill="#F3CD7C" x="429" y="0" width="115" height="116"></rect>
        <line x1="0.5" y1="-0.5" x2="57.5" y2="57.5" id="Line" stroke="#FFFFFF" stroke-width="4" stroke-linecap="round" stroke-linejoin="round"></line>
        <line x1="143.5" y1="-0.5" x2="200.5" y2="57.5" id="Line-Copy" stroke="#FFFFFF" stroke-width="4" stroke-linecap="round" stroke-linejoin="round"></line>
        <line x1="286.5" y1="-0.5" x2="343.5" y2="57.5" id="Line-Copy-3" stroke="#FFFFFF" stroke-width="4" stroke-linecap="round" stroke-linejoin="round"></line>
        <line x1="429.5" y1="-0.5" x2="486.5" y2="57.5" id="Line-Copy-5" stroke="#FFFFFF" stroke-width="4" stroke-linecap="round" stroke-linejoin="round"></line>
        <line x1="57.5" y1="-0.5" x2="114.5" y2="57.5" id="Line" stroke="#FFFFFF" stroke-width="4" stroke-linecap="round" stroke-linejoin="round" transform="translate(86.000000, 28.500000) scale(-1, 1) translate(-86.000000, -28.500000) "></line>
        <line x1="200.5" y1="-0.5" x2="257.5" y2="57.5" id="Line-Copy-2" stroke="#FFFFFF" stroke-width="4" stroke-linecap="round" stroke-linejoin="round" transform="translate(229.000000, 28.500000) scale(-1, 1) translate(-229.000000, -28.500000) "></line>
        <line x1="343.5" y1="-0.5" x2="400.5" y2="57.5" id="Line-Copy-4" stroke="#FFFFFF" stroke-width="4" stroke-linecap="round" stroke-linejoin="round" transform="translate(372.000000, 28.500000) scale(-1, 1) translate(-372.000000, -28.500000) "></line>
        <line x1="486.5" y1="-0.5" x2="543.5" y2="57.5" id="Line-Copy-6" stroke="#FFFFFF" stroke-width="4" stroke-linecap="round" stroke-linejoin="round" transform="translate(515.000000, 28.500000) scale(-1, 1) translate(-515.000000, -28.500000) "></line>
    </g>
</svg>