<?xml version="1.0" encoding="UTF-8"?>
<svg width="946px" height="116px" viewBox="0 0 946 116" version="1.1" xmlns="http://www.w3.org/2000/svg" xmlns:xlink="http://www.w3.org/1999/xlink">
    <title>Extra Large</title>
    <g id="Extra-Large" stroke="none" stroke-width="1" fill="none" fill-rule="evenodd">
        <rect fill="#FFFFFF" x="0" y="0" width="946" height="116"></rect>
        <g id="恭喜發財紅包拿來" transform="translate(-0.280000, 3.756000)" fill-rule="nonzero">
            <path d="M108.56,34.456 L94.754,34.456 L94.754,29.972 L105.256,29.972 L105.256,6.962 L94.754,6.962 L94.754,0.944 L61.832,0.944 L61.832,6.962 L46.374,6.962 L46.374,0.944 L14.75,0.944 L14.75,6.962 L3.422,6.962 L3.422,29.972 L14.75,29.972 L14.75,34.456 L-2.84217094e-14,34.456 L-2.84217094e-14,56.64 L12.862,56.64 L-2.84217094e-14,65.726 L-2.84217094e-14,86.612 L8.968,86.612 L3.304,92.984 L3.304,108.442 L29.972,108.442 L29.972,111.746 L67.85,111.746 L67.85,67.732 L77.172,77.408 L70.446,77.408 L70.446,109.268 L86.376,109.268 L86.376,86.612 L88.972,86.612 L88.972,109.268 L105.492,109.268 L105.492,86.612 L108.56,86.612 L108.56,65.726 L95.58,56.64 L108.56,56.64 L108.56,34.456 Z M46.374,29.972 L61.832,29.972 L61.832,34.456 L46.374,34.456 L46.374,29.972 Z M60.888,60.062 L46.728,60.062 L50.386,56.64 L57.584,56.64 L60.888,60.062 Z M32.096,97.94 L32.096,81.774 L25.606,81.774 L34.928,72.57 L34.928,95.226 L32.096,97.94 Z" id="Shape" fill="#8A191B"></path>
            <path d="M153.654632,25.842 L121.086632,25.842 L121.086632,39.294 L226.224632,39.294 L226.224632,25.842 L193.302632,25.842 L193.302632,22.892 L228.230632,22.892 L228.230632,4.838 L193.302632,4.838 L193.302632,0.826 L153.654632,0.826 L153.654632,4.838 L119.552632,4.838 L119.552632,22.892 L153.654632,22.892 L153.654632,25.842 Z M217.610632,66.198 L218.554632,63.248 L224.926632,63.248 L224.926632,42.126 L122.620632,42.126 L122.620632,63.248 L129.464632,63.248 L130.290632,66.198 L119.434632,66.198 L119.434632,81.892 L228.702632,81.892 L228.702632,66.198 L217.610632,66.198 Z M156.840632,51.684 L191.060632,51.684 L191.060632,54.398 L156.840632,54.398 L156.840632,51.684 Z M165.572632,63.248 L183.390632,63.248 L182.210632,66.198 L166.516632,66.198 L165.572632,63.248 Z M121.440632,110.448 L226.342632,110.448 L226.342632,84.842 L121.440632,84.842 L121.440632,110.448 Z M157.194632,95.816 L191.414632,95.816 L191.414632,98.766 L157.194632,98.766 L157.194632,95.816 Z" id="Shape" fill="#8A191B"></path>
            <path d="M292.323263,36.226 L292.323263,2.36 L239.105263,2.36 L239.105263,23.6 L270.493263,23.6 L270.493263,24.426 L265.065263,30.326 L262.587263,26.078 L240.167263,26.078 L240.167263,29.028 L242.291263,33.158 L237.689263,33.158 L237.689263,49.206 L240.875263,49.206 L240.875263,60.888 L263.531263,60.888 L263.531263,63.366 L241.111263,63.366 L241.111263,89.326 L263.649263,89.326 L263.649263,91.922 L238.987263,91.922 L238.987263,110.802 L277.573263,110.802 L289.137263,101.716 L289.137263,76.228 L267.661263,76.228 L267.661263,73.632 L289.137263,73.632 L289.137263,44.368 L285.243263,44.368 L292.323263,36.226 Z M348.963263,45.784 L348.963263,27.376 L320.643263,27.376 L318.519263,25.134 L327.487263,25.134 L327.487263,3.068 L311.085263,3.068 L311.085263,10.384 L305.185263,2.36 L294.683263,2.36 L294.683263,36.226 L300.465263,43.07 L294.683263,43.07 L294.683263,50.386 L291.615263,50.386 L291.615263,66.552 L313.917263,66.552 L318.755263,61.832 L318.755263,57.23 L321.351263,57.23 L321.351263,61.832 L326.189263,66.552 L348.845263,66.552 L348.845263,50.386 L345.423263,50.386 L345.423263,45.784 L348.963263,45.784 Z M347.075263,18.88 L347.075263,3.068 L330.083263,3.068 L330.083263,25.134 L342.119263,25.134 L347.075263,18.88 Z M347.547263,91.804 L347.547263,68.794 L291.851263,68.794 L291.851263,83.662 L323.121263,83.662 L323.121263,85.668 L319.817263,88.5 L316.277263,85.904 L291.851263,85.904 L291.851263,94.282 L296.689263,98.058 L291.851263,101.244 L291.851263,110.92 L314.743263,110.92 L319.463263,106.554 L324.537263,110.92 L348.491263,110.92 L348.491263,100.3 L342.945263,96.052 L347.547263,91.804 Z" id="Shape" fill="#F04B28"></path>
            <path d="M468.161895,11.21 L463.205895,11.21 L463.205895,1.77 L431.345895,1.77 L431.345895,11.21 L412.111895,11.21 L412.111895,40.592 L427.215895,40.592 L411.639895,55.224 L411.639895,92.04 L419.191895,92.04 L431.345895,75.284 L431.345895,90.388 L422.731895,98.412 L422.731895,110.684 L463.205895,110.684 L463.205895,40.592 L468.161895,40.592 L468.161895,11.21 Z M358.539895,89.68 L362.551895,89.68 L358.185895,99.238 L358.185895,110.33 L379.779895,110.33 L382.611895,94.872 L384.263895,94.872 L387.331895,110.33 L408.453895,110.33 L408.453895,98.412 L403.851895,89.68 L408.453895,89.68 L408.453895,1.888 L358.539895,1.888 L358.539895,89.68 Z M387.095895,27.14 L387.095895,31.506 L378.835895,31.506 L378.835895,27.14 L387.095895,27.14 Z M387.095895,50.622 L378.835895,50.622 L378.835895,46.256 L387.095895,46.256 L387.095895,50.622 Z M378.835895,65.372 L387.095895,65.372 L387.095895,69.738 L378.835895,69.738 L378.835895,65.372 Z" id="Shape" fill="#F04B28"></path>
            <path d="M479.862526,16.52 L479.862526,45.902 L487.886526,45.902 L487.886526,46.728 L479.036526,56.168 L479.036526,82.364 L521.280526,82.364 L521.280526,59.118 L513.020526,59.118 L513.020526,58.41 L521.280526,49.56 L521.280526,29.264 L511.958526,29.264 L511.958526,28.556 L521.280526,18.644 L521.280526,2.596 L492.488526,2.596 L479.862526,16.52 Z M571.076526,79.65 L571.076526,33.748 L585.118526,33.748 L585.118526,2.95 L524.820526,2.95 L524.820526,33.748 L536.856526,33.748 L536.856526,79.65 L523.994526,79.65 L523.994526,110.684 L587.124526,110.684 L587.124526,79.65 L571.076526,79.65 Z M477.266526,91.096 L477.266526,110.448 L491.780526,110.448 L491.780526,85.196 L479.980526,85.196 L477.266526,91.096 Z M494.494526,110.448 L507.828526,110.448 L507.828526,85.196 L494.494526,85.196 L494.494526,110.448 Z M510.660526,110.448 L521.044526,110.448 L521.044526,85.196 L510.660526,85.196 L510.660526,110.448 Z" id="Shape" fill="#F3BF4B"></path>
            <path d="M670.097158,74.812 L695.113158,74.812 L704.435158,65.844 L704.435158,4.838 L640.479158,4.838 L640.479158,0.354 L609.563158,0.354 L597.527158,15.694 L597.527158,34.338 L670.097158,34.338 L670.097158,74.812 Z M674.109158,78.234 L669.389158,83.072 L635.759158,83.072 L635.759158,79.414 L666.321158,79.414 L666.321158,37.878 L600.359158,37.878 L600.359158,110.92 L707.149158,110.92 L707.149158,78.234 L674.109158,78.234 Z M639.299158,57.23 L639.299158,62.894 L631.039158,62.894 L631.039158,57.23 L639.299158,57.23 Z" id="Shape" fill="#F3BF4B"></path>
            <path d="M796.021789,0 L747.759789,0 L716.607789,13.216 L716.607789,36.462 L720.855789,36.462 L720.855789,53.808 L822.099789,53.808 L822.099789,36.58 L827.055789,36.58 L827.055789,13.216 L796.021789,0 Z M775.725789,18.762 L781.507789,21.122 L761.211789,21.122 L766.993789,18.762 L775.725789,18.762 Z M750.473789,25.252 L750.473789,28.792 L792.245789,28.792 L792.245789,25.37 L804.989789,31.27 L737.493789,31.27 L750.473789,25.252 Z M790.711789,44.25 L751.653789,44.25 L751.653789,41.182 L790.711789,41.182 L790.711789,44.25 Z M792.835789,83.308 L825.285789,83.308 L825.285789,71.744 L792.835789,71.744 L792.835789,69.03 L819.739789,69.03 L825.757789,65.254 L825.757789,56.404 L717.905789,56.404 L717.905789,69.03 L751.535789,69.03 L751.535789,71.744 L718.141789,71.744 L718.141789,83.308 L751.535789,83.308 L751.535789,86.14 L717.551789,86.14 L717.551789,100.418 L751.535789,100.418 L751.535789,101.244 L741.623789,104.666 L741.623789,111.274 L792.835789,111.274 L792.835789,100.418 L825.875789,100.418 L825.875789,86.14 L792.835789,86.14 L792.835789,83.308 Z" id="Shape" fill="#F3CD7C"></path>
            <polygon id="Path" fill="#F3CD7C" points="921.120421 69.384 922.890421 67.732 926.194421 67.732 933.982421 73.75 944.838421 73.75 944.838421 49.56 937.640421 44.722 937.640421 37.052 911.798421 37.052 911.798421 43.542 908.730421 46.492 908.730421 33.748 945.428421 33.748 945.428421 6.49 908.730421 6.49 908.730421 0.354 872.858421 0.354 872.858421 6.49 837.222421 6.49 837.222421 33.748 872.858421 33.748 872.858421 46.61 869.672421 43.542 869.672421 37.052 844.892421 37.052 844.892421 44.722 838.166421 49.56 838.166421 73.75 848.668421 73.75 856.810421 67.732 859.406421 67.732 861.412421 69.738 836.986421 85.904 836.986421 110.094 858.226421 110.094 872.858421 95.816 872.858421 110.448 908.730421 110.448 908.730421 95.462 923.716421 110.094 946.136421 110.094 946.136421 85.904"></polygon>
        </g>
    </g>
</svg>